G04 #@! TF.GenerationSoftware,KiCad,Pcbnew,5.1.6-c6e7f7d~87~ubuntu18.04.1*
G04 #@! TF.CreationDate,2020-08-06T21:04:51-07:00*
G04 #@! TF.ProjectId,scythe_badge,73637974-6865-45f6-9261-6467652e6b69,rev?*
G04 #@! TF.SameCoordinates,Original*
G04 #@! TF.FileFunction,Legend,Top*
G04 #@! TF.FilePolarity,Positive*
%FSLAX46Y46*%
G04 Gerber Fmt 4.6, Leading zero omitted, Abs format (unit mm)*
G04 Created by KiCad (PCBNEW 5.1.6-c6e7f7d~87~ubuntu18.04.1) date 2020-08-06 21:04:51*
%MOMM*%
%LPD*%
G01*
G04 APERTURE LIST*
%ADD10C,0.010000*%
%ADD11C,0.500000*%
G04 APERTURE END LIST*
D10*
G36*
X171755772Y-98789084D02*
G01*
X171745204Y-98901099D01*
X171724483Y-99059593D01*
X171704990Y-99188531D01*
X171650313Y-99593731D01*
X171611180Y-100029421D01*
X171587187Y-100506683D01*
X171577929Y-101036597D01*
X171583003Y-101630243D01*
X171596877Y-102151541D01*
X171611957Y-102548271D01*
X171629234Y-102902963D01*
X171648080Y-103206182D01*
X171667870Y-103448489D01*
X171687976Y-103620449D01*
X171698291Y-103678667D01*
X171775535Y-103977748D01*
X171881895Y-104291593D01*
X172021365Y-104628451D01*
X172197940Y-104996574D01*
X172415612Y-105404215D01*
X172678378Y-105859623D01*
X172990229Y-106371050D01*
X173040482Y-106451500D01*
X173200348Y-106708006D01*
X173353621Y-106956272D01*
X173491640Y-107182093D01*
X173605746Y-107371264D01*
X173687281Y-107509579D01*
X173711437Y-107552167D01*
X173862445Y-107819281D01*
X173983121Y-108017049D01*
X174080058Y-108152315D01*
X174159847Y-108231924D01*
X174229079Y-108262721D01*
X174294347Y-108251550D01*
X174350111Y-108215406D01*
X174444418Y-108139041D01*
X174268808Y-107749036D01*
X174176095Y-107528567D01*
X174083385Y-107283913D01*
X174006802Y-107058291D01*
X173988464Y-106997613D01*
X173928343Y-106752719D01*
X173879318Y-106479396D01*
X173842207Y-106192690D01*
X173817831Y-105907647D01*
X173807008Y-105639314D01*
X173810559Y-105402735D01*
X173829303Y-105212958D01*
X173864060Y-105085028D01*
X173882621Y-105054554D01*
X173925639Y-105015603D01*
X173966034Y-105019970D01*
X174013598Y-105077448D01*
X174078124Y-105197828D01*
X174126069Y-105297962D01*
X174210555Y-105457498D01*
X174336285Y-105668696D01*
X174492924Y-105916074D01*
X174670136Y-106184151D01*
X174857588Y-106457447D01*
X175044945Y-106720481D01*
X175221871Y-106957770D01*
X175305910Y-107065334D01*
X175444536Y-107229807D01*
X175626984Y-107432289D01*
X175842436Y-107661998D01*
X176080071Y-107908154D01*
X176329069Y-108159977D01*
X176578608Y-108406686D01*
X176817870Y-108637502D01*
X177036032Y-108841643D01*
X177222276Y-109008330D01*
X177365780Y-109126783D01*
X177401494Y-109153154D01*
X177681822Y-109351027D01*
X177710233Y-110039097D01*
X177724388Y-110360305D01*
X177740217Y-110672965D01*
X177758564Y-110988711D01*
X177780274Y-111319178D01*
X177806191Y-111676001D01*
X177837158Y-112070813D01*
X177874020Y-112515250D01*
X177917621Y-113020947D01*
X177967478Y-113584667D01*
X178019644Y-114177897D01*
X178063594Y-114700558D01*
X178100002Y-115166279D01*
X178129541Y-115588691D01*
X178152885Y-115981422D01*
X178170708Y-116358103D01*
X178183683Y-116732362D01*
X178192484Y-117117830D01*
X178197784Y-117528137D01*
X178200256Y-117976911D01*
X178200666Y-118303382D01*
X178199120Y-118851506D01*
X178194035Y-119327704D01*
X178184744Y-119744668D01*
X178170578Y-120115092D01*
X178150870Y-120451667D01*
X178124952Y-120767085D01*
X178092157Y-121074040D01*
X178051815Y-121385223D01*
X178030789Y-121531594D01*
X177886848Y-122382988D01*
X177713705Y-123171864D01*
X177506230Y-123916877D01*
X177259294Y-124636680D01*
X177003283Y-125268667D01*
X176931814Y-125436546D01*
X176868262Y-125594794D01*
X176811014Y-125751044D01*
X176758459Y-125912930D01*
X176708985Y-126088085D01*
X176660980Y-126284140D01*
X176612832Y-126508730D01*
X176562929Y-126769487D01*
X176509659Y-127074045D01*
X176451412Y-127430035D01*
X176386573Y-127845091D01*
X176313533Y-128326847D01*
X176230678Y-128882934D01*
X176208670Y-129031574D01*
X176101072Y-129754487D01*
X176003317Y-130400996D01*
X175914055Y-130978617D01*
X175831935Y-131494869D01*
X175755609Y-131957270D01*
X175683725Y-132373339D01*
X175614934Y-132750593D01*
X175547886Y-133096551D01*
X175481230Y-133418731D01*
X175413618Y-133724651D01*
X175343699Y-134021830D01*
X175270122Y-134317785D01*
X175234829Y-134455000D01*
X175138336Y-134810556D01*
X175031672Y-135175855D01*
X174919471Y-135537095D01*
X174806372Y-135880474D01*
X174697010Y-136192189D01*
X174596024Y-136458439D01*
X174508049Y-136665420D01*
X174459747Y-136762167D01*
X174378950Y-136900234D01*
X174311842Y-136982879D01*
X174235154Y-137030854D01*
X174125616Y-137064911D01*
X174118156Y-137066797D01*
X173870505Y-137116717D01*
X173553449Y-137161356D01*
X173182128Y-137199922D01*
X172771685Y-137231624D01*
X172337261Y-137255669D01*
X171893998Y-137271265D01*
X171457038Y-137277620D01*
X171041522Y-137273942D01*
X170662592Y-137259440D01*
X170559500Y-137252943D01*
X170210537Y-137226635D01*
X169852585Y-137196046D01*
X169497814Y-137162533D01*
X169158396Y-137127452D01*
X168846499Y-137092161D01*
X168574296Y-137058014D01*
X168353956Y-137026369D01*
X168197650Y-136998582D01*
X168134346Y-136982648D01*
X168053502Y-136951448D01*
X167998929Y-136909020D01*
X167957251Y-136835410D01*
X167915090Y-136710666D01*
X167887078Y-136613838D01*
X167835732Y-136410904D01*
X167778234Y-136144963D01*
X167715727Y-135824239D01*
X167649352Y-135456956D01*
X167580253Y-135051339D01*
X167509572Y-134615611D01*
X167438450Y-134157998D01*
X167368031Y-133686722D01*
X167299457Y-133210009D01*
X167233871Y-132736082D01*
X167172414Y-132273165D01*
X167116229Y-131829483D01*
X167066459Y-131413260D01*
X167024246Y-131032721D01*
X166990733Y-130696088D01*
X166967061Y-130411587D01*
X166954374Y-130187441D01*
X166953813Y-130031875D01*
X166963039Y-129961767D01*
X166995736Y-129924836D01*
X167077720Y-129879210D01*
X167216877Y-129821668D01*
X167421093Y-129748988D01*
X167698254Y-129657946D01*
X167736375Y-129645766D01*
X168087061Y-129531447D01*
X168363748Y-129434872D01*
X168574352Y-129352377D01*
X168726789Y-129280300D01*
X168828977Y-129214977D01*
X168888831Y-129152746D01*
X168911766Y-129101891D01*
X168920298Y-129003332D01*
X168906502Y-128948434D01*
X168838453Y-128916683D01*
X168691298Y-128912635D01*
X168465892Y-128936159D01*
X168163090Y-128987125D01*
X167783746Y-129065402D01*
X167328715Y-129170860D01*
X167130500Y-129219433D01*
X166614940Y-129346163D01*
X166168249Y-129452176D01*
X165777634Y-129539109D01*
X165430301Y-129608597D01*
X165113457Y-129662278D01*
X164814308Y-129701789D01*
X164520062Y-129728765D01*
X164217924Y-129744844D01*
X163895101Y-129751663D01*
X163538800Y-129750857D01*
X163136227Y-129744064D01*
X163045333Y-129742047D01*
X162627274Y-129730530D01*
X162272299Y-129715120D01*
X161959153Y-129693221D01*
X161666580Y-129662234D01*
X161373324Y-129619566D01*
X161058130Y-129562617D01*
X160699742Y-129488794D01*
X160359016Y-129413910D01*
X160107740Y-129359934D01*
X159876887Y-129314449D01*
X159682364Y-129280271D01*
X159540081Y-129260217D01*
X159470016Y-129256553D01*
X159378522Y-129277265D01*
X159344780Y-129333118D01*
X159341167Y-129394481D01*
X159361773Y-129487042D01*
X159429299Y-129571707D01*
X159552302Y-129653860D01*
X159739342Y-129738888D01*
X159998977Y-129832177D01*
X160077402Y-129857798D01*
X160828604Y-130066351D01*
X161617569Y-130223218D01*
X162099449Y-130290014D01*
X162315789Y-130315555D01*
X162503432Y-130338762D01*
X162645558Y-130357479D01*
X162725347Y-130369544D01*
X162734541Y-130371524D01*
X162764471Y-130408497D01*
X162789634Y-130503626D01*
X162810231Y-130660646D01*
X162826463Y-130883292D01*
X162838531Y-131175299D01*
X162846635Y-131540404D01*
X162850977Y-131982341D01*
X162851757Y-132504845D01*
X162851672Y-132550000D01*
X162850234Y-132967643D01*
X162847492Y-133312670D01*
X162842912Y-133597128D01*
X162835961Y-133833065D01*
X162826108Y-134032529D01*
X162812819Y-134207567D01*
X162795561Y-134370225D01*
X162773802Y-134532553D01*
X162759907Y-134624865D01*
X162611644Y-135446381D01*
X162431889Y-136202538D01*
X162277666Y-136721433D01*
X162181834Y-137003533D01*
X162100944Y-137212584D01*
X162029852Y-137357786D01*
X161963414Y-137448341D01*
X161896487Y-137493448D01*
X161840695Y-137503000D01*
X161772735Y-137508614D01*
X161632562Y-137524478D01*
X161431815Y-137549123D01*
X161182131Y-137581080D01*
X160895151Y-137618881D01*
X160582513Y-137661057D01*
X160515988Y-137670155D01*
X159734347Y-137767357D01*
X158979800Y-137841551D01*
X158261018Y-137892417D01*
X157586669Y-137919633D01*
X156965425Y-137922878D01*
X156405955Y-137901831D01*
X155916930Y-137856172D01*
X155826164Y-137843742D01*
X155538440Y-137799162D01*
X155322843Y-137757991D01*
X155167171Y-137716044D01*
X155059225Y-137669138D01*
X154986805Y-137613087D01*
X154937712Y-137543708D01*
X154934701Y-137537987D01*
X154895019Y-137436534D01*
X154887672Y-137362269D01*
X154888772Y-137358837D01*
X154934297Y-137321386D01*
X155040667Y-137262658D01*
X155189822Y-137192075D01*
X155294928Y-137146881D01*
X155610991Y-136997917D01*
X155895703Y-136821565D01*
X156172097Y-136601581D01*
X156459554Y-136325477D01*
X156828918Y-135898363D01*
X157175783Y-135405552D01*
X157491321Y-134864902D01*
X157766702Y-134294272D01*
X157993097Y-133711521D01*
X158161678Y-133134507D01*
X158245306Y-132713371D01*
X158278928Y-132436817D01*
X158302331Y-132123790D01*
X158315242Y-131795655D01*
X158317389Y-131473780D01*
X158308496Y-131179532D01*
X158288293Y-130934276D01*
X158269592Y-130814334D01*
X158214018Y-130539167D01*
X158867907Y-128951667D01*
X159042700Y-128527367D01*
X159188152Y-128174722D01*
X159307179Y-127887105D01*
X159402696Y-127657887D01*
X159477618Y-127480443D01*
X159534862Y-127348146D01*
X159577343Y-127254368D01*
X159607976Y-127192483D01*
X159629677Y-127155863D01*
X159645362Y-127137882D01*
X159657946Y-127131913D01*
X159668778Y-127131334D01*
X159718309Y-127152349D01*
X159823724Y-127209461D01*
X159969192Y-127293763D01*
X160126675Y-127388844D01*
X160588995Y-127651359D01*
X161024928Y-127850218D01*
X161455472Y-127991931D01*
X161901622Y-128083008D01*
X162384374Y-128129960D01*
X162537333Y-128136349D01*
X163047381Y-128131370D01*
X163523840Y-128080311D01*
X163988414Y-127978379D01*
X164462808Y-127820778D01*
X164968726Y-127602713D01*
X164982475Y-127596204D01*
X165534990Y-127304776D01*
X166051857Y-126968847D01*
X166549364Y-126576472D01*
X167043799Y-126115703D01*
X167154338Y-126003395D01*
X167574198Y-125541482D01*
X167941677Y-125070862D01*
X168273113Y-124568269D01*
X168584842Y-124010442D01*
X168666172Y-123850500D01*
X169020803Y-123046707D01*
X169303814Y-122201483D01*
X169514733Y-121319297D01*
X169653084Y-120404618D01*
X169718396Y-119461915D01*
X169710192Y-118495658D01*
X169628001Y-117510313D01*
X169471348Y-116510352D01*
X169453822Y-116421000D01*
X169350583Y-115950071D01*
X169223352Y-115445221D01*
X169078932Y-114929495D01*
X168924123Y-114425937D01*
X168765728Y-113957593D01*
X168610549Y-113547505D01*
X168593068Y-113504761D01*
X168531907Y-113348036D01*
X168486413Y-113215215D01*
X168464755Y-113130578D01*
X168464000Y-113121073D01*
X168488167Y-113076986D01*
X168568084Y-113031709D01*
X168714876Y-112979814D01*
X168813250Y-112950706D01*
X169925473Y-112593089D01*
X171010068Y-112160645D01*
X172072654Y-111650759D01*
X173118850Y-111060816D01*
X173790680Y-110634555D01*
X174220128Y-110341545D01*
X174597825Y-110066328D01*
X174920704Y-109811851D01*
X175185695Y-109581061D01*
X175389731Y-109376902D01*
X175529742Y-109202323D01*
X175602661Y-109060267D01*
X175605418Y-108953682D01*
X175580776Y-108915843D01*
X175546264Y-108894268D01*
X175497364Y-108892294D01*
X175426216Y-108914230D01*
X175324959Y-108964386D01*
X175185734Y-109047072D01*
X175000680Y-109166599D01*
X174761938Y-109327277D01*
X174489255Y-109514366D01*
X174002673Y-109846386D01*
X173569853Y-110133549D01*
X173178212Y-110383596D01*
X172815165Y-110604269D01*
X172468127Y-110803308D01*
X172124514Y-110988455D01*
X171932102Y-111087334D01*
X171313731Y-111383917D01*
X170671805Y-111661656D01*
X170021437Y-111915300D01*
X169377741Y-112139597D01*
X168755832Y-112329298D01*
X168170824Y-112479150D01*
X167637831Y-112583904D01*
X167613117Y-112587817D01*
X167417465Y-112618406D01*
X167242815Y-112645708D01*
X167112691Y-112666046D01*
X167062463Y-112673894D01*
X166952093Y-112691132D01*
X166926969Y-111539816D01*
X166906386Y-110914853D01*
X166872020Y-110357311D01*
X166821470Y-109850714D01*
X166752333Y-109378584D01*
X166662210Y-108924444D01*
X166548697Y-108471817D01*
X166413514Y-108017193D01*
X166359040Y-107836979D01*
X166319374Y-107688777D01*
X166298716Y-107589527D01*
X166299255Y-107556298D01*
X166348524Y-107537965D01*
X166460850Y-107500869D01*
X166618273Y-107450837D01*
X166760421Y-107406701D01*
X167259776Y-107232549D01*
X167725461Y-107024872D01*
X168167113Y-106776647D01*
X168594364Y-106480854D01*
X169016848Y-106130471D01*
X169444200Y-105718476D01*
X169886054Y-105237847D01*
X170132933Y-104948667D01*
X170261887Y-104788821D01*
X170411577Y-104594506D01*
X170574253Y-104376727D01*
X170742163Y-104146491D01*
X170907559Y-103914802D01*
X171062689Y-103692668D01*
X171199802Y-103491094D01*
X171311149Y-103321087D01*
X171388979Y-103193652D01*
X171425542Y-103119796D01*
X171427333Y-103110555D01*
X171396371Y-103036197D01*
X171312649Y-103017142D01*
X171189917Y-103056297D01*
X171184324Y-103059150D01*
X171143699Y-103081956D01*
X171103414Y-103111238D01*
X171056913Y-103154974D01*
X170997639Y-103221138D01*
X170919038Y-103317706D01*
X170814552Y-103452655D01*
X170677625Y-103633961D01*
X170501701Y-103869599D01*
X170345867Y-104079186D01*
X170161620Y-104315872D01*
X169951305Y-104567032D01*
X169723192Y-104824499D01*
X169485550Y-105080109D01*
X169246649Y-105325696D01*
X169014759Y-105553095D01*
X168798150Y-105754142D01*
X168605092Y-105920670D01*
X168443854Y-106044515D01*
X168322707Y-106117511D01*
X168264716Y-106134000D01*
X168233114Y-106124984D01*
X168221022Y-106091006D01*
X168231044Y-106021670D01*
X168265782Y-105906579D01*
X168327839Y-105735338D01*
X168419819Y-105497550D01*
X168431527Y-105467767D01*
X168532630Y-105219145D01*
X168619488Y-105033091D01*
X168704855Y-104891926D01*
X168801486Y-104777971D01*
X168922133Y-104673548D01*
X169079551Y-104560978D01*
X169091614Y-104552785D01*
X169307985Y-104391235D01*
X169540279Y-104192938D01*
X169767803Y-103977667D01*
X169969865Y-103765192D01*
X170125769Y-103575286D01*
X170149255Y-103542241D01*
X170363935Y-103187886D01*
X170575029Y-102755806D01*
X170779538Y-102252943D01*
X170974462Y-101686236D01*
X171032527Y-101498500D01*
X171078577Y-101275488D01*
X171104840Y-100992390D01*
X171111387Y-100671424D01*
X171098292Y-100334809D01*
X171065628Y-100004764D01*
X171026848Y-99767373D01*
X170943863Y-99348579D01*
X171090348Y-99224711D01*
X171242193Y-99100107D01*
X171397085Y-98979363D01*
X171540359Y-98873142D01*
X171657349Y-98792109D01*
X171733391Y-98746925D01*
X171754152Y-98742041D01*
X171755772Y-98789084D01*
G37*
X171755772Y-98789084D02*
X171745204Y-98901099D01*
X171724483Y-99059593D01*
X171704990Y-99188531D01*
X171650313Y-99593731D01*
X171611180Y-100029421D01*
X171587187Y-100506683D01*
X171577929Y-101036597D01*
X171583003Y-101630243D01*
X171596877Y-102151541D01*
X171611957Y-102548271D01*
X171629234Y-102902963D01*
X171648080Y-103206182D01*
X171667870Y-103448489D01*
X171687976Y-103620449D01*
X171698291Y-103678667D01*
X171775535Y-103977748D01*
X171881895Y-104291593D01*
X172021365Y-104628451D01*
X172197940Y-104996574D01*
X172415612Y-105404215D01*
X172678378Y-105859623D01*
X172990229Y-106371050D01*
X173040482Y-106451500D01*
X173200348Y-106708006D01*
X173353621Y-106956272D01*
X173491640Y-107182093D01*
X173605746Y-107371264D01*
X173687281Y-107509579D01*
X173711437Y-107552167D01*
X173862445Y-107819281D01*
X173983121Y-108017049D01*
X174080058Y-108152315D01*
X174159847Y-108231924D01*
X174229079Y-108262721D01*
X174294347Y-108251550D01*
X174350111Y-108215406D01*
X174444418Y-108139041D01*
X174268808Y-107749036D01*
X174176095Y-107528567D01*
X174083385Y-107283913D01*
X174006802Y-107058291D01*
X173988464Y-106997613D01*
X173928343Y-106752719D01*
X173879318Y-106479396D01*
X173842207Y-106192690D01*
X173817831Y-105907647D01*
X173807008Y-105639314D01*
X173810559Y-105402735D01*
X173829303Y-105212958D01*
X173864060Y-105085028D01*
X173882621Y-105054554D01*
X173925639Y-105015603D01*
X173966034Y-105019970D01*
X174013598Y-105077448D01*
X174078124Y-105197828D01*
X174126069Y-105297962D01*
X174210555Y-105457498D01*
X174336285Y-105668696D01*
X174492924Y-105916074D01*
X174670136Y-106184151D01*
X174857588Y-106457447D01*
X175044945Y-106720481D01*
X175221871Y-106957770D01*
X175305910Y-107065334D01*
X175444536Y-107229807D01*
X175626984Y-107432289D01*
X175842436Y-107661998D01*
X176080071Y-107908154D01*
X176329069Y-108159977D01*
X176578608Y-108406686D01*
X176817870Y-108637502D01*
X177036032Y-108841643D01*
X177222276Y-109008330D01*
X177365780Y-109126783D01*
X177401494Y-109153154D01*
X177681822Y-109351027D01*
X177710233Y-110039097D01*
X177724388Y-110360305D01*
X177740217Y-110672965D01*
X177758564Y-110988711D01*
X177780274Y-111319178D01*
X177806191Y-111676001D01*
X177837158Y-112070813D01*
X177874020Y-112515250D01*
X177917621Y-113020947D01*
X177967478Y-113584667D01*
X178019644Y-114177897D01*
X178063594Y-114700558D01*
X178100002Y-115166279D01*
X178129541Y-115588691D01*
X178152885Y-115981422D01*
X178170708Y-116358103D01*
X178183683Y-116732362D01*
X178192484Y-117117830D01*
X178197784Y-117528137D01*
X178200256Y-117976911D01*
X178200666Y-118303382D01*
X178199120Y-118851506D01*
X178194035Y-119327704D01*
X178184744Y-119744668D01*
X178170578Y-120115092D01*
X178150870Y-120451667D01*
X178124952Y-120767085D01*
X178092157Y-121074040D01*
X178051815Y-121385223D01*
X178030789Y-121531594D01*
X177886848Y-122382988D01*
X177713705Y-123171864D01*
X177506230Y-123916877D01*
X177259294Y-124636680D01*
X177003283Y-125268667D01*
X176931814Y-125436546D01*
X176868262Y-125594794D01*
X176811014Y-125751044D01*
X176758459Y-125912930D01*
X176708985Y-126088085D01*
X176660980Y-126284140D01*
X176612832Y-126508730D01*
X176562929Y-126769487D01*
X176509659Y-127074045D01*
X176451412Y-127430035D01*
X176386573Y-127845091D01*
X176313533Y-128326847D01*
X176230678Y-128882934D01*
X176208670Y-129031574D01*
X176101072Y-129754487D01*
X176003317Y-130400996D01*
X175914055Y-130978617D01*
X175831935Y-131494869D01*
X175755609Y-131957270D01*
X175683725Y-132373339D01*
X175614934Y-132750593D01*
X175547886Y-133096551D01*
X175481230Y-133418731D01*
X175413618Y-133724651D01*
X175343699Y-134021830D01*
X175270122Y-134317785D01*
X175234829Y-134455000D01*
X175138336Y-134810556D01*
X175031672Y-135175855D01*
X174919471Y-135537095D01*
X174806372Y-135880474D01*
X174697010Y-136192189D01*
X174596024Y-136458439D01*
X174508049Y-136665420D01*
X174459747Y-136762167D01*
X174378950Y-136900234D01*
X174311842Y-136982879D01*
X174235154Y-137030854D01*
X174125616Y-137064911D01*
X174118156Y-137066797D01*
X173870505Y-137116717D01*
X173553449Y-137161356D01*
X173182128Y-137199922D01*
X172771685Y-137231624D01*
X172337261Y-137255669D01*
X171893998Y-137271265D01*
X171457038Y-137277620D01*
X171041522Y-137273942D01*
X170662592Y-137259440D01*
X170559500Y-137252943D01*
X170210537Y-137226635D01*
X169852585Y-137196046D01*
X169497814Y-137162533D01*
X169158396Y-137127452D01*
X168846499Y-137092161D01*
X168574296Y-137058014D01*
X168353956Y-137026369D01*
X168197650Y-136998582D01*
X168134346Y-136982648D01*
X168053502Y-136951448D01*
X167998929Y-136909020D01*
X167957251Y-136835410D01*
X167915090Y-136710666D01*
X167887078Y-136613838D01*
X167835732Y-136410904D01*
X167778234Y-136144963D01*
X167715727Y-135824239D01*
X167649352Y-135456956D01*
X167580253Y-135051339D01*
X167509572Y-134615611D01*
X167438450Y-134157998D01*
X167368031Y-133686722D01*
X167299457Y-133210009D01*
X167233871Y-132736082D01*
X167172414Y-132273165D01*
X167116229Y-131829483D01*
X167066459Y-131413260D01*
X167024246Y-131032721D01*
X166990733Y-130696088D01*
X166967061Y-130411587D01*
X166954374Y-130187441D01*
X166953813Y-130031875D01*
X166963039Y-129961767D01*
X166995736Y-129924836D01*
X167077720Y-129879210D01*
X167216877Y-129821668D01*
X167421093Y-129748988D01*
X167698254Y-129657946D01*
X167736375Y-129645766D01*
X168087061Y-129531447D01*
X168363748Y-129434872D01*
X168574352Y-129352377D01*
X168726789Y-129280300D01*
X168828977Y-129214977D01*
X168888831Y-129152746D01*
X168911766Y-129101891D01*
X168920298Y-129003332D01*
X168906502Y-128948434D01*
X168838453Y-128916683D01*
X168691298Y-128912635D01*
X168465892Y-128936159D01*
X168163090Y-128987125D01*
X167783746Y-129065402D01*
X167328715Y-129170860D01*
X167130500Y-129219433D01*
X166614940Y-129346163D01*
X166168249Y-129452176D01*
X165777634Y-129539109D01*
X165430301Y-129608597D01*
X165113457Y-129662278D01*
X164814308Y-129701789D01*
X164520062Y-129728765D01*
X164217924Y-129744844D01*
X163895101Y-129751663D01*
X163538800Y-129750857D01*
X163136227Y-129744064D01*
X163045333Y-129742047D01*
X162627274Y-129730530D01*
X162272299Y-129715120D01*
X161959153Y-129693221D01*
X161666580Y-129662234D01*
X161373324Y-129619566D01*
X161058130Y-129562617D01*
X160699742Y-129488794D01*
X160359016Y-129413910D01*
X160107740Y-129359934D01*
X159876887Y-129314449D01*
X159682364Y-129280271D01*
X159540081Y-129260217D01*
X159470016Y-129256553D01*
X159378522Y-129277265D01*
X159344780Y-129333118D01*
X159341167Y-129394481D01*
X159361773Y-129487042D01*
X159429299Y-129571707D01*
X159552302Y-129653860D01*
X159739342Y-129738888D01*
X159998977Y-129832177D01*
X160077402Y-129857798D01*
X160828604Y-130066351D01*
X161617569Y-130223218D01*
X162099449Y-130290014D01*
X162315789Y-130315555D01*
X162503432Y-130338762D01*
X162645558Y-130357479D01*
X162725347Y-130369544D01*
X162734541Y-130371524D01*
X162764471Y-130408497D01*
X162789634Y-130503626D01*
X162810231Y-130660646D01*
X162826463Y-130883292D01*
X162838531Y-131175299D01*
X162846635Y-131540404D01*
X162850977Y-131982341D01*
X162851757Y-132504845D01*
X162851672Y-132550000D01*
X162850234Y-132967643D01*
X162847492Y-133312670D01*
X162842912Y-133597128D01*
X162835961Y-133833065D01*
X162826108Y-134032529D01*
X162812819Y-134207567D01*
X162795561Y-134370225D01*
X162773802Y-134532553D01*
X162759907Y-134624865D01*
X162611644Y-135446381D01*
X162431889Y-136202538D01*
X162277666Y-136721433D01*
X162181834Y-137003533D01*
X162100944Y-137212584D01*
X162029852Y-137357786D01*
X161963414Y-137448341D01*
X161896487Y-137493448D01*
X161840695Y-137503000D01*
X161772735Y-137508614D01*
X161632562Y-137524478D01*
X161431815Y-137549123D01*
X161182131Y-137581080D01*
X160895151Y-137618881D01*
X160582513Y-137661057D01*
X160515988Y-137670155D01*
X159734347Y-137767357D01*
X158979800Y-137841551D01*
X158261018Y-137892417D01*
X157586669Y-137919633D01*
X156965425Y-137922878D01*
X156405955Y-137901831D01*
X155916930Y-137856172D01*
X155826164Y-137843742D01*
X155538440Y-137799162D01*
X155322843Y-137757991D01*
X155167171Y-137716044D01*
X155059225Y-137669138D01*
X154986805Y-137613087D01*
X154937712Y-137543708D01*
X154934701Y-137537987D01*
X154895019Y-137436534D01*
X154887672Y-137362269D01*
X154888772Y-137358837D01*
X154934297Y-137321386D01*
X155040667Y-137262658D01*
X155189822Y-137192075D01*
X155294928Y-137146881D01*
X155610991Y-136997917D01*
X155895703Y-136821565D01*
X156172097Y-136601581D01*
X156459554Y-136325477D01*
X156828918Y-135898363D01*
X157175783Y-135405552D01*
X157491321Y-134864902D01*
X157766702Y-134294272D01*
X157993097Y-133711521D01*
X158161678Y-133134507D01*
X158245306Y-132713371D01*
X158278928Y-132436817D01*
X158302331Y-132123790D01*
X158315242Y-131795655D01*
X158317389Y-131473780D01*
X158308496Y-131179532D01*
X158288293Y-130934276D01*
X158269592Y-130814334D01*
X158214018Y-130539167D01*
X158867907Y-128951667D01*
X159042700Y-128527367D01*
X159188152Y-128174722D01*
X159307179Y-127887105D01*
X159402696Y-127657887D01*
X159477618Y-127480443D01*
X159534862Y-127348146D01*
X159577343Y-127254368D01*
X159607976Y-127192483D01*
X159629677Y-127155863D01*
X159645362Y-127137882D01*
X159657946Y-127131913D01*
X159668778Y-127131334D01*
X159718309Y-127152349D01*
X159823724Y-127209461D01*
X159969192Y-127293763D01*
X160126675Y-127388844D01*
X160588995Y-127651359D01*
X161024928Y-127850218D01*
X161455472Y-127991931D01*
X161901622Y-128083008D01*
X162384374Y-128129960D01*
X162537333Y-128136349D01*
X163047381Y-128131370D01*
X163523840Y-128080311D01*
X163988414Y-127978379D01*
X164462808Y-127820778D01*
X164968726Y-127602713D01*
X164982475Y-127596204D01*
X165534990Y-127304776D01*
X166051857Y-126968847D01*
X166549364Y-126576472D01*
X167043799Y-126115703D01*
X167154338Y-126003395D01*
X167574198Y-125541482D01*
X167941677Y-125070862D01*
X168273113Y-124568269D01*
X168584842Y-124010442D01*
X168666172Y-123850500D01*
X169020803Y-123046707D01*
X169303814Y-122201483D01*
X169514733Y-121319297D01*
X169653084Y-120404618D01*
X169718396Y-119461915D01*
X169710192Y-118495658D01*
X169628001Y-117510313D01*
X169471348Y-116510352D01*
X169453822Y-116421000D01*
X169350583Y-115950071D01*
X169223352Y-115445221D01*
X169078932Y-114929495D01*
X168924123Y-114425937D01*
X168765728Y-113957593D01*
X168610549Y-113547505D01*
X168593068Y-113504761D01*
X168531907Y-113348036D01*
X168486413Y-113215215D01*
X168464755Y-113130578D01*
X168464000Y-113121073D01*
X168488167Y-113076986D01*
X168568084Y-113031709D01*
X168714876Y-112979814D01*
X168813250Y-112950706D01*
X169925473Y-112593089D01*
X171010068Y-112160645D01*
X172072654Y-111650759D01*
X173118850Y-111060816D01*
X173790680Y-110634555D01*
X174220128Y-110341545D01*
X174597825Y-110066328D01*
X174920704Y-109811851D01*
X175185695Y-109581061D01*
X175389731Y-109376902D01*
X175529742Y-109202323D01*
X175602661Y-109060267D01*
X175605418Y-108953682D01*
X175580776Y-108915843D01*
X175546264Y-108894268D01*
X175497364Y-108892294D01*
X175426216Y-108914230D01*
X175324959Y-108964386D01*
X175185734Y-109047072D01*
X175000680Y-109166599D01*
X174761938Y-109327277D01*
X174489255Y-109514366D01*
X174002673Y-109846386D01*
X173569853Y-110133549D01*
X173178212Y-110383596D01*
X172815165Y-110604269D01*
X172468127Y-110803308D01*
X172124514Y-110988455D01*
X171932102Y-111087334D01*
X171313731Y-111383917D01*
X170671805Y-111661656D01*
X170021437Y-111915300D01*
X169377741Y-112139597D01*
X168755832Y-112329298D01*
X168170824Y-112479150D01*
X167637831Y-112583904D01*
X167613117Y-112587817D01*
X167417465Y-112618406D01*
X167242815Y-112645708D01*
X167112691Y-112666046D01*
X167062463Y-112673894D01*
X166952093Y-112691132D01*
X166926969Y-111539816D01*
X166906386Y-110914853D01*
X166872020Y-110357311D01*
X166821470Y-109850714D01*
X166752333Y-109378584D01*
X166662210Y-108924444D01*
X166548697Y-108471817D01*
X166413514Y-108017193D01*
X166359040Y-107836979D01*
X166319374Y-107688777D01*
X166298716Y-107589527D01*
X166299255Y-107556298D01*
X166348524Y-107537965D01*
X166460850Y-107500869D01*
X166618273Y-107450837D01*
X166760421Y-107406701D01*
X167259776Y-107232549D01*
X167725461Y-107024872D01*
X168167113Y-106776647D01*
X168594364Y-106480854D01*
X169016848Y-106130471D01*
X169444200Y-105718476D01*
X169886054Y-105237847D01*
X170132933Y-104948667D01*
X170261887Y-104788821D01*
X170411577Y-104594506D01*
X170574253Y-104376727D01*
X170742163Y-104146491D01*
X170907559Y-103914802D01*
X171062689Y-103692668D01*
X171199802Y-103491094D01*
X171311149Y-103321087D01*
X171388979Y-103193652D01*
X171425542Y-103119796D01*
X171427333Y-103110555D01*
X171396371Y-103036197D01*
X171312649Y-103017142D01*
X171189917Y-103056297D01*
X171184324Y-103059150D01*
X171143699Y-103081956D01*
X171103414Y-103111238D01*
X171056913Y-103154974D01*
X170997639Y-103221138D01*
X170919038Y-103317706D01*
X170814552Y-103452655D01*
X170677625Y-103633961D01*
X170501701Y-103869599D01*
X170345867Y-104079186D01*
X170161620Y-104315872D01*
X169951305Y-104567032D01*
X169723192Y-104824499D01*
X169485550Y-105080109D01*
X169246649Y-105325696D01*
X169014759Y-105553095D01*
X168798150Y-105754142D01*
X168605092Y-105920670D01*
X168443854Y-106044515D01*
X168322707Y-106117511D01*
X168264716Y-106134000D01*
X168233114Y-106124984D01*
X168221022Y-106091006D01*
X168231044Y-106021670D01*
X168265782Y-105906579D01*
X168327839Y-105735338D01*
X168419819Y-105497550D01*
X168431527Y-105467767D01*
X168532630Y-105219145D01*
X168619488Y-105033091D01*
X168704855Y-104891926D01*
X168801486Y-104777971D01*
X168922133Y-104673548D01*
X169079551Y-104560978D01*
X169091614Y-104552785D01*
X169307985Y-104391235D01*
X169540279Y-104192938D01*
X169767803Y-103977667D01*
X169969865Y-103765192D01*
X170125769Y-103575286D01*
X170149255Y-103542241D01*
X170363935Y-103187886D01*
X170575029Y-102755806D01*
X170779538Y-102252943D01*
X170974462Y-101686236D01*
X171032527Y-101498500D01*
X171078577Y-101275488D01*
X171104840Y-100992390D01*
X171111387Y-100671424D01*
X171098292Y-100334809D01*
X171065628Y-100004764D01*
X171026848Y-99767373D01*
X170943863Y-99348579D01*
X171090348Y-99224711D01*
X171242193Y-99100107D01*
X171397085Y-98979363D01*
X171540359Y-98873142D01*
X171657349Y-98792109D01*
X171733391Y-98746925D01*
X171754152Y-98742041D01*
X171755772Y-98789084D01*
G36*
X153647730Y-114913300D02*
G01*
X153720746Y-114998599D01*
X153822831Y-115127727D01*
X153943853Y-115288194D01*
X153967520Y-115320334D01*
X154130318Y-115526676D01*
X154341315Y-115770696D01*
X154587462Y-116039259D01*
X154855713Y-116319230D01*
X155133019Y-116597476D01*
X155406334Y-116860863D01*
X155662610Y-117096256D01*
X155888800Y-117290522D01*
X156044885Y-117411509D01*
X156389271Y-117659041D01*
X156410296Y-119061437D01*
X156420163Y-119575822D01*
X156433985Y-120019417D01*
X156453024Y-120406055D01*
X156478544Y-120749572D01*
X156511808Y-121063799D01*
X156554081Y-121362573D01*
X156606626Y-121659726D01*
X156670707Y-121969092D01*
X156679522Y-122009000D01*
X156899800Y-122834272D01*
X157193649Y-123666546D01*
X157554131Y-124486618D01*
X157630436Y-124641165D01*
X157705560Y-124797172D01*
X157762886Y-124928774D01*
X157793350Y-125014648D01*
X157796000Y-125030639D01*
X157780580Y-125080366D01*
X157736737Y-125199417D01*
X157668093Y-125378749D01*
X157578269Y-125609318D01*
X157470888Y-125882080D01*
X157349573Y-126187992D01*
X157217946Y-126518011D01*
X157079629Y-126863092D01*
X156938245Y-127214193D01*
X156797415Y-127562270D01*
X156660763Y-127898279D01*
X156531910Y-128213177D01*
X156414479Y-128497920D01*
X156312092Y-128743465D01*
X156250891Y-128888167D01*
X156134729Y-129155804D01*
X156039929Y-129358703D01*
X155957207Y-129511051D01*
X155877277Y-129627036D01*
X155790853Y-129720842D01*
X155688650Y-129806659D01*
X155613563Y-129861877D01*
X155376036Y-130054440D01*
X155116866Y-130304576D01*
X154852738Y-130594362D01*
X154600339Y-130905876D01*
X154451667Y-131109806D01*
X154328344Y-131284008D01*
X154210121Y-131445597D01*
X154112410Y-131573790D01*
X154061324Y-131636125D01*
X153946148Y-131766834D01*
X153945838Y-131174167D01*
X153948590Y-130838157D01*
X153956707Y-130471333D01*
X153969487Y-130085460D01*
X153986229Y-129692304D01*
X154006229Y-129303630D01*
X154028787Y-128931202D01*
X154053198Y-128586786D01*
X154078762Y-128282147D01*
X154104776Y-128029051D01*
X154130537Y-127839261D01*
X154150842Y-127739634D01*
X154178907Y-127667709D01*
X154226002Y-127631568D01*
X154311374Y-127626827D01*
X154454265Y-127649102D01*
X154504583Y-127659054D01*
X154663333Y-127691089D01*
X154663333Y-127514262D01*
X154658633Y-127408686D01*
X154638612Y-127316816D01*
X154594390Y-127224019D01*
X154517085Y-127115662D01*
X154397816Y-126977112D01*
X154227703Y-126793735D01*
X154223026Y-126788773D01*
X153981829Y-126517098D01*
X153790641Y-126260520D01*
X153628771Y-125987551D01*
X153475528Y-125666703D01*
X153455585Y-125620818D01*
X153275276Y-125127557D01*
X153126239Y-124560215D01*
X153008671Y-123923468D01*
X152922768Y-123221991D01*
X152868726Y-122460462D01*
X152846741Y-121643555D01*
X152857010Y-120775948D01*
X152899729Y-119862316D01*
X152975095Y-118907335D01*
X153083302Y-117915682D01*
X153120116Y-117627500D01*
X153172358Y-117246153D01*
X153228388Y-116863767D01*
X153286527Y-116489660D01*
X153345098Y-116133152D01*
X153402424Y-115803561D01*
X153456827Y-115510207D01*
X153506630Y-115262408D01*
X153550155Y-115069482D01*
X153585725Y-114940749D01*
X153611662Y-114885527D01*
X153613911Y-114884323D01*
X153647730Y-114913300D01*
G37*
X153647730Y-114913300D02*
X153720746Y-114998599D01*
X153822831Y-115127727D01*
X153943853Y-115288194D01*
X153967520Y-115320334D01*
X154130318Y-115526676D01*
X154341315Y-115770696D01*
X154587462Y-116039259D01*
X154855713Y-116319230D01*
X155133019Y-116597476D01*
X155406334Y-116860863D01*
X155662610Y-117096256D01*
X155888800Y-117290522D01*
X156044885Y-117411509D01*
X156389271Y-117659041D01*
X156410296Y-119061437D01*
X156420163Y-119575822D01*
X156433985Y-120019417D01*
X156453024Y-120406055D01*
X156478544Y-120749572D01*
X156511808Y-121063799D01*
X156554081Y-121362573D01*
X156606626Y-121659726D01*
X156670707Y-121969092D01*
X156679522Y-122009000D01*
X156899800Y-122834272D01*
X157193649Y-123666546D01*
X157554131Y-124486618D01*
X157630436Y-124641165D01*
X157705560Y-124797172D01*
X157762886Y-124928774D01*
X157793350Y-125014648D01*
X157796000Y-125030639D01*
X157780580Y-125080366D01*
X157736737Y-125199417D01*
X157668093Y-125378749D01*
X157578269Y-125609318D01*
X157470888Y-125882080D01*
X157349573Y-126187992D01*
X157217946Y-126518011D01*
X157079629Y-126863092D01*
X156938245Y-127214193D01*
X156797415Y-127562270D01*
X156660763Y-127898279D01*
X156531910Y-128213177D01*
X156414479Y-128497920D01*
X156312092Y-128743465D01*
X156250891Y-128888167D01*
X156134729Y-129155804D01*
X156039929Y-129358703D01*
X155957207Y-129511051D01*
X155877277Y-129627036D01*
X155790853Y-129720842D01*
X155688650Y-129806659D01*
X155613563Y-129861877D01*
X155376036Y-130054440D01*
X155116866Y-130304576D01*
X154852738Y-130594362D01*
X154600339Y-130905876D01*
X154451667Y-131109806D01*
X154328344Y-131284008D01*
X154210121Y-131445597D01*
X154112410Y-131573790D01*
X154061324Y-131636125D01*
X153946148Y-131766834D01*
X153945838Y-131174167D01*
X153948590Y-130838157D01*
X153956707Y-130471333D01*
X153969487Y-130085460D01*
X153986229Y-129692304D01*
X154006229Y-129303630D01*
X154028787Y-128931202D01*
X154053198Y-128586786D01*
X154078762Y-128282147D01*
X154104776Y-128029051D01*
X154130537Y-127839261D01*
X154150842Y-127739634D01*
X154178907Y-127667709D01*
X154226002Y-127631568D01*
X154311374Y-127626827D01*
X154454265Y-127649102D01*
X154504583Y-127659054D01*
X154663333Y-127691089D01*
X154663333Y-127514262D01*
X154658633Y-127408686D01*
X154638612Y-127316816D01*
X154594390Y-127224019D01*
X154517085Y-127115662D01*
X154397816Y-126977112D01*
X154227703Y-126793735D01*
X154223026Y-126788773D01*
X153981829Y-126517098D01*
X153790641Y-126260520D01*
X153628771Y-125987551D01*
X153475528Y-125666703D01*
X153455585Y-125620818D01*
X153275276Y-125127557D01*
X153126239Y-124560215D01*
X153008671Y-123923468D01*
X152922768Y-123221991D01*
X152868726Y-122460462D01*
X152846741Y-121643555D01*
X152857010Y-120775948D01*
X152899729Y-119862316D01*
X152975095Y-118907335D01*
X153083302Y-117915682D01*
X153120116Y-117627500D01*
X153172358Y-117246153D01*
X153228388Y-116863767D01*
X153286527Y-116489660D01*
X153345098Y-116133152D01*
X153402424Y-115803561D01*
X153456827Y-115510207D01*
X153506630Y-115262408D01*
X153550155Y-115069482D01*
X153585725Y-114940749D01*
X153611662Y-114885527D01*
X153613911Y-114884323D01*
X153647730Y-114913300D01*
G36*
X169825869Y-71809213D02*
G01*
X169912880Y-71828669D01*
X169989637Y-71867492D01*
X170028044Y-71892754D01*
X170164202Y-72009782D01*
X170261744Y-72156658D01*
X170330502Y-72352549D01*
X170372467Y-72564269D01*
X170405598Y-72936927D01*
X170400494Y-73371437D01*
X170359094Y-73855120D01*
X170283334Y-74375299D01*
X170175154Y-74919296D01*
X170036491Y-75474433D01*
X169869285Y-76028033D01*
X169821022Y-76171177D01*
X169608555Y-76742683D01*
X169386250Y-77255620D01*
X169156711Y-77705800D01*
X168922542Y-78089031D01*
X168686346Y-78401126D01*
X168450729Y-78637895D01*
X168218293Y-78795148D01*
X168178250Y-78814130D01*
X168045887Y-78880233D01*
X167977614Y-78938005D01*
X167956232Y-79002792D01*
X167956000Y-79012405D01*
X167993227Y-79136988D01*
X168094504Y-79226357D01*
X168244220Y-79273986D01*
X168426766Y-79273350D01*
X168528932Y-79251933D01*
X168611021Y-79231032D01*
X168680782Y-79223767D01*
X168744287Y-79237463D01*
X168807613Y-79279447D01*
X168876832Y-79357044D01*
X168958020Y-79477580D01*
X169057251Y-79648382D01*
X169180599Y-79876774D01*
X169334139Y-80170082D01*
X169407745Y-80311802D01*
X169769690Y-81009167D01*
X169816016Y-82152167D01*
X169843224Y-82781296D01*
X169871631Y-83357760D01*
X169900848Y-83875162D01*
X169930487Y-84327106D01*
X169960160Y-84707194D01*
X169989478Y-85009031D01*
X169989548Y-85009667D01*
X170016437Y-85271682D01*
X170030650Y-85488734D01*
X170029703Y-85679662D01*
X170011106Y-85863306D01*
X169972375Y-86058504D01*
X169911021Y-86284096D01*
X169824557Y-86558922D01*
X169758783Y-86757707D01*
X169553002Y-87405014D01*
X169390415Y-87986737D01*
X169269648Y-88509281D01*
X169189325Y-88979050D01*
X169148073Y-89402447D01*
X169141503Y-89633082D01*
X169162623Y-90018360D01*
X169227534Y-90437313D01*
X169338050Y-90896501D01*
X169495986Y-91402483D01*
X169703157Y-91961820D01*
X169949411Y-92553608D01*
X170052362Y-92795700D01*
X170147425Y-93029211D01*
X170227362Y-93235606D01*
X170284933Y-93396346D01*
X170308119Y-93472053D01*
X170361892Y-93782505D01*
X170355766Y-94088367D01*
X170287250Y-94406121D01*
X170153852Y-94752250D01*
X170096279Y-94873263D01*
X170050811Y-94972329D01*
X169978006Y-95139958D01*
X169882048Y-95366128D01*
X169767118Y-95640823D01*
X169637400Y-95954021D01*
X169497076Y-96295705D01*
X169350329Y-96655855D01*
X169292121Y-96799500D01*
X168624159Y-98450500D01*
X168366526Y-98598667D01*
X168180998Y-98723874D01*
X167964146Y-98899311D01*
X167734764Y-99106969D01*
X167511646Y-99328837D01*
X167313586Y-99546908D01*
X167159378Y-99743170D01*
X167135185Y-99778623D01*
X166819024Y-100315281D01*
X166577691Y-100860558D01*
X166402330Y-101435937D01*
X166346005Y-101692834D01*
X166274067Y-102171860D01*
X166248375Y-102630211D01*
X166268980Y-103051446D01*
X166335936Y-103419122D01*
X166340479Y-103435723D01*
X166383648Y-103598438D01*
X166415851Y-103734562D01*
X166431385Y-103819568D01*
X166432000Y-103829312D01*
X166416574Y-103879795D01*
X166372999Y-103998507D01*
X166305330Y-104175371D01*
X166217621Y-104400313D01*
X166113925Y-104663258D01*
X165998298Y-104954129D01*
X165874794Y-105262853D01*
X165747466Y-105579354D01*
X165620370Y-105893557D01*
X165497559Y-106195386D01*
X165383088Y-106474767D01*
X165281011Y-106721623D01*
X165195382Y-106925881D01*
X165130256Y-107077465D01*
X165089687Y-107166299D01*
X165087228Y-107171167D01*
X165024659Y-107273556D01*
X164947793Y-107346171D01*
X164835110Y-107402739D01*
X164665086Y-107456987D01*
X164619408Y-107469552D01*
X164351957Y-107541948D01*
X163857395Y-107307747D01*
X163637969Y-107209322D01*
X163414111Y-107118213D01*
X163213173Y-107045043D01*
X163071888Y-107002661D01*
X162803524Y-106956838D01*
X162503446Y-106937016D01*
X162207033Y-106943725D01*
X161949667Y-106977495D01*
X161914915Y-106985338D01*
X161679864Y-107060042D01*
X161408778Y-107174451D01*
X161131177Y-107314690D01*
X160876583Y-107466885D01*
X160844046Y-107488635D01*
X160510188Y-107746208D01*
X160160799Y-108072478D01*
X159805782Y-108455388D01*
X159455039Y-108882878D01*
X159118473Y-109342890D01*
X158805986Y-109823365D01*
X158531387Y-110304858D01*
X158435418Y-110477936D01*
X158348672Y-110619402D01*
X158280803Y-110714460D01*
X158241962Y-110748334D01*
X158186249Y-110716703D01*
X158086931Y-110628503D01*
X157952671Y-110493770D01*
X157792132Y-110322542D01*
X157613976Y-110124855D01*
X157426868Y-109910746D01*
X157239469Y-109690253D01*
X157060444Y-109473412D01*
X156898456Y-109270260D01*
X156762167Y-109090834D01*
X156660241Y-108945171D01*
X156605703Y-108852587D01*
X156560573Y-108740676D01*
X156532855Y-108614129D01*
X156518784Y-108448419D01*
X156514752Y-108259921D01*
X156516009Y-108100763D01*
X156523592Y-107953475D01*
X156540260Y-107807088D01*
X156568768Y-107650634D01*
X156611876Y-107473143D01*
X156672339Y-107263648D01*
X156752916Y-107011181D01*
X156856364Y-106704772D01*
X156985441Y-106333455D01*
X157033362Y-106196990D01*
X157134149Y-105906809D01*
X157224146Y-105640692D01*
X157299822Y-105409658D01*
X157357645Y-105224722D01*
X157394081Y-105096905D01*
X157405601Y-105037222D01*
X157405466Y-105036258D01*
X157358742Y-104981633D01*
X157309017Y-104969834D01*
X157230673Y-105009524D01*
X157137518Y-105121987D01*
X157032957Y-105297314D01*
X156920397Y-105525593D01*
X156803244Y-105796914D01*
X156684901Y-106101367D01*
X156568776Y-106429041D01*
X156458272Y-106770026D01*
X156356797Y-107114411D01*
X156267755Y-107452286D01*
X156194552Y-107773740D01*
X156140593Y-108068863D01*
X156109284Y-108327745D01*
X156102667Y-108480493D01*
X156114501Y-108701377D01*
X156154094Y-108908329D01*
X156227578Y-109113100D01*
X156341084Y-109327445D01*
X156500745Y-109563117D01*
X156712694Y-109831868D01*
X156954628Y-110113334D01*
X157470313Y-110679567D01*
X158006348Y-111235044D01*
X158551933Y-111769790D01*
X159096269Y-112273831D01*
X159628558Y-112737194D01*
X160138002Y-113149906D01*
X160613800Y-113501992D01*
X160653500Y-113529603D01*
X161076833Y-113822390D01*
X161069984Y-114010445D01*
X161054051Y-114126333D01*
X161014525Y-114308933D01*
X160955282Y-114544873D01*
X160880197Y-114820778D01*
X160793147Y-115123275D01*
X160698008Y-115438989D01*
X160598655Y-115754547D01*
X160498965Y-116056576D01*
X160402815Y-116331701D01*
X160375975Y-116405008D01*
X160264769Y-116692691D01*
X160140800Y-116992521D01*
X160010859Y-117289860D01*
X159881737Y-117570070D01*
X159760226Y-117818512D01*
X159653117Y-118020547D01*
X159567202Y-118161539D01*
X159550021Y-118185283D01*
X159484285Y-118261059D01*
X159416262Y-118304681D01*
X159329183Y-118316630D01*
X159206282Y-118297388D01*
X159030789Y-118247437D01*
X158896667Y-118204046D01*
X158116838Y-117908517D01*
X157387935Y-117551635D01*
X156701478Y-117128104D01*
X156048990Y-116632630D01*
X155421991Y-116059915D01*
X155352816Y-115990560D01*
X154825298Y-115418514D01*
X154377338Y-114846949D01*
X154004413Y-114266405D01*
X153702001Y-113667423D01*
X153465579Y-113040541D01*
X153290624Y-112376301D01*
X153172614Y-111665241D01*
X153140025Y-111362167D01*
X153097321Y-110483311D01*
X153133905Y-109633973D01*
X153249581Y-108814661D01*
X153444150Y-108025883D01*
X153717417Y-107268146D01*
X154069183Y-106541958D01*
X154499253Y-105847828D01*
X155007429Y-105186262D01*
X155593514Y-104557768D01*
X155887299Y-104281642D01*
X156149209Y-104049329D01*
X156399729Y-103837021D01*
X156655330Y-103631874D01*
X156932484Y-103421044D01*
X157247663Y-103191689D01*
X157617337Y-102930964D01*
X157637844Y-102916667D01*
X158275703Y-102472167D01*
X158527074Y-101731334D01*
X158652126Y-101349617D01*
X158758491Y-100992156D01*
X158847993Y-100646830D01*
X158922461Y-100301518D01*
X158983721Y-99944099D01*
X159033599Y-99562453D01*
X159073922Y-99144458D01*
X159106517Y-98677994D01*
X159133210Y-98150939D01*
X159155486Y-97561500D01*
X159163719Y-97257862D01*
X159170151Y-96904481D01*
X159174845Y-96511173D01*
X159177863Y-96087752D01*
X159179268Y-95644035D01*
X159179121Y-95189836D01*
X159177486Y-94734971D01*
X159174425Y-94289256D01*
X159169999Y-93862505D01*
X159164272Y-93464534D01*
X159157306Y-93105158D01*
X159149163Y-92794192D01*
X159139906Y-92541453D01*
X159129597Y-92356754D01*
X159121866Y-92273814D01*
X159095674Y-92066128D01*
X159578253Y-92091899D01*
X159762232Y-92105710D01*
X160010477Y-92130133D01*
X160303569Y-92162942D01*
X160622086Y-92201912D01*
X160946608Y-92244818D01*
X161098000Y-92266041D01*
X161608037Y-92337575D01*
X162045033Y-92395268D01*
X162419357Y-92439802D01*
X162741379Y-92471860D01*
X163021470Y-92492123D01*
X163270000Y-92501274D01*
X163497339Y-92499995D01*
X163713857Y-92488968D01*
X163929924Y-92468875D01*
X164020110Y-92458259D01*
X164745051Y-92338178D01*
X165422108Y-92164345D01*
X166046470Y-91938849D01*
X166613328Y-91663783D01*
X167117873Y-91341236D01*
X167555293Y-90973299D01*
X167645988Y-90882381D01*
X167954410Y-90531991D01*
X168211625Y-90168308D01*
X168429616Y-89770942D01*
X168620366Y-89319501D01*
X168704660Y-89080926D01*
X168770597Y-88875512D01*
X168815710Y-88705448D01*
X168844962Y-88541855D01*
X168863314Y-88355852D01*
X168875728Y-88118558D01*
X168877447Y-88075152D01*
X168885503Y-87705825D01*
X168877642Y-87414175D01*
X168853264Y-87194611D01*
X168811766Y-87041538D01*
X168756852Y-86953519D01*
X168688642Y-86893730D01*
X168636173Y-86873792D01*
X168596283Y-86901446D01*
X168565810Y-86984430D01*
X168541591Y-87130484D01*
X168520464Y-87347348D01*
X168503978Y-87572389D01*
X168429384Y-88170894D01*
X168287980Y-88721438D01*
X168075887Y-89232705D01*
X167789225Y-89713376D01*
X167424113Y-90172134D01*
X167267721Y-90338715D01*
X167016955Y-90582952D01*
X166785275Y-90777789D01*
X166544382Y-90943992D01*
X166265980Y-91102326D01*
X166136921Y-91168538D01*
X165737617Y-91358302D01*
X165368702Y-91508377D01*
X165011946Y-91622711D01*
X164649117Y-91705255D01*
X164261987Y-91759959D01*
X163832323Y-91790774D01*
X163341896Y-91801650D01*
X163214667Y-91801736D01*
X162940201Y-91800309D01*
X162709259Y-91796639D01*
X162504896Y-91789228D01*
X162310172Y-91776576D01*
X162108142Y-91757185D01*
X161881864Y-91729556D01*
X161614396Y-91692190D01*
X161288795Y-91643588D01*
X161098000Y-91614467D01*
X160733761Y-91559267D01*
X160436601Y-91516229D01*
X160190042Y-91483852D01*
X159977606Y-91460632D01*
X159782816Y-91445068D01*
X159589193Y-91435656D01*
X159380261Y-91430895D01*
X159139540Y-91429282D01*
X159066000Y-91429190D01*
X158795530Y-91430205D01*
X158560631Y-91434873D01*
X158347753Y-91445166D01*
X158143347Y-91463053D01*
X157933861Y-91490505D01*
X157705746Y-91529493D01*
X157445452Y-91581988D01*
X157139429Y-91649959D01*
X156774128Y-91735378D01*
X156483667Y-91804743D01*
X155741078Y-91978005D01*
X155064574Y-92124664D01*
X154440483Y-92246531D01*
X153855135Y-92345418D01*
X153294859Y-92423139D01*
X152745983Y-92481506D01*
X152194837Y-92522330D01*
X151627749Y-92547425D01*
X151031048Y-92558602D01*
X150789833Y-92559580D01*
X150256928Y-92554666D01*
X149792592Y-92538120D01*
X149381284Y-92508010D01*
X149007466Y-92462401D01*
X148655595Y-92399358D01*
X148310133Y-92316949D01*
X147955539Y-92213238D01*
X147922471Y-92202738D01*
X147689499Y-92119474D01*
X147428513Y-92011680D01*
X147157663Y-91888315D01*
X146895099Y-91758340D01*
X146658967Y-91630713D01*
X146467418Y-91514395D01*
X146344833Y-91423903D01*
X146175500Y-91275358D01*
X146471833Y-91306929D01*
X146734075Y-91326406D01*
X147040071Y-91335596D01*
X147367342Y-91335071D01*
X147693413Y-91325404D01*
X147995808Y-91307166D01*
X148252049Y-91280928D01*
X148392005Y-91258090D01*
X148745905Y-91162882D01*
X149100678Y-91025422D01*
X149442519Y-90854417D01*
X149757625Y-90658577D01*
X150032192Y-90446612D01*
X150252417Y-90227231D01*
X150404496Y-90009143D01*
X150419821Y-89978670D01*
X150462867Y-89879817D01*
X150463627Y-89822575D01*
X150417119Y-89772545D01*
X150386497Y-89748641D01*
X150290351Y-89690604D01*
X150213175Y-89667275D01*
X150152960Y-89691178D01*
X150042781Y-89756654D01*
X149899379Y-89853128D01*
X149768675Y-89948002D01*
X149312748Y-90248875D01*
X148851696Y-90473348D01*
X148516389Y-90586559D01*
X148359394Y-90615450D01*
X148136704Y-90637586D01*
X147867036Y-90652796D01*
X147569106Y-90660906D01*
X147261629Y-90661745D01*
X146963322Y-90655140D01*
X146692900Y-90640919D01*
X146469080Y-90618910D01*
X146387167Y-90606166D01*
X146094363Y-90541853D01*
X145816491Y-90460716D01*
X145572032Y-90369446D01*
X145379465Y-90274734D01*
X145280059Y-90205333D01*
X145169791Y-90077255D01*
X145047225Y-89882535D01*
X144919031Y-89637043D01*
X144791881Y-89356651D01*
X144672444Y-89057231D01*
X144567390Y-88754655D01*
X144483391Y-88464794D01*
X144427117Y-88203519D01*
X144420271Y-88159542D01*
X144400631Y-87963040D01*
X144387459Y-87705650D01*
X144380775Y-87410906D01*
X144380596Y-87102340D01*
X144386941Y-86803485D01*
X144399827Y-86537876D01*
X144418854Y-86332257D01*
X144421607Y-86318865D01*
X146455421Y-86318865D01*
X146457947Y-86349707D01*
X146499090Y-86411146D01*
X146592145Y-86496759D01*
X146707629Y-86581541D01*
X146856364Y-86690175D01*
X146997019Y-86809651D01*
X147075821Y-86888755D01*
X147190902Y-87064965D01*
X147280767Y-87288080D01*
X147332331Y-87521212D01*
X147339667Y-87632598D01*
X147363538Y-87783368D01*
X147426042Y-87902223D01*
X147513511Y-87967094D01*
X147550486Y-87973000D01*
X147633548Y-87946891D01*
X147736162Y-87882617D01*
X147754118Y-87868144D01*
X147902180Y-87692649D01*
X148006970Y-87464446D01*
X148064855Y-87205644D01*
X148072201Y-86938349D01*
X148025375Y-86684669D01*
X147970734Y-86550074D01*
X147821383Y-86346958D01*
X147614048Y-86189341D01*
X147366236Y-86084397D01*
X147095457Y-86039297D01*
X146819221Y-86061214D01*
X146792171Y-86067319D01*
X146613258Y-86131056D01*
X146497962Y-86217477D01*
X146455421Y-86318865D01*
X144421607Y-86318865D01*
X144473827Y-86064877D01*
X144570674Y-85754196D01*
X144699917Y-85424231D01*
X144852079Y-85098997D01*
X145017682Y-84802511D01*
X145030956Y-84781185D01*
X145249739Y-84454660D01*
X145493451Y-84135881D01*
X145775839Y-83808257D01*
X146110654Y-83455196D01*
X146162814Y-83402749D01*
X156739264Y-83402749D01*
X156754721Y-83527032D01*
X156791734Y-83658673D01*
X156801907Y-83684468D01*
X156935760Y-83923274D01*
X157132807Y-84164896D01*
X157375030Y-84388213D01*
X157453646Y-84448361D01*
X157603421Y-84562887D01*
X157788803Y-84712138D01*
X157982663Y-84873981D01*
X158109301Y-84983278D01*
X158338405Y-85175004D01*
X158526231Y-85312396D01*
X158668360Y-85392652D01*
X158760370Y-85412974D01*
X158777891Y-85406750D01*
X158780212Y-85360697D01*
X158755369Y-85260339D01*
X158719192Y-85155680D01*
X158675567Y-85027323D01*
X158653593Y-84932694D01*
X158655676Y-84897880D01*
X158725549Y-84879815D01*
X158843894Y-84894702D01*
X158984667Y-84935284D01*
X159121828Y-84994307D01*
X159217014Y-85054263D01*
X159357018Y-85143471D01*
X159524340Y-85220924D01*
X159587683Y-85242642D01*
X159738082Y-85284783D01*
X159832726Y-85301595D01*
X159896103Y-85294753D01*
X159950260Y-85267492D01*
X159975080Y-85232204D01*
X159957315Y-85170844D01*
X159891047Y-85066313D01*
X159870725Y-85037710D01*
X159785874Y-84898898D01*
X159755782Y-84798728D01*
X159759563Y-84774433D01*
X159774480Y-84741138D01*
X159798151Y-84724890D01*
X159846148Y-84728176D01*
X159934039Y-84753487D01*
X160077395Y-84803311D01*
X160187833Y-84842893D01*
X160387052Y-84900764D01*
X160575482Y-84919198D01*
X160717000Y-84913637D01*
X160900559Y-84890660D01*
X161058681Y-84853832D01*
X161172683Y-84809004D01*
X161223884Y-84762028D01*
X161225000Y-84754544D01*
X161188505Y-84725633D01*
X161093473Y-84680175D01*
X160978974Y-84634973D01*
X160795514Y-84551878D01*
X160656513Y-84456795D01*
X160574290Y-84360521D01*
X160561162Y-84273854D01*
X160562548Y-84269948D01*
X160604241Y-84225734D01*
X160690793Y-84232117D01*
X160705487Y-84236044D01*
X160851601Y-84261581D01*
X161034384Y-84271251D01*
X161236662Y-84266953D01*
X161441259Y-84250587D01*
X161631001Y-84224055D01*
X161788713Y-84189257D01*
X161897220Y-84148094D01*
X161939347Y-84102466D01*
X161939384Y-84099500D01*
X161900287Y-84071193D01*
X161797419Y-84031737D01*
X161649744Y-83987955D01*
X161579886Y-83970152D01*
X161360844Y-83908231D01*
X161208972Y-83843257D01*
X161107198Y-83768114D01*
X161050499Y-83704755D01*
X161016009Y-83638800D01*
X160998021Y-83547335D01*
X160990828Y-83407446D01*
X160989351Y-83294925D01*
X160985404Y-83128950D01*
X160977327Y-82997568D01*
X160966617Y-82922046D01*
X160962472Y-82912695D01*
X160923500Y-82929361D01*
X160837591Y-82993504D01*
X160718894Y-83093973D01*
X160626621Y-83177398D01*
X160362906Y-83407502D01*
X160124023Y-83578924D01*
X159888407Y-83700525D01*
X159634490Y-83781168D01*
X159340710Y-83829715D01*
X158985498Y-83855029D01*
X158976805Y-83855392D01*
X158458436Y-83853092D01*
X157999801Y-83799295D01*
X157591981Y-83692054D01*
X157226055Y-83529421D01*
X157077426Y-83440721D01*
X156945580Y-83358928D01*
X156839632Y-83299465D01*
X156780839Y-83274193D01*
X156778571Y-83274000D01*
X156746751Y-83310260D01*
X156739264Y-83402749D01*
X146162814Y-83402749D01*
X146225247Y-83339973D01*
X146531482Y-83044964D01*
X146843562Y-82765956D01*
X147172233Y-82494943D01*
X147528240Y-82223916D01*
X147922327Y-81944870D01*
X148365240Y-81649798D01*
X148867723Y-81330692D01*
X149181167Y-81137270D01*
X149685674Y-80824481D01*
X150124901Y-80542197D01*
X150508991Y-80282458D01*
X150848089Y-80037305D01*
X151152339Y-79798778D01*
X151431884Y-79558917D01*
X151696870Y-79309763D01*
X151957440Y-79043355D01*
X152223739Y-78751735D01*
X152229167Y-78745620D01*
X152540983Y-78388016D01*
X152826801Y-78045881D01*
X153104388Y-77696915D01*
X153391512Y-77318813D01*
X153685285Y-76917868D01*
X153892362Y-76634134D01*
X154056816Y-76415221D01*
X154183164Y-76255623D01*
X154275925Y-76149833D01*
X154339617Y-76092344D01*
X154374920Y-76077334D01*
X154389178Y-76116716D01*
X154400554Y-76223088D01*
X154407653Y-76378786D01*
X154409333Y-76512939D01*
X154398136Y-76840459D01*
X154359603Y-77122661D01*
X154286325Y-77377275D01*
X154170892Y-77622030D01*
X154005894Y-77874657D01*
X153783920Y-78152885D01*
X153668500Y-78285496D01*
X153453708Y-78529422D01*
X153290277Y-78719954D01*
X153171908Y-78865695D01*
X153092300Y-78975248D01*
X153045152Y-79057216D01*
X153024164Y-79120202D01*
X153022424Y-79167667D01*
X153041648Y-79234073D01*
X153089480Y-79285762D01*
X153174466Y-79324119D01*
X153305149Y-79350531D01*
X153490075Y-79366384D01*
X153737788Y-79373064D01*
X154056833Y-79371957D01*
X154261167Y-79368621D01*
X154560382Y-79362354D01*
X154790519Y-79355482D01*
X154967155Y-79346207D01*
X155105870Y-79332729D01*
X155222243Y-79313246D01*
X155331852Y-79285960D01*
X155450277Y-79249069D01*
X155531167Y-79221874D01*
X155936560Y-79067824D01*
X156340922Y-78884540D01*
X156712360Y-78687186D01*
X156907000Y-78567773D01*
X157058782Y-78454741D01*
X157251847Y-78290242D01*
X157472861Y-78087506D01*
X157708494Y-77859765D01*
X157945415Y-77620250D01*
X158170292Y-77382192D01*
X158369793Y-77158821D01*
X158530588Y-76963368D01*
X158552577Y-76934584D01*
X158662862Y-76789865D01*
X158753158Y-76674402D01*
X158812243Y-76602362D01*
X158829201Y-76585334D01*
X158859003Y-76616611D01*
X158927811Y-76700503D01*
X159023558Y-76822093D01*
X159080163Y-76895498D01*
X159382532Y-77244624D01*
X159735393Y-77564840D01*
X160148696Y-77863803D01*
X160632388Y-78149175D01*
X160865167Y-78269950D01*
X161211705Y-78436519D01*
X161492116Y-78555526D01*
X161709740Y-78627810D01*
X161867919Y-78654212D01*
X161969993Y-78635570D01*
X162019303Y-78572724D01*
X162022141Y-78560679D01*
X162016661Y-78486857D01*
X161989351Y-78356072D01*
X161945410Y-78191596D01*
X161923428Y-78118655D01*
X161842321Y-77834238D01*
X161797225Y-77606220D01*
X161786943Y-77414945D01*
X161810281Y-77240757D01*
X161860198Y-77079280D01*
X161976028Y-76836522D01*
X162129097Y-76638831D01*
X162332239Y-76475100D01*
X162598288Y-76334223D01*
X162824392Y-76244842D01*
X163090284Y-76149701D01*
X163191207Y-76244513D01*
X163297734Y-76310732D01*
X163400091Y-76299211D01*
X163505605Y-76207674D01*
X163563332Y-76128936D01*
X163631282Y-76025776D01*
X163729861Y-75875308D01*
X163843567Y-75701219D01*
X163915715Y-75590500D01*
X164158087Y-75260633D01*
X164468245Y-74906607D01*
X164835852Y-74536902D01*
X165250571Y-74160000D01*
X165702067Y-73784382D01*
X166180003Y-73418529D01*
X166674041Y-73070921D01*
X167173847Y-72750040D01*
X167669083Y-72464367D01*
X167829000Y-72379654D01*
X168290613Y-72156333D01*
X168702437Y-71990883D01*
X169073508Y-71880277D01*
X169412860Y-71821491D01*
X169522333Y-71812786D01*
X169703917Y-71805220D01*
X169825869Y-71809213D01*
G37*
X169825869Y-71809213D02*
X169912880Y-71828669D01*
X169989637Y-71867492D01*
X170028044Y-71892754D01*
X170164202Y-72009782D01*
X170261744Y-72156658D01*
X170330502Y-72352549D01*
X170372467Y-72564269D01*
X170405598Y-72936927D01*
X170400494Y-73371437D01*
X170359094Y-73855120D01*
X170283334Y-74375299D01*
X170175154Y-74919296D01*
X170036491Y-75474433D01*
X169869285Y-76028033D01*
X169821022Y-76171177D01*
X169608555Y-76742683D01*
X169386250Y-77255620D01*
X169156711Y-77705800D01*
X168922542Y-78089031D01*
X168686346Y-78401126D01*
X168450729Y-78637895D01*
X168218293Y-78795148D01*
X168178250Y-78814130D01*
X168045887Y-78880233D01*
X167977614Y-78938005D01*
X167956232Y-79002792D01*
X167956000Y-79012405D01*
X167993227Y-79136988D01*
X168094504Y-79226357D01*
X168244220Y-79273986D01*
X168426766Y-79273350D01*
X168528932Y-79251933D01*
X168611021Y-79231032D01*
X168680782Y-79223767D01*
X168744287Y-79237463D01*
X168807613Y-79279447D01*
X168876832Y-79357044D01*
X168958020Y-79477580D01*
X169057251Y-79648382D01*
X169180599Y-79876774D01*
X169334139Y-80170082D01*
X169407745Y-80311802D01*
X169769690Y-81009167D01*
X169816016Y-82152167D01*
X169843224Y-82781296D01*
X169871631Y-83357760D01*
X169900848Y-83875162D01*
X169930487Y-84327106D01*
X169960160Y-84707194D01*
X169989478Y-85009031D01*
X169989548Y-85009667D01*
X170016437Y-85271682D01*
X170030650Y-85488734D01*
X170029703Y-85679662D01*
X170011106Y-85863306D01*
X169972375Y-86058504D01*
X169911021Y-86284096D01*
X169824557Y-86558922D01*
X169758783Y-86757707D01*
X169553002Y-87405014D01*
X169390415Y-87986737D01*
X169269648Y-88509281D01*
X169189325Y-88979050D01*
X169148073Y-89402447D01*
X169141503Y-89633082D01*
X169162623Y-90018360D01*
X169227534Y-90437313D01*
X169338050Y-90896501D01*
X169495986Y-91402483D01*
X169703157Y-91961820D01*
X169949411Y-92553608D01*
X170052362Y-92795700D01*
X170147425Y-93029211D01*
X170227362Y-93235606D01*
X170284933Y-93396346D01*
X170308119Y-93472053D01*
X170361892Y-93782505D01*
X170355766Y-94088367D01*
X170287250Y-94406121D01*
X170153852Y-94752250D01*
X170096279Y-94873263D01*
X170050811Y-94972329D01*
X169978006Y-95139958D01*
X169882048Y-95366128D01*
X169767118Y-95640823D01*
X169637400Y-95954021D01*
X169497076Y-96295705D01*
X169350329Y-96655855D01*
X169292121Y-96799500D01*
X168624159Y-98450500D01*
X168366526Y-98598667D01*
X168180998Y-98723874D01*
X167964146Y-98899311D01*
X167734764Y-99106969D01*
X167511646Y-99328837D01*
X167313586Y-99546908D01*
X167159378Y-99743170D01*
X167135185Y-99778623D01*
X166819024Y-100315281D01*
X166577691Y-100860558D01*
X166402330Y-101435937D01*
X166346005Y-101692834D01*
X166274067Y-102171860D01*
X166248375Y-102630211D01*
X166268980Y-103051446D01*
X166335936Y-103419122D01*
X166340479Y-103435723D01*
X166383648Y-103598438D01*
X166415851Y-103734562D01*
X166431385Y-103819568D01*
X166432000Y-103829312D01*
X166416574Y-103879795D01*
X166372999Y-103998507D01*
X166305330Y-104175371D01*
X166217621Y-104400313D01*
X166113925Y-104663258D01*
X165998298Y-104954129D01*
X165874794Y-105262853D01*
X165747466Y-105579354D01*
X165620370Y-105893557D01*
X165497559Y-106195386D01*
X165383088Y-106474767D01*
X165281011Y-106721623D01*
X165195382Y-106925881D01*
X165130256Y-107077465D01*
X165089687Y-107166299D01*
X165087228Y-107171167D01*
X165024659Y-107273556D01*
X164947793Y-107346171D01*
X164835110Y-107402739D01*
X164665086Y-107456987D01*
X164619408Y-107469552D01*
X164351957Y-107541948D01*
X163857395Y-107307747D01*
X163637969Y-107209322D01*
X163414111Y-107118213D01*
X163213173Y-107045043D01*
X163071888Y-107002661D01*
X162803524Y-106956838D01*
X162503446Y-106937016D01*
X162207033Y-106943725D01*
X161949667Y-106977495D01*
X161914915Y-106985338D01*
X161679864Y-107060042D01*
X161408778Y-107174451D01*
X161131177Y-107314690D01*
X160876583Y-107466885D01*
X160844046Y-107488635D01*
X160510188Y-107746208D01*
X160160799Y-108072478D01*
X159805782Y-108455388D01*
X159455039Y-108882878D01*
X159118473Y-109342890D01*
X158805986Y-109823365D01*
X158531387Y-110304858D01*
X158435418Y-110477936D01*
X158348672Y-110619402D01*
X158280803Y-110714460D01*
X158241962Y-110748334D01*
X158186249Y-110716703D01*
X158086931Y-110628503D01*
X157952671Y-110493770D01*
X157792132Y-110322542D01*
X157613976Y-110124855D01*
X157426868Y-109910746D01*
X157239469Y-109690253D01*
X157060444Y-109473412D01*
X156898456Y-109270260D01*
X156762167Y-109090834D01*
X156660241Y-108945171D01*
X156605703Y-108852587D01*
X156560573Y-108740676D01*
X156532855Y-108614129D01*
X156518784Y-108448419D01*
X156514752Y-108259921D01*
X156516009Y-108100763D01*
X156523592Y-107953475D01*
X156540260Y-107807088D01*
X156568768Y-107650634D01*
X156611876Y-107473143D01*
X156672339Y-107263648D01*
X156752916Y-107011181D01*
X156856364Y-106704772D01*
X156985441Y-106333455D01*
X157033362Y-106196990D01*
X157134149Y-105906809D01*
X157224146Y-105640692D01*
X157299822Y-105409658D01*
X157357645Y-105224722D01*
X157394081Y-105096905D01*
X157405601Y-105037222D01*
X157405466Y-105036258D01*
X157358742Y-104981633D01*
X157309017Y-104969834D01*
X157230673Y-105009524D01*
X157137518Y-105121987D01*
X157032957Y-105297314D01*
X156920397Y-105525593D01*
X156803244Y-105796914D01*
X156684901Y-106101367D01*
X156568776Y-106429041D01*
X156458272Y-106770026D01*
X156356797Y-107114411D01*
X156267755Y-107452286D01*
X156194552Y-107773740D01*
X156140593Y-108068863D01*
X156109284Y-108327745D01*
X156102667Y-108480493D01*
X156114501Y-108701377D01*
X156154094Y-108908329D01*
X156227578Y-109113100D01*
X156341084Y-109327445D01*
X156500745Y-109563117D01*
X156712694Y-109831868D01*
X156954628Y-110113334D01*
X157470313Y-110679567D01*
X158006348Y-111235044D01*
X158551933Y-111769790D01*
X159096269Y-112273831D01*
X159628558Y-112737194D01*
X160138002Y-113149906D01*
X160613800Y-113501992D01*
X160653500Y-113529603D01*
X161076833Y-113822390D01*
X161069984Y-114010445D01*
X161054051Y-114126333D01*
X161014525Y-114308933D01*
X160955282Y-114544873D01*
X160880197Y-114820778D01*
X160793147Y-115123275D01*
X160698008Y-115438989D01*
X160598655Y-115754547D01*
X160498965Y-116056576D01*
X160402815Y-116331701D01*
X160375975Y-116405008D01*
X160264769Y-116692691D01*
X160140800Y-116992521D01*
X160010859Y-117289860D01*
X159881737Y-117570070D01*
X159760226Y-117818512D01*
X159653117Y-118020547D01*
X159567202Y-118161539D01*
X159550021Y-118185283D01*
X159484285Y-118261059D01*
X159416262Y-118304681D01*
X159329183Y-118316630D01*
X159206282Y-118297388D01*
X159030789Y-118247437D01*
X158896667Y-118204046D01*
X158116838Y-117908517D01*
X157387935Y-117551635D01*
X156701478Y-117128104D01*
X156048990Y-116632630D01*
X155421991Y-116059915D01*
X155352816Y-115990560D01*
X154825298Y-115418514D01*
X154377338Y-114846949D01*
X154004413Y-114266405D01*
X153702001Y-113667423D01*
X153465579Y-113040541D01*
X153290624Y-112376301D01*
X153172614Y-111665241D01*
X153140025Y-111362167D01*
X153097321Y-110483311D01*
X153133905Y-109633973D01*
X153249581Y-108814661D01*
X153444150Y-108025883D01*
X153717417Y-107268146D01*
X154069183Y-106541958D01*
X154499253Y-105847828D01*
X155007429Y-105186262D01*
X155593514Y-104557768D01*
X155887299Y-104281642D01*
X156149209Y-104049329D01*
X156399729Y-103837021D01*
X156655330Y-103631874D01*
X156932484Y-103421044D01*
X157247663Y-103191689D01*
X157617337Y-102930964D01*
X157637844Y-102916667D01*
X158275703Y-102472167D01*
X158527074Y-101731334D01*
X158652126Y-101349617D01*
X158758491Y-100992156D01*
X158847993Y-100646830D01*
X158922461Y-100301518D01*
X158983721Y-99944099D01*
X159033599Y-99562453D01*
X159073922Y-99144458D01*
X159106517Y-98677994D01*
X159133210Y-98150939D01*
X159155486Y-97561500D01*
X159163719Y-97257862D01*
X159170151Y-96904481D01*
X159174845Y-96511173D01*
X159177863Y-96087752D01*
X159179268Y-95644035D01*
X159179121Y-95189836D01*
X159177486Y-94734971D01*
X159174425Y-94289256D01*
X159169999Y-93862505D01*
X159164272Y-93464534D01*
X159157306Y-93105158D01*
X159149163Y-92794192D01*
X159139906Y-92541453D01*
X159129597Y-92356754D01*
X159121866Y-92273814D01*
X159095674Y-92066128D01*
X159578253Y-92091899D01*
X159762232Y-92105710D01*
X160010477Y-92130133D01*
X160303569Y-92162942D01*
X160622086Y-92201912D01*
X160946608Y-92244818D01*
X161098000Y-92266041D01*
X161608037Y-92337575D01*
X162045033Y-92395268D01*
X162419357Y-92439802D01*
X162741379Y-92471860D01*
X163021470Y-92492123D01*
X163270000Y-92501274D01*
X163497339Y-92499995D01*
X163713857Y-92488968D01*
X163929924Y-92468875D01*
X164020110Y-92458259D01*
X164745051Y-92338178D01*
X165422108Y-92164345D01*
X166046470Y-91938849D01*
X166613328Y-91663783D01*
X167117873Y-91341236D01*
X167555293Y-90973299D01*
X167645988Y-90882381D01*
X167954410Y-90531991D01*
X168211625Y-90168308D01*
X168429616Y-89770942D01*
X168620366Y-89319501D01*
X168704660Y-89080926D01*
X168770597Y-88875512D01*
X168815710Y-88705448D01*
X168844962Y-88541855D01*
X168863314Y-88355852D01*
X168875728Y-88118558D01*
X168877447Y-88075152D01*
X168885503Y-87705825D01*
X168877642Y-87414175D01*
X168853264Y-87194611D01*
X168811766Y-87041538D01*
X168756852Y-86953519D01*
X168688642Y-86893730D01*
X168636173Y-86873792D01*
X168596283Y-86901446D01*
X168565810Y-86984430D01*
X168541591Y-87130484D01*
X168520464Y-87347348D01*
X168503978Y-87572389D01*
X168429384Y-88170894D01*
X168287980Y-88721438D01*
X168075887Y-89232705D01*
X167789225Y-89713376D01*
X167424113Y-90172134D01*
X167267721Y-90338715D01*
X167016955Y-90582952D01*
X166785275Y-90777789D01*
X166544382Y-90943992D01*
X166265980Y-91102326D01*
X166136921Y-91168538D01*
X165737617Y-91358302D01*
X165368702Y-91508377D01*
X165011946Y-91622711D01*
X164649117Y-91705255D01*
X164261987Y-91759959D01*
X163832323Y-91790774D01*
X163341896Y-91801650D01*
X163214667Y-91801736D01*
X162940201Y-91800309D01*
X162709259Y-91796639D01*
X162504896Y-91789228D01*
X162310172Y-91776576D01*
X162108142Y-91757185D01*
X161881864Y-91729556D01*
X161614396Y-91692190D01*
X161288795Y-91643588D01*
X161098000Y-91614467D01*
X160733761Y-91559267D01*
X160436601Y-91516229D01*
X160190042Y-91483852D01*
X159977606Y-91460632D01*
X159782816Y-91445068D01*
X159589193Y-91435656D01*
X159380261Y-91430895D01*
X159139540Y-91429282D01*
X159066000Y-91429190D01*
X158795530Y-91430205D01*
X158560631Y-91434873D01*
X158347753Y-91445166D01*
X158143347Y-91463053D01*
X157933861Y-91490505D01*
X157705746Y-91529493D01*
X157445452Y-91581988D01*
X157139429Y-91649959D01*
X156774128Y-91735378D01*
X156483667Y-91804743D01*
X155741078Y-91978005D01*
X155064574Y-92124664D01*
X154440483Y-92246531D01*
X153855135Y-92345418D01*
X153294859Y-92423139D01*
X152745983Y-92481506D01*
X152194837Y-92522330D01*
X151627749Y-92547425D01*
X151031048Y-92558602D01*
X150789833Y-92559580D01*
X150256928Y-92554666D01*
X149792592Y-92538120D01*
X149381284Y-92508010D01*
X149007466Y-92462401D01*
X148655595Y-92399358D01*
X148310133Y-92316949D01*
X147955539Y-92213238D01*
X147922471Y-92202738D01*
X147689499Y-92119474D01*
X147428513Y-92011680D01*
X147157663Y-91888315D01*
X146895099Y-91758340D01*
X146658967Y-91630713D01*
X146467418Y-91514395D01*
X146344833Y-91423903D01*
X146175500Y-91275358D01*
X146471833Y-91306929D01*
X146734075Y-91326406D01*
X147040071Y-91335596D01*
X147367342Y-91335071D01*
X147693413Y-91325404D01*
X147995808Y-91307166D01*
X148252049Y-91280928D01*
X148392005Y-91258090D01*
X148745905Y-91162882D01*
X149100678Y-91025422D01*
X149442519Y-90854417D01*
X149757625Y-90658577D01*
X150032192Y-90446612D01*
X150252417Y-90227231D01*
X150404496Y-90009143D01*
X150419821Y-89978670D01*
X150462867Y-89879817D01*
X150463627Y-89822575D01*
X150417119Y-89772545D01*
X150386497Y-89748641D01*
X150290351Y-89690604D01*
X150213175Y-89667275D01*
X150152960Y-89691178D01*
X150042781Y-89756654D01*
X149899379Y-89853128D01*
X149768675Y-89948002D01*
X149312748Y-90248875D01*
X148851696Y-90473348D01*
X148516389Y-90586559D01*
X148359394Y-90615450D01*
X148136704Y-90637586D01*
X147867036Y-90652796D01*
X147569106Y-90660906D01*
X147261629Y-90661745D01*
X146963322Y-90655140D01*
X146692900Y-90640919D01*
X146469080Y-90618910D01*
X146387167Y-90606166D01*
X146094363Y-90541853D01*
X145816491Y-90460716D01*
X145572032Y-90369446D01*
X145379465Y-90274734D01*
X145280059Y-90205333D01*
X145169791Y-90077255D01*
X145047225Y-89882535D01*
X144919031Y-89637043D01*
X144791881Y-89356651D01*
X144672444Y-89057231D01*
X144567390Y-88754655D01*
X144483391Y-88464794D01*
X144427117Y-88203519D01*
X144420271Y-88159542D01*
X144400631Y-87963040D01*
X144387459Y-87705650D01*
X144380775Y-87410906D01*
X144380596Y-87102340D01*
X144386941Y-86803485D01*
X144399827Y-86537876D01*
X144418854Y-86332257D01*
X144421607Y-86318865D01*
X146455421Y-86318865D01*
X146457947Y-86349707D01*
X146499090Y-86411146D01*
X146592145Y-86496759D01*
X146707629Y-86581541D01*
X146856364Y-86690175D01*
X146997019Y-86809651D01*
X147075821Y-86888755D01*
X147190902Y-87064965D01*
X147280767Y-87288080D01*
X147332331Y-87521212D01*
X147339667Y-87632598D01*
X147363538Y-87783368D01*
X147426042Y-87902223D01*
X147513511Y-87967094D01*
X147550486Y-87973000D01*
X147633548Y-87946891D01*
X147736162Y-87882617D01*
X147754118Y-87868144D01*
X147902180Y-87692649D01*
X148006970Y-87464446D01*
X148064855Y-87205644D01*
X148072201Y-86938349D01*
X148025375Y-86684669D01*
X147970734Y-86550074D01*
X147821383Y-86346958D01*
X147614048Y-86189341D01*
X147366236Y-86084397D01*
X147095457Y-86039297D01*
X146819221Y-86061214D01*
X146792171Y-86067319D01*
X146613258Y-86131056D01*
X146497962Y-86217477D01*
X146455421Y-86318865D01*
X144421607Y-86318865D01*
X144473827Y-86064877D01*
X144570674Y-85754196D01*
X144699917Y-85424231D01*
X144852079Y-85098997D01*
X145017682Y-84802511D01*
X145030956Y-84781185D01*
X145249739Y-84454660D01*
X145493451Y-84135881D01*
X145775839Y-83808257D01*
X146110654Y-83455196D01*
X146162814Y-83402749D01*
X156739264Y-83402749D01*
X156754721Y-83527032D01*
X156791734Y-83658673D01*
X156801907Y-83684468D01*
X156935760Y-83923274D01*
X157132807Y-84164896D01*
X157375030Y-84388213D01*
X157453646Y-84448361D01*
X157603421Y-84562887D01*
X157788803Y-84712138D01*
X157982663Y-84873981D01*
X158109301Y-84983278D01*
X158338405Y-85175004D01*
X158526231Y-85312396D01*
X158668360Y-85392652D01*
X158760370Y-85412974D01*
X158777891Y-85406750D01*
X158780212Y-85360697D01*
X158755369Y-85260339D01*
X158719192Y-85155680D01*
X158675567Y-85027323D01*
X158653593Y-84932694D01*
X158655676Y-84897880D01*
X158725549Y-84879815D01*
X158843894Y-84894702D01*
X158984667Y-84935284D01*
X159121828Y-84994307D01*
X159217014Y-85054263D01*
X159357018Y-85143471D01*
X159524340Y-85220924D01*
X159587683Y-85242642D01*
X159738082Y-85284783D01*
X159832726Y-85301595D01*
X159896103Y-85294753D01*
X159950260Y-85267492D01*
X159975080Y-85232204D01*
X159957315Y-85170844D01*
X159891047Y-85066313D01*
X159870725Y-85037710D01*
X159785874Y-84898898D01*
X159755782Y-84798728D01*
X159759563Y-84774433D01*
X159774480Y-84741138D01*
X159798151Y-84724890D01*
X159846148Y-84728176D01*
X159934039Y-84753487D01*
X160077395Y-84803311D01*
X160187833Y-84842893D01*
X160387052Y-84900764D01*
X160575482Y-84919198D01*
X160717000Y-84913637D01*
X160900559Y-84890660D01*
X161058681Y-84853832D01*
X161172683Y-84809004D01*
X161223884Y-84762028D01*
X161225000Y-84754544D01*
X161188505Y-84725633D01*
X161093473Y-84680175D01*
X160978974Y-84634973D01*
X160795514Y-84551878D01*
X160656513Y-84456795D01*
X160574290Y-84360521D01*
X160561162Y-84273854D01*
X160562548Y-84269948D01*
X160604241Y-84225734D01*
X160690793Y-84232117D01*
X160705487Y-84236044D01*
X160851601Y-84261581D01*
X161034384Y-84271251D01*
X161236662Y-84266953D01*
X161441259Y-84250587D01*
X161631001Y-84224055D01*
X161788713Y-84189257D01*
X161897220Y-84148094D01*
X161939347Y-84102466D01*
X161939384Y-84099500D01*
X161900287Y-84071193D01*
X161797419Y-84031737D01*
X161649744Y-83987955D01*
X161579886Y-83970152D01*
X161360844Y-83908231D01*
X161208972Y-83843257D01*
X161107198Y-83768114D01*
X161050499Y-83704755D01*
X161016009Y-83638800D01*
X160998021Y-83547335D01*
X160990828Y-83407446D01*
X160989351Y-83294925D01*
X160985404Y-83128950D01*
X160977327Y-82997568D01*
X160966617Y-82922046D01*
X160962472Y-82912695D01*
X160923500Y-82929361D01*
X160837591Y-82993504D01*
X160718894Y-83093973D01*
X160626621Y-83177398D01*
X160362906Y-83407502D01*
X160124023Y-83578924D01*
X159888407Y-83700525D01*
X159634490Y-83781168D01*
X159340710Y-83829715D01*
X158985498Y-83855029D01*
X158976805Y-83855392D01*
X158458436Y-83853092D01*
X157999801Y-83799295D01*
X157591981Y-83692054D01*
X157226055Y-83529421D01*
X157077426Y-83440721D01*
X156945580Y-83358928D01*
X156839632Y-83299465D01*
X156780839Y-83274193D01*
X156778571Y-83274000D01*
X156746751Y-83310260D01*
X156739264Y-83402749D01*
X146162814Y-83402749D01*
X146225247Y-83339973D01*
X146531482Y-83044964D01*
X146843562Y-82765956D01*
X147172233Y-82494943D01*
X147528240Y-82223916D01*
X147922327Y-81944870D01*
X148365240Y-81649798D01*
X148867723Y-81330692D01*
X149181167Y-81137270D01*
X149685674Y-80824481D01*
X150124901Y-80542197D01*
X150508991Y-80282458D01*
X150848089Y-80037305D01*
X151152339Y-79798778D01*
X151431884Y-79558917D01*
X151696870Y-79309763D01*
X151957440Y-79043355D01*
X152223739Y-78751735D01*
X152229167Y-78745620D01*
X152540983Y-78388016D01*
X152826801Y-78045881D01*
X153104388Y-77696915D01*
X153391512Y-77318813D01*
X153685285Y-76917868D01*
X153892362Y-76634134D01*
X154056816Y-76415221D01*
X154183164Y-76255623D01*
X154275925Y-76149833D01*
X154339617Y-76092344D01*
X154374920Y-76077334D01*
X154389178Y-76116716D01*
X154400554Y-76223088D01*
X154407653Y-76378786D01*
X154409333Y-76512939D01*
X154398136Y-76840459D01*
X154359603Y-77122661D01*
X154286325Y-77377275D01*
X154170892Y-77622030D01*
X154005894Y-77874657D01*
X153783920Y-78152885D01*
X153668500Y-78285496D01*
X153453708Y-78529422D01*
X153290277Y-78719954D01*
X153171908Y-78865695D01*
X153092300Y-78975248D01*
X153045152Y-79057216D01*
X153024164Y-79120202D01*
X153022424Y-79167667D01*
X153041648Y-79234073D01*
X153089480Y-79285762D01*
X153174466Y-79324119D01*
X153305149Y-79350531D01*
X153490075Y-79366384D01*
X153737788Y-79373064D01*
X154056833Y-79371957D01*
X154261167Y-79368621D01*
X154560382Y-79362354D01*
X154790519Y-79355482D01*
X154967155Y-79346207D01*
X155105870Y-79332729D01*
X155222243Y-79313246D01*
X155331852Y-79285960D01*
X155450277Y-79249069D01*
X155531167Y-79221874D01*
X155936560Y-79067824D01*
X156340922Y-78884540D01*
X156712360Y-78687186D01*
X156907000Y-78567773D01*
X157058782Y-78454741D01*
X157251847Y-78290242D01*
X157472861Y-78087506D01*
X157708494Y-77859765D01*
X157945415Y-77620250D01*
X158170292Y-77382192D01*
X158369793Y-77158821D01*
X158530588Y-76963368D01*
X158552577Y-76934584D01*
X158662862Y-76789865D01*
X158753158Y-76674402D01*
X158812243Y-76602362D01*
X158829201Y-76585334D01*
X158859003Y-76616611D01*
X158927811Y-76700503D01*
X159023558Y-76822093D01*
X159080163Y-76895498D01*
X159382532Y-77244624D01*
X159735393Y-77564840D01*
X160148696Y-77863803D01*
X160632388Y-78149175D01*
X160865167Y-78269950D01*
X161211705Y-78436519D01*
X161492116Y-78555526D01*
X161709740Y-78627810D01*
X161867919Y-78654212D01*
X161969993Y-78635570D01*
X162019303Y-78572724D01*
X162022141Y-78560679D01*
X162016661Y-78486857D01*
X161989351Y-78356072D01*
X161945410Y-78191596D01*
X161923428Y-78118655D01*
X161842321Y-77834238D01*
X161797225Y-77606220D01*
X161786943Y-77414945D01*
X161810281Y-77240757D01*
X161860198Y-77079280D01*
X161976028Y-76836522D01*
X162129097Y-76638831D01*
X162332239Y-76475100D01*
X162598288Y-76334223D01*
X162824392Y-76244842D01*
X163090284Y-76149701D01*
X163191207Y-76244513D01*
X163297734Y-76310732D01*
X163400091Y-76299211D01*
X163505605Y-76207674D01*
X163563332Y-76128936D01*
X163631282Y-76025776D01*
X163729861Y-75875308D01*
X163843567Y-75701219D01*
X163915715Y-75590500D01*
X164158087Y-75260633D01*
X164468245Y-74906607D01*
X164835852Y-74536902D01*
X165250571Y-74160000D01*
X165702067Y-73784382D01*
X166180003Y-73418529D01*
X166674041Y-73070921D01*
X167173847Y-72750040D01*
X167669083Y-72464367D01*
X167829000Y-72379654D01*
X168290613Y-72156333D01*
X168702437Y-71990883D01*
X169073508Y-71880277D01*
X169412860Y-71821491D01*
X169522333Y-71812786D01*
X169703917Y-71805220D01*
X169825869Y-71809213D01*
G36*
X158111773Y-68054578D02*
G01*
X158256975Y-68112103D01*
X158442513Y-68200261D01*
X158658008Y-68312741D01*
X158893083Y-68443229D01*
X159137361Y-68585413D01*
X159380464Y-68732979D01*
X159612015Y-68879614D01*
X159821636Y-69019007D01*
X159998950Y-69144843D01*
X160133578Y-69250810D01*
X160215144Y-69330594D01*
X160233270Y-69377884D01*
X160231077Y-69380701D01*
X160177765Y-69403371D01*
X160067976Y-69433937D01*
X159963103Y-69457743D01*
X159663860Y-69536866D01*
X159329977Y-69653186D01*
X158994996Y-69793696D01*
X158692454Y-69945391D01*
X158663546Y-69961660D01*
X158515697Y-70045094D01*
X158398467Y-70109702D01*
X158329124Y-70146039D01*
X158317941Y-70150667D01*
X158281415Y-70124283D01*
X158220410Y-70067077D01*
X158146862Y-69959780D01*
X158111841Y-69865994D01*
X158068793Y-69712040D01*
X157993267Y-69495909D01*
X157890253Y-69231351D01*
X157818735Y-69058427D01*
X157759195Y-68908892D01*
X157731181Y-68800746D01*
X157730313Y-68698700D01*
X157752210Y-68567467D01*
X157755679Y-68550427D01*
X157811343Y-68316499D01*
X157868663Y-68158393D01*
X157932096Y-68067311D01*
X158006098Y-68034455D01*
X158017284Y-68034000D01*
X158111773Y-68054578D01*
G37*
X158111773Y-68054578D02*
X158256975Y-68112103D01*
X158442513Y-68200261D01*
X158658008Y-68312741D01*
X158893083Y-68443229D01*
X159137361Y-68585413D01*
X159380464Y-68732979D01*
X159612015Y-68879614D01*
X159821636Y-69019007D01*
X159998950Y-69144843D01*
X160133578Y-69250810D01*
X160215144Y-69330594D01*
X160233270Y-69377884D01*
X160231077Y-69380701D01*
X160177765Y-69403371D01*
X160067976Y-69433937D01*
X159963103Y-69457743D01*
X159663860Y-69536866D01*
X159329977Y-69653186D01*
X158994996Y-69793696D01*
X158692454Y-69945391D01*
X158663546Y-69961660D01*
X158515697Y-70045094D01*
X158398467Y-70109702D01*
X158329124Y-70146039D01*
X158317941Y-70150667D01*
X158281415Y-70124283D01*
X158220410Y-70067077D01*
X158146862Y-69959780D01*
X158111841Y-69865994D01*
X158068793Y-69712040D01*
X157993267Y-69495909D01*
X157890253Y-69231351D01*
X157818735Y-69058427D01*
X157759195Y-68908892D01*
X157731181Y-68800746D01*
X157730313Y-68698700D01*
X157752210Y-68567467D01*
X157755679Y-68550427D01*
X157811343Y-68316499D01*
X157868663Y-68158393D01*
X157932096Y-68067311D01*
X158006098Y-68034455D01*
X158017284Y-68034000D01*
X158111773Y-68054578D01*
D11*
X160647000Y-132081000D02*
G75*
G03*
X160647000Y-132081000I-1000000J0D01*
G01*
M02*
