G04 #@! TF.GenerationSoftware,KiCad,Pcbnew,5.1.6-c6e7f7d~87~ubuntu18.04.1*
G04 #@! TF.CreationDate,2020-08-06T21:04:51-07:00*
G04 #@! TF.ProjectId,scythe_badge,73637974-6865-45f6-9261-6467652e6b69,rev?*
G04 #@! TF.SameCoordinates,Original*
G04 #@! TF.FileFunction,Copper,L1,Top*
G04 #@! TF.FilePolarity,Positive*
%FSLAX46Y46*%
G04 Gerber Fmt 4.6, Leading zero omitted, Abs format (unit mm)*
G04 Created by KiCad (PCBNEW 5.1.6-c6e7f7d~87~ubuntu18.04.1) date 2020-08-06 21:04:51*
%MOMM*%
%LPD*%
G01*
G04 APERTURE LIST*
G04 #@! TA.AperFunction,EtchedComponent*
%ADD10C,0.010000*%
G04 #@! TD*
G04 #@! TA.AperFunction,ComponentPad*
%ADD11R,1.727200X1.727200*%
G04 #@! TD*
G04 #@! TA.AperFunction,ComponentPad*
%ADD12O,1.727200X1.727200*%
G04 #@! TD*
G04 #@! TA.AperFunction,ComponentPad*
%ADD13C,1.727200*%
G04 #@! TD*
G04 APERTURE END LIST*
D10*
G36*
X163823431Y-42665830D02*
G01*
X165458759Y-42753109D01*
X166074143Y-42805005D01*
X167806952Y-43008047D01*
X169519372Y-43292694D01*
X171209150Y-43658030D01*
X172874035Y-44103142D01*
X174511776Y-44627115D01*
X176120120Y-45229037D01*
X177696816Y-45907993D01*
X179239612Y-46663069D01*
X180746256Y-47493351D01*
X182214498Y-48397925D01*
X183642084Y-49375878D01*
X185026764Y-50426294D01*
X185206833Y-50570813D01*
X185547952Y-50852413D01*
X185908138Y-51160797D01*
X186282177Y-51490736D01*
X186664854Y-51836997D01*
X187050955Y-52194350D01*
X187435265Y-52557563D01*
X187812569Y-52921405D01*
X188177652Y-53280645D01*
X188525301Y-53630052D01*
X188850300Y-53964394D01*
X189147435Y-54278440D01*
X189411491Y-54566959D01*
X189637254Y-54824719D01*
X189819508Y-55046490D01*
X189953040Y-55227041D01*
X190032635Y-55361139D01*
X190054000Y-55433410D01*
X190031489Y-55535719D01*
X189964185Y-55708912D01*
X189852425Y-55952238D01*
X189696549Y-56264949D01*
X189553042Y-56540500D01*
X189000772Y-57589479D01*
X188458690Y-58626196D01*
X187929102Y-59646043D01*
X187414315Y-60644412D01*
X186916635Y-61616695D01*
X186438370Y-62558286D01*
X185981826Y-63464575D01*
X185549309Y-64330956D01*
X185143127Y-65152821D01*
X184765586Y-65925562D01*
X184418993Y-66644571D01*
X184105654Y-67305241D01*
X183827876Y-67902964D01*
X183587966Y-68433132D01*
X183502502Y-68626667D01*
X183461407Y-68723226D01*
X183390224Y-68893748D01*
X183290779Y-69133774D01*
X183164899Y-69438848D01*
X183014411Y-69804510D01*
X182841142Y-70226303D01*
X182646918Y-70699769D01*
X182433566Y-71220449D01*
X182202913Y-71783885D01*
X181956785Y-72385619D01*
X181697010Y-73021194D01*
X181425413Y-73686150D01*
X181143822Y-74376031D01*
X180854063Y-75086377D01*
X180557963Y-75812730D01*
X180548933Y-75834888D01*
X177827121Y-82513942D01*
X177933765Y-82861200D01*
X177980790Y-83007585D01*
X178026273Y-83120564D01*
X178082876Y-83219020D01*
X178163262Y-83321838D01*
X178280095Y-83447901D01*
X178427454Y-83597427D01*
X178785313Y-84002049D01*
X179079977Y-84436928D01*
X179317758Y-84914107D01*
X179504966Y-85445626D01*
X179607701Y-85849211D01*
X179637305Y-85992888D01*
X179659718Y-86130582D01*
X179675871Y-86277256D01*
X179686696Y-86447873D01*
X179693126Y-86657395D01*
X179696092Y-86920784D01*
X179696528Y-87253003D01*
X179696496Y-87274500D01*
X179692432Y-87714893D01*
X179680472Y-88109723D01*
X179658674Y-88480646D01*
X179625098Y-88849314D01*
X179577804Y-89237382D01*
X179514850Y-89666504D01*
X179442280Y-90111156D01*
X179327908Y-90788812D01*
X179504288Y-91423490D01*
X179625954Y-91888766D01*
X179725215Y-92334353D01*
X179803880Y-92775744D01*
X179863759Y-93228433D01*
X179906663Y-93707911D01*
X179934401Y-94229672D01*
X179948783Y-94809209D01*
X179951871Y-95254334D01*
X179939372Y-96048165D01*
X179897754Y-96781877D01*
X179823520Y-97475207D01*
X179713173Y-98147892D01*
X179563215Y-98819667D01*
X179370150Y-99510270D01*
X179130480Y-100239437D01*
X179007960Y-100581395D01*
X178927683Y-100801318D01*
X178853849Y-101004981D01*
X178793352Y-101173262D01*
X178753089Y-101287044D01*
X178745883Y-101308000D01*
X178709709Y-101409227D01*
X178651719Y-101565425D01*
X178580860Y-101752681D01*
X178527117Y-101892737D01*
X178358554Y-102329307D01*
X178492350Y-102929903D01*
X178554267Y-103215024D01*
X178602840Y-103461715D01*
X178639188Y-103685659D01*
X178664428Y-103902534D01*
X178679680Y-104128020D01*
X178686063Y-104377798D01*
X178684695Y-104667547D01*
X178676695Y-105012947D01*
X178665628Y-105358723D01*
X178649493Y-105812785D01*
X178632554Y-106257335D01*
X178615203Y-106684326D01*
X178597830Y-107085706D01*
X178580825Y-107453428D01*
X178564580Y-107779443D01*
X178549484Y-108055701D01*
X178535929Y-108274152D01*
X178524305Y-108426749D01*
X178515003Y-108505442D01*
X178512500Y-108513835D01*
X178530920Y-108556472D01*
X178596689Y-108644476D01*
X178697941Y-108762702D01*
X178763198Y-108833785D01*
X178886846Y-108974649D01*
X178988143Y-109107135D01*
X179051614Y-109210264D01*
X179063595Y-109241028D01*
X179062649Y-109389588D01*
X178983088Y-109516482D01*
X178828976Y-109618269D01*
X178604379Y-109691512D01*
X178509327Y-109709857D01*
X178398066Y-109733288D01*
X178350277Y-109766476D01*
X178345206Y-109827794D01*
X178348563Y-109852177D01*
X178357002Y-109936632D01*
X178367440Y-110085393D01*
X178378604Y-110278160D01*
X178389220Y-110494635D01*
X178390146Y-110515500D01*
X178399613Y-110686063D01*
X178415828Y-110927284D01*
X178437731Y-111225517D01*
X178464265Y-111567113D01*
X178494370Y-111938426D01*
X178526987Y-112325808D01*
X178559282Y-112695667D01*
X178607532Y-113239811D01*
X178648917Y-113710980D01*
X178684329Y-114120510D01*
X178714659Y-114479737D01*
X178740799Y-114799996D01*
X178763641Y-115092624D01*
X178784075Y-115368956D01*
X178802994Y-115640328D01*
X178821289Y-115918075D01*
X178839851Y-116213534D01*
X178853323Y-116434334D01*
X178871005Y-116711581D01*
X178888585Y-116959768D01*
X178905054Y-117166673D01*
X178919402Y-117320075D01*
X178930620Y-117407751D01*
X178935015Y-117423459D01*
X178983991Y-117441078D01*
X179097188Y-117469806D01*
X179255629Y-117505063D01*
X179373236Y-117529183D01*
X180015460Y-117688805D01*
X180597047Y-117902204D01*
X181126011Y-118173603D01*
X181610367Y-118507228D01*
X182058128Y-118907301D01*
X182132382Y-118983477D01*
X182421650Y-119306814D01*
X182686915Y-119649333D01*
X182932948Y-120020179D01*
X183164518Y-120428500D01*
X183386395Y-120883444D01*
X183603351Y-121394157D01*
X183820153Y-121969786D01*
X184041574Y-122619479D01*
X184063330Y-122686334D01*
X184214380Y-123151045D01*
X184343095Y-123543862D01*
X184452647Y-123873627D01*
X184546207Y-124149177D01*
X184626946Y-124379354D01*
X184698036Y-124572996D01*
X184762647Y-124738946D01*
X184823951Y-124886041D01*
X184885119Y-125023122D01*
X184949322Y-125159029D01*
X184953416Y-125167496D01*
X185156568Y-125542800D01*
X185367808Y-125840081D01*
X185594681Y-126065980D01*
X185844730Y-126227139D01*
X186125499Y-126330198D01*
X186316548Y-126367582D01*
X186714202Y-126383725D01*
X187098534Y-126320010D01*
X187413787Y-126200392D01*
X187665686Y-126043074D01*
X187876536Y-125835891D01*
X188050937Y-125571393D01*
X188193488Y-125242132D01*
X188308787Y-124840660D01*
X188339604Y-124700914D01*
X188386665Y-124495145D01*
X188435681Y-124316534D01*
X188480899Y-124184197D01*
X188514751Y-124119128D01*
X188604394Y-124069046D01*
X188737921Y-124042536D01*
X188876939Y-124043198D01*
X188983055Y-124074634D01*
X188983837Y-124075126D01*
X189056478Y-124165730D01*
X189118134Y-124334843D01*
X189168156Y-124576945D01*
X189205898Y-124886512D01*
X189230712Y-125258022D01*
X189241949Y-125685953D01*
X189238962Y-126164781D01*
X189237346Y-126236586D01*
X189224943Y-126628041D01*
X189206953Y-126951149D01*
X189180603Y-127222184D01*
X189143123Y-127457421D01*
X189091743Y-127673132D01*
X189023690Y-127885591D01*
X188936194Y-128111072D01*
X188905819Y-128183503D01*
X188836497Y-128353997D01*
X188784136Y-128497028D01*
X188755256Y-128593908D01*
X188752292Y-128623711D01*
X188798530Y-128658468D01*
X188900868Y-128699312D01*
X188980526Y-128722554D01*
X189281220Y-128835852D01*
X189588325Y-129017365D01*
X189885534Y-129253748D01*
X190156537Y-129531655D01*
X190385025Y-129837739D01*
X190427416Y-129906600D01*
X190630118Y-130310079D01*
X190800978Y-130775848D01*
X190934730Y-131285809D01*
X191026104Y-131821863D01*
X191050197Y-132046134D01*
X191063225Y-132210496D01*
X191062491Y-132316819D01*
X191042083Y-132391367D01*
X190996090Y-132460403D01*
X190942984Y-132522384D01*
X190843046Y-132620579D01*
X190748504Y-132668974D01*
X190645119Y-132665191D01*
X190518653Y-132606848D01*
X190354868Y-132491565D01*
X190247497Y-132406103D01*
X189975328Y-132219731D01*
X189678161Y-132087092D01*
X189349086Y-132007767D01*
X188981193Y-131981335D01*
X188567575Y-132007376D01*
X188101320Y-132085469D01*
X187575521Y-132215196D01*
X187492833Y-132238581D01*
X187322716Y-132289635D01*
X187183665Y-132335530D01*
X187095811Y-132369421D01*
X187077152Y-132379925D01*
X187080971Y-132428600D01*
X187122699Y-132528143D01*
X187193725Y-132658680D01*
X187208780Y-132683649D01*
X187429041Y-133089219D01*
X187579865Y-133480462D01*
X187668008Y-133879969D01*
X187700224Y-134310333D01*
X187700440Y-134328000D01*
X187690878Y-134619695D01*
X187653064Y-134834993D01*
X187583316Y-134975401D01*
X187477949Y-135042426D01*
X187333279Y-135037574D01*
X187145622Y-134962354D01*
X186911294Y-134818270D01*
X186762896Y-134711496D01*
X186579862Y-134582492D01*
X186393897Y-134464617D01*
X186230255Y-134373240D01*
X186139553Y-134332155D01*
X185892350Y-134261573D01*
X185586826Y-134208587D01*
X185248017Y-134175961D01*
X184900958Y-134166460D01*
X184698833Y-134173031D01*
X184532008Y-134184010D01*
X184390080Y-134197965D01*
X184254938Y-134218681D01*
X184108471Y-134249941D01*
X183932569Y-134295531D01*
X183709121Y-134359236D01*
X183471462Y-134429505D01*
X183308947Y-134475191D01*
X183165880Y-134506894D01*
X183019782Y-134527160D01*
X182848174Y-134538537D01*
X182628577Y-134543571D01*
X182455368Y-134544633D01*
X182088596Y-134538949D01*
X181785033Y-134517022D01*
X181524114Y-134474885D01*
X181285276Y-134408570D01*
X181047955Y-134314109D01*
X180903651Y-134245237D01*
X180506698Y-134024677D01*
X180138173Y-133771374D01*
X179783564Y-133473245D01*
X179428363Y-133118209D01*
X179096572Y-132740500D01*
X178596701Y-132086770D01*
X178177725Y-131416383D01*
X177837125Y-130722976D01*
X177572382Y-130000183D01*
X177380979Y-129241641D01*
X177286392Y-128613582D01*
X177990636Y-128613582D01*
X177994447Y-128710947D01*
X178012728Y-128859136D01*
X178042669Y-129042440D01*
X178081463Y-129245146D01*
X178126301Y-129451541D01*
X178174375Y-129645914D01*
X178222877Y-129812553D01*
X178225140Y-129819500D01*
X178382061Y-130229968D01*
X178591829Y-130675366D01*
X178842776Y-131135796D01*
X179123233Y-131591358D01*
X179421533Y-132022153D01*
X179726007Y-132408281D01*
X179779358Y-132470124D01*
X180205225Y-132904255D01*
X180659685Y-133268653D01*
X181136155Y-133558878D01*
X181628051Y-133770488D01*
X181777833Y-133818033D01*
X182016238Y-133871320D01*
X182269740Y-133893440D01*
X182551151Y-133883387D01*
X182873281Y-133840156D01*
X183248942Y-133762739D01*
X183598167Y-133675107D01*
X184055758Y-133560036D01*
X184451803Y-133477980D01*
X184802990Y-133429579D01*
X185126005Y-133415476D01*
X185437537Y-133436310D01*
X185754271Y-133492724D01*
X186092897Y-133585358D01*
X186470100Y-133714854D01*
X186677917Y-133793445D01*
X186825187Y-133849403D01*
X186910487Y-133875917D01*
X186950736Y-133874280D01*
X186962857Y-133845781D01*
X186963667Y-133815244D01*
X186938470Y-133706863D01*
X186869652Y-133550707D01*
X186767374Y-133364392D01*
X186641795Y-133165535D01*
X186503074Y-132971754D01*
X186411575Y-132857927D01*
X186160103Y-132561388D01*
X185492968Y-132532715D01*
X184993446Y-132504858D01*
X184564303Y-132465473D01*
X184191655Y-132411301D01*
X183861621Y-132339082D01*
X183560316Y-132245556D01*
X183273858Y-132127464D01*
X182988364Y-131981547D01*
X182878500Y-131918860D01*
X182624500Y-131770292D01*
X181714333Y-131768563D01*
X181412737Y-131767617D01*
X181182067Y-131765203D01*
X181008583Y-131760003D01*
X180878544Y-131750703D01*
X180778210Y-131735987D01*
X180693841Y-131714540D01*
X180611696Y-131685046D01*
X180542041Y-131656331D01*
X180223502Y-131499708D01*
X179881123Y-131292186D01*
X179541635Y-131050773D01*
X179357258Y-130902491D01*
X179068559Y-130614661D01*
X178794499Y-130254937D01*
X178542702Y-129835803D01*
X178320791Y-129369741D01*
X178160257Y-128942695D01*
X178103757Y-128784592D01*
X178052041Y-128660897D01*
X178013571Y-128591111D01*
X178004101Y-128582756D01*
X177990636Y-128613582D01*
X177286392Y-128613582D01*
X177260398Y-128440983D01*
X177225132Y-128010624D01*
X177210456Y-127779878D01*
X177196327Y-127580738D01*
X177183891Y-127427674D01*
X177174291Y-127335155D01*
X177170074Y-127314296D01*
X177155196Y-127346619D01*
X177129703Y-127462058D01*
X177093737Y-127659749D01*
X177047441Y-127938827D01*
X176990956Y-128298429D01*
X176924424Y-128737689D01*
X176847988Y-129255743D01*
X176824462Y-129417334D01*
X176679963Y-130388185D01*
X176539428Y-131280365D01*
X176401423Y-132099697D01*
X176264518Y-132852006D01*
X176127278Y-133543115D01*
X175988272Y-134178848D01*
X175846067Y-134765027D01*
X175699231Y-135307477D01*
X175546330Y-135812022D01*
X175385933Y-136284484D01*
X175216606Y-136730688D01*
X175036917Y-137156457D01*
X174845434Y-137567614D01*
X174793793Y-137672334D01*
X174406875Y-138393476D01*
X174005333Y-139035012D01*
X173589806Y-139596437D01*
X173160932Y-140077247D01*
X172719352Y-140476939D01*
X172265705Y-140795007D01*
X171800630Y-141030949D01*
X171324767Y-141184261D01*
X170838754Y-141254438D01*
X170343232Y-141240977D01*
X170276080Y-141232783D01*
X169969159Y-141171836D01*
X169694342Y-141069817D01*
X169431242Y-140916239D01*
X169159472Y-140700614D01*
X169053619Y-140603931D01*
X168708998Y-140279736D01*
X168878866Y-140129618D01*
X169139329Y-139845108D01*
X169328034Y-139516180D01*
X169395788Y-139333062D01*
X169412700Y-139275167D01*
X169427186Y-139214780D01*
X169439434Y-139145197D01*
X169449631Y-139059716D01*
X169457965Y-138951636D01*
X169464621Y-138814253D01*
X169469788Y-138640865D01*
X169473653Y-138424770D01*
X169476403Y-138159266D01*
X169478225Y-137837651D01*
X169479306Y-137453222D01*
X169479834Y-136999277D01*
X169479995Y-136469113D01*
X169480000Y-136317667D01*
X169479901Y-135766420D01*
X169479479Y-135293147D01*
X169478549Y-134891153D01*
X169476925Y-134553744D01*
X169474422Y-134274228D01*
X169470853Y-134045910D01*
X169466032Y-133862097D01*
X169459774Y-133716094D01*
X169451893Y-133601210D01*
X169442203Y-133510749D01*
X169430518Y-133438018D01*
X169416653Y-133376324D01*
X169400422Y-133318974D01*
X169396391Y-133305876D01*
X169244203Y-132949651D01*
X169027023Y-132647158D01*
X168747750Y-132401537D01*
X168409285Y-132215932D01*
X168379333Y-132203608D01*
X168289074Y-132170550D01*
X168195812Y-132145645D01*
X168084985Y-132127387D01*
X167942030Y-132114270D01*
X167752382Y-132104789D01*
X167501480Y-132097440D01*
X167312947Y-132093376D01*
X166479395Y-132076752D01*
X166457744Y-131964126D01*
X166446579Y-131888537D01*
X166428090Y-131743535D01*
X166404050Y-131543886D01*
X166376229Y-131304354D01*
X166346400Y-131039703D01*
X166341331Y-130993952D01*
X166308096Y-130700803D01*
X166280873Y-130482106D01*
X166257773Y-130328015D01*
X166236907Y-130228684D01*
X166216386Y-130174268D01*
X166194322Y-130154920D01*
X166180534Y-130155749D01*
X165986134Y-130202779D01*
X165726895Y-130251185D01*
X165422561Y-130298514D01*
X165092873Y-130342313D01*
X164757573Y-130380130D01*
X164436404Y-130409512D01*
X164149107Y-130428006D01*
X163946181Y-130433334D01*
X163511000Y-130433334D01*
X163511000Y-132076542D01*
X161876478Y-132105500D01*
X161554057Y-132264923D01*
X161224032Y-132471570D01*
X160955464Y-132735959D01*
X160744815Y-133061641D01*
X160729500Y-133092197D01*
X160611167Y-133333167D01*
X160599444Y-136229365D01*
X160597220Y-136795648D01*
X160595566Y-137283718D01*
X160594635Y-137700028D01*
X160594579Y-138051031D01*
X160595550Y-138343179D01*
X160597699Y-138582925D01*
X160601178Y-138776722D01*
X160606139Y-138931023D01*
X160612735Y-139052281D01*
X160621116Y-139146947D01*
X160631436Y-139221475D01*
X160643845Y-139282318D01*
X160658495Y-139335929D01*
X160673680Y-139383198D01*
X160749352Y-139561802D01*
X160854695Y-139753136D01*
X160935321Y-139872533D01*
X161111003Y-140104232D01*
X160828335Y-140362971D01*
X160538855Y-140597035D01*
X160211710Y-140810212D01*
X159878811Y-140982991D01*
X159690282Y-141058904D01*
X159377759Y-141148329D01*
X159029626Y-141213687D01*
X158669004Y-141253232D01*
X158319019Y-141265214D01*
X158002794Y-141247886D01*
X157762021Y-141204678D01*
X157279273Y-141040785D01*
X156820945Y-140814018D01*
X156383701Y-140521201D01*
X155964205Y-140159162D01*
X155559120Y-139724726D01*
X155165112Y-139214719D01*
X154778842Y-138625966D01*
X154449805Y-138053334D01*
X154259302Y-137713206D01*
X154088239Y-137432331D01*
X153924005Y-137191592D01*
X153753987Y-136971878D01*
X153671759Y-136874225D01*
X153482512Y-136635741D01*
X153349351Y-136417104D01*
X153258178Y-136190804D01*
X153199278Y-135952274D01*
X153164741Y-135705077D01*
X153142691Y-135398261D01*
X153133105Y-135055946D01*
X153135962Y-134702251D01*
X153151241Y-134361294D01*
X153178921Y-134057196D01*
X153201089Y-133904667D01*
X153217853Y-133791402D01*
X153232712Y-133652207D01*
X153245958Y-133479919D01*
X153257885Y-133267370D01*
X153268785Y-133007395D01*
X153278949Y-132692828D01*
X153288671Y-132316504D01*
X153298243Y-131871258D01*
X153307956Y-131349923D01*
X153309911Y-131237667D01*
X153320366Y-130659909D01*
X153330682Y-130157564D01*
X153341291Y-129721381D01*
X153352623Y-129342108D01*
X153365110Y-129010493D01*
X153379181Y-128717285D01*
X153395269Y-128453232D01*
X153413802Y-128209082D01*
X153435214Y-127975584D01*
X153459933Y-127743486D01*
X153480969Y-127564222D01*
X153533160Y-127133597D01*
X153315210Y-126778192D01*
X153280593Y-126713602D01*
X159877329Y-126713602D01*
X159883639Y-126736999D01*
X159894783Y-126753875D01*
X159897488Y-126756951D01*
X159975328Y-126820293D01*
X160113196Y-126910638D01*
X160294588Y-127018773D01*
X160503002Y-127135483D01*
X160721937Y-127251555D01*
X160934889Y-127357774D01*
X161125356Y-127444927D01*
X161143520Y-127452656D01*
X161454486Y-127564623D01*
X161814414Y-127662413D01*
X162187720Y-127736398D01*
X162198667Y-127738135D01*
X162392146Y-127755799D01*
X162639652Y-127760038D01*
X162911763Y-127751744D01*
X163179059Y-127731807D01*
X163410205Y-127701449D01*
X164043036Y-127553942D01*
X164652730Y-127332814D01*
X165243164Y-127035848D01*
X165818212Y-126660827D01*
X166381750Y-126205535D01*
X166687755Y-125910979D01*
X177396333Y-125910979D01*
X177421758Y-125958356D01*
X177489653Y-126052952D01*
X177587447Y-126177650D01*
X177632747Y-126232879D01*
X177819842Y-126493094D01*
X178015440Y-126831980D01*
X178217037Y-127244258D01*
X178422127Y-127724650D01*
X178628204Y-128267879D01*
X178712272Y-128507167D01*
X178810359Y-128787935D01*
X178908682Y-129061246D01*
X179000877Y-129310010D01*
X179080583Y-129517133D01*
X179141440Y-129665526D01*
X179153446Y-129692500D01*
X179373837Y-130085436D01*
X179656640Y-130448537D01*
X179986687Y-130765931D01*
X180348810Y-131021745D01*
X180503790Y-131105518D01*
X180690793Y-131191311D01*
X180858773Y-131250441D01*
X181032109Y-131287764D01*
X181235182Y-131308136D01*
X181492372Y-131316415D01*
X181566167Y-131317151D01*
X181795134Y-131315560D01*
X181961243Y-131305221D01*
X182086079Y-131283517D01*
X182191228Y-131247831D01*
X182211600Y-131238874D01*
X182358381Y-131162077D01*
X182524713Y-131059156D01*
X182695214Y-130941724D01*
X182854506Y-130821397D01*
X182987210Y-130709789D01*
X183077945Y-130618514D01*
X183111333Y-130559411D01*
X183074253Y-130531257D01*
X182974956Y-130483913D01*
X182831355Y-130425524D01*
X182752104Y-130396023D01*
X182452358Y-130280830D01*
X182214934Y-130172173D01*
X182019373Y-130058822D01*
X181845215Y-129929548D01*
X181748491Y-129845174D01*
X181507483Y-129572428D01*
X181313838Y-129236380D01*
X181164684Y-128831956D01*
X181154344Y-128795624D01*
X181148884Y-128774709D01*
X181678724Y-128774709D01*
X181715293Y-128888042D01*
X181788364Y-129034140D01*
X181888389Y-129197458D01*
X182005820Y-129362451D01*
X182131112Y-129513573D01*
X182254716Y-129635278D01*
X182258724Y-129638670D01*
X182370663Y-129718086D01*
X182523945Y-129808675D01*
X182657817Y-129877363D01*
X182764406Y-129925359D01*
X182871038Y-129966777D01*
X182992973Y-130005922D01*
X183145471Y-130047103D01*
X183343791Y-130094626D01*
X183603193Y-130152798D01*
X183738929Y-130182510D01*
X183915447Y-130239693D01*
X184010798Y-130318155D01*
X184026399Y-130420513D01*
X183963666Y-130549381D01*
X183948678Y-130569733D01*
X183821271Y-130720370D01*
X183653035Y-130897205D01*
X183468522Y-131076263D01*
X183292283Y-131233570D01*
X183169182Y-131330938D01*
X183071572Y-131410141D01*
X183015459Y-131473842D01*
X183009837Y-131498685D01*
X183067282Y-131545279D01*
X183183474Y-131610193D01*
X183337387Y-131683372D01*
X183508000Y-131754761D01*
X183660246Y-131809759D01*
X184030095Y-131902441D01*
X184456327Y-131960947D01*
X184917613Y-131984708D01*
X185392624Y-131973153D01*
X185860033Y-131925714D01*
X186146192Y-131876083D01*
X186379474Y-131823105D01*
X186650696Y-131753839D01*
X186917664Y-131679334D01*
X187048333Y-131639834D01*
X187484902Y-131511185D01*
X187868154Y-131417731D01*
X188219913Y-131355654D01*
X188562006Y-131321138D01*
X188916258Y-131310365D01*
X188932167Y-131310376D01*
X189189170Y-131314091D01*
X189399519Y-131327217D01*
X189591129Y-131354333D01*
X189791914Y-131400020D01*
X190029791Y-131468860D01*
X190173408Y-131514047D01*
X190235417Y-131528306D01*
X190257753Y-131503809D01*
X190250597Y-131421359D01*
X190243971Y-131380970D01*
X190148996Y-130993923D01*
X190000904Y-130619016D01*
X189808845Y-130270299D01*
X189581966Y-129961823D01*
X189329415Y-129707637D01*
X189060339Y-129521792D01*
X189020038Y-129501128D01*
X188732948Y-129381004D01*
X188482517Y-129326346D01*
X188250444Y-129338219D01*
X188018426Y-129417688D01*
X187768159Y-129565816D01*
X187755350Y-129574687D01*
X187383954Y-129811234D01*
X187029081Y-129986035D01*
X186663454Y-130109187D01*
X186259796Y-130190786D01*
X186005866Y-130222206D01*
X185376634Y-130244257D01*
X184744051Y-130185027D01*
X184116221Y-130047125D01*
X183501246Y-129833158D01*
X182907228Y-129545734D01*
X182342271Y-129187461D01*
X182020505Y-128939482D01*
X181885329Y-128832125D01*
X181774840Y-128752661D01*
X181704438Y-128711739D01*
X181688203Y-128709686D01*
X181678724Y-128774709D01*
X181148884Y-128774709D01*
X181124130Y-128679898D01*
X181101349Y-128568899D01*
X181085024Y-128448375D01*
X181074178Y-128304068D01*
X181067836Y-128121725D01*
X181065021Y-127887091D01*
X181064757Y-127585910D01*
X181064997Y-127491167D01*
X181068166Y-127166151D01*
X181075319Y-126826938D01*
X181085690Y-126497168D01*
X181098511Y-126200482D01*
X181113016Y-125960520D01*
X181115774Y-125924834D01*
X181137397Y-125585392D01*
X181152392Y-125197320D01*
X181160848Y-124778879D01*
X181162855Y-124348330D01*
X181158501Y-123923935D01*
X181147877Y-123523956D01*
X181131072Y-123166654D01*
X181108175Y-122870291D01*
X181100470Y-122798880D01*
X180992639Y-122072994D01*
X180846537Y-121419865D01*
X180660322Y-120835824D01*
X180432153Y-120317199D01*
X180160186Y-119860319D01*
X179842580Y-119461512D01*
X179477493Y-119117109D01*
X179124939Y-118862147D01*
X178885045Y-118708905D01*
X178861229Y-119014869D01*
X178849882Y-119180885D01*
X178836972Y-119401730D01*
X178824147Y-119647629D01*
X178813809Y-119871167D01*
X178776840Y-120466282D01*
X178717245Y-121089676D01*
X178638218Y-121718392D01*
X178542955Y-122329477D01*
X178434650Y-122899974D01*
X178327716Y-123363475D01*
X178259398Y-123607355D01*
X178167100Y-123903183D01*
X178058302Y-124229761D01*
X177940487Y-124565890D01*
X177821137Y-124890372D01*
X177707735Y-125182010D01*
X177607762Y-125419606D01*
X177582088Y-125475934D01*
X177504788Y-125644862D01*
X177443229Y-125785864D01*
X177405053Y-125881042D01*
X177396333Y-125910979D01*
X166687755Y-125910979D01*
X166904293Y-125702543D01*
X167432255Y-125093754D01*
X167899256Y-124427756D01*
X168303990Y-123707416D01*
X168645155Y-122935604D01*
X168921446Y-122115189D01*
X169131558Y-121249040D01*
X169248224Y-120546828D01*
X169276766Y-120269059D01*
X169297950Y-119928101D01*
X169311594Y-119545130D01*
X169317512Y-119141320D01*
X169315522Y-118737843D01*
X169305440Y-118355876D01*
X169300007Y-118255460D01*
X179357763Y-118255460D01*
X179369607Y-118295703D01*
X179433014Y-118361246D01*
X179453620Y-118377965D01*
X179821294Y-118709645D01*
X180169951Y-119115295D01*
X180493255Y-119585170D01*
X180784869Y-120109528D01*
X181038454Y-120678626D01*
X181154562Y-120993000D01*
X181286910Y-121405763D01*
X181397733Y-121816710D01*
X181487978Y-122235692D01*
X181558593Y-122672556D01*
X181610527Y-123137151D01*
X181644727Y-123639325D01*
X181662144Y-124188928D01*
X181663724Y-124795807D01*
X181650415Y-125469813D01*
X181633514Y-125967167D01*
X181620010Y-126303874D01*
X181606135Y-126628180D01*
X181592548Y-126926184D01*
X181579911Y-127183985D01*
X181568884Y-127387683D01*
X181560128Y-127523376D01*
X181558744Y-127540702D01*
X181533148Y-127844237D01*
X181930657Y-128242743D01*
X182109001Y-128414822D01*
X182296756Y-128584798D01*
X182471019Y-128732539D01*
X182603333Y-128834045D01*
X182928853Y-129046026D01*
X183280381Y-129246937D01*
X183636784Y-129426322D01*
X183976929Y-129573725D01*
X184279684Y-129678690D01*
X184348137Y-129697351D01*
X184522056Y-129724835D01*
X184756188Y-129738517D01*
X185027320Y-129739033D01*
X185312239Y-129727024D01*
X185587733Y-129703127D01*
X185830588Y-129667981D01*
X185896256Y-129654762D01*
X186183574Y-129579075D01*
X186494079Y-129475996D01*
X186798152Y-129356780D01*
X187066175Y-129232685D01*
X187198621Y-129159814D01*
X187540034Y-128906985D01*
X187839866Y-128586535D01*
X188091043Y-128208161D01*
X188286487Y-127781558D01*
X188354547Y-127575834D01*
X188394219Y-127424844D01*
X188439538Y-127227584D01*
X188486581Y-127004339D01*
X188531425Y-126775391D01*
X188570148Y-126561025D01*
X188598828Y-126381524D01*
X188613542Y-126257171D01*
X188614667Y-126230682D01*
X188602324Y-126199972D01*
X188558654Y-126214618D01*
X188473691Y-126280309D01*
X188377034Y-126366354D01*
X188112029Y-126594587D01*
X187872397Y-126764341D01*
X187636393Y-126884451D01*
X187382274Y-126963753D01*
X187088297Y-127011083D01*
X186732718Y-127035276D01*
X186730688Y-127035356D01*
X186399201Y-127041683D01*
X186129218Y-127029334D01*
X185898966Y-126994907D01*
X185686671Y-126935000D01*
X185470560Y-126846210D01*
X185445671Y-126834558D01*
X185255088Y-126731174D01*
X185078595Y-126605010D01*
X184912901Y-126450101D01*
X184754714Y-126260484D01*
X184600744Y-126030193D01*
X184447701Y-125753264D01*
X184292293Y-125423734D01*
X184131230Y-125035637D01*
X183961222Y-124583010D01*
X183778976Y-124059889D01*
X183581203Y-123460308D01*
X183577337Y-123448334D01*
X183393604Y-122890161D01*
X183224996Y-122402566D01*
X183066994Y-121973768D01*
X182915080Y-121591988D01*
X182764738Y-121245446D01*
X182611447Y-120922362D01*
X182598677Y-120896686D01*
X182270163Y-120305291D01*
X181913108Y-119791977D01*
X181525115Y-119354295D01*
X181103787Y-118989798D01*
X180646724Y-118696036D01*
X180267027Y-118515723D01*
X180050317Y-118431968D01*
X179838662Y-118358908D01*
X179647695Y-118301016D01*
X179493045Y-118262767D01*
X179390345Y-118248634D01*
X179357763Y-118255460D01*
X169300007Y-118255460D01*
X169287083Y-118016591D01*
X169271695Y-117839167D01*
X169151605Y-116964513D01*
X168972373Y-116062198D01*
X168740537Y-115157992D01*
X168462635Y-114277661D01*
X168176103Y-113521167D01*
X168053786Y-113224834D01*
X167634476Y-113246000D01*
X167324455Y-113257913D01*
X166984760Y-113264633D01*
X166636201Y-113266284D01*
X166299585Y-113262990D01*
X165995724Y-113254877D01*
X165745427Y-113242068D01*
X165648833Y-113234135D01*
X165310167Y-113201102D01*
X164892033Y-114227815D01*
X164473900Y-115254528D01*
X164543064Y-115615514D01*
X164606441Y-116147390D01*
X164593435Y-116667317D01*
X164507028Y-117167634D01*
X164350202Y-117640682D01*
X164125940Y-118078801D01*
X163837222Y-118474331D01*
X163487032Y-118819612D01*
X163217637Y-119020256D01*
X163074686Y-119118936D01*
X162952981Y-119210420D01*
X162875937Y-119276982D01*
X162869742Y-119283650D01*
X162843950Y-119333681D01*
X162788708Y-119456583D01*
X162706356Y-119646756D01*
X162599230Y-119898598D01*
X162469668Y-120206506D01*
X162320008Y-120564881D01*
X162152589Y-120968120D01*
X161969747Y-121410622D01*
X161773820Y-121886786D01*
X161567147Y-122391009D01*
X161352065Y-122917691D01*
X161311030Y-123018394D01*
X161059456Y-123636132D01*
X160838076Y-124180277D01*
X160645079Y-124655620D01*
X160478654Y-125066951D01*
X160336989Y-125419061D01*
X160218273Y-125716741D01*
X160120694Y-125964782D01*
X160042441Y-126167975D01*
X159981703Y-126331110D01*
X159936667Y-126458978D01*
X159905524Y-126556371D01*
X159886460Y-126628078D01*
X159877666Y-126678892D01*
X159877329Y-126713602D01*
X153280593Y-126713602D01*
X153016867Y-126221544D01*
X152760968Y-125593580D01*
X152547243Y-124893523D01*
X152375422Y-124120598D01*
X152357058Y-124019834D01*
X152317156Y-123734318D01*
X152284758Y-123375985D01*
X152259785Y-122956343D01*
X152242160Y-122486901D01*
X152231806Y-121979167D01*
X152228643Y-121444650D01*
X152232596Y-120894860D01*
X152243585Y-120341304D01*
X152261534Y-119795491D01*
X152286364Y-119268931D01*
X152314997Y-118820146D01*
X156812776Y-118820146D01*
X156814453Y-119107223D01*
X156818489Y-119409431D01*
X156824778Y-119715189D01*
X156833215Y-120012915D01*
X156843692Y-120291031D01*
X156856105Y-120537954D01*
X156868241Y-120716467D01*
X156918165Y-121134102D01*
X157002831Y-121604143D01*
X157116537Y-122104613D01*
X157253583Y-122613535D01*
X157408267Y-123108930D01*
X157574889Y-123568823D01*
X157665034Y-123788210D01*
X157777477Y-124040171D01*
X157866983Y-124217827D01*
X157938220Y-124326912D01*
X157995856Y-124373162D01*
X158044559Y-124362313D01*
X158086150Y-124305584D01*
X158108755Y-124253953D01*
X158159735Y-124132210D01*
X158235683Y-123948718D01*
X158333193Y-123711840D01*
X158448859Y-123429940D01*
X158579274Y-123111380D01*
X158721032Y-122764524D01*
X158870726Y-122397735D01*
X159024951Y-122019376D01*
X159180299Y-121637810D01*
X159333364Y-121261401D01*
X159480741Y-120898512D01*
X159619022Y-120557506D01*
X159744801Y-120246746D01*
X159854672Y-119974596D01*
X159945228Y-119749418D01*
X160013063Y-119579577D01*
X160054771Y-119473434D01*
X160061234Y-119456452D01*
X160102409Y-119318842D01*
X160106785Y-119230953D01*
X160098237Y-119214304D01*
X160044797Y-119190018D01*
X159925283Y-119150476D01*
X159755850Y-119100598D01*
X159552653Y-119045303D01*
X159488485Y-119028639D01*
X159070783Y-118915545D01*
X158697923Y-118800375D01*
X158341315Y-118672836D01*
X157972371Y-118522635D01*
X157562501Y-118339477D01*
X157520833Y-118320192D01*
X157305932Y-118221125D01*
X157116899Y-118135197D01*
X156967494Y-118068566D01*
X156871477Y-118027391D01*
X156843500Y-118017032D01*
X156831787Y-118054750D01*
X156822965Y-118165501D01*
X156816926Y-118337704D01*
X156813565Y-118559779D01*
X156812776Y-118820146D01*
X152314997Y-118820146D01*
X152317997Y-118773132D01*
X152356357Y-118319602D01*
X152398107Y-117945000D01*
X152474576Y-117384162D01*
X152564825Y-116782181D01*
X152664399Y-116166021D01*
X152768839Y-115562644D01*
X152873687Y-114999014D01*
X152940477Y-114664167D01*
X153079997Y-113986834D01*
X152900240Y-113435776D01*
X152671472Y-112610208D01*
X152517416Y-111771302D01*
X152453308Y-111092787D01*
X158548875Y-111092787D01*
X158960393Y-111479011D01*
X159445156Y-111924058D01*
X159887453Y-112308342D01*
X160296066Y-112638498D01*
X160679773Y-112921160D01*
X161047355Y-113162962D01*
X161407592Y-113370539D01*
X161584833Y-113462140D01*
X161831186Y-113580511D01*
X162035428Y-113669919D01*
X162187420Y-113726254D01*
X162277026Y-113745406D01*
X162282716Y-113745057D01*
X162321547Y-113733825D01*
X162359888Y-113702953D01*
X162403161Y-113642423D01*
X162456791Y-113542220D01*
X162526199Y-113392327D01*
X162616810Y-113182727D01*
X162719376Y-112938582D01*
X162822116Y-112688311D01*
X162914174Y-112456362D01*
X162990098Y-112257090D01*
X163044440Y-112104855D01*
X163071747Y-112014011D01*
X163073149Y-112006725D01*
X163075240Y-111909073D01*
X163041429Y-111806201D01*
X162962204Y-111671357D01*
X162944345Y-111644533D01*
X162762464Y-111304265D01*
X162635995Y-110905248D01*
X162564161Y-110444677D01*
X162549556Y-110219167D01*
X162559010Y-109712504D01*
X162631294Y-109260884D01*
X162767952Y-108860939D01*
X162970525Y-108509298D01*
X163240556Y-108202592D01*
X163579585Y-107937453D01*
X163599737Y-107924349D01*
X163721293Y-107839850D01*
X163806014Y-107769012D01*
X163836605Y-107726406D01*
X163836323Y-107725007D01*
X163790058Y-107687316D01*
X163680381Y-107632182D01*
X163525047Y-107566253D01*
X163341811Y-107496180D01*
X163148428Y-107428612D01*
X162962652Y-107370197D01*
X162802239Y-107327585D01*
X162741864Y-107315123D01*
X162512924Y-107287101D01*
X162315719Y-107295506D01*
X162232882Y-107309536D01*
X161793425Y-107436284D01*
X161362324Y-107638682D01*
X160938231Y-107918017D01*
X160519797Y-108275575D01*
X160105675Y-108712643D01*
X159694518Y-109230508D01*
X159284977Y-109830456D01*
X158875705Y-110513773D01*
X158874738Y-110515486D01*
X158548875Y-111092787D01*
X152453308Y-111092787D01*
X152437643Y-110926991D01*
X152431725Y-110085208D01*
X152499234Y-109253885D01*
X152639742Y-108440954D01*
X152852820Y-107654348D01*
X153138041Y-106902000D01*
X153268129Y-106620834D01*
X153660796Y-105909327D01*
X154135573Y-105216471D01*
X154691834Y-104542933D01*
X155328954Y-103889378D01*
X156046307Y-103256472D01*
X156843268Y-102644884D01*
X157288000Y-102336135D01*
X157732500Y-102037655D01*
X157890384Y-101577578D01*
X157896944Y-101557614D01*
X172002934Y-101557614D01*
X172005770Y-101901092D01*
X172013048Y-102224604D01*
X172024774Y-102510730D01*
X172040960Y-102742051D01*
X172053645Y-102853167D01*
X172141381Y-103318180D01*
X172273641Y-103822204D01*
X172441771Y-104338368D01*
X172637115Y-104839801D01*
X172824914Y-105248046D01*
X172941348Y-105476970D01*
X173052522Y-105688488D01*
X173151873Y-105870806D01*
X173232837Y-106012129D01*
X173288851Y-106100664D01*
X173312976Y-106125135D01*
X173320812Y-106080516D01*
X173333428Y-105966721D01*
X173349325Y-105799009D01*
X173367003Y-105592637D01*
X173374564Y-105498530D01*
X173410169Y-105098261D01*
X173451971Y-104749766D01*
X173504700Y-104434313D01*
X173549997Y-104234849D01*
X174083319Y-104234849D01*
X174259818Y-104648200D01*
X174598089Y-105336545D01*
X175015202Y-106005165D01*
X175506458Y-106648095D01*
X176067158Y-107259368D01*
X176692602Y-107833019D01*
X176906734Y-108008532D01*
X177110396Y-108169157D01*
X177257325Y-108280208D01*
X177355404Y-108346821D01*
X177412516Y-108374131D01*
X177436543Y-108367275D01*
X177438667Y-108355093D01*
X177421230Y-108307552D01*
X177376510Y-108210012D01*
X177338731Y-108132843D01*
X177276265Y-107993206D01*
X177203824Y-107809339D01*
X177135830Y-107618090D01*
X177128035Y-107594500D01*
X176944055Y-106903812D01*
X176844170Y-106211927D01*
X176828212Y-105515267D01*
X176839310Y-105399859D01*
X177498288Y-105399859D01*
X177502900Y-105651002D01*
X177516067Y-105954329D01*
X177520172Y-106028167D01*
X177553872Y-106471919D01*
X177600273Y-106841045D01*
X177661140Y-107144875D01*
X177738239Y-107392742D01*
X177807358Y-107546732D01*
X177876566Y-107679167D01*
X177915307Y-107532012D01*
X177928316Y-107436714D01*
X177937269Y-107276799D01*
X177941543Y-107072250D01*
X177940517Y-106843046D01*
X177939024Y-106770012D01*
X177932256Y-106527427D01*
X177923984Y-106353145D01*
X177911573Y-106230813D01*
X177892384Y-106144073D01*
X177863780Y-106076572D01*
X177823125Y-106011954D01*
X177814898Y-106000183D01*
X177752473Y-105892467D01*
X177712587Y-105767321D01*
X177687516Y-105596713D01*
X177679994Y-105510596D01*
X177661133Y-105332607D01*
X177635219Y-105172278D01*
X177607456Y-105061013D01*
X177603964Y-105051746D01*
X177553737Y-104927500D01*
X177514971Y-105096834D01*
X177502293Y-105211577D01*
X177498288Y-105399859D01*
X176839310Y-105399859D01*
X176896012Y-104810255D01*
X176976772Y-104381992D01*
X177021665Y-104146951D01*
X177031184Y-103969638D01*
X176998548Y-103828087D01*
X176916978Y-103700335D01*
X176779693Y-103564415D01*
X176704593Y-103500280D01*
X176547188Y-103377158D01*
X176351450Y-103236511D01*
X176130000Y-103086122D01*
X175895457Y-102933774D01*
X175660444Y-102787252D01*
X175437581Y-102654338D01*
X175239489Y-102542816D01*
X175078790Y-102460468D01*
X174968103Y-102415079D01*
X174934503Y-102408667D01*
X174890540Y-102446293D01*
X174821315Y-102551831D01*
X174732224Y-102714269D01*
X174628660Y-102922598D01*
X174516018Y-103165807D01*
X174399690Y-103432884D01*
X174285072Y-103712820D01*
X174243512Y-103819175D01*
X174083319Y-104234849D01*
X173549997Y-104234849D01*
X173573087Y-104133173D01*
X173661860Y-103827615D01*
X173775750Y-103498910D01*
X173919486Y-103128327D01*
X174058127Y-102791547D01*
X174351405Y-102091167D01*
X174229763Y-101985334D01*
X174134132Y-101907866D01*
X173997399Y-101803985D01*
X173848143Y-101695373D01*
X173839160Y-101689000D01*
X173476527Y-101400780D01*
X173125200Y-101062779D01*
X172802683Y-100694829D01*
X172526480Y-100316766D01*
X172328402Y-99977213D01*
X172251887Y-99833531D01*
X172195324Y-99755799D01*
X172152821Y-99747750D01*
X172118488Y-99813116D01*
X172086434Y-99955629D01*
X172055043Y-100150428D01*
X172035812Y-100332438D01*
X172020977Y-100581582D01*
X172010546Y-100880439D01*
X172004529Y-101211590D01*
X172002934Y-101557614D01*
X157896944Y-101557614D01*
X157993819Y-101262830D01*
X158084541Y-100954860D01*
X158163447Y-100645652D01*
X158231434Y-100327192D01*
X158289402Y-99991467D01*
X158338247Y-99630462D01*
X158378867Y-99236163D01*
X158412161Y-98800557D01*
X158437770Y-98338295D01*
X172225792Y-98338295D01*
X172320541Y-98690731D01*
X172509312Y-99266881D01*
X172753036Y-99803367D01*
X173045774Y-100290063D01*
X173381591Y-100716840D01*
X173681188Y-101011727D01*
X173848676Y-101151235D01*
X174032293Y-101291187D01*
X174241890Y-101438012D01*
X174487321Y-101598139D01*
X174778437Y-101777997D01*
X175125090Y-101984017D01*
X175533667Y-102220639D01*
X176007292Y-102496559D01*
X176411052Y-102741451D01*
X176751691Y-102960337D01*
X177035953Y-103158236D01*
X177270583Y-103340170D01*
X177462325Y-103511160D01*
X177617922Y-103676225D01*
X177744119Y-103840387D01*
X177778083Y-103891502D01*
X177874749Y-104030160D01*
X177939071Y-104091148D01*
X177973817Y-104073841D01*
X177981759Y-103977609D01*
X177971172Y-103847758D01*
X177949510Y-103703651D01*
X177912462Y-103525446D01*
X177857965Y-103305701D01*
X177783957Y-103036974D01*
X177688376Y-102711821D01*
X177569160Y-102322801D01*
X177424247Y-101862471D01*
X177399970Y-101786194D01*
X177264939Y-101360779D01*
X177152403Y-101001424D01*
X177058341Y-100693781D01*
X176978732Y-100423502D01*
X176909555Y-100176240D01*
X176846791Y-99937647D01*
X176786418Y-99693374D01*
X176724416Y-99429075D01*
X176660848Y-99148632D01*
X176586078Y-98809651D01*
X176523184Y-98507979D01*
X176471111Y-98231879D01*
X176428804Y-97969615D01*
X176395207Y-97709449D01*
X176381343Y-97565267D01*
X176803667Y-97565267D01*
X176817144Y-97716168D01*
X176858020Y-97931459D01*
X176926958Y-98213532D01*
X177024622Y-98564783D01*
X177151678Y-98987608D01*
X177308790Y-99484400D01*
X177487303Y-100029496D01*
X177612134Y-100400612D01*
X177720940Y-100713871D01*
X177811994Y-100964657D01*
X177883568Y-101148357D01*
X177933934Y-101260356D01*
X177961363Y-101296039D01*
X177961553Y-101295982D01*
X177999035Y-101251864D01*
X178057039Y-101148199D01*
X178125176Y-101004264D01*
X178150879Y-100944654D01*
X178420575Y-100244474D01*
X178663703Y-99497216D01*
X178874712Y-98725235D01*
X179048052Y-97950886D01*
X179178169Y-97196523D01*
X179259514Y-96484501D01*
X179260014Y-96478276D01*
X179275779Y-96232035D01*
X179287001Y-95954134D01*
X179293845Y-95657247D01*
X179296474Y-95354046D01*
X179295054Y-95057204D01*
X179289747Y-94779394D01*
X179280720Y-94533288D01*
X179268135Y-94331559D01*
X179252158Y-94186880D01*
X179232952Y-94111923D01*
X179229273Y-94106920D01*
X179167250Y-94076946D01*
X179043237Y-94038809D01*
X178878692Y-93998675D01*
X178784773Y-93979169D01*
X178574029Y-93938672D01*
X178432546Y-93914267D01*
X178346649Y-93905004D01*
X178302664Y-93909937D01*
X178286916Y-93928116D01*
X178285333Y-93944543D01*
X178268249Y-93993464D01*
X178220065Y-94108735D01*
X178145382Y-94279937D01*
X178048803Y-94496650D01*
X177934930Y-94748454D01*
X177808365Y-95024928D01*
X177803899Y-95034627D01*
X177581444Y-95519525D01*
X177393157Y-95934754D01*
X177236430Y-96286909D01*
X177108658Y-96582584D01*
X177007233Y-96828374D01*
X176929549Y-97030873D01*
X176873000Y-97196677D01*
X176834979Y-97332379D01*
X176812880Y-97444575D01*
X176804095Y-97539859D01*
X176803667Y-97565267D01*
X176381343Y-97565267D01*
X176369263Y-97439646D01*
X176349917Y-97148468D01*
X176336113Y-96824180D01*
X176326795Y-96455044D01*
X176320907Y-96029324D01*
X176317394Y-95535283D01*
X176316554Y-95347104D01*
X176683128Y-95347104D01*
X176683387Y-95609392D01*
X176687377Y-95838250D01*
X176695451Y-96020556D01*
X176705470Y-96126842D01*
X176734273Y-96333834D01*
X176871713Y-96035880D01*
X176926870Y-95905058D01*
X177001948Y-95710878D01*
X177090653Y-95470490D01*
X177186687Y-95201041D01*
X177283753Y-94919680D01*
X177308577Y-94846112D01*
X177396163Y-94580473D01*
X177473641Y-94336362D01*
X177537040Y-94127044D01*
X177582390Y-93965786D01*
X177605721Y-93865854D01*
X177608000Y-93845680D01*
X177605383Y-93795438D01*
X177588426Y-93759086D01*
X177543472Y-93731386D01*
X177456864Y-93707101D01*
X177314944Y-93680993D01*
X177104055Y-93647825D01*
X177084033Y-93644746D01*
X176936683Y-93625154D01*
X176825484Y-93616102D01*
X176773555Y-93619435D01*
X176772975Y-93619914D01*
X176756105Y-93677264D01*
X176740140Y-93806156D01*
X176725433Y-93993470D01*
X176712337Y-94226084D01*
X176701205Y-94490876D01*
X176692390Y-94774725D01*
X176686247Y-95064508D01*
X176683128Y-95347104D01*
X176316554Y-95347104D01*
X176316434Y-95320245D01*
X176309044Y-93459990D01*
X175701366Y-93256879D01*
X175452013Y-93175715D01*
X175272321Y-93122813D01*
X175152950Y-93095979D01*
X175084562Y-93093019D01*
X175060326Y-93106301D01*
X175045050Y-93170588D01*
X175033285Y-93296344D01*
X175026920Y-93460386D01*
X175026315Y-93523705D01*
X174984140Y-94104755D01*
X174859361Y-94682565D01*
X174651492Y-95258440D01*
X174360046Y-95833680D01*
X173984535Y-96409589D01*
X173909044Y-96512004D01*
X173771726Y-96685020D01*
X173589531Y-96899820D01*
X173378006Y-97138883D01*
X173152697Y-97384686D01*
X172929154Y-97619707D01*
X172896131Y-97653564D01*
X172225792Y-98338295D01*
X158437770Y-98338295D01*
X158439026Y-98315628D01*
X158443412Y-98204119D01*
X171554333Y-98204119D01*
X171573639Y-98229941D01*
X171634204Y-98206030D01*
X171740002Y-98129455D01*
X171895006Y-97997286D01*
X172103189Y-97806590D01*
X172139971Y-97772077D01*
X172412637Y-97502144D01*
X172704511Y-97190082D01*
X172994233Y-96860178D01*
X173260446Y-96536719D01*
X173473115Y-96256134D01*
X173634387Y-96010767D01*
X173801399Y-95721345D01*
X173963002Y-95410423D01*
X174108045Y-95100559D01*
X174225380Y-94814308D01*
X174303121Y-94577000D01*
X174361971Y-94318704D01*
X174410086Y-94034764D01*
X174446116Y-93742775D01*
X174468711Y-93460335D01*
X174476521Y-93205037D01*
X174468196Y-92994480D01*
X174442386Y-92846257D01*
X174437075Y-92830884D01*
X174381234Y-92754974D01*
X174274946Y-92657578D01*
X174142610Y-92556788D01*
X174008626Y-92470696D01*
X173897394Y-92417395D01*
X173869478Y-92410023D01*
X173845422Y-92408835D01*
X173821369Y-92418712D01*
X173793931Y-92446818D01*
X173759721Y-92500319D01*
X173715349Y-92586379D01*
X173657429Y-92712164D01*
X173582571Y-92884839D01*
X173487388Y-93111568D01*
X173368491Y-93399516D01*
X173222493Y-93755849D01*
X173155052Y-93920834D01*
X172868859Y-94625037D01*
X172608266Y-95274159D01*
X172374189Y-95865751D01*
X172167542Y-96397367D01*
X171989238Y-96866561D01*
X171840193Y-97270885D01*
X171721321Y-97607895D01*
X171633536Y-97875142D01*
X171577752Y-98070180D01*
X171554883Y-98190564D01*
X171554333Y-98204119D01*
X158443412Y-98204119D01*
X158460359Y-97773363D01*
X158477059Y-97165748D01*
X158490023Y-96484768D01*
X158494424Y-96185667D01*
X158498350Y-95800247D01*
X158500047Y-95394447D01*
X158499679Y-94977039D01*
X158497408Y-94556798D01*
X158493397Y-94142497D01*
X158487808Y-93742910D01*
X158480804Y-93366810D01*
X158472549Y-93022972D01*
X158463205Y-92720169D01*
X158452934Y-92467174D01*
X158441900Y-92272762D01*
X158430266Y-92145706D01*
X158418524Y-92095080D01*
X158365385Y-92091880D01*
X158238244Y-92108147D01*
X158045096Y-92142271D01*
X157793939Y-92192640D01*
X157492771Y-92257644D01*
X157149590Y-92335670D01*
X156772391Y-92425110D01*
X156733567Y-92434508D01*
X156076350Y-92591411D01*
X155487469Y-92725814D01*
X154954113Y-92839382D01*
X154463473Y-92933780D01*
X154002740Y-93010674D01*
X153559103Y-93071727D01*
X153119754Y-93118606D01*
X152671881Y-93152974D01*
X152202677Y-93176497D01*
X151699330Y-93190840D01*
X151149032Y-93197667D01*
X150853333Y-93198781D01*
X149265833Y-93201167D01*
X148614620Y-93060890D01*
X148153476Y-92954435D01*
X147753922Y-92845277D01*
X147393019Y-92725885D01*
X147047830Y-92588727D01*
X146723641Y-92440001D01*
X146182406Y-92138932D01*
X145696568Y-91785328D01*
X145262718Y-91375057D01*
X144877444Y-90903991D01*
X144537335Y-90367997D01*
X144365945Y-90020423D01*
X169694980Y-90020423D01*
X169730518Y-90484592D01*
X169813136Y-90892983D01*
X169853338Y-91021000D01*
X169945035Y-91269892D01*
X170051924Y-91536693D01*
X170168567Y-91810107D01*
X170289527Y-92078835D01*
X170409368Y-92331580D01*
X170522650Y-92557046D01*
X170623938Y-92743934D01*
X170707794Y-92880947D01*
X170768781Y-92956788D01*
X170790575Y-92968334D01*
X170822930Y-92932704D01*
X170876866Y-92839162D01*
X170940875Y-92707729D01*
X170942676Y-92703750D01*
X170992010Y-92590552D01*
X171067065Y-92413137D01*
X171161894Y-92185811D01*
X171267625Y-91929963D01*
X173966220Y-91929963D01*
X174062027Y-92006213D01*
X174130460Y-92049711D01*
X174260408Y-92122731D01*
X174437384Y-92217490D01*
X174646897Y-92326202D01*
X174831157Y-92419467D01*
X175185781Y-92590021D01*
X175526413Y-92737801D01*
X175869440Y-92868173D01*
X176231252Y-92986501D01*
X176628236Y-93098150D01*
X177076783Y-93208484D01*
X177586833Y-93321496D01*
X177688878Y-93335632D01*
X177815774Y-93344403D01*
X177816353Y-93344423D01*
X177871475Y-93343627D01*
X177893381Y-93331364D01*
X177874918Y-93299874D01*
X177808931Y-93241397D01*
X177699426Y-93156794D01*
X178624000Y-93156794D01*
X178647266Y-93223414D01*
X178724767Y-93298653D01*
X178868058Y-93393392D01*
X178887620Y-93405049D01*
X179039017Y-93492793D01*
X179134427Y-93541340D01*
X179189655Y-93556378D01*
X179220503Y-93543598D01*
X179231535Y-93528858D01*
X179233126Y-93475587D01*
X179221527Y-93358010D01*
X179199711Y-93194928D01*
X179170652Y-93005145D01*
X179137324Y-92807463D01*
X179102700Y-92620685D01*
X179069755Y-92463613D01*
X179051108Y-92388038D01*
X179012536Y-92272987D01*
X178973444Y-92196613D01*
X178961516Y-92184456D01*
X178922480Y-92169214D01*
X178920147Y-92172085D01*
X178907405Y-92214999D01*
X178873018Y-92321245D01*
X178822504Y-92473961D01*
X178771980Y-92624828D01*
X178711230Y-92813506D01*
X178662567Y-92980224D01*
X178631813Y-93104049D01*
X178624000Y-93156794D01*
X177699426Y-93156794D01*
X177688266Y-93148172D01*
X177520019Y-93022977D01*
X177345238Y-92885249D01*
X177130835Y-92703225D01*
X176895756Y-92493746D01*
X176658944Y-92273659D01*
X176460622Y-92081060D01*
X176398486Y-92018356D01*
X176920241Y-92018356D01*
X177270808Y-92292262D01*
X177494713Y-92463145D01*
X177685096Y-92600334D01*
X177833080Y-92697819D01*
X177929789Y-92749588D01*
X177956163Y-92756450D01*
X177994687Y-92722928D01*
X178044818Y-92641842D01*
X178045625Y-92640250D01*
X178097227Y-92518970D01*
X178164659Y-92332173D01*
X178242662Y-92096341D01*
X178325980Y-91827956D01*
X178409355Y-91543501D01*
X178487529Y-91259456D01*
X178494606Y-91232667D01*
X178690043Y-90418335D01*
X178842715Y-89627033D01*
X178952550Y-88864462D01*
X179019473Y-88136322D01*
X179043412Y-87448316D01*
X179024293Y-86806145D01*
X178962044Y-86215510D01*
X178856591Y-85682112D01*
X178707860Y-85211653D01*
X178575688Y-84918457D01*
X178490931Y-84767771D01*
X178396179Y-84618299D01*
X178301576Y-84483488D01*
X178217266Y-84376784D01*
X178153392Y-84311635D01*
X178120098Y-84301488D01*
X178117590Y-84311167D01*
X178113243Y-84365689D01*
X178102451Y-84489513D01*
X178086550Y-84667631D01*
X178066877Y-84885039D01*
X178051628Y-85052000D01*
X178017768Y-85402329D01*
X177981200Y-85738691D01*
X177940271Y-86071022D01*
X177893326Y-86409257D01*
X177838713Y-86763329D01*
X177774778Y-87143174D01*
X177699867Y-87558727D01*
X177612327Y-88019921D01*
X177510505Y-88536691D01*
X177392746Y-89118973D01*
X177297719Y-89581667D01*
X177177311Y-90188559D01*
X177081513Y-90724519D01*
X177008757Y-91199136D01*
X176957474Y-91621997D01*
X176947823Y-91720762D01*
X176920241Y-92018356D01*
X176398486Y-92018356D01*
X176226547Y-91844848D01*
X176039671Y-91647221D01*
X175884647Y-91469700D01*
X175746127Y-91293807D01*
X175608761Y-91101062D01*
X175457204Y-90872987D01*
X175457104Y-90872834D01*
X175275819Y-90594348D01*
X175134816Y-90378974D01*
X175028466Y-90218687D01*
X174951135Y-90105461D01*
X174897194Y-90031272D01*
X174861009Y-89988095D01*
X174836950Y-89967906D01*
X174819385Y-89962680D01*
X174818371Y-89962667D01*
X174799778Y-89977273D01*
X174769829Y-90025356D01*
X174725698Y-90113314D01*
X174664556Y-90247546D01*
X174583577Y-90434450D01*
X174479934Y-90680423D01*
X174350798Y-90991864D01*
X174193343Y-91375171D01*
X174182605Y-91401398D01*
X173966220Y-91929963D01*
X171267625Y-91929963D01*
X171270553Y-91922880D01*
X171387095Y-91638650D01*
X171472551Y-91428841D01*
X171882853Y-90418515D01*
X171735400Y-90158841D01*
X171566284Y-89850468D01*
X171393292Y-89515851D01*
X171220990Y-89165544D01*
X171053941Y-88810103D01*
X170896710Y-88460082D01*
X170753862Y-88126035D01*
X170629962Y-87818518D01*
X170529573Y-87548084D01*
X170457261Y-87325290D01*
X170417591Y-87160688D01*
X170411333Y-87097226D01*
X170398950Y-87017254D01*
X170364814Y-87009619D01*
X170313448Y-87066169D01*
X170249371Y-87178754D01*
X170177104Y-87339223D01*
X170101170Y-87539425D01*
X170026088Y-87771210D01*
X170013206Y-87814988D01*
X169865636Y-88397758D01*
X169763060Y-88966554D01*
X169706001Y-89510926D01*
X169694980Y-90020423D01*
X144365945Y-90020423D01*
X144238982Y-89762947D01*
X143997256Y-89138311D01*
X143879618Y-88771762D01*
X143793962Y-88438858D01*
X143736161Y-88113454D01*
X143702088Y-87769402D01*
X143687618Y-87380555D01*
X143686427Y-87168667D01*
X143693185Y-86784759D01*
X143714463Y-86461289D01*
X143754416Y-86174665D01*
X143817198Y-85901294D01*
X143906967Y-85617586D01*
X144005887Y-85354983D01*
X144256373Y-84795565D01*
X144552959Y-84271710D01*
X144905606Y-83768726D01*
X145324276Y-83271924D01*
X145532409Y-83054550D01*
X170455013Y-83054550D01*
X170458147Y-83261163D01*
X170467942Y-83534650D01*
X170483277Y-83857578D01*
X170503027Y-84212512D01*
X170526069Y-84582018D01*
X170551281Y-84948663D01*
X170577540Y-85295013D01*
X170603722Y-85603633D01*
X170628704Y-85857091D01*
X170643680Y-85983334D01*
X170718949Y-86408314D01*
X170839864Y-86892677D01*
X171003581Y-87426402D01*
X171207251Y-87999469D01*
X171243141Y-88093584D01*
X171335387Y-88326009D01*
X171439938Y-88577386D01*
X171551358Y-88835909D01*
X171664213Y-89089770D01*
X171773069Y-89327165D01*
X171872493Y-89536286D01*
X171957050Y-89705329D01*
X172021305Y-89822487D01*
X172059826Y-89875953D01*
X172064476Y-89878000D01*
X172092021Y-89841276D01*
X172144021Y-89741156D01*
X172213147Y-89592718D01*
X172292070Y-89411040D01*
X172295975Y-89401750D01*
X172352802Y-89265382D01*
X175110333Y-89265382D01*
X175133900Y-89375318D01*
X175199969Y-89541856D01*
X175301587Y-89752870D01*
X175431805Y-89996237D01*
X175583672Y-90259833D01*
X175750237Y-90531536D01*
X175924550Y-90799221D01*
X176099661Y-91050764D01*
X176244269Y-91243250D01*
X176356475Y-91381656D01*
X176430824Y-91457961D01*
X176478177Y-91479310D01*
X176509396Y-91452845D01*
X176521667Y-91425707D01*
X176536219Y-91365860D01*
X176562250Y-91237152D01*
X176596982Y-91054182D01*
X176637638Y-90831547D01*
X176676742Y-90610791D01*
X176720874Y-90367123D01*
X176778951Y-90060029D01*
X176847169Y-89708868D01*
X176921724Y-89333001D01*
X176998813Y-88951787D01*
X177074630Y-88584585D01*
X177078586Y-88565667D01*
X177176381Y-88096143D01*
X177257807Y-87697299D01*
X177324362Y-87357056D01*
X177377547Y-87063335D01*
X177418860Y-86804056D01*
X177449800Y-86567139D01*
X177471866Y-86340507D01*
X177486559Y-86112078D01*
X177495376Y-85869775D01*
X177499818Y-85601517D01*
X177501383Y-85295225D01*
X177501540Y-85157834D01*
X177499828Y-84716229D01*
X177493978Y-84355106D01*
X177483717Y-84070366D01*
X177468770Y-83857914D01*
X177448863Y-83713651D01*
X177423720Y-83633480D01*
X177398043Y-83612667D01*
X177368748Y-83649370D01*
X177315553Y-83749180D01*
X177246138Y-83896649D01*
X177171775Y-84067750D01*
X177074019Y-84303054D01*
X176965357Y-84568298D01*
X176850544Y-84851497D01*
X176734334Y-85140668D01*
X176621484Y-85423825D01*
X176516747Y-85688984D01*
X176424880Y-85924159D01*
X176350638Y-86117367D01*
X176298774Y-86256622D01*
X176274045Y-86329939D01*
X176273716Y-86331217D01*
X176270048Y-86387612D01*
X176296443Y-86446636D01*
X176363962Y-86522484D01*
X176483668Y-86629352D01*
X176548553Y-86683891D01*
X176748409Y-86858978D01*
X176880542Y-86996158D01*
X176949696Y-87101311D01*
X176960614Y-87180314D01*
X176957390Y-87190618D01*
X176892460Y-87248190D01*
X176747937Y-87297421D01*
X176528588Y-87337135D01*
X176245941Y-87365670D01*
X176075207Y-87380635D01*
X175936137Y-87397389D01*
X175850922Y-87413082D01*
X175837240Y-87418196D01*
X175806677Y-87466144D01*
X175752591Y-87579724D01*
X175680457Y-87745023D01*
X175595750Y-87948127D01*
X175503946Y-88175124D01*
X175410519Y-88412100D01*
X175320946Y-88645142D01*
X175240700Y-88860335D01*
X175175258Y-89043767D01*
X175130095Y-89181525D01*
X175110685Y-89259695D01*
X175110333Y-89265382D01*
X172352802Y-89265382D01*
X172426025Y-89089672D01*
X172561782Y-88759831D01*
X172699467Y-88421782D01*
X172835302Y-88085079D01*
X172965508Y-87759274D01*
X173086308Y-87453923D01*
X173193922Y-87178578D01*
X173284572Y-86942793D01*
X173354481Y-86756123D01*
X173399868Y-86628120D01*
X173416956Y-86568338D01*
X173417000Y-86567271D01*
X173384910Y-86505710D01*
X173301153Y-86417249D01*
X173194750Y-86329481D01*
X173049820Y-86209861D01*
X172864474Y-86038353D01*
X172651797Y-85828693D01*
X172424873Y-85594614D01*
X172196787Y-85349850D01*
X171980623Y-85108137D01*
X171789465Y-84883208D01*
X171653669Y-84711845D01*
X171341497Y-84259152D01*
X171036517Y-83739265D01*
X170748947Y-83169603D01*
X170748275Y-83168167D01*
X170668409Y-83003874D01*
X170593570Y-82861089D01*
X170536404Y-82763594D01*
X170523119Y-82744834D01*
X170492042Y-82711404D01*
X170472358Y-82714740D01*
X170461398Y-82766979D01*
X170456493Y-82880261D01*
X170455013Y-83054550D01*
X145532409Y-83054550D01*
X145646558Y-82935334D01*
X145999510Y-82597883D01*
X146377499Y-82267224D01*
X146789410Y-81936769D01*
X147244129Y-81599930D01*
X147750541Y-81250120D01*
X148317533Y-80880749D01*
X148938464Y-80494694D01*
X149421780Y-80194853D01*
X149840738Y-79922995D01*
X150207204Y-79670246D01*
X150533042Y-79427731D01*
X150830119Y-79186576D01*
X151065997Y-78977227D01*
X153765540Y-78977227D01*
X153778998Y-79004791D01*
X153852766Y-79021799D01*
X153992638Y-79026210D01*
X154181174Y-79019183D01*
X154400935Y-79001877D01*
X154634482Y-78975448D01*
X154864377Y-78941057D01*
X154938500Y-78927776D01*
X155457397Y-78789996D01*
X155756546Y-78665611D01*
X169298110Y-78665611D01*
X169575824Y-79202389D01*
X169693822Y-79439069D01*
X169829002Y-79724008D01*
X169967305Y-80026778D01*
X170094668Y-80316947D01*
X170136823Y-80416500D01*
X170256667Y-80702848D01*
X170390612Y-81022566D01*
X170524597Y-81342108D01*
X170644561Y-81627931D01*
X170678058Y-81707667D01*
X170812347Y-82017152D01*
X170966177Y-82354794D01*
X171132306Y-82706069D01*
X171303491Y-83056456D01*
X171472490Y-83391434D01*
X171632059Y-83696481D01*
X171774956Y-83957076D01*
X171893938Y-84158696D01*
X171923770Y-84205334D01*
X172055154Y-84396217D01*
X172206786Y-84602805D01*
X172347864Y-84783250D01*
X172360003Y-84798000D01*
X172470367Y-84926156D01*
X172611535Y-85082472D01*
X172773051Y-85256204D01*
X172944458Y-85436605D01*
X173115302Y-85612929D01*
X173275125Y-85774431D01*
X173413473Y-85910365D01*
X173519890Y-86009984D01*
X173583920Y-86062543D01*
X173595714Y-86068000D01*
X173629645Y-86032157D01*
X173686086Y-85937007D01*
X173754323Y-85801117D01*
X173772821Y-85761084D01*
X173843295Y-85601990D01*
X173934261Y-85391084D01*
X174034346Y-85154994D01*
X174132176Y-84920350D01*
X174138989Y-84903834D01*
X174365820Y-84353500D01*
X174367660Y-82067500D01*
X174367818Y-81526972D01*
X174366882Y-81062646D01*
X174364142Y-80666059D01*
X174358886Y-80328746D01*
X174350406Y-80042246D01*
X174337989Y-79798093D01*
X174320926Y-79587824D01*
X174298506Y-79402976D01*
X174270018Y-79235085D01*
X174269108Y-79230969D01*
X174739111Y-79230969D01*
X174747017Y-79341119D01*
X174766053Y-79488561D01*
X174767896Y-79500574D01*
X174779533Y-79619958D01*
X174789927Y-79815068D01*
X174798864Y-80076970D01*
X174806126Y-80396729D01*
X174811500Y-80765412D01*
X174814770Y-81174083D01*
X174815695Y-81482943D01*
X174816435Y-81907461D01*
X174817892Y-82254105D01*
X174820322Y-82529666D01*
X174823986Y-82740936D01*
X174829140Y-82894705D01*
X174836043Y-82997765D01*
X174844954Y-83056908D01*
X174856131Y-83078924D01*
X174869831Y-83070605D01*
X174875707Y-83060986D01*
X174909661Y-82988348D01*
X174968595Y-82851588D01*
X175046396Y-82665334D01*
X175136950Y-82444215D01*
X175229565Y-82214320D01*
X175348048Y-81919224D01*
X175479830Y-81593256D01*
X175612307Y-81267452D01*
X175732876Y-80972851D01*
X175787699Y-80839834D01*
X176050293Y-80204834D01*
X175736350Y-79908500D01*
X175590688Y-79777805D01*
X175424822Y-79639774D01*
X175251987Y-79504106D01*
X175085417Y-79380503D01*
X174938346Y-79278665D01*
X174824008Y-79208291D01*
X174755637Y-79179083D01*
X174744056Y-79181166D01*
X174739111Y-79230969D01*
X174269108Y-79230969D01*
X174234752Y-79075688D01*
X174191998Y-78916320D01*
X174141044Y-78748519D01*
X174081181Y-78563821D01*
X174070904Y-78532667D01*
X173967451Y-78251094D01*
X173834199Y-77935792D01*
X173681153Y-77606837D01*
X173518321Y-77284309D01*
X173355707Y-76988286D01*
X173203318Y-76738846D01*
X173111082Y-76606666D01*
X172834507Y-76269985D01*
X172517142Y-75934720D01*
X172175735Y-75615703D01*
X171827039Y-75327762D01*
X171487804Y-75085728D01*
X171339081Y-74998359D01*
X172407530Y-74998359D01*
X172425464Y-75035752D01*
X172489214Y-75119982D01*
X172586934Y-75235886D01*
X172638365Y-75293817D01*
X173028803Y-75747903D01*
X173361990Y-76184551D01*
X173654146Y-76628394D01*
X173921493Y-77104067D01*
X174179165Y-77633828D01*
X174308293Y-77906789D01*
X174421433Y-78117891D01*
X174532099Y-78284638D01*
X174653805Y-78424531D01*
X174800066Y-78555071D01*
X174984396Y-78693761D01*
X175013703Y-78714608D01*
X175185246Y-78841570D01*
X175390783Y-79001989D01*
X175601246Y-79172828D01*
X175745333Y-79294367D01*
X175923798Y-79444292D01*
X176048053Y-79539033D01*
X176124296Y-79582727D01*
X176158724Y-79579513D01*
X176161455Y-79572209D01*
X176160983Y-79503785D01*
X176148801Y-79372402D01*
X176127113Y-79198614D01*
X176105479Y-79049857D01*
X175975377Y-78369580D01*
X175804559Y-77759562D01*
X175590625Y-77214564D01*
X175331178Y-76729345D01*
X175023820Y-76298667D01*
X174676001Y-75926522D01*
X174468569Y-75745112D01*
X174260082Y-75595165D01*
X174034014Y-75468636D01*
X173773840Y-75357479D01*
X173463034Y-75253649D01*
X173085070Y-75149102D01*
X173072345Y-75145825D01*
X172851034Y-75090347D01*
X172659973Y-75045125D01*
X172513481Y-75013336D01*
X172425881Y-74998157D01*
X172407530Y-74998359D01*
X171339081Y-74998359D01*
X171206476Y-74920459D01*
X171078405Y-74858183D01*
X171002477Y-74834742D01*
X170957784Y-74846167D01*
X170936450Y-74869213D01*
X170908820Y-74931050D01*
X170864108Y-75058392D01*
X170807593Y-75235079D01*
X170744551Y-75444956D01*
X170715821Y-75544652D01*
X170482655Y-76293369D01*
X170230007Y-76966099D01*
X169954875Y-77569900D01*
X169654260Y-78111831D01*
X169563403Y-78256086D01*
X169298110Y-78665611D01*
X155756546Y-78665611D01*
X155970418Y-78576684D01*
X156462689Y-78296492D01*
X156919335Y-77958077D01*
X157325484Y-77570091D01*
X157384010Y-77504878D01*
X157618364Y-77224693D01*
X157861064Y-76911405D01*
X158091541Y-76592796D01*
X158289228Y-76296649D01*
X158344332Y-76207645D01*
X158528327Y-75903123D01*
X158474946Y-75619812D01*
X158450314Y-75423120D01*
X158437083Y-75167986D01*
X158436486Y-74913167D01*
X158907508Y-74913167D01*
X158912498Y-75335743D01*
X158966491Y-75707385D01*
X159075508Y-76050106D01*
X159245567Y-76385916D01*
X159358711Y-76563039D01*
X159473609Y-76708009D01*
X159637762Y-76883785D01*
X159831643Y-77071804D01*
X160035723Y-77253504D01*
X160230476Y-77410322D01*
X160312316Y-77469519D01*
X160420412Y-77540038D01*
X160569244Y-77631707D01*
X160742784Y-77735290D01*
X160925006Y-77841547D01*
X161099882Y-77941241D01*
X161251387Y-78025135D01*
X161363492Y-78083992D01*
X161420171Y-78108573D01*
X161421352Y-78108745D01*
X161423573Y-78069473D01*
X161425175Y-77962405D01*
X161425995Y-77804410D01*
X161425931Y-77633084D01*
X161446228Y-77227155D01*
X161513591Y-76876201D01*
X161634229Y-76571087D01*
X161814351Y-76302681D01*
X162060167Y-76061849D01*
X162377885Y-75839457D01*
X162773715Y-75626372D01*
X162798138Y-75614615D01*
X163028131Y-75497862D01*
X163186420Y-75401189D01*
X163281919Y-75318814D01*
X163306875Y-75284716D01*
X163367417Y-75194283D01*
X163463287Y-75063949D01*
X163575778Y-74918995D01*
X163598509Y-74890618D01*
X163850429Y-74521063D01*
X164022836Y-74139370D01*
X164114908Y-73750987D01*
X164125825Y-73361365D01*
X164054765Y-72975952D01*
X163933863Y-72665055D01*
X163751276Y-72382895D01*
X163498138Y-72131817D01*
X163185025Y-71918675D01*
X162822512Y-71750324D01*
X162421176Y-71633620D01*
X162309538Y-71612198D01*
X162046354Y-71572054D01*
X161830916Y-71554015D01*
X161629253Y-71558031D01*
X161407394Y-71584049D01*
X161248350Y-71610574D01*
X160899674Y-71699831D01*
X160583119Y-71840779D01*
X160292155Y-72039304D01*
X160020248Y-72301297D01*
X159760868Y-72632644D01*
X159507482Y-73039235D01*
X159360314Y-73312588D01*
X159190235Y-73664868D01*
X159066853Y-73976065D01*
X158983251Y-74270629D01*
X158932513Y-74573007D01*
X158907722Y-74907646D01*
X158907508Y-74913167D01*
X158436486Y-74913167D01*
X158436408Y-74880014D01*
X158438291Y-74807334D01*
X158448541Y-74564724D01*
X158465335Y-74374687D01*
X158494248Y-74205136D01*
X158540860Y-74023981D01*
X158610745Y-73799137D01*
X158616721Y-73780724D01*
X158700614Y-73540767D01*
X158799298Y-73286119D01*
X158898636Y-73052114D01*
X158962363Y-72916777D01*
X159146303Y-72550274D01*
X158996161Y-72324075D01*
X158853993Y-72139135D01*
X158680286Y-71956161D01*
X158499796Y-71798946D01*
X158338239Y-71691780D01*
X158193640Y-71640856D01*
X157990144Y-71600596D01*
X157753165Y-71573896D01*
X157508115Y-71563653D01*
X157288000Y-71572069D01*
X156789389Y-71649806D01*
X156334246Y-71788009D01*
X155928317Y-71983169D01*
X155577348Y-72231778D01*
X155287085Y-72530328D01*
X155063272Y-72875311D01*
X155025072Y-72953717D01*
X154902611Y-73234246D01*
X154818288Y-73471906D01*
X154765723Y-73695847D01*
X154738535Y-73935215D01*
X154730343Y-74219160D01*
X154730508Y-74299334D01*
X154739715Y-74615735D01*
X154766181Y-74903594D01*
X154814643Y-75205995D01*
X154849172Y-75378834D01*
X154937940Y-75864448D01*
X154985747Y-76281973D01*
X154992852Y-76637270D01*
X154959515Y-76936205D01*
X154924489Y-77077236D01*
X154794872Y-77408799D01*
X154598212Y-77772976D01*
X154332320Y-78173488D01*
X154089488Y-78495716D01*
X153939614Y-78689437D01*
X153839390Y-78828155D01*
X153783228Y-78921031D01*
X153765540Y-78977227D01*
X151065997Y-78977227D01*
X151110299Y-78937908D01*
X151385448Y-78672852D01*
X151417976Y-78640242D01*
X151587879Y-78465061D01*
X151769186Y-78270925D01*
X151953078Y-78068090D01*
X152130737Y-77866809D01*
X152293345Y-77677339D01*
X152432083Y-77509932D01*
X152538133Y-77374843D01*
X152602677Y-77282328D01*
X152618227Y-77244515D01*
X152574169Y-77219079D01*
X152464342Y-77179965D01*
X152305466Y-77132573D01*
X152120630Y-77083878D01*
X151896276Y-77022971D01*
X151672009Y-76953263D01*
X151478124Y-76884603D01*
X151373463Y-76840936D01*
X151207157Y-76751416D01*
X151110129Y-76661251D01*
X151069182Y-76550655D01*
X151071095Y-76401580D01*
X152264135Y-76401580D01*
X152337023Y-76435653D01*
X152470172Y-76465739D01*
X152639178Y-76487506D01*
X152797884Y-76496334D01*
X153070699Y-76464655D01*
X153209029Y-76413001D01*
X153316032Y-76343086D01*
X153463949Y-76220770D01*
X153638925Y-76058215D01*
X153810474Y-75885065D01*
X154230824Y-75444796D01*
X154250902Y-74649815D01*
X154260221Y-74344617D01*
X154271921Y-74107136D01*
X154287727Y-73920424D01*
X154309367Y-73767536D01*
X154338568Y-73631524D01*
X154364206Y-73538048D01*
X154516800Y-73085561D01*
X154693221Y-72678025D01*
X154885202Y-72334331D01*
X154902760Y-72307479D01*
X155013203Y-72129878D01*
X155070187Y-72006007D01*
X155075714Y-71925622D01*
X155031787Y-71878479D01*
X154989520Y-71863564D01*
X154885166Y-71855908D01*
X154723918Y-71864556D01*
X154531241Y-71886170D01*
X154332598Y-71917411D01*
X154153452Y-71954943D01*
X154038452Y-71988251D01*
X153730422Y-72140828D01*
X153451745Y-72370172D01*
X153201168Y-72677572D01*
X152977438Y-73064318D01*
X152961117Y-73097779D01*
X152795522Y-73441390D01*
X152736321Y-74558279D01*
X152718659Y-74865836D01*
X152699616Y-75152860D01*
X152680264Y-75406225D01*
X152661675Y-75612804D01*
X152644922Y-75759471D01*
X152632559Y-75828526D01*
X152579342Y-75945374D01*
X152489011Y-76085311D01*
X152413948Y-76179615D01*
X152327077Y-76285892D01*
X152273404Y-76366641D01*
X152264135Y-76401580D01*
X151071095Y-76401580D01*
X151071118Y-76399841D01*
X151072278Y-76389365D01*
X151078978Y-76343283D01*
X151094050Y-76303628D01*
X151127813Y-76261988D01*
X151190584Y-76209953D01*
X151292683Y-76139111D01*
X151444427Y-76041049D01*
X151656135Y-75907358D01*
X151688741Y-75886834D01*
X151790502Y-75818882D01*
X151871097Y-75750516D01*
X151933356Y-75671040D01*
X151980111Y-75569756D01*
X152014191Y-75435967D01*
X152038429Y-75258977D01*
X152055653Y-75028088D01*
X152068696Y-74732603D01*
X152078911Y-74412405D01*
X152088827Y-74088901D01*
X152098157Y-73836978D01*
X152108332Y-73643575D01*
X152120789Y-73495630D01*
X152136961Y-73380081D01*
X152158281Y-73283867D01*
X152186184Y-73193926D01*
X152222105Y-73097197D01*
X152223794Y-73092834D01*
X152425541Y-72658846D01*
X152676249Y-72263167D01*
X152965621Y-71919162D01*
X153283361Y-71640200D01*
X153409028Y-71554262D01*
X153685283Y-71400315D01*
X153960786Y-71294511D01*
X154271915Y-71223808D01*
X154375239Y-71207832D01*
X154527277Y-71184165D01*
X154645463Y-71161873D01*
X154705431Y-71145581D01*
X154706583Y-71144934D01*
X154710750Y-71097855D01*
X154697400Y-71011352D01*
X157864732Y-71011352D01*
X157875950Y-71094846D01*
X157883837Y-71106987D01*
X157951944Y-71151164D01*
X158050594Y-71176240D01*
X158154928Y-71182068D01*
X158240086Y-71168500D01*
X158281209Y-71135389D01*
X158276345Y-71109314D01*
X158198119Y-70988889D01*
X158109998Y-70880657D01*
X158031238Y-70806269D01*
X157988487Y-70785667D01*
X157932242Y-70822248D01*
X157887243Y-70908981D01*
X157864732Y-71011352D01*
X154697400Y-71011352D01*
X154693951Y-70989011D01*
X154659603Y-70837715D01*
X154637391Y-70753896D01*
X154580396Y-70502332D01*
X154533140Y-70205701D01*
X154501854Y-69903533D01*
X154500642Y-69886407D01*
X154484206Y-69669101D01*
X154466878Y-69516203D01*
X154443810Y-69407550D01*
X154410151Y-69322976D01*
X154362419Y-69244562D01*
X155133328Y-69244562D01*
X155170230Y-69733875D01*
X155189624Y-69950224D01*
X155213390Y-70154952D01*
X155238194Y-70321861D01*
X155256179Y-70409177D01*
X155307767Y-70565030D01*
X155369013Y-70692427D01*
X155428763Y-70770768D01*
X155460051Y-70785667D01*
X155505596Y-70757453D01*
X155586474Y-70685228D01*
X155644487Y-70626917D01*
X155806183Y-70432392D01*
X158740125Y-70432392D01*
X158745935Y-70500072D01*
X158784547Y-70619186D01*
X158848212Y-70766845D01*
X158864978Y-70801221D01*
X158948668Y-70981075D01*
X159025092Y-71165809D01*
X159078095Y-71316298D01*
X159079188Y-71319990D01*
X159165367Y-71567663D01*
X159261287Y-71764642D01*
X159360684Y-71900937D01*
X159457297Y-71966557D01*
X159487277Y-71971000D01*
X159549929Y-71944866D01*
X159655923Y-71875299D01*
X159785708Y-71775552D01*
X159829966Y-71738664D01*
X160242990Y-71441522D01*
X160598030Y-71267161D01*
X163173042Y-71267161D01*
X163206947Y-71308587D01*
X163297844Y-71382383D01*
X163430457Y-71476807D01*
X163538008Y-71547667D01*
X163906692Y-71821343D01*
X164203632Y-72128997D01*
X164436326Y-72481137D01*
X164612274Y-72888270D01*
X164695174Y-73169033D01*
X164746296Y-73363443D01*
X164784790Y-73487958D01*
X164815501Y-73555526D01*
X164843274Y-73579094D01*
X164848836Y-73579667D01*
X164887651Y-73555390D01*
X164982429Y-73488099D01*
X165121793Y-73386101D01*
X165294368Y-73257706D01*
X165449587Y-73140892D01*
X165819690Y-72867013D01*
X166182774Y-72609665D01*
X166526317Y-72377196D01*
X166837800Y-72177951D01*
X167104698Y-72020274D01*
X167236333Y-71950049D01*
X167390487Y-71867246D01*
X167527975Y-71784694D01*
X167617333Y-71721566D01*
X167723167Y-71631892D01*
X167553833Y-71485211D01*
X167398619Y-71365723D01*
X167192340Y-71227786D01*
X166956204Y-71083559D01*
X166711420Y-70945206D01*
X166479196Y-70824886D01*
X166280741Y-70734762D01*
X166182716Y-70698998D01*
X165688423Y-70589053D01*
X165186295Y-70559389D01*
X164688479Y-70609631D01*
X164207121Y-70739402D01*
X164146459Y-70762066D01*
X163910853Y-70857993D01*
X163687157Y-70958034D01*
X163488474Y-71055390D01*
X163327904Y-71143264D01*
X163218548Y-71214857D01*
X163173506Y-71263372D01*
X163173042Y-71267161D01*
X160598030Y-71267161D01*
X160694575Y-71219748D01*
X160994074Y-71120079D01*
X161155218Y-71079779D01*
X161309525Y-71053060D01*
X161480695Y-71037657D01*
X161692428Y-71031310D01*
X161923500Y-71031356D01*
X162162290Y-71032247D01*
X162332853Y-71029175D01*
X162451605Y-71020143D01*
X162534963Y-71003157D01*
X162599341Y-70976219D01*
X162653461Y-70942611D01*
X162741009Y-70876504D01*
X162788335Y-70828084D01*
X162791044Y-70820716D01*
X162757469Y-70767004D01*
X162667893Y-70684983D01*
X162540115Y-70587845D01*
X162391931Y-70488783D01*
X162241139Y-70400988D01*
X162188651Y-70374198D01*
X161779686Y-70204505D01*
X161340682Y-70074865D01*
X160890077Y-69987747D01*
X160446306Y-69945621D01*
X160027807Y-69950958D01*
X159653016Y-70006228D01*
X159580404Y-70024738D01*
X159373823Y-70090583D01*
X159170637Y-70170257D01*
X158988363Y-70255261D01*
X158844517Y-70337097D01*
X158756617Y-70407267D01*
X158740125Y-70432392D01*
X155806183Y-70432392D01*
X155962370Y-70244496D01*
X156215962Y-69833949D01*
X156400345Y-69406388D01*
X156510599Y-68972927D01*
X156542394Y-68598368D01*
X156538361Y-68408484D01*
X156520776Y-68269048D01*
X156482469Y-68146081D01*
X156418050Y-68009070D01*
X156346057Y-67880617D01*
X156281734Y-67786295D01*
X156242522Y-67748848D01*
X156196247Y-67773449D01*
X156122813Y-67853961D01*
X156037792Y-67973203D01*
X156034512Y-67978313D01*
X155930221Y-68141302D01*
X155806496Y-68334418D01*
X155689673Y-68516558D01*
X155686929Y-68520834D01*
X155568104Y-68696700D01*
X155436344Y-68877669D01*
X155319351Y-69025751D01*
X155315019Y-69030865D01*
X155133328Y-69244562D01*
X154362419Y-69244562D01*
X154361052Y-69242317D01*
X154337749Y-69209074D01*
X154190136Y-68985164D01*
X154081618Y-68773276D01*
X154004486Y-68550258D01*
X153951029Y-68292953D01*
X153913536Y-67978209D01*
X153908399Y-67919735D01*
X153886150Y-67702885D01*
X153859427Y-67550174D01*
X153823381Y-67441075D01*
X153775986Y-67358988D01*
X153673019Y-67170544D01*
X153596414Y-66926906D01*
X153543140Y-66617022D01*
X153525168Y-66443836D01*
X153519278Y-66385900D01*
X154155959Y-66385900D01*
X154166906Y-66518722D01*
X154196092Y-66665014D01*
X154236563Y-66802615D01*
X154281362Y-66909364D01*
X154323534Y-66963099D01*
X154337695Y-66964924D01*
X154386205Y-66923703D01*
X154463375Y-66831900D01*
X154545873Y-66718795D01*
X154668168Y-66493272D01*
X154765272Y-66221610D01*
X154833428Y-65926573D01*
X154868880Y-65630922D01*
X154867869Y-65357421D01*
X154826640Y-65128834D01*
X154814203Y-65093019D01*
X154763786Y-64981453D01*
X154717518Y-64912340D01*
X154699480Y-64901334D01*
X154665187Y-64937235D01*
X154605518Y-65034144D01*
X154529858Y-65175861D01*
X154471793Y-65294342D01*
X154334438Y-65617720D01*
X154232402Y-65928253D01*
X154171391Y-66206226D01*
X154155959Y-66385900D01*
X153519278Y-66385900D01*
X153505676Y-66252128D01*
X153480677Y-66115726D01*
X153440808Y-66005361D01*
X153376703Y-65891760D01*
X153322013Y-65808836D01*
X153124005Y-65456821D01*
X152995182Y-65081927D01*
X152931975Y-64707346D01*
X152906330Y-64508131D01*
X152868956Y-64355753D01*
X152807661Y-64212381D01*
X152724866Y-64064653D01*
X152506601Y-63618177D01*
X152361764Y-63134668D01*
X152338009Y-63014697D01*
X152305609Y-62808348D01*
X152272042Y-62549526D01*
X152239576Y-62261154D01*
X152217658Y-62038909D01*
X152900996Y-62038909D01*
X152906617Y-62156422D01*
X152922375Y-62320956D01*
X152945864Y-62514353D01*
X152974679Y-62718456D01*
X153006415Y-62915107D01*
X153038668Y-63086147D01*
X153069032Y-63213418D01*
X153071540Y-63221941D01*
X153123687Y-63367836D01*
X153183604Y-63497993D01*
X153205826Y-63536009D01*
X153279372Y-63648254D01*
X153319304Y-63544544D01*
X153334499Y-63456498D01*
X153340893Y-63310145D01*
X153337731Y-63131465D01*
X153333540Y-63055547D01*
X153314534Y-62852954D01*
X153286724Y-62654939D01*
X153255262Y-62496453D01*
X153246192Y-62462880D01*
X153196432Y-62337114D01*
X153125902Y-62207665D01*
X153047675Y-62092939D01*
X152974822Y-62011344D01*
X152920416Y-61981286D01*
X152907916Y-61986575D01*
X152900996Y-62038909D01*
X152217658Y-62038909D01*
X152210482Y-61966154D01*
X152187030Y-61687451D01*
X152171488Y-61447967D01*
X152166120Y-61278629D01*
X152169663Y-61113473D01*
X152185050Y-61007859D01*
X152218490Y-60936852D01*
X152263645Y-60887046D01*
X152401513Y-60811850D01*
X152571570Y-60800023D01*
X152748049Y-60853214D01*
X152753003Y-60855744D01*
X152874668Y-60940615D01*
X153023731Y-61078250D01*
X153189997Y-61255403D01*
X153363271Y-61458830D01*
X153533359Y-61675284D01*
X153690066Y-61891520D01*
X153823197Y-62094292D01*
X153922557Y-62270356D01*
X153977952Y-62406465D01*
X153986000Y-62457706D01*
X154012019Y-62516220D01*
X154080443Y-62616440D01*
X154176826Y-62737332D01*
X154183251Y-62744864D01*
X154440304Y-63076141D01*
X154630553Y-63395463D01*
X154749174Y-63673667D01*
X154824140Y-63852117D01*
X154917604Y-64030211D01*
X154988140Y-64139334D01*
X155158330Y-64371817D01*
X155285247Y-64557027D01*
X155378143Y-64714097D01*
X155446268Y-64862160D01*
X155498872Y-65020349D01*
X155545206Y-65207797D01*
X155576885Y-65357029D01*
X155614361Y-65435352D01*
X155694055Y-65549906D01*
X155798994Y-65676382D01*
X155802981Y-65680798D01*
X156025144Y-65955164D01*
X156181830Y-66222837D01*
X156285882Y-66509280D01*
X156334154Y-66733855D01*
X156374370Y-66853302D01*
X156462978Y-66993131D01*
X156609526Y-67168324D01*
X156614603Y-67173936D01*
X156752248Y-67335962D01*
X156885967Y-67510349D01*
X156990480Y-67663813D01*
X157004843Y-67687678D01*
X157102485Y-67841914D01*
X157173493Y-67921142D01*
X157223108Y-67928794D01*
X157256573Y-67868299D01*
X157260216Y-67854792D01*
X157316269Y-67738128D01*
X157419061Y-67602068D01*
X157544362Y-67473388D01*
X157667941Y-67378863D01*
X157710785Y-67356894D01*
X157869770Y-67331422D01*
X158085387Y-67359416D01*
X158351305Y-67437743D01*
X158661187Y-67563267D01*
X159008702Y-67732856D01*
X159387514Y-67943374D01*
X159791291Y-68191687D01*
X160213698Y-68474661D01*
X160648403Y-68789161D01*
X160730576Y-68851242D01*
X160953640Y-69020178D01*
X161126580Y-69147187D01*
X161266524Y-69241776D01*
X161390597Y-69313455D01*
X161515927Y-69371733D01*
X161659641Y-69426118D01*
X161838866Y-69486120D01*
X161923500Y-69513553D01*
X162313222Y-69656901D01*
X162641790Y-69818598D01*
X162932528Y-70011376D01*
X163121542Y-70167624D01*
X163383260Y-70401151D01*
X163669380Y-70291207D01*
X163996626Y-70170531D01*
X164272472Y-70082336D01*
X164521212Y-70021169D01*
X164767138Y-69981575D01*
X165034543Y-69958102D01*
X165186613Y-69950597D01*
X165602776Y-69947972D01*
X165966762Y-69979329D01*
X166305825Y-70049341D01*
X166647220Y-70162681D01*
X166807679Y-70228552D01*
X167078731Y-70361389D01*
X167389768Y-70540706D01*
X167720396Y-70753630D01*
X168050222Y-70987292D01*
X168239139Y-71132002D01*
X168501112Y-71339136D01*
X168852973Y-71245104D01*
X169178672Y-71178484D01*
X169529350Y-71150073D01*
X169631019Y-71148286D01*
X169832896Y-71149028D01*
X169976358Y-71157619D01*
X170087606Y-71178905D01*
X170192838Y-71217731D01*
X170307396Y-71273380D01*
X170503217Y-71395058D01*
X170656094Y-71547933D01*
X170718247Y-71631226D01*
X170832263Y-71814791D01*
X170919190Y-72007268D01*
X170983149Y-72224986D01*
X171028259Y-72484276D01*
X171058641Y-72801468D01*
X171071801Y-73032514D01*
X171101784Y-73676391D01*
X171571475Y-73897017D01*
X171847357Y-74020715D01*
X172129888Y-74134370D01*
X172436289Y-74243991D01*
X172783783Y-74355591D01*
X173189593Y-74475179D01*
X173388461Y-74531154D01*
X173617896Y-74597472D01*
X173842671Y-74666744D01*
X174037166Y-74730819D01*
X174175762Y-74781545D01*
X174177121Y-74782096D01*
X174546640Y-74971208D01*
X174913640Y-75232305D01*
X175266318Y-75553216D01*
X175592871Y-75921771D01*
X175881497Y-76325798D01*
X176120392Y-76753128D01*
X176150528Y-76817010D01*
X176226934Y-76994554D01*
X176310375Y-77207532D01*
X176395014Y-77438682D01*
X176475011Y-77670745D01*
X176544529Y-77886461D01*
X176597728Y-78068570D01*
X176628771Y-78199811D01*
X176634333Y-78247261D01*
X176648390Y-78351055D01*
X176687499Y-78376572D01*
X176747062Y-78324841D01*
X176817873Y-78206150D01*
X176854726Y-78125327D01*
X176919504Y-77974953D01*
X177008479Y-77764001D01*
X177117923Y-77501447D01*
X177244107Y-77196266D01*
X177383303Y-76857433D01*
X177531782Y-76493922D01*
X177649489Y-76204334D01*
X177786106Y-75868071D01*
X177950517Y-75464364D01*
X178138286Y-75004057D01*
X178344975Y-74497997D01*
X178566149Y-73957030D01*
X178797371Y-73392004D01*
X179034205Y-72813763D01*
X179272214Y-72233156D01*
X179506961Y-71661027D01*
X179718692Y-71145500D01*
X181058167Y-67885834D01*
X181058167Y-66340667D01*
X181056917Y-65851468D01*
X181052592Y-65435638D01*
X181044325Y-65081907D01*
X181031251Y-64779006D01*
X181012503Y-64515666D01*
X180987216Y-64280617D01*
X180954524Y-64062591D01*
X180913562Y-63850318D01*
X180863462Y-63632529D01*
X180844132Y-63554983D01*
X180771757Y-63294410D01*
X180691490Y-63066592D01*
X180594351Y-62856284D01*
X180471360Y-62648242D01*
X180313538Y-62427222D01*
X180111904Y-62177979D01*
X179866710Y-61895667D01*
X179275259Y-61248521D01*
X178637780Y-60586607D01*
X177970205Y-59925119D01*
X177288463Y-59279251D01*
X176608486Y-58664199D01*
X175946206Y-58095156D01*
X175501294Y-57732039D01*
X174401184Y-56896006D01*
X173227036Y-56080238D01*
X171988199Y-55290356D01*
X170694027Y-54531983D01*
X169353870Y-53810740D01*
X167977079Y-53132249D01*
X167426124Y-52877674D01*
X165997338Y-52270761D01*
X164569560Y-51746920D01*
X163137449Y-51304794D01*
X161695665Y-50943029D01*
X160238864Y-50660267D01*
X158761706Y-50455152D01*
X157415971Y-50336177D01*
X157088671Y-50320042D01*
X156698839Y-50309446D01*
X156262498Y-50304149D01*
X155795671Y-50303906D01*
X155314381Y-50308476D01*
X154834650Y-50317615D01*
X154372500Y-50331082D01*
X153943954Y-50348634D01*
X153565034Y-50370028D01*
X153251764Y-50395021D01*
X153202833Y-50399962D01*
X151793223Y-50581735D01*
X150418813Y-50826373D01*
X149083811Y-51132519D01*
X147792428Y-51498820D01*
X146548873Y-51923916D01*
X145357356Y-52406454D01*
X144222087Y-52945077D01*
X143147274Y-53538428D01*
X142796688Y-53752188D01*
X141900027Y-54341847D01*
X140993408Y-54993812D01*
X140087588Y-55698279D01*
X139193326Y-56445447D01*
X138321382Y-57225514D01*
X137482512Y-58028677D01*
X136687477Y-58845134D01*
X135947034Y-59665083D01*
X135271942Y-60478722D01*
X134938477Y-60911845D01*
X134736503Y-61191299D01*
X134526626Y-61498585D01*
X134315376Y-61822631D01*
X134109281Y-62152367D01*
X133914869Y-62476722D01*
X133738667Y-62784625D01*
X133587205Y-63065004D01*
X133467010Y-63306790D01*
X133384610Y-63498911D01*
X133351790Y-63602663D01*
X133290009Y-63706996D01*
X133174869Y-63793364D01*
X133036382Y-63847620D01*
X132904557Y-63855621D01*
X132851586Y-63838421D01*
X132765805Y-63782056D01*
X132724731Y-63741413D01*
X132699367Y-63648478D01*
X132693791Y-63480726D01*
X132707474Y-63245531D01*
X132739889Y-62950269D01*
X132790510Y-62602314D01*
X132818048Y-62436554D01*
X133071529Y-61210145D01*
X133405967Y-60006662D01*
X133820424Y-58827556D01*
X134313958Y-57674274D01*
X134885631Y-56548266D01*
X135534503Y-55450980D01*
X136259634Y-54383865D01*
X137060085Y-53348370D01*
X137934916Y-52345944D01*
X138883187Y-51378035D01*
X139903959Y-50446093D01*
X140996292Y-49551566D01*
X141349500Y-49281936D01*
X142563042Y-48421721D01*
X143837660Y-47616040D01*
X145168647Y-46866124D01*
X146551294Y-46173208D01*
X147980893Y-45538524D01*
X149452736Y-44963307D01*
X150962114Y-44448788D01*
X152504320Y-43996203D01*
X154074644Y-43606784D01*
X155668379Y-43281765D01*
X157280817Y-43022378D01*
X158907250Y-42829858D01*
X160542968Y-42705438D01*
X162183265Y-42650351D01*
X163823431Y-42665830D01*
G37*
X163823431Y-42665830D02*
X165458759Y-42753109D01*
X166074143Y-42805005D01*
X167806952Y-43008047D01*
X169519372Y-43292694D01*
X171209150Y-43658030D01*
X172874035Y-44103142D01*
X174511776Y-44627115D01*
X176120120Y-45229037D01*
X177696816Y-45907993D01*
X179239612Y-46663069D01*
X180746256Y-47493351D01*
X182214498Y-48397925D01*
X183642084Y-49375878D01*
X185026764Y-50426294D01*
X185206833Y-50570813D01*
X185547952Y-50852413D01*
X185908138Y-51160797D01*
X186282177Y-51490736D01*
X186664854Y-51836997D01*
X187050955Y-52194350D01*
X187435265Y-52557563D01*
X187812569Y-52921405D01*
X188177652Y-53280645D01*
X188525301Y-53630052D01*
X188850300Y-53964394D01*
X189147435Y-54278440D01*
X189411491Y-54566959D01*
X189637254Y-54824719D01*
X189819508Y-55046490D01*
X189953040Y-55227041D01*
X190032635Y-55361139D01*
X190054000Y-55433410D01*
X190031489Y-55535719D01*
X189964185Y-55708912D01*
X189852425Y-55952238D01*
X189696549Y-56264949D01*
X189553042Y-56540500D01*
X189000772Y-57589479D01*
X188458690Y-58626196D01*
X187929102Y-59646043D01*
X187414315Y-60644412D01*
X186916635Y-61616695D01*
X186438370Y-62558286D01*
X185981826Y-63464575D01*
X185549309Y-64330956D01*
X185143127Y-65152821D01*
X184765586Y-65925562D01*
X184418993Y-66644571D01*
X184105654Y-67305241D01*
X183827876Y-67902964D01*
X183587966Y-68433132D01*
X183502502Y-68626667D01*
X183461407Y-68723226D01*
X183390224Y-68893748D01*
X183290779Y-69133774D01*
X183164899Y-69438848D01*
X183014411Y-69804510D01*
X182841142Y-70226303D01*
X182646918Y-70699769D01*
X182433566Y-71220449D01*
X182202913Y-71783885D01*
X181956785Y-72385619D01*
X181697010Y-73021194D01*
X181425413Y-73686150D01*
X181143822Y-74376031D01*
X180854063Y-75086377D01*
X180557963Y-75812730D01*
X180548933Y-75834888D01*
X177827121Y-82513942D01*
X177933765Y-82861200D01*
X177980790Y-83007585D01*
X178026273Y-83120564D01*
X178082876Y-83219020D01*
X178163262Y-83321838D01*
X178280095Y-83447901D01*
X178427454Y-83597427D01*
X178785313Y-84002049D01*
X179079977Y-84436928D01*
X179317758Y-84914107D01*
X179504966Y-85445626D01*
X179607701Y-85849211D01*
X179637305Y-85992888D01*
X179659718Y-86130582D01*
X179675871Y-86277256D01*
X179686696Y-86447873D01*
X179693126Y-86657395D01*
X179696092Y-86920784D01*
X179696528Y-87253003D01*
X179696496Y-87274500D01*
X179692432Y-87714893D01*
X179680472Y-88109723D01*
X179658674Y-88480646D01*
X179625098Y-88849314D01*
X179577804Y-89237382D01*
X179514850Y-89666504D01*
X179442280Y-90111156D01*
X179327908Y-90788812D01*
X179504288Y-91423490D01*
X179625954Y-91888766D01*
X179725215Y-92334353D01*
X179803880Y-92775744D01*
X179863759Y-93228433D01*
X179906663Y-93707911D01*
X179934401Y-94229672D01*
X179948783Y-94809209D01*
X179951871Y-95254334D01*
X179939372Y-96048165D01*
X179897754Y-96781877D01*
X179823520Y-97475207D01*
X179713173Y-98147892D01*
X179563215Y-98819667D01*
X179370150Y-99510270D01*
X179130480Y-100239437D01*
X179007960Y-100581395D01*
X178927683Y-100801318D01*
X178853849Y-101004981D01*
X178793352Y-101173262D01*
X178753089Y-101287044D01*
X178745883Y-101308000D01*
X178709709Y-101409227D01*
X178651719Y-101565425D01*
X178580860Y-101752681D01*
X178527117Y-101892737D01*
X178358554Y-102329307D01*
X178492350Y-102929903D01*
X178554267Y-103215024D01*
X178602840Y-103461715D01*
X178639188Y-103685659D01*
X178664428Y-103902534D01*
X178679680Y-104128020D01*
X178686063Y-104377798D01*
X178684695Y-104667547D01*
X178676695Y-105012947D01*
X178665628Y-105358723D01*
X178649493Y-105812785D01*
X178632554Y-106257335D01*
X178615203Y-106684326D01*
X178597830Y-107085706D01*
X178580825Y-107453428D01*
X178564580Y-107779443D01*
X178549484Y-108055701D01*
X178535929Y-108274152D01*
X178524305Y-108426749D01*
X178515003Y-108505442D01*
X178512500Y-108513835D01*
X178530920Y-108556472D01*
X178596689Y-108644476D01*
X178697941Y-108762702D01*
X178763198Y-108833785D01*
X178886846Y-108974649D01*
X178988143Y-109107135D01*
X179051614Y-109210264D01*
X179063595Y-109241028D01*
X179062649Y-109389588D01*
X178983088Y-109516482D01*
X178828976Y-109618269D01*
X178604379Y-109691512D01*
X178509327Y-109709857D01*
X178398066Y-109733288D01*
X178350277Y-109766476D01*
X178345206Y-109827794D01*
X178348563Y-109852177D01*
X178357002Y-109936632D01*
X178367440Y-110085393D01*
X178378604Y-110278160D01*
X178389220Y-110494635D01*
X178390146Y-110515500D01*
X178399613Y-110686063D01*
X178415828Y-110927284D01*
X178437731Y-111225517D01*
X178464265Y-111567113D01*
X178494370Y-111938426D01*
X178526987Y-112325808D01*
X178559282Y-112695667D01*
X178607532Y-113239811D01*
X178648917Y-113710980D01*
X178684329Y-114120510D01*
X178714659Y-114479737D01*
X178740799Y-114799996D01*
X178763641Y-115092624D01*
X178784075Y-115368956D01*
X178802994Y-115640328D01*
X178821289Y-115918075D01*
X178839851Y-116213534D01*
X178853323Y-116434334D01*
X178871005Y-116711581D01*
X178888585Y-116959768D01*
X178905054Y-117166673D01*
X178919402Y-117320075D01*
X178930620Y-117407751D01*
X178935015Y-117423459D01*
X178983991Y-117441078D01*
X179097188Y-117469806D01*
X179255629Y-117505063D01*
X179373236Y-117529183D01*
X180015460Y-117688805D01*
X180597047Y-117902204D01*
X181126011Y-118173603D01*
X181610367Y-118507228D01*
X182058128Y-118907301D01*
X182132382Y-118983477D01*
X182421650Y-119306814D01*
X182686915Y-119649333D01*
X182932948Y-120020179D01*
X183164518Y-120428500D01*
X183386395Y-120883444D01*
X183603351Y-121394157D01*
X183820153Y-121969786D01*
X184041574Y-122619479D01*
X184063330Y-122686334D01*
X184214380Y-123151045D01*
X184343095Y-123543862D01*
X184452647Y-123873627D01*
X184546207Y-124149177D01*
X184626946Y-124379354D01*
X184698036Y-124572996D01*
X184762647Y-124738946D01*
X184823951Y-124886041D01*
X184885119Y-125023122D01*
X184949322Y-125159029D01*
X184953416Y-125167496D01*
X185156568Y-125542800D01*
X185367808Y-125840081D01*
X185594681Y-126065980D01*
X185844730Y-126227139D01*
X186125499Y-126330198D01*
X186316548Y-126367582D01*
X186714202Y-126383725D01*
X187098534Y-126320010D01*
X187413787Y-126200392D01*
X187665686Y-126043074D01*
X187876536Y-125835891D01*
X188050937Y-125571393D01*
X188193488Y-125242132D01*
X188308787Y-124840660D01*
X188339604Y-124700914D01*
X188386665Y-124495145D01*
X188435681Y-124316534D01*
X188480899Y-124184197D01*
X188514751Y-124119128D01*
X188604394Y-124069046D01*
X188737921Y-124042536D01*
X188876939Y-124043198D01*
X188983055Y-124074634D01*
X188983837Y-124075126D01*
X189056478Y-124165730D01*
X189118134Y-124334843D01*
X189168156Y-124576945D01*
X189205898Y-124886512D01*
X189230712Y-125258022D01*
X189241949Y-125685953D01*
X189238962Y-126164781D01*
X189237346Y-126236586D01*
X189224943Y-126628041D01*
X189206953Y-126951149D01*
X189180603Y-127222184D01*
X189143123Y-127457421D01*
X189091743Y-127673132D01*
X189023690Y-127885591D01*
X188936194Y-128111072D01*
X188905819Y-128183503D01*
X188836497Y-128353997D01*
X188784136Y-128497028D01*
X188755256Y-128593908D01*
X188752292Y-128623711D01*
X188798530Y-128658468D01*
X188900868Y-128699312D01*
X188980526Y-128722554D01*
X189281220Y-128835852D01*
X189588325Y-129017365D01*
X189885534Y-129253748D01*
X190156537Y-129531655D01*
X190385025Y-129837739D01*
X190427416Y-129906600D01*
X190630118Y-130310079D01*
X190800978Y-130775848D01*
X190934730Y-131285809D01*
X191026104Y-131821863D01*
X191050197Y-132046134D01*
X191063225Y-132210496D01*
X191062491Y-132316819D01*
X191042083Y-132391367D01*
X190996090Y-132460403D01*
X190942984Y-132522384D01*
X190843046Y-132620579D01*
X190748504Y-132668974D01*
X190645119Y-132665191D01*
X190518653Y-132606848D01*
X190354868Y-132491565D01*
X190247497Y-132406103D01*
X189975328Y-132219731D01*
X189678161Y-132087092D01*
X189349086Y-132007767D01*
X188981193Y-131981335D01*
X188567575Y-132007376D01*
X188101320Y-132085469D01*
X187575521Y-132215196D01*
X187492833Y-132238581D01*
X187322716Y-132289635D01*
X187183665Y-132335530D01*
X187095811Y-132369421D01*
X187077152Y-132379925D01*
X187080971Y-132428600D01*
X187122699Y-132528143D01*
X187193725Y-132658680D01*
X187208780Y-132683649D01*
X187429041Y-133089219D01*
X187579865Y-133480462D01*
X187668008Y-133879969D01*
X187700224Y-134310333D01*
X187700440Y-134328000D01*
X187690878Y-134619695D01*
X187653064Y-134834993D01*
X187583316Y-134975401D01*
X187477949Y-135042426D01*
X187333279Y-135037574D01*
X187145622Y-134962354D01*
X186911294Y-134818270D01*
X186762896Y-134711496D01*
X186579862Y-134582492D01*
X186393897Y-134464617D01*
X186230255Y-134373240D01*
X186139553Y-134332155D01*
X185892350Y-134261573D01*
X185586826Y-134208587D01*
X185248017Y-134175961D01*
X184900958Y-134166460D01*
X184698833Y-134173031D01*
X184532008Y-134184010D01*
X184390080Y-134197965D01*
X184254938Y-134218681D01*
X184108471Y-134249941D01*
X183932569Y-134295531D01*
X183709121Y-134359236D01*
X183471462Y-134429505D01*
X183308947Y-134475191D01*
X183165880Y-134506894D01*
X183019782Y-134527160D01*
X182848174Y-134538537D01*
X182628577Y-134543571D01*
X182455368Y-134544633D01*
X182088596Y-134538949D01*
X181785033Y-134517022D01*
X181524114Y-134474885D01*
X181285276Y-134408570D01*
X181047955Y-134314109D01*
X180903651Y-134245237D01*
X180506698Y-134024677D01*
X180138173Y-133771374D01*
X179783564Y-133473245D01*
X179428363Y-133118209D01*
X179096572Y-132740500D01*
X178596701Y-132086770D01*
X178177725Y-131416383D01*
X177837125Y-130722976D01*
X177572382Y-130000183D01*
X177380979Y-129241641D01*
X177286392Y-128613582D01*
X177990636Y-128613582D01*
X177994447Y-128710947D01*
X178012728Y-128859136D01*
X178042669Y-129042440D01*
X178081463Y-129245146D01*
X178126301Y-129451541D01*
X178174375Y-129645914D01*
X178222877Y-129812553D01*
X178225140Y-129819500D01*
X178382061Y-130229968D01*
X178591829Y-130675366D01*
X178842776Y-131135796D01*
X179123233Y-131591358D01*
X179421533Y-132022153D01*
X179726007Y-132408281D01*
X179779358Y-132470124D01*
X180205225Y-132904255D01*
X180659685Y-133268653D01*
X181136155Y-133558878D01*
X181628051Y-133770488D01*
X181777833Y-133818033D01*
X182016238Y-133871320D01*
X182269740Y-133893440D01*
X182551151Y-133883387D01*
X182873281Y-133840156D01*
X183248942Y-133762739D01*
X183598167Y-133675107D01*
X184055758Y-133560036D01*
X184451803Y-133477980D01*
X184802990Y-133429579D01*
X185126005Y-133415476D01*
X185437537Y-133436310D01*
X185754271Y-133492724D01*
X186092897Y-133585358D01*
X186470100Y-133714854D01*
X186677917Y-133793445D01*
X186825187Y-133849403D01*
X186910487Y-133875917D01*
X186950736Y-133874280D01*
X186962857Y-133845781D01*
X186963667Y-133815244D01*
X186938470Y-133706863D01*
X186869652Y-133550707D01*
X186767374Y-133364392D01*
X186641795Y-133165535D01*
X186503074Y-132971754D01*
X186411575Y-132857927D01*
X186160103Y-132561388D01*
X185492968Y-132532715D01*
X184993446Y-132504858D01*
X184564303Y-132465473D01*
X184191655Y-132411301D01*
X183861621Y-132339082D01*
X183560316Y-132245556D01*
X183273858Y-132127464D01*
X182988364Y-131981547D01*
X182878500Y-131918860D01*
X182624500Y-131770292D01*
X181714333Y-131768563D01*
X181412737Y-131767617D01*
X181182067Y-131765203D01*
X181008583Y-131760003D01*
X180878544Y-131750703D01*
X180778210Y-131735987D01*
X180693841Y-131714540D01*
X180611696Y-131685046D01*
X180542041Y-131656331D01*
X180223502Y-131499708D01*
X179881123Y-131292186D01*
X179541635Y-131050773D01*
X179357258Y-130902491D01*
X179068559Y-130614661D01*
X178794499Y-130254937D01*
X178542702Y-129835803D01*
X178320791Y-129369741D01*
X178160257Y-128942695D01*
X178103757Y-128784592D01*
X178052041Y-128660897D01*
X178013571Y-128591111D01*
X178004101Y-128582756D01*
X177990636Y-128613582D01*
X177286392Y-128613582D01*
X177260398Y-128440983D01*
X177225132Y-128010624D01*
X177210456Y-127779878D01*
X177196327Y-127580738D01*
X177183891Y-127427674D01*
X177174291Y-127335155D01*
X177170074Y-127314296D01*
X177155196Y-127346619D01*
X177129703Y-127462058D01*
X177093737Y-127659749D01*
X177047441Y-127938827D01*
X176990956Y-128298429D01*
X176924424Y-128737689D01*
X176847988Y-129255743D01*
X176824462Y-129417334D01*
X176679963Y-130388185D01*
X176539428Y-131280365D01*
X176401423Y-132099697D01*
X176264518Y-132852006D01*
X176127278Y-133543115D01*
X175988272Y-134178848D01*
X175846067Y-134765027D01*
X175699231Y-135307477D01*
X175546330Y-135812022D01*
X175385933Y-136284484D01*
X175216606Y-136730688D01*
X175036917Y-137156457D01*
X174845434Y-137567614D01*
X174793793Y-137672334D01*
X174406875Y-138393476D01*
X174005333Y-139035012D01*
X173589806Y-139596437D01*
X173160932Y-140077247D01*
X172719352Y-140476939D01*
X172265705Y-140795007D01*
X171800630Y-141030949D01*
X171324767Y-141184261D01*
X170838754Y-141254438D01*
X170343232Y-141240977D01*
X170276080Y-141232783D01*
X169969159Y-141171836D01*
X169694342Y-141069817D01*
X169431242Y-140916239D01*
X169159472Y-140700614D01*
X169053619Y-140603931D01*
X168708998Y-140279736D01*
X168878866Y-140129618D01*
X169139329Y-139845108D01*
X169328034Y-139516180D01*
X169395788Y-139333062D01*
X169412700Y-139275167D01*
X169427186Y-139214780D01*
X169439434Y-139145197D01*
X169449631Y-139059716D01*
X169457965Y-138951636D01*
X169464621Y-138814253D01*
X169469788Y-138640865D01*
X169473653Y-138424770D01*
X169476403Y-138159266D01*
X169478225Y-137837651D01*
X169479306Y-137453222D01*
X169479834Y-136999277D01*
X169479995Y-136469113D01*
X169480000Y-136317667D01*
X169479901Y-135766420D01*
X169479479Y-135293147D01*
X169478549Y-134891153D01*
X169476925Y-134553744D01*
X169474422Y-134274228D01*
X169470853Y-134045910D01*
X169466032Y-133862097D01*
X169459774Y-133716094D01*
X169451893Y-133601210D01*
X169442203Y-133510749D01*
X169430518Y-133438018D01*
X169416653Y-133376324D01*
X169400422Y-133318974D01*
X169396391Y-133305876D01*
X169244203Y-132949651D01*
X169027023Y-132647158D01*
X168747750Y-132401537D01*
X168409285Y-132215932D01*
X168379333Y-132203608D01*
X168289074Y-132170550D01*
X168195812Y-132145645D01*
X168084985Y-132127387D01*
X167942030Y-132114270D01*
X167752382Y-132104789D01*
X167501480Y-132097440D01*
X167312947Y-132093376D01*
X166479395Y-132076752D01*
X166457744Y-131964126D01*
X166446579Y-131888537D01*
X166428090Y-131743535D01*
X166404050Y-131543886D01*
X166376229Y-131304354D01*
X166346400Y-131039703D01*
X166341331Y-130993952D01*
X166308096Y-130700803D01*
X166280873Y-130482106D01*
X166257773Y-130328015D01*
X166236907Y-130228684D01*
X166216386Y-130174268D01*
X166194322Y-130154920D01*
X166180534Y-130155749D01*
X165986134Y-130202779D01*
X165726895Y-130251185D01*
X165422561Y-130298514D01*
X165092873Y-130342313D01*
X164757573Y-130380130D01*
X164436404Y-130409512D01*
X164149107Y-130428006D01*
X163946181Y-130433334D01*
X163511000Y-130433334D01*
X163511000Y-132076542D01*
X161876478Y-132105500D01*
X161554057Y-132264923D01*
X161224032Y-132471570D01*
X160955464Y-132735959D01*
X160744815Y-133061641D01*
X160729500Y-133092197D01*
X160611167Y-133333167D01*
X160599444Y-136229365D01*
X160597220Y-136795648D01*
X160595566Y-137283718D01*
X160594635Y-137700028D01*
X160594579Y-138051031D01*
X160595550Y-138343179D01*
X160597699Y-138582925D01*
X160601178Y-138776722D01*
X160606139Y-138931023D01*
X160612735Y-139052281D01*
X160621116Y-139146947D01*
X160631436Y-139221475D01*
X160643845Y-139282318D01*
X160658495Y-139335929D01*
X160673680Y-139383198D01*
X160749352Y-139561802D01*
X160854695Y-139753136D01*
X160935321Y-139872533D01*
X161111003Y-140104232D01*
X160828335Y-140362971D01*
X160538855Y-140597035D01*
X160211710Y-140810212D01*
X159878811Y-140982991D01*
X159690282Y-141058904D01*
X159377759Y-141148329D01*
X159029626Y-141213687D01*
X158669004Y-141253232D01*
X158319019Y-141265214D01*
X158002794Y-141247886D01*
X157762021Y-141204678D01*
X157279273Y-141040785D01*
X156820945Y-140814018D01*
X156383701Y-140521201D01*
X155964205Y-140159162D01*
X155559120Y-139724726D01*
X155165112Y-139214719D01*
X154778842Y-138625966D01*
X154449805Y-138053334D01*
X154259302Y-137713206D01*
X154088239Y-137432331D01*
X153924005Y-137191592D01*
X153753987Y-136971878D01*
X153671759Y-136874225D01*
X153482512Y-136635741D01*
X153349351Y-136417104D01*
X153258178Y-136190804D01*
X153199278Y-135952274D01*
X153164741Y-135705077D01*
X153142691Y-135398261D01*
X153133105Y-135055946D01*
X153135962Y-134702251D01*
X153151241Y-134361294D01*
X153178921Y-134057196D01*
X153201089Y-133904667D01*
X153217853Y-133791402D01*
X153232712Y-133652207D01*
X153245958Y-133479919D01*
X153257885Y-133267370D01*
X153268785Y-133007395D01*
X153278949Y-132692828D01*
X153288671Y-132316504D01*
X153298243Y-131871258D01*
X153307956Y-131349923D01*
X153309911Y-131237667D01*
X153320366Y-130659909D01*
X153330682Y-130157564D01*
X153341291Y-129721381D01*
X153352623Y-129342108D01*
X153365110Y-129010493D01*
X153379181Y-128717285D01*
X153395269Y-128453232D01*
X153413802Y-128209082D01*
X153435214Y-127975584D01*
X153459933Y-127743486D01*
X153480969Y-127564222D01*
X153533160Y-127133597D01*
X153315210Y-126778192D01*
X153280593Y-126713602D01*
X159877329Y-126713602D01*
X159883639Y-126736999D01*
X159894783Y-126753875D01*
X159897488Y-126756951D01*
X159975328Y-126820293D01*
X160113196Y-126910638D01*
X160294588Y-127018773D01*
X160503002Y-127135483D01*
X160721937Y-127251555D01*
X160934889Y-127357774D01*
X161125356Y-127444927D01*
X161143520Y-127452656D01*
X161454486Y-127564623D01*
X161814414Y-127662413D01*
X162187720Y-127736398D01*
X162198667Y-127738135D01*
X162392146Y-127755799D01*
X162639652Y-127760038D01*
X162911763Y-127751744D01*
X163179059Y-127731807D01*
X163410205Y-127701449D01*
X164043036Y-127553942D01*
X164652730Y-127332814D01*
X165243164Y-127035848D01*
X165818212Y-126660827D01*
X166381750Y-126205535D01*
X166687755Y-125910979D01*
X177396333Y-125910979D01*
X177421758Y-125958356D01*
X177489653Y-126052952D01*
X177587447Y-126177650D01*
X177632747Y-126232879D01*
X177819842Y-126493094D01*
X178015440Y-126831980D01*
X178217037Y-127244258D01*
X178422127Y-127724650D01*
X178628204Y-128267879D01*
X178712272Y-128507167D01*
X178810359Y-128787935D01*
X178908682Y-129061246D01*
X179000877Y-129310010D01*
X179080583Y-129517133D01*
X179141440Y-129665526D01*
X179153446Y-129692500D01*
X179373837Y-130085436D01*
X179656640Y-130448537D01*
X179986687Y-130765931D01*
X180348810Y-131021745D01*
X180503790Y-131105518D01*
X180690793Y-131191311D01*
X180858773Y-131250441D01*
X181032109Y-131287764D01*
X181235182Y-131308136D01*
X181492372Y-131316415D01*
X181566167Y-131317151D01*
X181795134Y-131315560D01*
X181961243Y-131305221D01*
X182086079Y-131283517D01*
X182191228Y-131247831D01*
X182211600Y-131238874D01*
X182358381Y-131162077D01*
X182524713Y-131059156D01*
X182695214Y-130941724D01*
X182854506Y-130821397D01*
X182987210Y-130709789D01*
X183077945Y-130618514D01*
X183111333Y-130559411D01*
X183074253Y-130531257D01*
X182974956Y-130483913D01*
X182831355Y-130425524D01*
X182752104Y-130396023D01*
X182452358Y-130280830D01*
X182214934Y-130172173D01*
X182019373Y-130058822D01*
X181845215Y-129929548D01*
X181748491Y-129845174D01*
X181507483Y-129572428D01*
X181313838Y-129236380D01*
X181164684Y-128831956D01*
X181154344Y-128795624D01*
X181148884Y-128774709D01*
X181678724Y-128774709D01*
X181715293Y-128888042D01*
X181788364Y-129034140D01*
X181888389Y-129197458D01*
X182005820Y-129362451D01*
X182131112Y-129513573D01*
X182254716Y-129635278D01*
X182258724Y-129638670D01*
X182370663Y-129718086D01*
X182523945Y-129808675D01*
X182657817Y-129877363D01*
X182764406Y-129925359D01*
X182871038Y-129966777D01*
X182992973Y-130005922D01*
X183145471Y-130047103D01*
X183343791Y-130094626D01*
X183603193Y-130152798D01*
X183738929Y-130182510D01*
X183915447Y-130239693D01*
X184010798Y-130318155D01*
X184026399Y-130420513D01*
X183963666Y-130549381D01*
X183948678Y-130569733D01*
X183821271Y-130720370D01*
X183653035Y-130897205D01*
X183468522Y-131076263D01*
X183292283Y-131233570D01*
X183169182Y-131330938D01*
X183071572Y-131410141D01*
X183015459Y-131473842D01*
X183009837Y-131498685D01*
X183067282Y-131545279D01*
X183183474Y-131610193D01*
X183337387Y-131683372D01*
X183508000Y-131754761D01*
X183660246Y-131809759D01*
X184030095Y-131902441D01*
X184456327Y-131960947D01*
X184917613Y-131984708D01*
X185392624Y-131973153D01*
X185860033Y-131925714D01*
X186146192Y-131876083D01*
X186379474Y-131823105D01*
X186650696Y-131753839D01*
X186917664Y-131679334D01*
X187048333Y-131639834D01*
X187484902Y-131511185D01*
X187868154Y-131417731D01*
X188219913Y-131355654D01*
X188562006Y-131321138D01*
X188916258Y-131310365D01*
X188932167Y-131310376D01*
X189189170Y-131314091D01*
X189399519Y-131327217D01*
X189591129Y-131354333D01*
X189791914Y-131400020D01*
X190029791Y-131468860D01*
X190173408Y-131514047D01*
X190235417Y-131528306D01*
X190257753Y-131503809D01*
X190250597Y-131421359D01*
X190243971Y-131380970D01*
X190148996Y-130993923D01*
X190000904Y-130619016D01*
X189808845Y-130270299D01*
X189581966Y-129961823D01*
X189329415Y-129707637D01*
X189060339Y-129521792D01*
X189020038Y-129501128D01*
X188732948Y-129381004D01*
X188482517Y-129326346D01*
X188250444Y-129338219D01*
X188018426Y-129417688D01*
X187768159Y-129565816D01*
X187755350Y-129574687D01*
X187383954Y-129811234D01*
X187029081Y-129986035D01*
X186663454Y-130109187D01*
X186259796Y-130190786D01*
X186005866Y-130222206D01*
X185376634Y-130244257D01*
X184744051Y-130185027D01*
X184116221Y-130047125D01*
X183501246Y-129833158D01*
X182907228Y-129545734D01*
X182342271Y-129187461D01*
X182020505Y-128939482D01*
X181885329Y-128832125D01*
X181774840Y-128752661D01*
X181704438Y-128711739D01*
X181688203Y-128709686D01*
X181678724Y-128774709D01*
X181148884Y-128774709D01*
X181124130Y-128679898D01*
X181101349Y-128568899D01*
X181085024Y-128448375D01*
X181074178Y-128304068D01*
X181067836Y-128121725D01*
X181065021Y-127887091D01*
X181064757Y-127585910D01*
X181064997Y-127491167D01*
X181068166Y-127166151D01*
X181075319Y-126826938D01*
X181085690Y-126497168D01*
X181098511Y-126200482D01*
X181113016Y-125960520D01*
X181115774Y-125924834D01*
X181137397Y-125585392D01*
X181152392Y-125197320D01*
X181160848Y-124778879D01*
X181162855Y-124348330D01*
X181158501Y-123923935D01*
X181147877Y-123523956D01*
X181131072Y-123166654D01*
X181108175Y-122870291D01*
X181100470Y-122798880D01*
X180992639Y-122072994D01*
X180846537Y-121419865D01*
X180660322Y-120835824D01*
X180432153Y-120317199D01*
X180160186Y-119860319D01*
X179842580Y-119461512D01*
X179477493Y-119117109D01*
X179124939Y-118862147D01*
X178885045Y-118708905D01*
X178861229Y-119014869D01*
X178849882Y-119180885D01*
X178836972Y-119401730D01*
X178824147Y-119647629D01*
X178813809Y-119871167D01*
X178776840Y-120466282D01*
X178717245Y-121089676D01*
X178638218Y-121718392D01*
X178542955Y-122329477D01*
X178434650Y-122899974D01*
X178327716Y-123363475D01*
X178259398Y-123607355D01*
X178167100Y-123903183D01*
X178058302Y-124229761D01*
X177940487Y-124565890D01*
X177821137Y-124890372D01*
X177707735Y-125182010D01*
X177607762Y-125419606D01*
X177582088Y-125475934D01*
X177504788Y-125644862D01*
X177443229Y-125785864D01*
X177405053Y-125881042D01*
X177396333Y-125910979D01*
X166687755Y-125910979D01*
X166904293Y-125702543D01*
X167432255Y-125093754D01*
X167899256Y-124427756D01*
X168303990Y-123707416D01*
X168645155Y-122935604D01*
X168921446Y-122115189D01*
X169131558Y-121249040D01*
X169248224Y-120546828D01*
X169276766Y-120269059D01*
X169297950Y-119928101D01*
X169311594Y-119545130D01*
X169317512Y-119141320D01*
X169315522Y-118737843D01*
X169305440Y-118355876D01*
X169300007Y-118255460D01*
X179357763Y-118255460D01*
X179369607Y-118295703D01*
X179433014Y-118361246D01*
X179453620Y-118377965D01*
X179821294Y-118709645D01*
X180169951Y-119115295D01*
X180493255Y-119585170D01*
X180784869Y-120109528D01*
X181038454Y-120678626D01*
X181154562Y-120993000D01*
X181286910Y-121405763D01*
X181397733Y-121816710D01*
X181487978Y-122235692D01*
X181558593Y-122672556D01*
X181610527Y-123137151D01*
X181644727Y-123639325D01*
X181662144Y-124188928D01*
X181663724Y-124795807D01*
X181650415Y-125469813D01*
X181633514Y-125967167D01*
X181620010Y-126303874D01*
X181606135Y-126628180D01*
X181592548Y-126926184D01*
X181579911Y-127183985D01*
X181568884Y-127387683D01*
X181560128Y-127523376D01*
X181558744Y-127540702D01*
X181533148Y-127844237D01*
X181930657Y-128242743D01*
X182109001Y-128414822D01*
X182296756Y-128584798D01*
X182471019Y-128732539D01*
X182603333Y-128834045D01*
X182928853Y-129046026D01*
X183280381Y-129246937D01*
X183636784Y-129426322D01*
X183976929Y-129573725D01*
X184279684Y-129678690D01*
X184348137Y-129697351D01*
X184522056Y-129724835D01*
X184756188Y-129738517D01*
X185027320Y-129739033D01*
X185312239Y-129727024D01*
X185587733Y-129703127D01*
X185830588Y-129667981D01*
X185896256Y-129654762D01*
X186183574Y-129579075D01*
X186494079Y-129475996D01*
X186798152Y-129356780D01*
X187066175Y-129232685D01*
X187198621Y-129159814D01*
X187540034Y-128906985D01*
X187839866Y-128586535D01*
X188091043Y-128208161D01*
X188286487Y-127781558D01*
X188354547Y-127575834D01*
X188394219Y-127424844D01*
X188439538Y-127227584D01*
X188486581Y-127004339D01*
X188531425Y-126775391D01*
X188570148Y-126561025D01*
X188598828Y-126381524D01*
X188613542Y-126257171D01*
X188614667Y-126230682D01*
X188602324Y-126199972D01*
X188558654Y-126214618D01*
X188473691Y-126280309D01*
X188377034Y-126366354D01*
X188112029Y-126594587D01*
X187872397Y-126764341D01*
X187636393Y-126884451D01*
X187382274Y-126963753D01*
X187088297Y-127011083D01*
X186732718Y-127035276D01*
X186730688Y-127035356D01*
X186399201Y-127041683D01*
X186129218Y-127029334D01*
X185898966Y-126994907D01*
X185686671Y-126935000D01*
X185470560Y-126846210D01*
X185445671Y-126834558D01*
X185255088Y-126731174D01*
X185078595Y-126605010D01*
X184912901Y-126450101D01*
X184754714Y-126260484D01*
X184600744Y-126030193D01*
X184447701Y-125753264D01*
X184292293Y-125423734D01*
X184131230Y-125035637D01*
X183961222Y-124583010D01*
X183778976Y-124059889D01*
X183581203Y-123460308D01*
X183577337Y-123448334D01*
X183393604Y-122890161D01*
X183224996Y-122402566D01*
X183066994Y-121973768D01*
X182915080Y-121591988D01*
X182764738Y-121245446D01*
X182611447Y-120922362D01*
X182598677Y-120896686D01*
X182270163Y-120305291D01*
X181913108Y-119791977D01*
X181525115Y-119354295D01*
X181103787Y-118989798D01*
X180646724Y-118696036D01*
X180267027Y-118515723D01*
X180050317Y-118431968D01*
X179838662Y-118358908D01*
X179647695Y-118301016D01*
X179493045Y-118262767D01*
X179390345Y-118248634D01*
X179357763Y-118255460D01*
X169300007Y-118255460D01*
X169287083Y-118016591D01*
X169271695Y-117839167D01*
X169151605Y-116964513D01*
X168972373Y-116062198D01*
X168740537Y-115157992D01*
X168462635Y-114277661D01*
X168176103Y-113521167D01*
X168053786Y-113224834D01*
X167634476Y-113246000D01*
X167324455Y-113257913D01*
X166984760Y-113264633D01*
X166636201Y-113266284D01*
X166299585Y-113262990D01*
X165995724Y-113254877D01*
X165745427Y-113242068D01*
X165648833Y-113234135D01*
X165310167Y-113201102D01*
X164892033Y-114227815D01*
X164473900Y-115254528D01*
X164543064Y-115615514D01*
X164606441Y-116147390D01*
X164593435Y-116667317D01*
X164507028Y-117167634D01*
X164350202Y-117640682D01*
X164125940Y-118078801D01*
X163837222Y-118474331D01*
X163487032Y-118819612D01*
X163217637Y-119020256D01*
X163074686Y-119118936D01*
X162952981Y-119210420D01*
X162875937Y-119276982D01*
X162869742Y-119283650D01*
X162843950Y-119333681D01*
X162788708Y-119456583D01*
X162706356Y-119646756D01*
X162599230Y-119898598D01*
X162469668Y-120206506D01*
X162320008Y-120564881D01*
X162152589Y-120968120D01*
X161969747Y-121410622D01*
X161773820Y-121886786D01*
X161567147Y-122391009D01*
X161352065Y-122917691D01*
X161311030Y-123018394D01*
X161059456Y-123636132D01*
X160838076Y-124180277D01*
X160645079Y-124655620D01*
X160478654Y-125066951D01*
X160336989Y-125419061D01*
X160218273Y-125716741D01*
X160120694Y-125964782D01*
X160042441Y-126167975D01*
X159981703Y-126331110D01*
X159936667Y-126458978D01*
X159905524Y-126556371D01*
X159886460Y-126628078D01*
X159877666Y-126678892D01*
X159877329Y-126713602D01*
X153280593Y-126713602D01*
X153016867Y-126221544D01*
X152760968Y-125593580D01*
X152547243Y-124893523D01*
X152375422Y-124120598D01*
X152357058Y-124019834D01*
X152317156Y-123734318D01*
X152284758Y-123375985D01*
X152259785Y-122956343D01*
X152242160Y-122486901D01*
X152231806Y-121979167D01*
X152228643Y-121444650D01*
X152232596Y-120894860D01*
X152243585Y-120341304D01*
X152261534Y-119795491D01*
X152286364Y-119268931D01*
X152314997Y-118820146D01*
X156812776Y-118820146D01*
X156814453Y-119107223D01*
X156818489Y-119409431D01*
X156824778Y-119715189D01*
X156833215Y-120012915D01*
X156843692Y-120291031D01*
X156856105Y-120537954D01*
X156868241Y-120716467D01*
X156918165Y-121134102D01*
X157002831Y-121604143D01*
X157116537Y-122104613D01*
X157253583Y-122613535D01*
X157408267Y-123108930D01*
X157574889Y-123568823D01*
X157665034Y-123788210D01*
X157777477Y-124040171D01*
X157866983Y-124217827D01*
X157938220Y-124326912D01*
X157995856Y-124373162D01*
X158044559Y-124362313D01*
X158086150Y-124305584D01*
X158108755Y-124253953D01*
X158159735Y-124132210D01*
X158235683Y-123948718D01*
X158333193Y-123711840D01*
X158448859Y-123429940D01*
X158579274Y-123111380D01*
X158721032Y-122764524D01*
X158870726Y-122397735D01*
X159024951Y-122019376D01*
X159180299Y-121637810D01*
X159333364Y-121261401D01*
X159480741Y-120898512D01*
X159619022Y-120557506D01*
X159744801Y-120246746D01*
X159854672Y-119974596D01*
X159945228Y-119749418D01*
X160013063Y-119579577D01*
X160054771Y-119473434D01*
X160061234Y-119456452D01*
X160102409Y-119318842D01*
X160106785Y-119230953D01*
X160098237Y-119214304D01*
X160044797Y-119190018D01*
X159925283Y-119150476D01*
X159755850Y-119100598D01*
X159552653Y-119045303D01*
X159488485Y-119028639D01*
X159070783Y-118915545D01*
X158697923Y-118800375D01*
X158341315Y-118672836D01*
X157972371Y-118522635D01*
X157562501Y-118339477D01*
X157520833Y-118320192D01*
X157305932Y-118221125D01*
X157116899Y-118135197D01*
X156967494Y-118068566D01*
X156871477Y-118027391D01*
X156843500Y-118017032D01*
X156831787Y-118054750D01*
X156822965Y-118165501D01*
X156816926Y-118337704D01*
X156813565Y-118559779D01*
X156812776Y-118820146D01*
X152314997Y-118820146D01*
X152317997Y-118773132D01*
X152356357Y-118319602D01*
X152398107Y-117945000D01*
X152474576Y-117384162D01*
X152564825Y-116782181D01*
X152664399Y-116166021D01*
X152768839Y-115562644D01*
X152873687Y-114999014D01*
X152940477Y-114664167D01*
X153079997Y-113986834D01*
X152900240Y-113435776D01*
X152671472Y-112610208D01*
X152517416Y-111771302D01*
X152453308Y-111092787D01*
X158548875Y-111092787D01*
X158960393Y-111479011D01*
X159445156Y-111924058D01*
X159887453Y-112308342D01*
X160296066Y-112638498D01*
X160679773Y-112921160D01*
X161047355Y-113162962D01*
X161407592Y-113370539D01*
X161584833Y-113462140D01*
X161831186Y-113580511D01*
X162035428Y-113669919D01*
X162187420Y-113726254D01*
X162277026Y-113745406D01*
X162282716Y-113745057D01*
X162321547Y-113733825D01*
X162359888Y-113702953D01*
X162403161Y-113642423D01*
X162456791Y-113542220D01*
X162526199Y-113392327D01*
X162616810Y-113182727D01*
X162719376Y-112938582D01*
X162822116Y-112688311D01*
X162914174Y-112456362D01*
X162990098Y-112257090D01*
X163044440Y-112104855D01*
X163071747Y-112014011D01*
X163073149Y-112006725D01*
X163075240Y-111909073D01*
X163041429Y-111806201D01*
X162962204Y-111671357D01*
X162944345Y-111644533D01*
X162762464Y-111304265D01*
X162635995Y-110905248D01*
X162564161Y-110444677D01*
X162549556Y-110219167D01*
X162559010Y-109712504D01*
X162631294Y-109260884D01*
X162767952Y-108860939D01*
X162970525Y-108509298D01*
X163240556Y-108202592D01*
X163579585Y-107937453D01*
X163599737Y-107924349D01*
X163721293Y-107839850D01*
X163806014Y-107769012D01*
X163836605Y-107726406D01*
X163836323Y-107725007D01*
X163790058Y-107687316D01*
X163680381Y-107632182D01*
X163525047Y-107566253D01*
X163341811Y-107496180D01*
X163148428Y-107428612D01*
X162962652Y-107370197D01*
X162802239Y-107327585D01*
X162741864Y-107315123D01*
X162512924Y-107287101D01*
X162315719Y-107295506D01*
X162232882Y-107309536D01*
X161793425Y-107436284D01*
X161362324Y-107638682D01*
X160938231Y-107918017D01*
X160519797Y-108275575D01*
X160105675Y-108712643D01*
X159694518Y-109230508D01*
X159284977Y-109830456D01*
X158875705Y-110513773D01*
X158874738Y-110515486D01*
X158548875Y-111092787D01*
X152453308Y-111092787D01*
X152437643Y-110926991D01*
X152431725Y-110085208D01*
X152499234Y-109253885D01*
X152639742Y-108440954D01*
X152852820Y-107654348D01*
X153138041Y-106902000D01*
X153268129Y-106620834D01*
X153660796Y-105909327D01*
X154135573Y-105216471D01*
X154691834Y-104542933D01*
X155328954Y-103889378D01*
X156046307Y-103256472D01*
X156843268Y-102644884D01*
X157288000Y-102336135D01*
X157732500Y-102037655D01*
X157890384Y-101577578D01*
X157896944Y-101557614D01*
X172002934Y-101557614D01*
X172005770Y-101901092D01*
X172013048Y-102224604D01*
X172024774Y-102510730D01*
X172040960Y-102742051D01*
X172053645Y-102853167D01*
X172141381Y-103318180D01*
X172273641Y-103822204D01*
X172441771Y-104338368D01*
X172637115Y-104839801D01*
X172824914Y-105248046D01*
X172941348Y-105476970D01*
X173052522Y-105688488D01*
X173151873Y-105870806D01*
X173232837Y-106012129D01*
X173288851Y-106100664D01*
X173312976Y-106125135D01*
X173320812Y-106080516D01*
X173333428Y-105966721D01*
X173349325Y-105799009D01*
X173367003Y-105592637D01*
X173374564Y-105498530D01*
X173410169Y-105098261D01*
X173451971Y-104749766D01*
X173504700Y-104434313D01*
X173549997Y-104234849D01*
X174083319Y-104234849D01*
X174259818Y-104648200D01*
X174598089Y-105336545D01*
X175015202Y-106005165D01*
X175506458Y-106648095D01*
X176067158Y-107259368D01*
X176692602Y-107833019D01*
X176906734Y-108008532D01*
X177110396Y-108169157D01*
X177257325Y-108280208D01*
X177355404Y-108346821D01*
X177412516Y-108374131D01*
X177436543Y-108367275D01*
X177438667Y-108355093D01*
X177421230Y-108307552D01*
X177376510Y-108210012D01*
X177338731Y-108132843D01*
X177276265Y-107993206D01*
X177203824Y-107809339D01*
X177135830Y-107618090D01*
X177128035Y-107594500D01*
X176944055Y-106903812D01*
X176844170Y-106211927D01*
X176828212Y-105515267D01*
X176839310Y-105399859D01*
X177498288Y-105399859D01*
X177502900Y-105651002D01*
X177516067Y-105954329D01*
X177520172Y-106028167D01*
X177553872Y-106471919D01*
X177600273Y-106841045D01*
X177661140Y-107144875D01*
X177738239Y-107392742D01*
X177807358Y-107546732D01*
X177876566Y-107679167D01*
X177915307Y-107532012D01*
X177928316Y-107436714D01*
X177937269Y-107276799D01*
X177941543Y-107072250D01*
X177940517Y-106843046D01*
X177939024Y-106770012D01*
X177932256Y-106527427D01*
X177923984Y-106353145D01*
X177911573Y-106230813D01*
X177892384Y-106144073D01*
X177863780Y-106076572D01*
X177823125Y-106011954D01*
X177814898Y-106000183D01*
X177752473Y-105892467D01*
X177712587Y-105767321D01*
X177687516Y-105596713D01*
X177679994Y-105510596D01*
X177661133Y-105332607D01*
X177635219Y-105172278D01*
X177607456Y-105061013D01*
X177603964Y-105051746D01*
X177553737Y-104927500D01*
X177514971Y-105096834D01*
X177502293Y-105211577D01*
X177498288Y-105399859D01*
X176839310Y-105399859D01*
X176896012Y-104810255D01*
X176976772Y-104381992D01*
X177021665Y-104146951D01*
X177031184Y-103969638D01*
X176998548Y-103828087D01*
X176916978Y-103700335D01*
X176779693Y-103564415D01*
X176704593Y-103500280D01*
X176547188Y-103377158D01*
X176351450Y-103236511D01*
X176130000Y-103086122D01*
X175895457Y-102933774D01*
X175660444Y-102787252D01*
X175437581Y-102654338D01*
X175239489Y-102542816D01*
X175078790Y-102460468D01*
X174968103Y-102415079D01*
X174934503Y-102408667D01*
X174890540Y-102446293D01*
X174821315Y-102551831D01*
X174732224Y-102714269D01*
X174628660Y-102922598D01*
X174516018Y-103165807D01*
X174399690Y-103432884D01*
X174285072Y-103712820D01*
X174243512Y-103819175D01*
X174083319Y-104234849D01*
X173549997Y-104234849D01*
X173573087Y-104133173D01*
X173661860Y-103827615D01*
X173775750Y-103498910D01*
X173919486Y-103128327D01*
X174058127Y-102791547D01*
X174351405Y-102091167D01*
X174229763Y-101985334D01*
X174134132Y-101907866D01*
X173997399Y-101803985D01*
X173848143Y-101695373D01*
X173839160Y-101689000D01*
X173476527Y-101400780D01*
X173125200Y-101062779D01*
X172802683Y-100694829D01*
X172526480Y-100316766D01*
X172328402Y-99977213D01*
X172251887Y-99833531D01*
X172195324Y-99755799D01*
X172152821Y-99747750D01*
X172118488Y-99813116D01*
X172086434Y-99955629D01*
X172055043Y-100150428D01*
X172035812Y-100332438D01*
X172020977Y-100581582D01*
X172010546Y-100880439D01*
X172004529Y-101211590D01*
X172002934Y-101557614D01*
X157896944Y-101557614D01*
X157993819Y-101262830D01*
X158084541Y-100954860D01*
X158163447Y-100645652D01*
X158231434Y-100327192D01*
X158289402Y-99991467D01*
X158338247Y-99630462D01*
X158378867Y-99236163D01*
X158412161Y-98800557D01*
X158437770Y-98338295D01*
X172225792Y-98338295D01*
X172320541Y-98690731D01*
X172509312Y-99266881D01*
X172753036Y-99803367D01*
X173045774Y-100290063D01*
X173381591Y-100716840D01*
X173681188Y-101011727D01*
X173848676Y-101151235D01*
X174032293Y-101291187D01*
X174241890Y-101438012D01*
X174487321Y-101598139D01*
X174778437Y-101777997D01*
X175125090Y-101984017D01*
X175533667Y-102220639D01*
X176007292Y-102496559D01*
X176411052Y-102741451D01*
X176751691Y-102960337D01*
X177035953Y-103158236D01*
X177270583Y-103340170D01*
X177462325Y-103511160D01*
X177617922Y-103676225D01*
X177744119Y-103840387D01*
X177778083Y-103891502D01*
X177874749Y-104030160D01*
X177939071Y-104091148D01*
X177973817Y-104073841D01*
X177981759Y-103977609D01*
X177971172Y-103847758D01*
X177949510Y-103703651D01*
X177912462Y-103525446D01*
X177857965Y-103305701D01*
X177783957Y-103036974D01*
X177688376Y-102711821D01*
X177569160Y-102322801D01*
X177424247Y-101862471D01*
X177399970Y-101786194D01*
X177264939Y-101360779D01*
X177152403Y-101001424D01*
X177058341Y-100693781D01*
X176978732Y-100423502D01*
X176909555Y-100176240D01*
X176846791Y-99937647D01*
X176786418Y-99693374D01*
X176724416Y-99429075D01*
X176660848Y-99148632D01*
X176586078Y-98809651D01*
X176523184Y-98507979D01*
X176471111Y-98231879D01*
X176428804Y-97969615D01*
X176395207Y-97709449D01*
X176381343Y-97565267D01*
X176803667Y-97565267D01*
X176817144Y-97716168D01*
X176858020Y-97931459D01*
X176926958Y-98213532D01*
X177024622Y-98564783D01*
X177151678Y-98987608D01*
X177308790Y-99484400D01*
X177487303Y-100029496D01*
X177612134Y-100400612D01*
X177720940Y-100713871D01*
X177811994Y-100964657D01*
X177883568Y-101148357D01*
X177933934Y-101260356D01*
X177961363Y-101296039D01*
X177961553Y-101295982D01*
X177999035Y-101251864D01*
X178057039Y-101148199D01*
X178125176Y-101004264D01*
X178150879Y-100944654D01*
X178420575Y-100244474D01*
X178663703Y-99497216D01*
X178874712Y-98725235D01*
X179048052Y-97950886D01*
X179178169Y-97196523D01*
X179259514Y-96484501D01*
X179260014Y-96478276D01*
X179275779Y-96232035D01*
X179287001Y-95954134D01*
X179293845Y-95657247D01*
X179296474Y-95354046D01*
X179295054Y-95057204D01*
X179289747Y-94779394D01*
X179280720Y-94533288D01*
X179268135Y-94331559D01*
X179252158Y-94186880D01*
X179232952Y-94111923D01*
X179229273Y-94106920D01*
X179167250Y-94076946D01*
X179043237Y-94038809D01*
X178878692Y-93998675D01*
X178784773Y-93979169D01*
X178574029Y-93938672D01*
X178432546Y-93914267D01*
X178346649Y-93905004D01*
X178302664Y-93909937D01*
X178286916Y-93928116D01*
X178285333Y-93944543D01*
X178268249Y-93993464D01*
X178220065Y-94108735D01*
X178145382Y-94279937D01*
X178048803Y-94496650D01*
X177934930Y-94748454D01*
X177808365Y-95024928D01*
X177803899Y-95034627D01*
X177581444Y-95519525D01*
X177393157Y-95934754D01*
X177236430Y-96286909D01*
X177108658Y-96582584D01*
X177007233Y-96828374D01*
X176929549Y-97030873D01*
X176873000Y-97196677D01*
X176834979Y-97332379D01*
X176812880Y-97444575D01*
X176804095Y-97539859D01*
X176803667Y-97565267D01*
X176381343Y-97565267D01*
X176369263Y-97439646D01*
X176349917Y-97148468D01*
X176336113Y-96824180D01*
X176326795Y-96455044D01*
X176320907Y-96029324D01*
X176317394Y-95535283D01*
X176316554Y-95347104D01*
X176683128Y-95347104D01*
X176683387Y-95609392D01*
X176687377Y-95838250D01*
X176695451Y-96020556D01*
X176705470Y-96126842D01*
X176734273Y-96333834D01*
X176871713Y-96035880D01*
X176926870Y-95905058D01*
X177001948Y-95710878D01*
X177090653Y-95470490D01*
X177186687Y-95201041D01*
X177283753Y-94919680D01*
X177308577Y-94846112D01*
X177396163Y-94580473D01*
X177473641Y-94336362D01*
X177537040Y-94127044D01*
X177582390Y-93965786D01*
X177605721Y-93865854D01*
X177608000Y-93845680D01*
X177605383Y-93795438D01*
X177588426Y-93759086D01*
X177543472Y-93731386D01*
X177456864Y-93707101D01*
X177314944Y-93680993D01*
X177104055Y-93647825D01*
X177084033Y-93644746D01*
X176936683Y-93625154D01*
X176825484Y-93616102D01*
X176773555Y-93619435D01*
X176772975Y-93619914D01*
X176756105Y-93677264D01*
X176740140Y-93806156D01*
X176725433Y-93993470D01*
X176712337Y-94226084D01*
X176701205Y-94490876D01*
X176692390Y-94774725D01*
X176686247Y-95064508D01*
X176683128Y-95347104D01*
X176316554Y-95347104D01*
X176316434Y-95320245D01*
X176309044Y-93459990D01*
X175701366Y-93256879D01*
X175452013Y-93175715D01*
X175272321Y-93122813D01*
X175152950Y-93095979D01*
X175084562Y-93093019D01*
X175060326Y-93106301D01*
X175045050Y-93170588D01*
X175033285Y-93296344D01*
X175026920Y-93460386D01*
X175026315Y-93523705D01*
X174984140Y-94104755D01*
X174859361Y-94682565D01*
X174651492Y-95258440D01*
X174360046Y-95833680D01*
X173984535Y-96409589D01*
X173909044Y-96512004D01*
X173771726Y-96685020D01*
X173589531Y-96899820D01*
X173378006Y-97138883D01*
X173152697Y-97384686D01*
X172929154Y-97619707D01*
X172896131Y-97653564D01*
X172225792Y-98338295D01*
X158437770Y-98338295D01*
X158439026Y-98315628D01*
X158443412Y-98204119D01*
X171554333Y-98204119D01*
X171573639Y-98229941D01*
X171634204Y-98206030D01*
X171740002Y-98129455D01*
X171895006Y-97997286D01*
X172103189Y-97806590D01*
X172139971Y-97772077D01*
X172412637Y-97502144D01*
X172704511Y-97190082D01*
X172994233Y-96860178D01*
X173260446Y-96536719D01*
X173473115Y-96256134D01*
X173634387Y-96010767D01*
X173801399Y-95721345D01*
X173963002Y-95410423D01*
X174108045Y-95100559D01*
X174225380Y-94814308D01*
X174303121Y-94577000D01*
X174361971Y-94318704D01*
X174410086Y-94034764D01*
X174446116Y-93742775D01*
X174468711Y-93460335D01*
X174476521Y-93205037D01*
X174468196Y-92994480D01*
X174442386Y-92846257D01*
X174437075Y-92830884D01*
X174381234Y-92754974D01*
X174274946Y-92657578D01*
X174142610Y-92556788D01*
X174008626Y-92470696D01*
X173897394Y-92417395D01*
X173869478Y-92410023D01*
X173845422Y-92408835D01*
X173821369Y-92418712D01*
X173793931Y-92446818D01*
X173759721Y-92500319D01*
X173715349Y-92586379D01*
X173657429Y-92712164D01*
X173582571Y-92884839D01*
X173487388Y-93111568D01*
X173368491Y-93399516D01*
X173222493Y-93755849D01*
X173155052Y-93920834D01*
X172868859Y-94625037D01*
X172608266Y-95274159D01*
X172374189Y-95865751D01*
X172167542Y-96397367D01*
X171989238Y-96866561D01*
X171840193Y-97270885D01*
X171721321Y-97607895D01*
X171633536Y-97875142D01*
X171577752Y-98070180D01*
X171554883Y-98190564D01*
X171554333Y-98204119D01*
X158443412Y-98204119D01*
X158460359Y-97773363D01*
X158477059Y-97165748D01*
X158490023Y-96484768D01*
X158494424Y-96185667D01*
X158498350Y-95800247D01*
X158500047Y-95394447D01*
X158499679Y-94977039D01*
X158497408Y-94556798D01*
X158493397Y-94142497D01*
X158487808Y-93742910D01*
X158480804Y-93366810D01*
X158472549Y-93022972D01*
X158463205Y-92720169D01*
X158452934Y-92467174D01*
X158441900Y-92272762D01*
X158430266Y-92145706D01*
X158418524Y-92095080D01*
X158365385Y-92091880D01*
X158238244Y-92108147D01*
X158045096Y-92142271D01*
X157793939Y-92192640D01*
X157492771Y-92257644D01*
X157149590Y-92335670D01*
X156772391Y-92425110D01*
X156733567Y-92434508D01*
X156076350Y-92591411D01*
X155487469Y-92725814D01*
X154954113Y-92839382D01*
X154463473Y-92933780D01*
X154002740Y-93010674D01*
X153559103Y-93071727D01*
X153119754Y-93118606D01*
X152671881Y-93152974D01*
X152202677Y-93176497D01*
X151699330Y-93190840D01*
X151149032Y-93197667D01*
X150853333Y-93198781D01*
X149265833Y-93201167D01*
X148614620Y-93060890D01*
X148153476Y-92954435D01*
X147753922Y-92845277D01*
X147393019Y-92725885D01*
X147047830Y-92588727D01*
X146723641Y-92440001D01*
X146182406Y-92138932D01*
X145696568Y-91785328D01*
X145262718Y-91375057D01*
X144877444Y-90903991D01*
X144537335Y-90367997D01*
X144365945Y-90020423D01*
X169694980Y-90020423D01*
X169730518Y-90484592D01*
X169813136Y-90892983D01*
X169853338Y-91021000D01*
X169945035Y-91269892D01*
X170051924Y-91536693D01*
X170168567Y-91810107D01*
X170289527Y-92078835D01*
X170409368Y-92331580D01*
X170522650Y-92557046D01*
X170623938Y-92743934D01*
X170707794Y-92880947D01*
X170768781Y-92956788D01*
X170790575Y-92968334D01*
X170822930Y-92932704D01*
X170876866Y-92839162D01*
X170940875Y-92707729D01*
X170942676Y-92703750D01*
X170992010Y-92590552D01*
X171067065Y-92413137D01*
X171161894Y-92185811D01*
X171267625Y-91929963D01*
X173966220Y-91929963D01*
X174062027Y-92006213D01*
X174130460Y-92049711D01*
X174260408Y-92122731D01*
X174437384Y-92217490D01*
X174646897Y-92326202D01*
X174831157Y-92419467D01*
X175185781Y-92590021D01*
X175526413Y-92737801D01*
X175869440Y-92868173D01*
X176231252Y-92986501D01*
X176628236Y-93098150D01*
X177076783Y-93208484D01*
X177586833Y-93321496D01*
X177688878Y-93335632D01*
X177815774Y-93344403D01*
X177816353Y-93344423D01*
X177871475Y-93343627D01*
X177893381Y-93331364D01*
X177874918Y-93299874D01*
X177808931Y-93241397D01*
X177699426Y-93156794D01*
X178624000Y-93156794D01*
X178647266Y-93223414D01*
X178724767Y-93298653D01*
X178868058Y-93393392D01*
X178887620Y-93405049D01*
X179039017Y-93492793D01*
X179134427Y-93541340D01*
X179189655Y-93556378D01*
X179220503Y-93543598D01*
X179231535Y-93528858D01*
X179233126Y-93475587D01*
X179221527Y-93358010D01*
X179199711Y-93194928D01*
X179170652Y-93005145D01*
X179137324Y-92807463D01*
X179102700Y-92620685D01*
X179069755Y-92463613D01*
X179051108Y-92388038D01*
X179012536Y-92272987D01*
X178973444Y-92196613D01*
X178961516Y-92184456D01*
X178922480Y-92169214D01*
X178920147Y-92172085D01*
X178907405Y-92214999D01*
X178873018Y-92321245D01*
X178822504Y-92473961D01*
X178771980Y-92624828D01*
X178711230Y-92813506D01*
X178662567Y-92980224D01*
X178631813Y-93104049D01*
X178624000Y-93156794D01*
X177699426Y-93156794D01*
X177688266Y-93148172D01*
X177520019Y-93022977D01*
X177345238Y-92885249D01*
X177130835Y-92703225D01*
X176895756Y-92493746D01*
X176658944Y-92273659D01*
X176460622Y-92081060D01*
X176398486Y-92018356D01*
X176920241Y-92018356D01*
X177270808Y-92292262D01*
X177494713Y-92463145D01*
X177685096Y-92600334D01*
X177833080Y-92697819D01*
X177929789Y-92749588D01*
X177956163Y-92756450D01*
X177994687Y-92722928D01*
X178044818Y-92641842D01*
X178045625Y-92640250D01*
X178097227Y-92518970D01*
X178164659Y-92332173D01*
X178242662Y-92096341D01*
X178325980Y-91827956D01*
X178409355Y-91543501D01*
X178487529Y-91259456D01*
X178494606Y-91232667D01*
X178690043Y-90418335D01*
X178842715Y-89627033D01*
X178952550Y-88864462D01*
X179019473Y-88136322D01*
X179043412Y-87448316D01*
X179024293Y-86806145D01*
X178962044Y-86215510D01*
X178856591Y-85682112D01*
X178707860Y-85211653D01*
X178575688Y-84918457D01*
X178490931Y-84767771D01*
X178396179Y-84618299D01*
X178301576Y-84483488D01*
X178217266Y-84376784D01*
X178153392Y-84311635D01*
X178120098Y-84301488D01*
X178117590Y-84311167D01*
X178113243Y-84365689D01*
X178102451Y-84489513D01*
X178086550Y-84667631D01*
X178066877Y-84885039D01*
X178051628Y-85052000D01*
X178017768Y-85402329D01*
X177981200Y-85738691D01*
X177940271Y-86071022D01*
X177893326Y-86409257D01*
X177838713Y-86763329D01*
X177774778Y-87143174D01*
X177699867Y-87558727D01*
X177612327Y-88019921D01*
X177510505Y-88536691D01*
X177392746Y-89118973D01*
X177297719Y-89581667D01*
X177177311Y-90188559D01*
X177081513Y-90724519D01*
X177008757Y-91199136D01*
X176957474Y-91621997D01*
X176947823Y-91720762D01*
X176920241Y-92018356D01*
X176398486Y-92018356D01*
X176226547Y-91844848D01*
X176039671Y-91647221D01*
X175884647Y-91469700D01*
X175746127Y-91293807D01*
X175608761Y-91101062D01*
X175457204Y-90872987D01*
X175457104Y-90872834D01*
X175275819Y-90594348D01*
X175134816Y-90378974D01*
X175028466Y-90218687D01*
X174951135Y-90105461D01*
X174897194Y-90031272D01*
X174861009Y-89988095D01*
X174836950Y-89967906D01*
X174819385Y-89962680D01*
X174818371Y-89962667D01*
X174799778Y-89977273D01*
X174769829Y-90025356D01*
X174725698Y-90113314D01*
X174664556Y-90247546D01*
X174583577Y-90434450D01*
X174479934Y-90680423D01*
X174350798Y-90991864D01*
X174193343Y-91375171D01*
X174182605Y-91401398D01*
X173966220Y-91929963D01*
X171267625Y-91929963D01*
X171270553Y-91922880D01*
X171387095Y-91638650D01*
X171472551Y-91428841D01*
X171882853Y-90418515D01*
X171735400Y-90158841D01*
X171566284Y-89850468D01*
X171393292Y-89515851D01*
X171220990Y-89165544D01*
X171053941Y-88810103D01*
X170896710Y-88460082D01*
X170753862Y-88126035D01*
X170629962Y-87818518D01*
X170529573Y-87548084D01*
X170457261Y-87325290D01*
X170417591Y-87160688D01*
X170411333Y-87097226D01*
X170398950Y-87017254D01*
X170364814Y-87009619D01*
X170313448Y-87066169D01*
X170249371Y-87178754D01*
X170177104Y-87339223D01*
X170101170Y-87539425D01*
X170026088Y-87771210D01*
X170013206Y-87814988D01*
X169865636Y-88397758D01*
X169763060Y-88966554D01*
X169706001Y-89510926D01*
X169694980Y-90020423D01*
X144365945Y-90020423D01*
X144238982Y-89762947D01*
X143997256Y-89138311D01*
X143879618Y-88771762D01*
X143793962Y-88438858D01*
X143736161Y-88113454D01*
X143702088Y-87769402D01*
X143687618Y-87380555D01*
X143686427Y-87168667D01*
X143693185Y-86784759D01*
X143714463Y-86461289D01*
X143754416Y-86174665D01*
X143817198Y-85901294D01*
X143906967Y-85617586D01*
X144005887Y-85354983D01*
X144256373Y-84795565D01*
X144552959Y-84271710D01*
X144905606Y-83768726D01*
X145324276Y-83271924D01*
X145532409Y-83054550D01*
X170455013Y-83054550D01*
X170458147Y-83261163D01*
X170467942Y-83534650D01*
X170483277Y-83857578D01*
X170503027Y-84212512D01*
X170526069Y-84582018D01*
X170551281Y-84948663D01*
X170577540Y-85295013D01*
X170603722Y-85603633D01*
X170628704Y-85857091D01*
X170643680Y-85983334D01*
X170718949Y-86408314D01*
X170839864Y-86892677D01*
X171003581Y-87426402D01*
X171207251Y-87999469D01*
X171243141Y-88093584D01*
X171335387Y-88326009D01*
X171439938Y-88577386D01*
X171551358Y-88835909D01*
X171664213Y-89089770D01*
X171773069Y-89327165D01*
X171872493Y-89536286D01*
X171957050Y-89705329D01*
X172021305Y-89822487D01*
X172059826Y-89875953D01*
X172064476Y-89878000D01*
X172092021Y-89841276D01*
X172144021Y-89741156D01*
X172213147Y-89592718D01*
X172292070Y-89411040D01*
X172295975Y-89401750D01*
X172352802Y-89265382D01*
X175110333Y-89265382D01*
X175133900Y-89375318D01*
X175199969Y-89541856D01*
X175301587Y-89752870D01*
X175431805Y-89996237D01*
X175583672Y-90259833D01*
X175750237Y-90531536D01*
X175924550Y-90799221D01*
X176099661Y-91050764D01*
X176244269Y-91243250D01*
X176356475Y-91381656D01*
X176430824Y-91457961D01*
X176478177Y-91479310D01*
X176509396Y-91452845D01*
X176521667Y-91425707D01*
X176536219Y-91365860D01*
X176562250Y-91237152D01*
X176596982Y-91054182D01*
X176637638Y-90831547D01*
X176676742Y-90610791D01*
X176720874Y-90367123D01*
X176778951Y-90060029D01*
X176847169Y-89708868D01*
X176921724Y-89333001D01*
X176998813Y-88951787D01*
X177074630Y-88584585D01*
X177078586Y-88565667D01*
X177176381Y-88096143D01*
X177257807Y-87697299D01*
X177324362Y-87357056D01*
X177377547Y-87063335D01*
X177418860Y-86804056D01*
X177449800Y-86567139D01*
X177471866Y-86340507D01*
X177486559Y-86112078D01*
X177495376Y-85869775D01*
X177499818Y-85601517D01*
X177501383Y-85295225D01*
X177501540Y-85157834D01*
X177499828Y-84716229D01*
X177493978Y-84355106D01*
X177483717Y-84070366D01*
X177468770Y-83857914D01*
X177448863Y-83713651D01*
X177423720Y-83633480D01*
X177398043Y-83612667D01*
X177368748Y-83649370D01*
X177315553Y-83749180D01*
X177246138Y-83896649D01*
X177171775Y-84067750D01*
X177074019Y-84303054D01*
X176965357Y-84568298D01*
X176850544Y-84851497D01*
X176734334Y-85140668D01*
X176621484Y-85423825D01*
X176516747Y-85688984D01*
X176424880Y-85924159D01*
X176350638Y-86117367D01*
X176298774Y-86256622D01*
X176274045Y-86329939D01*
X176273716Y-86331217D01*
X176270048Y-86387612D01*
X176296443Y-86446636D01*
X176363962Y-86522484D01*
X176483668Y-86629352D01*
X176548553Y-86683891D01*
X176748409Y-86858978D01*
X176880542Y-86996158D01*
X176949696Y-87101311D01*
X176960614Y-87180314D01*
X176957390Y-87190618D01*
X176892460Y-87248190D01*
X176747937Y-87297421D01*
X176528588Y-87337135D01*
X176245941Y-87365670D01*
X176075207Y-87380635D01*
X175936137Y-87397389D01*
X175850922Y-87413082D01*
X175837240Y-87418196D01*
X175806677Y-87466144D01*
X175752591Y-87579724D01*
X175680457Y-87745023D01*
X175595750Y-87948127D01*
X175503946Y-88175124D01*
X175410519Y-88412100D01*
X175320946Y-88645142D01*
X175240700Y-88860335D01*
X175175258Y-89043767D01*
X175130095Y-89181525D01*
X175110685Y-89259695D01*
X175110333Y-89265382D01*
X172352802Y-89265382D01*
X172426025Y-89089672D01*
X172561782Y-88759831D01*
X172699467Y-88421782D01*
X172835302Y-88085079D01*
X172965508Y-87759274D01*
X173086308Y-87453923D01*
X173193922Y-87178578D01*
X173284572Y-86942793D01*
X173354481Y-86756123D01*
X173399868Y-86628120D01*
X173416956Y-86568338D01*
X173417000Y-86567271D01*
X173384910Y-86505710D01*
X173301153Y-86417249D01*
X173194750Y-86329481D01*
X173049820Y-86209861D01*
X172864474Y-86038353D01*
X172651797Y-85828693D01*
X172424873Y-85594614D01*
X172196787Y-85349850D01*
X171980623Y-85108137D01*
X171789465Y-84883208D01*
X171653669Y-84711845D01*
X171341497Y-84259152D01*
X171036517Y-83739265D01*
X170748947Y-83169603D01*
X170748275Y-83168167D01*
X170668409Y-83003874D01*
X170593570Y-82861089D01*
X170536404Y-82763594D01*
X170523119Y-82744834D01*
X170492042Y-82711404D01*
X170472358Y-82714740D01*
X170461398Y-82766979D01*
X170456493Y-82880261D01*
X170455013Y-83054550D01*
X145532409Y-83054550D01*
X145646558Y-82935334D01*
X145999510Y-82597883D01*
X146377499Y-82267224D01*
X146789410Y-81936769D01*
X147244129Y-81599930D01*
X147750541Y-81250120D01*
X148317533Y-80880749D01*
X148938464Y-80494694D01*
X149421780Y-80194853D01*
X149840738Y-79922995D01*
X150207204Y-79670246D01*
X150533042Y-79427731D01*
X150830119Y-79186576D01*
X151065997Y-78977227D01*
X153765540Y-78977227D01*
X153778998Y-79004791D01*
X153852766Y-79021799D01*
X153992638Y-79026210D01*
X154181174Y-79019183D01*
X154400935Y-79001877D01*
X154634482Y-78975448D01*
X154864377Y-78941057D01*
X154938500Y-78927776D01*
X155457397Y-78789996D01*
X155756546Y-78665611D01*
X169298110Y-78665611D01*
X169575824Y-79202389D01*
X169693822Y-79439069D01*
X169829002Y-79724008D01*
X169967305Y-80026778D01*
X170094668Y-80316947D01*
X170136823Y-80416500D01*
X170256667Y-80702848D01*
X170390612Y-81022566D01*
X170524597Y-81342108D01*
X170644561Y-81627931D01*
X170678058Y-81707667D01*
X170812347Y-82017152D01*
X170966177Y-82354794D01*
X171132306Y-82706069D01*
X171303491Y-83056456D01*
X171472490Y-83391434D01*
X171632059Y-83696481D01*
X171774956Y-83957076D01*
X171893938Y-84158696D01*
X171923770Y-84205334D01*
X172055154Y-84396217D01*
X172206786Y-84602805D01*
X172347864Y-84783250D01*
X172360003Y-84798000D01*
X172470367Y-84926156D01*
X172611535Y-85082472D01*
X172773051Y-85256204D01*
X172944458Y-85436605D01*
X173115302Y-85612929D01*
X173275125Y-85774431D01*
X173413473Y-85910365D01*
X173519890Y-86009984D01*
X173583920Y-86062543D01*
X173595714Y-86068000D01*
X173629645Y-86032157D01*
X173686086Y-85937007D01*
X173754323Y-85801117D01*
X173772821Y-85761084D01*
X173843295Y-85601990D01*
X173934261Y-85391084D01*
X174034346Y-85154994D01*
X174132176Y-84920350D01*
X174138989Y-84903834D01*
X174365820Y-84353500D01*
X174367660Y-82067500D01*
X174367818Y-81526972D01*
X174366882Y-81062646D01*
X174364142Y-80666059D01*
X174358886Y-80328746D01*
X174350406Y-80042246D01*
X174337989Y-79798093D01*
X174320926Y-79587824D01*
X174298506Y-79402976D01*
X174270018Y-79235085D01*
X174269108Y-79230969D01*
X174739111Y-79230969D01*
X174747017Y-79341119D01*
X174766053Y-79488561D01*
X174767896Y-79500574D01*
X174779533Y-79619958D01*
X174789927Y-79815068D01*
X174798864Y-80076970D01*
X174806126Y-80396729D01*
X174811500Y-80765412D01*
X174814770Y-81174083D01*
X174815695Y-81482943D01*
X174816435Y-81907461D01*
X174817892Y-82254105D01*
X174820322Y-82529666D01*
X174823986Y-82740936D01*
X174829140Y-82894705D01*
X174836043Y-82997765D01*
X174844954Y-83056908D01*
X174856131Y-83078924D01*
X174869831Y-83070605D01*
X174875707Y-83060986D01*
X174909661Y-82988348D01*
X174968595Y-82851588D01*
X175046396Y-82665334D01*
X175136950Y-82444215D01*
X175229565Y-82214320D01*
X175348048Y-81919224D01*
X175479830Y-81593256D01*
X175612307Y-81267452D01*
X175732876Y-80972851D01*
X175787699Y-80839834D01*
X176050293Y-80204834D01*
X175736350Y-79908500D01*
X175590688Y-79777805D01*
X175424822Y-79639774D01*
X175251987Y-79504106D01*
X175085417Y-79380503D01*
X174938346Y-79278665D01*
X174824008Y-79208291D01*
X174755637Y-79179083D01*
X174744056Y-79181166D01*
X174739111Y-79230969D01*
X174269108Y-79230969D01*
X174234752Y-79075688D01*
X174191998Y-78916320D01*
X174141044Y-78748519D01*
X174081181Y-78563821D01*
X174070904Y-78532667D01*
X173967451Y-78251094D01*
X173834199Y-77935792D01*
X173681153Y-77606837D01*
X173518321Y-77284309D01*
X173355707Y-76988286D01*
X173203318Y-76738846D01*
X173111082Y-76606666D01*
X172834507Y-76269985D01*
X172517142Y-75934720D01*
X172175735Y-75615703D01*
X171827039Y-75327762D01*
X171487804Y-75085728D01*
X171339081Y-74998359D01*
X172407530Y-74998359D01*
X172425464Y-75035752D01*
X172489214Y-75119982D01*
X172586934Y-75235886D01*
X172638365Y-75293817D01*
X173028803Y-75747903D01*
X173361990Y-76184551D01*
X173654146Y-76628394D01*
X173921493Y-77104067D01*
X174179165Y-77633828D01*
X174308293Y-77906789D01*
X174421433Y-78117891D01*
X174532099Y-78284638D01*
X174653805Y-78424531D01*
X174800066Y-78555071D01*
X174984396Y-78693761D01*
X175013703Y-78714608D01*
X175185246Y-78841570D01*
X175390783Y-79001989D01*
X175601246Y-79172828D01*
X175745333Y-79294367D01*
X175923798Y-79444292D01*
X176048053Y-79539033D01*
X176124296Y-79582727D01*
X176158724Y-79579513D01*
X176161455Y-79572209D01*
X176160983Y-79503785D01*
X176148801Y-79372402D01*
X176127113Y-79198614D01*
X176105479Y-79049857D01*
X175975377Y-78369580D01*
X175804559Y-77759562D01*
X175590625Y-77214564D01*
X175331178Y-76729345D01*
X175023820Y-76298667D01*
X174676001Y-75926522D01*
X174468569Y-75745112D01*
X174260082Y-75595165D01*
X174034014Y-75468636D01*
X173773840Y-75357479D01*
X173463034Y-75253649D01*
X173085070Y-75149102D01*
X173072345Y-75145825D01*
X172851034Y-75090347D01*
X172659973Y-75045125D01*
X172513481Y-75013336D01*
X172425881Y-74998157D01*
X172407530Y-74998359D01*
X171339081Y-74998359D01*
X171206476Y-74920459D01*
X171078405Y-74858183D01*
X171002477Y-74834742D01*
X170957784Y-74846167D01*
X170936450Y-74869213D01*
X170908820Y-74931050D01*
X170864108Y-75058392D01*
X170807593Y-75235079D01*
X170744551Y-75444956D01*
X170715821Y-75544652D01*
X170482655Y-76293369D01*
X170230007Y-76966099D01*
X169954875Y-77569900D01*
X169654260Y-78111831D01*
X169563403Y-78256086D01*
X169298110Y-78665611D01*
X155756546Y-78665611D01*
X155970418Y-78576684D01*
X156462689Y-78296492D01*
X156919335Y-77958077D01*
X157325484Y-77570091D01*
X157384010Y-77504878D01*
X157618364Y-77224693D01*
X157861064Y-76911405D01*
X158091541Y-76592796D01*
X158289228Y-76296649D01*
X158344332Y-76207645D01*
X158528327Y-75903123D01*
X158474946Y-75619812D01*
X158450314Y-75423120D01*
X158437083Y-75167986D01*
X158436486Y-74913167D01*
X158907508Y-74913167D01*
X158912498Y-75335743D01*
X158966491Y-75707385D01*
X159075508Y-76050106D01*
X159245567Y-76385916D01*
X159358711Y-76563039D01*
X159473609Y-76708009D01*
X159637762Y-76883785D01*
X159831643Y-77071804D01*
X160035723Y-77253504D01*
X160230476Y-77410322D01*
X160312316Y-77469519D01*
X160420412Y-77540038D01*
X160569244Y-77631707D01*
X160742784Y-77735290D01*
X160925006Y-77841547D01*
X161099882Y-77941241D01*
X161251387Y-78025135D01*
X161363492Y-78083992D01*
X161420171Y-78108573D01*
X161421352Y-78108745D01*
X161423573Y-78069473D01*
X161425175Y-77962405D01*
X161425995Y-77804410D01*
X161425931Y-77633084D01*
X161446228Y-77227155D01*
X161513591Y-76876201D01*
X161634229Y-76571087D01*
X161814351Y-76302681D01*
X162060167Y-76061849D01*
X162377885Y-75839457D01*
X162773715Y-75626372D01*
X162798138Y-75614615D01*
X163028131Y-75497862D01*
X163186420Y-75401189D01*
X163281919Y-75318814D01*
X163306875Y-75284716D01*
X163367417Y-75194283D01*
X163463287Y-75063949D01*
X163575778Y-74918995D01*
X163598509Y-74890618D01*
X163850429Y-74521063D01*
X164022836Y-74139370D01*
X164114908Y-73750987D01*
X164125825Y-73361365D01*
X164054765Y-72975952D01*
X163933863Y-72665055D01*
X163751276Y-72382895D01*
X163498138Y-72131817D01*
X163185025Y-71918675D01*
X162822512Y-71750324D01*
X162421176Y-71633620D01*
X162309538Y-71612198D01*
X162046354Y-71572054D01*
X161830916Y-71554015D01*
X161629253Y-71558031D01*
X161407394Y-71584049D01*
X161248350Y-71610574D01*
X160899674Y-71699831D01*
X160583119Y-71840779D01*
X160292155Y-72039304D01*
X160020248Y-72301297D01*
X159760868Y-72632644D01*
X159507482Y-73039235D01*
X159360314Y-73312588D01*
X159190235Y-73664868D01*
X159066853Y-73976065D01*
X158983251Y-74270629D01*
X158932513Y-74573007D01*
X158907722Y-74907646D01*
X158907508Y-74913167D01*
X158436486Y-74913167D01*
X158436408Y-74880014D01*
X158438291Y-74807334D01*
X158448541Y-74564724D01*
X158465335Y-74374687D01*
X158494248Y-74205136D01*
X158540860Y-74023981D01*
X158610745Y-73799137D01*
X158616721Y-73780724D01*
X158700614Y-73540767D01*
X158799298Y-73286119D01*
X158898636Y-73052114D01*
X158962363Y-72916777D01*
X159146303Y-72550274D01*
X158996161Y-72324075D01*
X158853993Y-72139135D01*
X158680286Y-71956161D01*
X158499796Y-71798946D01*
X158338239Y-71691780D01*
X158193640Y-71640856D01*
X157990144Y-71600596D01*
X157753165Y-71573896D01*
X157508115Y-71563653D01*
X157288000Y-71572069D01*
X156789389Y-71649806D01*
X156334246Y-71788009D01*
X155928317Y-71983169D01*
X155577348Y-72231778D01*
X155287085Y-72530328D01*
X155063272Y-72875311D01*
X155025072Y-72953717D01*
X154902611Y-73234246D01*
X154818288Y-73471906D01*
X154765723Y-73695847D01*
X154738535Y-73935215D01*
X154730343Y-74219160D01*
X154730508Y-74299334D01*
X154739715Y-74615735D01*
X154766181Y-74903594D01*
X154814643Y-75205995D01*
X154849172Y-75378834D01*
X154937940Y-75864448D01*
X154985747Y-76281973D01*
X154992852Y-76637270D01*
X154959515Y-76936205D01*
X154924489Y-77077236D01*
X154794872Y-77408799D01*
X154598212Y-77772976D01*
X154332320Y-78173488D01*
X154089488Y-78495716D01*
X153939614Y-78689437D01*
X153839390Y-78828155D01*
X153783228Y-78921031D01*
X153765540Y-78977227D01*
X151065997Y-78977227D01*
X151110299Y-78937908D01*
X151385448Y-78672852D01*
X151417976Y-78640242D01*
X151587879Y-78465061D01*
X151769186Y-78270925D01*
X151953078Y-78068090D01*
X152130737Y-77866809D01*
X152293345Y-77677339D01*
X152432083Y-77509932D01*
X152538133Y-77374843D01*
X152602677Y-77282328D01*
X152618227Y-77244515D01*
X152574169Y-77219079D01*
X152464342Y-77179965D01*
X152305466Y-77132573D01*
X152120630Y-77083878D01*
X151896276Y-77022971D01*
X151672009Y-76953263D01*
X151478124Y-76884603D01*
X151373463Y-76840936D01*
X151207157Y-76751416D01*
X151110129Y-76661251D01*
X151069182Y-76550655D01*
X151071095Y-76401580D01*
X152264135Y-76401580D01*
X152337023Y-76435653D01*
X152470172Y-76465739D01*
X152639178Y-76487506D01*
X152797884Y-76496334D01*
X153070699Y-76464655D01*
X153209029Y-76413001D01*
X153316032Y-76343086D01*
X153463949Y-76220770D01*
X153638925Y-76058215D01*
X153810474Y-75885065D01*
X154230824Y-75444796D01*
X154250902Y-74649815D01*
X154260221Y-74344617D01*
X154271921Y-74107136D01*
X154287727Y-73920424D01*
X154309367Y-73767536D01*
X154338568Y-73631524D01*
X154364206Y-73538048D01*
X154516800Y-73085561D01*
X154693221Y-72678025D01*
X154885202Y-72334331D01*
X154902760Y-72307479D01*
X155013203Y-72129878D01*
X155070187Y-72006007D01*
X155075714Y-71925622D01*
X155031787Y-71878479D01*
X154989520Y-71863564D01*
X154885166Y-71855908D01*
X154723918Y-71864556D01*
X154531241Y-71886170D01*
X154332598Y-71917411D01*
X154153452Y-71954943D01*
X154038452Y-71988251D01*
X153730422Y-72140828D01*
X153451745Y-72370172D01*
X153201168Y-72677572D01*
X152977438Y-73064318D01*
X152961117Y-73097779D01*
X152795522Y-73441390D01*
X152736321Y-74558279D01*
X152718659Y-74865836D01*
X152699616Y-75152860D01*
X152680264Y-75406225D01*
X152661675Y-75612804D01*
X152644922Y-75759471D01*
X152632559Y-75828526D01*
X152579342Y-75945374D01*
X152489011Y-76085311D01*
X152413948Y-76179615D01*
X152327077Y-76285892D01*
X152273404Y-76366641D01*
X152264135Y-76401580D01*
X151071095Y-76401580D01*
X151071118Y-76399841D01*
X151072278Y-76389365D01*
X151078978Y-76343283D01*
X151094050Y-76303628D01*
X151127813Y-76261988D01*
X151190584Y-76209953D01*
X151292683Y-76139111D01*
X151444427Y-76041049D01*
X151656135Y-75907358D01*
X151688741Y-75886834D01*
X151790502Y-75818882D01*
X151871097Y-75750516D01*
X151933356Y-75671040D01*
X151980111Y-75569756D01*
X152014191Y-75435967D01*
X152038429Y-75258977D01*
X152055653Y-75028088D01*
X152068696Y-74732603D01*
X152078911Y-74412405D01*
X152088827Y-74088901D01*
X152098157Y-73836978D01*
X152108332Y-73643575D01*
X152120789Y-73495630D01*
X152136961Y-73380081D01*
X152158281Y-73283867D01*
X152186184Y-73193926D01*
X152222105Y-73097197D01*
X152223794Y-73092834D01*
X152425541Y-72658846D01*
X152676249Y-72263167D01*
X152965621Y-71919162D01*
X153283361Y-71640200D01*
X153409028Y-71554262D01*
X153685283Y-71400315D01*
X153960786Y-71294511D01*
X154271915Y-71223808D01*
X154375239Y-71207832D01*
X154527277Y-71184165D01*
X154645463Y-71161873D01*
X154705431Y-71145581D01*
X154706583Y-71144934D01*
X154710750Y-71097855D01*
X154697400Y-71011352D01*
X157864732Y-71011352D01*
X157875950Y-71094846D01*
X157883837Y-71106987D01*
X157951944Y-71151164D01*
X158050594Y-71176240D01*
X158154928Y-71182068D01*
X158240086Y-71168500D01*
X158281209Y-71135389D01*
X158276345Y-71109314D01*
X158198119Y-70988889D01*
X158109998Y-70880657D01*
X158031238Y-70806269D01*
X157988487Y-70785667D01*
X157932242Y-70822248D01*
X157887243Y-70908981D01*
X157864732Y-71011352D01*
X154697400Y-71011352D01*
X154693951Y-70989011D01*
X154659603Y-70837715D01*
X154637391Y-70753896D01*
X154580396Y-70502332D01*
X154533140Y-70205701D01*
X154501854Y-69903533D01*
X154500642Y-69886407D01*
X154484206Y-69669101D01*
X154466878Y-69516203D01*
X154443810Y-69407550D01*
X154410151Y-69322976D01*
X154362419Y-69244562D01*
X155133328Y-69244562D01*
X155170230Y-69733875D01*
X155189624Y-69950224D01*
X155213390Y-70154952D01*
X155238194Y-70321861D01*
X155256179Y-70409177D01*
X155307767Y-70565030D01*
X155369013Y-70692427D01*
X155428763Y-70770768D01*
X155460051Y-70785667D01*
X155505596Y-70757453D01*
X155586474Y-70685228D01*
X155644487Y-70626917D01*
X155806183Y-70432392D01*
X158740125Y-70432392D01*
X158745935Y-70500072D01*
X158784547Y-70619186D01*
X158848212Y-70766845D01*
X158864978Y-70801221D01*
X158948668Y-70981075D01*
X159025092Y-71165809D01*
X159078095Y-71316298D01*
X159079188Y-71319990D01*
X159165367Y-71567663D01*
X159261287Y-71764642D01*
X159360684Y-71900937D01*
X159457297Y-71966557D01*
X159487277Y-71971000D01*
X159549929Y-71944866D01*
X159655923Y-71875299D01*
X159785708Y-71775552D01*
X159829966Y-71738664D01*
X160242990Y-71441522D01*
X160598030Y-71267161D01*
X163173042Y-71267161D01*
X163206947Y-71308587D01*
X163297844Y-71382383D01*
X163430457Y-71476807D01*
X163538008Y-71547667D01*
X163906692Y-71821343D01*
X164203632Y-72128997D01*
X164436326Y-72481137D01*
X164612274Y-72888270D01*
X164695174Y-73169033D01*
X164746296Y-73363443D01*
X164784790Y-73487958D01*
X164815501Y-73555526D01*
X164843274Y-73579094D01*
X164848836Y-73579667D01*
X164887651Y-73555390D01*
X164982429Y-73488099D01*
X165121793Y-73386101D01*
X165294368Y-73257706D01*
X165449587Y-73140892D01*
X165819690Y-72867013D01*
X166182774Y-72609665D01*
X166526317Y-72377196D01*
X166837800Y-72177951D01*
X167104698Y-72020274D01*
X167236333Y-71950049D01*
X167390487Y-71867246D01*
X167527975Y-71784694D01*
X167617333Y-71721566D01*
X167723167Y-71631892D01*
X167553833Y-71485211D01*
X167398619Y-71365723D01*
X167192340Y-71227786D01*
X166956204Y-71083559D01*
X166711420Y-70945206D01*
X166479196Y-70824886D01*
X166280741Y-70734762D01*
X166182716Y-70698998D01*
X165688423Y-70589053D01*
X165186295Y-70559389D01*
X164688479Y-70609631D01*
X164207121Y-70739402D01*
X164146459Y-70762066D01*
X163910853Y-70857993D01*
X163687157Y-70958034D01*
X163488474Y-71055390D01*
X163327904Y-71143264D01*
X163218548Y-71214857D01*
X163173506Y-71263372D01*
X163173042Y-71267161D01*
X160598030Y-71267161D01*
X160694575Y-71219748D01*
X160994074Y-71120079D01*
X161155218Y-71079779D01*
X161309525Y-71053060D01*
X161480695Y-71037657D01*
X161692428Y-71031310D01*
X161923500Y-71031356D01*
X162162290Y-71032247D01*
X162332853Y-71029175D01*
X162451605Y-71020143D01*
X162534963Y-71003157D01*
X162599341Y-70976219D01*
X162653461Y-70942611D01*
X162741009Y-70876504D01*
X162788335Y-70828084D01*
X162791044Y-70820716D01*
X162757469Y-70767004D01*
X162667893Y-70684983D01*
X162540115Y-70587845D01*
X162391931Y-70488783D01*
X162241139Y-70400988D01*
X162188651Y-70374198D01*
X161779686Y-70204505D01*
X161340682Y-70074865D01*
X160890077Y-69987747D01*
X160446306Y-69945621D01*
X160027807Y-69950958D01*
X159653016Y-70006228D01*
X159580404Y-70024738D01*
X159373823Y-70090583D01*
X159170637Y-70170257D01*
X158988363Y-70255261D01*
X158844517Y-70337097D01*
X158756617Y-70407267D01*
X158740125Y-70432392D01*
X155806183Y-70432392D01*
X155962370Y-70244496D01*
X156215962Y-69833949D01*
X156400345Y-69406388D01*
X156510599Y-68972927D01*
X156542394Y-68598368D01*
X156538361Y-68408484D01*
X156520776Y-68269048D01*
X156482469Y-68146081D01*
X156418050Y-68009070D01*
X156346057Y-67880617D01*
X156281734Y-67786295D01*
X156242522Y-67748848D01*
X156196247Y-67773449D01*
X156122813Y-67853961D01*
X156037792Y-67973203D01*
X156034512Y-67978313D01*
X155930221Y-68141302D01*
X155806496Y-68334418D01*
X155689673Y-68516558D01*
X155686929Y-68520834D01*
X155568104Y-68696700D01*
X155436344Y-68877669D01*
X155319351Y-69025751D01*
X155315019Y-69030865D01*
X155133328Y-69244562D01*
X154362419Y-69244562D01*
X154361052Y-69242317D01*
X154337749Y-69209074D01*
X154190136Y-68985164D01*
X154081618Y-68773276D01*
X154004486Y-68550258D01*
X153951029Y-68292953D01*
X153913536Y-67978209D01*
X153908399Y-67919735D01*
X153886150Y-67702885D01*
X153859427Y-67550174D01*
X153823381Y-67441075D01*
X153775986Y-67358988D01*
X153673019Y-67170544D01*
X153596414Y-66926906D01*
X153543140Y-66617022D01*
X153525168Y-66443836D01*
X153519278Y-66385900D01*
X154155959Y-66385900D01*
X154166906Y-66518722D01*
X154196092Y-66665014D01*
X154236563Y-66802615D01*
X154281362Y-66909364D01*
X154323534Y-66963099D01*
X154337695Y-66964924D01*
X154386205Y-66923703D01*
X154463375Y-66831900D01*
X154545873Y-66718795D01*
X154668168Y-66493272D01*
X154765272Y-66221610D01*
X154833428Y-65926573D01*
X154868880Y-65630922D01*
X154867869Y-65357421D01*
X154826640Y-65128834D01*
X154814203Y-65093019D01*
X154763786Y-64981453D01*
X154717518Y-64912340D01*
X154699480Y-64901334D01*
X154665187Y-64937235D01*
X154605518Y-65034144D01*
X154529858Y-65175861D01*
X154471793Y-65294342D01*
X154334438Y-65617720D01*
X154232402Y-65928253D01*
X154171391Y-66206226D01*
X154155959Y-66385900D01*
X153519278Y-66385900D01*
X153505676Y-66252128D01*
X153480677Y-66115726D01*
X153440808Y-66005361D01*
X153376703Y-65891760D01*
X153322013Y-65808836D01*
X153124005Y-65456821D01*
X152995182Y-65081927D01*
X152931975Y-64707346D01*
X152906330Y-64508131D01*
X152868956Y-64355753D01*
X152807661Y-64212381D01*
X152724866Y-64064653D01*
X152506601Y-63618177D01*
X152361764Y-63134668D01*
X152338009Y-63014697D01*
X152305609Y-62808348D01*
X152272042Y-62549526D01*
X152239576Y-62261154D01*
X152217658Y-62038909D01*
X152900996Y-62038909D01*
X152906617Y-62156422D01*
X152922375Y-62320956D01*
X152945864Y-62514353D01*
X152974679Y-62718456D01*
X153006415Y-62915107D01*
X153038668Y-63086147D01*
X153069032Y-63213418D01*
X153071540Y-63221941D01*
X153123687Y-63367836D01*
X153183604Y-63497993D01*
X153205826Y-63536009D01*
X153279372Y-63648254D01*
X153319304Y-63544544D01*
X153334499Y-63456498D01*
X153340893Y-63310145D01*
X153337731Y-63131465D01*
X153333540Y-63055547D01*
X153314534Y-62852954D01*
X153286724Y-62654939D01*
X153255262Y-62496453D01*
X153246192Y-62462880D01*
X153196432Y-62337114D01*
X153125902Y-62207665D01*
X153047675Y-62092939D01*
X152974822Y-62011344D01*
X152920416Y-61981286D01*
X152907916Y-61986575D01*
X152900996Y-62038909D01*
X152217658Y-62038909D01*
X152210482Y-61966154D01*
X152187030Y-61687451D01*
X152171488Y-61447967D01*
X152166120Y-61278629D01*
X152169663Y-61113473D01*
X152185050Y-61007859D01*
X152218490Y-60936852D01*
X152263645Y-60887046D01*
X152401513Y-60811850D01*
X152571570Y-60800023D01*
X152748049Y-60853214D01*
X152753003Y-60855744D01*
X152874668Y-60940615D01*
X153023731Y-61078250D01*
X153189997Y-61255403D01*
X153363271Y-61458830D01*
X153533359Y-61675284D01*
X153690066Y-61891520D01*
X153823197Y-62094292D01*
X153922557Y-62270356D01*
X153977952Y-62406465D01*
X153986000Y-62457706D01*
X154012019Y-62516220D01*
X154080443Y-62616440D01*
X154176826Y-62737332D01*
X154183251Y-62744864D01*
X154440304Y-63076141D01*
X154630553Y-63395463D01*
X154749174Y-63673667D01*
X154824140Y-63852117D01*
X154917604Y-64030211D01*
X154988140Y-64139334D01*
X155158330Y-64371817D01*
X155285247Y-64557027D01*
X155378143Y-64714097D01*
X155446268Y-64862160D01*
X155498872Y-65020349D01*
X155545206Y-65207797D01*
X155576885Y-65357029D01*
X155614361Y-65435352D01*
X155694055Y-65549906D01*
X155798994Y-65676382D01*
X155802981Y-65680798D01*
X156025144Y-65955164D01*
X156181830Y-66222837D01*
X156285882Y-66509280D01*
X156334154Y-66733855D01*
X156374370Y-66853302D01*
X156462978Y-66993131D01*
X156609526Y-67168324D01*
X156614603Y-67173936D01*
X156752248Y-67335962D01*
X156885967Y-67510349D01*
X156990480Y-67663813D01*
X157004843Y-67687678D01*
X157102485Y-67841914D01*
X157173493Y-67921142D01*
X157223108Y-67928794D01*
X157256573Y-67868299D01*
X157260216Y-67854792D01*
X157316269Y-67738128D01*
X157419061Y-67602068D01*
X157544362Y-67473388D01*
X157667941Y-67378863D01*
X157710785Y-67356894D01*
X157869770Y-67331422D01*
X158085387Y-67359416D01*
X158351305Y-67437743D01*
X158661187Y-67563267D01*
X159008702Y-67732856D01*
X159387514Y-67943374D01*
X159791291Y-68191687D01*
X160213698Y-68474661D01*
X160648403Y-68789161D01*
X160730576Y-68851242D01*
X160953640Y-69020178D01*
X161126580Y-69147187D01*
X161266524Y-69241776D01*
X161390597Y-69313455D01*
X161515927Y-69371733D01*
X161659641Y-69426118D01*
X161838866Y-69486120D01*
X161923500Y-69513553D01*
X162313222Y-69656901D01*
X162641790Y-69818598D01*
X162932528Y-70011376D01*
X163121542Y-70167624D01*
X163383260Y-70401151D01*
X163669380Y-70291207D01*
X163996626Y-70170531D01*
X164272472Y-70082336D01*
X164521212Y-70021169D01*
X164767138Y-69981575D01*
X165034543Y-69958102D01*
X165186613Y-69950597D01*
X165602776Y-69947972D01*
X165966762Y-69979329D01*
X166305825Y-70049341D01*
X166647220Y-70162681D01*
X166807679Y-70228552D01*
X167078731Y-70361389D01*
X167389768Y-70540706D01*
X167720396Y-70753630D01*
X168050222Y-70987292D01*
X168239139Y-71132002D01*
X168501112Y-71339136D01*
X168852973Y-71245104D01*
X169178672Y-71178484D01*
X169529350Y-71150073D01*
X169631019Y-71148286D01*
X169832896Y-71149028D01*
X169976358Y-71157619D01*
X170087606Y-71178905D01*
X170192838Y-71217731D01*
X170307396Y-71273380D01*
X170503217Y-71395058D01*
X170656094Y-71547933D01*
X170718247Y-71631226D01*
X170832263Y-71814791D01*
X170919190Y-72007268D01*
X170983149Y-72224986D01*
X171028259Y-72484276D01*
X171058641Y-72801468D01*
X171071801Y-73032514D01*
X171101784Y-73676391D01*
X171571475Y-73897017D01*
X171847357Y-74020715D01*
X172129888Y-74134370D01*
X172436289Y-74243991D01*
X172783783Y-74355591D01*
X173189593Y-74475179D01*
X173388461Y-74531154D01*
X173617896Y-74597472D01*
X173842671Y-74666744D01*
X174037166Y-74730819D01*
X174175762Y-74781545D01*
X174177121Y-74782096D01*
X174546640Y-74971208D01*
X174913640Y-75232305D01*
X175266318Y-75553216D01*
X175592871Y-75921771D01*
X175881497Y-76325798D01*
X176120392Y-76753128D01*
X176150528Y-76817010D01*
X176226934Y-76994554D01*
X176310375Y-77207532D01*
X176395014Y-77438682D01*
X176475011Y-77670745D01*
X176544529Y-77886461D01*
X176597728Y-78068570D01*
X176628771Y-78199811D01*
X176634333Y-78247261D01*
X176648390Y-78351055D01*
X176687499Y-78376572D01*
X176747062Y-78324841D01*
X176817873Y-78206150D01*
X176854726Y-78125327D01*
X176919504Y-77974953D01*
X177008479Y-77764001D01*
X177117923Y-77501447D01*
X177244107Y-77196266D01*
X177383303Y-76857433D01*
X177531782Y-76493922D01*
X177649489Y-76204334D01*
X177786106Y-75868071D01*
X177950517Y-75464364D01*
X178138286Y-75004057D01*
X178344975Y-74497997D01*
X178566149Y-73957030D01*
X178797371Y-73392004D01*
X179034205Y-72813763D01*
X179272214Y-72233156D01*
X179506961Y-71661027D01*
X179718692Y-71145500D01*
X181058167Y-67885834D01*
X181058167Y-66340667D01*
X181056917Y-65851468D01*
X181052592Y-65435638D01*
X181044325Y-65081907D01*
X181031251Y-64779006D01*
X181012503Y-64515666D01*
X180987216Y-64280617D01*
X180954524Y-64062591D01*
X180913562Y-63850318D01*
X180863462Y-63632529D01*
X180844132Y-63554983D01*
X180771757Y-63294410D01*
X180691490Y-63066592D01*
X180594351Y-62856284D01*
X180471360Y-62648242D01*
X180313538Y-62427222D01*
X180111904Y-62177979D01*
X179866710Y-61895667D01*
X179275259Y-61248521D01*
X178637780Y-60586607D01*
X177970205Y-59925119D01*
X177288463Y-59279251D01*
X176608486Y-58664199D01*
X175946206Y-58095156D01*
X175501294Y-57732039D01*
X174401184Y-56896006D01*
X173227036Y-56080238D01*
X171988199Y-55290356D01*
X170694027Y-54531983D01*
X169353870Y-53810740D01*
X167977079Y-53132249D01*
X167426124Y-52877674D01*
X165997338Y-52270761D01*
X164569560Y-51746920D01*
X163137449Y-51304794D01*
X161695665Y-50943029D01*
X160238864Y-50660267D01*
X158761706Y-50455152D01*
X157415971Y-50336177D01*
X157088671Y-50320042D01*
X156698839Y-50309446D01*
X156262498Y-50304149D01*
X155795671Y-50303906D01*
X155314381Y-50308476D01*
X154834650Y-50317615D01*
X154372500Y-50331082D01*
X153943954Y-50348634D01*
X153565034Y-50370028D01*
X153251764Y-50395021D01*
X153202833Y-50399962D01*
X151793223Y-50581735D01*
X150418813Y-50826373D01*
X149083811Y-51132519D01*
X147792428Y-51498820D01*
X146548873Y-51923916D01*
X145357356Y-52406454D01*
X144222087Y-52945077D01*
X143147274Y-53538428D01*
X142796688Y-53752188D01*
X141900027Y-54341847D01*
X140993408Y-54993812D01*
X140087588Y-55698279D01*
X139193326Y-56445447D01*
X138321382Y-57225514D01*
X137482512Y-58028677D01*
X136687477Y-58845134D01*
X135947034Y-59665083D01*
X135271942Y-60478722D01*
X134938477Y-60911845D01*
X134736503Y-61191299D01*
X134526626Y-61498585D01*
X134315376Y-61822631D01*
X134109281Y-62152367D01*
X133914869Y-62476722D01*
X133738667Y-62784625D01*
X133587205Y-63065004D01*
X133467010Y-63306790D01*
X133384610Y-63498911D01*
X133351790Y-63602663D01*
X133290009Y-63706996D01*
X133174869Y-63793364D01*
X133036382Y-63847620D01*
X132904557Y-63855621D01*
X132851586Y-63838421D01*
X132765805Y-63782056D01*
X132724731Y-63741413D01*
X132699367Y-63648478D01*
X132693791Y-63480726D01*
X132707474Y-63245531D01*
X132739889Y-62950269D01*
X132790510Y-62602314D01*
X132818048Y-62436554D01*
X133071529Y-61210145D01*
X133405967Y-60006662D01*
X133820424Y-58827556D01*
X134313958Y-57674274D01*
X134885631Y-56548266D01*
X135534503Y-55450980D01*
X136259634Y-54383865D01*
X137060085Y-53348370D01*
X137934916Y-52345944D01*
X138883187Y-51378035D01*
X139903959Y-50446093D01*
X140996292Y-49551566D01*
X141349500Y-49281936D01*
X142563042Y-48421721D01*
X143837660Y-47616040D01*
X145168647Y-46866124D01*
X146551294Y-46173208D01*
X147980893Y-45538524D01*
X149452736Y-44963307D01*
X150962114Y-44448788D01*
X152504320Y-43996203D01*
X154074644Y-43606784D01*
X155668379Y-43281765D01*
X157280817Y-43022378D01*
X158907250Y-42829858D01*
X160542968Y-42705438D01*
X162183265Y-42650351D01*
X163823431Y-42665830D01*
D11*
X162120000Y-136800000D03*
D12*
X162120000Y-134260000D03*
X164660000Y-136800000D03*
X164660000Y-134260000D03*
D13*
X167200000Y-136800000D03*
X167200000Y-134260000D03*
M02*
