G04 #@! TF.GenerationSoftware,KiCad,Pcbnew,5.1.6-c6e7f7d~87~ubuntu18.04.1*
G04 #@! TF.CreationDate,2020-08-06T21:04:51-07:00*
G04 #@! TF.ProjectId,scythe_badge,73637974-6865-45f6-9261-6467652e6b69,rev?*
G04 #@! TF.SameCoordinates,Original*
G04 #@! TF.FileFunction,Copper,L2,Bot*
G04 #@! TF.FilePolarity,Positive*
%FSLAX46Y46*%
G04 Gerber Fmt 4.6, Leading zero omitted, Abs format (unit mm)*
G04 Created by KiCad (PCBNEW 5.1.6-c6e7f7d~87~ubuntu18.04.1) date 2020-08-06 21:04:51*
%MOMM*%
%LPD*%
G01*
G04 APERTURE LIST*
G04 #@! TA.AperFunction,SMDPad,CuDef*
%ADD10R,0.900000X0.500000*%
G04 #@! TD*
G04 #@! TA.AperFunction,SMDPad,CuDef*
%ADD11R,1.000000X1.600000*%
G04 #@! TD*
G04 #@! TA.AperFunction,SMDPad,CuDef*
%ADD12C,0.100000*%
G04 #@! TD*
G04 #@! TA.AperFunction,ComponentPad*
%ADD13R,1.727200X1.727200*%
G04 #@! TD*
G04 #@! TA.AperFunction,ComponentPad*
%ADD14O,1.727200X1.727200*%
G04 #@! TD*
G04 #@! TA.AperFunction,ComponentPad*
%ADD15C,1.727200*%
G04 #@! TD*
G04 #@! TA.AperFunction,SMDPad,CuDef*
%ADD16C,1.250000*%
G04 #@! TD*
G04 #@! TA.AperFunction,SMDPad,CuDef*
%ADD17R,0.500000X0.900000*%
G04 #@! TD*
G04 #@! TA.AperFunction,Conductor*
%ADD18C,0.200000*%
G04 #@! TD*
G04 #@! TA.AperFunction,Conductor*
%ADD19C,0.250000*%
G04 #@! TD*
G04 #@! TA.AperFunction,Conductor*
%ADD20C,0.140000*%
G04 #@! TD*
G04 APERTURE END LIST*
D10*
X166640000Y-92540000D03*
X166640000Y-94040000D03*
G04 #@! TA.AperFunction,SMDPad,CuDef*
G36*
G01*
X169850000Y-118323851D02*
X169850000Y-118023851D01*
G75*
G02*
X170000000Y-117873851I150000J0D01*
G01*
X171650000Y-117873851D01*
G75*
G02*
X171800000Y-118023851I0J-150000D01*
G01*
X171800000Y-118323851D01*
G75*
G02*
X171650000Y-118473851I-150000J0D01*
G01*
X170000000Y-118473851D01*
G75*
G02*
X169850000Y-118323851I0J150000D01*
G01*
G37*
G04 #@! TD.AperFunction*
G04 #@! TA.AperFunction,SMDPad,CuDef*
G36*
G01*
X169850000Y-117053851D02*
X169850000Y-116753851D01*
G75*
G02*
X170000000Y-116603851I150000J0D01*
G01*
X171650000Y-116603851D01*
G75*
G02*
X171800000Y-116753851I0J-150000D01*
G01*
X171800000Y-117053851D01*
G75*
G02*
X171650000Y-117203851I-150000J0D01*
G01*
X170000000Y-117203851D01*
G75*
G02*
X169850000Y-117053851I0J150000D01*
G01*
G37*
G04 #@! TD.AperFunction*
G04 #@! TA.AperFunction,SMDPad,CuDef*
G36*
G01*
X169850000Y-115783851D02*
X169850000Y-115483851D01*
G75*
G02*
X170000000Y-115333851I150000J0D01*
G01*
X171650000Y-115333851D01*
G75*
G02*
X171800000Y-115483851I0J-150000D01*
G01*
X171800000Y-115783851D01*
G75*
G02*
X171650000Y-115933851I-150000J0D01*
G01*
X170000000Y-115933851D01*
G75*
G02*
X169850000Y-115783851I0J150000D01*
G01*
G37*
G04 #@! TD.AperFunction*
G04 #@! TA.AperFunction,SMDPad,CuDef*
G36*
G01*
X169850000Y-114513851D02*
X169850000Y-114213851D01*
G75*
G02*
X170000000Y-114063851I150000J0D01*
G01*
X171650000Y-114063851D01*
G75*
G02*
X171800000Y-114213851I0J-150000D01*
G01*
X171800000Y-114513851D01*
G75*
G02*
X171650000Y-114663851I-150000J0D01*
G01*
X170000000Y-114663851D01*
G75*
G02*
X169850000Y-114513851I0J150000D01*
G01*
G37*
G04 #@! TD.AperFunction*
G04 #@! TA.AperFunction,SMDPad,CuDef*
G36*
G01*
X169850000Y-113243851D02*
X169850000Y-112943851D01*
G75*
G02*
X170000000Y-112793851I150000J0D01*
G01*
X171650000Y-112793851D01*
G75*
G02*
X171800000Y-112943851I0J-150000D01*
G01*
X171800000Y-113243851D01*
G75*
G02*
X171650000Y-113393851I-150000J0D01*
G01*
X170000000Y-113393851D01*
G75*
G02*
X169850000Y-113243851I0J150000D01*
G01*
G37*
G04 #@! TD.AperFunction*
G04 #@! TA.AperFunction,SMDPad,CuDef*
G36*
G01*
X169850000Y-111973851D02*
X169850000Y-111673851D01*
G75*
G02*
X170000000Y-111523851I150000J0D01*
G01*
X171650000Y-111523851D01*
G75*
G02*
X171800000Y-111673851I0J-150000D01*
G01*
X171800000Y-111973851D01*
G75*
G02*
X171650000Y-112123851I-150000J0D01*
G01*
X170000000Y-112123851D01*
G75*
G02*
X169850000Y-111973851I0J150000D01*
G01*
G37*
G04 #@! TD.AperFunction*
G04 #@! TA.AperFunction,SMDPad,CuDef*
G36*
G01*
X169850000Y-110703851D02*
X169850000Y-110403851D01*
G75*
G02*
X170000000Y-110253851I150000J0D01*
G01*
X171650000Y-110253851D01*
G75*
G02*
X171800000Y-110403851I0J-150000D01*
G01*
X171800000Y-110703851D01*
G75*
G02*
X171650000Y-110853851I-150000J0D01*
G01*
X170000000Y-110853851D01*
G75*
G02*
X169850000Y-110703851I0J150000D01*
G01*
G37*
G04 #@! TD.AperFunction*
G04 #@! TA.AperFunction,SMDPad,CuDef*
G36*
G01*
X174800000Y-110703851D02*
X174800000Y-110403851D01*
G75*
G02*
X174950000Y-110253851I150000J0D01*
G01*
X176600000Y-110253851D01*
G75*
G02*
X176750000Y-110403851I0J-150000D01*
G01*
X176750000Y-110703851D01*
G75*
G02*
X176600000Y-110853851I-150000J0D01*
G01*
X174950000Y-110853851D01*
G75*
G02*
X174800000Y-110703851I0J150000D01*
G01*
G37*
G04 #@! TD.AperFunction*
G04 #@! TA.AperFunction,SMDPad,CuDef*
G36*
G01*
X174800000Y-111973851D02*
X174800000Y-111673851D01*
G75*
G02*
X174950000Y-111523851I150000J0D01*
G01*
X176600000Y-111523851D01*
G75*
G02*
X176750000Y-111673851I0J-150000D01*
G01*
X176750000Y-111973851D01*
G75*
G02*
X176600000Y-112123851I-150000J0D01*
G01*
X174950000Y-112123851D01*
G75*
G02*
X174800000Y-111973851I0J150000D01*
G01*
G37*
G04 #@! TD.AperFunction*
G04 #@! TA.AperFunction,SMDPad,CuDef*
G36*
G01*
X174800000Y-113243851D02*
X174800000Y-112943851D01*
G75*
G02*
X174950000Y-112793851I150000J0D01*
G01*
X176600000Y-112793851D01*
G75*
G02*
X176750000Y-112943851I0J-150000D01*
G01*
X176750000Y-113243851D01*
G75*
G02*
X176600000Y-113393851I-150000J0D01*
G01*
X174950000Y-113393851D01*
G75*
G02*
X174800000Y-113243851I0J150000D01*
G01*
G37*
G04 #@! TD.AperFunction*
G04 #@! TA.AperFunction,SMDPad,CuDef*
G36*
G01*
X174800000Y-114513851D02*
X174800000Y-114213851D01*
G75*
G02*
X174950000Y-114063851I150000J0D01*
G01*
X176600000Y-114063851D01*
G75*
G02*
X176750000Y-114213851I0J-150000D01*
G01*
X176750000Y-114513851D01*
G75*
G02*
X176600000Y-114663851I-150000J0D01*
G01*
X174950000Y-114663851D01*
G75*
G02*
X174800000Y-114513851I0J150000D01*
G01*
G37*
G04 #@! TD.AperFunction*
G04 #@! TA.AperFunction,SMDPad,CuDef*
G36*
G01*
X174800000Y-115783851D02*
X174800000Y-115483851D01*
G75*
G02*
X174950000Y-115333851I150000J0D01*
G01*
X176600000Y-115333851D01*
G75*
G02*
X176750000Y-115483851I0J-150000D01*
G01*
X176750000Y-115783851D01*
G75*
G02*
X176600000Y-115933851I-150000J0D01*
G01*
X174950000Y-115933851D01*
G75*
G02*
X174800000Y-115783851I0J150000D01*
G01*
G37*
G04 #@! TD.AperFunction*
G04 #@! TA.AperFunction,SMDPad,CuDef*
G36*
G01*
X174800000Y-117053851D02*
X174800000Y-116753851D01*
G75*
G02*
X174950000Y-116603851I150000J0D01*
G01*
X176600000Y-116603851D01*
G75*
G02*
X176750000Y-116753851I0J-150000D01*
G01*
X176750000Y-117053851D01*
G75*
G02*
X176600000Y-117203851I-150000J0D01*
G01*
X174950000Y-117203851D01*
G75*
G02*
X174800000Y-117053851I0J150000D01*
G01*
G37*
G04 #@! TD.AperFunction*
G04 #@! TA.AperFunction,SMDPad,CuDef*
G36*
G01*
X174800000Y-118323851D02*
X174800000Y-118023851D01*
G75*
G02*
X174950000Y-117873851I150000J0D01*
G01*
X176600000Y-117873851D01*
G75*
G02*
X176750000Y-118023851I0J-150000D01*
G01*
X176750000Y-118323851D01*
G75*
G02*
X176600000Y-118473851I-150000J0D01*
G01*
X174950000Y-118473851D01*
G75*
G02*
X174800000Y-118323851I0J150000D01*
G01*
G37*
G04 #@! TD.AperFunction*
D11*
X174630000Y-120370000D03*
X171630000Y-120370000D03*
G04 #@! TA.AperFunction,SMDPad,CuDef*
D12*
G36*
X176712364Y-124681740D02*
G01*
X175715425Y-124216860D01*
X176116912Y-123355868D01*
X177113851Y-123820748D01*
X176712364Y-124681740D01*
G37*
G04 #@! TD.AperFunction*
G04 #@! TA.AperFunction,SMDPad,CuDef*
G36*
X176754846Y-123289226D02*
G01*
X176029800Y-122951131D01*
X176243222Y-122493446D01*
X176968268Y-122831541D01*
X176754846Y-123289226D01*
G37*
G04 #@! TD.AperFunction*
G04 #@! TA.AperFunction,SMDPad,CuDef*
G36*
X177107732Y-122532459D02*
G01*
X176382686Y-122194364D01*
X176596108Y-121736679D01*
X177321154Y-122074774D01*
X177107732Y-122532459D01*
G37*
G04 #@! TD.AperFunction*
G04 #@! TA.AperFunction,SMDPad,CuDef*
G36*
X177959088Y-122008132D02*
G01*
X176962149Y-121543252D01*
X177363636Y-120682260D01*
X178360575Y-121147140D01*
X177959088Y-122008132D01*
G37*
G04 #@! TD.AperFunction*
D13*
X162120000Y-136800000D03*
D14*
X162120000Y-134260000D03*
X164660000Y-136800000D03*
X164660000Y-134260000D03*
D15*
X167200000Y-136800000D03*
X167200000Y-134260000D03*
D16*
X175880000Y-108710000D03*
G04 #@! TA.AperFunction,SMDPad,CuDef*
D12*
G36*
X165898506Y-127183409D02*
G01*
X166605572Y-128026058D01*
X165877830Y-128636707D01*
X165170764Y-127794058D01*
X165898506Y-127183409D01*
G37*
G04 #@! TD.AperFunction*
G04 #@! TA.AperFunction,SMDPad,CuDef*
G36*
X166891686Y-127068006D02*
G01*
X167405916Y-127680842D01*
X167019064Y-128005450D01*
X166504834Y-127392614D01*
X166891686Y-127068006D01*
G37*
G04 #@! TD.AperFunction*
G04 #@! TA.AperFunction,SMDPad,CuDef*
G36*
X167531334Y-126531278D02*
G01*
X168045564Y-127144114D01*
X167658712Y-127468722D01*
X167144482Y-126855886D01*
X167531334Y-126531278D01*
G37*
G04 #@! TD.AperFunction*
G04 #@! TA.AperFunction,SMDPad,CuDef*
G36*
X168158338Y-125287185D02*
G01*
X168865404Y-126129834D01*
X168137662Y-126740483D01*
X167430596Y-125897834D01*
X168158338Y-125287185D01*
G37*
G04 #@! TD.AperFunction*
G04 #@! TA.AperFunction,SMDPad,CuDef*
G36*
X174453404Y-106818000D02*
G01*
X173746338Y-107660649D01*
X173018596Y-107050000D01*
X173725662Y-106207351D01*
X174453404Y-106818000D01*
G37*
G04 #@! TD.AperFunction*
G04 #@! TA.AperFunction,SMDPad,CuDef*
G36*
X173119334Y-106416556D02*
G01*
X172605104Y-107029392D01*
X172218252Y-106704784D01*
X172732482Y-106091948D01*
X173119334Y-106416556D01*
G37*
G04 #@! TD.AperFunction*
G04 #@! TA.AperFunction,SMDPad,CuDef*
G36*
X172479686Y-105879828D02*
G01*
X171965456Y-106492664D01*
X171578604Y-106168056D01*
X172092834Y-105555220D01*
X172479686Y-105879828D01*
G37*
G04 #@! TD.AperFunction*
G04 #@! TA.AperFunction,SMDPad,CuDef*
G36*
X172193572Y-104921776D02*
G01*
X171486506Y-105764425D01*
X170758764Y-105153776D01*
X171465830Y-104311127D01*
X172193572Y-104921776D01*
G37*
G04 #@! TD.AperFunction*
G04 #@! TA.AperFunction,SMDPad,CuDef*
G36*
X163153984Y-78168199D02*
G01*
X163931801Y-78946016D01*
X163260050Y-79617767D01*
X162482233Y-78839950D01*
X163153984Y-78168199D01*
G37*
G04 #@! TD.AperFunction*
G04 #@! TA.AperFunction,SMDPad,CuDef*
G36*
X164133328Y-77966673D02*
G01*
X164699013Y-78532358D01*
X164341924Y-78889447D01*
X163776239Y-78323762D01*
X164133328Y-77966673D01*
G37*
G04 #@! TD.AperFunction*
G04 #@! TA.AperFunction,SMDPad,CuDef*
G36*
X164723762Y-77376239D02*
G01*
X165289447Y-77941924D01*
X164932358Y-78299013D01*
X164366673Y-77733328D01*
X164723762Y-77376239D01*
G37*
G04 #@! TD.AperFunction*
G04 #@! TA.AperFunction,SMDPad,CuDef*
G36*
X165239950Y-76082233D02*
G01*
X166017767Y-76860050D01*
X165346016Y-77531801D01*
X164568199Y-76753984D01*
X165239950Y-76082233D01*
G37*
G04 #@! TD.AperFunction*
G04 #@! TA.AperFunction,SMDPad,CuDef*
G36*
X169759068Y-75750603D02*
G01*
X168892256Y-75073375D01*
X169477134Y-74324765D01*
X170343946Y-75001993D01*
X169759068Y-75750603D01*
G37*
G04 #@! TD.AperFunction*
G04 #@! TA.AperFunction,SMDPad,CuDef*
G36*
X168811584Y-76069978D02*
G01*
X168181175Y-75577449D01*
X168492084Y-75179504D01*
X169122493Y-75672033D01*
X168811584Y-76069978D01*
G37*
G04 #@! TD.AperFunction*
G04 #@! TA.AperFunction,SMDPad,CuDef*
G36*
X168297507Y-76727967D02*
G01*
X167667098Y-76235438D01*
X167978007Y-75837493D01*
X168608416Y-76330022D01*
X168297507Y-76727967D01*
G37*
G04 #@! TD.AperFunction*
G04 #@! TA.AperFunction,SMDPad,CuDef*
G36*
X167942866Y-78075235D02*
G01*
X167076054Y-77398007D01*
X167660932Y-76649397D01*
X168527744Y-77326625D01*
X167942866Y-78075235D01*
G37*
G04 #@! TD.AperFunction*
G04 #@! TA.AperFunction,SMDPad,CuDef*
G36*
X169613080Y-93365995D02*
G01*
X168579418Y-93742217D01*
X168254498Y-92849509D01*
X169288160Y-92473287D01*
X169613080Y-93365995D01*
G37*
G04 #@! TD.AperFunction*
G04 #@! TA.AperFunction,SMDPad,CuDef*
G36*
X168658462Y-92351299D02*
G01*
X167906708Y-92624915D01*
X167733988Y-92150371D01*
X168485742Y-91876755D01*
X168658462Y-92351299D01*
G37*
G04 #@! TD.AperFunction*
G04 #@! TA.AperFunction,SMDPad,CuDef*
G36*
X168372876Y-91566655D02*
G01*
X167621122Y-91840271D01*
X167448402Y-91365727D01*
X168200156Y-91092111D01*
X168372876Y-91566655D01*
G37*
G04 #@! TD.AperFunction*
G04 #@! TA.AperFunction,SMDPad,CuDef*
G36*
X168604120Y-90593901D02*
G01*
X167570458Y-90970123D01*
X167245538Y-90077415D01*
X168279200Y-89701193D01*
X168604120Y-90593901D01*
G37*
G04 #@! TD.AperFunction*
D17*
X171246000Y-125324000D03*
X169746000Y-125324000D03*
X165030000Y-109810000D03*
X166530000Y-109810000D03*
X158570000Y-86560000D03*
X157070000Y-86560000D03*
X173810000Y-125324000D03*
X175310000Y-125324000D03*
X169726000Y-127236000D03*
X171226000Y-127236000D03*
X166530000Y-111370000D03*
X165030000Y-111370000D03*
X153540000Y-88020000D03*
X155040000Y-88020000D03*
X175290000Y-127236000D03*
X173790000Y-127236000D03*
X171184000Y-129032000D03*
X169684000Y-129032000D03*
X165030000Y-108250000D03*
X166530000Y-108250000D03*
D10*
X161520000Y-92540000D03*
X161520000Y-94040000D03*
D17*
X174770000Y-122730000D03*
X173270000Y-122730000D03*
X157090000Y-88310000D03*
X158590000Y-88310000D03*
X155040000Y-86260000D03*
X153540000Y-86260000D03*
X154260000Y-90040000D03*
X155760000Y-90040000D03*
D10*
X163270000Y-92540000D03*
X163270000Y-94040000D03*
X164980000Y-92540000D03*
X164980000Y-94040000D03*
D18*
X168450647Y-129032000D02*
X169684000Y-129032000D01*
X166955375Y-127536728D02*
X168450647Y-129032000D01*
X175330000Y-120370000D02*
X174630000Y-120370000D01*
X175775000Y-119925000D02*
X175330000Y-120370000D01*
X175775000Y-118173851D02*
X175775000Y-119925000D01*
X162120000Y-135736400D02*
X162120000Y-136800000D01*
X162220001Y-135636399D02*
X162120000Y-135736400D01*
X167758529Y-135636399D02*
X162220001Y-135636399D01*
X174630000Y-121370000D02*
X174219999Y-121780001D01*
X174630000Y-120370000D02*
X174630000Y-121370000D01*
X174740000Y-123910000D02*
X174740000Y-128654928D01*
X174740000Y-128654928D02*
X167758529Y-135636399D01*
X174219999Y-121780001D02*
X174219999Y-123389999D01*
X174219999Y-123389999D02*
X174740000Y-123910000D01*
X162120000Y-131678226D02*
X165888168Y-127910058D01*
X162120000Y-134260000D02*
X162120000Y-131678226D01*
X171630000Y-118978851D02*
X170825000Y-118173851D01*
X171630000Y-120370000D02*
X171630000Y-118978851D01*
X177661362Y-121910307D02*
X177661362Y-121345196D01*
X177220000Y-124598383D02*
X177661362Y-124157021D01*
X177220000Y-126321698D02*
X177220000Y-124598383D01*
X176469413Y-127072285D02*
X177220000Y-126321698D01*
X160956399Y-135423601D02*
X160956399Y-137903601D01*
X162120000Y-134260000D02*
X160956399Y-135423601D01*
X160956399Y-137903601D02*
X161016399Y-137963601D01*
X177661362Y-124157021D02*
X177661362Y-121910307D01*
X161016399Y-137963601D02*
X167758529Y-137963601D01*
X176469413Y-129252717D02*
X176469413Y-127072285D01*
X167758529Y-137963601D02*
X176469413Y-129252717D01*
X168295427Y-90706256D02*
X167924829Y-90335658D01*
X171476168Y-105037776D02*
X169193944Y-107320000D01*
X169193944Y-107320000D02*
X165910000Y-107320000D01*
X165910000Y-107320000D02*
X165620000Y-107030000D01*
X165620000Y-107030000D02*
X165620000Y-97783355D01*
X165620000Y-97783355D02*
X169913090Y-93490265D01*
X169913090Y-92323919D02*
X168295427Y-90706256D01*
X169913090Y-93490265D02*
X169913090Y-92323919D01*
X165888168Y-126891832D02*
X171630000Y-121150000D01*
X165888168Y-127910058D02*
X165888168Y-126891832D01*
X171630000Y-121150000D02*
X171630000Y-120370000D01*
D19*
X153927391Y-106459557D02*
X159474990Y-100911958D01*
X152660000Y-89691054D02*
X152660000Y-85899998D01*
X153927391Y-132542609D02*
X153927391Y-106459557D01*
X153678543Y-133188622D02*
X153680020Y-133187230D01*
X153684724Y-133028503D02*
X153685931Y-133027348D01*
X153662266Y-133470520D02*
X153664435Y-133468558D01*
X153680020Y-133187230D02*
X153684724Y-133028503D01*
X153654511Y-133592680D02*
X153662266Y-133470520D01*
X153597949Y-134008655D02*
X153610877Y-133917435D01*
X153944061Y-136582818D02*
X153914406Y-136548333D01*
X154114296Y-136764720D02*
X153974134Y-136616220D01*
X162120000Y-134260000D02*
X160898686Y-134260000D01*
X154114261Y-136765952D02*
X154114296Y-136764720D01*
X153626481Y-136053935D02*
X153615234Y-136010535D01*
X158693956Y-91655010D02*
X154623956Y-91655010D01*
X154152830Y-136807279D02*
X154114261Y-136765952D01*
X153637678Y-136092126D02*
X153626481Y-136053935D01*
X159474990Y-92436044D02*
X158693956Y-91655010D01*
X154152593Y-136814156D02*
X154152830Y-136807279D01*
X153648523Y-136124620D02*
X153637678Y-136092126D01*
X159474990Y-100911958D02*
X159474990Y-92436044D01*
X154196228Y-136863971D02*
X154152593Y-136814156D01*
X153657286Y-136147548D02*
X153648523Y-136124620D01*
X153672893Y-133333853D02*
X153678543Y-133188622D01*
X153643006Y-133707515D02*
X153651929Y-133594953D01*
X154195841Y-136869827D02*
X154196228Y-136863971D01*
X160898686Y-134260000D02*
X158198686Y-136960000D01*
X153974134Y-136616220D02*
X153944061Y-136582818D01*
X153614795Y-133914348D02*
X153626309Y-133817202D01*
X153570000Y-134131493D02*
X153575114Y-134101258D01*
X153615234Y-136010535D02*
X153604174Y-135962471D01*
X153734871Y-136298608D02*
X153715133Y-136264781D01*
X153914406Y-136548333D02*
X153885477Y-136513144D01*
X153685931Y-133027348D02*
X153691409Y-132778591D01*
X153664435Y-133468558D02*
X153671098Y-133335513D01*
X153629799Y-133814333D02*
X153639975Y-133710101D01*
X154239412Y-136928031D02*
X154239887Y-136922924D01*
X153593684Y-134011861D02*
X153597949Y-134008655D01*
X153583216Y-135854134D02*
X153573526Y-135794660D01*
X158198686Y-136960000D02*
X154264689Y-136960000D01*
X153885477Y-136513144D02*
X153857306Y-136477302D01*
X153691409Y-132778591D02*
X153927391Y-132542609D01*
X153671098Y-133335513D02*
X153672893Y-133333853D01*
X153639975Y-133710101D02*
X153643006Y-133707515D01*
X154239887Y-136922924D02*
X154195841Y-136869827D01*
X154623956Y-91655010D02*
X152660000Y-89691054D01*
X153573526Y-135794660D02*
X153570000Y-135770346D01*
X153857306Y-136477302D02*
X153830171Y-136441196D01*
X153830171Y-136441196D02*
X153804221Y-136405041D01*
X153804221Y-136405041D02*
X153779529Y-136368965D01*
X153779529Y-136368965D02*
X153756386Y-136333434D01*
X153756386Y-136333434D02*
X153734871Y-136298608D01*
X153715133Y-136264781D02*
X153697388Y-136232399D01*
X153651929Y-133594953D02*
X153654511Y-133592680D01*
X153610877Y-133917435D02*
X153614795Y-133914348D01*
X153570000Y-135770346D02*
X153570000Y-134131493D01*
X153697388Y-136232399D02*
X153681728Y-136201742D01*
X153681728Y-136201742D02*
X153668322Y-136173293D01*
X153668322Y-136173293D02*
X153657286Y-136147548D01*
X153626309Y-133817202D02*
X153629799Y-133814333D01*
X153575114Y-134101258D02*
X153579276Y-134098286D01*
X153604174Y-135962471D02*
X153593455Y-135910170D01*
X153579276Y-134098286D02*
X153593684Y-134011861D01*
X154264689Y-136960000D02*
X154239412Y-136928031D01*
X153593455Y-135910170D02*
X153583216Y-135854134D01*
D18*
X152660000Y-85899998D02*
X153049999Y-85509999D01*
X169735942Y-75122618D02*
X169726267Y-75112943D01*
X154069999Y-85509999D02*
X153049999Y-85509999D01*
X154250000Y-85690000D02*
X154069999Y-85509999D01*
X163207017Y-78892983D02*
X156340000Y-85760000D01*
X156340000Y-87960002D02*
X155530001Y-88770001D01*
X155530001Y-88770001D02*
X154549999Y-88770001D01*
X154549999Y-88770001D02*
X154250000Y-88470002D01*
X156340000Y-85760000D02*
X156340000Y-87960002D01*
X154250000Y-88470002D02*
X154250000Y-85690000D01*
X169657776Y-75077359D02*
X169648101Y-75067684D01*
X169627776Y-77912224D02*
X169657776Y-77882224D01*
X168700000Y-89560487D02*
X168700000Y-78873781D01*
X169657776Y-77882224D02*
X169657776Y-75077359D01*
X167924829Y-90335658D02*
X168700000Y-89560487D01*
X168700000Y-78873781D02*
X169627776Y-77946005D01*
X169627776Y-77946005D02*
X169627776Y-77912224D01*
X154130001Y-85509999D02*
X153049999Y-85509999D01*
X161312202Y-78327800D02*
X154130001Y-85509999D01*
X161312202Y-78324301D02*
X161312202Y-78327800D01*
X161780845Y-77855658D02*
X161312202Y-78324301D01*
X162159692Y-77480310D02*
X161784344Y-77855658D01*
X161784344Y-77855658D02*
X161780845Y-77855658D01*
X169226272Y-74645855D02*
X164994146Y-74645855D01*
X164994146Y-74645855D02*
X162631833Y-77008168D01*
X162631833Y-77008168D02*
X162628335Y-77008168D01*
X162628335Y-77008168D02*
X162159692Y-77476811D01*
X169618101Y-75037684D02*
X169226272Y-74645855D01*
X162159692Y-77476811D02*
X162159692Y-77480310D01*
D20*
X169746000Y-126169273D02*
X170320000Y-126743273D01*
X169746000Y-125324000D02*
X169746000Y-126169273D01*
D18*
X170484302Y-126950000D02*
X170298788Y-126764486D01*
X170490000Y-126950000D02*
X170484302Y-126950000D01*
X170490000Y-127712002D02*
X170490000Y-126950000D01*
X170216001Y-127986001D02*
X170490000Y-127712002D01*
X168581024Y-127986001D02*
X170216001Y-127986001D01*
X167595023Y-127000000D02*
X168581024Y-127986001D01*
X169370166Y-127236000D02*
X169726000Y-127236000D01*
X168148000Y-126013834D02*
X169370166Y-127236000D01*
X173345606Y-107324394D02*
X173736000Y-106934000D01*
X171920000Y-108750000D02*
X173345606Y-107324394D01*
X169600000Y-108750000D02*
X171920000Y-108750000D01*
X166530000Y-111370000D02*
X166980000Y-111370000D01*
X166980000Y-111370000D02*
X169600000Y-108750000D01*
X162112223Y-78659177D02*
X155880000Y-84891400D01*
X155490000Y-88020000D02*
X155040000Y-88020000D01*
X164154383Y-76617017D02*
X162963211Y-77808189D01*
X155880000Y-87630000D02*
X155490000Y-88020000D01*
X155880000Y-84891400D02*
X155880000Y-87630000D01*
X162112223Y-78655679D02*
X162112223Y-78659177D01*
X162963211Y-77808189D02*
X162959713Y-77808189D01*
X162963211Y-77808189D02*
X162112223Y-78659177D01*
X164353291Y-76418109D02*
X164154383Y-76617017D01*
X164904075Y-76418109D02*
X164353291Y-76418109D01*
X165292983Y-76807017D02*
X164904075Y-76418109D01*
X176414638Y-124542908D02*
X176414638Y-124018804D01*
X176414638Y-126561362D02*
X176414638Y-124542908D01*
X175740000Y-127236000D02*
X176414638Y-126561362D01*
X175290000Y-127236000D02*
X175740000Y-127236000D01*
X155479990Y-85820010D02*
X155040000Y-86260000D01*
X155479990Y-84725711D02*
X155479990Y-85820010D01*
X161712213Y-78489990D02*
X161712213Y-78493489D01*
X161712213Y-78493489D02*
X155479990Y-84725711D01*
X161946534Y-78255669D02*
X161712213Y-78489990D01*
X161950033Y-78255669D02*
X161946534Y-78255669D01*
X162559703Y-77645999D02*
X161950033Y-78255669D01*
X164423479Y-75782223D02*
X162797523Y-77408179D01*
X166221806Y-75782223D02*
X164423479Y-75782223D01*
X162794024Y-77408179D02*
X162559703Y-77642500D01*
X167801899Y-77362316D02*
X166221806Y-75782223D01*
X162559703Y-77642500D02*
X162559703Y-77645999D01*
X162797523Y-77408179D02*
X162794024Y-77408179D01*
X168348492Y-93107752D02*
X168933789Y-93107752D01*
X168346243Y-93110001D02*
X168348492Y-93107752D01*
D20*
X168296242Y-93060000D02*
X168346243Y-93110001D01*
X160880000Y-93060000D02*
X168296242Y-93060000D01*
D18*
X160769999Y-91989999D02*
X160769999Y-93030001D01*
X160799998Y-93060000D02*
X160880000Y-93060000D01*
X160769999Y-93030001D02*
X160799998Y-93060000D01*
X155760000Y-90040000D02*
X158820000Y-90040000D01*
X158820000Y-90040000D02*
X160769999Y-91989999D01*
X175900000Y-108730000D02*
X175880000Y-108710000D01*
X177450020Y-110051760D02*
X176128260Y-108730000D01*
X177450020Y-112393831D02*
X177450020Y-110051760D01*
X176128260Y-108730000D02*
X175900000Y-108730000D01*
X175775000Y-113093851D02*
X176750000Y-113093851D01*
X176750000Y-113093851D02*
X177450020Y-112393831D01*
X171039463Y-108190000D02*
X172384870Y-106844593D01*
X172384870Y-106844593D02*
X172668793Y-106560670D01*
X166530000Y-109810000D02*
X166530000Y-109610000D01*
X167950000Y-108190000D02*
X171039463Y-108190000D01*
X166530000Y-109610000D02*
X167950000Y-108190000D01*
X170333076Y-107720011D02*
X167509989Y-107720011D01*
X172029145Y-106023942D02*
X170333076Y-107720011D01*
X166980000Y-108250000D02*
X166530000Y-108250000D01*
X167509989Y-107720011D02*
X166980000Y-108250000D01*
X164237626Y-79332374D02*
X164237626Y-78428060D01*
X161520000Y-92028601D02*
X158941399Y-89450000D01*
X158019999Y-85550001D02*
X164237626Y-79332374D01*
X158941399Y-89450000D02*
X158240000Y-89450000D01*
X158240000Y-89450000D02*
X158019999Y-89229999D01*
X161520000Y-92560000D02*
X161520000Y-92028601D01*
X158019999Y-89229999D02*
X158019999Y-85550001D01*
X165110902Y-80469098D02*
X165110902Y-78120468D01*
X159020000Y-86560000D02*
X165110902Y-80469098D01*
X165110902Y-78120468D02*
X164828060Y-77837626D01*
X158570000Y-86560000D02*
X159020000Y-86560000D01*
X176057683Y-122891336D02*
X176499034Y-122891336D01*
X175310000Y-123639019D02*
X176057683Y-122891336D01*
X175310000Y-125324000D02*
X175310000Y-123639019D01*
X176177819Y-122134569D02*
X176410569Y-122134569D01*
X176410569Y-122134569D02*
X176851920Y-122134569D01*
X175582388Y-122730000D02*
X176177819Y-122134569D01*
X174770000Y-122730000D02*
X175582388Y-122730000D01*
X163270000Y-83738081D02*
X169257765Y-77750316D01*
X163270000Y-92540000D02*
X163270000Y-83738081D01*
X169257765Y-76230672D02*
X168651834Y-75624741D01*
X169257765Y-77750316D02*
X169257765Y-76230672D01*
X168827754Y-77614627D02*
X159040000Y-87402381D01*
X159040000Y-87402381D02*
X159040000Y-87660000D01*
X159040000Y-87660000D02*
X158590000Y-88110000D01*
X158590000Y-88110000D02*
X158590000Y-88310000D01*
X168827754Y-76972727D02*
X168137757Y-76282730D01*
X168827754Y-77614627D02*
X168827754Y-76972727D01*
X167897060Y-92550000D02*
X168196225Y-92250835D01*
X166640000Y-92550000D02*
X167897060Y-92550000D01*
X167484968Y-91466191D02*
X167910639Y-91466191D01*
X165593809Y-91466191D02*
X167484968Y-91466191D01*
X164980000Y-92080000D02*
X165593809Y-91466191D01*
X164980000Y-92530000D02*
X164980000Y-92080000D01*
X157070000Y-88290000D02*
X157090000Y-88310000D01*
X157070000Y-86560000D02*
X157070000Y-88290000D01*
X173360000Y-125324000D02*
X171246000Y-125324000D01*
X173810000Y-125324000D02*
X173360000Y-125324000D01*
X173819989Y-124664011D02*
X173819989Y-123200000D01*
X173810000Y-125324000D02*
X173810000Y-124674000D01*
X173810000Y-124674000D02*
X173819989Y-124664011D01*
X174800000Y-116903851D02*
X173819989Y-117883862D01*
X175775000Y-116903851D02*
X174800000Y-116903851D01*
X173819989Y-117883862D02*
X173819989Y-121614312D01*
D20*
X173819989Y-122350011D02*
X173819989Y-121614312D01*
X173819989Y-123200000D02*
X173819989Y-122350011D01*
D18*
X165480000Y-109810000D02*
X165030000Y-109810000D01*
X155309987Y-90829989D02*
X155209999Y-90730001D01*
X155269999Y-89289999D02*
X156760001Y-89289999D01*
X155209999Y-90730001D02*
X155209999Y-89349999D01*
X155209999Y-89349999D02*
X155269999Y-89289999D01*
X157090000Y-88960000D02*
X157090000Y-88310000D01*
X156760001Y-89289999D02*
X157090000Y-88960000D01*
X166510010Y-93460010D02*
X160600010Y-93460010D01*
X160300011Y-93160011D02*
X160300011Y-92094311D01*
X160600010Y-93460010D02*
X160300011Y-93160011D01*
X159035689Y-90829989D02*
X155309987Y-90829989D01*
X166640000Y-93590000D02*
X166510010Y-93460010D01*
X166640000Y-94040000D02*
X166640000Y-93590000D01*
X160300011Y-92094311D02*
X159035689Y-90829989D01*
X165219989Y-107199987D02*
X165580001Y-107559999D01*
X165219989Y-95260011D02*
X165219989Y-107199987D01*
X165580001Y-107559999D02*
X165580001Y-109709999D01*
X165580001Y-109709999D02*
X165480000Y-109810000D01*
X166440000Y-94040000D02*
X165219989Y-95260011D01*
X166640000Y-94040000D02*
X166440000Y-94040000D01*
X166109968Y-112169968D02*
X165950011Y-112010011D01*
X177940000Y-115713851D02*
X177940000Y-109400998D01*
X175435999Y-107784999D02*
X173667168Y-109553830D01*
X165980009Y-110310009D02*
X165480000Y-109810000D01*
X169647909Y-109553830D02*
X167031771Y-112169968D01*
X167031771Y-112169968D02*
X166109968Y-112169968D01*
X176324001Y-107784999D02*
X175435999Y-107784999D01*
X165950011Y-112010011D02*
X165950011Y-110875687D01*
X173667168Y-109553830D02*
X169647909Y-109553830D01*
X177940000Y-109400998D02*
X176324001Y-107784999D01*
X165980009Y-110845689D02*
X165980009Y-110310009D01*
X176750000Y-116903851D02*
X177940000Y-115713851D01*
X175775000Y-116903851D02*
X176750000Y-116903851D01*
X165950011Y-110875687D02*
X165980009Y-110845689D01*
X154240000Y-90020000D02*
X154260000Y-90040000D01*
X171676000Y-127236000D02*
X173790000Y-127236000D01*
X171226000Y-127236000D02*
X171676000Y-127236000D01*
X164784298Y-111370000D02*
X165030000Y-111370000D01*
X163980000Y-107620000D02*
X163980000Y-110565702D01*
X159900000Y-92260000D02*
X159900000Y-103540000D01*
X158870000Y-91230000D02*
X159900000Y-92260000D01*
X159900000Y-103540000D02*
X163980000Y-107620000D01*
X154800000Y-91230000D02*
X158870000Y-91230000D01*
X154260000Y-90040000D02*
X154260000Y-90690000D01*
X163980000Y-110565702D02*
X164784298Y-111370000D01*
X154260000Y-90690000D02*
X154800000Y-91230000D01*
X153540000Y-86260000D02*
X153540000Y-88020000D01*
X153540000Y-89770000D02*
X153810000Y-90040000D01*
X153810000Y-90040000D02*
X154260000Y-90040000D01*
X153540000Y-88020000D02*
X153540000Y-89770000D01*
X172847692Y-113139747D02*
X172847692Y-120992310D01*
X170310000Y-126204300D02*
X170310000Y-123530002D01*
X174833578Y-111153861D02*
X172847692Y-113139747D01*
X170310000Y-123530002D02*
X172847692Y-120992310D01*
X171226000Y-127236000D02*
X171226000Y-127120300D01*
X171226000Y-127120300D02*
X170310000Y-126204300D01*
X175475000Y-110853851D02*
X175775000Y-110553851D01*
X165030000Y-112265698D02*
X165734291Y-112969989D01*
X165030000Y-111370000D02*
X165030000Y-112265698D01*
X165734291Y-112969989D02*
X167380011Y-112969989D01*
X167380011Y-112969989D02*
X169196139Y-111153861D01*
X175174990Y-111153861D02*
X175475000Y-110853851D01*
X169196139Y-111153861D02*
X175174990Y-111153861D01*
D20*
X165580001Y-112250001D02*
X165580001Y-110679999D01*
D18*
X164380011Y-108449989D02*
X164580000Y-108250000D01*
X164380011Y-110400013D02*
X164380011Y-108449989D01*
X164539999Y-110560001D02*
X164380011Y-110400013D01*
X165580001Y-110679999D02*
X165460003Y-110560001D01*
X165460003Y-110560001D02*
X164539999Y-110560001D01*
X171184000Y-129032000D02*
X173234002Y-129032000D01*
X173234002Y-129032000D02*
X174280001Y-127986001D01*
X173270000Y-122080000D02*
X173270000Y-122730000D01*
X173270000Y-113987439D02*
X173270000Y-122080000D01*
X175133588Y-112123851D02*
X173270000Y-113987439D01*
X175475000Y-112123851D02*
X175133588Y-112123851D01*
X175775000Y-111823851D02*
X175475000Y-112123851D01*
X173270000Y-122730000D02*
X172599998Y-122730000D01*
X172599998Y-122730000D02*
X170710010Y-124619988D01*
D20*
X174280001Y-127986001D02*
X174283999Y-127986001D01*
X174283999Y-127986001D02*
X174350000Y-127920000D01*
X174339990Y-127880010D02*
X174339990Y-126740000D01*
X174280001Y-127939999D02*
X174339990Y-127880010D01*
X174280001Y-127986001D02*
X174280001Y-127939999D01*
X170710010Y-124619988D02*
X170710010Y-126028012D01*
D18*
X174339990Y-126299990D02*
X174330000Y-126290000D01*
X174330000Y-126290000D02*
X170971998Y-126290000D01*
X170971998Y-126290000D02*
X170710010Y-126028012D01*
X174339990Y-126740000D02*
X174339990Y-126299990D01*
X163250000Y-94060000D02*
X163270000Y-94040000D01*
X164970000Y-94040000D02*
X164980000Y-94030000D01*
X164980000Y-94040000D02*
X163270000Y-94040000D01*
X163270000Y-94040000D02*
X161520000Y-94040000D01*
X164380010Y-108050010D02*
X164580000Y-108250000D01*
X164580000Y-108250000D02*
X165030000Y-108250000D01*
X164380010Y-94500010D02*
X164380010Y-108050010D01*
X163920000Y-94040000D02*
X164380010Y-94500010D01*
X163270000Y-94040000D02*
X163920000Y-94040000D01*
X175775000Y-111823851D02*
X176750000Y-111823851D01*
X177050010Y-110217449D02*
X176786402Y-109953841D01*
X176750000Y-111823851D02*
X177050010Y-111523841D01*
X165899980Y-112569979D02*
X165580001Y-112250001D01*
X176786402Y-109953841D02*
X169813598Y-109953841D01*
X167197460Y-112569979D02*
X165899980Y-112569979D01*
X169813598Y-109953841D02*
X167197460Y-112569979D01*
X177050010Y-111523841D02*
X177050010Y-110217449D01*
M02*
