G04 #@! TF.GenerationSoftware,KiCad,Pcbnew,5.1.6-c6e7f7d~87~ubuntu18.04.1*
G04 #@! TF.CreationDate,2020-08-06T21:04:51-07:00*
G04 #@! TF.ProjectId,scythe_badge,73637974-6865-45f6-9261-6467652e6b69,rev?*
G04 #@! TF.SameCoordinates,Original*
G04 #@! TF.FileFunction,Soldermask,Bot*
G04 #@! TF.FilePolarity,Negative*
%FSLAX46Y46*%
G04 Gerber Fmt 4.6, Leading zero omitted, Abs format (unit mm)*
G04 Created by KiCad (PCBNEW 5.1.6-c6e7f7d~87~ubuntu18.04.1) date 2020-08-06 21:04:51*
%MOMM*%
%LPD*%
G01*
G04 APERTURE LIST*
%ADD10C,0.010000*%
%ADD11C,0.100000*%
G04 APERTURE END LIST*
D10*
G36*
X161110772Y-119352264D02*
G01*
X161168909Y-119357041D01*
X161376579Y-119371211D01*
X161597710Y-119381077D01*
X161765491Y-119384334D01*
X161881329Y-119383204D01*
X161959400Y-119387920D01*
X162001032Y-119410640D01*
X162007548Y-119463519D01*
X161980274Y-119558715D01*
X161920537Y-119708385D01*
X161829660Y-119924686D01*
X161825492Y-119934667D01*
X161770391Y-120067786D01*
X161688369Y-120267446D01*
X161584297Y-120521713D01*
X161463049Y-120818658D01*
X161329495Y-121146350D01*
X161188509Y-121492856D01*
X161056224Y-121818500D01*
X160700686Y-122694245D01*
X160351415Y-123554198D01*
X160011347Y-124391142D01*
X159683417Y-125197862D01*
X159370559Y-125967141D01*
X159075710Y-126691764D01*
X158801804Y-127364512D01*
X158551777Y-127978172D01*
X158328565Y-128525526D01*
X158192231Y-128859508D01*
X158054695Y-129199447D01*
X157927751Y-129519331D01*
X157814984Y-129809654D01*
X157719982Y-130060913D01*
X157646333Y-130263603D01*
X157597622Y-130408219D01*
X157577438Y-130485259D01*
X157577108Y-130489342D01*
X157580914Y-130591766D01*
X157594860Y-130749988D01*
X157616314Y-130936110D01*
X157626467Y-131012546D01*
X157670240Y-131624061D01*
X157638577Y-132253112D01*
X157535552Y-132888133D01*
X157365235Y-133517555D01*
X157131699Y-134129811D01*
X156839014Y-134713333D01*
X156491254Y-135256553D01*
X156092490Y-135747903D01*
X155884339Y-135961760D01*
X155654754Y-136172704D01*
X155454168Y-136329652D01*
X155261266Y-136446699D01*
X155054728Y-136537940D01*
X154964334Y-136570094D01*
X154814953Y-136619955D01*
X154718270Y-136644956D01*
X154646115Y-136645319D01*
X154570318Y-136621260D01*
X154464862Y-136573976D01*
X154278393Y-136445604D01*
X154111170Y-136242395D01*
X153970138Y-135973279D01*
X153941180Y-135900464D01*
X153909652Y-135810549D01*
X153887015Y-135723848D01*
X153872261Y-135625404D01*
X153864382Y-135500263D01*
X153862371Y-135333469D01*
X153865220Y-135110066D01*
X153870889Y-134857167D01*
X153878960Y-134565778D01*
X153888547Y-134340082D01*
X153901900Y-134161109D01*
X153921266Y-134009890D01*
X153948894Y-133867453D01*
X153987030Y-133714829D01*
X154020599Y-133593834D01*
X154260975Y-132869791D01*
X154553839Y-132210828D01*
X154900855Y-131614306D01*
X155303690Y-131077587D01*
X155764007Y-130598034D01*
X156085461Y-130323138D01*
X156242605Y-130192265D01*
X156381498Y-130065103D01*
X156483568Y-129959261D01*
X156522059Y-129909125D01*
X156552491Y-129854746D01*
X156591782Y-129775479D01*
X156642347Y-129665584D01*
X156706599Y-129519322D01*
X156786955Y-129330954D01*
X156885830Y-129094739D01*
X157005638Y-128804939D01*
X157148795Y-128455812D01*
X157317715Y-128041621D01*
X157514814Y-127556625D01*
X157592898Y-127364167D01*
X157698027Y-127105028D01*
X157831199Y-126776879D01*
X157988585Y-126389149D01*
X158166356Y-125951265D01*
X158360686Y-125472656D01*
X158567744Y-124962751D01*
X158783702Y-124430978D01*
X159004732Y-123886766D01*
X159227006Y-123339543D01*
X159446695Y-122798738D01*
X159466562Y-122749834D01*
X159669768Y-122249492D01*
X159864114Y-121770684D01*
X160047193Y-121319359D01*
X160216597Y-120901466D01*
X160369917Y-120522954D01*
X160504746Y-120189772D01*
X160618676Y-119907869D01*
X160709299Y-119683194D01*
X160774206Y-119521697D01*
X160810990Y-119429326D01*
X160818425Y-119409958D01*
X160840304Y-119369785D01*
X160883686Y-119348686D01*
X160967524Y-119343799D01*
X161110772Y-119352264D01*
G37*
X161110772Y-119352264D02*
X161168909Y-119357041D01*
X161376579Y-119371211D01*
X161597710Y-119381077D01*
X161765491Y-119384334D01*
X161881329Y-119383204D01*
X161959400Y-119387920D01*
X162001032Y-119410640D01*
X162007548Y-119463519D01*
X161980274Y-119558715D01*
X161920537Y-119708385D01*
X161829660Y-119924686D01*
X161825492Y-119934667D01*
X161770391Y-120067786D01*
X161688369Y-120267446D01*
X161584297Y-120521713D01*
X161463049Y-120818658D01*
X161329495Y-121146350D01*
X161188509Y-121492856D01*
X161056224Y-121818500D01*
X160700686Y-122694245D01*
X160351415Y-123554198D01*
X160011347Y-124391142D01*
X159683417Y-125197862D01*
X159370559Y-125967141D01*
X159075710Y-126691764D01*
X158801804Y-127364512D01*
X158551777Y-127978172D01*
X158328565Y-128525526D01*
X158192231Y-128859508D01*
X158054695Y-129199447D01*
X157927751Y-129519331D01*
X157814984Y-129809654D01*
X157719982Y-130060913D01*
X157646333Y-130263603D01*
X157597622Y-130408219D01*
X157577438Y-130485259D01*
X157577108Y-130489342D01*
X157580914Y-130591766D01*
X157594860Y-130749988D01*
X157616314Y-130936110D01*
X157626467Y-131012546D01*
X157670240Y-131624061D01*
X157638577Y-132253112D01*
X157535552Y-132888133D01*
X157365235Y-133517555D01*
X157131699Y-134129811D01*
X156839014Y-134713333D01*
X156491254Y-135256553D01*
X156092490Y-135747903D01*
X155884339Y-135961760D01*
X155654754Y-136172704D01*
X155454168Y-136329652D01*
X155261266Y-136446699D01*
X155054728Y-136537940D01*
X154964334Y-136570094D01*
X154814953Y-136619955D01*
X154718270Y-136644956D01*
X154646115Y-136645319D01*
X154570318Y-136621260D01*
X154464862Y-136573976D01*
X154278393Y-136445604D01*
X154111170Y-136242395D01*
X153970138Y-135973279D01*
X153941180Y-135900464D01*
X153909652Y-135810549D01*
X153887015Y-135723848D01*
X153872261Y-135625404D01*
X153864382Y-135500263D01*
X153862371Y-135333469D01*
X153865220Y-135110066D01*
X153870889Y-134857167D01*
X153878960Y-134565778D01*
X153888547Y-134340082D01*
X153901900Y-134161109D01*
X153921266Y-134009890D01*
X153948894Y-133867453D01*
X153987030Y-133714829D01*
X154020599Y-133593834D01*
X154260975Y-132869791D01*
X154553839Y-132210828D01*
X154900855Y-131614306D01*
X155303690Y-131077587D01*
X155764007Y-130598034D01*
X156085461Y-130323138D01*
X156242605Y-130192265D01*
X156381498Y-130065103D01*
X156483568Y-129959261D01*
X156522059Y-129909125D01*
X156552491Y-129854746D01*
X156591782Y-129775479D01*
X156642347Y-129665584D01*
X156706599Y-129519322D01*
X156786955Y-129330954D01*
X156885830Y-129094739D01*
X157005638Y-128804939D01*
X157148795Y-128455812D01*
X157317715Y-128041621D01*
X157514814Y-127556625D01*
X157592898Y-127364167D01*
X157698027Y-127105028D01*
X157831199Y-126776879D01*
X157988585Y-126389149D01*
X158166356Y-125951265D01*
X158360686Y-125472656D01*
X158567744Y-124962751D01*
X158783702Y-124430978D01*
X159004732Y-123886766D01*
X159227006Y-123339543D01*
X159446695Y-122798738D01*
X159466562Y-122749834D01*
X159669768Y-122249492D01*
X159864114Y-121770684D01*
X160047193Y-121319359D01*
X160216597Y-120901466D01*
X160369917Y-120522954D01*
X160504746Y-120189772D01*
X160618676Y-119907869D01*
X160709299Y-119683194D01*
X160774206Y-119521697D01*
X160810990Y-119429326D01*
X160818425Y-119409958D01*
X160840304Y-119369785D01*
X160883686Y-119348686D01*
X160967524Y-119343799D01*
X161110772Y-119352264D01*
G36*
X178027761Y-128651978D02*
G01*
X178064777Y-128746339D01*
X178114342Y-128886617D01*
X178138805Y-128959565D01*
X178260351Y-129281994D01*
X178417115Y-129630596D01*
X178592554Y-129971534D01*
X178770126Y-130270970D01*
X178807553Y-130327500D01*
X179043897Y-130625969D01*
X179334262Y-130912436D01*
X179662641Y-131176231D01*
X180013029Y-131406687D01*
X180369417Y-131593133D01*
X180715801Y-131724902D01*
X180996986Y-131786816D01*
X181279435Y-131813985D01*
X181576919Y-131826423D01*
X181863364Y-131824184D01*
X182112692Y-131807322D01*
X182263874Y-131784215D01*
X182404459Y-131760427D01*
X182505305Y-131766455D01*
X182607333Y-131806383D01*
X182636375Y-131821375D01*
X182940638Y-131980484D01*
X183185638Y-132103737D01*
X183385597Y-132197327D01*
X183554739Y-132267449D01*
X183707285Y-132320296D01*
X183857460Y-132362062D01*
X183903622Y-132373227D01*
X184103751Y-132419352D01*
X184271188Y-132454503D01*
X184424524Y-132480885D01*
X184582352Y-132500703D01*
X184763264Y-132516162D01*
X184985850Y-132529467D01*
X185268703Y-132542823D01*
X185371419Y-132547314D01*
X186135322Y-132580401D01*
X186339163Y-132808617D01*
X186530054Y-133044400D01*
X186701261Y-133297183D01*
X186835922Y-133540449D01*
X186898522Y-133688338D01*
X186931682Y-133793215D01*
X186943848Y-133855181D01*
X186941021Y-133862334D01*
X186896312Y-133848146D01*
X186789029Y-133809594D01*
X186635628Y-133752696D01*
X186466649Y-133688838D01*
X186135828Y-133571046D01*
X185831516Y-133483209D01*
X185540463Y-133425409D01*
X185249420Y-133397729D01*
X184945135Y-133400251D01*
X184614360Y-133433059D01*
X184243844Y-133496234D01*
X183820338Y-133589859D01*
X183352477Y-133708237D01*
X182925564Y-133805971D01*
X182553884Y-133857113D01*
X182222299Y-133862151D01*
X181915671Y-133821571D01*
X181693167Y-133761554D01*
X181218999Y-133571258D01*
X180770770Y-133317520D01*
X180343578Y-132996140D01*
X179932524Y-132602914D01*
X179532706Y-132133639D01*
X179139223Y-131584114D01*
X179120095Y-131555167D01*
X178978216Y-131325163D01*
X178822812Y-131048959D01*
X178664538Y-130747819D01*
X178514050Y-130443007D01*
X178382003Y-130155789D01*
X178279052Y-129907428D01*
X178239766Y-129798334D01*
X178204058Y-129674646D01*
X178163307Y-129508025D01*
X178121046Y-129316569D01*
X178080811Y-129118379D01*
X178046133Y-128931555D01*
X178020547Y-128774195D01*
X178007586Y-128664400D01*
X178009905Y-128620899D01*
X178027761Y-128651978D01*
G37*
X178027761Y-128651978D02*
X178064777Y-128746339D01*
X178114342Y-128886617D01*
X178138805Y-128959565D01*
X178260351Y-129281994D01*
X178417115Y-129630596D01*
X178592554Y-129971534D01*
X178770126Y-130270970D01*
X178807553Y-130327500D01*
X179043897Y-130625969D01*
X179334262Y-130912436D01*
X179662641Y-131176231D01*
X180013029Y-131406687D01*
X180369417Y-131593133D01*
X180715801Y-131724902D01*
X180996986Y-131786816D01*
X181279435Y-131813985D01*
X181576919Y-131826423D01*
X181863364Y-131824184D01*
X182112692Y-131807322D01*
X182263874Y-131784215D01*
X182404459Y-131760427D01*
X182505305Y-131766455D01*
X182607333Y-131806383D01*
X182636375Y-131821375D01*
X182940638Y-131980484D01*
X183185638Y-132103737D01*
X183385597Y-132197327D01*
X183554739Y-132267449D01*
X183707285Y-132320296D01*
X183857460Y-132362062D01*
X183903622Y-132373227D01*
X184103751Y-132419352D01*
X184271188Y-132454503D01*
X184424524Y-132480885D01*
X184582352Y-132500703D01*
X184763264Y-132516162D01*
X184985850Y-132529467D01*
X185268703Y-132542823D01*
X185371419Y-132547314D01*
X186135322Y-132580401D01*
X186339163Y-132808617D01*
X186530054Y-133044400D01*
X186701261Y-133297183D01*
X186835922Y-133540449D01*
X186898522Y-133688338D01*
X186931682Y-133793215D01*
X186943848Y-133855181D01*
X186941021Y-133862334D01*
X186896312Y-133848146D01*
X186789029Y-133809594D01*
X186635628Y-133752696D01*
X186466649Y-133688838D01*
X186135828Y-133571046D01*
X185831516Y-133483209D01*
X185540463Y-133425409D01*
X185249420Y-133397729D01*
X184945135Y-133400251D01*
X184614360Y-133433059D01*
X184243844Y-133496234D01*
X183820338Y-133589859D01*
X183352477Y-133708237D01*
X182925564Y-133805971D01*
X182553884Y-133857113D01*
X182222299Y-133862151D01*
X181915671Y-133821571D01*
X181693167Y-133761554D01*
X181218999Y-133571258D01*
X180770770Y-133317520D01*
X180343578Y-132996140D01*
X179932524Y-132602914D01*
X179532706Y-132133639D01*
X179139223Y-131584114D01*
X179120095Y-131555167D01*
X178978216Y-131325163D01*
X178822812Y-131048959D01*
X178664538Y-130747819D01*
X178514050Y-130443007D01*
X178382003Y-130155789D01*
X178279052Y-129907428D01*
X178239766Y-129798334D01*
X178204058Y-129674646D01*
X178163307Y-129508025D01*
X178121046Y-129316569D01*
X178080811Y-129118379D01*
X178046133Y-128931555D01*
X178020547Y-128774195D01*
X178007586Y-128664400D01*
X178009905Y-128620899D01*
X178027761Y-128651978D01*
G36*
X181759123Y-128783326D02*
G01*
X181844062Y-128834796D01*
X181962695Y-128922831D01*
X182033011Y-128980056D01*
X182582025Y-129385392D01*
X183172182Y-129716917D01*
X183801853Y-129973890D01*
X184469408Y-130155568D01*
X184715205Y-130201816D01*
X184995942Y-130235771D01*
X185317769Y-130253660D01*
X185657113Y-130256001D01*
X185990402Y-130243311D01*
X186294061Y-130216106D01*
X186544519Y-130174902D01*
X186603833Y-130160409D01*
X186935187Y-130046646D01*
X187291027Y-129881506D01*
X187642275Y-129679182D01*
X187785466Y-129583720D01*
X187982080Y-129456679D01*
X188139520Y-129380435D01*
X188277939Y-129345384D01*
X188288165Y-129344142D01*
X188519269Y-129354116D01*
X188777541Y-129425115D01*
X189043699Y-129547377D01*
X189298462Y-129711138D01*
X189522550Y-129906635D01*
X189622168Y-130019629D01*
X189742609Y-130195090D01*
X189865854Y-130414984D01*
X189983234Y-130658962D01*
X190086077Y-130906673D01*
X190165716Y-131137770D01*
X190213480Y-131331901D01*
X190223333Y-131430684D01*
X190204149Y-131479488D01*
X190133941Y-131473626D01*
X190128083Y-131471838D01*
X189729428Y-131363950D01*
X189361821Y-131302169D01*
X188989445Y-131280661D01*
X188953333Y-131280501D01*
X188627195Y-131289730D01*
X188307397Y-131319899D01*
X187974652Y-131374367D01*
X187609671Y-131456491D01*
X187193164Y-131569632D01*
X187048065Y-131612276D01*
X186780953Y-131688786D01*
X186506573Y-131761916D01*
X186249953Y-131825355D01*
X186036119Y-131872793D01*
X185950790Y-131888932D01*
X185680849Y-131923079D01*
X185362504Y-131944195D01*
X185021714Y-131952213D01*
X184684438Y-131947067D01*
X184376636Y-131928689D01*
X184124267Y-131897012D01*
X184106167Y-131893697D01*
X183802681Y-131823055D01*
X183515586Y-131731679D01*
X183271603Y-131628752D01*
X183164872Y-131570177D01*
X183015303Y-131477738D01*
X183137401Y-131393206D01*
X183213801Y-131331198D01*
X183333509Y-131223453D01*
X183480590Y-131084719D01*
X183639107Y-130929746D01*
X183651083Y-130917809D01*
X183817399Y-130748546D01*
X183930414Y-130623922D01*
X183999429Y-130531567D01*
X184033742Y-130459115D01*
X184042667Y-130396961D01*
X184035340Y-130322194D01*
X184005057Y-130264999D01*
X183939361Y-130219085D01*
X183825797Y-130178160D01*
X183651910Y-130135931D01*
X183441127Y-130093091D01*
X182998367Y-129978345D01*
X182616988Y-129820147D01*
X182302470Y-129621188D01*
X182105593Y-129437761D01*
X181980349Y-129283648D01*
X181869037Y-129122199D01*
X181782182Y-128971546D01*
X181730305Y-128849824D01*
X181722790Y-128778129D01*
X181759123Y-128783326D01*
G37*
X181759123Y-128783326D02*
X181844062Y-128834796D01*
X181962695Y-128922831D01*
X182033011Y-128980056D01*
X182582025Y-129385392D01*
X183172182Y-129716917D01*
X183801853Y-129973890D01*
X184469408Y-130155568D01*
X184715205Y-130201816D01*
X184995942Y-130235771D01*
X185317769Y-130253660D01*
X185657113Y-130256001D01*
X185990402Y-130243311D01*
X186294061Y-130216106D01*
X186544519Y-130174902D01*
X186603833Y-130160409D01*
X186935187Y-130046646D01*
X187291027Y-129881506D01*
X187642275Y-129679182D01*
X187785466Y-129583720D01*
X187982080Y-129456679D01*
X188139520Y-129380435D01*
X188277939Y-129345384D01*
X188288165Y-129344142D01*
X188519269Y-129354116D01*
X188777541Y-129425115D01*
X189043699Y-129547377D01*
X189298462Y-129711138D01*
X189522550Y-129906635D01*
X189622168Y-130019629D01*
X189742609Y-130195090D01*
X189865854Y-130414984D01*
X189983234Y-130658962D01*
X190086077Y-130906673D01*
X190165716Y-131137770D01*
X190213480Y-131331901D01*
X190223333Y-131430684D01*
X190204149Y-131479488D01*
X190133941Y-131473626D01*
X190128083Y-131471838D01*
X189729428Y-131363950D01*
X189361821Y-131302169D01*
X188989445Y-131280661D01*
X188953333Y-131280501D01*
X188627195Y-131289730D01*
X188307397Y-131319899D01*
X187974652Y-131374367D01*
X187609671Y-131456491D01*
X187193164Y-131569632D01*
X187048065Y-131612276D01*
X186780953Y-131688786D01*
X186506573Y-131761916D01*
X186249953Y-131825355D01*
X186036119Y-131872793D01*
X185950790Y-131888932D01*
X185680849Y-131923079D01*
X185362504Y-131944195D01*
X185021714Y-131952213D01*
X184684438Y-131947067D01*
X184376636Y-131928689D01*
X184124267Y-131897012D01*
X184106167Y-131893697D01*
X183802681Y-131823055D01*
X183515586Y-131731679D01*
X183271603Y-131628752D01*
X183164872Y-131570177D01*
X183015303Y-131477738D01*
X183137401Y-131393206D01*
X183213801Y-131331198D01*
X183333509Y-131223453D01*
X183480590Y-131084719D01*
X183639107Y-130929746D01*
X183651083Y-130917809D01*
X183817399Y-130748546D01*
X183930414Y-130623922D01*
X183999429Y-130531567D01*
X184033742Y-130459115D01*
X184042667Y-130396961D01*
X184035340Y-130322194D01*
X184005057Y-130264999D01*
X183939361Y-130219085D01*
X183825797Y-130178160D01*
X183651910Y-130135931D01*
X183441127Y-130093091D01*
X182998367Y-129978345D01*
X182616988Y-129820147D01*
X182302470Y-129621188D01*
X182105593Y-129437761D01*
X181980349Y-129283648D01*
X181869037Y-129122199D01*
X181782182Y-128971546D01*
X181730305Y-128849824D01*
X181722790Y-128778129D01*
X181759123Y-128783326D01*
G36*
X179174333Y-118921623D02*
G01*
X179426712Y-119109493D01*
X179690971Y-119349243D01*
X179942505Y-119616353D01*
X180156712Y-119886301D01*
X180189344Y-119933210D01*
X180411324Y-120315941D01*
X180609278Y-120771375D01*
X180780644Y-121290314D01*
X180922860Y-121863561D01*
X181033364Y-122481916D01*
X181109595Y-123136183D01*
X181121138Y-123279000D01*
X181142779Y-123611816D01*
X181156063Y-123930984D01*
X181160843Y-124253417D01*
X181156975Y-124596028D01*
X181144313Y-124975730D01*
X181122711Y-125409436D01*
X181099452Y-125797834D01*
X181067130Y-126376168D01*
X181045747Y-126909763D01*
X181035302Y-127391966D01*
X181035798Y-127816122D01*
X181047237Y-128175576D01*
X181069618Y-128463676D01*
X181098881Y-128655334D01*
X181182797Y-128953699D01*
X181303693Y-129253278D01*
X181448274Y-129525428D01*
X181602763Y-129740955D01*
X181855855Y-129974288D01*
X182186239Y-130181338D01*
X182595806Y-130363274D01*
X182635459Y-130378032D01*
X182808659Y-130442705D01*
X182950365Y-130497709D01*
X183042856Y-130536039D01*
X183069000Y-130549357D01*
X183053302Y-130587219D01*
X182984032Y-130661822D01*
X182876229Y-130760300D01*
X182744936Y-130869790D01*
X182605193Y-130977428D01*
X182472040Y-131070350D01*
X182425969Y-131099325D01*
X182144474Y-131229582D01*
X181824235Y-131300824D01*
X181456575Y-131314210D01*
X181083771Y-131278594D01*
X180807298Y-131206848D01*
X180508200Y-131074396D01*
X180207710Y-130892957D01*
X179927062Y-130674248D01*
X179836928Y-130590553D01*
X179684045Y-130436334D01*
X179552072Y-130288776D01*
X179435533Y-130137355D01*
X179328951Y-129971547D01*
X179226850Y-129780827D01*
X179123754Y-129554671D01*
X179014185Y-129282555D01*
X178892669Y-128953953D01*
X178753727Y-128558342D01*
X178703452Y-128412262D01*
X178521189Y-127899961D01*
X178350001Y-127461082D01*
X178185094Y-127085880D01*
X178021674Y-126764611D01*
X177854948Y-126487530D01*
X177680120Y-126244894D01*
X177574611Y-126117815D01*
X177410506Y-125929797D01*
X177618945Y-125464182D01*
X177827462Y-124959685D01*
X178028804Y-124399686D01*
X178213876Y-123813328D01*
X178373582Y-123229754D01*
X178498828Y-122678108D01*
X178515989Y-122589861D01*
X178599889Y-122129768D01*
X178667584Y-121716106D01*
X178721816Y-121325426D01*
X178765325Y-120934275D01*
X178800852Y-120519204D01*
X178831138Y-120056763D01*
X178847663Y-119752101D01*
X178899167Y-118744034D01*
X179174333Y-118921623D01*
G37*
X179174333Y-118921623D02*
X179426712Y-119109493D01*
X179690971Y-119349243D01*
X179942505Y-119616353D01*
X180156712Y-119886301D01*
X180189344Y-119933210D01*
X180411324Y-120315941D01*
X180609278Y-120771375D01*
X180780644Y-121290314D01*
X180922860Y-121863561D01*
X181033364Y-122481916D01*
X181109595Y-123136183D01*
X181121138Y-123279000D01*
X181142779Y-123611816D01*
X181156063Y-123930984D01*
X181160843Y-124253417D01*
X181156975Y-124596028D01*
X181144313Y-124975730D01*
X181122711Y-125409436D01*
X181099452Y-125797834D01*
X181067130Y-126376168D01*
X181045747Y-126909763D01*
X181035302Y-127391966D01*
X181035798Y-127816122D01*
X181047237Y-128175576D01*
X181069618Y-128463676D01*
X181098881Y-128655334D01*
X181182797Y-128953699D01*
X181303693Y-129253278D01*
X181448274Y-129525428D01*
X181602763Y-129740955D01*
X181855855Y-129974288D01*
X182186239Y-130181338D01*
X182595806Y-130363274D01*
X182635459Y-130378032D01*
X182808659Y-130442705D01*
X182950365Y-130497709D01*
X183042856Y-130536039D01*
X183069000Y-130549357D01*
X183053302Y-130587219D01*
X182984032Y-130661822D01*
X182876229Y-130760300D01*
X182744936Y-130869790D01*
X182605193Y-130977428D01*
X182472040Y-131070350D01*
X182425969Y-131099325D01*
X182144474Y-131229582D01*
X181824235Y-131300824D01*
X181456575Y-131314210D01*
X181083771Y-131278594D01*
X180807298Y-131206848D01*
X180508200Y-131074396D01*
X180207710Y-130892957D01*
X179927062Y-130674248D01*
X179836928Y-130590553D01*
X179684045Y-130436334D01*
X179552072Y-130288776D01*
X179435533Y-130137355D01*
X179328951Y-129971547D01*
X179226850Y-129780827D01*
X179123754Y-129554671D01*
X179014185Y-129282555D01*
X178892669Y-128953953D01*
X178753727Y-128558342D01*
X178703452Y-128412262D01*
X178521189Y-127899961D01*
X178350001Y-127461082D01*
X178185094Y-127085880D01*
X178021674Y-126764611D01*
X177854948Y-126487530D01*
X177680120Y-126244894D01*
X177574611Y-126117815D01*
X177410506Y-125929797D01*
X177618945Y-125464182D01*
X177827462Y-124959685D01*
X178028804Y-124399686D01*
X178213876Y-123813328D01*
X178373582Y-123229754D01*
X178498828Y-122678108D01*
X178515989Y-122589861D01*
X178599889Y-122129768D01*
X178667584Y-121716106D01*
X178721816Y-121325426D01*
X178765325Y-120934275D01*
X178800852Y-120519204D01*
X178831138Y-120056763D01*
X178847663Y-119752101D01*
X178899167Y-118744034D01*
X179174333Y-118921623D01*
G36*
X179555362Y-118296653D02*
G01*
X179719925Y-118342474D01*
X179812925Y-118372076D01*
X180316255Y-118564666D01*
X180773503Y-118802249D01*
X181189961Y-119090330D01*
X181570917Y-119434416D01*
X181921661Y-119840015D01*
X182247483Y-120312633D01*
X182553673Y-120857776D01*
X182845520Y-121480952D01*
X182882531Y-121567625D01*
X182941621Y-121716314D01*
X183022440Y-121932833D01*
X183120509Y-122204505D01*
X183231351Y-122518653D01*
X183350488Y-122862598D01*
X183473443Y-123223662D01*
X183584128Y-123554167D01*
X183765544Y-124092446D01*
X183928112Y-124556462D01*
X184075003Y-124953704D01*
X184209391Y-125291659D01*
X184334450Y-125577817D01*
X184453351Y-125819668D01*
X184569269Y-126024699D01*
X184685376Y-126200399D01*
X184732090Y-126263500D01*
X184996771Y-126557867D01*
X185291747Y-126783591D01*
X185624436Y-126943679D01*
X186002254Y-127041138D01*
X186432621Y-127078975D01*
X186730833Y-127073721D01*
X187089266Y-127043988D01*
X187387400Y-126989762D01*
X187648147Y-126902187D01*
X187894418Y-126772407D01*
X188149125Y-126591564D01*
X188302005Y-126466367D01*
X188583986Y-126227145D01*
X188553725Y-126478156D01*
X188504690Y-126797924D01*
X188434341Y-127141080D01*
X188350255Y-127475579D01*
X188260012Y-127769377D01*
X188226686Y-127861072D01*
X188049176Y-128245521D01*
X187828796Y-128577400D01*
X187558407Y-128862509D01*
X187230875Y-129106646D01*
X186839061Y-129315609D01*
X186375831Y-129495198D01*
X186117000Y-129575272D01*
X185882483Y-129627706D01*
X185599813Y-129667481D01*
X185291151Y-129693712D01*
X184978658Y-129705514D01*
X184684497Y-129702002D01*
X184430828Y-129682292D01*
X184254333Y-129649661D01*
X184066852Y-129585121D01*
X183828831Y-129483727D01*
X183560148Y-129355636D01*
X183280679Y-129211002D01*
X183010304Y-129059982D01*
X182768898Y-128912732D01*
X182634244Y-128821939D01*
X182447333Y-128678368D01*
X182235856Y-128499388D01*
X182031738Y-128312653D01*
X181926494Y-128208819D01*
X181576279Y-127850020D01*
X181603141Y-127395427D01*
X181609678Y-127252529D01*
X181616975Y-127036958D01*
X181624745Y-126760701D01*
X181632700Y-126435745D01*
X181640552Y-126074077D01*
X181648013Y-125687683D01*
X181654796Y-125288552D01*
X181656735Y-125162834D01*
X181663130Y-124710647D01*
X181667359Y-124332819D01*
X181669212Y-124019066D01*
X181668481Y-123759103D01*
X181664954Y-123542644D01*
X181658424Y-123359405D01*
X181648682Y-123199101D01*
X181635517Y-123051447D01*
X181618721Y-122906159D01*
X181609366Y-122834672D01*
X181481884Y-122092572D01*
X181305800Y-121388029D01*
X181084081Y-120727491D01*
X180819691Y-120117407D01*
X180515596Y-119564227D01*
X180174762Y-119074399D01*
X179800155Y-118654373D01*
X179604793Y-118475676D01*
X179492380Y-118373540D01*
X179444638Y-118310669D01*
X179464616Y-118285546D01*
X179555362Y-118296653D01*
G37*
X179555362Y-118296653D02*
X179719925Y-118342474D01*
X179812925Y-118372076D01*
X180316255Y-118564666D01*
X180773503Y-118802249D01*
X181189961Y-119090330D01*
X181570917Y-119434416D01*
X181921661Y-119840015D01*
X182247483Y-120312633D01*
X182553673Y-120857776D01*
X182845520Y-121480952D01*
X182882531Y-121567625D01*
X182941621Y-121716314D01*
X183022440Y-121932833D01*
X183120509Y-122204505D01*
X183231351Y-122518653D01*
X183350488Y-122862598D01*
X183473443Y-123223662D01*
X183584128Y-123554167D01*
X183765544Y-124092446D01*
X183928112Y-124556462D01*
X184075003Y-124953704D01*
X184209391Y-125291659D01*
X184334450Y-125577817D01*
X184453351Y-125819668D01*
X184569269Y-126024699D01*
X184685376Y-126200399D01*
X184732090Y-126263500D01*
X184996771Y-126557867D01*
X185291747Y-126783591D01*
X185624436Y-126943679D01*
X186002254Y-127041138D01*
X186432621Y-127078975D01*
X186730833Y-127073721D01*
X187089266Y-127043988D01*
X187387400Y-126989762D01*
X187648147Y-126902187D01*
X187894418Y-126772407D01*
X188149125Y-126591564D01*
X188302005Y-126466367D01*
X188583986Y-126227145D01*
X188553725Y-126478156D01*
X188504690Y-126797924D01*
X188434341Y-127141080D01*
X188350255Y-127475579D01*
X188260012Y-127769377D01*
X188226686Y-127861072D01*
X188049176Y-128245521D01*
X187828796Y-128577400D01*
X187558407Y-128862509D01*
X187230875Y-129106646D01*
X186839061Y-129315609D01*
X186375831Y-129495198D01*
X186117000Y-129575272D01*
X185882483Y-129627706D01*
X185599813Y-129667481D01*
X185291151Y-129693712D01*
X184978658Y-129705514D01*
X184684497Y-129702002D01*
X184430828Y-129682292D01*
X184254333Y-129649661D01*
X184066852Y-129585121D01*
X183828831Y-129483727D01*
X183560148Y-129355636D01*
X183280679Y-129211002D01*
X183010304Y-129059982D01*
X182768898Y-128912732D01*
X182634244Y-128821939D01*
X182447333Y-128678368D01*
X182235856Y-128499388D01*
X182031738Y-128312653D01*
X181926494Y-128208819D01*
X181576279Y-127850020D01*
X181603141Y-127395427D01*
X181609678Y-127252529D01*
X181616975Y-127036958D01*
X181624745Y-126760701D01*
X181632700Y-126435745D01*
X181640552Y-126074077D01*
X181648013Y-125687683D01*
X181654796Y-125288552D01*
X181656735Y-125162834D01*
X181663130Y-124710647D01*
X181667359Y-124332819D01*
X181669212Y-124019066D01*
X181668481Y-123759103D01*
X181664954Y-123542644D01*
X181658424Y-123359405D01*
X181648682Y-123199101D01*
X181635517Y-123051447D01*
X181618721Y-122906159D01*
X181609366Y-122834672D01*
X181481884Y-122092572D01*
X181305800Y-121388029D01*
X181084081Y-120727491D01*
X180819691Y-120117407D01*
X180515596Y-119564227D01*
X180174762Y-119074399D01*
X179800155Y-118654373D01*
X179604793Y-118475676D01*
X179492380Y-118373540D01*
X179444638Y-118310669D01*
X179464616Y-118285546D01*
X179555362Y-118296653D01*
G36*
X168189788Y-113618959D02*
G01*
X168569931Y-114695682D01*
X168871701Y-115752782D01*
X169094962Y-116788878D01*
X169239577Y-117802587D01*
X169305410Y-118792528D01*
X169292326Y-119757319D01*
X169200187Y-120695578D01*
X169028859Y-121605923D01*
X168991721Y-121758310D01*
X168838200Y-122287939D01*
X168642380Y-122837046D01*
X168413613Y-123384742D01*
X168161252Y-123910136D01*
X167894650Y-124392341D01*
X167628483Y-124803000D01*
X167483154Y-124991299D01*
X167291430Y-125216333D01*
X167067032Y-125464042D01*
X166823680Y-125720364D01*
X166575093Y-125971239D01*
X166334992Y-126202605D01*
X166117096Y-126400402D01*
X165935126Y-126550568D01*
X165892462Y-126582177D01*
X165302881Y-126965086D01*
X164709902Y-127273072D01*
X164117879Y-127504895D01*
X163531167Y-127659315D01*
X162954122Y-127735090D01*
X162391098Y-127730981D01*
X162026388Y-127683377D01*
X161795344Y-127637706D01*
X161593952Y-127587911D01*
X161402980Y-127526806D01*
X161203196Y-127447204D01*
X160975366Y-127341921D01*
X160700259Y-127203771D01*
X160590000Y-127146717D01*
X160324933Y-127005335D01*
X160129622Y-126891931D01*
X159996246Y-126800562D01*
X159916986Y-126725284D01*
X159884022Y-126660153D01*
X159885722Y-126611392D01*
X159904330Y-126561680D01*
X159952652Y-126439192D01*
X160028416Y-126249546D01*
X160129352Y-125998357D01*
X160253189Y-125691243D01*
X160397657Y-125333822D01*
X160560484Y-124931710D01*
X160739400Y-124490525D01*
X160932135Y-124015883D01*
X161136418Y-123513401D01*
X161349977Y-122988697D01*
X161380386Y-122914031D01*
X162854833Y-119293982D01*
X163203977Y-119058916D01*
X163611172Y-118738954D01*
X163950882Y-118371129D01*
X164226937Y-117950352D01*
X164443169Y-117471534D01*
X164482171Y-117360644D01*
X164558318Y-117061497D01*
X164607565Y-116714560D01*
X164627153Y-116353193D01*
X164614326Y-116010759D01*
X164602359Y-115906501D01*
X164574262Y-115694517D01*
X164556898Y-115518888D01*
X164553142Y-115364967D01*
X164565867Y-115218106D01*
X164597947Y-115063659D01*
X164652254Y-114886978D01*
X164731664Y-114673417D01*
X164839049Y-114408329D01*
X164947182Y-114148956D01*
X165340093Y-113210411D01*
X165494463Y-113238789D01*
X165590825Y-113248211D01*
X165756467Y-113255671D01*
X165976028Y-113261173D01*
X166234143Y-113264725D01*
X166515452Y-113266331D01*
X166804590Y-113265997D01*
X167086194Y-113263728D01*
X167344903Y-113259530D01*
X167565352Y-113253408D01*
X167732180Y-113245368D01*
X167813796Y-113237959D01*
X168031425Y-113208750D01*
X168189788Y-113618959D01*
G37*
X168189788Y-113618959D02*
X168569931Y-114695682D01*
X168871701Y-115752782D01*
X169094962Y-116788878D01*
X169239577Y-117802587D01*
X169305410Y-118792528D01*
X169292326Y-119757319D01*
X169200187Y-120695578D01*
X169028859Y-121605923D01*
X168991721Y-121758310D01*
X168838200Y-122287939D01*
X168642380Y-122837046D01*
X168413613Y-123384742D01*
X168161252Y-123910136D01*
X167894650Y-124392341D01*
X167628483Y-124803000D01*
X167483154Y-124991299D01*
X167291430Y-125216333D01*
X167067032Y-125464042D01*
X166823680Y-125720364D01*
X166575093Y-125971239D01*
X166334992Y-126202605D01*
X166117096Y-126400402D01*
X165935126Y-126550568D01*
X165892462Y-126582177D01*
X165302881Y-126965086D01*
X164709902Y-127273072D01*
X164117879Y-127504895D01*
X163531167Y-127659315D01*
X162954122Y-127735090D01*
X162391098Y-127730981D01*
X162026388Y-127683377D01*
X161795344Y-127637706D01*
X161593952Y-127587911D01*
X161402980Y-127526806D01*
X161203196Y-127447204D01*
X160975366Y-127341921D01*
X160700259Y-127203771D01*
X160590000Y-127146717D01*
X160324933Y-127005335D01*
X160129622Y-126891931D01*
X159996246Y-126800562D01*
X159916986Y-126725284D01*
X159884022Y-126660153D01*
X159885722Y-126611392D01*
X159904330Y-126561680D01*
X159952652Y-126439192D01*
X160028416Y-126249546D01*
X160129352Y-125998357D01*
X160253189Y-125691243D01*
X160397657Y-125333822D01*
X160560484Y-124931710D01*
X160739400Y-124490525D01*
X160932135Y-124015883D01*
X161136418Y-123513401D01*
X161349977Y-122988697D01*
X161380386Y-122914031D01*
X162854833Y-119293982D01*
X163203977Y-119058916D01*
X163611172Y-118738954D01*
X163950882Y-118371129D01*
X164226937Y-117950352D01*
X164443169Y-117471534D01*
X164482171Y-117360644D01*
X164558318Y-117061497D01*
X164607565Y-116714560D01*
X164627153Y-116353193D01*
X164614326Y-116010759D01*
X164602359Y-115906501D01*
X164574262Y-115694517D01*
X164556898Y-115518888D01*
X164553142Y-115364967D01*
X164565867Y-115218106D01*
X164597947Y-115063659D01*
X164652254Y-114886978D01*
X164731664Y-114673417D01*
X164839049Y-114408329D01*
X164947182Y-114148956D01*
X165340093Y-113210411D01*
X165494463Y-113238789D01*
X165590825Y-113248211D01*
X165756467Y-113255671D01*
X165976028Y-113261173D01*
X166234143Y-113264725D01*
X166515452Y-113266331D01*
X166804590Y-113265997D01*
X167086194Y-113263728D01*
X167344903Y-113259530D01*
X167565352Y-113253408D01*
X167732180Y-113245368D01*
X167813796Y-113237959D01*
X168031425Y-113208750D01*
X168189788Y-113618959D01*
G36*
X156953039Y-118085365D02*
G01*
X157049957Y-118128952D01*
X157201036Y-118198737D01*
X157384054Y-118284394D01*
X157542000Y-118359056D01*
X158052950Y-118586290D01*
X158560737Y-118778531D01*
X159099458Y-118948035D01*
X159435841Y-119039800D01*
X159701790Y-119111887D01*
X159891275Y-119170400D01*
X160010981Y-119217742D01*
X160067589Y-119256315D01*
X160073935Y-119269117D01*
X160062684Y-119327523D01*
X160023616Y-119450974D01*
X159961412Y-119626333D01*
X159880755Y-119840464D01*
X159786326Y-120080232D01*
X159773709Y-120111544D01*
X159487031Y-120820124D01*
X159222862Y-121470882D01*
X158982071Y-122061720D01*
X158765530Y-122590541D01*
X158574109Y-123055247D01*
X158408679Y-123453741D01*
X158270110Y-123783925D01*
X158159274Y-124043701D01*
X158077040Y-124230971D01*
X158024280Y-124343639D01*
X158002160Y-124379667D01*
X157969943Y-124344038D01*
X157912330Y-124248551D01*
X157839223Y-124110305D01*
X157799917Y-124030417D01*
X157661065Y-123711796D01*
X157517722Y-123329948D01*
X157375925Y-122905656D01*
X157241708Y-122459701D01*
X157121109Y-122012867D01*
X157020163Y-121585936D01*
X156944906Y-121199691D01*
X156911599Y-120971834D01*
X156898851Y-120830324D01*
X156885460Y-120618938D01*
X156872086Y-120352454D01*
X156859389Y-120045652D01*
X156848031Y-119713312D01*
X156838670Y-119370214D01*
X156837212Y-119306808D01*
X156808578Y-118022783D01*
X156953039Y-118085365D01*
G37*
X156953039Y-118085365D02*
X157049957Y-118128952D01*
X157201036Y-118198737D01*
X157384054Y-118284394D01*
X157542000Y-118359056D01*
X158052950Y-118586290D01*
X158560737Y-118778531D01*
X159099458Y-118948035D01*
X159435841Y-119039800D01*
X159701790Y-119111887D01*
X159891275Y-119170400D01*
X160010981Y-119217742D01*
X160067589Y-119256315D01*
X160073935Y-119269117D01*
X160062684Y-119327523D01*
X160023616Y-119450974D01*
X159961412Y-119626333D01*
X159880755Y-119840464D01*
X159786326Y-120080232D01*
X159773709Y-120111544D01*
X159487031Y-120820124D01*
X159222862Y-121470882D01*
X158982071Y-122061720D01*
X158765530Y-122590541D01*
X158574109Y-123055247D01*
X158408679Y-123453741D01*
X158270110Y-123783925D01*
X158159274Y-124043701D01*
X158077040Y-124230971D01*
X158024280Y-124343639D01*
X158002160Y-124379667D01*
X157969943Y-124344038D01*
X157912330Y-124248551D01*
X157839223Y-124110305D01*
X157799917Y-124030417D01*
X157661065Y-123711796D01*
X157517722Y-123329948D01*
X157375925Y-122905656D01*
X157241708Y-122459701D01*
X157121109Y-122012867D01*
X157020163Y-121585936D01*
X156944906Y-121199691D01*
X156911599Y-120971834D01*
X156898851Y-120830324D01*
X156885460Y-120618938D01*
X156872086Y-120352454D01*
X156859389Y-120045652D01*
X156848031Y-119713312D01*
X156838670Y-119370214D01*
X156837212Y-119306808D01*
X156808578Y-118022783D01*
X156953039Y-118085365D01*
G36*
X163688827Y-112557977D02*
G01*
X163793875Y-112599618D01*
X163941884Y-112670735D01*
X164117862Y-112764576D01*
X164139178Y-112776499D01*
X164603909Y-113037710D01*
X164565278Y-113177622D01*
X164527968Y-113289691D01*
X164460311Y-113468655D01*
X164366469Y-113704092D01*
X164250603Y-113985582D01*
X164116875Y-114302704D01*
X164102634Y-114336084D01*
X164046534Y-114456429D01*
X163999910Y-114537137D01*
X163978402Y-114558334D01*
X163931748Y-114530518D01*
X163859942Y-114463433D01*
X163858280Y-114461669D01*
X163782032Y-114397511D01*
X163654105Y-114306877D01*
X163496510Y-114204979D01*
X163416984Y-114156650D01*
X163265372Y-114066480D01*
X163143731Y-113994059D01*
X163068591Y-113949234D01*
X163052765Y-113939718D01*
X163063540Y-113900231D01*
X163102098Y-113798412D01*
X163162018Y-113649382D01*
X163236881Y-113468260D01*
X163320268Y-113270166D01*
X163405758Y-113070219D01*
X163486932Y-112883541D01*
X163557370Y-112725249D01*
X163610653Y-112610465D01*
X163640362Y-112554308D01*
X163641734Y-112552561D01*
X163688827Y-112557977D01*
G37*
X163688827Y-112557977D02*
X163793875Y-112599618D01*
X163941884Y-112670735D01*
X164117862Y-112764576D01*
X164139178Y-112776499D01*
X164603909Y-113037710D01*
X164565278Y-113177622D01*
X164527968Y-113289691D01*
X164460311Y-113468655D01*
X164366469Y-113704092D01*
X164250603Y-113985582D01*
X164116875Y-114302704D01*
X164102634Y-114336084D01*
X164046534Y-114456429D01*
X163999910Y-114537137D01*
X163978402Y-114558334D01*
X163931748Y-114530518D01*
X163859942Y-114463433D01*
X163858280Y-114461669D01*
X163782032Y-114397511D01*
X163654105Y-114306877D01*
X163496510Y-114204979D01*
X163416984Y-114156650D01*
X163265372Y-114066480D01*
X163143731Y-113994059D01*
X163068591Y-113949234D01*
X163052765Y-113939718D01*
X163063540Y-113900231D01*
X163102098Y-113798412D01*
X163162018Y-113649382D01*
X163236881Y-113468260D01*
X163320268Y-113270166D01*
X163405758Y-113070219D01*
X163486932Y-112883541D01*
X163557370Y-112725249D01*
X163610653Y-112610465D01*
X163640362Y-112554308D01*
X163641734Y-112552561D01*
X163688827Y-112557977D01*
G36*
X162828242Y-107360760D02*
G01*
X163149250Y-107448117D01*
X163515006Y-107589484D01*
X163595667Y-107624780D01*
X163828500Y-107728361D01*
X163616833Y-107872324D01*
X163395332Y-108042400D01*
X163179645Y-108242568D01*
X162988632Y-108452799D01*
X162841152Y-108653064D01*
X162781930Y-108758996D01*
X162626952Y-109176211D01*
X162535423Y-109625917D01*
X162506676Y-110091369D01*
X162540044Y-110555824D01*
X162634859Y-111002537D01*
X162790453Y-111414764D01*
X162895629Y-111610712D01*
X162972409Y-111752798D01*
X163026409Y-111880633D01*
X163045333Y-111961803D01*
X163029721Y-112043989D01*
X162986657Y-112182902D01*
X162921803Y-112365004D01*
X162840819Y-112576759D01*
X162749366Y-112804629D01*
X162653104Y-113035075D01*
X162557695Y-113254561D01*
X162468800Y-113449550D01*
X162392078Y-113606503D01*
X162333191Y-113711883D01*
X162297799Y-113752153D01*
X162296671Y-113752211D01*
X162241981Y-113736087D01*
X162134425Y-113695949D01*
X162019102Y-113649447D01*
X161673695Y-113492600D01*
X161325897Y-113306505D01*
X160968199Y-113085735D01*
X160593097Y-112824858D01*
X160193084Y-112518448D01*
X159760653Y-112161073D01*
X159288298Y-111747306D01*
X158899432Y-111393120D01*
X158584697Y-111102449D01*
X158810963Y-110681975D01*
X159213652Y-109981587D01*
X159625169Y-109360210D01*
X160044676Y-108818711D01*
X160471335Y-108357958D01*
X160904306Y-107978819D01*
X161342751Y-107682161D01*
X161785832Y-107468851D01*
X161981654Y-107401739D01*
X162259649Y-107339672D01*
X162536777Y-107325312D01*
X162828242Y-107360760D01*
G37*
X162828242Y-107360760D02*
X163149250Y-107448117D01*
X163515006Y-107589484D01*
X163595667Y-107624780D01*
X163828500Y-107728361D01*
X163616833Y-107872324D01*
X163395332Y-108042400D01*
X163179645Y-108242568D01*
X162988632Y-108452799D01*
X162841152Y-108653064D01*
X162781930Y-108758996D01*
X162626952Y-109176211D01*
X162535423Y-109625917D01*
X162506676Y-110091369D01*
X162540044Y-110555824D01*
X162634859Y-111002537D01*
X162790453Y-111414764D01*
X162895629Y-111610712D01*
X162972409Y-111752798D01*
X163026409Y-111880633D01*
X163045333Y-111961803D01*
X163029721Y-112043989D01*
X162986657Y-112182902D01*
X162921803Y-112365004D01*
X162840819Y-112576759D01*
X162749366Y-112804629D01*
X162653104Y-113035075D01*
X162557695Y-113254561D01*
X162468800Y-113449550D01*
X162392078Y-113606503D01*
X162333191Y-113711883D01*
X162297799Y-113752153D01*
X162296671Y-113752211D01*
X162241981Y-113736087D01*
X162134425Y-113695949D01*
X162019102Y-113649447D01*
X161673695Y-113492600D01*
X161325897Y-113306505D01*
X160968199Y-113085735D01*
X160593097Y-112824858D01*
X160193084Y-112518448D01*
X159760653Y-112161073D01*
X159288298Y-111747306D01*
X158899432Y-111393120D01*
X158584697Y-111102449D01*
X158810963Y-110681975D01*
X159213652Y-109981587D01*
X159625169Y-109360210D01*
X160044676Y-108818711D01*
X160471335Y-108357958D01*
X160904306Y-107978819D01*
X161342751Y-107682161D01*
X161785832Y-107468851D01*
X161981654Y-107401739D01*
X162259649Y-107339672D01*
X162536777Y-107325312D01*
X162828242Y-107360760D01*
G36*
X175161749Y-102540252D02*
G01*
X175438428Y-102688230D01*
X175728202Y-102857802D01*
X176016931Y-103039373D01*
X176290478Y-103223349D01*
X176534704Y-103400135D01*
X176735471Y-103560136D01*
X176878639Y-103693759D01*
X176904731Y-103723053D01*
X176967566Y-103813062D01*
X177002096Y-103911156D01*
X177008838Y-104034538D01*
X176988312Y-104200410D01*
X176941037Y-104425974D01*
X176927649Y-104483000D01*
X176875142Y-104772219D01*
X176837873Y-105118817D01*
X176816671Y-105496745D01*
X176812366Y-105879949D01*
X176825790Y-106242379D01*
X176857771Y-106557983D01*
X176860858Y-106578500D01*
X176937343Y-106983132D01*
X177038841Y-107384025D01*
X177157469Y-107753259D01*
X177272045Y-108034738D01*
X177331723Y-108170447D01*
X177370662Y-108273151D01*
X177381048Y-108322066D01*
X177380442Y-108323002D01*
X177343011Y-108304513D01*
X177252678Y-108241683D01*
X177122078Y-108143779D01*
X176963844Y-108020065D01*
X176924625Y-107988738D01*
X176332004Y-107482092D01*
X175812493Y-106967699D01*
X175354805Y-106431109D01*
X174947648Y-105857871D01*
X174579733Y-105233535D01*
X174249083Y-104564149D01*
X174102910Y-104243130D01*
X174325548Y-103690444D01*
X174425456Y-103448177D01*
X174533681Y-103195178D01*
X174637296Y-102961156D01*
X174723374Y-102775821D01*
X174724635Y-102773214D01*
X174901085Y-102408669D01*
X175161749Y-102540252D01*
G37*
X175161749Y-102540252D02*
X175438428Y-102688230D01*
X175728202Y-102857802D01*
X176016931Y-103039373D01*
X176290478Y-103223349D01*
X176534704Y-103400135D01*
X176735471Y-103560136D01*
X176878639Y-103693759D01*
X176904731Y-103723053D01*
X176967566Y-103813062D01*
X177002096Y-103911156D01*
X177008838Y-104034538D01*
X176988312Y-104200410D01*
X176941037Y-104425974D01*
X176927649Y-104483000D01*
X176875142Y-104772219D01*
X176837873Y-105118817D01*
X176816671Y-105496745D01*
X176812366Y-105879949D01*
X176825790Y-106242379D01*
X176857771Y-106557983D01*
X176860858Y-106578500D01*
X176937343Y-106983132D01*
X177038841Y-107384025D01*
X177157469Y-107753259D01*
X177272045Y-108034738D01*
X177331723Y-108170447D01*
X177370662Y-108273151D01*
X177381048Y-108322066D01*
X177380442Y-108323002D01*
X177343011Y-108304513D01*
X177252678Y-108241683D01*
X177122078Y-108143779D01*
X176963844Y-108020065D01*
X176924625Y-107988738D01*
X176332004Y-107482092D01*
X175812493Y-106967699D01*
X175354805Y-106431109D01*
X174947648Y-105857871D01*
X174579733Y-105233535D01*
X174249083Y-104564149D01*
X174102910Y-104243130D01*
X174325548Y-103690444D01*
X174425456Y-103448177D01*
X174533681Y-103195178D01*
X174637296Y-102961156D01*
X174723374Y-102775821D01*
X174724635Y-102773214D01*
X174901085Y-102408669D01*
X175161749Y-102540252D01*
G36*
X177584949Y-105077767D02*
G01*
X177610812Y-105178710D01*
X177636636Y-105363472D01*
X177647187Y-105468654D01*
X177675268Y-105691758D01*
X177717080Y-105859320D01*
X177780207Y-106000240D01*
X177792227Y-106021282D01*
X177834209Y-106096372D01*
X177864145Y-106166043D01*
X177884069Y-106246109D01*
X177896015Y-106352385D01*
X177902016Y-106500684D01*
X177904107Y-106706820D01*
X177904333Y-106892955D01*
X177902175Y-107122193D01*
X177896211Y-107318481D01*
X177887203Y-107467685D01*
X177875914Y-107555668D01*
X177867609Y-107573334D01*
X177838426Y-107536002D01*
X177792799Y-107436607D01*
X177739058Y-107294045D01*
X177720840Y-107240374D01*
X177641950Y-106935089D01*
X177581975Y-106559212D01*
X177542303Y-106124982D01*
X177524326Y-105644641D01*
X177523369Y-105501117D01*
X177528259Y-105272319D01*
X177541561Y-105125125D01*
X177561162Y-105060090D01*
X177584949Y-105077767D01*
G37*
X177584949Y-105077767D02*
X177610812Y-105178710D01*
X177636636Y-105363472D01*
X177647187Y-105468654D01*
X177675268Y-105691758D01*
X177717080Y-105859320D01*
X177780207Y-106000240D01*
X177792227Y-106021282D01*
X177834209Y-106096372D01*
X177864145Y-106166043D01*
X177884069Y-106246109D01*
X177896015Y-106352385D01*
X177902016Y-106500684D01*
X177904107Y-106706820D01*
X177904333Y-106892955D01*
X177902175Y-107122193D01*
X177896211Y-107318481D01*
X177887203Y-107467685D01*
X177875914Y-107555668D01*
X177867609Y-107573334D01*
X177838426Y-107536002D01*
X177792799Y-107436607D01*
X177739058Y-107294045D01*
X177720840Y-107240374D01*
X177641950Y-106935089D01*
X177581975Y-106559212D01*
X177542303Y-106124982D01*
X177524326Y-105644641D01*
X177523369Y-105501117D01*
X177528259Y-105272319D01*
X177541561Y-105125125D01*
X177561162Y-105060090D01*
X177584949Y-105077767D01*
G36*
X164513345Y-43409429D02*
G01*
X166174927Y-43529360D01*
X167816543Y-43722009D01*
X169427363Y-43986474D01*
X170199667Y-44141478D01*
X171274228Y-44392700D01*
X172387004Y-44694962D01*
X173514844Y-45040970D01*
X174634596Y-45423431D01*
X175723111Y-45835051D01*
X176225660Y-46039989D01*
X177796188Y-46741795D01*
X179323853Y-47516118D01*
X180809658Y-48363586D01*
X182254607Y-49284825D01*
X183659702Y-50280464D01*
X185025947Y-51351128D01*
X185878235Y-52074107D01*
X186188509Y-52349654D01*
X186511025Y-52643935D01*
X186840119Y-52951166D01*
X187170122Y-53265565D01*
X187495368Y-53581352D01*
X187810192Y-53892744D01*
X188108926Y-54193958D01*
X188385903Y-54479214D01*
X188635459Y-54742729D01*
X188851925Y-54978720D01*
X189029636Y-55181408D01*
X189162925Y-55345008D01*
X189246125Y-55463740D01*
X189273571Y-55531822D01*
X189272464Y-55537484D01*
X189247281Y-55589590D01*
X189186707Y-55708033D01*
X189095140Y-55884416D01*
X188976976Y-56110340D01*
X188836611Y-56377407D01*
X188678442Y-56677218D01*
X188506866Y-57001375D01*
X188448190Y-57112000D01*
X187951651Y-58052996D01*
X187450525Y-59012961D01*
X186948738Y-59984002D01*
X186450217Y-60958224D01*
X185958889Y-61927732D01*
X185478681Y-62884632D01*
X185013520Y-63821029D01*
X184567333Y-64729029D01*
X184144046Y-65600736D01*
X183747586Y-66428256D01*
X183381881Y-67203695D01*
X183050856Y-67919158D01*
X182828357Y-68410203D01*
X182803566Y-68465353D01*
X182780894Y-68515629D01*
X182759384Y-68563370D01*
X182738080Y-68610917D01*
X182716027Y-68660607D01*
X182692268Y-68714781D01*
X182665848Y-68775776D01*
X182635810Y-68845933D01*
X182601200Y-68927591D01*
X182561060Y-69023088D01*
X182514435Y-69134764D01*
X182460370Y-69264958D01*
X182397908Y-69416009D01*
X182326093Y-69590257D01*
X182243969Y-69790040D01*
X182150581Y-70017698D01*
X182044973Y-70275570D01*
X181926188Y-70565995D01*
X181793271Y-70891312D01*
X181645266Y-71253860D01*
X181481216Y-71655979D01*
X181300167Y-72100007D01*
X181101162Y-72588285D01*
X180883246Y-73123150D01*
X180645461Y-73706942D01*
X180386853Y-74342001D01*
X180106466Y-75030665D01*
X179803343Y-75775274D01*
X179476529Y-76578167D01*
X179125067Y-77441682D01*
X178748003Y-78368160D01*
X178344379Y-79359939D01*
X177913241Y-80419359D01*
X177453632Y-81548758D01*
X176964596Y-82750476D01*
X176445177Y-84026851D01*
X176114131Y-84840334D01*
X175894926Y-85379101D01*
X175668388Y-85936114D01*
X175439066Y-86500173D01*
X175211510Y-87060075D01*
X174990271Y-87604620D01*
X174779900Y-88122605D01*
X174584946Y-88602829D01*
X174409961Y-89034091D01*
X174259495Y-89405189D01*
X174179426Y-89602834D01*
X174020242Y-89995317D01*
X173858445Y-90393113D01*
X173699519Y-90782808D01*
X173548953Y-91150991D01*
X173412232Y-91484252D01*
X173294843Y-91769177D01*
X173202273Y-91992356D01*
X173183623Y-92037000D01*
X173056096Y-92343778D01*
X172912100Y-92693609D01*
X172765916Y-93051596D01*
X172631824Y-93382843D01*
X172577318Y-93518667D01*
X172501085Y-93708291D01*
X172397268Y-93964959D01*
X172270457Y-94277396D01*
X172125245Y-94634331D01*
X171966220Y-95024491D01*
X171797974Y-95436604D01*
X171625097Y-95859396D01*
X171452180Y-96281597D01*
X171448120Y-96291500D01*
X171221517Y-96844795D01*
X171025209Y-97325414D01*
X170857047Y-97738887D01*
X170714880Y-98090740D01*
X170596556Y-98386502D01*
X170499925Y-98631700D01*
X170422836Y-98831862D01*
X170363138Y-98992516D01*
X170318681Y-99119189D01*
X170287313Y-99217410D01*
X170266884Y-99292705D01*
X170255243Y-99350604D01*
X170253682Y-99361303D01*
X170257088Y-99494784D01*
X170291281Y-99678992D01*
X170332073Y-99826970D01*
X170390991Y-100093407D01*
X170423884Y-100412508D01*
X170430272Y-100756213D01*
X170409674Y-101096466D01*
X170361610Y-101405207D01*
X170359276Y-101415761D01*
X170204400Y-101957923D01*
X169992534Y-102467588D01*
X169729854Y-102935384D01*
X169422531Y-103351936D01*
X169076738Y-103707872D01*
X168698650Y-103993818D01*
X168636288Y-104032023D01*
X168402238Y-104186408D01*
X168244384Y-104325951D01*
X168193562Y-104391856D01*
X168149681Y-104475457D01*
X168080387Y-104624132D01*
X167991642Y-104824316D01*
X167889408Y-105062443D01*
X167779646Y-105324949D01*
X167725771Y-105456279D01*
X167616818Y-105722312D01*
X167515358Y-105967643D01*
X167426761Y-106179479D01*
X167356398Y-106345024D01*
X167309637Y-106451483D01*
X167296494Y-106479125D01*
X167229557Y-106580782D01*
X167136336Y-106664722D01*
X167002862Y-106738489D01*
X166815168Y-106809627D01*
X166559286Y-106885681D01*
X166527898Y-106894258D01*
X166328146Y-106948555D01*
X166153531Y-106996114D01*
X166022981Y-107031773D01*
X165955750Y-107050278D01*
X165894222Y-107050199D01*
X165881667Y-107032091D01*
X165897184Y-106982682D01*
X165940822Y-106865879D01*
X166008212Y-106692469D01*
X166094983Y-106473244D01*
X166196764Y-106218991D01*
X166309187Y-105940499D01*
X166427879Y-105648559D01*
X166548473Y-105353959D01*
X166666597Y-105067489D01*
X166777881Y-104799937D01*
X166877955Y-104562093D01*
X166956498Y-104378486D01*
X167180549Y-103860680D01*
X167055054Y-103526257D01*
X166940432Y-103103420D01*
X166898370Y-102645159D01*
X166928056Y-102158298D01*
X167028678Y-101649662D01*
X167199423Y-101126076D01*
X167392929Y-100686835D01*
X167597295Y-100316250D01*
X167827767Y-99990251D01*
X168098157Y-99693922D01*
X168422275Y-99412345D01*
X168813934Y-99130602D01*
X168865086Y-99096757D01*
X169005641Y-98987219D01*
X169133641Y-98859071D01*
X169187918Y-98789167D01*
X169236979Y-98699712D01*
X169310417Y-98545756D01*
X169401840Y-98341676D01*
X169504859Y-98101851D01*
X169613082Y-97840657D01*
X169648938Y-97752000D01*
X169740914Y-97523748D01*
X169863508Y-97220491D01*
X170015345Y-96845614D01*
X170195049Y-96402500D01*
X170401242Y-95894533D01*
X170632550Y-95325097D01*
X170887595Y-94697577D01*
X171165001Y-94015355D01*
X171463393Y-93281816D01*
X171781393Y-92500345D01*
X172117626Y-91674324D01*
X172470715Y-90807137D01*
X172839284Y-89902169D01*
X173221957Y-88962804D01*
X173617358Y-87992426D01*
X174024109Y-86994417D01*
X174030733Y-86978167D01*
X174524067Y-85767819D01*
X174986129Y-84634108D01*
X175417634Y-83575279D01*
X175819298Y-82589575D01*
X176191834Y-81675243D01*
X176535959Y-80830526D01*
X176852386Y-80053670D01*
X177141831Y-79342918D01*
X177405008Y-78696516D01*
X177642633Y-78112709D01*
X177855421Y-77589741D01*
X178044086Y-77125857D01*
X178209342Y-76719302D01*
X178349735Y-76373667D01*
X178463699Y-76093063D01*
X178605156Y-75744915D01*
X178769682Y-75340099D01*
X178952857Y-74889492D01*
X179150257Y-74403970D01*
X179357460Y-73894411D01*
X179570045Y-73371690D01*
X179783588Y-72846685D01*
X179993667Y-72330272D01*
X180062332Y-72161500D01*
X180257801Y-71681016D01*
X180448723Y-71211609D01*
X180631944Y-70761039D01*
X180804313Y-70337062D01*
X180962675Y-69947437D01*
X181103878Y-69599921D01*
X181224769Y-69302273D01*
X181322195Y-69062250D01*
X181393004Y-68887611D01*
X181424362Y-68810111D01*
X181520781Y-68561365D01*
X181597296Y-68335685D01*
X181656545Y-68117301D01*
X181701166Y-67890444D01*
X181733800Y-67639343D01*
X181757083Y-67348228D01*
X181773657Y-67001330D01*
X181784209Y-66659648D01*
X181792844Y-65950145D01*
X181778860Y-65311920D01*
X181741124Y-64734359D01*
X181678501Y-64206843D01*
X181589857Y-63718757D01*
X181474058Y-63259484D01*
X181393295Y-62999990D01*
X181323888Y-62801791D01*
X181251549Y-62621465D01*
X181170200Y-62450564D01*
X181073761Y-62280637D01*
X180956156Y-62103236D01*
X180811303Y-61909913D01*
X180633126Y-61692217D01*
X180415544Y-61441700D01*
X180152480Y-61149912D01*
X179837854Y-60808406D01*
X179743274Y-60706577D01*
X178793447Y-59720442D01*
X177825300Y-58786717D01*
X176832499Y-57901086D01*
X175808714Y-57059230D01*
X174747612Y-56256831D01*
X173642862Y-55489571D01*
X172488132Y-54753132D01*
X171277090Y-54043196D01*
X170003405Y-53355444D01*
X168660744Y-52685560D01*
X167242776Y-52029224D01*
X166612511Y-51751907D01*
X165999542Y-51501101D01*
X165326096Y-51252404D01*
X164607516Y-51010026D01*
X163859148Y-50778179D01*
X163096335Y-50561075D01*
X162334423Y-50362923D01*
X161588755Y-50187936D01*
X160874675Y-50040325D01*
X160207530Y-49924301D01*
X159701000Y-49855072D01*
X159422847Y-49822591D01*
X159110970Y-49786005D01*
X158807261Y-49750237D01*
X158595390Y-49725169D01*
X157948117Y-49661432D01*
X157240937Y-49615281D01*
X156496878Y-49587266D01*
X155738969Y-49577936D01*
X154990238Y-49587841D01*
X154273713Y-49617530D01*
X154218833Y-49620754D01*
X153905785Y-49642780D01*
X153541735Y-49673716D01*
X153142802Y-49711746D01*
X152725107Y-49755050D01*
X152304770Y-49801812D01*
X151897910Y-49850213D01*
X151520647Y-49898437D01*
X151189102Y-49944666D01*
X150919395Y-49987081D01*
X150832167Y-50002623D01*
X150114258Y-50150590D01*
X149346258Y-50334152D01*
X148551395Y-50546564D01*
X147752895Y-50781077D01*
X146973985Y-51030946D01*
X146237893Y-51289422D01*
X145723761Y-51486523D01*
X144662739Y-51945276D01*
X143615269Y-52468436D01*
X142577746Y-53058514D01*
X141546564Y-53718023D01*
X140518120Y-54449477D01*
X139488808Y-55255389D01*
X138455024Y-56138272D01*
X137413162Y-57100637D01*
X136775020Y-57724889D01*
X136367110Y-58135961D01*
X136010398Y-58504652D01*
X135692751Y-58844774D01*
X135402037Y-59170138D01*
X135126121Y-59494556D01*
X134852872Y-59831838D01*
X134570155Y-60195796D01*
X134360364Y-60473513D01*
X134197167Y-60690571D01*
X134052331Y-60881338D01*
X133932990Y-61036572D01*
X133846279Y-61147030D01*
X133799333Y-61203469D01*
X133793000Y-61208498D01*
X133805346Y-61150074D01*
X133839517Y-61025341D01*
X133891211Y-60848527D01*
X133956125Y-60633859D01*
X134029958Y-60395564D01*
X134108409Y-60147868D01*
X134186845Y-59906000D01*
X134594994Y-58797421D01*
X135085615Y-57702960D01*
X135657337Y-56624975D01*
X136308786Y-55565823D01*
X137038589Y-54527862D01*
X137845375Y-53513449D01*
X138046101Y-53278609D01*
X138292734Y-53003866D01*
X138589483Y-52689462D01*
X138921457Y-52349988D01*
X139273769Y-52000032D01*
X139631530Y-51654185D01*
X139979854Y-51327036D01*
X140303851Y-51033175D01*
X140587500Y-50788138D01*
X141776605Y-49849638D01*
X143024569Y-48970722D01*
X144332226Y-48150866D01*
X145700408Y-47389543D01*
X147001000Y-46746118D01*
X147633724Y-46455924D01*
X148217577Y-46200263D01*
X148776067Y-45969738D01*
X149332702Y-45754952D01*
X149910990Y-45546507D01*
X150514667Y-45341548D01*
X151179785Y-45124326D01*
X151781355Y-44934690D01*
X152334354Y-44768570D01*
X152853763Y-44621898D01*
X153354558Y-44490604D01*
X153851718Y-44370619D01*
X154360221Y-44257873D01*
X154895046Y-44148298D01*
X154938500Y-44139728D01*
X155968226Y-43947102D01*
X156942144Y-43786442D01*
X157881746Y-43655168D01*
X158808523Y-43550700D01*
X159743966Y-43470459D01*
X160709566Y-43411865D01*
X161173619Y-43391319D01*
X162842632Y-43363115D01*
X164513345Y-43409429D01*
G37*
X164513345Y-43409429D02*
X166174927Y-43529360D01*
X167816543Y-43722009D01*
X169427363Y-43986474D01*
X170199667Y-44141478D01*
X171274228Y-44392700D01*
X172387004Y-44694962D01*
X173514844Y-45040970D01*
X174634596Y-45423431D01*
X175723111Y-45835051D01*
X176225660Y-46039989D01*
X177796188Y-46741795D01*
X179323853Y-47516118D01*
X180809658Y-48363586D01*
X182254607Y-49284825D01*
X183659702Y-50280464D01*
X185025947Y-51351128D01*
X185878235Y-52074107D01*
X186188509Y-52349654D01*
X186511025Y-52643935D01*
X186840119Y-52951166D01*
X187170122Y-53265565D01*
X187495368Y-53581352D01*
X187810192Y-53892744D01*
X188108926Y-54193958D01*
X188385903Y-54479214D01*
X188635459Y-54742729D01*
X188851925Y-54978720D01*
X189029636Y-55181408D01*
X189162925Y-55345008D01*
X189246125Y-55463740D01*
X189273571Y-55531822D01*
X189272464Y-55537484D01*
X189247281Y-55589590D01*
X189186707Y-55708033D01*
X189095140Y-55884416D01*
X188976976Y-56110340D01*
X188836611Y-56377407D01*
X188678442Y-56677218D01*
X188506866Y-57001375D01*
X188448190Y-57112000D01*
X187951651Y-58052996D01*
X187450525Y-59012961D01*
X186948738Y-59984002D01*
X186450217Y-60958224D01*
X185958889Y-61927732D01*
X185478681Y-62884632D01*
X185013520Y-63821029D01*
X184567333Y-64729029D01*
X184144046Y-65600736D01*
X183747586Y-66428256D01*
X183381881Y-67203695D01*
X183050856Y-67919158D01*
X182828357Y-68410203D01*
X182803566Y-68465353D01*
X182780894Y-68515629D01*
X182759384Y-68563370D01*
X182738080Y-68610917D01*
X182716027Y-68660607D01*
X182692268Y-68714781D01*
X182665848Y-68775776D01*
X182635810Y-68845933D01*
X182601200Y-68927591D01*
X182561060Y-69023088D01*
X182514435Y-69134764D01*
X182460370Y-69264958D01*
X182397908Y-69416009D01*
X182326093Y-69590257D01*
X182243969Y-69790040D01*
X182150581Y-70017698D01*
X182044973Y-70275570D01*
X181926188Y-70565995D01*
X181793271Y-70891312D01*
X181645266Y-71253860D01*
X181481216Y-71655979D01*
X181300167Y-72100007D01*
X181101162Y-72588285D01*
X180883246Y-73123150D01*
X180645461Y-73706942D01*
X180386853Y-74342001D01*
X180106466Y-75030665D01*
X179803343Y-75775274D01*
X179476529Y-76578167D01*
X179125067Y-77441682D01*
X178748003Y-78368160D01*
X178344379Y-79359939D01*
X177913241Y-80419359D01*
X177453632Y-81548758D01*
X176964596Y-82750476D01*
X176445177Y-84026851D01*
X176114131Y-84840334D01*
X175894926Y-85379101D01*
X175668388Y-85936114D01*
X175439066Y-86500173D01*
X175211510Y-87060075D01*
X174990271Y-87604620D01*
X174779900Y-88122605D01*
X174584946Y-88602829D01*
X174409961Y-89034091D01*
X174259495Y-89405189D01*
X174179426Y-89602834D01*
X174020242Y-89995317D01*
X173858445Y-90393113D01*
X173699519Y-90782808D01*
X173548953Y-91150991D01*
X173412232Y-91484252D01*
X173294843Y-91769177D01*
X173202273Y-91992356D01*
X173183623Y-92037000D01*
X173056096Y-92343778D01*
X172912100Y-92693609D01*
X172765916Y-93051596D01*
X172631824Y-93382843D01*
X172577318Y-93518667D01*
X172501085Y-93708291D01*
X172397268Y-93964959D01*
X172270457Y-94277396D01*
X172125245Y-94634331D01*
X171966220Y-95024491D01*
X171797974Y-95436604D01*
X171625097Y-95859396D01*
X171452180Y-96281597D01*
X171448120Y-96291500D01*
X171221517Y-96844795D01*
X171025209Y-97325414D01*
X170857047Y-97738887D01*
X170714880Y-98090740D01*
X170596556Y-98386502D01*
X170499925Y-98631700D01*
X170422836Y-98831862D01*
X170363138Y-98992516D01*
X170318681Y-99119189D01*
X170287313Y-99217410D01*
X170266884Y-99292705D01*
X170255243Y-99350604D01*
X170253682Y-99361303D01*
X170257088Y-99494784D01*
X170291281Y-99678992D01*
X170332073Y-99826970D01*
X170390991Y-100093407D01*
X170423884Y-100412508D01*
X170430272Y-100756213D01*
X170409674Y-101096466D01*
X170361610Y-101405207D01*
X170359276Y-101415761D01*
X170204400Y-101957923D01*
X169992534Y-102467588D01*
X169729854Y-102935384D01*
X169422531Y-103351936D01*
X169076738Y-103707872D01*
X168698650Y-103993818D01*
X168636288Y-104032023D01*
X168402238Y-104186408D01*
X168244384Y-104325951D01*
X168193562Y-104391856D01*
X168149681Y-104475457D01*
X168080387Y-104624132D01*
X167991642Y-104824316D01*
X167889408Y-105062443D01*
X167779646Y-105324949D01*
X167725771Y-105456279D01*
X167616818Y-105722312D01*
X167515358Y-105967643D01*
X167426761Y-106179479D01*
X167356398Y-106345024D01*
X167309637Y-106451483D01*
X167296494Y-106479125D01*
X167229557Y-106580782D01*
X167136336Y-106664722D01*
X167002862Y-106738489D01*
X166815168Y-106809627D01*
X166559286Y-106885681D01*
X166527898Y-106894258D01*
X166328146Y-106948555D01*
X166153531Y-106996114D01*
X166022981Y-107031773D01*
X165955750Y-107050278D01*
X165894222Y-107050199D01*
X165881667Y-107032091D01*
X165897184Y-106982682D01*
X165940822Y-106865879D01*
X166008212Y-106692469D01*
X166094983Y-106473244D01*
X166196764Y-106218991D01*
X166309187Y-105940499D01*
X166427879Y-105648559D01*
X166548473Y-105353959D01*
X166666597Y-105067489D01*
X166777881Y-104799937D01*
X166877955Y-104562093D01*
X166956498Y-104378486D01*
X167180549Y-103860680D01*
X167055054Y-103526257D01*
X166940432Y-103103420D01*
X166898370Y-102645159D01*
X166928056Y-102158298D01*
X167028678Y-101649662D01*
X167199423Y-101126076D01*
X167392929Y-100686835D01*
X167597295Y-100316250D01*
X167827767Y-99990251D01*
X168098157Y-99693922D01*
X168422275Y-99412345D01*
X168813934Y-99130602D01*
X168865086Y-99096757D01*
X169005641Y-98987219D01*
X169133641Y-98859071D01*
X169187918Y-98789167D01*
X169236979Y-98699712D01*
X169310417Y-98545756D01*
X169401840Y-98341676D01*
X169504859Y-98101851D01*
X169613082Y-97840657D01*
X169648938Y-97752000D01*
X169740914Y-97523748D01*
X169863508Y-97220491D01*
X170015345Y-96845614D01*
X170195049Y-96402500D01*
X170401242Y-95894533D01*
X170632550Y-95325097D01*
X170887595Y-94697577D01*
X171165001Y-94015355D01*
X171463393Y-93281816D01*
X171781393Y-92500345D01*
X172117626Y-91674324D01*
X172470715Y-90807137D01*
X172839284Y-89902169D01*
X173221957Y-88962804D01*
X173617358Y-87992426D01*
X174024109Y-86994417D01*
X174030733Y-86978167D01*
X174524067Y-85767819D01*
X174986129Y-84634108D01*
X175417634Y-83575279D01*
X175819298Y-82589575D01*
X176191834Y-81675243D01*
X176535959Y-80830526D01*
X176852386Y-80053670D01*
X177141831Y-79342918D01*
X177405008Y-78696516D01*
X177642633Y-78112709D01*
X177855421Y-77589741D01*
X178044086Y-77125857D01*
X178209342Y-76719302D01*
X178349735Y-76373667D01*
X178463699Y-76093063D01*
X178605156Y-75744915D01*
X178769682Y-75340099D01*
X178952857Y-74889492D01*
X179150257Y-74403970D01*
X179357460Y-73894411D01*
X179570045Y-73371690D01*
X179783588Y-72846685D01*
X179993667Y-72330272D01*
X180062332Y-72161500D01*
X180257801Y-71681016D01*
X180448723Y-71211609D01*
X180631944Y-70761039D01*
X180804313Y-70337062D01*
X180962675Y-69947437D01*
X181103878Y-69599921D01*
X181224769Y-69302273D01*
X181322195Y-69062250D01*
X181393004Y-68887611D01*
X181424362Y-68810111D01*
X181520781Y-68561365D01*
X181597296Y-68335685D01*
X181656545Y-68117301D01*
X181701166Y-67890444D01*
X181733800Y-67639343D01*
X181757083Y-67348228D01*
X181773657Y-67001330D01*
X181784209Y-66659648D01*
X181792844Y-65950145D01*
X181778860Y-65311920D01*
X181741124Y-64734359D01*
X181678501Y-64206843D01*
X181589857Y-63718757D01*
X181474058Y-63259484D01*
X181393295Y-62999990D01*
X181323888Y-62801791D01*
X181251549Y-62621465D01*
X181170200Y-62450564D01*
X181073761Y-62280637D01*
X180956156Y-62103236D01*
X180811303Y-61909913D01*
X180633126Y-61692217D01*
X180415544Y-61441700D01*
X180152480Y-61149912D01*
X179837854Y-60808406D01*
X179743274Y-60706577D01*
X178793447Y-59720442D01*
X177825300Y-58786717D01*
X176832499Y-57901086D01*
X175808714Y-57059230D01*
X174747612Y-56256831D01*
X173642862Y-55489571D01*
X172488132Y-54753132D01*
X171277090Y-54043196D01*
X170003405Y-53355444D01*
X168660744Y-52685560D01*
X167242776Y-52029224D01*
X166612511Y-51751907D01*
X165999542Y-51501101D01*
X165326096Y-51252404D01*
X164607516Y-51010026D01*
X163859148Y-50778179D01*
X163096335Y-50561075D01*
X162334423Y-50362923D01*
X161588755Y-50187936D01*
X160874675Y-50040325D01*
X160207530Y-49924301D01*
X159701000Y-49855072D01*
X159422847Y-49822591D01*
X159110970Y-49786005D01*
X158807261Y-49750237D01*
X158595390Y-49725169D01*
X157948117Y-49661432D01*
X157240937Y-49615281D01*
X156496878Y-49587266D01*
X155738969Y-49577936D01*
X154990238Y-49587841D01*
X154273713Y-49617530D01*
X154218833Y-49620754D01*
X153905785Y-49642780D01*
X153541735Y-49673716D01*
X153142802Y-49711746D01*
X152725107Y-49755050D01*
X152304770Y-49801812D01*
X151897910Y-49850213D01*
X151520647Y-49898437D01*
X151189102Y-49944666D01*
X150919395Y-49987081D01*
X150832167Y-50002623D01*
X150114258Y-50150590D01*
X149346258Y-50334152D01*
X148551395Y-50546564D01*
X147752895Y-50781077D01*
X146973985Y-51030946D01*
X146237893Y-51289422D01*
X145723761Y-51486523D01*
X144662739Y-51945276D01*
X143615269Y-52468436D01*
X142577746Y-53058514D01*
X141546564Y-53718023D01*
X140518120Y-54449477D01*
X139488808Y-55255389D01*
X138455024Y-56138272D01*
X137413162Y-57100637D01*
X136775020Y-57724889D01*
X136367110Y-58135961D01*
X136010398Y-58504652D01*
X135692751Y-58844774D01*
X135402037Y-59170138D01*
X135126121Y-59494556D01*
X134852872Y-59831838D01*
X134570155Y-60195796D01*
X134360364Y-60473513D01*
X134197167Y-60690571D01*
X134052331Y-60881338D01*
X133932990Y-61036572D01*
X133846279Y-61147030D01*
X133799333Y-61203469D01*
X133793000Y-61208498D01*
X133805346Y-61150074D01*
X133839517Y-61025341D01*
X133891211Y-60848527D01*
X133956125Y-60633859D01*
X134029958Y-60395564D01*
X134108409Y-60147868D01*
X134186845Y-59906000D01*
X134594994Y-58797421D01*
X135085615Y-57702960D01*
X135657337Y-56624975D01*
X136308786Y-55565823D01*
X137038589Y-54527862D01*
X137845375Y-53513449D01*
X138046101Y-53278609D01*
X138292734Y-53003866D01*
X138589483Y-52689462D01*
X138921457Y-52349988D01*
X139273769Y-52000032D01*
X139631530Y-51654185D01*
X139979854Y-51327036D01*
X140303851Y-51033175D01*
X140587500Y-50788138D01*
X141776605Y-49849638D01*
X143024569Y-48970722D01*
X144332226Y-48150866D01*
X145700408Y-47389543D01*
X147001000Y-46746118D01*
X147633724Y-46455924D01*
X148217577Y-46200263D01*
X148776067Y-45969738D01*
X149332702Y-45754952D01*
X149910990Y-45546507D01*
X150514667Y-45341548D01*
X151179785Y-45124326D01*
X151781355Y-44934690D01*
X152334354Y-44768570D01*
X152853763Y-44621898D01*
X153354558Y-44490604D01*
X153851718Y-44370619D01*
X154360221Y-44257873D01*
X154895046Y-44148298D01*
X154938500Y-44139728D01*
X155968226Y-43947102D01*
X156942144Y-43786442D01*
X157881746Y-43655168D01*
X158808523Y-43550700D01*
X159743966Y-43470459D01*
X160709566Y-43411865D01*
X161173619Y-43391319D01*
X162842632Y-43363115D01*
X164513345Y-43409429D01*
G36*
X172198783Y-99789541D02*
G01*
X172247200Y-99864812D01*
X172315409Y-99995916D01*
X172576431Y-100436084D01*
X172911677Y-100869042D01*
X173310793Y-101283647D01*
X173763427Y-101668759D01*
X174085413Y-101900667D01*
X174200339Y-101983519D01*
X174280113Y-102051727D01*
X174305918Y-102086812D01*
X174290570Y-102136073D01*
X174247755Y-102250936D01*
X174182399Y-102418776D01*
X174099424Y-102626969D01*
X174003754Y-102862892D01*
X173992195Y-102891145D01*
X173887228Y-103151920D01*
X173787395Y-103408029D01*
X173699751Y-103640764D01*
X173631354Y-103831418D01*
X173591413Y-103953834D01*
X173514396Y-104265540D01*
X173446005Y-104639342D01*
X173389674Y-105052828D01*
X173348839Y-105483586D01*
X173342187Y-105579841D01*
X173326605Y-105791528D01*
X173311102Y-105927973D01*
X173293903Y-105998580D01*
X173273232Y-106012753D01*
X173262284Y-106003175D01*
X173202741Y-105913578D01*
X173117543Y-105763215D01*
X173015046Y-105568856D01*
X172903612Y-105347267D01*
X172791599Y-105115217D01*
X172687366Y-104889473D01*
X172599273Y-104686804D01*
X172569333Y-104613190D01*
X172409560Y-104171194D01*
X172271359Y-103712712D01*
X172161425Y-103263428D01*
X172086454Y-102849027D01*
X172066152Y-102683200D01*
X172044152Y-102401079D01*
X172029915Y-102080773D01*
X172023058Y-101736066D01*
X172023199Y-101380738D01*
X172029954Y-101028572D01*
X172042940Y-100693349D01*
X172061774Y-100388851D01*
X172086072Y-100128860D01*
X172115452Y-99927157D01*
X172146132Y-99806285D01*
X172167951Y-99773234D01*
X172198783Y-99789541D01*
G37*
X172198783Y-99789541D02*
X172247200Y-99864812D01*
X172315409Y-99995916D01*
X172576431Y-100436084D01*
X172911677Y-100869042D01*
X173310793Y-101283647D01*
X173763427Y-101668759D01*
X174085413Y-101900667D01*
X174200339Y-101983519D01*
X174280113Y-102051727D01*
X174305918Y-102086812D01*
X174290570Y-102136073D01*
X174247755Y-102250936D01*
X174182399Y-102418776D01*
X174099424Y-102626969D01*
X174003754Y-102862892D01*
X173992195Y-102891145D01*
X173887228Y-103151920D01*
X173787395Y-103408029D01*
X173699751Y-103640764D01*
X173631354Y-103831418D01*
X173591413Y-103953834D01*
X173514396Y-104265540D01*
X173446005Y-104639342D01*
X173389674Y-105052828D01*
X173348839Y-105483586D01*
X173342187Y-105579841D01*
X173326605Y-105791528D01*
X173311102Y-105927973D01*
X173293903Y-105998580D01*
X173273232Y-106012753D01*
X173262284Y-106003175D01*
X173202741Y-105913578D01*
X173117543Y-105763215D01*
X173015046Y-105568856D01*
X172903612Y-105347267D01*
X172791599Y-105115217D01*
X172687366Y-104889473D01*
X172599273Y-104686804D01*
X172569333Y-104613190D01*
X172409560Y-104171194D01*
X172271359Y-103712712D01*
X172161425Y-103263428D01*
X172086454Y-102849027D01*
X172066152Y-102683200D01*
X172044152Y-102401079D01*
X172029915Y-102080773D01*
X172023058Y-101736066D01*
X172023199Y-101380738D01*
X172029954Y-101028572D01*
X172042940Y-100693349D01*
X172061774Y-100388851D01*
X172086072Y-100128860D01*
X172115452Y-99927157D01*
X172146132Y-99806285D01*
X172167951Y-99773234D01*
X172198783Y-99789541D01*
G36*
X175149234Y-93108065D02*
G01*
X175263746Y-93143049D01*
X175427993Y-93195471D01*
X175626729Y-93260515D01*
X175706423Y-93286974D01*
X176281446Y-93478615D01*
X176280430Y-95139058D01*
X176281775Y-95621527D01*
X176286257Y-96072200D01*
X176293634Y-96480751D01*
X176303665Y-96836851D01*
X176316108Y-97130175D01*
X176330723Y-97350394D01*
X176332572Y-97371000D01*
X176410637Y-97996598D01*
X176534849Y-98690486D01*
X176705331Y-99453194D01*
X176922206Y-100285248D01*
X177185596Y-101187178D01*
X177312559Y-101594646D01*
X177479687Y-102128771D01*
X177623767Y-102603850D01*
X177744059Y-103017046D01*
X177839825Y-103365521D01*
X177910324Y-103646437D01*
X177954819Y-103856958D01*
X177972568Y-103994245D01*
X177962833Y-104055462D01*
X177954588Y-104058575D01*
X177917286Y-104025690D01*
X177849803Y-103941366D01*
X177781620Y-103845402D01*
X177669236Y-103694067D01*
X177536945Y-103545480D01*
X177377775Y-103394547D01*
X177184756Y-103236173D01*
X176950920Y-103065263D01*
X176669294Y-102876722D01*
X176332911Y-102665456D01*
X175934799Y-102426370D01*
X175468672Y-102154764D01*
X175088582Y-101934120D01*
X174772276Y-101746492D01*
X174508956Y-101584822D01*
X174287827Y-101442048D01*
X174098090Y-101311113D01*
X173928948Y-101184956D01*
X173769603Y-101056518D01*
X173703754Y-101000839D01*
X173373552Y-100671369D01*
X173067483Y-100273980D01*
X172794507Y-99824048D01*
X172563587Y-99336948D01*
X172383683Y-98828058D01*
X172336020Y-98653953D01*
X172258908Y-98349406D01*
X172914879Y-97676319D01*
X173374695Y-97186916D01*
X173766355Y-96730540D01*
X174095536Y-96298775D01*
X174367912Y-95883207D01*
X174589159Y-95475419D01*
X174764953Y-95066997D01*
X174858358Y-94794537D01*
X174931413Y-94511682D01*
X174993874Y-94180787D01*
X175040257Y-93838323D01*
X175065075Y-93520764D01*
X175067750Y-93402250D01*
X175071880Y-93253311D01*
X175082548Y-93144224D01*
X175097562Y-93096029D01*
X175099700Y-93095334D01*
X175149234Y-93108065D01*
G37*
X175149234Y-93108065D02*
X175263746Y-93143049D01*
X175427993Y-93195471D01*
X175626729Y-93260515D01*
X175706423Y-93286974D01*
X176281446Y-93478615D01*
X176280430Y-95139058D01*
X176281775Y-95621527D01*
X176286257Y-96072200D01*
X176293634Y-96480751D01*
X176303665Y-96836851D01*
X176316108Y-97130175D01*
X176330723Y-97350394D01*
X176332572Y-97371000D01*
X176410637Y-97996598D01*
X176534849Y-98690486D01*
X176705331Y-99453194D01*
X176922206Y-100285248D01*
X177185596Y-101187178D01*
X177312559Y-101594646D01*
X177479687Y-102128771D01*
X177623767Y-102603850D01*
X177744059Y-103017046D01*
X177839825Y-103365521D01*
X177910324Y-103646437D01*
X177954819Y-103856958D01*
X177972568Y-103994245D01*
X177962833Y-104055462D01*
X177954588Y-104058575D01*
X177917286Y-104025690D01*
X177849803Y-103941366D01*
X177781620Y-103845402D01*
X177669236Y-103694067D01*
X177536945Y-103545480D01*
X177377775Y-103394547D01*
X177184756Y-103236173D01*
X176950920Y-103065263D01*
X176669294Y-102876722D01*
X176332911Y-102665456D01*
X175934799Y-102426370D01*
X175468672Y-102154764D01*
X175088582Y-101934120D01*
X174772276Y-101746492D01*
X174508956Y-101584822D01*
X174287827Y-101442048D01*
X174098090Y-101311113D01*
X173928948Y-101184956D01*
X173769603Y-101056518D01*
X173703754Y-101000839D01*
X173373552Y-100671369D01*
X173067483Y-100273980D01*
X172794507Y-99824048D01*
X172563587Y-99336948D01*
X172383683Y-98828058D01*
X172336020Y-98653953D01*
X172258908Y-98349406D01*
X172914879Y-97676319D01*
X173374695Y-97186916D01*
X173766355Y-96730540D01*
X174095536Y-96298775D01*
X174367912Y-95883207D01*
X174589159Y-95475419D01*
X174764953Y-95066997D01*
X174858358Y-94794537D01*
X174931413Y-94511682D01*
X174993874Y-94180787D01*
X175040257Y-93838323D01*
X175065075Y-93520764D01*
X175067750Y-93402250D01*
X175071880Y-93253311D01*
X175082548Y-93144224D01*
X175097562Y-93096029D01*
X175099700Y-93095334D01*
X175149234Y-93108065D01*
G36*
X178426452Y-93948018D02*
G01*
X178492311Y-93955422D01*
X178728119Y-93990960D01*
X178933895Y-94034796D01*
X179092243Y-94082457D01*
X179185768Y-94129474D01*
X179192245Y-94135293D01*
X179232950Y-94221468D01*
X179263479Y-94381368D01*
X179284088Y-94604700D01*
X179295037Y-94881169D01*
X179296583Y-95200480D01*
X179288985Y-95552338D01*
X179272501Y-95926448D01*
X179247388Y-96312516D01*
X179213906Y-96700246D01*
X179172312Y-97079343D01*
X179122864Y-97439514D01*
X179106866Y-97540334D01*
X178986126Y-98165150D01*
X178823687Y-98834222D01*
X178626583Y-99522570D01*
X178401849Y-100205214D01*
X178212805Y-100715334D01*
X178122205Y-100943934D01*
X178055456Y-101102327D01*
X178007425Y-101199854D01*
X177972975Y-101245857D01*
X177946970Y-101249680D01*
X177929761Y-101230228D01*
X177896988Y-101157583D01*
X177843268Y-101015452D01*
X177772331Y-100815341D01*
X177687910Y-100568754D01*
X177593737Y-100287196D01*
X177493541Y-99982172D01*
X177391057Y-99665185D01*
X177290014Y-99347742D01*
X177194145Y-99041346D01*
X177107180Y-98757502D01*
X177032853Y-98507715D01*
X176974894Y-98303490D01*
X176950133Y-98209995D01*
X176903805Y-98003017D01*
X176868075Y-97796481D01*
X176848284Y-97623429D01*
X176846000Y-97565631D01*
X176851940Y-97461763D01*
X176871448Y-97342341D01*
X176907053Y-97200950D01*
X176961284Y-97031174D01*
X177036670Y-96826596D01*
X177135741Y-96580800D01*
X177261027Y-96287369D01*
X177415057Y-95939888D01*
X177600360Y-95531941D01*
X177819466Y-95057111D01*
X177921102Y-94838505D01*
X178026945Y-94608549D01*
X178121274Y-94398520D01*
X178197670Y-94223113D01*
X178249716Y-94097024D01*
X178270027Y-94039557D01*
X178293456Y-93974511D01*
X178337064Y-93947228D01*
X178426452Y-93948018D01*
G37*
X178426452Y-93948018D02*
X178492311Y-93955422D01*
X178728119Y-93990960D01*
X178933895Y-94034796D01*
X179092243Y-94082457D01*
X179185768Y-94129474D01*
X179192245Y-94135293D01*
X179232950Y-94221468D01*
X179263479Y-94381368D01*
X179284088Y-94604700D01*
X179295037Y-94881169D01*
X179296583Y-95200480D01*
X179288985Y-95552338D01*
X179272501Y-95926448D01*
X179247388Y-96312516D01*
X179213906Y-96700246D01*
X179172312Y-97079343D01*
X179122864Y-97439514D01*
X179106866Y-97540334D01*
X178986126Y-98165150D01*
X178823687Y-98834222D01*
X178626583Y-99522570D01*
X178401849Y-100205214D01*
X178212805Y-100715334D01*
X178122205Y-100943934D01*
X178055456Y-101102327D01*
X178007425Y-101199854D01*
X177972975Y-101245857D01*
X177946970Y-101249680D01*
X177929761Y-101230228D01*
X177896988Y-101157583D01*
X177843268Y-101015452D01*
X177772331Y-100815341D01*
X177687910Y-100568754D01*
X177593737Y-100287196D01*
X177493541Y-99982172D01*
X177391057Y-99665185D01*
X177290014Y-99347742D01*
X177194145Y-99041346D01*
X177107180Y-98757502D01*
X177032853Y-98507715D01*
X176974894Y-98303490D01*
X176950133Y-98209995D01*
X176903805Y-98003017D01*
X176868075Y-97796481D01*
X176848284Y-97623429D01*
X176846000Y-97565631D01*
X176851940Y-97461763D01*
X176871448Y-97342341D01*
X176907053Y-97200950D01*
X176961284Y-97031174D01*
X177036670Y-96826596D01*
X177135741Y-96580800D01*
X177261027Y-96287369D01*
X177415057Y-95939888D01*
X177600360Y-95531941D01*
X177819466Y-95057111D01*
X177921102Y-94838505D01*
X178026945Y-94608549D01*
X178121274Y-94398520D01*
X178197670Y-94223113D01*
X178249716Y-94097024D01*
X178270027Y-94039557D01*
X178293456Y-93974511D01*
X178337064Y-93947228D01*
X178426452Y-93948018D01*
G36*
X173896694Y-92441384D02*
G01*
X174003444Y-92499168D01*
X174129379Y-92576399D01*
X174249983Y-92657729D01*
X174340740Y-92727806D01*
X174364696Y-92750893D01*
X174395645Y-92792093D01*
X174416477Y-92844568D01*
X174428361Y-92922917D01*
X174432465Y-93041737D01*
X174429954Y-93215627D01*
X174421998Y-93459186D01*
X174421790Y-93464887D01*
X174379134Y-93993451D01*
X174287900Y-94491007D01*
X174143359Y-94968366D01*
X173940780Y-95436341D01*
X173675436Y-95905744D01*
X173342596Y-96387389D01*
X172937532Y-96892087D01*
X172907340Y-96927406D01*
X172762304Y-97090501D01*
X172590343Y-97274488D01*
X172403225Y-97467772D01*
X172212717Y-97658760D01*
X172030588Y-97835856D01*
X171868605Y-97987467D01*
X171738536Y-98101999D01*
X171652149Y-98167857D01*
X171642760Y-98173321D01*
X171600584Y-98193106D01*
X171581749Y-98184822D01*
X171586095Y-98133554D01*
X171613460Y-98024385D01*
X171640100Y-97927630D01*
X171680736Y-97789463D01*
X171733045Y-97627711D01*
X171799519Y-97435764D01*
X171882653Y-97207014D01*
X171984939Y-96934849D01*
X172108870Y-96612661D01*
X172256941Y-96233840D01*
X172431644Y-95791776D01*
X172635472Y-95279859D01*
X172696412Y-95127334D01*
X172938200Y-94524310D01*
X173150205Y-93999348D01*
X173332860Y-93551420D01*
X173486597Y-93179495D01*
X173611847Y-92882544D01*
X173709043Y-92659538D01*
X173778618Y-92509448D01*
X173821002Y-92431243D01*
X173833645Y-92418397D01*
X173896694Y-92441384D01*
G37*
X173896694Y-92441384D02*
X174003444Y-92499168D01*
X174129379Y-92576399D01*
X174249983Y-92657729D01*
X174340740Y-92727806D01*
X174364696Y-92750893D01*
X174395645Y-92792093D01*
X174416477Y-92844568D01*
X174428361Y-92922917D01*
X174432465Y-93041737D01*
X174429954Y-93215627D01*
X174421998Y-93459186D01*
X174421790Y-93464887D01*
X174379134Y-93993451D01*
X174287900Y-94491007D01*
X174143359Y-94968366D01*
X173940780Y-95436341D01*
X173675436Y-95905744D01*
X173342596Y-96387389D01*
X172937532Y-96892087D01*
X172907340Y-96927406D01*
X172762304Y-97090501D01*
X172590343Y-97274488D01*
X172403225Y-97467772D01*
X172212717Y-97658760D01*
X172030588Y-97835856D01*
X171868605Y-97987467D01*
X171738536Y-98101999D01*
X171652149Y-98167857D01*
X171642760Y-98173321D01*
X171600584Y-98193106D01*
X171581749Y-98184822D01*
X171586095Y-98133554D01*
X171613460Y-98024385D01*
X171640100Y-97927630D01*
X171680736Y-97789463D01*
X171733045Y-97627711D01*
X171799519Y-97435764D01*
X171882653Y-97207014D01*
X171984939Y-96934849D01*
X172108870Y-96612661D01*
X172256941Y-96233840D01*
X172431644Y-95791776D01*
X172635472Y-95279859D01*
X172696412Y-95127334D01*
X172938200Y-94524310D01*
X173150205Y-93999348D01*
X173332860Y-93551420D01*
X173486597Y-93179495D01*
X173611847Y-92882544D01*
X173709043Y-92659538D01*
X173778618Y-92509448D01*
X173821002Y-92431243D01*
X173833645Y-92418397D01*
X173896694Y-92441384D01*
G36*
X177032665Y-93661965D02*
G01*
X177203767Y-93684368D01*
X177367353Y-93713442D01*
X177449537Y-93732689D01*
X177551473Y-93767437D01*
X177589840Y-93809457D01*
X177584195Y-93882116D01*
X177582151Y-93891153D01*
X177542617Y-94040524D01*
X177482430Y-94240452D01*
X177406158Y-94478105D01*
X177318365Y-94740651D01*
X177223616Y-95015259D01*
X177126477Y-95289098D01*
X177031513Y-95549336D01*
X176943290Y-95783143D01*
X176866373Y-95977687D01*
X176805327Y-96120136D01*
X176764717Y-96197659D01*
X176758989Y-96204717D01*
X176744695Y-96179004D01*
X176733304Y-96073754D01*
X176725068Y-95894056D01*
X176720240Y-95644997D01*
X176719000Y-95396386D01*
X176720497Y-95098319D01*
X176724654Y-94793480D01*
X176730966Y-94505425D01*
X176738929Y-94257714D01*
X176746915Y-94091598D01*
X176774830Y-93635358D01*
X177032665Y-93661965D01*
G37*
X177032665Y-93661965D02*
X177203767Y-93684368D01*
X177367353Y-93713442D01*
X177449537Y-93732689D01*
X177551473Y-93767437D01*
X177589840Y-93809457D01*
X177584195Y-93882116D01*
X177582151Y-93891153D01*
X177542617Y-94040524D01*
X177482430Y-94240452D01*
X177406158Y-94478105D01*
X177318365Y-94740651D01*
X177223616Y-95015259D01*
X177126477Y-95289098D01*
X177031513Y-95549336D01*
X176943290Y-95783143D01*
X176866373Y-95977687D01*
X176805327Y-96120136D01*
X176764717Y-96197659D01*
X176758989Y-96204717D01*
X176744695Y-96179004D01*
X176733304Y-96073754D01*
X176725068Y-95894056D01*
X176720240Y-95644997D01*
X176719000Y-95396386D01*
X176720497Y-95098319D01*
X176724654Y-94793480D01*
X176730966Y-94505425D01*
X176738929Y-94257714D01*
X176746915Y-94091598D01*
X176774830Y-93635358D01*
X177032665Y-93661965D01*
G36*
X179000746Y-92301796D02*
G01*
X179026091Y-92390933D01*
X179058443Y-92537002D01*
X179094387Y-92720217D01*
X179130507Y-92920791D01*
X179163391Y-93118938D01*
X179189621Y-93294871D01*
X179205784Y-93428805D01*
X179208465Y-93500951D01*
X179208073Y-93503114D01*
X179175693Y-93519083D01*
X179090745Y-93489232D01*
X178946592Y-93411017D01*
X178907978Y-93388090D01*
X178752116Y-93287702D01*
X178665272Y-93213282D01*
X178638837Y-93156995D01*
X178640657Y-93144843D01*
X178725781Y-92850622D01*
X178792846Y-92627467D01*
X178845242Y-92464539D01*
X178886358Y-92350998D01*
X178897063Y-92324796D01*
X178956092Y-92185167D01*
X179000746Y-92301796D01*
G37*
X179000746Y-92301796D02*
X179026091Y-92390933D01*
X179058443Y-92537002D01*
X179094387Y-92720217D01*
X179130507Y-92920791D01*
X179163391Y-93118938D01*
X179189621Y-93294871D01*
X179205784Y-93428805D01*
X179208465Y-93500951D01*
X179208073Y-93503114D01*
X179175693Y-93519083D01*
X179090745Y-93489232D01*
X178946592Y-93411017D01*
X178907978Y-93388090D01*
X178752116Y-93287702D01*
X178665272Y-93213282D01*
X178638837Y-93156995D01*
X178640657Y-93144843D01*
X178725781Y-92850622D01*
X178792846Y-92627467D01*
X178845242Y-92464539D01*
X178886358Y-92350998D01*
X178897063Y-92324796D01*
X178956092Y-92185167D01*
X179000746Y-92301796D01*
G36*
X174846493Y-90019464D02*
G01*
X174894772Y-90068557D01*
X174963891Y-90160836D01*
X175060015Y-90304854D01*
X175189307Y-90509167D01*
X175270411Y-90640000D01*
X175549580Y-91067268D01*
X175835759Y-91449981D01*
X176150139Y-91814080D01*
X176513908Y-92185508D01*
X176601718Y-92269876D01*
X176815826Y-92467531D01*
X177044898Y-92668478D01*
X177273965Y-92860480D01*
X177488058Y-93031305D01*
X177672208Y-93168718D01*
X177811443Y-93260484D01*
X177819314Y-93264991D01*
X177863744Y-93303975D01*
X177830786Y-93322584D01*
X177735000Y-93318428D01*
X177480078Y-93276695D01*
X177167932Y-93209766D01*
X176820062Y-93123604D01*
X176457968Y-93024170D01*
X176103151Y-92917429D01*
X175777110Y-92809343D01*
X175501347Y-92705875D01*
X175451229Y-92685033D01*
X175211785Y-92579330D01*
X174958521Y-92460816D01*
X174708158Y-92337981D01*
X174477421Y-92219315D01*
X174283031Y-92113306D01*
X174141712Y-92028446D01*
X174098205Y-91998147D01*
X173996243Y-91920678D01*
X174389408Y-90962839D01*
X174499321Y-90697957D01*
X174599853Y-90461164D01*
X174686298Y-90263102D01*
X174753953Y-90114410D01*
X174798114Y-90025730D01*
X174812892Y-90005000D01*
X174846493Y-90019464D01*
G37*
X174846493Y-90019464D02*
X174894772Y-90068557D01*
X174963891Y-90160836D01*
X175060015Y-90304854D01*
X175189307Y-90509167D01*
X175270411Y-90640000D01*
X175549580Y-91067268D01*
X175835759Y-91449981D01*
X176150139Y-91814080D01*
X176513908Y-92185508D01*
X176601718Y-92269876D01*
X176815826Y-92467531D01*
X177044898Y-92668478D01*
X177273965Y-92860480D01*
X177488058Y-93031305D01*
X177672208Y-93168718D01*
X177811443Y-93260484D01*
X177819314Y-93264991D01*
X177863744Y-93303975D01*
X177830786Y-93322584D01*
X177735000Y-93318428D01*
X177480078Y-93276695D01*
X177167932Y-93209766D01*
X176820062Y-93123604D01*
X176457968Y-93024170D01*
X176103151Y-92917429D01*
X175777110Y-92809343D01*
X175501347Y-92705875D01*
X175451229Y-92685033D01*
X175211785Y-92579330D01*
X174958521Y-92460816D01*
X174708158Y-92337981D01*
X174477421Y-92219315D01*
X174283031Y-92113306D01*
X174141712Y-92028446D01*
X174098205Y-91998147D01*
X173996243Y-91920678D01*
X174389408Y-90962839D01*
X174499321Y-90697957D01*
X174599853Y-90461164D01*
X174686298Y-90263102D01*
X174753953Y-90114410D01*
X174798114Y-90025730D01*
X174812892Y-90005000D01*
X174846493Y-90019464D01*
G36*
X170389385Y-87147500D02*
G01*
X170452389Y-87378829D01*
X170551300Y-87670159D01*
X170680289Y-88007829D01*
X170833527Y-88378174D01*
X171005184Y-88767532D01*
X171189430Y-89162241D01*
X171380436Y-89548636D01*
X171558445Y-89887473D01*
X171850873Y-90426112D01*
X171678313Y-90861140D01*
X171549955Y-91181504D01*
X171419398Y-91501504D01*
X171290774Y-91811543D01*
X171168216Y-92102023D01*
X171055859Y-92363346D01*
X170957834Y-92585914D01*
X170878276Y-92760129D01*
X170821317Y-92876395D01*
X170791090Y-92925112D01*
X170789108Y-92926000D01*
X170752794Y-92891728D01*
X170689871Y-92801468D01*
X170613356Y-92674053D01*
X170606253Y-92661417D01*
X170498024Y-92456201D01*
X170376651Y-92206970D01*
X170249677Y-91931235D01*
X170124642Y-91646506D01*
X170009090Y-91370293D01*
X169910562Y-91120107D01*
X169836600Y-90913459D01*
X169799423Y-90788167D01*
X169750988Y-90503458D01*
X169726744Y-90157129D01*
X169726147Y-89768534D01*
X169748654Y-89357025D01*
X169793721Y-88941957D01*
X169860804Y-88542681D01*
X169862814Y-88532800D01*
X169922717Y-88268293D01*
X169995768Y-87990008D01*
X170075734Y-87718257D01*
X170156382Y-87473351D01*
X170231481Y-87275602D01*
X170281379Y-87168667D01*
X170361563Y-87020500D01*
X170389385Y-87147500D01*
G37*
X170389385Y-87147500D02*
X170452389Y-87378829D01*
X170551300Y-87670159D01*
X170680289Y-88007829D01*
X170833527Y-88378174D01*
X171005184Y-88767532D01*
X171189430Y-89162241D01*
X171380436Y-89548636D01*
X171558445Y-89887473D01*
X171850873Y-90426112D01*
X171678313Y-90861140D01*
X171549955Y-91181504D01*
X171419398Y-91501504D01*
X171290774Y-91811543D01*
X171168216Y-92102023D01*
X171055859Y-92363346D01*
X170957834Y-92585914D01*
X170878276Y-92760129D01*
X170821317Y-92876395D01*
X170791090Y-92925112D01*
X170789108Y-92926000D01*
X170752794Y-92891728D01*
X170689871Y-92801468D01*
X170613356Y-92674053D01*
X170606253Y-92661417D01*
X170498024Y-92456201D01*
X170376651Y-92206970D01*
X170249677Y-91931235D01*
X170124642Y-91646506D01*
X170009090Y-91370293D01*
X169910562Y-91120107D01*
X169836600Y-90913459D01*
X169799423Y-90788167D01*
X169750988Y-90503458D01*
X169726744Y-90157129D01*
X169726147Y-89768534D01*
X169748654Y-89357025D01*
X169793721Y-88941957D01*
X169860804Y-88542681D01*
X169862814Y-88532800D01*
X169922717Y-88268293D01*
X169995768Y-87990008D01*
X170075734Y-87718257D01*
X170156382Y-87473351D01*
X170231481Y-87275602D01*
X170281379Y-87168667D01*
X170361563Y-87020500D01*
X170389385Y-87147500D01*
G36*
X178192000Y-84384700D02*
G01*
X178259233Y-84452294D01*
X178347805Y-84571515D01*
X178449186Y-84730445D01*
X178554847Y-84917169D01*
X178597869Y-84999870D01*
X178742234Y-85352424D01*
X178856325Y-85774521D01*
X178939849Y-86256521D01*
X178992514Y-86788785D01*
X179014026Y-87361676D01*
X179004092Y-87965555D01*
X178962420Y-88590783D01*
X178888718Y-89227722D01*
X178782691Y-89866732D01*
X178750599Y-90028117D01*
X178690008Y-90306632D01*
X178615699Y-90623317D01*
X178532708Y-90958798D01*
X178446076Y-91293699D01*
X178360840Y-91608645D01*
X178282038Y-91884262D01*
X178214711Y-92101174D01*
X178200650Y-92142834D01*
X178121720Y-92368945D01*
X178063582Y-92526659D01*
X178020578Y-92628007D01*
X177987048Y-92685022D01*
X177957335Y-92709734D01*
X177931865Y-92714334D01*
X177877710Y-92689819D01*
X177771300Y-92622716D01*
X177627000Y-92522690D01*
X177459176Y-92399405D01*
X177423100Y-92372082D01*
X177255571Y-92243401D01*
X177113496Y-92132128D01*
X177009982Y-92048688D01*
X176958137Y-92003508D01*
X176954988Y-91999771D01*
X176945516Y-91929777D01*
X176953221Y-91784204D01*
X176976943Y-91570134D01*
X177015526Y-91294645D01*
X177067812Y-90964818D01*
X177132641Y-90587732D01*
X177208857Y-90170468D01*
X177295302Y-89720105D01*
X177390818Y-89243723D01*
X177461242Y-88904334D01*
X177650518Y-87962846D01*
X177808671Y-87086484D01*
X177935211Y-86278393D01*
X178029649Y-85541719D01*
X178091494Y-84879607D01*
X178094504Y-84837363D01*
X178109929Y-84656549D01*
X178128019Y-84505508D01*
X178145941Y-84405755D01*
X178154636Y-84380648D01*
X178192000Y-84384700D01*
G37*
X178192000Y-84384700D02*
X178259233Y-84452294D01*
X178347805Y-84571515D01*
X178449186Y-84730445D01*
X178554847Y-84917169D01*
X178597869Y-84999870D01*
X178742234Y-85352424D01*
X178856325Y-85774521D01*
X178939849Y-86256521D01*
X178992514Y-86788785D01*
X179014026Y-87361676D01*
X179004092Y-87965555D01*
X178962420Y-88590783D01*
X178888718Y-89227722D01*
X178782691Y-89866732D01*
X178750599Y-90028117D01*
X178690008Y-90306632D01*
X178615699Y-90623317D01*
X178532708Y-90958798D01*
X178446076Y-91293699D01*
X178360840Y-91608645D01*
X178282038Y-91884262D01*
X178214711Y-92101174D01*
X178200650Y-92142834D01*
X178121720Y-92368945D01*
X178063582Y-92526659D01*
X178020578Y-92628007D01*
X177987048Y-92685022D01*
X177957335Y-92709734D01*
X177931865Y-92714334D01*
X177877710Y-92689819D01*
X177771300Y-92622716D01*
X177627000Y-92522690D01*
X177459176Y-92399405D01*
X177423100Y-92372082D01*
X177255571Y-92243401D01*
X177113496Y-92132128D01*
X177009982Y-92048688D01*
X176958137Y-92003508D01*
X176954988Y-91999771D01*
X176945516Y-91929777D01*
X176953221Y-91784204D01*
X176976943Y-91570134D01*
X177015526Y-91294645D01*
X177067812Y-90964818D01*
X177132641Y-90587732D01*
X177208857Y-90170468D01*
X177295302Y-89720105D01*
X177390818Y-89243723D01*
X177461242Y-88904334D01*
X177650518Y-87962846D01*
X177808671Y-87086484D01*
X177935211Y-86278393D01*
X178029649Y-85541719D01*
X178091494Y-84879607D01*
X178094504Y-84837363D01*
X178109929Y-84656549D01*
X178128019Y-84505508D01*
X178145941Y-84405755D01*
X178154636Y-84380648D01*
X178192000Y-84384700D01*
G36*
X177404173Y-83691419D02*
G01*
X177425669Y-83757194D01*
X177442311Y-83884526D01*
X177454910Y-84078533D01*
X177464278Y-84344329D01*
X177471225Y-84687031D01*
X177474126Y-84895331D01*
X177477367Y-85236970D01*
X177477173Y-85541147D01*
X177472214Y-85818464D01*
X177461162Y-86079520D01*
X177442689Y-86334915D01*
X177415467Y-86595249D01*
X177378167Y-86871121D01*
X177329460Y-87173132D01*
X177268019Y-87511881D01*
X177192516Y-87897969D01*
X177101621Y-88341994D01*
X176994006Y-88854557D01*
X176954728Y-89039933D01*
X176891643Y-89346039D01*
X176822092Y-89697968D01*
X176753361Y-90057997D01*
X176692737Y-90388406D01*
X176676669Y-90479266D01*
X176622771Y-90786860D01*
X176581195Y-91021035D01*
X176549777Y-91191793D01*
X176526353Y-91309133D01*
X176508761Y-91383055D01*
X176494836Y-91423560D01*
X176482416Y-91440648D01*
X176469336Y-91444319D01*
X176467881Y-91444334D01*
X176427645Y-91413354D01*
X176351892Y-91331651D01*
X176256113Y-91216078D01*
X176244153Y-91200917D01*
X176109533Y-91019731D01*
X175960472Y-90802937D01*
X175804188Y-90562800D01*
X175647894Y-90311586D01*
X175498809Y-90061558D01*
X175364148Y-89824983D01*
X175251128Y-89614124D01*
X175166964Y-89441247D01*
X175118873Y-89318616D01*
X175110333Y-89273835D01*
X175125499Y-89220381D01*
X175167991Y-89100423D01*
X175233300Y-88925912D01*
X175316915Y-88708796D01*
X175414328Y-88461028D01*
X175465812Y-88331848D01*
X175821291Y-87443834D01*
X176278536Y-87392577D01*
X176547408Y-87358182D01*
X176741368Y-87322159D01*
X176870154Y-87281144D01*
X176943502Y-87231772D01*
X176971149Y-87170678D01*
X176972059Y-87152948D01*
X176958957Y-87080824D01*
X176914572Y-87001900D01*
X176829004Y-86904371D01*
X176692357Y-86776433D01*
X176560250Y-86661811D01*
X176437269Y-86549174D01*
X176344710Y-86449509D01*
X176298269Y-86380217D01*
X176295667Y-86368510D01*
X176311447Y-86312440D01*
X176357131Y-86184453D01*
X176430235Y-85990858D01*
X176528274Y-85737963D01*
X176648761Y-85432077D01*
X176789214Y-85079511D01*
X176947146Y-84686572D01*
X177120074Y-84259569D01*
X177302456Y-83812282D01*
X177343377Y-83724079D01*
X177377013Y-83682086D01*
X177404173Y-83691419D01*
G37*
X177404173Y-83691419D02*
X177425669Y-83757194D01*
X177442311Y-83884526D01*
X177454910Y-84078533D01*
X177464278Y-84344329D01*
X177471225Y-84687031D01*
X177474126Y-84895331D01*
X177477367Y-85236970D01*
X177477173Y-85541147D01*
X177472214Y-85818464D01*
X177461162Y-86079520D01*
X177442689Y-86334915D01*
X177415467Y-86595249D01*
X177378167Y-86871121D01*
X177329460Y-87173132D01*
X177268019Y-87511881D01*
X177192516Y-87897969D01*
X177101621Y-88341994D01*
X176994006Y-88854557D01*
X176954728Y-89039933D01*
X176891643Y-89346039D01*
X176822092Y-89697968D01*
X176753361Y-90057997D01*
X176692737Y-90388406D01*
X176676669Y-90479266D01*
X176622771Y-90786860D01*
X176581195Y-91021035D01*
X176549777Y-91191793D01*
X176526353Y-91309133D01*
X176508761Y-91383055D01*
X176494836Y-91423560D01*
X176482416Y-91440648D01*
X176469336Y-91444319D01*
X176467881Y-91444334D01*
X176427645Y-91413354D01*
X176351892Y-91331651D01*
X176256113Y-91216078D01*
X176244153Y-91200917D01*
X176109533Y-91019731D01*
X175960472Y-90802937D01*
X175804188Y-90562800D01*
X175647894Y-90311586D01*
X175498809Y-90061558D01*
X175364148Y-89824983D01*
X175251128Y-89614124D01*
X175166964Y-89441247D01*
X175118873Y-89318616D01*
X175110333Y-89273835D01*
X175125499Y-89220381D01*
X175167991Y-89100423D01*
X175233300Y-88925912D01*
X175316915Y-88708796D01*
X175414328Y-88461028D01*
X175465812Y-88331848D01*
X175821291Y-87443834D01*
X176278536Y-87392577D01*
X176547408Y-87358182D01*
X176741368Y-87322159D01*
X176870154Y-87281144D01*
X176943502Y-87231772D01*
X176971149Y-87170678D01*
X176972059Y-87152948D01*
X176958957Y-87080824D01*
X176914572Y-87001900D01*
X176829004Y-86904371D01*
X176692357Y-86776433D01*
X176560250Y-86661811D01*
X176437269Y-86549174D01*
X176344710Y-86449509D01*
X176298269Y-86380217D01*
X176295667Y-86368510D01*
X176311447Y-86312440D01*
X176357131Y-86184453D01*
X176430235Y-85990858D01*
X176528274Y-85737963D01*
X176648761Y-85432077D01*
X176789214Y-85079511D01*
X176947146Y-84686572D01*
X177120074Y-84259569D01*
X177302456Y-83812282D01*
X177343377Y-83724079D01*
X177377013Y-83682086D01*
X177404173Y-83691419D01*
G36*
X170514673Y-82802483D02*
G01*
X170573787Y-82902043D01*
X170656938Y-83052845D01*
X170757312Y-83242598D01*
X170845655Y-83414621D01*
X170972138Y-83658240D01*
X171104145Y-83902604D01*
X171229570Y-84125947D01*
X171336307Y-84306503D01*
X171381054Y-84377244D01*
X171557246Y-84625092D01*
X171779422Y-84906328D01*
X172033649Y-85205807D01*
X172305996Y-85508384D01*
X172582532Y-85798914D01*
X172849325Y-86062254D01*
X173092444Y-86283258D01*
X173257648Y-86417239D01*
X173412447Y-86533644D01*
X173335848Y-86755905D01*
X173300179Y-86852060D01*
X173237175Y-87014281D01*
X173151779Y-87230362D01*
X173048935Y-87488098D01*
X172933590Y-87775284D01*
X172810688Y-88079714D01*
X172685172Y-88389183D01*
X172561989Y-88691486D01*
X172446082Y-88974417D01*
X172342396Y-89225771D01*
X172255877Y-89433343D01*
X172191468Y-89584926D01*
X172168948Y-89636250D01*
X172070158Y-89856834D01*
X171752879Y-89200667D01*
X171511909Y-88676752D01*
X171290953Y-88145860D01*
X171095013Y-87622471D01*
X170929090Y-87121067D01*
X170798184Y-86656129D01*
X170707297Y-86242137D01*
X170685627Y-86110334D01*
X170664243Y-85941026D01*
X170641422Y-85718120D01*
X170617803Y-85452342D01*
X170594025Y-85154421D01*
X170570728Y-84835083D01*
X170548551Y-84505055D01*
X170528133Y-84175065D01*
X170510112Y-83855839D01*
X170495128Y-83558106D01*
X170483820Y-83292592D01*
X170476827Y-83070024D01*
X170474789Y-82901130D01*
X170478343Y-82796637D01*
X170486408Y-82766460D01*
X170514673Y-82802483D01*
G37*
X170514673Y-82802483D02*
X170573787Y-82902043D01*
X170656938Y-83052845D01*
X170757312Y-83242598D01*
X170845655Y-83414621D01*
X170972138Y-83658240D01*
X171104145Y-83902604D01*
X171229570Y-84125947D01*
X171336307Y-84306503D01*
X171381054Y-84377244D01*
X171557246Y-84625092D01*
X171779422Y-84906328D01*
X172033649Y-85205807D01*
X172305996Y-85508384D01*
X172582532Y-85798914D01*
X172849325Y-86062254D01*
X173092444Y-86283258D01*
X173257648Y-86417239D01*
X173412447Y-86533644D01*
X173335848Y-86755905D01*
X173300179Y-86852060D01*
X173237175Y-87014281D01*
X173151779Y-87230362D01*
X173048935Y-87488098D01*
X172933590Y-87775284D01*
X172810688Y-88079714D01*
X172685172Y-88389183D01*
X172561989Y-88691486D01*
X172446082Y-88974417D01*
X172342396Y-89225771D01*
X172255877Y-89433343D01*
X172191468Y-89584926D01*
X172168948Y-89636250D01*
X172070158Y-89856834D01*
X171752879Y-89200667D01*
X171511909Y-88676752D01*
X171290953Y-88145860D01*
X171095013Y-87622471D01*
X170929090Y-87121067D01*
X170798184Y-86656129D01*
X170707297Y-86242137D01*
X170685627Y-86110334D01*
X170664243Y-85941026D01*
X170641422Y-85718120D01*
X170617803Y-85452342D01*
X170594025Y-85154421D01*
X170570728Y-84835083D01*
X170548551Y-84505055D01*
X170528133Y-84175065D01*
X170510112Y-83855839D01*
X170495128Y-83558106D01*
X170483820Y-83292592D01*
X170476827Y-83070024D01*
X170474789Y-82901130D01*
X170478343Y-82796637D01*
X170486408Y-82766460D01*
X170514673Y-82802483D01*
G36*
X171061272Y-74873558D02*
G01*
X171186463Y-74939087D01*
X171349477Y-75037037D01*
X171535378Y-75158191D01*
X171729231Y-75293331D01*
X171840298Y-75375147D01*
X172195334Y-75666548D01*
X172543844Y-75996933D01*
X172864229Y-76344006D01*
X173134886Y-76685470D01*
X173199494Y-76778042D01*
X173453803Y-77196573D01*
X173695543Y-77673174D01*
X173913324Y-78181258D01*
X174095756Y-78694236D01*
X174231450Y-79185520D01*
X174232212Y-79188834D01*
X174251197Y-79275982D01*
X174267339Y-79363827D01*
X174280936Y-79460068D01*
X174292281Y-79572406D01*
X174301671Y-79708541D01*
X174309401Y-79876175D01*
X174315766Y-80083006D01*
X174321062Y-80336737D01*
X174325584Y-80645067D01*
X174329629Y-81015697D01*
X174333490Y-81456327D01*
X174337072Y-81921588D01*
X174354517Y-84273343D01*
X174101730Y-84906088D01*
X173965024Y-85245943D01*
X173854927Y-85513806D01*
X173768125Y-85716890D01*
X173701302Y-85862406D01*
X173651145Y-85957566D01*
X173614339Y-86009581D01*
X173587569Y-86025662D01*
X173587157Y-86025667D01*
X173541680Y-85996970D01*
X173450306Y-85918517D01*
X173325634Y-85801763D01*
X173180261Y-85658164D01*
X173156531Y-85634084D01*
X172821066Y-85280001D01*
X172508783Y-84926224D01*
X172232372Y-84587924D01*
X172004527Y-84280273D01*
X171925819Y-84163000D01*
X171789289Y-83935932D01*
X171627698Y-83640189D01*
X171446076Y-83286239D01*
X171249452Y-82884544D01*
X171042856Y-82445571D01*
X170831319Y-81979784D01*
X170619870Y-81497649D01*
X170435241Y-81061861D01*
X170294751Y-80728775D01*
X170147810Y-80388062D01*
X170002085Y-80056963D01*
X169865245Y-79752721D01*
X169744957Y-79492580D01*
X169649504Y-79295009D01*
X169547666Y-79088981D01*
X169460921Y-78908262D01*
X169395819Y-78766919D01*
X169358911Y-78679018D01*
X169353000Y-78658319D01*
X169375367Y-78604946D01*
X169435065Y-78500999D01*
X169520987Y-78365348D01*
X169559418Y-78307611D01*
X169772078Y-77960104D01*
X169987947Y-77547699D01*
X170198839Y-77089396D01*
X170396567Y-76604193D01*
X170572943Y-76111089D01*
X170719780Y-75629082D01*
X170730295Y-75590500D01*
X170800700Y-75341158D01*
X170866061Y-75131314D01*
X170922449Y-74972221D01*
X170965939Y-74875133D01*
X170988837Y-74849667D01*
X171061272Y-74873558D01*
G37*
X171061272Y-74873558D02*
X171186463Y-74939087D01*
X171349477Y-75037037D01*
X171535378Y-75158191D01*
X171729231Y-75293331D01*
X171840298Y-75375147D01*
X172195334Y-75666548D01*
X172543844Y-75996933D01*
X172864229Y-76344006D01*
X173134886Y-76685470D01*
X173199494Y-76778042D01*
X173453803Y-77196573D01*
X173695543Y-77673174D01*
X173913324Y-78181258D01*
X174095756Y-78694236D01*
X174231450Y-79185520D01*
X174232212Y-79188834D01*
X174251197Y-79275982D01*
X174267339Y-79363827D01*
X174280936Y-79460068D01*
X174292281Y-79572406D01*
X174301671Y-79708541D01*
X174309401Y-79876175D01*
X174315766Y-80083006D01*
X174321062Y-80336737D01*
X174325584Y-80645067D01*
X174329629Y-81015697D01*
X174333490Y-81456327D01*
X174337072Y-81921588D01*
X174354517Y-84273343D01*
X174101730Y-84906088D01*
X173965024Y-85245943D01*
X173854927Y-85513806D01*
X173768125Y-85716890D01*
X173701302Y-85862406D01*
X173651145Y-85957566D01*
X173614339Y-86009581D01*
X173587569Y-86025662D01*
X173587157Y-86025667D01*
X173541680Y-85996970D01*
X173450306Y-85918517D01*
X173325634Y-85801763D01*
X173180261Y-85658164D01*
X173156531Y-85634084D01*
X172821066Y-85280001D01*
X172508783Y-84926224D01*
X172232372Y-84587924D01*
X172004527Y-84280273D01*
X171925819Y-84163000D01*
X171789289Y-83935932D01*
X171627698Y-83640189D01*
X171446076Y-83286239D01*
X171249452Y-82884544D01*
X171042856Y-82445571D01*
X170831319Y-81979784D01*
X170619870Y-81497649D01*
X170435241Y-81061861D01*
X170294751Y-80728775D01*
X170147810Y-80388062D01*
X170002085Y-80056963D01*
X169865245Y-79752721D01*
X169744957Y-79492580D01*
X169649504Y-79295009D01*
X169547666Y-79088981D01*
X169460921Y-78908262D01*
X169395819Y-78766919D01*
X169358911Y-78679018D01*
X169353000Y-78658319D01*
X169375367Y-78604946D01*
X169435065Y-78500999D01*
X169520987Y-78365348D01*
X169559418Y-78307611D01*
X169772078Y-77960104D01*
X169987947Y-77547699D01*
X170198839Y-77089396D01*
X170396567Y-76604193D01*
X170572943Y-76111089D01*
X170719780Y-75629082D01*
X170730295Y-75590500D01*
X170800700Y-75341158D01*
X170866061Y-75131314D01*
X170922449Y-74972221D01*
X170965939Y-74875133D01*
X170988837Y-74849667D01*
X171061272Y-74873558D01*
G36*
X174825912Y-79235119D02*
G01*
X174931262Y-79303201D01*
X175072763Y-79403330D01*
X175235835Y-79524593D01*
X175405896Y-79656075D01*
X175568366Y-79786861D01*
X175708664Y-79906038D01*
X175746749Y-79940171D01*
X175820598Y-80003754D01*
X175881188Y-80054289D01*
X175926960Y-80100207D01*
X175956354Y-80149941D01*
X175967813Y-80211920D01*
X175959776Y-80294577D01*
X175930685Y-80406344D01*
X175878981Y-80555651D01*
X175803105Y-80750931D01*
X175701498Y-81000614D01*
X175572602Y-81313133D01*
X175427781Y-81665334D01*
X175303617Y-81968725D01*
X175188716Y-82249661D01*
X175087306Y-82497784D01*
X175003618Y-82702741D01*
X174941881Y-82854176D01*
X174906324Y-82941735D01*
X174900400Y-82956500D01*
X174892753Y-82934106D01*
X174884672Y-82835289D01*
X174876432Y-82668290D01*
X174868308Y-82441350D01*
X174860575Y-82162708D01*
X174853507Y-81840606D01*
X174847380Y-81483284D01*
X174844632Y-81284334D01*
X174838809Y-80900457D01*
X174831495Y-80537862D01*
X174823022Y-80206437D01*
X174813721Y-79916071D01*
X174803924Y-79676653D01*
X174793965Y-79498072D01*
X174784175Y-79390216D01*
X174780291Y-79368750D01*
X174761215Y-79268525D01*
X174765273Y-79213575D01*
X174771293Y-79210000D01*
X174825912Y-79235119D01*
G37*
X174825912Y-79235119D02*
X174931262Y-79303201D01*
X175072763Y-79403330D01*
X175235835Y-79524593D01*
X175405896Y-79656075D01*
X175568366Y-79786861D01*
X175708664Y-79906038D01*
X175746749Y-79940171D01*
X175820598Y-80003754D01*
X175881188Y-80054289D01*
X175926960Y-80100207D01*
X175956354Y-80149941D01*
X175967813Y-80211920D01*
X175959776Y-80294577D01*
X175930685Y-80406344D01*
X175878981Y-80555651D01*
X175803105Y-80750931D01*
X175701498Y-81000614D01*
X175572602Y-81313133D01*
X175427781Y-81665334D01*
X175303617Y-81968725D01*
X175188716Y-82249661D01*
X175087306Y-82497784D01*
X175003618Y-82702741D01*
X174941881Y-82854176D01*
X174906324Y-82941735D01*
X174900400Y-82956500D01*
X174892753Y-82934106D01*
X174884672Y-82835289D01*
X174876432Y-82668290D01*
X174868308Y-82441350D01*
X174860575Y-82162708D01*
X174853507Y-81840606D01*
X174847380Y-81483284D01*
X174844632Y-81284334D01*
X174838809Y-80900457D01*
X174831495Y-80537862D01*
X174823022Y-80206437D01*
X174813721Y-79916071D01*
X174803924Y-79676653D01*
X174793965Y-79498072D01*
X174784175Y-79390216D01*
X174780291Y-79368750D01*
X174761215Y-79268525D01*
X174765273Y-79213575D01*
X174771293Y-79210000D01*
X174825912Y-79235119D01*
G36*
X172501450Y-75038241D02*
G01*
X172613992Y-75059192D01*
X172774574Y-75095580D01*
X172966627Y-75143099D01*
X173173584Y-75197442D01*
X173378875Y-75254300D01*
X173565932Y-75309367D01*
X173718185Y-75358334D01*
X173789236Y-75384295D01*
X174210863Y-75596484D01*
X174598469Y-75883568D01*
X174949493Y-76241833D01*
X175261373Y-76667569D01*
X175531547Y-77157063D01*
X175757453Y-77706603D01*
X175936530Y-78312479D01*
X175997284Y-78583453D01*
X176046501Y-78842958D01*
X176084227Y-79079611D01*
X176109112Y-79280791D01*
X176119807Y-79433875D01*
X176114963Y-79526241D01*
X176100429Y-79548079D01*
X176055119Y-79521304D01*
X175961876Y-79449338D01*
X175835409Y-79343950D01*
X175724167Y-79247009D01*
X175539910Y-79090330D01*
X175319163Y-78912776D01*
X175095509Y-78740985D01*
X174972104Y-78650477D01*
X174558708Y-78354429D01*
X174161570Y-77542199D01*
X173896050Y-77021954D01*
X173640197Y-76570129D01*
X173384866Y-76172594D01*
X173120914Y-75815219D01*
X172839194Y-75483875D01*
X172805952Y-75447568D01*
X172669556Y-75297574D01*
X172558415Y-75171354D01*
X172482892Y-75080979D01*
X172453349Y-75038521D01*
X172453518Y-75037037D01*
X172501450Y-75038241D01*
G37*
X172501450Y-75038241D02*
X172613992Y-75059192D01*
X172774574Y-75095580D01*
X172966627Y-75143099D01*
X173173584Y-75197442D01*
X173378875Y-75254300D01*
X173565932Y-75309367D01*
X173718185Y-75358334D01*
X173789236Y-75384295D01*
X174210863Y-75596484D01*
X174598469Y-75883568D01*
X174949493Y-76241833D01*
X175261373Y-76667569D01*
X175531547Y-77157063D01*
X175757453Y-77706603D01*
X175936530Y-78312479D01*
X175997284Y-78583453D01*
X176046501Y-78842958D01*
X176084227Y-79079611D01*
X176109112Y-79280791D01*
X176119807Y-79433875D01*
X176114963Y-79526241D01*
X176100429Y-79548079D01*
X176055119Y-79521304D01*
X175961876Y-79449338D01*
X175835409Y-79343950D01*
X175724167Y-79247009D01*
X175539910Y-79090330D01*
X175319163Y-78912776D01*
X175095509Y-78740985D01*
X174972104Y-78650477D01*
X174558708Y-78354429D01*
X174161570Y-77542199D01*
X173896050Y-77021954D01*
X173640197Y-76570129D01*
X173384866Y-76172594D01*
X173120914Y-75815219D01*
X172839194Y-75483875D01*
X172805952Y-75447568D01*
X172669556Y-75297574D01*
X172558415Y-75171354D01*
X172482892Y-75080979D01*
X172453349Y-75038521D01*
X172453518Y-75037037D01*
X172501450Y-75038241D01*
G36*
X157780334Y-71612799D02*
G01*
X157952800Y-71618437D01*
X158078171Y-71630876D01*
X158175220Y-71652495D01*
X158262720Y-71685676D01*
X158312656Y-71709260D01*
X158453230Y-71800231D01*
X158618337Y-71939208D01*
X158785474Y-72103795D01*
X158932138Y-72271597D01*
X159035829Y-72420220D01*
X159046210Y-72439330D01*
X159073246Y-72499240D01*
X159081715Y-72556351D01*
X159067232Y-72628957D01*
X159025411Y-72735353D01*
X158951865Y-72893832D01*
X158922556Y-72955107D01*
X158689429Y-73492312D01*
X158524448Y-73993921D01*
X158425427Y-74471478D01*
X158390182Y-74936527D01*
X158416529Y-75400613D01*
X158434768Y-75532746D01*
X158454569Y-75697106D01*
X158461922Y-75840730D01*
X158455408Y-75931324D01*
X158415616Y-76022668D01*
X158332887Y-76166746D01*
X158216717Y-76349815D01*
X158076601Y-76558130D01*
X157922035Y-76777949D01*
X157762514Y-76995526D01*
X157607534Y-77197120D01*
X157466590Y-77368985D01*
X157444533Y-77394458D01*
X156992299Y-77852955D01*
X156504763Y-78234927D01*
X155983009Y-78539835D01*
X155428120Y-78767140D01*
X154841179Y-78916301D01*
X154250583Y-78985368D01*
X154013481Y-78994472D01*
X153856517Y-78991709D01*
X153781232Y-78977137D01*
X153774333Y-78967859D01*
X153799633Y-78917476D01*
X153867200Y-78820073D01*
X153964538Y-78693201D01*
X154009955Y-78636978D01*
X154340817Y-78210924D01*
X154602963Y-77821502D01*
X154799795Y-77460985D01*
X154934715Y-77121645D01*
X155011123Y-76795757D01*
X155032422Y-76475594D01*
X155024933Y-76331334D01*
X155004847Y-76159723D01*
X154971459Y-75936104D01*
X154929649Y-75691162D01*
X154890237Y-75484667D01*
X154834824Y-75161956D01*
X154790286Y-74809099D01*
X154762897Y-74477250D01*
X154760353Y-74425578D01*
X154752235Y-74184739D01*
X154753331Y-74002400D01*
X154765714Y-73852696D01*
X154791454Y-73709762D01*
X154829879Y-73557744D01*
X154982920Y-73106423D01*
X155178265Y-72724663D01*
X155420791Y-72406079D01*
X155715375Y-72144287D01*
X156066893Y-71932902D01*
X156073565Y-71929621D01*
X156349743Y-71803610D01*
X156598400Y-71714488D01*
X156845518Y-71656628D01*
X157117076Y-71624403D01*
X157439057Y-71612185D01*
X157542000Y-71611584D01*
X157780334Y-71612799D01*
G37*
X157780334Y-71612799D02*
X157952800Y-71618437D01*
X158078171Y-71630876D01*
X158175220Y-71652495D01*
X158262720Y-71685676D01*
X158312656Y-71709260D01*
X158453230Y-71800231D01*
X158618337Y-71939208D01*
X158785474Y-72103795D01*
X158932138Y-72271597D01*
X159035829Y-72420220D01*
X159046210Y-72439330D01*
X159073246Y-72499240D01*
X159081715Y-72556351D01*
X159067232Y-72628957D01*
X159025411Y-72735353D01*
X158951865Y-72893832D01*
X158922556Y-72955107D01*
X158689429Y-73492312D01*
X158524448Y-73993921D01*
X158425427Y-74471478D01*
X158390182Y-74936527D01*
X158416529Y-75400613D01*
X158434768Y-75532746D01*
X158454569Y-75697106D01*
X158461922Y-75840730D01*
X158455408Y-75931324D01*
X158415616Y-76022668D01*
X158332887Y-76166746D01*
X158216717Y-76349815D01*
X158076601Y-76558130D01*
X157922035Y-76777949D01*
X157762514Y-76995526D01*
X157607534Y-77197120D01*
X157466590Y-77368985D01*
X157444533Y-77394458D01*
X156992299Y-77852955D01*
X156504763Y-78234927D01*
X155983009Y-78539835D01*
X155428120Y-78767140D01*
X154841179Y-78916301D01*
X154250583Y-78985368D01*
X154013481Y-78994472D01*
X153856517Y-78991709D01*
X153781232Y-78977137D01*
X153774333Y-78967859D01*
X153799633Y-78917476D01*
X153867200Y-78820073D01*
X153964538Y-78693201D01*
X154009955Y-78636978D01*
X154340817Y-78210924D01*
X154602963Y-77821502D01*
X154799795Y-77460985D01*
X154934715Y-77121645D01*
X155011123Y-76795757D01*
X155032422Y-76475594D01*
X155024933Y-76331334D01*
X155004847Y-76159723D01*
X154971459Y-75936104D01*
X154929649Y-75691162D01*
X154890237Y-75484667D01*
X154834824Y-75161956D01*
X154790286Y-74809099D01*
X154762897Y-74477250D01*
X154760353Y-74425578D01*
X154752235Y-74184739D01*
X154753331Y-74002400D01*
X154765714Y-73852696D01*
X154791454Y-73709762D01*
X154829879Y-73557744D01*
X154982920Y-73106423D01*
X155178265Y-72724663D01*
X155420791Y-72406079D01*
X155715375Y-72144287D01*
X156066893Y-71932902D01*
X156073565Y-71929621D01*
X156349743Y-71803610D01*
X156598400Y-71714488D01*
X156845518Y-71656628D01*
X157117076Y-71624403D01*
X157439057Y-71612185D01*
X157542000Y-71611584D01*
X157780334Y-71612799D01*
G36*
X162207629Y-71623087D02*
G01*
X162614797Y-71710125D01*
X162996837Y-71850490D01*
X163339002Y-72041965D01*
X163626547Y-72282333D01*
X163650660Y-72307817D01*
X163825667Y-72517933D01*
X163948172Y-72722552D01*
X164025943Y-72943621D01*
X164066747Y-73203084D01*
X164078356Y-73516167D01*
X164066106Y-73832310D01*
X164023789Y-74092493D01*
X163943055Y-74322586D01*
X163815555Y-74548464D01*
X163687985Y-74725776D01*
X163567914Y-74884364D01*
X163447195Y-75047723D01*
X163356355Y-75174293D01*
X163261813Y-75301098D01*
X163173208Y-75391604D01*
X163066453Y-75463583D01*
X162917460Y-75534808D01*
X162803388Y-75582294D01*
X162474547Y-75742680D01*
X162172460Y-75941356D01*
X161913136Y-76165259D01*
X161712584Y-76401329D01*
X161628287Y-76541068D01*
X161544932Y-76721538D01*
X161485447Y-76895141D01*
X161444587Y-77085497D01*
X161417104Y-77316223D01*
X161399951Y-77568926D01*
X161373167Y-78065685D01*
X160878192Y-77785949D01*
X160400679Y-77493604D01*
X160000509Y-77198212D01*
X159670439Y-76892977D01*
X159403230Y-76571105D01*
X159191638Y-76225803D01*
X159169988Y-76183167D01*
X159003773Y-75763184D01*
X158916327Y-75327790D01*
X158907827Y-74874308D01*
X158978447Y-74400063D01*
X159128361Y-73902380D01*
X159352458Y-73389167D01*
X159589466Y-72948311D01*
X159824792Y-72584022D01*
X160064814Y-72288584D01*
X160315910Y-72054283D01*
X160584457Y-71873402D01*
X160622597Y-71852548D01*
X160982816Y-71704107D01*
X161376892Y-71617861D01*
X161790078Y-71591593D01*
X162207629Y-71623087D01*
G37*
X162207629Y-71623087D02*
X162614797Y-71710125D01*
X162996837Y-71850490D01*
X163339002Y-72041965D01*
X163626547Y-72282333D01*
X163650660Y-72307817D01*
X163825667Y-72517933D01*
X163948172Y-72722552D01*
X164025943Y-72943621D01*
X164066747Y-73203084D01*
X164078356Y-73516167D01*
X164066106Y-73832310D01*
X164023789Y-74092493D01*
X163943055Y-74322586D01*
X163815555Y-74548464D01*
X163687985Y-74725776D01*
X163567914Y-74884364D01*
X163447195Y-75047723D01*
X163356355Y-75174293D01*
X163261813Y-75301098D01*
X163173208Y-75391604D01*
X163066453Y-75463583D01*
X162917460Y-75534808D01*
X162803388Y-75582294D01*
X162474547Y-75742680D01*
X162172460Y-75941356D01*
X161913136Y-76165259D01*
X161712584Y-76401329D01*
X161628287Y-76541068D01*
X161544932Y-76721538D01*
X161485447Y-76895141D01*
X161444587Y-77085497D01*
X161417104Y-77316223D01*
X161399951Y-77568926D01*
X161373167Y-78065685D01*
X160878192Y-77785949D01*
X160400679Y-77493604D01*
X160000509Y-77198212D01*
X159670439Y-76892977D01*
X159403230Y-76571105D01*
X159191638Y-76225803D01*
X159169988Y-76183167D01*
X159003773Y-75763184D01*
X158916327Y-75327790D01*
X158907827Y-74874308D01*
X158978447Y-74400063D01*
X159128361Y-73902380D01*
X159352458Y-73389167D01*
X159589466Y-72948311D01*
X159824792Y-72584022D01*
X160064814Y-72288584D01*
X160315910Y-72054283D01*
X160584457Y-71873402D01*
X160622597Y-71852548D01*
X160982816Y-71704107D01*
X161376892Y-71617861D01*
X161790078Y-71591593D01*
X162207629Y-71623087D01*
G36*
X154950607Y-71889994D02*
G01*
X155018008Y-71906446D01*
X155042087Y-71943893D01*
X155044333Y-71975912D01*
X155020139Y-72057378D01*
X154957582Y-72175127D01*
X154893477Y-72270997D01*
X154750958Y-72499853D01*
X154608130Y-72793154D01*
X154473562Y-73131145D01*
X154355823Y-73494069D01*
X154342261Y-73541830D01*
X154299762Y-73704899D01*
X154268286Y-73857899D01*
X154245580Y-74020474D01*
X154229391Y-74212265D01*
X154217467Y-74452915D01*
X154209262Y-74701500D01*
X154187291Y-75463500D01*
X153779729Y-75880088D01*
X153555042Y-76102192D01*
X153368125Y-76265171D01*
X153204057Y-76376175D01*
X153047917Y-76442355D01*
X152884786Y-76470858D01*
X152699743Y-76468836D01*
X152576781Y-76456528D01*
X152440430Y-76436483D01*
X152341073Y-76415324D01*
X152306564Y-76401675D01*
X152316941Y-76358355D01*
X152371690Y-76276622D01*
X152413241Y-76226351D01*
X152509690Y-76105362D01*
X152590682Y-75985280D01*
X152608485Y-75953585D01*
X152649738Y-75832026D01*
X152687223Y-75643025D01*
X152718901Y-75403789D01*
X152742731Y-75131524D01*
X152756676Y-74843439D01*
X152759411Y-74680334D01*
X152764520Y-74449364D01*
X152776616Y-74180468D01*
X152793453Y-73919882D01*
X152800537Y-73833667D01*
X152822847Y-73616963D01*
X152850397Y-73453914D01*
X152891542Y-73313565D01*
X152954636Y-73164961D01*
X153013209Y-73045640D01*
X153239620Y-72667770D01*
X153500261Y-72366635D01*
X153798274Y-72140220D01*
X154136801Y-71986507D01*
X154518983Y-71903479D01*
X154819275Y-71886334D01*
X154950607Y-71889994D01*
G37*
X154950607Y-71889994D02*
X155018008Y-71906446D01*
X155042087Y-71943893D01*
X155044333Y-71975912D01*
X155020139Y-72057378D01*
X154957582Y-72175127D01*
X154893477Y-72270997D01*
X154750958Y-72499853D01*
X154608130Y-72793154D01*
X154473562Y-73131145D01*
X154355823Y-73494069D01*
X154342261Y-73541830D01*
X154299762Y-73704899D01*
X154268286Y-73857899D01*
X154245580Y-74020474D01*
X154229391Y-74212265D01*
X154217467Y-74452915D01*
X154209262Y-74701500D01*
X154187291Y-75463500D01*
X153779729Y-75880088D01*
X153555042Y-76102192D01*
X153368125Y-76265171D01*
X153204057Y-76376175D01*
X153047917Y-76442355D01*
X152884786Y-76470858D01*
X152699743Y-76468836D01*
X152576781Y-76456528D01*
X152440430Y-76436483D01*
X152341073Y-76415324D01*
X152306564Y-76401675D01*
X152316941Y-76358355D01*
X152371690Y-76276622D01*
X152413241Y-76226351D01*
X152509690Y-76105362D01*
X152590682Y-75985280D01*
X152608485Y-75953585D01*
X152649738Y-75832026D01*
X152687223Y-75643025D01*
X152718901Y-75403789D01*
X152742731Y-75131524D01*
X152756676Y-74843439D01*
X152759411Y-74680334D01*
X152764520Y-74449364D01*
X152776616Y-74180468D01*
X152793453Y-73919882D01*
X152800537Y-73833667D01*
X152822847Y-73616963D01*
X152850397Y-73453914D01*
X152891542Y-73313565D01*
X152954636Y-73164961D01*
X153013209Y-73045640D01*
X153239620Y-72667770D01*
X153500261Y-72366635D01*
X153798274Y-72140220D01*
X154136801Y-71986507D01*
X154518983Y-71903479D01*
X154819275Y-71886334D01*
X154950607Y-71889994D01*
G36*
X165246667Y-70598326D02*
G01*
X165492887Y-70601250D01*
X165677557Y-70609543D01*
X165823757Y-70626143D01*
X165954568Y-70653991D01*
X166093071Y-70696023D01*
X166140357Y-70712109D01*
X166329095Y-70786775D01*
X166541119Y-70886155D01*
X166764196Y-71002689D01*
X166986093Y-71128815D01*
X167194574Y-71256971D01*
X167377408Y-71379597D01*
X167522360Y-71489130D01*
X167617196Y-71578010D01*
X167649683Y-71638674D01*
X167648611Y-71644335D01*
X167607716Y-71682243D01*
X167507144Y-71752009D01*
X167361196Y-71844311D01*
X167184169Y-71949823D01*
X167148741Y-71970284D01*
X166827980Y-72158999D01*
X166528960Y-72345290D01*
X166231868Y-72542440D01*
X165916890Y-72763735D01*
X165564212Y-73022459D01*
X165433181Y-73120569D01*
X165245739Y-73260227D01*
X165081782Y-73379983D01*
X164953222Y-73471329D01*
X164871972Y-73525755D01*
X164849769Y-73537334D01*
X164811918Y-73504047D01*
X164803436Y-73484417D01*
X164785020Y-73420700D01*
X164751408Y-73298433D01*
X164708990Y-73140938D01*
X164696680Y-73094741D01*
X164539513Y-72644937D01*
X164320099Y-72250572D01*
X164034293Y-71906078D01*
X163677950Y-71605888D01*
X163500568Y-71488152D01*
X163359083Y-71395797D01*
X163253115Y-71317456D01*
X163197605Y-71264655D01*
X163193513Y-71251312D01*
X163244109Y-71213480D01*
X163356564Y-71151051D01*
X163514464Y-71071710D01*
X163701397Y-70983143D01*
X163900952Y-70893037D01*
X164096717Y-70809078D01*
X164272279Y-70738951D01*
X164342808Y-70713076D01*
X164488084Y-70664497D01*
X164613617Y-70631612D01*
X164742244Y-70611522D01*
X164896804Y-70601328D01*
X165100134Y-70598130D01*
X165246667Y-70598326D01*
G37*
X165246667Y-70598326D02*
X165492887Y-70601250D01*
X165677557Y-70609543D01*
X165823757Y-70626143D01*
X165954568Y-70653991D01*
X166093071Y-70696023D01*
X166140357Y-70712109D01*
X166329095Y-70786775D01*
X166541119Y-70886155D01*
X166764196Y-71002689D01*
X166986093Y-71128815D01*
X167194574Y-71256971D01*
X167377408Y-71379597D01*
X167522360Y-71489130D01*
X167617196Y-71578010D01*
X167649683Y-71638674D01*
X167648611Y-71644335D01*
X167607716Y-71682243D01*
X167507144Y-71752009D01*
X167361196Y-71844311D01*
X167184169Y-71949823D01*
X167148741Y-71970284D01*
X166827980Y-72158999D01*
X166528960Y-72345290D01*
X166231868Y-72542440D01*
X165916890Y-72763735D01*
X165564212Y-73022459D01*
X165433181Y-73120569D01*
X165245739Y-73260227D01*
X165081782Y-73379983D01*
X164953222Y-73471329D01*
X164871972Y-73525755D01*
X164849769Y-73537334D01*
X164811918Y-73504047D01*
X164803436Y-73484417D01*
X164785020Y-73420700D01*
X164751408Y-73298433D01*
X164708990Y-73140938D01*
X164696680Y-73094741D01*
X164539513Y-72644937D01*
X164320099Y-72250572D01*
X164034293Y-71906078D01*
X163677950Y-71605888D01*
X163500568Y-71488152D01*
X163359083Y-71395797D01*
X163253115Y-71317456D01*
X163197605Y-71264655D01*
X163193513Y-71251312D01*
X163244109Y-71213480D01*
X163356564Y-71151051D01*
X163514464Y-71071710D01*
X163701397Y-70983143D01*
X163900952Y-70893037D01*
X164096717Y-70809078D01*
X164272279Y-70738951D01*
X164342808Y-70713076D01*
X164488084Y-70664497D01*
X164613617Y-70631612D01*
X164742244Y-70611522D01*
X164896804Y-70601328D01*
X165100134Y-70598130D01*
X165246667Y-70598326D01*
G36*
X160484487Y-69969522D02*
G01*
X160816079Y-70000247D01*
X161143298Y-70052461D01*
X161217661Y-70067894D01*
X161533404Y-70150551D01*
X161845106Y-70257275D01*
X162135017Y-70380146D01*
X162385387Y-70511250D01*
X162578466Y-70642667D01*
X162647716Y-70705749D01*
X162769764Y-70833140D01*
X162667173Y-70910525D01*
X162616714Y-70940231D01*
X162546482Y-70962410D01*
X162442933Y-70978676D01*
X162292526Y-70990646D01*
X162081716Y-70999935D01*
X161863041Y-71006454D01*
X161591159Y-71014914D01*
X161384745Y-71025510D01*
X161224597Y-71040731D01*
X161091516Y-71063068D01*
X160966304Y-71095009D01*
X160829761Y-71139045D01*
X160823239Y-71141283D01*
X160449812Y-71295827D01*
X160104550Y-71497542D01*
X159766332Y-71756775D01*
X159644148Y-71857920D01*
X159547105Y-71933325D01*
X159492604Y-71969600D01*
X159487961Y-71971000D01*
X159443817Y-71942975D01*
X159374664Y-71875750D01*
X159268829Y-71731841D01*
X159177649Y-71541635D01*
X159092230Y-71286410D01*
X159088345Y-71272976D01*
X159027855Y-71097875D01*
X158944004Y-70897881D01*
X158869039Y-70743809D01*
X158722653Y-70468167D01*
X158828621Y-70376844D01*
X158950951Y-70297866D01*
X159133444Y-70212233D01*
X159352946Y-70128353D01*
X159586306Y-70054634D01*
X159810370Y-69999486D01*
X159920914Y-69980164D01*
X160176704Y-69962192D01*
X160484487Y-69969522D01*
G37*
X160484487Y-69969522D02*
X160816079Y-70000247D01*
X161143298Y-70052461D01*
X161217661Y-70067894D01*
X161533404Y-70150551D01*
X161845106Y-70257275D01*
X162135017Y-70380146D01*
X162385387Y-70511250D01*
X162578466Y-70642667D01*
X162647716Y-70705749D01*
X162769764Y-70833140D01*
X162667173Y-70910525D01*
X162616714Y-70940231D01*
X162546482Y-70962410D01*
X162442933Y-70978676D01*
X162292526Y-70990646D01*
X162081716Y-70999935D01*
X161863041Y-71006454D01*
X161591159Y-71014914D01*
X161384745Y-71025510D01*
X161224597Y-71040731D01*
X161091516Y-71063068D01*
X160966304Y-71095009D01*
X160829761Y-71139045D01*
X160823239Y-71141283D01*
X160449812Y-71295827D01*
X160104550Y-71497542D01*
X159766332Y-71756775D01*
X159644148Y-71857920D01*
X159547105Y-71933325D01*
X159492604Y-71969600D01*
X159487961Y-71971000D01*
X159443817Y-71942975D01*
X159374664Y-71875750D01*
X159268829Y-71731841D01*
X159177649Y-71541635D01*
X159092230Y-71286410D01*
X159088345Y-71272976D01*
X159027855Y-71097875D01*
X158944004Y-70897881D01*
X158869039Y-70743809D01*
X158722653Y-70468167D01*
X158828621Y-70376844D01*
X158950951Y-70297866D01*
X159133444Y-70212233D01*
X159352946Y-70128353D01*
X159586306Y-70054634D01*
X159810370Y-69999486D01*
X159920914Y-69980164D01*
X160176704Y-69962192D01*
X160484487Y-69969522D01*
G36*
X157176422Y-69383302D02*
G01*
X157247115Y-69479590D01*
X157315806Y-69613276D01*
X157369578Y-69762437D01*
X157376006Y-69786559D01*
X157406435Y-70012425D01*
X157402085Y-70280377D01*
X157365715Y-70556613D01*
X157300086Y-70807327D01*
X157290538Y-70833659D01*
X157200935Y-71072151D01*
X156747051Y-71185701D01*
X156529983Y-71243619D01*
X156314019Y-71307369D01*
X156130310Y-71367484D01*
X156046965Y-71398496D01*
X155908286Y-71450696D01*
X155828000Y-71468853D01*
X155788162Y-71455550D01*
X155777560Y-71437277D01*
X155775282Y-71347578D01*
X155826021Y-71219410D01*
X155932862Y-71047153D01*
X156098890Y-70825183D01*
X156144789Y-70767724D01*
X156330743Y-70527387D01*
X156520840Y-70264585D01*
X156700850Y-70000301D01*
X156856545Y-69755522D01*
X156973695Y-69551230D01*
X156986619Y-69526250D01*
X157047685Y-69420645D01*
X157099361Y-69355928D01*
X157116644Y-69346334D01*
X157176422Y-69383302D01*
G37*
X157176422Y-69383302D02*
X157247115Y-69479590D01*
X157315806Y-69613276D01*
X157369578Y-69762437D01*
X157376006Y-69786559D01*
X157406435Y-70012425D01*
X157402085Y-70280377D01*
X157365715Y-70556613D01*
X157300086Y-70807327D01*
X157290538Y-70833659D01*
X157200935Y-71072151D01*
X156747051Y-71185701D01*
X156529983Y-71243619D01*
X156314019Y-71307369D01*
X156130310Y-71367484D01*
X156046965Y-71398496D01*
X155908286Y-71450696D01*
X155828000Y-71468853D01*
X155788162Y-71455550D01*
X155777560Y-71437277D01*
X155775282Y-71347578D01*
X155826021Y-71219410D01*
X155932862Y-71047153D01*
X156098890Y-70825183D01*
X156144789Y-70767724D01*
X156330743Y-70527387D01*
X156520840Y-70264585D01*
X156700850Y-70000301D01*
X156856545Y-69755522D01*
X156973695Y-69551230D01*
X156986619Y-69526250D01*
X157047685Y-69420645D01*
X157099361Y-69355928D01*
X157116644Y-69346334D01*
X157176422Y-69383302D01*
G36*
X158127939Y-70939057D02*
G01*
X158205350Y-71039043D01*
X158253630Y-71113094D01*
X158261667Y-71133979D01*
X158226052Y-71159129D01*
X158138985Y-71161165D01*
X158030135Y-71141227D01*
X157975917Y-71123014D01*
X157899900Y-71070666D01*
X157889870Y-70991186D01*
X157938939Y-70876495D01*
X157994212Y-70776822D01*
X158127939Y-70939057D01*
G37*
X158127939Y-70939057D02*
X158205350Y-71039043D01*
X158253630Y-71113094D01*
X158261667Y-71133979D01*
X158226052Y-71159129D01*
X158138985Y-71161165D01*
X158030135Y-71141227D01*
X157975917Y-71123014D01*
X157899900Y-71070666D01*
X157889870Y-70991186D01*
X157938939Y-70876495D01*
X157994212Y-70776822D01*
X158127939Y-70939057D01*
G36*
X156236045Y-67789182D02*
G01*
X156281038Y-67833080D01*
X156346020Y-67929172D01*
X156394490Y-68014858D01*
X156446285Y-68122273D01*
X156478551Y-68221921D01*
X156495483Y-68338746D01*
X156501277Y-68497690D01*
X156500948Y-68647834D01*
X156472913Y-69022774D01*
X156391150Y-69371694D01*
X156248262Y-69719510D01*
X156105429Y-69979817D01*
X156000136Y-70141432D01*
X155876706Y-70308768D01*
X155747788Y-70467170D01*
X155626028Y-70601982D01*
X155524072Y-70698551D01*
X155454569Y-70742222D01*
X155446516Y-70743334D01*
X155401949Y-70706545D01*
X155350171Y-70612479D01*
X155321858Y-70538767D01*
X155278567Y-70370695D01*
X155238009Y-70146790D01*
X155204077Y-69895876D01*
X155180663Y-69646778D01*
X155171659Y-69428320D01*
X155171654Y-69426377D01*
X155180623Y-69299660D01*
X155218107Y-69198128D01*
X155299225Y-69086421D01*
X155334559Y-69045377D01*
X155491930Y-68848073D01*
X155681657Y-68578392D01*
X155900646Y-68240843D01*
X156028888Y-68033719D01*
X156112691Y-67908577D01*
X156185571Y-67821200D01*
X156233042Y-67788689D01*
X156236045Y-67789182D01*
G37*
X156236045Y-67789182D02*
X156281038Y-67833080D01*
X156346020Y-67929172D01*
X156394490Y-68014858D01*
X156446285Y-68122273D01*
X156478551Y-68221921D01*
X156495483Y-68338746D01*
X156501277Y-68497690D01*
X156500948Y-68647834D01*
X156472913Y-69022774D01*
X156391150Y-69371694D01*
X156248262Y-69719510D01*
X156105429Y-69979817D01*
X156000136Y-70141432D01*
X155876706Y-70308768D01*
X155747788Y-70467170D01*
X155626028Y-70601982D01*
X155524072Y-70698551D01*
X155454569Y-70742222D01*
X155446516Y-70743334D01*
X155401949Y-70706545D01*
X155350171Y-70612479D01*
X155321858Y-70538767D01*
X155278567Y-70370695D01*
X155238009Y-70146790D01*
X155204077Y-69895876D01*
X155180663Y-69646778D01*
X155171659Y-69428320D01*
X155171654Y-69426377D01*
X155180623Y-69299660D01*
X155218107Y-69198128D01*
X155299225Y-69086421D01*
X155334559Y-69045377D01*
X155491930Y-68848073D01*
X155681657Y-68578392D01*
X155900646Y-68240843D01*
X156028888Y-68033719D01*
X156112691Y-67908577D01*
X156185571Y-67821200D01*
X156233042Y-67788689D01*
X156236045Y-67789182D01*
G36*
X155427521Y-66283588D02*
G01*
X155480995Y-66371139D01*
X155536310Y-66515675D01*
X155585828Y-66690046D01*
X155621915Y-66867104D01*
X155636935Y-67019697D01*
X155637000Y-67028377D01*
X155616260Y-67253742D01*
X155558652Y-67525333D01*
X155471095Y-67816912D01*
X155360507Y-68102238D01*
X155344259Y-68138694D01*
X155267117Y-68292424D01*
X155175157Y-68451605D01*
X155080259Y-68598412D01*
X154994302Y-68715014D01*
X154929167Y-68783586D01*
X154907359Y-68794349D01*
X154873962Y-68760439D01*
X154815418Y-68669671D01*
X154743971Y-68541153D01*
X154738896Y-68531417D01*
X154671564Y-68393684D01*
X154630568Y-68278758D01*
X154609420Y-68156246D01*
X154601633Y-67995756D01*
X154600703Y-67884001D01*
X154599833Y-67501169D01*
X154917333Y-67011202D01*
X155041103Y-66818602D01*
X155154412Y-66639369D01*
X155245975Y-66491555D01*
X155304504Y-66393211D01*
X155310753Y-66381987D01*
X155374225Y-66292347D01*
X155422959Y-66279750D01*
X155427521Y-66283588D01*
G37*
X155427521Y-66283588D02*
X155480995Y-66371139D01*
X155536310Y-66515675D01*
X155585828Y-66690046D01*
X155621915Y-66867104D01*
X155636935Y-67019697D01*
X155637000Y-67028377D01*
X155616260Y-67253742D01*
X155558652Y-67525333D01*
X155471095Y-67816912D01*
X155360507Y-68102238D01*
X155344259Y-68138694D01*
X155267117Y-68292424D01*
X155175157Y-68451605D01*
X155080259Y-68598412D01*
X154994302Y-68715014D01*
X154929167Y-68783586D01*
X154907359Y-68794349D01*
X154873962Y-68760439D01*
X154815418Y-68669671D01*
X154743971Y-68541153D01*
X154738896Y-68531417D01*
X154671564Y-68393684D01*
X154630568Y-68278758D01*
X154609420Y-68156246D01*
X154601633Y-67995756D01*
X154600703Y-67884001D01*
X154599833Y-67501169D01*
X154917333Y-67011202D01*
X155041103Y-66818602D01*
X155154412Y-66639369D01*
X155245975Y-66491555D01*
X155304504Y-66393211D01*
X155310753Y-66381987D01*
X155374225Y-66292347D01*
X155422959Y-66279750D01*
X155427521Y-66283588D01*
G36*
X154751744Y-64982949D02*
G01*
X154788233Y-65090279D01*
X154812136Y-65249887D01*
X154823130Y-65446001D01*
X154820892Y-65662849D01*
X154805098Y-65884658D01*
X154775424Y-66095659D01*
X154731547Y-66280078D01*
X154730470Y-66283557D01*
X154675223Y-66424537D01*
X154597200Y-66579513D01*
X154509451Y-66727047D01*
X154425023Y-66845700D01*
X154356963Y-66914034D01*
X154342303Y-66921330D01*
X154303008Y-66894283D01*
X154259978Y-66809267D01*
X154247053Y-66770849D01*
X154200849Y-66494510D01*
X154210783Y-66181180D01*
X154275437Y-65855963D01*
X154303816Y-65764213D01*
X154374465Y-65570415D01*
X154454225Y-65377954D01*
X154535236Y-65202991D01*
X154609636Y-65061686D01*
X154669563Y-64970197D01*
X154702993Y-64943667D01*
X154751744Y-64982949D01*
G37*
X154751744Y-64982949D02*
X154788233Y-65090279D01*
X154812136Y-65249887D01*
X154823130Y-65446001D01*
X154820892Y-65662849D01*
X154805098Y-65884658D01*
X154775424Y-66095659D01*
X154731547Y-66280078D01*
X154730470Y-66283557D01*
X154675223Y-66424537D01*
X154597200Y-66579513D01*
X154509451Y-66727047D01*
X154425023Y-66845700D01*
X154356963Y-66914034D01*
X154342303Y-66921330D01*
X154303008Y-66894283D01*
X154259978Y-66809267D01*
X154247053Y-66770849D01*
X154200849Y-66494510D01*
X154210783Y-66181180D01*
X154275437Y-65855963D01*
X154303816Y-65764213D01*
X154374465Y-65570415D01*
X154454225Y-65377954D01*
X154535236Y-65202991D01*
X154609636Y-65061686D01*
X154669563Y-64970197D01*
X154702993Y-64943667D01*
X154751744Y-64982949D01*
G36*
X153879680Y-63530626D02*
G01*
X153939583Y-63611907D01*
X153975417Y-63675514D01*
X154019987Y-63774567D01*
X154048175Y-63877171D01*
X154063395Y-64006282D01*
X154069061Y-64184858D01*
X154069359Y-64307053D01*
X154063866Y-64560115D01*
X154050019Y-64807732D01*
X154029565Y-65033906D01*
X154004254Y-65222638D01*
X153975833Y-65357931D01*
X153947489Y-65422444D01*
X153901403Y-65414583D01*
X153826084Y-65342221D01*
X153776935Y-65279207D01*
X153651665Y-65060845D01*
X153567283Y-64820054D01*
X153532557Y-64586924D01*
X153539191Y-64463326D01*
X153566853Y-64324249D01*
X153609581Y-64153894D01*
X153661387Y-63971464D01*
X153716282Y-63796164D01*
X153768281Y-63647198D01*
X153811395Y-63543771D01*
X153837833Y-63505428D01*
X153879680Y-63530626D01*
G37*
X153879680Y-63530626D02*
X153939583Y-63611907D01*
X153975417Y-63675514D01*
X154019987Y-63774567D01*
X154048175Y-63877171D01*
X154063395Y-64006282D01*
X154069061Y-64184858D01*
X154069359Y-64307053D01*
X154063866Y-64560115D01*
X154050019Y-64807732D01*
X154029565Y-65033906D01*
X154004254Y-65222638D01*
X153975833Y-65357931D01*
X153947489Y-65422444D01*
X153901403Y-65414583D01*
X153826084Y-65342221D01*
X153776935Y-65279207D01*
X153651665Y-65060845D01*
X153567283Y-64820054D01*
X153532557Y-64586924D01*
X153539191Y-64463326D01*
X153566853Y-64324249D01*
X153609581Y-64153894D01*
X153661387Y-63971464D01*
X153716282Y-63796164D01*
X153768281Y-63647198D01*
X153811395Y-63543771D01*
X153837833Y-63505428D01*
X153879680Y-63530626D01*
G36*
X153002552Y-62078602D02*
G01*
X153122913Y-62231681D01*
X153211695Y-62450862D01*
X153270280Y-62740861D01*
X153299453Y-63091584D01*
X153305568Y-63335122D01*
X153299566Y-63496502D01*
X153280771Y-63577456D01*
X153248504Y-63579717D01*
X153202088Y-63505015D01*
X153168271Y-63426745D01*
X153110038Y-63246544D01*
X153052537Y-63007323D01*
X153000899Y-62734616D01*
X152960254Y-62453955D01*
X152945693Y-62319000D01*
X152915934Y-62001500D01*
X153002552Y-62078602D01*
G37*
X153002552Y-62078602D02*
X153122913Y-62231681D01*
X153211695Y-62450862D01*
X153270280Y-62740861D01*
X153299453Y-63091584D01*
X153305568Y-63335122D01*
X153299566Y-63496502D01*
X153280771Y-63577456D01*
X153248504Y-63579717D01*
X153202088Y-63505015D01*
X153168271Y-63426745D01*
X153110038Y-63246544D01*
X153052537Y-63007323D01*
X153000899Y-62734616D01*
X152960254Y-62453955D01*
X152945693Y-62319000D01*
X152915934Y-62001500D01*
X153002552Y-62078602D01*
D11*
G36*
X163034600Y-137714600D02*
G01*
X161205400Y-137714600D01*
X161205400Y-135885400D01*
X163034600Y-135885400D01*
X163034600Y-137714600D01*
G37*
G36*
X164926778Y-135920547D02*
G01*
X165093224Y-135989491D01*
X165243022Y-136089583D01*
X165370417Y-136216978D01*
X165470509Y-136366776D01*
X165539453Y-136533222D01*
X165574600Y-136709918D01*
X165574600Y-136890082D01*
X165539453Y-137066778D01*
X165470509Y-137233224D01*
X165370417Y-137383022D01*
X165243022Y-137510417D01*
X165093224Y-137610509D01*
X164926778Y-137679453D01*
X164750082Y-137714600D01*
X164569918Y-137714600D01*
X164393222Y-137679453D01*
X164226776Y-137610509D01*
X164076978Y-137510417D01*
X163949583Y-137383022D01*
X163849491Y-137233224D01*
X163780547Y-137066778D01*
X163745400Y-136890082D01*
X163745400Y-136709918D01*
X163780547Y-136533222D01*
X163849491Y-136366776D01*
X163949583Y-136216978D01*
X164076978Y-136089583D01*
X164226776Y-135989491D01*
X164393222Y-135920547D01*
X164569918Y-135885400D01*
X164750082Y-135885400D01*
X164926778Y-135920547D01*
G37*
G36*
X167466778Y-135920547D02*
G01*
X167633224Y-135989491D01*
X167783022Y-136089583D01*
X167910417Y-136216978D01*
X168010509Y-136366776D01*
X168079453Y-136533222D01*
X168114600Y-136709918D01*
X168114600Y-136890082D01*
X168079453Y-137066778D01*
X168010509Y-137233224D01*
X167910417Y-137383022D01*
X167783022Y-137510417D01*
X167633224Y-137610509D01*
X167466778Y-137679453D01*
X167290082Y-137714600D01*
X167109918Y-137714600D01*
X166933222Y-137679453D01*
X166766776Y-137610509D01*
X166616978Y-137510417D01*
X166489583Y-137383022D01*
X166389491Y-137233224D01*
X166320547Y-137066778D01*
X166285400Y-136890082D01*
X166285400Y-136709918D01*
X166320547Y-136533222D01*
X166389491Y-136366776D01*
X166489583Y-136216978D01*
X166616978Y-136089583D01*
X166766776Y-135989491D01*
X166933222Y-135920547D01*
X167109918Y-135885400D01*
X167290082Y-135885400D01*
X167466778Y-135920547D01*
G37*
G36*
X167466778Y-133380547D02*
G01*
X167633224Y-133449491D01*
X167783022Y-133549583D01*
X167910417Y-133676978D01*
X168010509Y-133826776D01*
X168079453Y-133993222D01*
X168114600Y-134169918D01*
X168114600Y-134350082D01*
X168079453Y-134526778D01*
X168010509Y-134693224D01*
X167910417Y-134843022D01*
X167783022Y-134970417D01*
X167633224Y-135070509D01*
X167466778Y-135139453D01*
X167290082Y-135174600D01*
X167109918Y-135174600D01*
X166933222Y-135139453D01*
X166766776Y-135070509D01*
X166616978Y-134970417D01*
X166489583Y-134843022D01*
X166389491Y-134693224D01*
X166320547Y-134526778D01*
X166285400Y-134350082D01*
X166285400Y-134169918D01*
X166320547Y-133993222D01*
X166389491Y-133826776D01*
X166489583Y-133676978D01*
X166616978Y-133549583D01*
X166766776Y-133449491D01*
X166933222Y-133380547D01*
X167109918Y-133345400D01*
X167290082Y-133345400D01*
X167466778Y-133380547D01*
G37*
G36*
X162386778Y-133380547D02*
G01*
X162553224Y-133449491D01*
X162703022Y-133549583D01*
X162830417Y-133676978D01*
X162930509Y-133826776D01*
X162999453Y-133993222D01*
X163034600Y-134169918D01*
X163034600Y-134350082D01*
X162999453Y-134526778D01*
X162930509Y-134693224D01*
X162830417Y-134843022D01*
X162703022Y-134970417D01*
X162553224Y-135070509D01*
X162386778Y-135139453D01*
X162210082Y-135174600D01*
X162029918Y-135174600D01*
X161853222Y-135139453D01*
X161686776Y-135070509D01*
X161536978Y-134970417D01*
X161409583Y-134843022D01*
X161309491Y-134693224D01*
X161240547Y-134526778D01*
X161205400Y-134350082D01*
X161205400Y-134169918D01*
X161240547Y-133993222D01*
X161309491Y-133826776D01*
X161409583Y-133676978D01*
X161536978Y-133549583D01*
X161686776Y-133449491D01*
X161853222Y-133380547D01*
X162029918Y-133345400D01*
X162210082Y-133345400D01*
X162386778Y-133380547D01*
G37*
G36*
X164926778Y-133380547D02*
G01*
X165093224Y-133449491D01*
X165243022Y-133549583D01*
X165370417Y-133676978D01*
X165470509Y-133826776D01*
X165539453Y-133993222D01*
X165574600Y-134169918D01*
X165574600Y-134350082D01*
X165539453Y-134526778D01*
X165470509Y-134693224D01*
X165370417Y-134843022D01*
X165243022Y-134970417D01*
X165093224Y-135070509D01*
X164926778Y-135139453D01*
X164750082Y-135174600D01*
X164569918Y-135174600D01*
X164393222Y-135139453D01*
X164226776Y-135070509D01*
X164076978Y-134970417D01*
X163949583Y-134843022D01*
X163849491Y-134693224D01*
X163780547Y-134526778D01*
X163745400Y-134350082D01*
X163745400Y-134169918D01*
X163780547Y-133993222D01*
X163849491Y-133826776D01*
X163949583Y-133676978D01*
X164076978Y-133549583D01*
X164226776Y-133449491D01*
X164393222Y-133380547D01*
X164569918Y-133345400D01*
X164750082Y-133345400D01*
X164926778Y-133380547D01*
G37*
G36*
X169985000Y-129533000D02*
G01*
X169383000Y-129533000D01*
X169383000Y-128531000D01*
X169985000Y-128531000D01*
X169985000Y-129533000D01*
G37*
G36*
X171485000Y-129533000D02*
G01*
X170883000Y-129533000D01*
X170883000Y-128531000D01*
X171485000Y-128531000D01*
X171485000Y-129533000D01*
G37*
G36*
X168937255Y-126136120D02*
G01*
X168131376Y-126812333D01*
X168052472Y-126878541D01*
X168035335Y-126896056D01*
X168021945Y-126916578D01*
X168012815Y-126939318D01*
X168008297Y-126963402D01*
X168008564Y-126987904D01*
X168013606Y-127011884D01*
X168023230Y-127034419D01*
X168037060Y-127054637D01*
X168117415Y-127150400D01*
X167652426Y-127540572D01*
X167556691Y-127620903D01*
X167556670Y-127620919D01*
X167477766Y-127687127D01*
X167477767Y-127687128D01*
X167012778Y-128077300D01*
X166932425Y-127981539D01*
X166914914Y-127964406D01*
X166894392Y-127951016D01*
X166871653Y-127941886D01*
X166847569Y-127937368D01*
X166823066Y-127937635D01*
X166799086Y-127942677D01*
X166776551Y-127952301D01*
X166756326Y-127966136D01*
X166677423Y-128032344D01*
X165871544Y-128708557D01*
X165098913Y-127787772D01*
X165904792Y-127111559D01*
X166177982Y-127437134D01*
X166195492Y-127454266D01*
X166216014Y-127467656D01*
X166238754Y-127476786D01*
X166262838Y-127481304D01*
X166287340Y-127481037D01*
X166311320Y-127475995D01*
X166333855Y-127466371D01*
X166354080Y-127452536D01*
X166432983Y-127386328D01*
X166897972Y-126996156D01*
X166993707Y-126915825D01*
X166993728Y-126915809D01*
X167072632Y-126849601D01*
X167072631Y-126849600D01*
X167537620Y-126459428D01*
X167616524Y-126393220D01*
X167633661Y-126375705D01*
X167647052Y-126355183D01*
X167656181Y-126332443D01*
X167660699Y-126308359D01*
X167660432Y-126283857D01*
X167655390Y-126259877D01*
X167645766Y-126237342D01*
X167631935Y-126217123D01*
X167358745Y-125891548D01*
X168164624Y-125215335D01*
X168937255Y-126136120D01*
G37*
G36*
X170027000Y-127737000D02*
G01*
X169425000Y-127737000D01*
X169425000Y-126735000D01*
X170027000Y-126735000D01*
X170027000Y-127737000D01*
G37*
G36*
X171527000Y-127737000D02*
G01*
X170925000Y-127737000D01*
X170925000Y-126735000D01*
X171527000Y-126735000D01*
X171527000Y-127737000D01*
G37*
G36*
X175591000Y-127737000D02*
G01*
X174989000Y-127737000D01*
X174989000Y-126735000D01*
X175591000Y-126735000D01*
X175591000Y-127737000D01*
G37*
G36*
X174091000Y-127737000D02*
G01*
X173489000Y-127737000D01*
X173489000Y-126735000D01*
X174091000Y-126735000D01*
X174091000Y-127737000D01*
G37*
G36*
X171547000Y-125825000D02*
G01*
X170945000Y-125825000D01*
X170945000Y-124823000D01*
X171547000Y-124823000D01*
X171547000Y-125825000D01*
G37*
G36*
X170047000Y-125825000D02*
G01*
X169445000Y-125825000D01*
X169445000Y-124823000D01*
X170047000Y-124823000D01*
X170047000Y-125825000D01*
G37*
G36*
X174111000Y-125825000D02*
G01*
X173509000Y-125825000D01*
X173509000Y-124823000D01*
X174111000Y-124823000D01*
X174111000Y-125825000D01*
G37*
G36*
X175611000Y-125825000D02*
G01*
X175009000Y-125825000D01*
X175009000Y-124823000D01*
X175611000Y-124823000D01*
X175611000Y-125825000D01*
G37*
G36*
X178428350Y-121122472D02*
G01*
X177983756Y-122075907D01*
X177983755Y-122075907D01*
X177598574Y-121896294D01*
X177575458Y-121888165D01*
X177551199Y-121884702D01*
X177526732Y-121886038D01*
X177502995Y-121892121D01*
X177480901Y-121902719D01*
X177461299Y-121917423D01*
X177444942Y-121935669D01*
X177432459Y-121956755D01*
X177310157Y-122219033D01*
X177132400Y-122600234D01*
X177079573Y-122713522D01*
X176779514Y-123357001D01*
X176735984Y-123450352D01*
X176727855Y-123473469D01*
X176724392Y-123497727D01*
X176725728Y-123522194D01*
X176731811Y-123545931D01*
X176742409Y-123568025D01*
X176757113Y-123587627D01*
X176775359Y-123603984D01*
X176796445Y-123616467D01*
X177181626Y-123796080D01*
X176737032Y-124749515D01*
X176737031Y-124749515D01*
X175647650Y-124241528D01*
X175961710Y-123568025D01*
X176092244Y-123288093D01*
X176092245Y-123288093D01*
X176135775Y-123194742D01*
X176143904Y-123171626D01*
X176147367Y-123147367D01*
X176146031Y-123122900D01*
X176139948Y-123099163D01*
X176129350Y-123077069D01*
X176114646Y-123057467D01*
X176096400Y-123041110D01*
X176075314Y-123028628D01*
X175962025Y-122975800D01*
X176271381Y-122312383D01*
X176571440Y-121668903D01*
X176684729Y-121721731D01*
X176707845Y-121729861D01*
X176732103Y-121733324D01*
X176756571Y-121731988D01*
X176780308Y-121725905D01*
X176802402Y-121715307D01*
X176822004Y-121700603D01*
X176838361Y-121682357D01*
X176850844Y-121661271D01*
X176894374Y-121567920D01*
X177338968Y-120614485D01*
X177338969Y-120614485D01*
X178428350Y-121122472D01*
G37*
G36*
X175071000Y-123231000D02*
G01*
X174469000Y-123231000D01*
X174469000Y-122229000D01*
X175071000Y-122229000D01*
X175071000Y-123231000D01*
G37*
G36*
X173571000Y-123231000D02*
G01*
X172969000Y-123231000D01*
X172969000Y-122229000D01*
X173571000Y-122229000D01*
X173571000Y-123231000D01*
G37*
G36*
X175181000Y-121221000D02*
G01*
X174079000Y-121221000D01*
X174079000Y-119519000D01*
X175181000Y-119519000D01*
X175181000Y-121221000D01*
G37*
G36*
X172181000Y-121221000D02*
G01*
X171079000Y-121221000D01*
X171079000Y-119519000D01*
X172181000Y-119519000D01*
X172181000Y-121221000D01*
G37*
G36*
X176709928Y-117825615D02*
G01*
X176731009Y-117832011D01*
X176750445Y-117842399D01*
X176767476Y-117856375D01*
X176781452Y-117873406D01*
X176791840Y-117892842D01*
X176798236Y-117913923D01*
X176801000Y-117941991D01*
X176801000Y-118405711D01*
X176798236Y-118433779D01*
X176791840Y-118454860D01*
X176781452Y-118474296D01*
X176767476Y-118491327D01*
X176750445Y-118505303D01*
X176731009Y-118515691D01*
X176709928Y-118522087D01*
X176681860Y-118524851D01*
X174868140Y-118524851D01*
X174840072Y-118522087D01*
X174818991Y-118515691D01*
X174799555Y-118505303D01*
X174782524Y-118491327D01*
X174768548Y-118474296D01*
X174758160Y-118454860D01*
X174751764Y-118433779D01*
X174749000Y-118405711D01*
X174749000Y-117941991D01*
X174751764Y-117913923D01*
X174758160Y-117892842D01*
X174768548Y-117873406D01*
X174782524Y-117856375D01*
X174799555Y-117842399D01*
X174818991Y-117832011D01*
X174840072Y-117825615D01*
X174868140Y-117822851D01*
X176681860Y-117822851D01*
X176709928Y-117825615D01*
G37*
G36*
X171759928Y-117825615D02*
G01*
X171781009Y-117832011D01*
X171800445Y-117842399D01*
X171817476Y-117856375D01*
X171831452Y-117873406D01*
X171841840Y-117892842D01*
X171848236Y-117913923D01*
X171851000Y-117941991D01*
X171851000Y-118405711D01*
X171848236Y-118433779D01*
X171841840Y-118454860D01*
X171831452Y-118474296D01*
X171817476Y-118491327D01*
X171800445Y-118505303D01*
X171781009Y-118515691D01*
X171759928Y-118522087D01*
X171731860Y-118524851D01*
X169918140Y-118524851D01*
X169890072Y-118522087D01*
X169868991Y-118515691D01*
X169849555Y-118505303D01*
X169832524Y-118491327D01*
X169818548Y-118474296D01*
X169808160Y-118454860D01*
X169801764Y-118433779D01*
X169799000Y-118405711D01*
X169799000Y-117941991D01*
X169801764Y-117913923D01*
X169808160Y-117892842D01*
X169818548Y-117873406D01*
X169832524Y-117856375D01*
X169849555Y-117842399D01*
X169868991Y-117832011D01*
X169890072Y-117825615D01*
X169918140Y-117822851D01*
X171731860Y-117822851D01*
X171759928Y-117825615D01*
G37*
G36*
X171759928Y-116555615D02*
G01*
X171781009Y-116562011D01*
X171800445Y-116572399D01*
X171817476Y-116586375D01*
X171831452Y-116603406D01*
X171841840Y-116622842D01*
X171848236Y-116643923D01*
X171851000Y-116671991D01*
X171851000Y-117135711D01*
X171848236Y-117163779D01*
X171841840Y-117184860D01*
X171831452Y-117204296D01*
X171817476Y-117221327D01*
X171800445Y-117235303D01*
X171781009Y-117245691D01*
X171759928Y-117252087D01*
X171731860Y-117254851D01*
X169918140Y-117254851D01*
X169890072Y-117252087D01*
X169868991Y-117245691D01*
X169849555Y-117235303D01*
X169832524Y-117221327D01*
X169818548Y-117204296D01*
X169808160Y-117184860D01*
X169801764Y-117163779D01*
X169799000Y-117135711D01*
X169799000Y-116671991D01*
X169801764Y-116643923D01*
X169808160Y-116622842D01*
X169818548Y-116603406D01*
X169832524Y-116586375D01*
X169849555Y-116572399D01*
X169868991Y-116562011D01*
X169890072Y-116555615D01*
X169918140Y-116552851D01*
X171731860Y-116552851D01*
X171759928Y-116555615D01*
G37*
G36*
X176709928Y-116555615D02*
G01*
X176731009Y-116562011D01*
X176750445Y-116572399D01*
X176767476Y-116586375D01*
X176781452Y-116603406D01*
X176791840Y-116622842D01*
X176798236Y-116643923D01*
X176801000Y-116671991D01*
X176801000Y-117135711D01*
X176798236Y-117163779D01*
X176791840Y-117184860D01*
X176781452Y-117204296D01*
X176767476Y-117221327D01*
X176750445Y-117235303D01*
X176731009Y-117245691D01*
X176709928Y-117252087D01*
X176681860Y-117254851D01*
X174868140Y-117254851D01*
X174840072Y-117252087D01*
X174818991Y-117245691D01*
X174799555Y-117235303D01*
X174782524Y-117221327D01*
X174768548Y-117204296D01*
X174758160Y-117184860D01*
X174751764Y-117163779D01*
X174749000Y-117135711D01*
X174749000Y-116671991D01*
X174751764Y-116643923D01*
X174758160Y-116622842D01*
X174768548Y-116603406D01*
X174782524Y-116586375D01*
X174799555Y-116572399D01*
X174818991Y-116562011D01*
X174840072Y-116555615D01*
X174868140Y-116552851D01*
X176681860Y-116552851D01*
X176709928Y-116555615D01*
G37*
G36*
X176709928Y-115285615D02*
G01*
X176731009Y-115292011D01*
X176750445Y-115302399D01*
X176767476Y-115316375D01*
X176781452Y-115333406D01*
X176791840Y-115352842D01*
X176798236Y-115373923D01*
X176801000Y-115401991D01*
X176801000Y-115865711D01*
X176798236Y-115893779D01*
X176791840Y-115914860D01*
X176781452Y-115934296D01*
X176767476Y-115951327D01*
X176750445Y-115965303D01*
X176731009Y-115975691D01*
X176709928Y-115982087D01*
X176681860Y-115984851D01*
X174868140Y-115984851D01*
X174840072Y-115982087D01*
X174818991Y-115975691D01*
X174799555Y-115965303D01*
X174782524Y-115951327D01*
X174768548Y-115934296D01*
X174758160Y-115914860D01*
X174751764Y-115893779D01*
X174749000Y-115865711D01*
X174749000Y-115401991D01*
X174751764Y-115373923D01*
X174758160Y-115352842D01*
X174768548Y-115333406D01*
X174782524Y-115316375D01*
X174799555Y-115302399D01*
X174818991Y-115292011D01*
X174840072Y-115285615D01*
X174868140Y-115282851D01*
X176681860Y-115282851D01*
X176709928Y-115285615D01*
G37*
G36*
X171759928Y-115285615D02*
G01*
X171781009Y-115292011D01*
X171800445Y-115302399D01*
X171817476Y-115316375D01*
X171831452Y-115333406D01*
X171841840Y-115352842D01*
X171848236Y-115373923D01*
X171851000Y-115401991D01*
X171851000Y-115865711D01*
X171848236Y-115893779D01*
X171841840Y-115914860D01*
X171831452Y-115934296D01*
X171817476Y-115951327D01*
X171800445Y-115965303D01*
X171781009Y-115975691D01*
X171759928Y-115982087D01*
X171731860Y-115984851D01*
X169918140Y-115984851D01*
X169890072Y-115982087D01*
X169868991Y-115975691D01*
X169849555Y-115965303D01*
X169832524Y-115951327D01*
X169818548Y-115934296D01*
X169808160Y-115914860D01*
X169801764Y-115893779D01*
X169799000Y-115865711D01*
X169799000Y-115401991D01*
X169801764Y-115373923D01*
X169808160Y-115352842D01*
X169818548Y-115333406D01*
X169832524Y-115316375D01*
X169849555Y-115302399D01*
X169868991Y-115292011D01*
X169890072Y-115285615D01*
X169918140Y-115282851D01*
X171731860Y-115282851D01*
X171759928Y-115285615D01*
G37*
G36*
X176709928Y-114015615D02*
G01*
X176731009Y-114022011D01*
X176750445Y-114032399D01*
X176767476Y-114046375D01*
X176781452Y-114063406D01*
X176791840Y-114082842D01*
X176798236Y-114103923D01*
X176801000Y-114131991D01*
X176801000Y-114595711D01*
X176798236Y-114623779D01*
X176791840Y-114644860D01*
X176781452Y-114664296D01*
X176767476Y-114681327D01*
X176750445Y-114695303D01*
X176731009Y-114705691D01*
X176709928Y-114712087D01*
X176681860Y-114714851D01*
X174868140Y-114714851D01*
X174840072Y-114712087D01*
X174818991Y-114705691D01*
X174799555Y-114695303D01*
X174782524Y-114681327D01*
X174768548Y-114664296D01*
X174758160Y-114644860D01*
X174751764Y-114623779D01*
X174749000Y-114595711D01*
X174749000Y-114131991D01*
X174751764Y-114103923D01*
X174758160Y-114082842D01*
X174768548Y-114063406D01*
X174782524Y-114046375D01*
X174799555Y-114032399D01*
X174818991Y-114022011D01*
X174840072Y-114015615D01*
X174868140Y-114012851D01*
X176681860Y-114012851D01*
X176709928Y-114015615D01*
G37*
G36*
X171759928Y-114015615D02*
G01*
X171781009Y-114022011D01*
X171800445Y-114032399D01*
X171817476Y-114046375D01*
X171831452Y-114063406D01*
X171841840Y-114082842D01*
X171848236Y-114103923D01*
X171851000Y-114131991D01*
X171851000Y-114595711D01*
X171848236Y-114623779D01*
X171841840Y-114644860D01*
X171831452Y-114664296D01*
X171817476Y-114681327D01*
X171800445Y-114695303D01*
X171781009Y-114705691D01*
X171759928Y-114712087D01*
X171731860Y-114714851D01*
X169918140Y-114714851D01*
X169890072Y-114712087D01*
X169868991Y-114705691D01*
X169849555Y-114695303D01*
X169832524Y-114681327D01*
X169818548Y-114664296D01*
X169808160Y-114644860D01*
X169801764Y-114623779D01*
X169799000Y-114595711D01*
X169799000Y-114131991D01*
X169801764Y-114103923D01*
X169808160Y-114082842D01*
X169818548Y-114063406D01*
X169832524Y-114046375D01*
X169849555Y-114032399D01*
X169868991Y-114022011D01*
X169890072Y-114015615D01*
X169918140Y-114012851D01*
X171731860Y-114012851D01*
X171759928Y-114015615D01*
G37*
G36*
X176709928Y-112745615D02*
G01*
X176731009Y-112752011D01*
X176750445Y-112762399D01*
X176767476Y-112776375D01*
X176781452Y-112793406D01*
X176791840Y-112812842D01*
X176798236Y-112833923D01*
X176801000Y-112861991D01*
X176801000Y-113325711D01*
X176798236Y-113353779D01*
X176791840Y-113374860D01*
X176781452Y-113394296D01*
X176767476Y-113411327D01*
X176750445Y-113425303D01*
X176731009Y-113435691D01*
X176709928Y-113442087D01*
X176681860Y-113444851D01*
X174868140Y-113444851D01*
X174840072Y-113442087D01*
X174818991Y-113435691D01*
X174799555Y-113425303D01*
X174782524Y-113411327D01*
X174768548Y-113394296D01*
X174758160Y-113374860D01*
X174751764Y-113353779D01*
X174749000Y-113325711D01*
X174749000Y-112861991D01*
X174751764Y-112833923D01*
X174758160Y-112812842D01*
X174768548Y-112793406D01*
X174782524Y-112776375D01*
X174799555Y-112762399D01*
X174818991Y-112752011D01*
X174840072Y-112745615D01*
X174868140Y-112742851D01*
X176681860Y-112742851D01*
X176709928Y-112745615D01*
G37*
G36*
X171759928Y-112745615D02*
G01*
X171781009Y-112752011D01*
X171800445Y-112762399D01*
X171817476Y-112776375D01*
X171831452Y-112793406D01*
X171841840Y-112812842D01*
X171848236Y-112833923D01*
X171851000Y-112861991D01*
X171851000Y-113325711D01*
X171848236Y-113353779D01*
X171841840Y-113374860D01*
X171831452Y-113394296D01*
X171817476Y-113411327D01*
X171800445Y-113425303D01*
X171781009Y-113435691D01*
X171759928Y-113442087D01*
X171731860Y-113444851D01*
X169918140Y-113444851D01*
X169890072Y-113442087D01*
X169868991Y-113435691D01*
X169849555Y-113425303D01*
X169832524Y-113411327D01*
X169818548Y-113394296D01*
X169808160Y-113374860D01*
X169801764Y-113353779D01*
X169799000Y-113325711D01*
X169799000Y-112861991D01*
X169801764Y-112833923D01*
X169808160Y-112812842D01*
X169818548Y-112793406D01*
X169832524Y-112776375D01*
X169849555Y-112762399D01*
X169868991Y-112752011D01*
X169890072Y-112745615D01*
X169918140Y-112742851D01*
X171731860Y-112742851D01*
X171759928Y-112745615D01*
G37*
G36*
X171759928Y-111475615D02*
G01*
X171781009Y-111482011D01*
X171800445Y-111492399D01*
X171817476Y-111506375D01*
X171831452Y-111523406D01*
X171841840Y-111542842D01*
X171848236Y-111563923D01*
X171851000Y-111591991D01*
X171851000Y-112055711D01*
X171848236Y-112083779D01*
X171841840Y-112104860D01*
X171831452Y-112124296D01*
X171817476Y-112141327D01*
X171800445Y-112155303D01*
X171781009Y-112165691D01*
X171759928Y-112172087D01*
X171731860Y-112174851D01*
X169918140Y-112174851D01*
X169890072Y-112172087D01*
X169868991Y-112165691D01*
X169849555Y-112155303D01*
X169832524Y-112141327D01*
X169818548Y-112124296D01*
X169808160Y-112104860D01*
X169801764Y-112083779D01*
X169799000Y-112055711D01*
X169799000Y-111591991D01*
X169801764Y-111563923D01*
X169808160Y-111542842D01*
X169818548Y-111523406D01*
X169832524Y-111506375D01*
X169849555Y-111492399D01*
X169868991Y-111482011D01*
X169890072Y-111475615D01*
X169918140Y-111472851D01*
X171731860Y-111472851D01*
X171759928Y-111475615D01*
G37*
G36*
X176709928Y-111475615D02*
G01*
X176731009Y-111482011D01*
X176750445Y-111492399D01*
X176767476Y-111506375D01*
X176781452Y-111523406D01*
X176791840Y-111542842D01*
X176798236Y-111563923D01*
X176801000Y-111591991D01*
X176801000Y-112055711D01*
X176798236Y-112083779D01*
X176791840Y-112104860D01*
X176781452Y-112124296D01*
X176767476Y-112141327D01*
X176750445Y-112155303D01*
X176731009Y-112165691D01*
X176709928Y-112172087D01*
X176681860Y-112174851D01*
X174868140Y-112174851D01*
X174840072Y-112172087D01*
X174818991Y-112165691D01*
X174799555Y-112155303D01*
X174782524Y-112141327D01*
X174768548Y-112124296D01*
X174758160Y-112104860D01*
X174751764Y-112083779D01*
X174749000Y-112055711D01*
X174749000Y-111591991D01*
X174751764Y-111563923D01*
X174758160Y-111542842D01*
X174768548Y-111523406D01*
X174782524Y-111506375D01*
X174799555Y-111492399D01*
X174818991Y-111482011D01*
X174840072Y-111475615D01*
X174868140Y-111472851D01*
X176681860Y-111472851D01*
X176709928Y-111475615D01*
G37*
G36*
X165331000Y-111871000D02*
G01*
X164729000Y-111871000D01*
X164729000Y-110869000D01*
X165331000Y-110869000D01*
X165331000Y-111871000D01*
G37*
G36*
X166831000Y-111871000D02*
G01*
X166229000Y-111871000D01*
X166229000Y-110869000D01*
X166831000Y-110869000D01*
X166831000Y-111871000D01*
G37*
G36*
X176709928Y-110205615D02*
G01*
X176731009Y-110212011D01*
X176750445Y-110222399D01*
X176767476Y-110236375D01*
X176781452Y-110253406D01*
X176791840Y-110272842D01*
X176798236Y-110293923D01*
X176801000Y-110321991D01*
X176801000Y-110785711D01*
X176798236Y-110813779D01*
X176791840Y-110834860D01*
X176781452Y-110854296D01*
X176767476Y-110871327D01*
X176750445Y-110885303D01*
X176731009Y-110895691D01*
X176709928Y-110902087D01*
X176681860Y-110904851D01*
X174868140Y-110904851D01*
X174840072Y-110902087D01*
X174818991Y-110895691D01*
X174799555Y-110885303D01*
X174782524Y-110871327D01*
X174768548Y-110854296D01*
X174758160Y-110834860D01*
X174751764Y-110813779D01*
X174749000Y-110785711D01*
X174749000Y-110321991D01*
X174751764Y-110293923D01*
X174758160Y-110272842D01*
X174768548Y-110253406D01*
X174782524Y-110236375D01*
X174799555Y-110222399D01*
X174818991Y-110212011D01*
X174840072Y-110205615D01*
X174868140Y-110202851D01*
X176681860Y-110202851D01*
X176709928Y-110205615D01*
G37*
G36*
X171759928Y-110205615D02*
G01*
X171781009Y-110212011D01*
X171800445Y-110222399D01*
X171817476Y-110236375D01*
X171831452Y-110253406D01*
X171841840Y-110272842D01*
X171848236Y-110293923D01*
X171851000Y-110321991D01*
X171851000Y-110785711D01*
X171848236Y-110813779D01*
X171841840Y-110834860D01*
X171831452Y-110854296D01*
X171817476Y-110871327D01*
X171800445Y-110885303D01*
X171781009Y-110895691D01*
X171759928Y-110902087D01*
X171731860Y-110904851D01*
X169918140Y-110904851D01*
X169890072Y-110902087D01*
X169868991Y-110895691D01*
X169849555Y-110885303D01*
X169832524Y-110871327D01*
X169818548Y-110854296D01*
X169808160Y-110834860D01*
X169801764Y-110813779D01*
X169799000Y-110785711D01*
X169799000Y-110321991D01*
X169801764Y-110293923D01*
X169808160Y-110272842D01*
X169818548Y-110253406D01*
X169832524Y-110236375D01*
X169849555Y-110222399D01*
X169868991Y-110212011D01*
X169890072Y-110205615D01*
X169918140Y-110202851D01*
X171731860Y-110202851D01*
X171759928Y-110205615D01*
G37*
G36*
X165331000Y-110311000D02*
G01*
X164729000Y-110311000D01*
X164729000Y-109309000D01*
X165331000Y-109309000D01*
X165331000Y-110311000D01*
G37*
G36*
X166831000Y-110311000D02*
G01*
X166229000Y-110311000D01*
X166229000Y-109309000D01*
X166831000Y-109309000D01*
X166831000Y-110311000D01*
G37*
G36*
X176033648Y-108051319D02*
G01*
X176077182Y-108059978D01*
X176200206Y-108110936D01*
X176310925Y-108184916D01*
X176405084Y-108279075D01*
X176479064Y-108389794D01*
X176530022Y-108512818D01*
X176556000Y-108643420D01*
X176556000Y-108776580D01*
X176530022Y-108907182D01*
X176479064Y-109030206D01*
X176405084Y-109140925D01*
X176310925Y-109235084D01*
X176200206Y-109309064D01*
X176077182Y-109360022D01*
X176033648Y-109368681D01*
X175946582Y-109386000D01*
X175813418Y-109386000D01*
X175726352Y-109368681D01*
X175682818Y-109360022D01*
X175559794Y-109309064D01*
X175449075Y-109235084D01*
X175354916Y-109140925D01*
X175280936Y-109030206D01*
X175229978Y-108907182D01*
X175204000Y-108776580D01*
X175204000Y-108643420D01*
X175229978Y-108512818D01*
X175280936Y-108389794D01*
X175354916Y-108279075D01*
X175449075Y-108184916D01*
X175559794Y-108110936D01*
X175682818Y-108059978D01*
X175726352Y-108051319D01*
X175813418Y-108034000D01*
X175946582Y-108034000D01*
X176033648Y-108051319D01*
G37*
G36*
X165331000Y-108751000D02*
G01*
X164729000Y-108751000D01*
X164729000Y-107749000D01*
X165331000Y-107749000D01*
X165331000Y-108751000D01*
G37*
G36*
X166831000Y-108751000D02*
G01*
X166229000Y-108751000D01*
X166229000Y-107749000D01*
X166831000Y-107749000D01*
X166831000Y-108751000D01*
G37*
G36*
X172265423Y-104915490D02*
G01*
X171992233Y-105241065D01*
X171978402Y-105261284D01*
X171968778Y-105283819D01*
X171963736Y-105307799D01*
X171963469Y-105332301D01*
X171967987Y-105356385D01*
X171977117Y-105379125D01*
X171990507Y-105399647D01*
X172007644Y-105417162D01*
X172086548Y-105483370D01*
X172551537Y-105873542D01*
X172551536Y-105873543D01*
X172630440Y-105939751D01*
X172630452Y-105939759D01*
X172726196Y-106020098D01*
X173191185Y-106410270D01*
X173270088Y-106476478D01*
X173290313Y-106490313D01*
X173312848Y-106499937D01*
X173336828Y-106504979D01*
X173361330Y-106505246D01*
X173385414Y-106500728D01*
X173408154Y-106491598D01*
X173428676Y-106478208D01*
X173446186Y-106461076D01*
X173719376Y-106135501D01*
X174525255Y-106811714D01*
X173752624Y-107732499D01*
X172946745Y-107056286D01*
X172867842Y-106990078D01*
X172847617Y-106976243D01*
X172825082Y-106966619D01*
X172801102Y-106961577D01*
X172776600Y-106961310D01*
X172752516Y-106965828D01*
X172729776Y-106974958D01*
X172709254Y-106988348D01*
X172691743Y-107005481D01*
X172611390Y-107101242D01*
X172146401Y-106711070D01*
X172146402Y-106711069D01*
X172067498Y-106644861D01*
X172067486Y-106644853D01*
X171971742Y-106564514D01*
X171506753Y-106174342D01*
X171587108Y-106078579D01*
X171600938Y-106058361D01*
X171610562Y-106035826D01*
X171615604Y-106011846D01*
X171615871Y-105987344D01*
X171611353Y-105963260D01*
X171602224Y-105940520D01*
X171588833Y-105919998D01*
X171571696Y-105902483D01*
X171492792Y-105836275D01*
X170686913Y-105160062D01*
X171459544Y-104239277D01*
X172265423Y-104915490D01*
G37*
G36*
X162021000Y-94341000D02*
G01*
X161019000Y-94341000D01*
X161019000Y-93739000D01*
X162021000Y-93739000D01*
X162021000Y-94341000D01*
G37*
G36*
X163771000Y-94341000D02*
G01*
X162769000Y-94341000D01*
X162769000Y-93739000D01*
X163771000Y-93739000D01*
X163771000Y-94341000D01*
G37*
G36*
X165481000Y-94341000D02*
G01*
X164479000Y-94341000D01*
X164479000Y-93739000D01*
X165481000Y-93739000D01*
X165481000Y-94341000D01*
G37*
G36*
X167141000Y-94341000D02*
G01*
X166139000Y-94341000D01*
X166139000Y-93739000D01*
X167141000Y-93739000D01*
X167141000Y-94341000D01*
G37*
G36*
X168459313Y-90046934D02*
G01*
X168669487Y-90624382D01*
X168270118Y-90769741D01*
X168248024Y-90780339D01*
X168228422Y-90795043D01*
X168212065Y-90813289D01*
X168199582Y-90834375D01*
X168191453Y-90857492D01*
X168187990Y-90881750D01*
X168189326Y-90906217D01*
X168195409Y-90929954D01*
X168473471Y-91693926D01*
X168759057Y-92478570D01*
X168769655Y-92500664D01*
X168784359Y-92520266D01*
X168802605Y-92536623D01*
X168823691Y-92549106D01*
X168846807Y-92557235D01*
X168871065Y-92560698D01*
X168895533Y-92559362D01*
X168919270Y-92553279D01*
X169318641Y-92407920D01*
X169318642Y-92407920D01*
X169468273Y-92819028D01*
X169678447Y-93396476D01*
X168548937Y-93807584D01*
X168548936Y-93807584D01*
X168189131Y-92819028D01*
X168153903Y-92722239D01*
X168143305Y-92700145D01*
X168128601Y-92680543D01*
X168110355Y-92664186D01*
X168089269Y-92651703D01*
X168066152Y-92643574D01*
X168041894Y-92640111D01*
X168017427Y-92641447D01*
X167993690Y-92647530D01*
X167876227Y-92690283D01*
X167625869Y-92002429D01*
X167383035Y-91335246D01*
X167383035Y-91335245D01*
X167500499Y-91292492D01*
X167522590Y-91281895D01*
X167542192Y-91267191D01*
X167558549Y-91248945D01*
X167571032Y-91227859D01*
X167579161Y-91204742D01*
X167582624Y-91180484D01*
X167581288Y-91156017D01*
X167575205Y-91132280D01*
X167536793Y-91026743D01*
X167180171Y-90046934D01*
X168309681Y-89635826D01*
X168309682Y-89635826D01*
X168459313Y-90046934D01*
G37*
G36*
X167141000Y-92841000D02*
G01*
X166139000Y-92841000D01*
X166139000Y-92239000D01*
X167141000Y-92239000D01*
X167141000Y-92841000D01*
G37*
G36*
X163771000Y-92841000D02*
G01*
X162769000Y-92841000D01*
X162769000Y-92239000D01*
X163771000Y-92239000D01*
X163771000Y-92841000D01*
G37*
G36*
X165481000Y-92841000D02*
G01*
X164479000Y-92841000D01*
X164479000Y-92239000D01*
X165481000Y-92239000D01*
X165481000Y-92841000D01*
G37*
G36*
X162021000Y-92841000D02*
G01*
X161019000Y-92841000D01*
X161019000Y-92239000D01*
X162021000Y-92239000D01*
X162021000Y-92841000D01*
G37*
G36*
X154561000Y-90541000D02*
G01*
X153959000Y-90541000D01*
X153959000Y-89539000D01*
X154561000Y-89539000D01*
X154561000Y-90541000D01*
G37*
G36*
X156061000Y-90541000D02*
G01*
X155459000Y-90541000D01*
X155459000Y-89539000D01*
X156061000Y-89539000D01*
X156061000Y-90541000D01*
G37*
G36*
X157391000Y-88811000D02*
G01*
X156789000Y-88811000D01*
X156789000Y-87809000D01*
X157391000Y-87809000D01*
X157391000Y-88811000D01*
G37*
G36*
X158891000Y-88811000D02*
G01*
X158289000Y-88811000D01*
X158289000Y-87809000D01*
X158891000Y-87809000D01*
X158891000Y-88811000D01*
G37*
G36*
X153841000Y-88521000D02*
G01*
X153239000Y-88521000D01*
X153239000Y-87519000D01*
X153841000Y-87519000D01*
X153841000Y-88521000D01*
G37*
G36*
X155341000Y-88521000D02*
G01*
X154739000Y-88521000D01*
X154739000Y-87519000D01*
X155341000Y-87519000D01*
X155341000Y-88521000D01*
G37*
G36*
X158871000Y-87061000D02*
G01*
X158269000Y-87061000D01*
X158269000Y-86059000D01*
X158871000Y-86059000D01*
X158871000Y-87061000D01*
G37*
G36*
X157371000Y-87061000D02*
G01*
X156769000Y-87061000D01*
X156769000Y-86059000D01*
X157371000Y-86059000D01*
X157371000Y-87061000D01*
G37*
G36*
X155341000Y-86761000D02*
G01*
X154739000Y-86761000D01*
X154739000Y-85759000D01*
X155341000Y-85759000D01*
X155341000Y-86761000D01*
G37*
G36*
X153841000Y-86761000D02*
G01*
X153239000Y-86761000D01*
X153239000Y-85759000D01*
X153841000Y-85759000D01*
X153841000Y-86761000D01*
G37*
G36*
X166089892Y-76860050D02*
G01*
X165273183Y-77676760D01*
X165257638Y-77695702D01*
X165246087Y-77717313D01*
X165238974Y-77740762D01*
X165236572Y-77765148D01*
X165238974Y-77789534D01*
X165246087Y-77812983D01*
X165257638Y-77834594D01*
X165273178Y-77853530D01*
X165361572Y-77941924D01*
X164341924Y-78961572D01*
X164253530Y-78873178D01*
X164234594Y-78857638D01*
X164212983Y-78846087D01*
X164189534Y-78838974D01*
X164165148Y-78836572D01*
X164140762Y-78838974D01*
X164117313Y-78846087D01*
X164095702Y-78857638D01*
X164076760Y-78873183D01*
X163260050Y-79689892D01*
X162410108Y-78839950D01*
X163153984Y-78096074D01*
X163454506Y-78396596D01*
X163473448Y-78412141D01*
X163495059Y-78423692D01*
X163518508Y-78430805D01*
X163542894Y-78433207D01*
X163567280Y-78430805D01*
X163590729Y-78423692D01*
X163612340Y-78412141D01*
X163631282Y-78396596D01*
X163704115Y-78323763D01*
X163704114Y-78323762D01*
X164133328Y-77894548D01*
X164133329Y-77894549D01*
X164221716Y-77806161D01*
X164294549Y-77733329D01*
X164294548Y-77733328D01*
X164723762Y-77304114D01*
X164723763Y-77304115D01*
X164796596Y-77231282D01*
X164812141Y-77212340D01*
X164823692Y-77190729D01*
X164830805Y-77167280D01*
X164833207Y-77142894D01*
X164830805Y-77118508D01*
X164823692Y-77095059D01*
X164812141Y-77073448D01*
X164796596Y-77054506D01*
X164496074Y-76753984D01*
X165239950Y-76010108D01*
X166089892Y-76860050D01*
G37*
G36*
X170415533Y-74993203D02*
G01*
X169767858Y-75822190D01*
X169767857Y-75822190D01*
X169432952Y-75560533D01*
X169412257Y-75547413D01*
X169389400Y-75538581D01*
X169365259Y-75534379D01*
X169340761Y-75534967D01*
X169316850Y-75540323D01*
X169294443Y-75550240D01*
X169274401Y-75564339D01*
X169257495Y-75582077D01*
X168984639Y-75931316D01*
X168820374Y-76141566D01*
X168756960Y-76222731D01*
X168756952Y-76222743D01*
X168559126Y-76475948D01*
X168306297Y-76799555D01*
X168306296Y-76799555D01*
X168242883Y-76880720D01*
X168229762Y-76901415D01*
X168220930Y-76924272D01*
X168216728Y-76948413D01*
X168217316Y-76972910D01*
X168222672Y-76996822D01*
X168232589Y-77019229D01*
X168246688Y-77039271D01*
X168264426Y-77056178D01*
X168436643Y-77190729D01*
X168599331Y-77317835D01*
X167951656Y-78146822D01*
X167951655Y-78146822D01*
X167004467Y-77406797D01*
X167191598Y-77167280D01*
X167652142Y-76577810D01*
X167715557Y-76496643D01*
X167728677Y-76475948D01*
X167737509Y-76453090D01*
X167741711Y-76428949D01*
X167741123Y-76404452D01*
X167735767Y-76380541D01*
X167725850Y-76358134D01*
X167711751Y-76338092D01*
X167694020Y-76321192D01*
X167595511Y-76244228D01*
X167595511Y-76244227D01*
X167778425Y-76010108D01*
X167969217Y-75765905D01*
X167969218Y-75765905D01*
X168032631Y-75684740D01*
X168032639Y-75684728D01*
X168483294Y-75107916D01*
X168581797Y-75184875D01*
X168602492Y-75197996D01*
X168625349Y-75206828D01*
X168649490Y-75211030D01*
X168673987Y-75210442D01*
X168697899Y-75205086D01*
X168720306Y-75195169D01*
X168740348Y-75181070D01*
X168757255Y-75163332D01*
X168820669Y-75082165D01*
X169468344Y-74253178D01*
X169468345Y-74253178D01*
X170415533Y-74993203D01*
G37*
M02*
