G04 #@! TF.GenerationSoftware,KiCad,Pcbnew,5.1.6-c6e7f7d~87~ubuntu18.04.1*
G04 #@! TF.CreationDate,2020-08-06T21:04:51-07:00*
G04 #@! TF.ProjectId,scythe_badge,73637974-6865-45f6-9261-6467652e6b69,rev?*
G04 #@! TF.SameCoordinates,Original*
G04 #@! TF.FileFunction,Legend,Bot*
G04 #@! TF.FilePolarity,Positive*
%FSLAX46Y46*%
G04 Gerber Fmt 4.6, Leading zero omitted, Abs format (unit mm)*
G04 Created by KiCad (PCBNEW 5.1.6-c6e7f7d~87~ubuntu18.04.1) date 2020-08-06 21:04:51*
%MOMM*%
%LPD*%
G01*
G04 APERTURE LIST*
%ADD10C,0.300000*%
%ADD11C,0.010000*%
%ADD12C,0.120000*%
%ADD13C,0.100000*%
%ADD14C,0.700000*%
%ADD15C,0.150000*%
G04 APERTURE END LIST*
D10*
X165840762Y-98234668D02*
X166345838Y-99143805D01*
X165638732Y-98840760D01*
X165941777Y-99547866D01*
X165032640Y-99042790D01*
X164729594Y-99345836D02*
X165234671Y-100254973D01*
X164527564Y-99951927D01*
X164830610Y-100659034D01*
X163921472Y-100153958D01*
X163618427Y-100457004D02*
X164123503Y-101366141D01*
X163416396Y-101063095D01*
X163719442Y-101770202D01*
X162810305Y-101265126D01*
X163012335Y-102275278D02*
X163012335Y-102376294D01*
X163113350Y-102376294D01*
X163113350Y-102275278D01*
X163012335Y-102275278D01*
X163113350Y-102376294D01*
X162608274Y-102780355D02*
X162557766Y-102931877D01*
X162355736Y-103133908D01*
X162204213Y-103184416D01*
X162052690Y-103133908D01*
X162002183Y-103083400D01*
X161951675Y-102931877D01*
X162002183Y-102780355D01*
X162153705Y-102628832D01*
X162204213Y-102477309D01*
X162153705Y-102325786D01*
X162103198Y-102275278D01*
X161951675Y-102224771D01*
X161800152Y-102275278D01*
X161648629Y-102426801D01*
X161598122Y-102578324D01*
X161244568Y-104144061D02*
X161396091Y-104093553D01*
X161598122Y-103891522D01*
X161648629Y-103739999D01*
X161648629Y-103638984D01*
X161598122Y-103487461D01*
X161295076Y-103184416D01*
X161143553Y-103133908D01*
X161042538Y-103133908D01*
X160891015Y-103184416D01*
X160688984Y-103386446D01*
X160638477Y-103537969D01*
X160234416Y-103841015D02*
X160688984Y-104800660D01*
X159729339Y-104346091D02*
X160688984Y-104800660D01*
X161042538Y-104952183D01*
X161143553Y-104952183D01*
X161295076Y-104901675D01*
X159476801Y-104598629D02*
X159072740Y-105002690D01*
X158971725Y-104396599D02*
X159880862Y-105305736D01*
X159931370Y-105457259D01*
X159880862Y-105608782D01*
X159779847Y-105709797D01*
X159426294Y-106063350D02*
X158365633Y-105002690D01*
X158971725Y-106517919D02*
X158416141Y-105962335D01*
X158365633Y-105810812D01*
X158416141Y-105659289D01*
X158567664Y-105507766D01*
X158719187Y-105457259D01*
X158820202Y-105457259D01*
X158012080Y-107376549D02*
X158163603Y-107326041D01*
X158365633Y-107124011D01*
X158416141Y-106972488D01*
X158365633Y-106820965D01*
X157961572Y-106416904D01*
X157810049Y-106366396D01*
X157658527Y-106416904D01*
X157456496Y-106618934D01*
X157405988Y-106770457D01*
X157456496Y-106921980D01*
X157557511Y-107022995D01*
X158163603Y-106618934D01*
X157456496Y-107831117D02*
X157456496Y-107932133D01*
X157557511Y-107932133D01*
X157557511Y-107831117D01*
X157456496Y-107831117D01*
X157557511Y-107932133D01*
X157052435Y-108437209D02*
X156345328Y-107730102D01*
X155991775Y-107376549D02*
X156092790Y-107376549D01*
X156092790Y-107477564D01*
X155991775Y-107477564D01*
X155991775Y-107376549D01*
X156092790Y-107477564D01*
X156395836Y-109093808D02*
X156446344Y-108942285D01*
X156446344Y-108841270D01*
X156395836Y-108689747D01*
X156092790Y-108386701D01*
X155941267Y-108336194D01*
X155840252Y-108336194D01*
X155688729Y-108386701D01*
X155537206Y-108538224D01*
X155486699Y-108689747D01*
X155486699Y-108790762D01*
X155537206Y-108942285D01*
X155840252Y-109245331D01*
X155991775Y-109295838D01*
X156092790Y-109295838D01*
X156244313Y-109245331D01*
X156395836Y-109093808D01*
D11*
G36*
X147280100Y-85960105D02*
G01*
X147556809Y-86039148D01*
X147796764Y-86190404D01*
X147872792Y-86260231D01*
X148035809Y-86477634D01*
X148137620Y-86730773D01*
X148179772Y-87003442D01*
X148163807Y-87279437D01*
X148091271Y-87542555D01*
X147963707Y-87776589D01*
X147782662Y-87965336D01*
X147705180Y-88018779D01*
X147608074Y-88075682D01*
X147549060Y-88093322D01*
X147493460Y-88075718D01*
X147445500Y-88048869D01*
X147319233Y-87942572D01*
X147261809Y-87798830D01*
X147255311Y-87719000D01*
X147217491Y-87398574D01*
X147111917Y-87125499D01*
X146933680Y-86890709D01*
X146705368Y-86703476D01*
X146513180Y-86560959D01*
X146394275Y-86441495D01*
X146343100Y-86337259D01*
X146354100Y-86240430D01*
X146363191Y-86221415D01*
X146480788Y-86090670D01*
X146670192Y-86000820D01*
X146928318Y-85953265D01*
X146959281Y-85950782D01*
X147280100Y-85960105D01*
G37*
X147280100Y-85960105D02*
X147556809Y-86039148D01*
X147796764Y-86190404D01*
X147872792Y-86260231D01*
X148035809Y-86477634D01*
X148137620Y-86730773D01*
X148179772Y-87003442D01*
X148163807Y-87279437D01*
X148091271Y-87542555D01*
X147963707Y-87776589D01*
X147782662Y-87965336D01*
X147705180Y-88018779D01*
X147608074Y-88075682D01*
X147549060Y-88093322D01*
X147493460Y-88075718D01*
X147445500Y-88048869D01*
X147319233Y-87942572D01*
X147261809Y-87798830D01*
X147255311Y-87719000D01*
X147217491Y-87398574D01*
X147111917Y-87125499D01*
X146933680Y-86890709D01*
X146705368Y-86703476D01*
X146513180Y-86560959D01*
X146394275Y-86441495D01*
X146343100Y-86337259D01*
X146354100Y-86240430D01*
X146363191Y-86221415D01*
X146480788Y-86090670D01*
X146670192Y-86000820D01*
X146928318Y-85953265D01*
X146959281Y-85950782D01*
X147280100Y-85960105D01*
G36*
X161055097Y-82871556D02*
G01*
X161086493Y-83005266D01*
X161097619Y-83218423D01*
X161098000Y-83283089D01*
X161098000Y-83656245D01*
X161235173Y-83739665D01*
X161347013Y-83791374D01*
X161507074Y-83846020D01*
X161676397Y-83890730D01*
X161837386Y-83931725D01*
X161972937Y-83975497D01*
X162054939Y-84012907D01*
X162057245Y-84014531D01*
X162107806Y-84059472D01*
X162101435Y-84102318D01*
X162053070Y-84160160D01*
X161967384Y-84221953D01*
X161834278Y-84284578D01*
X161737630Y-84317796D01*
X161566004Y-84353392D01*
X161354618Y-84376867D01*
X161132985Y-84387015D01*
X160930619Y-84382625D01*
X160777034Y-84362492D01*
X160759333Y-84357838D01*
X160653500Y-84327026D01*
X160756888Y-84410084D01*
X160866671Y-84476882D01*
X161005190Y-84535382D01*
X161032055Y-84543913D01*
X161209498Y-84614299D01*
X161304589Y-84693548D01*
X161316852Y-84777506D01*
X161245811Y-84862018D01*
X161090991Y-84942929D01*
X161078335Y-84947843D01*
X160904889Y-84988981D01*
X160686788Y-85005494D01*
X160454456Y-84998552D01*
X160238317Y-84969325D01*
X160068795Y-84918984D01*
X160046316Y-84908157D01*
X159951190Y-84864404D01*
X159893255Y-84849035D01*
X159888062Y-84850827D01*
X159900236Y-84891597D01*
X159950751Y-84973952D01*
X159976663Y-85010340D01*
X160063507Y-85162691D01*
X160074831Y-85277884D01*
X160012714Y-85352626D01*
X159879236Y-85383621D01*
X159744857Y-85377572D01*
X159456492Y-85304854D01*
X159194553Y-85155277D01*
X159136835Y-85109544D01*
X159021863Y-85041232D01*
X158903753Y-85009884D01*
X158895445Y-85009667D01*
X158773721Y-85009667D01*
X158842064Y-85194066D01*
X158887220Y-85361254D01*
X158875202Y-85466374D01*
X158805367Y-85509940D01*
X158677071Y-85492463D01*
X158536833Y-85437170D01*
X158429414Y-85373039D01*
X158285625Y-85268165D01*
X158129813Y-85140811D01*
X158063089Y-85081786D01*
X157881638Y-84923185D01*
X157675047Y-84752221D01*
X157482142Y-84600853D01*
X157445236Y-84573238D01*
X157127480Y-84306245D01*
X156889759Y-84035127D01*
X156733440Y-83761924D01*
X156659886Y-83488676D01*
X156653930Y-83390417D01*
X156664693Y-83261955D01*
X156703965Y-83191060D01*
X156780034Y-83177191D01*
X156901190Y-83219812D01*
X157075721Y-83318383D01*
X157139833Y-83358851D01*
X157438463Y-83520934D01*
X157768608Y-83639911D01*
X158151414Y-83722872D01*
X158283473Y-83742305D01*
X158708981Y-83774882D01*
X159122927Y-83760552D01*
X159509281Y-83701782D01*
X159852015Y-83601043D01*
X160135099Y-83460805D01*
X160142754Y-83455848D01*
X160250980Y-83376032D01*
X160394096Y-83258196D01*
X160546573Y-83123633D01*
X160596162Y-83077713D01*
X160773965Y-82920371D01*
X160905366Y-82831782D01*
X160996899Y-82814620D01*
X161055097Y-82871556D01*
G37*
X161055097Y-82871556D02*
X161086493Y-83005266D01*
X161097619Y-83218423D01*
X161098000Y-83283089D01*
X161098000Y-83656245D01*
X161235173Y-83739665D01*
X161347013Y-83791374D01*
X161507074Y-83846020D01*
X161676397Y-83890730D01*
X161837386Y-83931725D01*
X161972937Y-83975497D01*
X162054939Y-84012907D01*
X162057245Y-84014531D01*
X162107806Y-84059472D01*
X162101435Y-84102318D01*
X162053070Y-84160160D01*
X161967384Y-84221953D01*
X161834278Y-84284578D01*
X161737630Y-84317796D01*
X161566004Y-84353392D01*
X161354618Y-84376867D01*
X161132985Y-84387015D01*
X160930619Y-84382625D01*
X160777034Y-84362492D01*
X160759333Y-84357838D01*
X160653500Y-84327026D01*
X160756888Y-84410084D01*
X160866671Y-84476882D01*
X161005190Y-84535382D01*
X161032055Y-84543913D01*
X161209498Y-84614299D01*
X161304589Y-84693548D01*
X161316852Y-84777506D01*
X161245811Y-84862018D01*
X161090991Y-84942929D01*
X161078335Y-84947843D01*
X160904889Y-84988981D01*
X160686788Y-85005494D01*
X160454456Y-84998552D01*
X160238317Y-84969325D01*
X160068795Y-84918984D01*
X160046316Y-84908157D01*
X159951190Y-84864404D01*
X159893255Y-84849035D01*
X159888062Y-84850827D01*
X159900236Y-84891597D01*
X159950751Y-84973952D01*
X159976663Y-85010340D01*
X160063507Y-85162691D01*
X160074831Y-85277884D01*
X160012714Y-85352626D01*
X159879236Y-85383621D01*
X159744857Y-85377572D01*
X159456492Y-85304854D01*
X159194553Y-85155277D01*
X159136835Y-85109544D01*
X159021863Y-85041232D01*
X158903753Y-85009884D01*
X158895445Y-85009667D01*
X158773721Y-85009667D01*
X158842064Y-85194066D01*
X158887220Y-85361254D01*
X158875202Y-85466374D01*
X158805367Y-85509940D01*
X158677071Y-85492463D01*
X158536833Y-85437170D01*
X158429414Y-85373039D01*
X158285625Y-85268165D01*
X158129813Y-85140811D01*
X158063089Y-85081786D01*
X157881638Y-84923185D01*
X157675047Y-84752221D01*
X157482142Y-84600853D01*
X157445236Y-84573238D01*
X157127480Y-84306245D01*
X156889759Y-84035127D01*
X156733440Y-83761924D01*
X156659886Y-83488676D01*
X156653930Y-83390417D01*
X156664693Y-83261955D01*
X156703965Y-83191060D01*
X156780034Y-83177191D01*
X156901190Y-83219812D01*
X157075721Y-83318383D01*
X157139833Y-83358851D01*
X157438463Y-83520934D01*
X157768608Y-83639911D01*
X158151414Y-83722872D01*
X158283473Y-83742305D01*
X158708981Y-83774882D01*
X159122927Y-83760552D01*
X159509281Y-83701782D01*
X159852015Y-83601043D01*
X160135099Y-83460805D01*
X160142754Y-83455848D01*
X160250980Y-83376032D01*
X160394096Y-83258196D01*
X160546573Y-83123633D01*
X160596162Y-83077713D01*
X160773965Y-82920371D01*
X160905366Y-82831782D01*
X160996899Y-82814620D01*
X161055097Y-82871556D01*
D12*
X165960000Y-92790000D02*
X165960000Y-93790000D01*
X167320000Y-93790000D02*
X167320000Y-92790000D01*
X173300000Y-118798851D02*
X169850000Y-118798851D01*
X173300000Y-118798851D02*
X175250000Y-118798851D01*
X173300000Y-109928851D02*
X171350000Y-109928851D01*
X173300000Y-109928851D02*
X175250000Y-109928851D01*
X174130000Y-121390000D02*
X172130000Y-121390000D01*
X172130000Y-119350000D02*
X174130000Y-119350000D01*
D13*
X176409936Y-123437338D02*
X176507138Y-123228887D01*
X176764935Y-122676039D02*
X176857911Y-122476652D01*
X177115708Y-121923804D02*
X177212910Y-121715353D01*
X177168230Y-123846105D02*
G75*
G03*
X178013466Y-122033489I413555J910534D01*
G01*
D14*
X162060000Y-131446000D02*
X157234000Y-131446000D01*
X171879640Y-131395200D02*
X167140000Y-131395200D01*
X157234000Y-131446000D02*
X157234000Y-139828000D01*
X157234000Y-139828000D02*
X171966000Y-139828000D01*
X171966000Y-139828000D02*
X171966000Y-131446000D01*
D13*
X166627229Y-127616264D02*
X166451039Y-127764105D01*
X167263046Y-127082750D02*
X167094516Y-127224164D01*
X167906523Y-126542809D02*
X167730333Y-126690650D01*
X167392028Y-125851871D02*
G75*
G03*
X165859939Y-127137446I-759617J-650448D01*
G01*
X173173129Y-106788047D02*
X172996939Y-106640206D01*
X172529652Y-106248106D02*
X172361122Y-106106692D01*
X171893835Y-105714592D02*
X171717645Y-105566751D01*
X173764230Y-106161388D02*
G75*
G03*
X172232140Y-104875813I-772473J635127D01*
G01*
X163917660Y-78535894D02*
X163755025Y-78698528D01*
X164504558Y-77948995D02*
X164348995Y-78104558D01*
X165098528Y-77355025D02*
X164935894Y-77517660D01*
X164525772Y-76711558D02*
G75*
G03*
X163111558Y-78125772I-700036J-714178D01*
G01*
X168956274Y-75478717D02*
X169097876Y-75297474D01*
X168445275Y-76132766D02*
X168580720Y-75959403D01*
X167928119Y-76794695D02*
X168069721Y-76613452D01*
X168575024Y-77363564D02*
G75*
G03*
X169806348Y-75787543I607782J794167D01*
G01*
X168519305Y-92699918D02*
X168440640Y-92483789D01*
X168232008Y-91910576D02*
X168156764Y-91703844D01*
X167948131Y-91130631D02*
X167869467Y-90914502D01*
X169344543Y-92452765D02*
G75*
G03*
X168660501Y-90573380I-351418J936272D01*
G01*
D12*
X170996000Y-124644000D02*
X169996000Y-124644000D01*
X169996000Y-126004000D02*
X170996000Y-126004000D01*
X165280000Y-110490000D02*
X166280000Y-110490000D01*
X166280000Y-109130000D02*
X165280000Y-109130000D01*
X158320000Y-85880000D02*
X157320000Y-85880000D01*
X157320000Y-87240000D02*
X158320000Y-87240000D01*
X174060000Y-126004000D02*
X175060000Y-126004000D01*
X175060000Y-124644000D02*
X174060000Y-124644000D01*
X169976000Y-127916000D02*
X170976000Y-127916000D01*
X170976000Y-126556000D02*
X169976000Y-126556000D01*
X166280000Y-110690000D02*
X165280000Y-110690000D01*
X165280000Y-112050000D02*
X166280000Y-112050000D01*
X153790000Y-88700000D02*
X154790000Y-88700000D01*
X154790000Y-87340000D02*
X153790000Y-87340000D01*
X175040000Y-126556000D02*
X174040000Y-126556000D01*
X174040000Y-127916000D02*
X175040000Y-127916000D01*
X170934000Y-128352000D02*
X169934000Y-128352000D01*
X169934000Y-129712000D02*
X170934000Y-129712000D01*
X165280000Y-108930000D02*
X166280000Y-108930000D01*
X166280000Y-107570000D02*
X165280000Y-107570000D01*
X160840000Y-92790000D02*
X160840000Y-93790000D01*
X162200000Y-93790000D02*
X162200000Y-92790000D01*
X174520000Y-122050000D02*
X173520000Y-122050000D01*
X173520000Y-123410000D02*
X174520000Y-123410000D01*
X157340000Y-88990000D02*
X158340000Y-88990000D01*
X158340000Y-87630000D02*
X157340000Y-87630000D01*
X154790000Y-85580000D02*
X153790000Y-85580000D01*
X153790000Y-86940000D02*
X154790000Y-86940000D01*
X154510000Y-90720000D02*
X155510000Y-90720000D01*
X155510000Y-89360000D02*
X154510000Y-89360000D01*
X162590000Y-92790000D02*
X162590000Y-93790000D01*
X163950000Y-93790000D02*
X163950000Y-92790000D01*
X164300000Y-92790000D02*
X164300000Y-93790000D01*
X165660000Y-93790000D02*
X165660000Y-92790000D01*
D15*
X166992380Y-89857142D02*
X166516190Y-89523809D01*
X166992380Y-89285714D02*
X165992380Y-89285714D01*
X165992380Y-89666666D01*
X166040000Y-89761904D01*
X166087619Y-89809523D01*
X166182857Y-89857142D01*
X166325714Y-89857142D01*
X166420952Y-89809523D01*
X166468571Y-89761904D01*
X166516190Y-89666666D01*
X166516190Y-89285714D01*
X166992380Y-90809523D02*
X166992380Y-90238095D01*
X166992380Y-90523809D02*
X165992380Y-90523809D01*
X166135238Y-90428571D01*
X166230476Y-90333333D01*
X166278095Y-90238095D01*
X166325714Y-91666666D02*
X166992380Y-91666666D01*
X165944761Y-91428571D02*
X166659047Y-91190476D01*
X166659047Y-91809523D01*
X174061904Y-113822380D02*
X174061904Y-114631904D01*
X174014285Y-114727142D01*
X173966666Y-114774761D01*
X173871428Y-114822380D01*
X173680952Y-114822380D01*
X173585714Y-114774761D01*
X173538095Y-114727142D01*
X173490476Y-114631904D01*
X173490476Y-113822380D01*
X172490476Y-114822380D02*
X173061904Y-114822380D01*
X172776190Y-114822380D02*
X172776190Y-113822380D01*
X172871428Y-113965238D01*
X172966666Y-114060476D01*
X173061904Y-114108095D01*
X170146666Y-120827142D02*
X170194285Y-120874761D01*
X170337142Y-120922380D01*
X170432380Y-120922380D01*
X170575238Y-120874761D01*
X170670476Y-120779523D01*
X170718095Y-120684285D01*
X170765714Y-120493809D01*
X170765714Y-120350952D01*
X170718095Y-120160476D01*
X170670476Y-120065238D01*
X170575238Y-119970000D01*
X170432380Y-119922380D01*
X170337142Y-119922380D01*
X170194285Y-119970000D01*
X170146666Y-120017619D01*
X169194285Y-120922380D02*
X169765714Y-120922380D01*
X169480000Y-120922380D02*
X169480000Y-119922380D01*
X169575238Y-120065238D01*
X169670476Y-120160476D01*
X169765714Y-120208095D01*
X178631928Y-119162243D02*
X177725621Y-118739625D01*
X177624997Y-118955413D01*
X177607781Y-119105010D01*
X177653846Y-119231574D01*
X177720037Y-119314981D01*
X177872542Y-119438638D01*
X178002015Y-119499012D01*
X178194769Y-119536353D01*
X178301209Y-119533445D01*
X178427773Y-119487379D01*
X178531305Y-119378031D01*
X178631928Y-119162243D01*
X177423983Y-120175223D02*
X178028188Y-120456969D01*
X177179346Y-119798438D02*
X177927332Y-119884521D01*
X177665711Y-120445569D01*
X160659523Y-134802380D02*
X159992857Y-135802380D01*
X159992857Y-134802380D02*
X160659523Y-135802380D01*
X159088095Y-135802380D02*
X159659523Y-135802380D01*
X159373809Y-135802380D02*
X159373809Y-134802380D01*
X159469047Y-134945238D01*
X159564285Y-135040476D01*
X159659523Y-135088095D01*
X169644142Y-138183000D02*
X169715571Y-138147285D01*
X169822714Y-138147285D01*
X169929857Y-138183000D01*
X170001285Y-138254428D01*
X170037000Y-138325857D01*
X170072714Y-138468714D01*
X170072714Y-138575857D01*
X170037000Y-138718714D01*
X170001285Y-138790142D01*
X169929857Y-138861571D01*
X169822714Y-138897285D01*
X169751285Y-138897285D01*
X169644142Y-138861571D01*
X169608428Y-138825857D01*
X169608428Y-138575857D01*
X169751285Y-138575857D01*
X169287000Y-138897285D02*
X169287000Y-138147285D01*
X169001285Y-138147285D01*
X168929857Y-138183000D01*
X168894142Y-138218714D01*
X168858428Y-138290142D01*
X168858428Y-138397285D01*
X168894142Y-138468714D01*
X168929857Y-138504428D01*
X169001285Y-138540142D01*
X169287000Y-138540142D01*
X168537000Y-138897285D02*
X168537000Y-138147285D01*
X168037000Y-138147285D02*
X167894142Y-138147285D01*
X167822714Y-138183000D01*
X167751285Y-138254428D01*
X167715571Y-138397285D01*
X167715571Y-138647285D01*
X167751285Y-138790142D01*
X167822714Y-138861571D01*
X167894142Y-138897285D01*
X168037000Y-138897285D01*
X168108428Y-138861571D01*
X168179857Y-138790142D01*
X168215571Y-138647285D01*
X168215571Y-138397285D01*
X168179857Y-138254428D01*
X168108428Y-138183000D01*
X168037000Y-138147285D01*
X167429857Y-138218714D02*
X167394142Y-138183000D01*
X167322714Y-138147285D01*
X167144142Y-138147285D01*
X167072714Y-138183000D01*
X167037000Y-138218714D01*
X167001285Y-138290142D01*
X167001285Y-138361571D01*
X167037000Y-138468714D01*
X167465571Y-138897285D01*
X167001285Y-138897285D01*
X165492857Y-138861571D02*
X165385714Y-138897285D01*
X165207142Y-138897285D01*
X165135714Y-138861571D01*
X165100000Y-138825857D01*
X165064285Y-138754428D01*
X165064285Y-138683000D01*
X165100000Y-138611571D01*
X165135714Y-138575857D01*
X165207142Y-138540142D01*
X165350000Y-138504428D01*
X165421428Y-138468714D01*
X165457142Y-138433000D01*
X165492857Y-138361571D01*
X165492857Y-138290142D01*
X165457142Y-138218714D01*
X165421428Y-138183000D01*
X165350000Y-138147285D01*
X165171428Y-138147285D01*
X165064285Y-138183000D01*
X164314285Y-138825857D02*
X164350000Y-138861571D01*
X164457142Y-138897285D01*
X164528571Y-138897285D01*
X164635714Y-138861571D01*
X164707142Y-138790142D01*
X164742857Y-138718714D01*
X164778571Y-138575857D01*
X164778571Y-138468714D01*
X164742857Y-138325857D01*
X164707142Y-138254428D01*
X164635714Y-138183000D01*
X164528571Y-138147285D01*
X164457142Y-138147285D01*
X164350000Y-138183000D01*
X164314285Y-138218714D01*
X163635714Y-138897285D02*
X163992857Y-138897285D01*
X163992857Y-138147285D01*
X162631428Y-138183000D02*
X162702857Y-138147285D01*
X162810000Y-138147285D01*
X162917142Y-138183000D01*
X162988571Y-138254428D01*
X163024285Y-138325857D01*
X163060000Y-138468714D01*
X163060000Y-138575857D01*
X163024285Y-138718714D01*
X162988571Y-138790142D01*
X162917142Y-138861571D01*
X162810000Y-138897285D01*
X162738571Y-138897285D01*
X162631428Y-138861571D01*
X162595714Y-138825857D01*
X162595714Y-138575857D01*
X162738571Y-138575857D01*
X162274285Y-138897285D02*
X162274285Y-138147285D01*
X161845714Y-138897285D01*
X161845714Y-138147285D01*
X161488571Y-138897285D02*
X161488571Y-138147285D01*
X161310000Y-138147285D01*
X161202857Y-138183000D01*
X161131428Y-138254428D01*
X161095714Y-138325857D01*
X161060000Y-138468714D01*
X161060000Y-138575857D01*
X161095714Y-138718714D01*
X161131428Y-138790142D01*
X161202857Y-138861571D01*
X161310000Y-138897285D01*
X161488571Y-138897285D01*
X169644142Y-132341000D02*
X169715571Y-132305285D01*
X169822714Y-132305285D01*
X169929857Y-132341000D01*
X170001285Y-132412428D01*
X170037000Y-132483857D01*
X170072714Y-132626714D01*
X170072714Y-132733857D01*
X170037000Y-132876714D01*
X170001285Y-132948142D01*
X169929857Y-133019571D01*
X169822714Y-133055285D01*
X169751285Y-133055285D01*
X169644142Y-133019571D01*
X169608428Y-132983857D01*
X169608428Y-132733857D01*
X169751285Y-132733857D01*
X169287000Y-133055285D02*
X169287000Y-132305285D01*
X169001285Y-132305285D01*
X168929857Y-132341000D01*
X168894142Y-132376714D01*
X168858428Y-132448142D01*
X168858428Y-132555285D01*
X168894142Y-132626714D01*
X168929857Y-132662428D01*
X169001285Y-132698142D01*
X169287000Y-132698142D01*
X168537000Y-133055285D02*
X168537000Y-132305285D01*
X168037000Y-132305285D02*
X167894142Y-132305285D01*
X167822714Y-132341000D01*
X167751285Y-132412428D01*
X167715571Y-132555285D01*
X167715571Y-132805285D01*
X167751285Y-132948142D01*
X167822714Y-133019571D01*
X167894142Y-133055285D01*
X168037000Y-133055285D01*
X168108428Y-133019571D01*
X168179857Y-132948142D01*
X168215571Y-132805285D01*
X168215571Y-132555285D01*
X168179857Y-132412428D01*
X168108428Y-132341000D01*
X168037000Y-132305285D01*
X167001285Y-133055285D02*
X167429857Y-133055285D01*
X167215571Y-133055285D02*
X167215571Y-132305285D01*
X167287000Y-132412428D01*
X167358428Y-132483857D01*
X167429857Y-132519571D01*
X165510714Y-133019571D02*
X165403571Y-133055285D01*
X165225000Y-133055285D01*
X165153571Y-133019571D01*
X165117857Y-132983857D01*
X165082142Y-132912428D01*
X165082142Y-132841000D01*
X165117857Y-132769571D01*
X165153571Y-132733857D01*
X165225000Y-132698142D01*
X165367857Y-132662428D01*
X165439285Y-132626714D01*
X165475000Y-132591000D01*
X165510714Y-132519571D01*
X165510714Y-132448142D01*
X165475000Y-132376714D01*
X165439285Y-132341000D01*
X165367857Y-132305285D01*
X165189285Y-132305285D01*
X165082142Y-132341000D01*
X164760714Y-133055285D02*
X164760714Y-132305285D01*
X164582142Y-132305285D01*
X164475000Y-132341000D01*
X164403571Y-132412428D01*
X164367857Y-132483857D01*
X164332142Y-132626714D01*
X164332142Y-132733857D01*
X164367857Y-132876714D01*
X164403571Y-132948142D01*
X164475000Y-133019571D01*
X164582142Y-133055285D01*
X164760714Y-133055285D01*
X164046428Y-132841000D02*
X163689285Y-132841000D01*
X164117857Y-133055285D02*
X163867857Y-132305285D01*
X163617857Y-133055285D01*
X163060000Y-132305285D02*
X162810000Y-133055285D01*
X162560000Y-132305285D01*
X161881428Y-132983857D02*
X161917142Y-133019571D01*
X162024285Y-133055285D01*
X162095714Y-133055285D01*
X162202857Y-133019571D01*
X162274285Y-132948142D01*
X162310000Y-132876714D01*
X162345714Y-132733857D01*
X162345714Y-132626714D01*
X162310000Y-132483857D01*
X162274285Y-132412428D01*
X162202857Y-132341000D01*
X162095714Y-132305285D01*
X162024285Y-132305285D01*
X161917142Y-132341000D01*
X161881428Y-132376714D01*
X161131428Y-132983857D02*
X161167142Y-133019571D01*
X161274285Y-133055285D01*
X161345714Y-133055285D01*
X161452857Y-133019571D01*
X161524285Y-132948142D01*
X161560000Y-132876714D01*
X161595714Y-132733857D01*
X161595714Y-132626714D01*
X161560000Y-132483857D01*
X161524285Y-132412428D01*
X161452857Y-132341000D01*
X161345714Y-132305285D01*
X161274285Y-132305285D01*
X161167142Y-132341000D01*
X161131428Y-132376714D01*
X177833333Y-108512380D02*
X177833333Y-109226666D01*
X177880952Y-109369523D01*
X177976190Y-109464761D01*
X178119047Y-109512380D01*
X178214285Y-109512380D01*
X176833333Y-109512380D02*
X177404761Y-109512380D01*
X177119047Y-109512380D02*
X177119047Y-108512380D01*
X177214285Y-108655238D01*
X177309523Y-108750476D01*
X177404761Y-108798095D01*
X165448198Y-128679939D02*
X164805411Y-127913894D01*
X164623019Y-128066939D01*
X164544193Y-128195244D01*
X164532454Y-128329419D01*
X164557194Y-128432984D01*
X164643151Y-128609506D01*
X164734978Y-128718941D01*
X164893892Y-128834246D01*
X164991588Y-128876593D01*
X165125763Y-128888332D01*
X165265807Y-128832984D01*
X165448198Y-128679939D01*
X164280892Y-129659425D02*
X164718632Y-129292118D01*
X164499762Y-129475771D02*
X163856975Y-128709727D01*
X164021758Y-128757944D01*
X164155932Y-128769683D01*
X164259498Y-128744943D01*
X171691555Y-108224052D02*
X172334343Y-107458007D01*
X172151951Y-107304963D01*
X172011908Y-107249614D01*
X171877733Y-107261353D01*
X171780037Y-107303701D01*
X171621123Y-107419005D01*
X171529296Y-107528440D01*
X171443339Y-107704962D01*
X171418599Y-107808528D01*
X171430338Y-107942702D01*
X171509164Y-108071007D01*
X171691555Y-108224052D01*
X171543559Y-106918785D02*
X171537690Y-106851698D01*
X171495342Y-106754002D01*
X171312950Y-106600957D01*
X171209385Y-106576218D01*
X171142298Y-106582087D01*
X171044601Y-106624435D01*
X170983384Y-106697391D01*
X170928035Y-106837435D01*
X170998468Y-107642482D01*
X170524250Y-107244566D01*
X166399941Y-78956117D02*
X165692835Y-78249010D01*
X165524476Y-78417369D01*
X165457132Y-78552056D01*
X165457132Y-78686743D01*
X165490804Y-78787758D01*
X165591819Y-78956117D01*
X165692835Y-79057132D01*
X165861193Y-79158148D01*
X165962209Y-79191819D01*
X166096896Y-79191819D01*
X166231583Y-79124476D01*
X166399941Y-78956117D01*
X165053071Y-78888773D02*
X164615338Y-79326506D01*
X165120415Y-79360178D01*
X165019399Y-79461193D01*
X164985728Y-79562209D01*
X164985728Y-79629552D01*
X165019399Y-79730567D01*
X165187758Y-79898926D01*
X165288773Y-79932598D01*
X165356117Y-79932598D01*
X165457132Y-79898926D01*
X165659163Y-79696896D01*
X165692835Y-79595880D01*
X165692835Y-79528537D01*
X168063077Y-74757912D02*
X167275067Y-74142251D01*
X167128481Y-74329872D01*
X167078053Y-74471762D01*
X167094467Y-74605445D01*
X167140199Y-74701604D01*
X167260979Y-74856397D01*
X167373552Y-74944349D01*
X167552966Y-75024094D01*
X167657332Y-75045204D01*
X167791015Y-75028789D01*
X167916491Y-74945534D01*
X168063077Y-74757912D01*
X166366233Y-75305505D02*
X166659405Y-74930261D01*
X167063966Y-75185909D01*
X166997124Y-75194116D01*
X166900965Y-75239848D01*
X166754379Y-75427469D01*
X166733269Y-75531835D01*
X166741476Y-75598677D01*
X166787208Y-75694835D01*
X166974829Y-75841421D01*
X167079195Y-75862532D01*
X167146037Y-75854324D01*
X167242195Y-75808593D01*
X167388781Y-75620971D01*
X167409892Y-75516606D01*
X167401684Y-75449764D01*
X167947344Y-89208306D02*
X168887037Y-88866285D01*
X168805603Y-88642549D01*
X168711996Y-88524594D01*
X168589928Y-88467673D01*
X168484147Y-88455499D01*
X168288871Y-88475898D01*
X168154629Y-88524758D01*
X167991927Y-88634652D01*
X167918719Y-88711973D01*
X167861798Y-88834041D01*
X167865911Y-88984569D01*
X167947344Y-89208306D01*
X168398436Y-87523867D02*
X168463583Y-87702856D01*
X168451409Y-87808638D01*
X168422948Y-87869672D01*
X168321280Y-88008026D01*
X168158578Y-88117920D01*
X167800599Y-88248213D01*
X167694818Y-88236040D01*
X167633784Y-88207579D01*
X167556464Y-88134371D01*
X167491317Y-87955382D01*
X167503491Y-87849601D01*
X167531952Y-87788567D01*
X167605159Y-87711246D01*
X167828896Y-87629813D01*
X167934677Y-87641987D01*
X167995711Y-87670447D01*
X168073032Y-87743655D01*
X168138178Y-87922644D01*
X168126004Y-88028426D01*
X168097544Y-88089460D01*
X168024336Y-88166780D01*
X170666666Y-124492380D02*
X171000000Y-124016190D01*
X171238095Y-124492380D02*
X171238095Y-123492380D01*
X170857142Y-123492380D01*
X170761904Y-123540000D01*
X170714285Y-123587619D01*
X170666666Y-123682857D01*
X170666666Y-123825714D01*
X170714285Y-123920952D01*
X170761904Y-123968571D01*
X170857142Y-124016190D01*
X171238095Y-124016190D01*
X169714285Y-124492380D02*
X170285714Y-124492380D01*
X170000000Y-124492380D02*
X170000000Y-123492380D01*
X170095238Y-123635238D01*
X170190476Y-123730476D01*
X170285714Y-123778095D01*
X168156666Y-110322380D02*
X168490000Y-109846190D01*
X168728095Y-110322380D02*
X168728095Y-109322380D01*
X168347142Y-109322380D01*
X168251904Y-109370000D01*
X168204285Y-109417619D01*
X168156666Y-109512857D01*
X168156666Y-109655714D01*
X168204285Y-109750952D01*
X168251904Y-109798571D01*
X168347142Y-109846190D01*
X168728095Y-109846190D01*
X167775714Y-109417619D02*
X167728095Y-109370000D01*
X167632857Y-109322380D01*
X167394761Y-109322380D01*
X167299523Y-109370000D01*
X167251904Y-109417619D01*
X167204285Y-109512857D01*
X167204285Y-109608095D01*
X167251904Y-109750952D01*
X167823333Y-110322380D01*
X167204285Y-110322380D01*
X160316666Y-86922380D02*
X160650000Y-86446190D01*
X160888095Y-86922380D02*
X160888095Y-85922380D01*
X160507142Y-85922380D01*
X160411904Y-85970000D01*
X160364285Y-86017619D01*
X160316666Y-86112857D01*
X160316666Y-86255714D01*
X160364285Y-86350952D01*
X160411904Y-86398571D01*
X160507142Y-86446190D01*
X160888095Y-86446190D01*
X159983333Y-85922380D02*
X159364285Y-85922380D01*
X159697619Y-86303333D01*
X159554761Y-86303333D01*
X159459523Y-86350952D01*
X159411904Y-86398571D01*
X159364285Y-86493809D01*
X159364285Y-86731904D01*
X159411904Y-86827142D01*
X159459523Y-86874761D01*
X159554761Y-86922380D01*
X159840476Y-86922380D01*
X159935714Y-86874761D01*
X159983333Y-86827142D01*
X176942380Y-125683333D02*
X176466190Y-125350000D01*
X176942380Y-125111904D02*
X175942380Y-125111904D01*
X175942380Y-125492857D01*
X175990000Y-125588095D01*
X176037619Y-125635714D01*
X176132857Y-125683333D01*
X176275714Y-125683333D01*
X176370952Y-125635714D01*
X176418571Y-125588095D01*
X176466190Y-125492857D01*
X176466190Y-125111904D01*
X176275714Y-126540476D02*
X176942380Y-126540476D01*
X175894761Y-126302380D02*
X176609047Y-126064285D01*
X176609047Y-126683333D01*
X172892380Y-127083333D02*
X172416190Y-126750000D01*
X172892380Y-126511904D02*
X171892380Y-126511904D01*
X171892380Y-126892857D01*
X171940000Y-126988095D01*
X171987619Y-127035714D01*
X172082857Y-127083333D01*
X172225714Y-127083333D01*
X172320952Y-127035714D01*
X172368571Y-126988095D01*
X172416190Y-126892857D01*
X172416190Y-126511904D01*
X171892380Y-127988095D02*
X171892380Y-127511904D01*
X172368571Y-127464285D01*
X172320952Y-127511904D01*
X172273333Y-127607142D01*
X172273333Y-127845238D01*
X172320952Y-127940476D01*
X172368571Y-127988095D01*
X172463809Y-128035714D01*
X172701904Y-128035714D01*
X172797142Y-127988095D01*
X172844761Y-127940476D01*
X172892380Y-127845238D01*
X172892380Y-127607142D01*
X172844761Y-127511904D01*
X172797142Y-127464285D01*
X168146666Y-111902380D02*
X168480000Y-111426190D01*
X168718095Y-111902380D02*
X168718095Y-110902380D01*
X168337142Y-110902380D01*
X168241904Y-110950000D01*
X168194285Y-110997619D01*
X168146666Y-111092857D01*
X168146666Y-111235714D01*
X168194285Y-111330952D01*
X168241904Y-111378571D01*
X168337142Y-111426190D01*
X168718095Y-111426190D01*
X167289523Y-110902380D02*
X167480000Y-110902380D01*
X167575238Y-110950000D01*
X167622857Y-110997619D01*
X167718095Y-111140476D01*
X167765714Y-111330952D01*
X167765714Y-111711904D01*
X167718095Y-111807142D01*
X167670476Y-111854761D01*
X167575238Y-111902380D01*
X167384761Y-111902380D01*
X167289523Y-111854761D01*
X167241904Y-111807142D01*
X167194285Y-111711904D01*
X167194285Y-111473809D01*
X167241904Y-111378571D01*
X167289523Y-111330952D01*
X167384761Y-111283333D01*
X167575238Y-111283333D01*
X167670476Y-111330952D01*
X167718095Y-111378571D01*
X167765714Y-111473809D01*
X152236666Y-88462380D02*
X152570000Y-87986190D01*
X152808095Y-88462380D02*
X152808095Y-87462380D01*
X152427142Y-87462380D01*
X152331904Y-87510000D01*
X152284285Y-87557619D01*
X152236666Y-87652857D01*
X152236666Y-87795714D01*
X152284285Y-87890952D01*
X152331904Y-87938571D01*
X152427142Y-87986190D01*
X152808095Y-87986190D01*
X151903333Y-87462380D02*
X151236666Y-87462380D01*
X151665238Y-88462380D01*
X174726666Y-129102380D02*
X175060000Y-128626190D01*
X175298095Y-129102380D02*
X175298095Y-128102380D01*
X174917142Y-128102380D01*
X174821904Y-128150000D01*
X174774285Y-128197619D01*
X174726666Y-128292857D01*
X174726666Y-128435714D01*
X174774285Y-128530952D01*
X174821904Y-128578571D01*
X174917142Y-128626190D01*
X175298095Y-128626190D01*
X174155238Y-128530952D02*
X174250476Y-128483333D01*
X174298095Y-128435714D01*
X174345714Y-128340476D01*
X174345714Y-128292857D01*
X174298095Y-128197619D01*
X174250476Y-128150000D01*
X174155238Y-128102380D01*
X173964761Y-128102380D01*
X173869523Y-128150000D01*
X173821904Y-128197619D01*
X173774285Y-128292857D01*
X173774285Y-128340476D01*
X173821904Y-128435714D01*
X173869523Y-128483333D01*
X173964761Y-128530952D01*
X174155238Y-128530952D01*
X174250476Y-128578571D01*
X174298095Y-128626190D01*
X174345714Y-128721428D01*
X174345714Y-128911904D01*
X174298095Y-129007142D01*
X174250476Y-129054761D01*
X174155238Y-129102380D01*
X173964761Y-129102380D01*
X173869523Y-129054761D01*
X173821904Y-129007142D01*
X173774285Y-128911904D01*
X173774285Y-128721428D01*
X173821904Y-128626190D01*
X173869523Y-128578571D01*
X173964761Y-128530952D01*
X168992380Y-128963333D02*
X168516190Y-128630000D01*
X168992380Y-128391904D02*
X167992380Y-128391904D01*
X167992380Y-128772857D01*
X168040000Y-128868095D01*
X168087619Y-128915714D01*
X168182857Y-128963333D01*
X168325714Y-128963333D01*
X168420952Y-128915714D01*
X168468571Y-128868095D01*
X168516190Y-128772857D01*
X168516190Y-128391904D01*
X168992380Y-129439523D02*
X168992380Y-129630000D01*
X168944761Y-129725238D01*
X168897142Y-129772857D01*
X168754285Y-129868095D01*
X168563809Y-129915714D01*
X168182857Y-129915714D01*
X168087619Y-129868095D01*
X168040000Y-129820476D01*
X167992380Y-129725238D01*
X167992380Y-129534761D01*
X168040000Y-129439523D01*
X168087619Y-129391904D01*
X168182857Y-129344285D01*
X168420952Y-129344285D01*
X168516190Y-129391904D01*
X168563809Y-129439523D01*
X168611428Y-129534761D01*
X168611428Y-129725238D01*
X168563809Y-129820476D01*
X168516190Y-129868095D01*
X168420952Y-129915714D01*
X169092857Y-108842380D02*
X169426190Y-108366190D01*
X169664285Y-108842380D02*
X169664285Y-107842380D01*
X169283333Y-107842380D01*
X169188095Y-107890000D01*
X169140476Y-107937619D01*
X169092857Y-108032857D01*
X169092857Y-108175714D01*
X169140476Y-108270952D01*
X169188095Y-108318571D01*
X169283333Y-108366190D01*
X169664285Y-108366190D01*
X168140476Y-108842380D02*
X168711904Y-108842380D01*
X168426190Y-108842380D02*
X168426190Y-107842380D01*
X168521428Y-107985238D01*
X168616666Y-108080476D01*
X168711904Y-108128095D01*
X167521428Y-107842380D02*
X167426190Y-107842380D01*
X167330952Y-107890000D01*
X167283333Y-107937619D01*
X167235714Y-108032857D01*
X167188095Y-108223333D01*
X167188095Y-108461428D01*
X167235714Y-108651904D01*
X167283333Y-108747142D01*
X167330952Y-108794761D01*
X167426190Y-108842380D01*
X167521428Y-108842380D01*
X167616666Y-108794761D01*
X167664285Y-108747142D01*
X167711904Y-108651904D01*
X167759523Y-108461428D01*
X167759523Y-108223333D01*
X167711904Y-108032857D01*
X167664285Y-107937619D01*
X167616666Y-107890000D01*
X167521428Y-107842380D01*
X162102380Y-89957142D02*
X161626190Y-89623809D01*
X162102380Y-89385714D02*
X161102380Y-89385714D01*
X161102380Y-89766666D01*
X161150000Y-89861904D01*
X161197619Y-89909523D01*
X161292857Y-89957142D01*
X161435714Y-89957142D01*
X161530952Y-89909523D01*
X161578571Y-89861904D01*
X161626190Y-89766666D01*
X161626190Y-89385714D01*
X162102380Y-90909523D02*
X162102380Y-90338095D01*
X162102380Y-90623809D02*
X161102380Y-90623809D01*
X161245238Y-90528571D01*
X161340476Y-90433333D01*
X161388095Y-90338095D01*
X162102380Y-91861904D02*
X162102380Y-91290476D01*
X162102380Y-91576190D02*
X161102380Y-91576190D01*
X161245238Y-91480952D01*
X161340476Y-91385714D01*
X161388095Y-91290476D01*
X172022857Y-123232380D02*
X172356190Y-122756190D01*
X172594285Y-123232380D02*
X172594285Y-122232380D01*
X172213333Y-122232380D01*
X172118095Y-122280000D01*
X172070476Y-122327619D01*
X172022857Y-122422857D01*
X172022857Y-122565714D01*
X172070476Y-122660952D01*
X172118095Y-122708571D01*
X172213333Y-122756190D01*
X172594285Y-122756190D01*
X171070476Y-123232380D02*
X171641904Y-123232380D01*
X171356190Y-123232380D02*
X171356190Y-122232380D01*
X171451428Y-122375238D01*
X171546666Y-122470476D01*
X171641904Y-122518095D01*
X170689523Y-122327619D02*
X170641904Y-122280000D01*
X170546666Y-122232380D01*
X170308571Y-122232380D01*
X170213333Y-122280000D01*
X170165714Y-122327619D01*
X170118095Y-122422857D01*
X170118095Y-122518095D01*
X170165714Y-122660952D01*
X170737142Y-123232380D01*
X170118095Y-123232380D01*
X161202857Y-88742380D02*
X161536190Y-88266190D01*
X161774285Y-88742380D02*
X161774285Y-87742380D01*
X161393333Y-87742380D01*
X161298095Y-87790000D01*
X161250476Y-87837619D01*
X161202857Y-87932857D01*
X161202857Y-88075714D01*
X161250476Y-88170952D01*
X161298095Y-88218571D01*
X161393333Y-88266190D01*
X161774285Y-88266190D01*
X160250476Y-88742380D02*
X160821904Y-88742380D01*
X160536190Y-88742380D02*
X160536190Y-87742380D01*
X160631428Y-87885238D01*
X160726666Y-87980476D01*
X160821904Y-88028095D01*
X159917142Y-87742380D02*
X159298095Y-87742380D01*
X159631428Y-88123333D01*
X159488571Y-88123333D01*
X159393333Y-88170952D01*
X159345714Y-88218571D01*
X159298095Y-88313809D01*
X159298095Y-88551904D01*
X159345714Y-88647142D01*
X159393333Y-88694761D01*
X159488571Y-88742380D01*
X159774285Y-88742380D01*
X159869523Y-88694761D01*
X159917142Y-88647142D01*
X152272857Y-86782380D02*
X152606190Y-86306190D01*
X152844285Y-86782380D02*
X152844285Y-85782380D01*
X152463333Y-85782380D01*
X152368095Y-85830000D01*
X152320476Y-85877619D01*
X152272857Y-85972857D01*
X152272857Y-86115714D01*
X152320476Y-86210952D01*
X152368095Y-86258571D01*
X152463333Y-86306190D01*
X152844285Y-86306190D01*
X151320476Y-86782380D02*
X151891904Y-86782380D01*
X151606190Y-86782380D02*
X151606190Y-85782380D01*
X151701428Y-85925238D01*
X151796666Y-86020476D01*
X151891904Y-86068095D01*
X150463333Y-85782380D02*
X150653809Y-85782380D01*
X150749047Y-85830000D01*
X150796666Y-85877619D01*
X150891904Y-86020476D01*
X150939523Y-86210952D01*
X150939523Y-86591904D01*
X150891904Y-86687142D01*
X150844285Y-86734761D01*
X150749047Y-86782380D01*
X150558571Y-86782380D01*
X150463333Y-86734761D01*
X150415714Y-86687142D01*
X150368095Y-86591904D01*
X150368095Y-86353809D01*
X150415714Y-86258571D01*
X150463333Y-86210952D01*
X150558571Y-86163333D01*
X150749047Y-86163333D01*
X150844285Y-86210952D01*
X150891904Y-86258571D01*
X150939523Y-86353809D01*
X153002857Y-90542380D02*
X153336190Y-90066190D01*
X153574285Y-90542380D02*
X153574285Y-89542380D01*
X153193333Y-89542380D01*
X153098095Y-89590000D01*
X153050476Y-89637619D01*
X153002857Y-89732857D01*
X153002857Y-89875714D01*
X153050476Y-89970952D01*
X153098095Y-90018571D01*
X153193333Y-90066190D01*
X153574285Y-90066190D01*
X152050476Y-90542380D02*
X152621904Y-90542380D01*
X152336190Y-90542380D02*
X152336190Y-89542380D01*
X152431428Y-89685238D01*
X152526666Y-89780476D01*
X152621904Y-89828095D01*
X151717142Y-89542380D02*
X151050476Y-89542380D01*
X151479047Y-90542380D01*
X163742380Y-89937142D02*
X163266190Y-89603809D01*
X163742380Y-89365714D02*
X162742380Y-89365714D01*
X162742380Y-89746666D01*
X162790000Y-89841904D01*
X162837619Y-89889523D01*
X162932857Y-89937142D01*
X163075714Y-89937142D01*
X163170952Y-89889523D01*
X163218571Y-89841904D01*
X163266190Y-89746666D01*
X163266190Y-89365714D01*
X163742380Y-90889523D02*
X163742380Y-90318095D01*
X163742380Y-90603809D02*
X162742380Y-90603809D01*
X162885238Y-90508571D01*
X162980476Y-90413333D01*
X163028095Y-90318095D01*
X163742380Y-91365714D02*
X163742380Y-91556190D01*
X163694761Y-91651428D01*
X163647142Y-91699047D01*
X163504285Y-91794285D01*
X163313809Y-91841904D01*
X162932857Y-91841904D01*
X162837619Y-91794285D01*
X162790000Y-91746666D01*
X162742380Y-91651428D01*
X162742380Y-91460952D01*
X162790000Y-91365714D01*
X162837619Y-91318095D01*
X162932857Y-91270476D01*
X163170952Y-91270476D01*
X163266190Y-91318095D01*
X163313809Y-91365714D01*
X163361428Y-91460952D01*
X163361428Y-91651428D01*
X163313809Y-91746666D01*
X163266190Y-91794285D01*
X163170952Y-91841904D01*
X165402380Y-89957142D02*
X164926190Y-89623809D01*
X165402380Y-89385714D02*
X164402380Y-89385714D01*
X164402380Y-89766666D01*
X164450000Y-89861904D01*
X164497619Y-89909523D01*
X164592857Y-89957142D01*
X164735714Y-89957142D01*
X164830952Y-89909523D01*
X164878571Y-89861904D01*
X164926190Y-89766666D01*
X164926190Y-89385714D01*
X164497619Y-90338095D02*
X164450000Y-90385714D01*
X164402380Y-90480952D01*
X164402380Y-90719047D01*
X164450000Y-90814285D01*
X164497619Y-90861904D01*
X164592857Y-90909523D01*
X164688095Y-90909523D01*
X164830952Y-90861904D01*
X165402380Y-90290476D01*
X165402380Y-90909523D01*
X164402380Y-91528571D02*
X164402380Y-91623809D01*
X164450000Y-91719047D01*
X164497619Y-91766666D01*
X164592857Y-91814285D01*
X164783333Y-91861904D01*
X165021428Y-91861904D01*
X165211904Y-91814285D01*
X165307142Y-91766666D01*
X165354761Y-91719047D01*
X165402380Y-91623809D01*
X165402380Y-91528571D01*
X165354761Y-91433333D01*
X165307142Y-91385714D01*
X165211904Y-91338095D01*
X165021428Y-91290476D01*
X164783333Y-91290476D01*
X164592857Y-91338095D01*
X164497619Y-91385714D01*
X164450000Y-91433333D01*
X164402380Y-91528571D01*
M02*
