G04 #@! TF.GenerationSoftware,KiCad,Pcbnew,5.1.6-c6e7f7d~87~ubuntu18.04.1*
G04 #@! TF.CreationDate,2020-08-06T21:04:51-07:00*
G04 #@! TF.ProjectId,scythe_badge,73637974-6865-45f6-9261-6467652e6b69,rev?*
G04 #@! TF.SameCoordinates,Original*
G04 #@! TF.FileFunction,Profile,NP*
%FSLAX46Y46*%
G04 Gerber Fmt 4.6, Leading zero omitted, Abs format (unit mm)*
G04 Created by KiCad (PCBNEW 5.1.6-c6e7f7d~87~ubuntu18.04.1) date 2020-08-06 21:04:51*
%MOMM*%
%LPD*%
G01*
G04 APERTURE LIST*
G04 #@! TA.AperFunction,Profile*
%ADD10C,0.100000*%
G04 #@! TD*
G04 APERTURE END LIST*
D10*
X157908834Y-141221554D02*
X157869330Y-141213978D01*
X157869330Y-141213978D02*
X157825394Y-141203882D01*
X157825394Y-141203882D02*
X157777491Y-141191436D01*
X157777491Y-141191436D02*
X157726082Y-141176798D01*
X157726082Y-141176798D02*
X157671633Y-141160146D01*
X157671633Y-141160146D02*
X157614606Y-141141652D01*
X157614606Y-141141652D02*
X157494674Y-141099792D01*
X157494674Y-141099792D02*
X157369996Y-141052575D01*
X157369996Y-141052575D02*
X157244281Y-141001343D01*
X157244281Y-141001343D02*
X157121237Y-140947445D01*
X157121237Y-140947445D02*
X157061875Y-140919927D01*
X157061875Y-140919927D02*
X157004572Y-140892245D01*
X157004572Y-140892245D02*
X156916777Y-140847219D01*
X156916777Y-140847219D02*
X156829319Y-140798995D01*
X156829319Y-140798995D02*
X156742208Y-140747579D01*
X156742208Y-140747579D02*
X156655451Y-140692990D01*
X156655451Y-140692990D02*
X156569057Y-140635236D01*
X156569057Y-140635236D02*
X156483036Y-140574315D01*
X156483036Y-140574315D02*
X156397397Y-140510256D01*
X156397397Y-140510256D02*
X156312149Y-140443057D01*
X156312149Y-140443057D02*
X156227300Y-140372731D01*
X156227300Y-140372731D02*
X156142860Y-140299286D01*
X156142860Y-140299286D02*
X156058837Y-140222741D01*
X156058837Y-140222741D02*
X155975241Y-140143095D01*
X155975241Y-140143095D02*
X155892080Y-140060363D01*
X155892080Y-140060363D02*
X155809364Y-139974558D01*
X155809364Y-139974558D02*
X155727100Y-139885691D01*
X155727100Y-139885691D02*
X155645300Y-139793765D01*
X155645300Y-139793765D02*
X155563971Y-139698797D01*
X155563971Y-139698797D02*
X155483122Y-139600796D01*
X155483122Y-139600796D02*
X155402762Y-139499767D01*
X155402762Y-139499767D02*
X155322901Y-139395730D01*
X155322901Y-139395730D02*
X155243547Y-139288685D01*
X155243547Y-139288685D02*
X155164709Y-139178645D01*
X155164709Y-139178645D02*
X155086396Y-139065631D01*
X155086396Y-139065631D02*
X155008617Y-138949635D01*
X155008617Y-138949635D02*
X154931382Y-138830684D01*
X154931382Y-138830684D02*
X154854698Y-138708778D01*
X154854698Y-138708778D02*
X154778575Y-138583929D01*
X154778575Y-138583929D02*
X154703023Y-138456152D01*
X154703023Y-138456152D02*
X154628049Y-138325452D01*
X154628049Y-138325452D02*
X154553664Y-138191844D01*
X154553664Y-138191844D02*
X154479875Y-138055333D01*
X154479875Y-138055333D02*
X154406692Y-137915932D01*
X154406692Y-137915932D02*
X154366486Y-137839552D01*
X154366486Y-137839552D02*
X154325238Y-137763763D01*
X154325238Y-137763763D02*
X154283122Y-137688824D01*
X154283122Y-137688824D02*
X154240310Y-137614984D01*
X154240310Y-137614984D02*
X154196973Y-137542513D01*
X154196973Y-137542513D02*
X154153283Y-137471661D01*
X154153283Y-137471661D02*
X154109415Y-137402684D01*
X154109415Y-137402684D02*
X154065540Y-137335854D01*
X154065540Y-137335854D02*
X154021829Y-137271412D01*
X154021829Y-137271412D02*
X153978456Y-137209636D01*
X153978456Y-137209636D02*
X153935594Y-137150763D01*
X153935594Y-137150763D02*
X153893413Y-137095069D01*
X153893413Y-137095069D02*
X153852086Y-137042803D01*
X153852086Y-137042803D02*
X153811787Y-136994224D01*
X153811787Y-136994224D02*
X153772687Y-136949587D01*
X153772687Y-136949587D02*
X153734959Y-136909162D01*
X153734959Y-136909162D02*
X153698394Y-136870422D01*
X153698394Y-136870422D02*
X153662496Y-136830550D01*
X153662496Y-136830550D02*
X153627382Y-136789717D01*
X153627382Y-136789717D02*
X153593169Y-136748101D01*
X153593169Y-136748101D02*
X153559973Y-136705866D01*
X153559973Y-136705866D02*
X153527911Y-136663204D01*
X153527911Y-136663204D02*
X153497101Y-136620278D01*
X153497101Y-136620278D02*
X153467658Y-136577260D01*
X153467658Y-136577260D02*
X153439699Y-136534334D01*
X153439699Y-136534334D02*
X153413342Y-136491671D01*
X153413342Y-136491671D02*
X153388702Y-136449443D01*
X153388702Y-136449443D02*
X153365897Y-136407827D01*
X153365897Y-136407827D02*
X153345043Y-136367001D01*
X153345043Y-136367001D02*
X153326257Y-136327135D01*
X153326257Y-136327135D02*
X153309656Y-136288409D01*
X153309656Y-136288409D02*
X153295356Y-136250992D01*
X153295356Y-136250992D02*
X153279762Y-136204268D01*
X153279762Y-136204268D02*
X153264950Y-136153747D01*
X153264950Y-136153747D02*
X153250927Y-136099632D01*
X153250927Y-136099632D02*
X153237701Y-136042154D01*
X153237701Y-136042154D02*
X153225278Y-135981537D01*
X153225278Y-135981537D02*
X153213666Y-135917990D01*
X153213666Y-135917990D02*
X153202872Y-135851739D01*
X153202872Y-135851739D02*
X153192903Y-135783006D01*
X153192903Y-135783006D02*
X153183766Y-135712009D01*
X153183766Y-135712009D02*
X153175469Y-135638965D01*
X153175469Y-135638965D02*
X153168020Y-135564099D01*
X153168020Y-135564099D02*
X153161424Y-135487632D01*
X153161424Y-135487632D02*
X153150825Y-135330764D01*
X153150825Y-135330764D02*
X153143729Y-135170131D01*
X153143729Y-135170131D02*
X153140194Y-135007484D01*
X153140194Y-135007484D02*
X153140259Y-134844587D01*
X153140259Y-134844587D02*
X153144024Y-134683210D01*
X153144024Y-134683210D02*
X153147304Y-134603637D01*
X153147304Y-134603637D02*
X153151526Y-134525111D01*
X153151526Y-134525111D02*
X153156692Y-134447835D01*
X153156692Y-134447835D02*
X153162813Y-134372040D01*
X153162813Y-134372040D02*
X153169900Y-134297950D01*
X153169900Y-134297950D02*
X153177956Y-134225775D01*
X153177956Y-134225775D02*
X153186989Y-134155746D01*
X153186989Y-134155746D02*
X153197008Y-134088072D01*
X153197008Y-134088072D02*
X153208018Y-134022979D01*
X153208018Y-134022979D02*
X153220026Y-133960690D01*
X153220026Y-133960690D02*
X153234915Y-133883401D01*
X153234915Y-133883401D02*
X153248446Y-133802236D01*
X153248446Y-133802236D02*
X153260674Y-133715956D01*
X153260674Y-133715956D02*
X153271656Y-133623299D01*
X153271656Y-133623299D02*
X153281444Y-133523033D01*
X153281444Y-133523033D02*
X153290095Y-133413902D01*
X153290095Y-133413902D02*
X153297664Y-133294661D01*
X153297664Y-133294661D02*
X153304205Y-133164060D01*
X153304205Y-133164060D02*
X153309776Y-133020856D01*
X153309776Y-133020856D02*
X153314431Y-132863797D01*
X153314431Y-132863797D02*
X153318222Y-132691639D01*
X153318222Y-132691639D02*
X153321207Y-132503132D01*
X153321207Y-132503132D02*
X153324985Y-132072083D01*
X153324985Y-132072083D02*
X153326196Y-131560672D01*
X153326196Y-131560672D02*
X153327034Y-131224406D01*
X153327034Y-131224406D02*
X153329535Y-130895821D01*
X153329535Y-130895821D02*
X153333659Y-130575575D01*
X153333659Y-130575575D02*
X153339381Y-130264320D01*
X153339381Y-130264320D02*
X153346664Y-129962720D01*
X153346664Y-129962720D02*
X153355477Y-129671440D01*
X153355477Y-129671440D02*
X153365787Y-129391118D01*
X153365787Y-129391118D02*
X153377562Y-129122433D01*
X153377562Y-129122433D02*
X153390770Y-128866037D01*
X153390770Y-128866037D02*
X153405377Y-128622586D01*
X153405377Y-128622586D02*
X153421352Y-128392740D01*
X153421352Y-128392740D02*
X153438662Y-128177149D01*
X153438662Y-128177149D02*
X153457275Y-127976486D01*
X153457275Y-127976486D02*
X153477158Y-127791402D01*
X153477158Y-127791402D02*
X153498279Y-127622555D01*
X153498279Y-127622555D02*
X153520606Y-127470603D01*
X153520606Y-127470603D02*
X153537919Y-127355871D01*
X153537919Y-127355871D02*
X153543956Y-127307259D01*
X153543956Y-127307259D02*
X153548028Y-127263444D01*
X153548028Y-127263444D02*
X153549959Y-127223645D01*
X153549959Y-127223645D02*
X153549566Y-127187083D01*
X153549566Y-127187083D02*
X153546718Y-127152977D01*
X153546718Y-127152977D02*
X153541232Y-127120556D01*
X153541232Y-127120556D02*
X153532937Y-127089029D01*
X153532937Y-127089029D02*
X153521666Y-127057628D01*
X153521666Y-127057628D02*
X153507249Y-127025568D01*
X153507249Y-127025568D02*
X153489520Y-126992074D01*
X153489520Y-126992074D02*
X153468310Y-126956362D01*
X153468310Y-126956362D02*
X153443452Y-126917655D01*
X153443452Y-126917655D02*
X153382119Y-126828137D01*
X153382119Y-126828137D02*
X153337667Y-126762879D01*
X153337667Y-126762879D02*
X153293759Y-126694890D01*
X153293759Y-126694890D02*
X153250415Y-126624223D01*
X153250415Y-126624223D02*
X153207657Y-126550949D01*
X153207657Y-126550949D02*
X153165504Y-126475127D01*
X153165504Y-126475127D02*
X153123977Y-126396812D01*
X153123977Y-126396812D02*
X153083097Y-126316067D01*
X153083097Y-126316067D02*
X153042883Y-126232960D01*
X153042883Y-126232960D02*
X153003355Y-126147543D01*
X153003355Y-126147543D02*
X152964536Y-126059874D01*
X152964536Y-126059874D02*
X152926443Y-125970028D01*
X152926443Y-125970028D02*
X152889099Y-125878055D01*
X152889099Y-125878055D02*
X152852523Y-125784016D01*
X152852523Y-125784016D02*
X152816737Y-125687975D01*
X152816737Y-125687975D02*
X152781758Y-125589993D01*
X152781758Y-125589993D02*
X152747610Y-125490129D01*
X152747610Y-125490129D02*
X152714311Y-125388449D01*
X152714311Y-125388449D02*
X152681883Y-125285004D01*
X152681883Y-125285004D02*
X152650345Y-125179868D01*
X152650345Y-125179868D02*
X152619717Y-125073086D01*
X152619717Y-125073086D02*
X152590022Y-124964732D01*
X152590022Y-124964732D02*
X152561277Y-124854857D01*
X152561277Y-124854857D02*
X152533505Y-124743527D01*
X152533505Y-124743527D02*
X152506724Y-124630809D01*
X152506724Y-124630809D02*
X152480957Y-124516748D01*
X152480957Y-124516748D02*
X152456222Y-124401423D01*
X152456222Y-124401423D02*
X152432541Y-124284881D01*
X152432541Y-124284881D02*
X152409934Y-124167187D01*
X152409934Y-124167187D02*
X152388420Y-124048407D01*
X152388420Y-124048407D02*
X152368022Y-123928594D01*
X152368022Y-123928594D02*
X152348758Y-123807813D01*
X152348758Y-123807813D02*
X152330649Y-123686124D01*
X152330649Y-123686124D02*
X152320708Y-123607637D01*
X152320708Y-123607637D02*
X152311416Y-123515816D01*
X152311416Y-123515816D02*
X152302775Y-123411496D01*
X152302775Y-123411496D02*
X152294782Y-123295519D01*
X152294782Y-123295519D02*
X152287439Y-123168723D01*
X152287439Y-123168723D02*
X152280743Y-123031942D01*
X152280743Y-123031942D02*
X152269295Y-122731796D01*
X152269295Y-122731796D02*
X152260436Y-122401770D01*
X152260436Y-122401770D02*
X152254164Y-122048576D01*
X152254164Y-122048576D02*
X152250472Y-121678915D01*
X152250472Y-121678915D02*
X152249359Y-121299486D01*
X152249359Y-121299486D02*
X152250825Y-120917003D01*
X152250825Y-120917003D02*
X152254865Y-120538154D01*
X152254865Y-120538154D02*
X152261471Y-120169657D01*
X152261471Y-120169657D02*
X152270645Y-119818201D01*
X152270645Y-119818201D02*
X152282382Y-119490505D01*
X152282382Y-119490505D02*
X152289211Y-119337651D01*
X152289211Y-119337651D02*
X152296680Y-119193255D01*
X152296680Y-119193255D02*
X152304788Y-119058146D01*
X152304788Y-119058146D02*
X152313535Y-118933166D01*
X152313535Y-118933166D02*
X152322921Y-118819151D01*
X152322921Y-118819151D02*
X152332945Y-118716937D01*
X152332945Y-118716937D02*
X152358513Y-118486169D01*
X152358513Y-118486169D02*
X152385796Y-118252539D01*
X152385796Y-118252539D02*
X152414702Y-118016650D01*
X152414702Y-118016650D02*
X152445139Y-117779104D01*
X152445139Y-117779104D02*
X152477016Y-117540490D01*
X152477016Y-117540490D02*
X152510242Y-117301417D01*
X152510242Y-117301417D02*
X152544725Y-117062481D01*
X152544725Y-117062481D02*
X152580375Y-116824276D01*
X152580375Y-116824276D02*
X152617099Y-116587414D01*
X152617099Y-116587414D02*
X152654806Y-116352486D01*
X152654806Y-116352486D02*
X152693406Y-116120093D01*
X152693406Y-116120093D02*
X152732806Y-115890839D01*
X152732806Y-115890839D02*
X152772915Y-115665317D01*
X152772915Y-115665317D02*
X152813643Y-115444132D01*
X152813643Y-115444132D02*
X152854897Y-115227884D01*
X152854897Y-115227884D02*
X152896587Y-115017164D01*
X152896587Y-115017164D02*
X153105049Y-113982974D01*
X153105049Y-113982974D02*
X152893405Y-113338829D01*
X152893405Y-113338829D02*
X152865249Y-113251530D01*
X152865249Y-113251530D02*
X152838004Y-113163815D01*
X152838004Y-113163815D02*
X152811671Y-113075699D01*
X152811671Y-113075699D02*
X152786250Y-112987195D01*
X152786250Y-112987195D02*
X152738142Y-112809075D01*
X152738142Y-112809075D02*
X152693681Y-112629572D01*
X152693681Y-112629572D02*
X152652865Y-112448792D01*
X152652865Y-112448792D02*
X152615694Y-112266861D01*
X152615694Y-112266861D02*
X152582166Y-112083883D01*
X152582166Y-112083883D02*
X152552282Y-111899970D01*
X152552282Y-111899970D02*
X152526041Y-111715248D01*
X152526041Y-111715248D02*
X152503442Y-111529815D01*
X152503442Y-111529815D02*
X152484484Y-111343796D01*
X152484484Y-111343796D02*
X152469167Y-111157304D01*
X152469167Y-111157304D02*
X152457490Y-110970443D01*
X152457490Y-110970443D02*
X152449453Y-110783338D01*
X152449453Y-110783338D02*
X152445054Y-110596095D01*
X152445054Y-110596095D02*
X152444294Y-110408832D01*
X152444294Y-110408832D02*
X152447168Y-110221655D01*
X152447168Y-110221655D02*
X152453683Y-110034689D01*
X152453683Y-110034689D02*
X152463833Y-109848038D01*
X152463833Y-109848038D02*
X152477620Y-109661822D01*
X152477620Y-109661822D02*
X152495042Y-109476152D01*
X152495042Y-109476152D02*
X152516098Y-109291134D01*
X152516098Y-109291134D02*
X152540788Y-109106899D01*
X152540788Y-109106899D02*
X152569110Y-108923539D01*
X152569110Y-108923539D02*
X152601066Y-108741187D01*
X152601066Y-108741187D02*
X152636654Y-108559946D01*
X152636654Y-108559946D02*
X152675872Y-108379930D01*
X152675872Y-108379930D02*
X152718721Y-108201257D01*
X152718721Y-108201257D02*
X152765200Y-108024038D01*
X152765200Y-108024038D02*
X152789801Y-107936014D01*
X152789801Y-107936014D02*
X152815308Y-107848385D01*
X152815308Y-107848385D02*
X152841723Y-107761184D01*
X152841723Y-107761184D02*
X152869045Y-107674417D01*
X152869045Y-107674417D02*
X152897274Y-107588098D01*
X152897274Y-107588098D02*
X152926411Y-107502240D01*
X152926411Y-107502240D02*
X152957839Y-107413183D01*
X152957839Y-107413183D02*
X152990503Y-107324317D01*
X152990503Y-107324317D02*
X153024399Y-107235648D01*
X153024399Y-107235648D02*
X153059524Y-107147181D01*
X153059524Y-107147181D02*
X153095873Y-107058916D01*
X153095873Y-107058916D02*
X153133442Y-106970860D01*
X153133442Y-106970860D02*
X153172228Y-106883018D01*
X153172228Y-106883018D02*
X153212225Y-106795396D01*
X153212225Y-106795396D02*
X153253431Y-106707998D01*
X153253431Y-106707998D02*
X153295840Y-106620827D01*
X153295840Y-106620827D02*
X153339450Y-106533891D01*
X153339450Y-106533891D02*
X153384254Y-106447192D01*
X153384254Y-106447192D02*
X153430252Y-106360737D01*
X153430252Y-106360737D02*
X153477436Y-106274529D01*
X153477436Y-106274529D02*
X153525805Y-106188574D01*
X153525805Y-106188574D02*
X153575353Y-106102876D01*
X153575353Y-106102876D02*
X153626077Y-106017440D01*
X153626077Y-106017440D02*
X153677972Y-105932271D01*
X153677972Y-105932271D02*
X153731035Y-105847373D01*
X153731035Y-105847373D02*
X153785261Y-105762752D01*
X153785261Y-105762752D02*
X153840647Y-105678412D01*
X153840647Y-105678412D02*
X153897188Y-105594359D01*
X153897188Y-105594359D02*
X153954880Y-105510596D01*
X153954880Y-105510596D02*
X154013720Y-105427128D01*
X154013720Y-105427128D02*
X154073702Y-105343961D01*
X154073702Y-105343961D02*
X154134824Y-105261099D01*
X154134824Y-105261099D02*
X154197081Y-105178546D01*
X154197081Y-105178546D02*
X154260469Y-105096309D01*
X154260469Y-105096309D02*
X154324984Y-105014391D01*
X154324984Y-105014391D02*
X154390622Y-104932797D01*
X154390622Y-104932797D02*
X154457379Y-104851532D01*
X154457379Y-104851532D02*
X154525251Y-104770601D01*
X154525251Y-104770601D02*
X154594233Y-104690008D01*
X154594233Y-104690008D02*
X154664322Y-104609759D01*
X154664322Y-104609759D02*
X154735514Y-104529858D01*
X154735514Y-104529858D02*
X154807804Y-104450310D01*
X154807804Y-104450310D02*
X154881190Y-104371119D01*
X154881190Y-104371119D02*
X154955665Y-104292291D01*
X154955665Y-104292291D02*
X155031227Y-104213831D01*
X155031227Y-104213831D02*
X155107871Y-104135742D01*
X155107871Y-104135742D02*
X155185595Y-104058030D01*
X155185595Y-104058030D02*
X155264391Y-103980700D01*
X155264391Y-103980700D02*
X155344259Y-103903756D01*
X155344259Y-103903756D02*
X155425192Y-103827203D01*
X155425192Y-103827203D02*
X155507188Y-103751047D01*
X155507188Y-103751047D02*
X155590242Y-103675291D01*
X155590242Y-103675291D02*
X155674350Y-103599940D01*
X155674350Y-103599940D02*
X155759508Y-103525000D01*
X155759508Y-103525000D02*
X155845712Y-103450475D01*
X155845712Y-103450475D02*
X155932958Y-103376369D01*
X155932958Y-103376369D02*
X156021242Y-103302689D01*
X156021242Y-103302689D02*
X156110559Y-103229438D01*
X156110559Y-103229438D02*
X156292279Y-103084243D01*
X156292279Y-103084243D02*
X156478086Y-102940823D01*
X156478086Y-102940823D02*
X156667947Y-102799216D01*
X156667947Y-102799216D02*
X156861830Y-102659461D01*
X156861830Y-102659461D02*
X157059702Y-102521596D01*
X157059702Y-102521596D02*
X157261531Y-102385659D01*
X157261531Y-102385659D02*
X157760012Y-102055554D01*
X157760012Y-102055554D02*
X157971996Y-101361493D01*
X157971996Y-101361493D02*
X158018619Y-101205897D01*
X158018619Y-101205897D02*
X158061850Y-101055191D01*
X158061850Y-101055191D02*
X158101898Y-100908184D01*
X158101898Y-100908184D02*
X158138978Y-100763687D01*
X158138978Y-100763687D02*
X158173299Y-100620512D01*
X158173299Y-100620512D02*
X158205074Y-100477469D01*
X158205074Y-100477469D02*
X158234514Y-100333368D01*
X158234514Y-100333368D02*
X158261832Y-100187021D01*
X158261832Y-100187021D02*
X158287240Y-100037237D01*
X158287240Y-100037237D02*
X158310948Y-99882828D01*
X158310948Y-99882828D02*
X158333169Y-99722603D01*
X158333169Y-99722603D02*
X158354115Y-99555374D01*
X158354115Y-99555374D02*
X158373996Y-99379952D01*
X158373996Y-99379952D02*
X158393025Y-99195146D01*
X158393025Y-99195146D02*
X158411414Y-98999768D01*
X158411414Y-98999768D02*
X158429375Y-98792628D01*
X158429375Y-98792628D02*
X158436562Y-98694275D01*
X158436562Y-98694275D02*
X158443410Y-98576313D01*
X158443410Y-98576313D02*
X158449911Y-98440079D01*
X158449911Y-98440079D02*
X158456065Y-98286912D01*
X158456065Y-98286912D02*
X158467288Y-97935136D01*
X158467288Y-97935136D02*
X158477027Y-97531696D01*
X158477027Y-97531696D02*
X158485230Y-97087302D01*
X158485230Y-97087302D02*
X158491846Y-96612665D01*
X158491846Y-96612665D02*
X158496822Y-96118495D01*
X158496822Y-96118495D02*
X158500108Y-95615504D01*
X158500108Y-95615504D02*
X158501653Y-95114401D01*
X158501653Y-95114401D02*
X158501391Y-94625898D01*
X158501391Y-94625898D02*
X158499303Y-94160706D01*
X158499303Y-94160706D02*
X158495316Y-93729535D01*
X158495316Y-93729535D02*
X158489378Y-93343095D01*
X158489378Y-93343095D02*
X158481441Y-93012098D01*
X158481441Y-93012098D02*
X158476708Y-92870738D01*
X158476708Y-92870738D02*
X158471457Y-92747254D01*
X158471457Y-92747254D02*
X158465676Y-92642986D01*
X158465676Y-92642986D02*
X158459365Y-92559274D01*
X158459365Y-92559274D02*
X158416482Y-92083495D01*
X158416482Y-92083495D02*
X158048045Y-92139137D01*
X158048045Y-92139137D02*
X157955995Y-92154886D01*
X157955995Y-92154886D02*
X157835250Y-92178418D01*
X157835250Y-92178418D02*
X157690943Y-92208587D01*
X157690943Y-92208587D02*
X157528212Y-92244244D01*
X157528212Y-92244244D02*
X157352193Y-92284244D01*
X157352193Y-92284244D02*
X157168023Y-92327438D01*
X157168023Y-92327438D02*
X156980836Y-92372679D01*
X156980836Y-92372679D02*
X156795771Y-92418820D01*
X156795771Y-92418820D02*
X156381186Y-92522273D01*
X156381186Y-92522273D02*
X155987502Y-92616975D01*
X155987502Y-92616975D02*
X155797731Y-92661157D01*
X155797731Y-92661157D02*
X155612264Y-92703286D01*
X155612264Y-92703286D02*
X155430797Y-92743407D01*
X155430797Y-92743407D02*
X155253020Y-92781565D01*
X155253020Y-92781565D02*
X155078629Y-92817806D01*
X155078629Y-92817806D02*
X154907315Y-92852173D01*
X154907315Y-92852173D02*
X154738772Y-92884712D01*
X154738772Y-92884712D02*
X154572695Y-92915469D01*
X154572695Y-92915469D02*
X154408775Y-92944488D01*
X154408775Y-92944488D02*
X154246706Y-92971813D01*
X154246706Y-92971813D02*
X154086181Y-92997491D01*
X154086181Y-92997491D02*
X153926894Y-93021566D01*
X153926894Y-93021566D02*
X153768538Y-93044083D01*
X153768538Y-93044083D02*
X153610805Y-93065087D01*
X153610805Y-93065087D02*
X153453391Y-93084623D01*
X153453391Y-93084623D02*
X153295986Y-93102736D01*
X153295986Y-93102736D02*
X153138286Y-93119471D01*
X153138286Y-93119471D02*
X152979983Y-93134873D01*
X152979983Y-93134873D02*
X152820770Y-93148988D01*
X152820770Y-93148988D02*
X152660341Y-93161859D01*
X152660341Y-93161859D02*
X152498389Y-93173532D01*
X152498389Y-93173532D02*
X152334606Y-93184052D01*
X152334606Y-93184052D02*
X152168688Y-93193464D01*
X152168688Y-93193464D02*
X152000326Y-93201814D01*
X152000326Y-93201814D02*
X151829214Y-93209145D01*
X151829214Y-93209145D02*
X151655045Y-93215503D01*
X151655045Y-93215503D02*
X151477513Y-93220933D01*
X151477513Y-93220933D02*
X151296310Y-93225481D01*
X151296310Y-93225481D02*
X150828499Y-93235001D01*
X150828499Y-93235001D02*
X150628523Y-93237995D01*
X150628523Y-93237995D02*
X150447939Y-93239667D01*
X150447939Y-93239667D02*
X150284332Y-93239930D01*
X150284332Y-93239930D02*
X150135281Y-93238621D01*
X150135281Y-93238621D02*
X149998368Y-93235652D01*
X149998368Y-93235652D02*
X149871175Y-93230913D01*
X149871175Y-93230913D02*
X149751283Y-93224296D01*
X149751283Y-93224296D02*
X149636274Y-93215689D01*
X149636274Y-93215689D02*
X149523728Y-93204978D01*
X149523728Y-93204978D02*
X149411227Y-93192055D01*
X149411227Y-93192055D02*
X149296354Y-93176807D01*
X149296354Y-93176807D02*
X149176688Y-93159124D01*
X149176688Y-93159124D02*
X149049813Y-93138893D01*
X149049813Y-93138893D02*
X148913308Y-93116005D01*
X148913308Y-93116005D02*
X148796194Y-93095419D01*
X148796194Y-93095419D02*
X148680674Y-93073902D01*
X148680674Y-93073902D02*
X148566737Y-93051443D01*
X148566737Y-93051443D02*
X148454372Y-93028034D01*
X148454372Y-93028034D02*
X148343567Y-93003668D01*
X148343567Y-93003668D02*
X148234311Y-92978335D01*
X148234311Y-92978335D02*
X148126592Y-92952027D01*
X148126592Y-92952027D02*
X148020398Y-92924735D01*
X148020398Y-92924735D02*
X147915719Y-92896450D01*
X147915719Y-92896450D02*
X147812542Y-92867164D01*
X147812542Y-92867164D02*
X147710857Y-92836869D01*
X147710857Y-92836869D02*
X147610651Y-92805557D01*
X147610651Y-92805557D02*
X147511913Y-92773217D01*
X147511913Y-92773217D02*
X147414633Y-92739842D01*
X147414633Y-92739842D02*
X147318797Y-92705424D01*
X147318797Y-92705424D02*
X147224396Y-92669953D01*
X147224396Y-92669953D02*
X147131417Y-92633421D01*
X147131417Y-92633421D02*
X147039849Y-92595820D01*
X147039849Y-92595820D02*
X146949681Y-92557140D01*
X146949681Y-92557140D02*
X146860900Y-92517374D01*
X146860900Y-92517374D02*
X146773496Y-92476513D01*
X146773496Y-92476513D02*
X146687457Y-92434548D01*
X146687457Y-92434548D02*
X146602772Y-92391470D01*
X146602772Y-92391470D02*
X146519429Y-92347272D01*
X146519429Y-92347272D02*
X146437416Y-92301945D01*
X146437416Y-92301945D02*
X146356722Y-92255479D01*
X146356722Y-92255479D02*
X146277336Y-92207867D01*
X146277336Y-92207867D02*
X146199247Y-92159099D01*
X146199247Y-92159099D02*
X146122441Y-92109168D01*
X146122441Y-92109168D02*
X146046910Y-92058064D01*
X146046910Y-92058064D02*
X145972640Y-92005780D01*
X145972640Y-92005780D02*
X145899620Y-91952306D01*
X145899620Y-91952306D02*
X145827840Y-91897634D01*
X145827840Y-91897634D02*
X145757286Y-91841756D01*
X145757286Y-91841756D02*
X145687949Y-91784662D01*
X145687949Y-91784662D02*
X145619815Y-91726344D01*
X145619815Y-91726344D02*
X145552876Y-91666795D01*
X145552876Y-91666795D02*
X145487117Y-91606005D01*
X145487117Y-91606005D02*
X145422528Y-91543965D01*
X145422528Y-91543965D02*
X145359098Y-91480667D01*
X145359098Y-91480667D02*
X145296815Y-91416102D01*
X145296815Y-91416102D02*
X145235668Y-91350263D01*
X145235668Y-91350263D02*
X145175644Y-91283139D01*
X145175644Y-91283139D02*
X145116734Y-91214724D01*
X145116734Y-91214724D02*
X145058924Y-91145008D01*
X145058924Y-91145008D02*
X145002204Y-91073981D01*
X145002204Y-91073981D02*
X144946563Y-91001638D01*
X144946563Y-91001638D02*
X144891988Y-90927967D01*
X144891988Y-90927967D02*
X144838468Y-90852962D01*
X144838468Y-90852962D02*
X144785992Y-90776612D01*
X144785992Y-90776612D02*
X144734549Y-90698911D01*
X144734549Y-90698911D02*
X144684127Y-90619849D01*
X144684127Y-90619849D02*
X144634713Y-90539417D01*
X144634713Y-90539417D02*
X144586298Y-90457608D01*
X144586298Y-90457608D02*
X144538869Y-90374411D01*
X144538869Y-90374411D02*
X144492415Y-90289820D01*
X144492415Y-90289820D02*
X144446925Y-90203825D01*
X144446925Y-90203825D02*
X144402387Y-90116418D01*
X144402387Y-90116418D02*
X144358789Y-90027590D01*
X144358789Y-90027590D02*
X144316120Y-89937333D01*
X144316120Y-89937333D02*
X144274369Y-89845638D01*
X144274369Y-89845638D02*
X144233524Y-89752496D01*
X144233524Y-89752496D02*
X144193573Y-89657899D01*
X144193573Y-89657899D02*
X144154506Y-89561839D01*
X144154506Y-89561839D02*
X144089181Y-89394819D01*
X144089181Y-89394819D02*
X144029562Y-89235091D01*
X144029562Y-89235091D02*
X143975443Y-89081631D01*
X143975443Y-89081631D02*
X143926618Y-88933413D01*
X143926618Y-88933413D02*
X143882882Y-88789412D01*
X143882882Y-88789412D02*
X143844028Y-88648603D01*
X143844028Y-88648603D02*
X143826369Y-88579076D01*
X143826369Y-88579076D02*
X143809853Y-88509962D01*
X143809853Y-88509962D02*
X143794455Y-88441134D01*
X143794455Y-88441134D02*
X143780149Y-88372464D01*
X143780149Y-88372464D02*
X143766910Y-88303822D01*
X143766910Y-88303822D02*
X143754712Y-88235082D01*
X143754712Y-88235082D02*
X143743529Y-88166115D01*
X143743529Y-88166115D02*
X143733335Y-88096793D01*
X143733335Y-88096793D02*
X143724105Y-88026988D01*
X143724105Y-88026988D02*
X143715813Y-87956572D01*
X143715813Y-87956572D02*
X143701941Y-87813393D01*
X143701941Y-87813393D02*
X143691513Y-87666231D01*
X143691513Y-87666231D02*
X143684323Y-87514062D01*
X143684323Y-87514062D02*
X143680166Y-87355861D01*
X143680166Y-87355861D02*
X143678837Y-87190602D01*
X143678837Y-87190602D02*
X143680310Y-87018293D01*
X143680310Y-87018293D02*
X143684906Y-86854909D01*
X143684906Y-86854909D02*
X143688461Y-86776201D01*
X143688461Y-86776201D02*
X143692900Y-86699289D01*
X143692900Y-86699289D02*
X143698262Y-86624027D01*
X143698262Y-86624027D02*
X143704573Y-86550271D01*
X143704573Y-86550271D02*
X143711875Y-86477874D01*
X143711875Y-86477874D02*
X143720197Y-86406691D01*
X143720197Y-86406691D02*
X143729577Y-86336579D01*
X143729577Y-86336579D02*
X143740046Y-86267391D01*
X143740046Y-86267391D02*
X143751639Y-86198982D01*
X143751639Y-86198982D02*
X143764392Y-86131207D01*
X143764392Y-86131207D02*
X143778338Y-86063920D01*
X143778338Y-86063920D02*
X143793511Y-85996977D01*
X143793511Y-85996977D02*
X143809946Y-85930233D01*
X143809946Y-85930233D02*
X143827676Y-85863541D01*
X143827676Y-85863541D02*
X143846737Y-85796756D01*
X143846737Y-85796756D02*
X143867163Y-85729735D01*
X143867163Y-85729735D02*
X143888988Y-85662331D01*
X143888988Y-85662331D02*
X143912244Y-85594399D01*
X143912244Y-85594399D02*
X143936970Y-85525794D01*
X143936970Y-85525794D02*
X143963196Y-85456370D01*
X143963196Y-85456370D02*
X143990959Y-85385983D01*
X143990959Y-85385983D02*
X144020292Y-85314487D01*
X144020292Y-85314487D02*
X144083805Y-85167589D01*
X144083805Y-85167589D02*
X144154011Y-85014513D01*
X144154011Y-85014513D02*
X144231184Y-84854097D01*
X144231184Y-84854097D02*
X144304196Y-84709822D01*
X144304196Y-84709822D02*
X144342053Y-84638286D01*
X144342053Y-84638286D02*
X144380831Y-84567134D01*
X144380831Y-84567134D02*
X144420545Y-84496352D01*
X144420545Y-84496352D02*
X144461207Y-84425927D01*
X144461207Y-84425927D02*
X144502832Y-84355846D01*
X144502832Y-84355846D02*
X144545435Y-84286095D01*
X144545435Y-84286095D02*
X144589030Y-84216661D01*
X144589030Y-84216661D02*
X144633632Y-84147531D01*
X144633632Y-84147531D02*
X144679254Y-84078693D01*
X144679254Y-84078693D02*
X144725911Y-84010131D01*
X144725911Y-84010131D02*
X144773617Y-83941833D01*
X144773617Y-83941833D02*
X144822388Y-83873786D01*
X144822388Y-83873786D02*
X144872236Y-83805977D01*
X144872236Y-83805977D02*
X144923176Y-83738392D01*
X144923176Y-83738392D02*
X144975223Y-83671019D01*
X144975223Y-83671019D02*
X145028391Y-83603843D01*
X145028391Y-83603843D02*
X145082694Y-83536851D01*
X145082694Y-83536851D02*
X145138147Y-83470031D01*
X145138147Y-83470031D02*
X145194763Y-83403368D01*
X145194763Y-83403368D02*
X145252558Y-83336851D01*
X145252558Y-83336851D02*
X145371740Y-83204197D01*
X145371740Y-83204197D02*
X145495807Y-83071962D01*
X145495807Y-83071962D02*
X145624872Y-82940041D01*
X145624872Y-82940041D02*
X145759053Y-82808327D01*
X145759053Y-82808327D02*
X145898461Y-82676714D01*
X145898461Y-82676714D02*
X146043212Y-82545096D01*
X146043212Y-82545096D02*
X146193422Y-82413368D01*
X146193422Y-82413368D02*
X146349203Y-82281421D01*
X146349203Y-82281421D02*
X146510672Y-82149152D01*
X146510672Y-82149152D02*
X146677941Y-82016452D01*
X146677941Y-82016452D02*
X146851127Y-81883217D01*
X146851127Y-81883217D02*
X147030344Y-81749340D01*
X147030344Y-81749340D02*
X147215706Y-81614715D01*
X147215706Y-81614715D02*
X147407327Y-81479236D01*
X147407327Y-81479236D02*
X147605323Y-81342797D01*
X147605323Y-81342797D02*
X147809808Y-81205291D01*
X147809808Y-81205291D02*
X148020896Y-81066613D01*
X148020896Y-81066613D02*
X148238703Y-80926655D01*
X148238703Y-80926655D02*
X148463342Y-80785313D01*
X148463342Y-80785313D02*
X148694928Y-80642480D01*
X148694928Y-80642480D02*
X148933577Y-80498050D01*
X148933577Y-80498050D02*
X149209704Y-80330892D01*
X149209704Y-80330892D02*
X149465963Y-80172259D01*
X149465963Y-80172259D02*
X149587253Y-80095642D01*
X149587253Y-80095642D02*
X149704309Y-80020561D01*
X149704309Y-80020561D02*
X149817376Y-79946817D01*
X149817376Y-79946817D02*
X149926698Y-79874213D01*
X149926698Y-79874213D02*
X150032519Y-79802547D01*
X150032519Y-79802547D02*
X150135085Y-79731624D01*
X150135085Y-79731624D02*
X150234639Y-79661243D01*
X150234639Y-79661243D02*
X150331427Y-79591207D01*
X150331427Y-79591207D02*
X150425692Y-79521317D01*
X150425692Y-79521317D02*
X150517679Y-79451374D01*
X150517679Y-79451374D02*
X150607632Y-79381181D01*
X150607632Y-79381181D02*
X150695797Y-79310538D01*
X150695797Y-79310538D02*
X150782417Y-79239246D01*
X150782417Y-79239246D02*
X150867736Y-79167108D01*
X150867736Y-79167108D02*
X150952000Y-79093925D01*
X150952000Y-79093925D02*
X151035453Y-79019497D01*
X151035453Y-79019497D02*
X151118339Y-78943628D01*
X151118339Y-78943628D02*
X151200903Y-78866118D01*
X151200903Y-78866118D02*
X151283389Y-78786769D01*
X151283389Y-78786769D02*
X151366042Y-78705382D01*
X151366042Y-78705382D02*
X151449106Y-78621758D01*
X151449106Y-78621758D02*
X151532825Y-78535701D01*
X151532825Y-78535701D02*
X151617445Y-78447009D01*
X151617445Y-78447009D02*
X151703209Y-78355486D01*
X151703209Y-78355486D02*
X151790362Y-78260932D01*
X151790362Y-78260932D02*
X151879149Y-78163149D01*
X151879149Y-78163149D02*
X152062600Y-77957103D01*
X152062600Y-77957103D02*
X152187636Y-77813905D01*
X152187636Y-77813905D02*
X152303253Y-77679278D01*
X152303253Y-77679278D02*
X152406996Y-77556242D01*
X152406996Y-77556242D02*
X152496407Y-77447819D01*
X152496407Y-77447819D02*
X152569029Y-77357029D01*
X152569029Y-77357029D02*
X152622405Y-77286891D01*
X152622405Y-77286891D02*
X152641108Y-77260512D01*
X152641108Y-77260512D02*
X152654077Y-77240429D01*
X152654077Y-77240429D02*
X152661007Y-77227019D01*
X152661007Y-77227019D02*
X152662114Y-77222932D01*
X152662114Y-77222932D02*
X152661590Y-77220661D01*
X152661590Y-77220661D02*
X152656411Y-77217456D01*
X152656411Y-77217456D02*
X152646432Y-77213309D01*
X152646432Y-77213309D02*
X152613127Y-77202434D01*
X152613127Y-77202434D02*
X152563775Y-77188561D01*
X152563775Y-77188561D02*
X152500476Y-77172215D01*
X152500476Y-77172215D02*
X152340430Y-77134203D01*
X152340430Y-77134203D02*
X152149781Y-77092602D01*
X152149781Y-77092602D02*
X152046122Y-77069109D01*
X152046122Y-77069109D02*
X151937642Y-77041314D01*
X151937642Y-77041314D02*
X151827557Y-77010245D01*
X151827557Y-77010245D02*
X151719083Y-76976929D01*
X151719083Y-76976929D02*
X151615436Y-76942398D01*
X151615436Y-76942398D02*
X151519834Y-76907677D01*
X151519834Y-76907677D02*
X151435491Y-76873799D01*
X151435491Y-76873799D02*
X151398546Y-76857496D01*
X151398546Y-76857496D02*
X151365623Y-76841789D01*
X151365623Y-76841789D02*
X151275684Y-76795502D01*
X151275684Y-76795502D02*
X151238342Y-76774776D01*
X151238342Y-76774776D02*
X151205677Y-76755146D01*
X151205677Y-76755146D02*
X151177383Y-76736224D01*
X151177383Y-76736224D02*
X151153155Y-76717623D01*
X151153155Y-76717623D02*
X151132686Y-76698957D01*
X151132686Y-76698957D02*
X151115670Y-76679837D01*
X151115670Y-76679837D02*
X151101802Y-76659878D01*
X151101802Y-76659878D02*
X151090776Y-76638691D01*
X151090776Y-76638691D02*
X151082285Y-76615890D01*
X151082285Y-76615890D02*
X151076026Y-76591088D01*
X151076026Y-76591088D02*
X151071692Y-76563897D01*
X151071692Y-76563897D02*
X151068975Y-76533930D01*
X151068975Y-76533930D02*
X151067568Y-76500801D01*
X151067568Y-76500801D02*
X151067175Y-76464122D01*
X151067175Y-76464122D02*
X151067568Y-76426289D01*
X151067568Y-76426289D02*
X151069047Y-76392242D01*
X151069047Y-76392242D02*
X151072065Y-76361484D01*
X151072065Y-76361484D02*
X151077067Y-76333513D01*
X151077067Y-76333513D02*
X151084511Y-76307833D01*
X151084511Y-76307833D02*
X151094844Y-76283944D01*
X151094844Y-76283944D02*
X151108520Y-76261347D01*
X151108520Y-76261347D02*
X151125989Y-76239544D01*
X151125989Y-76239544D02*
X151147702Y-76218035D01*
X151147702Y-76218035D02*
X151174112Y-76196322D01*
X151174112Y-76196322D02*
X151205668Y-76173907D01*
X151205668Y-76173907D02*
X151242822Y-76150290D01*
X151242822Y-76150290D02*
X151286027Y-76124973D01*
X151286027Y-76124973D02*
X151335731Y-76097456D01*
X151335731Y-76097456D02*
X151456448Y-76033829D01*
X151456448Y-76033829D02*
X151559934Y-75979038D01*
X151559934Y-75979038D02*
X151607120Y-75952849D01*
X151607120Y-75952849D02*
X151651387Y-75927173D01*
X151651387Y-75927173D02*
X151692822Y-75901786D01*
X151692822Y-75901786D02*
X151731515Y-75876470D01*
X151731515Y-75876470D02*
X151767555Y-75851005D01*
X151767555Y-75851005D02*
X151801030Y-75825169D01*
X151801030Y-75825169D02*
X151832029Y-75798741D01*
X151832029Y-75798741D02*
X151860642Y-75771502D01*
X151860642Y-75771502D02*
X151886957Y-75743232D01*
X151886957Y-75743232D02*
X151911062Y-75713710D01*
X151911062Y-75713710D02*
X151933047Y-75682714D01*
X151933047Y-75682714D02*
X151952999Y-75650026D01*
X151952999Y-75650026D02*
X151971009Y-75615424D01*
X151971009Y-75615424D02*
X151987165Y-75578687D01*
X151987165Y-75578687D02*
X152001556Y-75539597D01*
X152001556Y-75539597D02*
X152014270Y-75497932D01*
X152014270Y-75497932D02*
X152025396Y-75453472D01*
X152025396Y-75453472D02*
X152035023Y-75405995D01*
X152035023Y-75405995D02*
X152043241Y-75355283D01*
X152043241Y-75355283D02*
X152050137Y-75301114D01*
X152050137Y-75301114D02*
X152055800Y-75243268D01*
X152055800Y-75243268D02*
X152060317Y-75181525D01*
X152060317Y-75181525D02*
X152063781Y-75115664D01*
X152063781Y-75115664D02*
X152066282Y-75045465D01*
X152066282Y-75045465D02*
X152068737Y-74891170D01*
X152068737Y-74891170D02*
X152068409Y-74716877D01*
X152068409Y-74716877D02*
X152065974Y-74520822D01*
X152065974Y-74520822D02*
X152063152Y-74262320D01*
X152063152Y-74262320D02*
X152063021Y-74148992D01*
X152063021Y-74148992D02*
X152063840Y-74045168D01*
X152063840Y-74045168D02*
X152065679Y-73950016D01*
X152065679Y-73950016D02*
X152068606Y-73862702D01*
X152068606Y-73862702D02*
X152072685Y-73782393D01*
X152072685Y-73782393D02*
X152077988Y-73708256D01*
X152077988Y-73708256D02*
X152084588Y-73639459D01*
X152084588Y-73639459D02*
X152092553Y-73575167D01*
X152092553Y-73575167D02*
X152101952Y-73514548D01*
X152101952Y-73514548D02*
X152112854Y-73456770D01*
X152112854Y-73456770D02*
X152125329Y-73400997D01*
X152125329Y-73400997D02*
X152139446Y-73346398D01*
X152139446Y-73346398D02*
X152155275Y-73292140D01*
X152155275Y-73292140D02*
X152172883Y-73237390D01*
X152172883Y-73237390D02*
X152210419Y-73130509D01*
X152210419Y-73130509D02*
X152250644Y-73025763D01*
X152250644Y-73025763D02*
X152293487Y-72923220D01*
X152293487Y-72923220D02*
X152338877Y-72822946D01*
X152338877Y-72822946D02*
X152386740Y-72725010D01*
X152386740Y-72725010D02*
X152437004Y-72629477D01*
X152437004Y-72629477D02*
X152489597Y-72536416D01*
X152489597Y-72536416D02*
X152544447Y-72445895D01*
X152544447Y-72445895D02*
X152601482Y-72357979D01*
X152601482Y-72357979D02*
X152660629Y-72272737D01*
X152660629Y-72272737D02*
X152721816Y-72190235D01*
X152721816Y-72190235D02*
X152784971Y-72110542D01*
X152784971Y-72110542D02*
X152850021Y-72033724D01*
X152850021Y-72033724D02*
X152916894Y-71959849D01*
X152916894Y-71959849D02*
X152985519Y-71888983D01*
X152985519Y-71888983D02*
X153055822Y-71821195D01*
X153055822Y-71821195D02*
X153127731Y-71756552D01*
X153127731Y-71756552D02*
X153201175Y-71695120D01*
X153201175Y-71695120D02*
X153276081Y-71636967D01*
X153276081Y-71636967D02*
X153352376Y-71582161D01*
X153352376Y-71582161D02*
X153429988Y-71530768D01*
X153429988Y-71530768D02*
X153508845Y-71482857D01*
X153508845Y-71482857D02*
X153588876Y-71438493D01*
X153588876Y-71438493D02*
X153670007Y-71397746D01*
X153670007Y-71397746D02*
X153752166Y-71360681D01*
X153752166Y-71360681D02*
X153835282Y-71327367D01*
X153835282Y-71327367D02*
X153919280Y-71297870D01*
X153919280Y-71297870D02*
X153961589Y-71284574D01*
X153961589Y-71284574D02*
X154004091Y-71272258D01*
X154004091Y-71272258D02*
X154046778Y-71260929D01*
X154046778Y-71260929D02*
X154089640Y-71250598D01*
X154089640Y-71250598D02*
X154132670Y-71241271D01*
X154132670Y-71241271D02*
X154175857Y-71232957D01*
X154175857Y-71232957D02*
X154219193Y-71225665D01*
X154219193Y-71225665D02*
X154262668Y-71219405D01*
X154262668Y-71219405D02*
X154306275Y-71214180D01*
X154306275Y-71214180D02*
X154350002Y-71210000D01*
X154350002Y-71210000D02*
X154421488Y-71203209D01*
X154421488Y-71203209D02*
X154489217Y-71195180D01*
X154489217Y-71195180D02*
X154551636Y-71186210D01*
X154551636Y-71186210D02*
X154607187Y-71176594D01*
X154607187Y-71176594D02*
X154654314Y-71166631D01*
X154654314Y-71166631D02*
X154691458Y-71156617D01*
X154691458Y-71156617D02*
X154705801Y-71151681D01*
X154705801Y-71151681D02*
X154717065Y-71146844D01*
X154717065Y-71146844D02*
X154725055Y-71142144D01*
X154725055Y-71142144D02*
X154729579Y-71137616D01*
X154729579Y-71137616D02*
X154731628Y-71131377D01*
X154731628Y-71131377D02*
X154732361Y-71121643D01*
X154732361Y-71121643D02*
X154731837Y-71108625D01*
X154731837Y-71108625D02*
X154730083Y-71092529D01*
X154730083Y-71092529D02*
X154723127Y-71051929D01*
X154723127Y-71051929D02*
X154711904Y-71001496D01*
X154711904Y-71001496D02*
X154696813Y-70942886D01*
X154696813Y-70942886D02*
X154678251Y-70877749D01*
X154678251Y-70877749D02*
X154656618Y-70807740D01*
X154656618Y-70807740D02*
X154632312Y-70734513D01*
X154632312Y-70734513D02*
X154618399Y-70691864D01*
X154618399Y-70691864D02*
X154605158Y-70646984D01*
X154605158Y-70646984D02*
X154592616Y-70600067D01*
X154592616Y-70600067D02*
X154580803Y-70551309D01*
X154580803Y-70551309D02*
X154569749Y-70500901D01*
X154569749Y-70500901D02*
X154559482Y-70449041D01*
X154559482Y-70449041D02*
X154550031Y-70395923D01*
X154550031Y-70395923D02*
X154541426Y-70341740D01*
X154541426Y-70341740D02*
X154533694Y-70286687D01*
X154533694Y-70286687D02*
X154526867Y-70230960D01*
X154526867Y-70230960D02*
X154520975Y-70174752D01*
X154520975Y-70174752D02*
X154516038Y-70118257D01*
X154516038Y-70118257D02*
X154512097Y-70061671D01*
X154512097Y-70061671D02*
X154509177Y-70005187D01*
X154509177Y-70005187D02*
X154507305Y-69949001D01*
X154507305Y-69949001D02*
X154506506Y-69893307D01*
X154506506Y-69893307D02*
X154504699Y-69745911D01*
X154504699Y-69745911D02*
X154502669Y-69683234D01*
X154502669Y-69683234D02*
X154499605Y-69626875D01*
X154499605Y-69626875D02*
X154495291Y-69576059D01*
X154495291Y-69576059D02*
X154489517Y-69530015D01*
X154489517Y-69530015D02*
X154482065Y-69487969D01*
X154482065Y-69487969D02*
X154472723Y-69449149D01*
X154472723Y-69449149D02*
X154461277Y-69412781D01*
X154461277Y-69412781D02*
X154447512Y-69378094D01*
X154447512Y-69378094D02*
X154431216Y-69344313D01*
X154431216Y-69344313D02*
X154412175Y-69310666D01*
X154412175Y-69310666D02*
X154390174Y-69276381D01*
X154390174Y-69276381D02*
X154365000Y-69240684D01*
X154365000Y-69240684D02*
X154336438Y-69202803D01*
X154336438Y-69202803D02*
X154304276Y-69161965D01*
X154304276Y-69161965D02*
X154281171Y-69132243D01*
X154281171Y-69132243D02*
X154258720Y-69101710D01*
X154258720Y-69101710D02*
X154236928Y-69070383D01*
X154236928Y-69070383D02*
X154215801Y-69038279D01*
X154215801Y-69038279D02*
X154175559Y-68971808D01*
X154175559Y-68971808D02*
X154138037Y-68902434D01*
X154138037Y-68902434D02*
X154103278Y-68830291D01*
X154103278Y-68830291D02*
X154071322Y-68755518D01*
X154071322Y-68755518D02*
X154042212Y-68678248D01*
X154042212Y-68678248D02*
X154015988Y-68598620D01*
X154015988Y-68598620D02*
X153992694Y-68516768D01*
X153992694Y-68516768D02*
X153972369Y-68432829D01*
X153972369Y-68432829D02*
X153955058Y-68346939D01*
X153955058Y-68346939D02*
X153940800Y-68259234D01*
X153940800Y-68259234D02*
X153929638Y-68169851D01*
X153929638Y-68169851D02*
X153921613Y-68078924D01*
X153921613Y-68078924D02*
X153916769Y-67986592D01*
X153916769Y-67986592D02*
X153915145Y-67892989D01*
X153915145Y-67892989D02*
X153913613Y-67791554D01*
X153913613Y-67791554D02*
X153911629Y-67745930D01*
X153911629Y-67745930D02*
X153908781Y-67703453D01*
X153908781Y-67703453D02*
X153905017Y-67663936D01*
X153905017Y-67663936D02*
X153900296Y-67627194D01*
X153900296Y-67627194D02*
X153894574Y-67593041D01*
X153894574Y-67593041D02*
X153887803Y-67561290D01*
X153887803Y-67561290D02*
X153879940Y-67531754D01*
X153879940Y-67531754D02*
X153870940Y-67504248D01*
X153870940Y-67504248D02*
X153860761Y-67478585D01*
X153860761Y-67478585D02*
X153849356Y-67454579D01*
X153849356Y-67454579D02*
X153836681Y-67432044D01*
X153836681Y-67432044D02*
X153822692Y-67410793D01*
X153822692Y-67410793D02*
X153807344Y-67390639D01*
X153807344Y-67390639D02*
X153790594Y-67371398D01*
X153790594Y-67371398D02*
X153776466Y-67355241D01*
X153776466Y-67355241D02*
X153762560Y-67337526D01*
X153762560Y-67337526D02*
X153748892Y-67318310D01*
X153748892Y-67318310D02*
X153735475Y-67297647D01*
X153735475Y-67297647D02*
X153709456Y-67252209D01*
X153709456Y-67252209D02*
X153684623Y-67201660D01*
X153684623Y-67201660D02*
X153661095Y-67146447D01*
X153661095Y-67146447D02*
X153638989Y-67087019D01*
X153638989Y-67087019D02*
X153618426Y-67023823D01*
X153618426Y-67023823D02*
X153599523Y-66957307D01*
X153599523Y-66957307D02*
X153582399Y-66887919D01*
X153582399Y-66887919D02*
X153567173Y-66816107D01*
X153567173Y-66816107D02*
X153553965Y-66742319D01*
X153553965Y-66742319D02*
X153542891Y-66667001D01*
X153542891Y-66667001D02*
X153534072Y-66590604D01*
X153534072Y-66590604D02*
X153527623Y-66513573D01*
X153527623Y-66513573D02*
X153523668Y-66436357D01*
X153523668Y-66436357D02*
X153522326Y-66359404D01*
X153522326Y-66359404D02*
X153521803Y-66315753D01*
X153521803Y-66315753D02*
X153520205Y-66274718D01*
X153520205Y-66274718D02*
X153517409Y-66235997D01*
X153517409Y-66235997D02*
X153513305Y-66199284D01*
X153513305Y-66199284D02*
X153507785Y-66164280D01*
X153507785Y-66164280D02*
X153500738Y-66130681D01*
X153500738Y-66130681D02*
X153492053Y-66098182D01*
X153492053Y-66098182D02*
X153481623Y-66066483D01*
X153481623Y-66066483D02*
X153469338Y-66035279D01*
X153469338Y-66035279D02*
X153455089Y-66004268D01*
X153455089Y-66004268D02*
X153438766Y-65973148D01*
X153438766Y-65973148D02*
X153420260Y-65941614D01*
X153420260Y-65941614D02*
X153399461Y-65909365D01*
X153399461Y-65909365D02*
X153376261Y-65876098D01*
X153376261Y-65876098D02*
X153350550Y-65841509D01*
X153350550Y-65841509D02*
X153322218Y-65805296D01*
X153322218Y-65805296D02*
X153279743Y-65748991D01*
X153279743Y-65748991D02*
X153239110Y-65688794D01*
X153239110Y-65688794D02*
X153200443Y-65625075D01*
X153200443Y-65625075D02*
X153163867Y-65558203D01*
X153163867Y-65558203D02*
X153129505Y-65488550D01*
X153129505Y-65488550D02*
X153097481Y-65416483D01*
X153097481Y-65416483D02*
X153067918Y-65342372D01*
X153067918Y-65342372D02*
X153040941Y-65266588D01*
X153040941Y-65266588D02*
X153016675Y-65189499D01*
X153016675Y-65189499D02*
X152995242Y-65111476D01*
X152995242Y-65111476D02*
X152976765Y-65032888D01*
X152976765Y-65032888D02*
X152961371Y-64954105D01*
X152961371Y-64954105D02*
X152949182Y-64875496D01*
X152949182Y-64875496D02*
X152940322Y-64797431D01*
X152940322Y-64797431D02*
X152934914Y-64720280D01*
X152934914Y-64720280D02*
X152933081Y-64644411D01*
X152933081Y-64644411D02*
X152932406Y-64605901D01*
X152932406Y-64605901D02*
X152930331Y-64568429D01*
X152930331Y-64568429D02*
X152926769Y-64531780D01*
X152926769Y-64531780D02*
X152921650Y-64495736D01*
X152921650Y-64495736D02*
X152914887Y-64460081D01*
X152914887Y-64460081D02*
X152906405Y-64424596D01*
X152906405Y-64424596D02*
X152896125Y-64389067D01*
X152896125Y-64389067D02*
X152883966Y-64353275D01*
X152883966Y-64353275D02*
X152869851Y-64317004D01*
X152869851Y-64317004D02*
X152853700Y-64280037D01*
X152853700Y-64280037D02*
X152835434Y-64242156D01*
X152835434Y-64242156D02*
X152814974Y-64203144D01*
X152814974Y-64203144D02*
X152792241Y-64162786D01*
X152792241Y-64162786D02*
X152767155Y-64120864D01*
X152767155Y-64120864D02*
X152739638Y-64077161D01*
X152739638Y-64077161D02*
X152709611Y-64031460D01*
X152709611Y-64031460D02*
X152684156Y-63992067D01*
X152684156Y-63992067D02*
X152658994Y-63950425D01*
X152658994Y-63950425D02*
X152634206Y-63906732D01*
X152634206Y-63906732D02*
X152609875Y-63861184D01*
X152609875Y-63861184D02*
X152586078Y-63813974D01*
X152586078Y-63813974D02*
X152562899Y-63765299D01*
X152562899Y-63765299D02*
X152540417Y-63715356D01*
X152540417Y-63715356D02*
X152518714Y-63664339D01*
X152518714Y-63664339D02*
X152497872Y-63612444D01*
X152497872Y-63612444D02*
X152477969Y-63559868D01*
X152477969Y-63559868D02*
X152459087Y-63506805D01*
X152459087Y-63506805D02*
X152441308Y-63453452D01*
X152441308Y-63453452D02*
X152424712Y-63400003D01*
X152424712Y-63400003D02*
X152409380Y-63346655D01*
X152409380Y-63346655D02*
X152395393Y-63293603D01*
X152395393Y-63293603D02*
X152382832Y-63241044D01*
X152382832Y-63241044D02*
X152371171Y-63186992D01*
X152371171Y-63186992D02*
X152359486Y-63127974D01*
X152359486Y-63127974D02*
X152336192Y-62996621D01*
X152336192Y-62996621D02*
X152313240Y-62850153D01*
X152313240Y-62850153D02*
X152290922Y-62691739D01*
X152290922Y-62691739D02*
X152269527Y-62524548D01*
X152269527Y-62524548D02*
X152249347Y-62351748D01*
X152249347Y-62351748D02*
X152230672Y-62176508D01*
X152230672Y-62176508D02*
X152213793Y-62001996D01*
X152213793Y-62001996D02*
X152199001Y-61831381D01*
X152199001Y-61831381D02*
X152186587Y-61667832D01*
X152186587Y-61667832D02*
X152176842Y-61514517D01*
X152176842Y-61514517D02*
X152170055Y-61374605D01*
X152170055Y-61374605D02*
X152166520Y-61251265D01*
X152166520Y-61251265D02*
X152166524Y-61147665D01*
X152166524Y-61147665D02*
X152167944Y-61104257D01*
X152167944Y-61104257D02*
X152170360Y-61066973D01*
X152170360Y-61066973D02*
X152173804Y-61036209D01*
X152173804Y-61036209D02*
X152178315Y-61012359D01*
X152178315Y-61012359D02*
X152182826Y-60996473D01*
X152182826Y-60996473D02*
X152188299Y-60980982D01*
X152188299Y-60980982D02*
X152194702Y-60965903D01*
X152194702Y-60965903D02*
X152202002Y-60951254D01*
X152202002Y-60951254D02*
X152219154Y-60923314D01*
X152219154Y-60923314D02*
X152239479Y-60897300D01*
X152239479Y-60897300D02*
X152262703Y-60873350D01*
X152262703Y-60873350D02*
X152288550Y-60851601D01*
X152288550Y-60851601D02*
X152316745Y-60832190D01*
X152316745Y-60832190D02*
X152347014Y-60815256D01*
X152347014Y-60815256D02*
X152379082Y-60800937D01*
X152379082Y-60800937D02*
X152412674Y-60789371D01*
X152412674Y-60789371D02*
X152447515Y-60780695D01*
X152447515Y-60780695D02*
X152483331Y-60775048D01*
X152483331Y-60775048D02*
X152519845Y-60772566D01*
X152519845Y-60772566D02*
X152556785Y-60773389D01*
X152556785Y-60773389D02*
X152593874Y-60777654D01*
X152593874Y-60777654D02*
X152630837Y-60785495D01*
X152630837Y-60785495D02*
X152647525Y-60790590D01*
X152647525Y-60790590D02*
X152665138Y-60797318D01*
X152665138Y-60797318D02*
X152683639Y-60805633D01*
X152683639Y-60805633D02*
X152702990Y-60815487D01*
X152702990Y-60815487D02*
X152744090Y-60839629D01*
X152744090Y-60839629D02*
X152788132Y-60869367D01*
X152788132Y-60869367D02*
X152834813Y-60904327D01*
X152834813Y-60904327D02*
X152883828Y-60944131D01*
X152883828Y-60944131D02*
X152934873Y-60988407D01*
X152934873Y-60988407D02*
X152987644Y-61036778D01*
X152987644Y-61036778D02*
X153041836Y-61088868D01*
X153041836Y-61088868D02*
X153097145Y-61144302D01*
X153097145Y-61144302D02*
X153153267Y-61202706D01*
X153153267Y-61202706D02*
X153209897Y-61263703D01*
X153209897Y-61263703D02*
X153266730Y-61326919D01*
X153266730Y-61326919D02*
X153323464Y-61391978D01*
X153323464Y-61391978D02*
X153379793Y-61458504D01*
X153379793Y-61458504D02*
X153435414Y-61526123D01*
X153435414Y-61526123D02*
X153490020Y-61594458D01*
X153490020Y-61594458D02*
X153543310Y-61663136D01*
X153543310Y-61663136D02*
X153594977Y-61731780D01*
X153594977Y-61731780D02*
X153644719Y-61800014D01*
X153644719Y-61800014D02*
X153692230Y-61867464D01*
X153692230Y-61867464D02*
X153737206Y-61933755D01*
X153737206Y-61933755D02*
X153779343Y-61998511D01*
X153779343Y-61998511D02*
X153818336Y-62061355D01*
X153818336Y-62061355D02*
X153853882Y-62121915D01*
X153853882Y-62121915D02*
X153885676Y-62179813D01*
X153885676Y-62179813D02*
X153913413Y-62234675D01*
X153913413Y-62234675D02*
X153936789Y-62286124D01*
X153936789Y-62286124D02*
X153955501Y-62333787D01*
X153955501Y-62333787D02*
X153969243Y-62377287D01*
X153969243Y-62377287D02*
X153974153Y-62397359D01*
X153974153Y-62397359D02*
X153977708Y-62416249D01*
X153977708Y-62416249D02*
X153979868Y-62433911D01*
X153979868Y-62433911D02*
X153980595Y-62450298D01*
X153980595Y-62450298D02*
X153981931Y-62459608D01*
X153981931Y-62459608D02*
X153985846Y-62471512D01*
X153985846Y-62471512D02*
X153992209Y-62485827D01*
X153992209Y-62485827D02*
X154000891Y-62502371D01*
X154000891Y-62502371D02*
X154024680Y-62541408D01*
X154024680Y-62541408D02*
X154056154Y-62587158D01*
X154056154Y-62587158D02*
X154094262Y-62638152D01*
X154094262Y-62638152D02*
X154137946Y-62692925D01*
X154137946Y-62692925D02*
X154186152Y-62750009D01*
X154186152Y-62750009D02*
X154237825Y-62807937D01*
X154237825Y-62807937D02*
X154290063Y-62866573D01*
X154290063Y-62866573D02*
X154340371Y-62926394D01*
X154340371Y-62926394D02*
X154388666Y-62987250D01*
X154388666Y-62987250D02*
X154434864Y-63048991D01*
X154434864Y-63048991D02*
X154478882Y-63111467D01*
X154478882Y-63111467D02*
X154520634Y-63174528D01*
X154520634Y-63174528D02*
X154560037Y-63238024D01*
X154560037Y-63238024D02*
X154597009Y-63301805D01*
X154597009Y-63301805D02*
X154631464Y-63365721D01*
X154631464Y-63365721D02*
X154663318Y-63429623D01*
X154663318Y-63429623D02*
X154692487Y-63493360D01*
X154692487Y-63493360D02*
X154718889Y-63556782D01*
X154718889Y-63556782D02*
X154742439Y-63619739D01*
X154742439Y-63619739D02*
X154763053Y-63682082D01*
X154763053Y-63682082D02*
X154780647Y-63743659D01*
X154780647Y-63743659D02*
X154795137Y-63804323D01*
X154795137Y-63804323D02*
X154800931Y-63826926D01*
X154800931Y-63826926D02*
X154808953Y-63851447D01*
X154808953Y-63851447D02*
X154819062Y-63877648D01*
X154819062Y-63877648D02*
X154831114Y-63905295D01*
X154831114Y-63905295D02*
X154844966Y-63934151D01*
X154844966Y-63934151D02*
X154860475Y-63963981D01*
X154860475Y-63963981D02*
X154895886Y-64025621D01*
X154895886Y-64025621D02*
X154936200Y-64088329D01*
X154936200Y-64088329D02*
X154980268Y-64150219D01*
X154980268Y-64150219D02*
X155026942Y-64209406D01*
X155026942Y-64209406D02*
X155050898Y-64237397D01*
X155050898Y-64237397D02*
X155075074Y-64264005D01*
X155075074Y-64264005D02*
X155125976Y-64320520D01*
X155125976Y-64320520D02*
X155174838Y-64379260D01*
X155174838Y-64379260D02*
X155221490Y-64439879D01*
X155221490Y-64439879D02*
X155265766Y-64502032D01*
X155265766Y-64502032D02*
X155307495Y-64565371D01*
X155307495Y-64565371D02*
X155346511Y-64629553D01*
X155346511Y-64629553D02*
X155382645Y-64694231D01*
X155382645Y-64694231D02*
X155415730Y-64759059D01*
X155415730Y-64759059D02*
X155445597Y-64823691D01*
X155445597Y-64823691D02*
X155472077Y-64887782D01*
X155472077Y-64887782D02*
X155495002Y-64950985D01*
X155495002Y-64950985D02*
X155514206Y-65012955D01*
X155514206Y-65012955D02*
X155529518Y-65073346D01*
X155529518Y-65073346D02*
X155540772Y-65131813D01*
X155540772Y-65131813D02*
X155544825Y-65160216D01*
X155544825Y-65160216D02*
X155547797Y-65188009D01*
X155547797Y-65188009D02*
X155549676Y-65215147D01*
X155549676Y-65215147D02*
X155550429Y-65241589D01*
X155550429Y-65241589D02*
X155551509Y-65268946D01*
X155551509Y-65268946D02*
X155554422Y-65295919D01*
X155554422Y-65295919D02*
X155559267Y-65322666D01*
X155559267Y-65322666D02*
X155566134Y-65349347D01*
X155566134Y-65349347D02*
X155575123Y-65376121D01*
X155575123Y-65376121D02*
X155586329Y-65403145D01*
X155586329Y-65403145D02*
X155599847Y-65430580D01*
X155599847Y-65430580D02*
X155615776Y-65458584D01*
X155615776Y-65458584D02*
X155634210Y-65487316D01*
X155634210Y-65487316D02*
X155655247Y-65516935D01*
X155655247Y-65516935D02*
X155678981Y-65547600D01*
X155678981Y-65547600D02*
X155705510Y-65579470D01*
X155705510Y-65579470D02*
X155734929Y-65612703D01*
X155734929Y-65612703D02*
X155767335Y-65647459D01*
X155767335Y-65647459D02*
X155841490Y-65722175D01*
X155841490Y-65722175D02*
X155894091Y-65776169D01*
X155894091Y-65776169D02*
X155944741Y-65833604D01*
X155944741Y-65833604D02*
X155993241Y-65894063D01*
X155993241Y-65894063D02*
X156039391Y-65957126D01*
X156039391Y-65957126D02*
X156082993Y-66022376D01*
X156082993Y-66022376D02*
X156123849Y-66089393D01*
X156123849Y-66089393D02*
X156161757Y-66157761D01*
X156161757Y-66157761D02*
X156196520Y-66227059D01*
X156196520Y-66227059D02*
X156227939Y-66296871D01*
X156227939Y-66296871D02*
X156255814Y-66366778D01*
X156255814Y-66366778D02*
X156279947Y-66436361D01*
X156279947Y-66436361D02*
X156300138Y-66505201D01*
X156300138Y-66505201D02*
X156316190Y-66572882D01*
X156316190Y-66572882D02*
X156322599Y-66606156D01*
X156322599Y-66606156D02*
X156327902Y-66638984D01*
X156327902Y-66638984D02*
X156332066Y-66671312D01*
X156332066Y-66671312D02*
X156335071Y-66703088D01*
X156335071Y-66703088D02*
X156336891Y-66734261D01*
X156336891Y-66734261D02*
X156337480Y-66764777D01*
X156337480Y-66764777D02*
X156338724Y-66783182D01*
X156338724Y-66783182D02*
X156342423Y-66802959D01*
X156342423Y-66802959D02*
X156348525Y-66824031D01*
X156348525Y-66824031D02*
X156356973Y-66846317D01*
X156356973Y-66846317D02*
X156367714Y-66869737D01*
X156367714Y-66869737D02*
X156380692Y-66894212D01*
X156380692Y-66894212D02*
X156395852Y-66919662D01*
X156395852Y-66919662D02*
X156413140Y-66946007D01*
X156413140Y-66946007D02*
X156432502Y-66973168D01*
X156432502Y-66973168D02*
X156453883Y-67001065D01*
X156453883Y-67001065D02*
X156477228Y-67029618D01*
X156477228Y-67029618D02*
X156502483Y-67058748D01*
X156502483Y-67058748D02*
X156529593Y-67088375D01*
X156529593Y-67088375D02*
X156558504Y-67118419D01*
X156558504Y-67118419D02*
X156589161Y-67148801D01*
X156589161Y-67148801D02*
X156621509Y-67179441D01*
X156621509Y-67179441D02*
X156651059Y-67207626D01*
X156651059Y-67207626D02*
X156680988Y-67237715D01*
X156680988Y-67237715D02*
X156741162Y-67302522D01*
X156741162Y-67302522D02*
X156800377Y-67371699D01*
X156800377Y-67371699D02*
X156856982Y-67443079D01*
X156856982Y-67443079D02*
X156909327Y-67514498D01*
X156909327Y-67514498D02*
X156955758Y-67583790D01*
X156955758Y-67583790D02*
X156976240Y-67616962D01*
X156976240Y-67616962D02*
X156994624Y-67648790D01*
X156994624Y-67648790D02*
X157010703Y-67679004D01*
X157010703Y-67679004D02*
X157024273Y-67707333D01*
X157024273Y-67707333D02*
X157046925Y-67755925D01*
X157046925Y-67755925D02*
X157069116Y-67799814D01*
X157069116Y-67799814D02*
X157090707Y-67838903D01*
X157090707Y-67838903D02*
X157111560Y-67873095D01*
X157111560Y-67873095D02*
X157131538Y-67902297D01*
X157131538Y-67902297D02*
X157150502Y-67926411D01*
X157150502Y-67926411D02*
X157168314Y-67945343D01*
X157168314Y-67945343D02*
X157184837Y-67958996D01*
X157184837Y-67958996D02*
X157192572Y-67963814D01*
X157192572Y-67963814D02*
X157199933Y-67967276D01*
X157199933Y-67967276D02*
X157206903Y-67969369D01*
X157206903Y-67969369D02*
X157213463Y-67970086D01*
X157213463Y-67970086D02*
X157219598Y-67969408D01*
X157219598Y-67969408D02*
X157225294Y-67967328D01*
X157225294Y-67967328D02*
X157230525Y-67963833D01*
X157230525Y-67963833D02*
X157235278Y-67958910D01*
X157235278Y-67958910D02*
X157239540Y-67952546D01*
X157239540Y-67952546D02*
X157243285Y-67944733D01*
X157243285Y-67944733D02*
X157249177Y-67924706D01*
X157249177Y-67924706D02*
X157252811Y-67898732D01*
X157252811Y-67898732D02*
X157254055Y-67866713D01*
X157254055Y-67866713D02*
X157255253Y-67854781D01*
X157255253Y-67854781D02*
X157258768Y-67840821D01*
X157258768Y-67840821D02*
X157264484Y-67825006D01*
X157264484Y-67825006D02*
X157272278Y-67807507D01*
X157272278Y-67807507D02*
X157282034Y-67788499D01*
X157282034Y-67788499D02*
X157293633Y-67768155D01*
X157293633Y-67768155D02*
X157321889Y-67724149D01*
X157321889Y-67724149D02*
X157356097Y-67676874D01*
X157356097Y-67676874D02*
X157395312Y-67627712D01*
X157395312Y-67627712D02*
X157438584Y-67578049D01*
X157438584Y-67578049D02*
X157484969Y-67529268D01*
X157484969Y-67529268D02*
X157557402Y-67458206D01*
X157557402Y-67458206D02*
X157589124Y-67429063D01*
X157589124Y-67429063D02*
X157618634Y-67403884D01*
X157618634Y-67403884D02*
X157646517Y-67382452D01*
X157646517Y-67382452D02*
X157673361Y-67364544D01*
X157673361Y-67364544D02*
X157699752Y-67349940D01*
X157699752Y-67349940D02*
X157726278Y-67338421D01*
X157726278Y-67338421D02*
X157753524Y-67329766D01*
X157753524Y-67329766D02*
X157782080Y-67323757D01*
X157782080Y-67323757D02*
X157812529Y-67320170D01*
X157812529Y-67320170D02*
X157845461Y-67318788D01*
X157845461Y-67318788D02*
X157881461Y-67319380D01*
X157881461Y-67319380D02*
X157921117Y-67321743D01*
X157921117Y-67321743D02*
X158013742Y-67330878D01*
X158013742Y-67330878D02*
X158066177Y-67338664D01*
X158066177Y-67338664D02*
X158123362Y-67350609D01*
X158123362Y-67350609D02*
X158185073Y-67366583D01*
X158185073Y-67366583D02*
X158251083Y-67386457D01*
X158251083Y-67386457D02*
X158321168Y-67410101D01*
X158321168Y-67410101D02*
X158395101Y-67437389D01*
X158395101Y-67437389D02*
X158472659Y-67468188D01*
X158472659Y-67468188D02*
X158553613Y-67502370D01*
X158553613Y-67502370D02*
X158637741Y-67539807D01*
X158637741Y-67539807D02*
X158724816Y-67580369D01*
X158724816Y-67580369D02*
X158814613Y-67623927D01*
X158814613Y-67623927D02*
X158906905Y-67670351D01*
X158906905Y-67670351D02*
X159001469Y-67719513D01*
X159001469Y-67719513D02*
X159098078Y-67771284D01*
X159098078Y-67771284D02*
X159196508Y-67825533D01*
X159196508Y-67825533D02*
X159296532Y-67882132D01*
X159296532Y-67882132D02*
X159397925Y-67940953D01*
X159397925Y-67940953D02*
X159500462Y-68001864D01*
X159500462Y-68001864D02*
X159603918Y-68064738D01*
X159603918Y-68064738D02*
X159708066Y-68129446D01*
X159708066Y-68129446D02*
X159812682Y-68195858D01*
X159812682Y-68195858D02*
X159917539Y-68263844D01*
X159917539Y-68263844D02*
X160022414Y-68333276D01*
X160022414Y-68333276D02*
X160127079Y-68404024D01*
X160127079Y-68404024D02*
X160231311Y-68475960D01*
X160231311Y-68475960D02*
X160334883Y-68548955D01*
X160334883Y-68548955D02*
X160437570Y-68622878D01*
X160437570Y-68622878D02*
X160539146Y-68697601D01*
X160539146Y-68697601D02*
X160639387Y-68772994D01*
X160639387Y-68772994D02*
X160738066Y-68848929D01*
X160738066Y-68848929D02*
X160834958Y-68925277D01*
X160834958Y-68925277D02*
X160929838Y-69001907D01*
X160929838Y-69001907D02*
X160988465Y-69049185D01*
X160988465Y-69049185D02*
X161044987Y-69093343D01*
X161044987Y-69093343D02*
X161099643Y-69134511D01*
X161099643Y-69134511D02*
X161152669Y-69172821D01*
X161152669Y-69172821D02*
X161204302Y-69208407D01*
X161204302Y-69208407D02*
X161254781Y-69241401D01*
X161254781Y-69241401D02*
X161304341Y-69271933D01*
X161304341Y-69271933D02*
X161353220Y-69300137D01*
X161353220Y-69300137D02*
X161401656Y-69326144D01*
X161401656Y-69326144D02*
X161449885Y-69350088D01*
X161449885Y-69350088D02*
X161498146Y-69372099D01*
X161498146Y-69372099D02*
X161546674Y-69392310D01*
X161546674Y-69392310D02*
X161595707Y-69410853D01*
X161595707Y-69410853D02*
X161645483Y-69427860D01*
X161645483Y-69427860D02*
X161696238Y-69443464D01*
X161696238Y-69443464D02*
X161748211Y-69457797D01*
X161748211Y-69457797D02*
X161853394Y-69486538D01*
X161853394Y-69486538D02*
X161955952Y-69517174D01*
X161955952Y-69517174D02*
X162055850Y-69549690D01*
X162055850Y-69549690D02*
X162153054Y-69584068D01*
X162153054Y-69584068D02*
X162247531Y-69620291D01*
X162247531Y-69620291D02*
X162339246Y-69658342D01*
X162339246Y-69658342D02*
X162428165Y-69698203D01*
X162428165Y-69698203D02*
X162514254Y-69739858D01*
X162514254Y-69739858D02*
X162597479Y-69783290D01*
X162597479Y-69783290D02*
X162677805Y-69828481D01*
X162677805Y-69828481D02*
X162755199Y-69875414D01*
X162755199Y-69875414D02*
X162829627Y-69924072D01*
X162829627Y-69924072D02*
X162901055Y-69974438D01*
X162901055Y-69974438D02*
X162969447Y-70026495D01*
X162969447Y-70026495D02*
X163034772Y-70080225D01*
X163034772Y-70080225D02*
X163096993Y-70135612D01*
X163096993Y-70135612D02*
X163384798Y-70402307D01*
X163384798Y-70402307D02*
X163888856Y-70205541D01*
X163888856Y-70205541D02*
X163948575Y-70182761D01*
X163948575Y-70182761D02*
X164008712Y-70160875D01*
X164008712Y-70160875D02*
X164130093Y-70119805D01*
X164130093Y-70119805D02*
X164252699Y-70082372D01*
X164252699Y-70082372D02*
X164376227Y-70048616D01*
X164376227Y-70048616D02*
X164500377Y-70018577D01*
X164500377Y-70018577D02*
X164624847Y-69992296D01*
X164624847Y-69992296D02*
X164749335Y-69969814D01*
X164749335Y-69969814D02*
X164873540Y-69951172D01*
X164873540Y-69951172D02*
X164997160Y-69936410D01*
X164997160Y-69936410D02*
X165119895Y-69925569D01*
X165119895Y-69925569D02*
X165241442Y-69918689D01*
X165241442Y-69918689D02*
X165301677Y-69916747D01*
X165301677Y-69916747D02*
X165361501Y-69915813D01*
X165361501Y-69915813D02*
X165420878Y-69915879D01*
X165420878Y-69915879D02*
X165479769Y-69916971D01*
X165479769Y-69916971D02*
X165538138Y-69919084D01*
X165538138Y-69919084D02*
X165595946Y-69922223D01*
X165595946Y-69922223D02*
X165653155Y-69926390D01*
X165653155Y-69926390D02*
X165709729Y-69931596D01*
X165709729Y-69931596D02*
X165765629Y-69937842D01*
X165765629Y-69937842D02*
X165820817Y-69945133D01*
X165820817Y-69945133D02*
X165892821Y-69955947D01*
X165892821Y-69955947D02*
X165963733Y-69967722D01*
X165963733Y-69967722D02*
X166033644Y-69980500D01*
X166033644Y-69980500D02*
X166102647Y-69994323D01*
X166102647Y-69994323D02*
X166170831Y-70009235D01*
X166170831Y-70009235D02*
X166238289Y-70025277D01*
X166238289Y-70025277D02*
X166305112Y-70042493D01*
X166305112Y-70042493D02*
X166371391Y-70060925D01*
X166371391Y-70060925D02*
X166437217Y-70080615D01*
X166437217Y-70080615D02*
X166502682Y-70101607D01*
X166502682Y-70101607D02*
X166567876Y-70123943D01*
X166567876Y-70123943D02*
X166632892Y-70147665D01*
X166632892Y-70147665D02*
X166697820Y-70172816D01*
X166697820Y-70172816D02*
X166762752Y-70199438D01*
X166762752Y-70199438D02*
X166827778Y-70227575D01*
X166827778Y-70227575D02*
X166892992Y-70257268D01*
X166892992Y-70257268D02*
X166958483Y-70288561D01*
X166958483Y-70288561D02*
X167024343Y-70321496D01*
X167024343Y-70321496D02*
X167090663Y-70356116D01*
X167090663Y-70356116D02*
X167157535Y-70392462D01*
X167157535Y-70392462D02*
X167225049Y-70430578D01*
X167225049Y-70430578D02*
X167293298Y-70470507D01*
X167293298Y-70470507D02*
X167362372Y-70512291D01*
X167362372Y-70512291D02*
X167432362Y-70555972D01*
X167432362Y-70555972D02*
X167503361Y-70601593D01*
X167503361Y-70601593D02*
X167575459Y-70649198D01*
X167575459Y-70649198D02*
X167648747Y-70698827D01*
X167648747Y-70698827D02*
X167723317Y-70750524D01*
X167723317Y-70750524D02*
X167876669Y-70860293D01*
X167876669Y-70860293D02*
X168036243Y-70978845D01*
X168036243Y-70978845D02*
X168506944Y-71334352D01*
X168506944Y-71334352D02*
X168896804Y-71232793D01*
X168896804Y-71232793D02*
X168989009Y-71209774D01*
X168989009Y-71209774D02*
X169078964Y-71189348D01*
X169078964Y-71189348D02*
X169166688Y-71171524D01*
X169166688Y-71171524D02*
X169252204Y-71156307D01*
X169252204Y-71156307D02*
X169335531Y-71143703D01*
X169335531Y-71143703D02*
X169416691Y-71133719D01*
X169416691Y-71133719D02*
X169495705Y-71126361D01*
X169495705Y-71126361D02*
X169572595Y-71121636D01*
X169572595Y-71121636D02*
X169647381Y-71119549D01*
X169647381Y-71119549D02*
X169720083Y-71120076D01*
X169720083Y-71120076D02*
X169790724Y-71123288D01*
X169790724Y-71123288D02*
X169859325Y-71129158D01*
X169859325Y-71129158D02*
X169925905Y-71137690D01*
X169925905Y-71137690D02*
X169990488Y-71148891D01*
X169990488Y-71148891D02*
X170053093Y-71162770D01*
X170053093Y-71162770D02*
X170113742Y-71179331D01*
X170113742Y-71179331D02*
X170172455Y-71198582D01*
X170172455Y-71198582D02*
X170229255Y-71220528D01*
X170229255Y-71220528D02*
X170284161Y-71245176D01*
X170284161Y-71245176D02*
X170337195Y-71272532D01*
X170337195Y-71272532D02*
X170388378Y-71302603D01*
X170388378Y-71302603D02*
X170437731Y-71335396D01*
X170437731Y-71335396D02*
X170485275Y-71370914D01*
X170485275Y-71370914D02*
X170531032Y-71409167D01*
X170531032Y-71409167D02*
X170575022Y-71450160D01*
X170575022Y-71450160D02*
X170617266Y-71493899D01*
X170617266Y-71493899D02*
X170657785Y-71540390D01*
X170657785Y-71540390D02*
X170696602Y-71589640D01*
X170696602Y-71589640D02*
X170733736Y-71641655D01*
X170733736Y-71641655D02*
X170769208Y-71696441D01*
X170769208Y-71696441D02*
X170803040Y-71754006D01*
X170803040Y-71754006D02*
X170835252Y-71814355D01*
X170835252Y-71814355D02*
X170865865Y-71875569D01*
X170865865Y-71875569D02*
X170893308Y-71933046D01*
X170893308Y-71933046D02*
X170917800Y-71987833D01*
X170917800Y-71987833D02*
X170939555Y-72040977D01*
X170939555Y-72040977D02*
X170958790Y-72093528D01*
X170958790Y-72093528D02*
X170975720Y-72146531D01*
X170975720Y-72146531D02*
X170990564Y-72201036D01*
X170990564Y-72201036D02*
X171003535Y-72258089D01*
X171003535Y-72258089D02*
X171014851Y-72318738D01*
X171014851Y-72318738D02*
X171024728Y-72384031D01*
X171024728Y-72384031D02*
X171033382Y-72455016D01*
X171033382Y-72455016D02*
X171041029Y-72532740D01*
X171041029Y-72532740D02*
X171047885Y-72618251D01*
X171047885Y-72618251D02*
X171054163Y-72712597D01*
X171054163Y-72712597D02*
X171065867Y-72931983D01*
X171065867Y-72931983D02*
X171100913Y-73665165D01*
X171100913Y-73665165D02*
X171658205Y-73944821D01*
X171658205Y-73944821D02*
X171727046Y-73978435D01*
X171727046Y-73978435D02*
X171799569Y-74012053D01*
X171799569Y-74012053D02*
X171875609Y-74045616D01*
X171875609Y-74045616D02*
X171954999Y-74079065D01*
X171954999Y-74079065D02*
X172037574Y-74112344D01*
X172037574Y-74112344D02*
X172123168Y-74145395D01*
X172123168Y-74145395D02*
X172211616Y-74178160D01*
X172211616Y-74178160D02*
X172302751Y-74210581D01*
X172302751Y-74210581D02*
X172396408Y-74242600D01*
X172396408Y-74242600D02*
X172492422Y-74274160D01*
X172492422Y-74274160D02*
X172590625Y-74305203D01*
X172590625Y-74305203D02*
X172690854Y-74335670D01*
X172690854Y-74335670D02*
X172792942Y-74365505D01*
X172792942Y-74365505D02*
X172896722Y-74394649D01*
X172896722Y-74394649D02*
X173002030Y-74423044D01*
X173002030Y-74423044D02*
X173108701Y-74450633D01*
X173108701Y-74450633D02*
X173294681Y-74499402D01*
X173294681Y-74499402D02*
X173480851Y-74551351D01*
X173480851Y-74551351D02*
X173662231Y-74604883D01*
X173662231Y-74604883D02*
X173833840Y-74658400D01*
X173833840Y-74658400D02*
X173990699Y-74710304D01*
X173990699Y-74710304D02*
X174127827Y-74758995D01*
X174127827Y-74758995D02*
X174187435Y-74781636D01*
X174187435Y-74781636D02*
X174240244Y-74802875D01*
X174240244Y-74802875D02*
X174285629Y-74822512D01*
X174285629Y-74822512D02*
X174322969Y-74840346D01*
X174322969Y-74840346D02*
X174389456Y-74875236D01*
X174389456Y-74875236D02*
X174455551Y-74911953D01*
X174455551Y-74911953D02*
X174521220Y-74950462D01*
X174521220Y-74950462D02*
X174586431Y-74990729D01*
X174586431Y-74990729D02*
X174651151Y-75032721D01*
X174651151Y-75032721D02*
X174715348Y-75076403D01*
X174715348Y-75076403D02*
X174778988Y-75121739D01*
X174778988Y-75121739D02*
X174842038Y-75168697D01*
X174842038Y-75168697D02*
X174904466Y-75217242D01*
X174904466Y-75217242D02*
X174966240Y-75267338D01*
X174966240Y-75267338D02*
X175027326Y-75318953D01*
X175027326Y-75318953D02*
X175087691Y-75372052D01*
X175087691Y-75372052D02*
X175147302Y-75426601D01*
X175147302Y-75426601D02*
X175206128Y-75482563D01*
X175206128Y-75482563D02*
X175264134Y-75539908D01*
X175264134Y-75539908D02*
X175321289Y-75598598D01*
X175321289Y-75598598D02*
X175377560Y-75658600D01*
X175377560Y-75658600D02*
X175432912Y-75719881D01*
X175432912Y-75719881D02*
X175487314Y-75782405D01*
X175487314Y-75782405D02*
X175540734Y-75846137D01*
X175540734Y-75846137D02*
X175593138Y-75911046D01*
X175593138Y-75911046D02*
X175644493Y-75977094D01*
X175644493Y-75977094D02*
X175694767Y-76044247D01*
X175694767Y-76044247D02*
X175743926Y-76112474D01*
X175743926Y-76112474D02*
X175791939Y-76181737D01*
X175791939Y-76181737D02*
X175838772Y-76252004D01*
X175838772Y-76252004D02*
X175884392Y-76323240D01*
X175884392Y-76323240D02*
X175928766Y-76395410D01*
X175928766Y-76395410D02*
X175971863Y-76468480D01*
X175971863Y-76468480D02*
X176013648Y-76542416D01*
X176013648Y-76542416D02*
X176054090Y-76617184D01*
X176054090Y-76617184D02*
X176093154Y-76692749D01*
X176093154Y-76692749D02*
X176130626Y-76770505D01*
X176130626Y-76770505D02*
X176171075Y-76860859D01*
X176171075Y-76860859D02*
X176213757Y-76961666D01*
X176213757Y-76961666D02*
X176257927Y-77070782D01*
X176257927Y-77070782D02*
X176302841Y-77186062D01*
X176302841Y-77186062D02*
X176347754Y-77305365D01*
X176347754Y-77305365D02*
X176391923Y-77426545D01*
X176391923Y-77426545D02*
X176434603Y-77547458D01*
X176434603Y-77547458D02*
X176475049Y-77665961D01*
X176475049Y-77665961D02*
X176512517Y-77779910D01*
X176512517Y-77779910D02*
X176546263Y-77887161D01*
X176546263Y-77887161D02*
X176575543Y-77985570D01*
X176575543Y-77985570D02*
X176599612Y-78072994D01*
X176599612Y-78072994D02*
X176617725Y-78147288D01*
X176617725Y-78147288D02*
X176629139Y-78206308D01*
X176629139Y-78206308D02*
X176632099Y-78229420D01*
X176632099Y-78229420D02*
X176633107Y-78247911D01*
X176633107Y-78247911D02*
X176634580Y-78295302D01*
X176634580Y-78295302D02*
X176638927Y-78333199D01*
X176638927Y-78333199D02*
X176642148Y-78348621D01*
X176642148Y-78348621D02*
X176646050Y-78361707D01*
X176646050Y-78361707D02*
X176650620Y-78372472D01*
X176650620Y-78372472D02*
X176655851Y-78380929D01*
X176655851Y-78380929D02*
X176661724Y-78387090D01*
X176661724Y-78387090D02*
X176668231Y-78390966D01*
X176668231Y-78390966D02*
X176675355Y-78392572D01*
X176675355Y-78392572D02*
X176683086Y-78391914D01*
X176683086Y-78391914D02*
X176691411Y-78389018D01*
X176691411Y-78389018D02*
X176700318Y-78383891D01*
X176700318Y-78383891D02*
X176709794Y-78376548D01*
X176709794Y-78376548D02*
X176719827Y-78366999D01*
X176719827Y-78366999D02*
X176730403Y-78355258D01*
X176730403Y-78355258D02*
X176741512Y-78341337D01*
X176741512Y-78341337D02*
X176765275Y-78307008D01*
X176765275Y-78307008D02*
X176791014Y-78264115D01*
X176791014Y-78264115D02*
X176818631Y-78212761D01*
X176818631Y-78212761D02*
X176848025Y-78153050D01*
X176848025Y-78153050D02*
X176879096Y-78085084D01*
X176879096Y-78085084D02*
X176911744Y-78008969D01*
X176911744Y-78008969D02*
X176945869Y-77924805D01*
X176945869Y-77924805D02*
X177059821Y-77639238D01*
X177059821Y-77639238D02*
X177221682Y-77237296D01*
X177221682Y-77237296D02*
X177602898Y-76297831D01*
X177602898Y-76297831D02*
X179186075Y-72414625D01*
X179186075Y-72414625D02*
X180089911Y-70201322D01*
X180089911Y-70201322D02*
X180448877Y-69324901D01*
X180448877Y-69324901D02*
X180680495Y-68761779D01*
X180680495Y-68761779D02*
X181047996Y-67873249D01*
X181047996Y-67873249D02*
X181072109Y-66477650D01*
X181072109Y-66477650D02*
X181074583Y-66304526D01*
X181074583Y-66304526D02*
X181075939Y-66135917D01*
X181075939Y-66135917D02*
X181076135Y-65971729D01*
X181076135Y-65971729D02*
X181075212Y-65811867D01*
X181075212Y-65811867D02*
X181073130Y-65656235D01*
X181073130Y-65656235D02*
X181069876Y-65504740D01*
X181069876Y-65504740D02*
X181065437Y-65357286D01*
X181065437Y-65357286D02*
X181059794Y-65213778D01*
X181059794Y-65213778D02*
X181052937Y-65074121D01*
X181052937Y-65074121D02*
X181044852Y-64938221D01*
X181044852Y-64938221D02*
X181035525Y-64805982D01*
X181035525Y-64805982D02*
X181024943Y-64677309D01*
X181024943Y-64677309D02*
X181013091Y-64552108D01*
X181013091Y-64552108D02*
X180999956Y-64430284D01*
X180999956Y-64430284D02*
X180985525Y-64311741D01*
X180985525Y-64311741D02*
X180969783Y-64196386D01*
X180969783Y-64196386D02*
X180952717Y-64084122D01*
X180952717Y-64084122D02*
X180934314Y-63974855D01*
X180934314Y-63974855D02*
X180914559Y-63868491D01*
X180914559Y-63868491D02*
X180893440Y-63764934D01*
X180893440Y-63764934D02*
X180870941Y-63664089D01*
X180870941Y-63664089D02*
X180847050Y-63565861D01*
X180847050Y-63565861D02*
X180821753Y-63470156D01*
X180821753Y-63470156D02*
X180795037Y-63376879D01*
X180795037Y-63376879D02*
X180766886Y-63285934D01*
X180766886Y-63285934D02*
X180737289Y-63197226D01*
X180737289Y-63197226D02*
X180706231Y-63110662D01*
X180706231Y-63110662D02*
X180673699Y-63026146D01*
X180673699Y-63026146D02*
X180639677Y-62943582D01*
X180639677Y-62943582D02*
X180604155Y-62862877D01*
X180604155Y-62862877D02*
X180567117Y-62783934D01*
X180567117Y-62783934D02*
X180528550Y-62706660D01*
X180528550Y-62706660D02*
X180512614Y-62678779D01*
X180512614Y-62678779D02*
X180490325Y-62644606D01*
X180490325Y-62644606D02*
X180461920Y-62604401D01*
X180461920Y-62604401D02*
X180427635Y-62558426D01*
X180427635Y-62558426D02*
X180387708Y-62506939D01*
X180387708Y-62506939D02*
X180342377Y-62450200D01*
X180342377Y-62450200D02*
X180236450Y-62322009D01*
X180236450Y-62322009D02*
X180111750Y-62175932D01*
X180111750Y-62175932D02*
X179970176Y-62014049D01*
X179970176Y-62014049D02*
X179813625Y-61838442D01*
X179813625Y-61838442D02*
X179643995Y-61651187D01*
X179643995Y-61651187D02*
X179463185Y-61454368D01*
X179463185Y-61454368D02*
X179273093Y-61250064D01*
X179273093Y-61250064D02*
X179075615Y-61040353D01*
X179075615Y-61040353D02*
X178872649Y-60827317D01*
X178872649Y-60827317D02*
X178666095Y-60613036D01*
X178666095Y-60613036D02*
X178457849Y-60399588D01*
X178457849Y-60399588D02*
X178249809Y-60189055D01*
X178249809Y-60189055D02*
X178043873Y-59983517D01*
X178043873Y-59983517D02*
X177906230Y-59848035D01*
X177906230Y-59848035D02*
X177767519Y-59713250D01*
X177767519Y-59713250D02*
X177627738Y-59579164D01*
X177627738Y-59579164D02*
X177486887Y-59445776D01*
X177486887Y-59445776D02*
X177344966Y-59313084D01*
X177344966Y-59313084D02*
X177201976Y-59181090D01*
X177201976Y-59181090D02*
X177057917Y-59049794D01*
X177057917Y-59049794D02*
X176912787Y-58919195D01*
X176912787Y-58919195D02*
X176766587Y-58789293D01*
X176766587Y-58789293D02*
X176619316Y-58660089D01*
X176619316Y-58660089D02*
X176470975Y-58531581D01*
X176470975Y-58531581D02*
X176321564Y-58403771D01*
X176321564Y-58403771D02*
X176171081Y-58276656D01*
X176171081Y-58276656D02*
X176019529Y-58150240D01*
X176019529Y-58150240D02*
X175866905Y-58024519D01*
X175866905Y-58024519D02*
X175713209Y-57899495D01*
X175713209Y-57899495D02*
X175558443Y-57775168D01*
X175558443Y-57775168D02*
X175402606Y-57651537D01*
X175402606Y-57651537D02*
X175245696Y-57528602D01*
X175245696Y-57528602D02*
X175087715Y-57406364D01*
X175087715Y-57406364D02*
X174928663Y-57284822D01*
X174928663Y-57284822D02*
X174768538Y-57163975D01*
X174768538Y-57163975D02*
X174607341Y-57043825D01*
X174607341Y-57043825D02*
X174445072Y-56924370D01*
X174445072Y-56924370D02*
X174281731Y-56805612D01*
X174281731Y-56805612D02*
X174117317Y-56687549D01*
X174117317Y-56687549D02*
X173951831Y-56570181D01*
X173951831Y-56570181D02*
X173785271Y-56453509D01*
X173785271Y-56453509D02*
X173617639Y-56337532D01*
X173617639Y-56337532D02*
X173448934Y-56222251D01*
X173448934Y-56222251D02*
X173279156Y-56107665D01*
X173279156Y-56107665D02*
X173108304Y-55993774D01*
X173108304Y-55993774D02*
X172936379Y-55880578D01*
X172936379Y-55880578D02*
X172763380Y-55768077D01*
X172763380Y-55768077D02*
X172589308Y-55656271D01*
X172589308Y-55656271D02*
X172414161Y-55545160D01*
X172414161Y-55545160D02*
X172237941Y-55434742D01*
X172237941Y-55434742D02*
X172060646Y-55325020D01*
X172060646Y-55325020D02*
X171882277Y-55215993D01*
X171882277Y-55215993D02*
X171702834Y-55107659D01*
X171702834Y-55107659D02*
X171522317Y-55000020D01*
X171522317Y-55000020D02*
X171340724Y-54893075D01*
X171340724Y-54893075D02*
X171158057Y-54786825D01*
X171158057Y-54786825D02*
X170974315Y-54681268D01*
X170974315Y-54681268D02*
X170789497Y-54576405D01*
X170789497Y-54576405D02*
X170603605Y-54472237D01*
X170603605Y-54472237D02*
X170416637Y-54368761D01*
X170416637Y-54368761D02*
X170228593Y-54265980D01*
X170228593Y-54265980D02*
X170039474Y-54163892D01*
X170039474Y-54163892D02*
X169849279Y-54062497D01*
X169849279Y-54062497D02*
X169658008Y-53961797D01*
X169658008Y-53961797D02*
X169465661Y-53861788D01*
X169465661Y-53861788D02*
X169272238Y-53762474D01*
X169272238Y-53762474D02*
X169077738Y-53663853D01*
X169077738Y-53663853D02*
X168882163Y-53565924D01*
X168882163Y-53565924D02*
X168685510Y-53468689D01*
X168685510Y-53468689D02*
X168487780Y-53372146D01*
X168487780Y-53372146D02*
X168288974Y-53276296D01*
X168288974Y-53276296D02*
X168089091Y-53181139D01*
X168089091Y-53181139D02*
X167888131Y-53086674D01*
X167888131Y-53086674D02*
X167686093Y-52992902D01*
X167686093Y-52992902D02*
X167482978Y-52899822D01*
X167482978Y-52899822D02*
X167278785Y-52807435D01*
X167278785Y-52807435D02*
X167073515Y-52715739D01*
X167073515Y-52715739D02*
X166823890Y-52606324D01*
X166823890Y-52606324D02*
X166573659Y-52499397D01*
X166573659Y-52499397D02*
X166322836Y-52394961D01*
X166322836Y-52394961D02*
X166071436Y-52293017D01*
X166071436Y-52293017D02*
X165819471Y-52193567D01*
X165819471Y-52193567D02*
X165566958Y-52096613D01*
X165566958Y-52096613D02*
X165313912Y-52002157D01*
X165313912Y-52002157D02*
X165060344Y-51910200D01*
X165060344Y-51910200D02*
X164806273Y-51820743D01*
X164806273Y-51820743D02*
X164551710Y-51733788D01*
X164551710Y-51733788D02*
X164296670Y-51649339D01*
X164296670Y-51649339D02*
X164041169Y-51567394D01*
X164041169Y-51567394D02*
X163785221Y-51487957D01*
X163785221Y-51487957D02*
X163528839Y-51411029D01*
X163528839Y-51411029D02*
X163272040Y-51336612D01*
X163272040Y-51336612D02*
X163014836Y-51264708D01*
X163014836Y-51264708D02*
X162757243Y-51195317D01*
X162757243Y-51195317D02*
X162499275Y-51128442D01*
X162499275Y-51128442D02*
X162240947Y-51064085D01*
X162240947Y-51064085D02*
X161982272Y-51002246D01*
X161982272Y-51002246D02*
X161723267Y-50942929D01*
X161723267Y-50942929D02*
X161463943Y-50886134D01*
X161463943Y-50886134D02*
X161204318Y-50831863D01*
X161204318Y-50831863D02*
X160944404Y-50780119D01*
X160944404Y-50780119D02*
X160684217Y-50730901D01*
X160684217Y-50730901D02*
X160423771Y-50684213D01*
X160423771Y-50684213D02*
X160163080Y-50640055D01*
X160163080Y-50640055D02*
X159902159Y-50598430D01*
X159902159Y-50598430D02*
X159641023Y-50559339D01*
X159641023Y-50559339D02*
X159379684Y-50522784D01*
X159379684Y-50522784D02*
X159118160Y-50488767D01*
X159118160Y-50488767D02*
X158856464Y-50457289D01*
X158856464Y-50457289D02*
X158594609Y-50428351D01*
X158594609Y-50428351D02*
X158332611Y-50401956D01*
X158332611Y-50401956D02*
X158070484Y-50378105D01*
X158070484Y-50378105D02*
X157808244Y-50356800D01*
X157808244Y-50356800D02*
X157545903Y-50338043D01*
X157545903Y-50338043D02*
X157283477Y-50321834D01*
X157283477Y-50321834D02*
X157020980Y-50308177D01*
X157020980Y-50308177D02*
X156758427Y-50297073D01*
X156758427Y-50297073D02*
X156495832Y-50288523D01*
X156495832Y-50288523D02*
X156233210Y-50282527D01*
X156233210Y-50282527D02*
X155970575Y-50279091D01*
X155970575Y-50279091D02*
X155707941Y-50278216D01*
X155707941Y-50278216D02*
X155445323Y-50279900D01*
X155445323Y-50279900D02*
X155182735Y-50284146D01*
X155182735Y-50284146D02*
X154920193Y-50290956D01*
X154920193Y-50290956D02*
X154657710Y-50300331D01*
X154657710Y-50300331D02*
X154395302Y-50312275D01*
X154395302Y-50312275D02*
X154132982Y-50326788D01*
X154132982Y-50326788D02*
X153870764Y-50343871D01*
X153870764Y-50343871D02*
X153608665Y-50363528D01*
X153608665Y-50363528D02*
X153346696Y-50385758D01*
X153346696Y-50385758D02*
X153084875Y-50410564D01*
X153084875Y-50410564D02*
X152823214Y-50437948D01*
X152823214Y-50437948D02*
X152561728Y-50467911D01*
X152561728Y-50467911D02*
X152300432Y-50500456D01*
X152300432Y-50500456D02*
X152039341Y-50535583D01*
X152039341Y-50535583D02*
X151778469Y-50573294D01*
X151778469Y-50573294D02*
X151517830Y-50613591D01*
X151517830Y-50613591D02*
X151257438Y-50656476D01*
X151257438Y-50656476D02*
X150997309Y-50701950D01*
X150997309Y-50701950D02*
X150737456Y-50750015D01*
X150737456Y-50750015D02*
X150477894Y-50800673D01*
X150477894Y-50800673D02*
X150245300Y-50848468D01*
X150245300Y-50848468D02*
X150012345Y-50898745D01*
X150012345Y-50898745D02*
X149779159Y-50951455D01*
X149779159Y-50951455D02*
X149545871Y-51006554D01*
X149545871Y-51006554D02*
X149312612Y-51063993D01*
X149312612Y-51063993D02*
X149079512Y-51123724D01*
X149079512Y-51123724D02*
X148846699Y-51185703D01*
X148846699Y-51185703D02*
X148614304Y-51249880D01*
X148614304Y-51249880D02*
X148382457Y-51316211D01*
X148382457Y-51316211D02*
X148151287Y-51384646D01*
X148151287Y-51384646D02*
X147920924Y-51455140D01*
X147920924Y-51455140D02*
X147691498Y-51527645D01*
X147691498Y-51527645D02*
X147463139Y-51602115D01*
X147463139Y-51602115D02*
X147235976Y-51678502D01*
X147235976Y-51678502D02*
X147010138Y-51756759D01*
X147010138Y-51756759D02*
X146785757Y-51836840D01*
X146785757Y-51836840D02*
X146562962Y-51918697D01*
X146562962Y-51918697D02*
X146341882Y-52002284D01*
X146341882Y-52002284D02*
X146122647Y-52087554D01*
X146122647Y-52087554D02*
X145905387Y-52174458D01*
X145905387Y-52174458D02*
X145690232Y-52262951D01*
X145690232Y-52262951D02*
X145477311Y-52352987D01*
X145477311Y-52352987D02*
X145266755Y-52444516D01*
X145266755Y-52444516D02*
X145058692Y-52537492D01*
X145058692Y-52537492D02*
X144853254Y-52631869D01*
X144853254Y-52631869D02*
X144650569Y-52727599D01*
X144650569Y-52727599D02*
X144450767Y-52824637D01*
X144450767Y-52824637D02*
X144253978Y-52922933D01*
X144253978Y-52922933D02*
X144060333Y-53022443D01*
X144060333Y-53022443D02*
X143869959Y-53123117D01*
X143869959Y-53123117D02*
X143682988Y-53224910D01*
X143682988Y-53224910D02*
X143499549Y-53327775D01*
X143499549Y-53327775D02*
X143344350Y-53417112D01*
X143344350Y-53417112D02*
X143188320Y-53508904D01*
X143188320Y-53508904D02*
X143031518Y-53603093D01*
X143031518Y-53603093D02*
X142874004Y-53699626D01*
X142874004Y-53699626D02*
X142715840Y-53798446D01*
X142715840Y-53798446D02*
X142557083Y-53899500D01*
X142557083Y-53899500D02*
X142397794Y-54002733D01*
X142397794Y-54002733D02*
X142238033Y-54108089D01*
X142238033Y-54108089D02*
X142077860Y-54215513D01*
X142077860Y-54215513D02*
X141917334Y-54324950D01*
X141917334Y-54324950D02*
X141756516Y-54436346D01*
X141756516Y-54436346D02*
X141595465Y-54549645D01*
X141595465Y-54549645D02*
X141434241Y-54664794D01*
X141434241Y-54664794D02*
X141272904Y-54781735D01*
X141272904Y-54781735D02*
X141111515Y-54900415D01*
X141111515Y-54900415D02*
X140950131Y-55020778D01*
X140950131Y-55020778D02*
X140788814Y-55142770D01*
X140788814Y-55142770D02*
X140627624Y-55266336D01*
X140627624Y-55266336D02*
X140466620Y-55391420D01*
X140466620Y-55391420D02*
X140305862Y-55517967D01*
X140305862Y-55517967D02*
X140145410Y-55645924D01*
X140145410Y-55645924D02*
X139985324Y-55775234D01*
X139985324Y-55775234D02*
X139825663Y-55905842D01*
X139825663Y-55905842D02*
X139666489Y-56037694D01*
X139666489Y-56037694D02*
X139507859Y-56170736D01*
X139507859Y-56170736D02*
X139349835Y-56304910D01*
X139349835Y-56304910D02*
X139192476Y-56440163D01*
X139192476Y-56440163D02*
X139035841Y-56576441D01*
X139035841Y-56576441D02*
X138879992Y-56713687D01*
X138879992Y-56713687D02*
X138724987Y-56851846D01*
X138724987Y-56851846D02*
X138570887Y-56990865D01*
X138570887Y-56990865D02*
X138417750Y-57130687D01*
X138417750Y-57130687D02*
X138265639Y-57271258D01*
X138265639Y-57271258D02*
X138114611Y-57412523D01*
X138114611Y-57412523D02*
X137964727Y-57554428D01*
X137964727Y-57554428D02*
X137816047Y-57696916D01*
X137816047Y-57696916D02*
X137668631Y-57839932D01*
X137668631Y-57839932D02*
X137522538Y-57983423D01*
X137522538Y-57983423D02*
X137377828Y-58127333D01*
X137377828Y-58127333D02*
X137234562Y-58271606D01*
X137234562Y-58271606D02*
X137092799Y-58416189D01*
X137092799Y-58416189D02*
X136952598Y-58561025D01*
X136952598Y-58561025D02*
X136814021Y-58706061D01*
X136814021Y-58706061D02*
X136677126Y-58851241D01*
X136677126Y-58851241D02*
X136541973Y-58996510D01*
X136541973Y-58996510D02*
X136408623Y-59141813D01*
X136408623Y-59141813D02*
X136277135Y-59287095D01*
X136277135Y-59287095D02*
X136147569Y-59432302D01*
X136147569Y-59432302D02*
X136019985Y-59577377D01*
X136019985Y-59577377D02*
X135894442Y-59722266D01*
X135894442Y-59722266D02*
X135771001Y-59866915D01*
X135771001Y-59866915D02*
X135649722Y-60011268D01*
X135649722Y-60011268D02*
X135530664Y-60155271D01*
X135530664Y-60155271D02*
X135413887Y-60298867D01*
X135413887Y-60298867D02*
X135299451Y-60442003D01*
X135299451Y-60442003D02*
X135187416Y-60584623D01*
X135187416Y-60584623D02*
X135077841Y-60726673D01*
X135077841Y-60726673D02*
X134970787Y-60868096D01*
X134970787Y-60868096D02*
X134866314Y-61008840D01*
X134866314Y-61008840D02*
X134764481Y-61148847D01*
X134764481Y-61148847D02*
X134665348Y-61288064D01*
X134665348Y-61288064D02*
X134568975Y-61426435D01*
X134568975Y-61426435D02*
X134475422Y-61563906D01*
X134475422Y-61563906D02*
X134384748Y-61700421D01*
X134384748Y-61700421D02*
X134302633Y-61827948D01*
X134302633Y-61827948D02*
X134217646Y-61964258D01*
X134217646Y-61964258D02*
X134130915Y-62107248D01*
X134130915Y-62107248D02*
X134043566Y-62254814D01*
X134043566Y-62254814D02*
X133956727Y-62404854D01*
X133956727Y-62404854D02*
X133871525Y-62555263D01*
X133871525Y-62555263D02*
X133789087Y-62703939D01*
X133789087Y-62703939D02*
X133710541Y-62848779D01*
X133710541Y-62848779D02*
X133637014Y-62987678D01*
X133637014Y-62987678D02*
X133569633Y-63118534D01*
X133569633Y-63118534D02*
X133509526Y-63239244D01*
X133509526Y-63239244D02*
X133457820Y-63347704D01*
X133457820Y-63347704D02*
X133415641Y-63441811D01*
X133415641Y-63441811D02*
X133384118Y-63519462D01*
X133384118Y-63519462D02*
X133372705Y-63551460D01*
X133372705Y-63551460D02*
X133364377Y-63578554D01*
X133364377Y-63578554D02*
X133359278Y-63600482D01*
X133359278Y-63600482D02*
X133357547Y-63616983D01*
X133357547Y-63616983D02*
X133356654Y-63628710D01*
X133356654Y-63628710D02*
X133354033Y-63640632D01*
X133354033Y-63640632D02*
X133349772Y-63652702D01*
X133349772Y-63652702D02*
X133343956Y-63664874D01*
X133343956Y-63664874D02*
X133336673Y-63677101D01*
X133336673Y-63677101D02*
X133328009Y-63689339D01*
X133328009Y-63689339D02*
X133306885Y-63713657D01*
X133306885Y-63713657D02*
X133281280Y-63737457D01*
X133281280Y-63737457D02*
X133251888Y-63760372D01*
X133251888Y-63760372D02*
X133219403Y-63782031D01*
X133219403Y-63782031D02*
X133184519Y-63802063D01*
X133184519Y-63802063D02*
X133147930Y-63820100D01*
X133147930Y-63820100D02*
X133110331Y-63835771D01*
X133110331Y-63835771D02*
X133072416Y-63848707D01*
X133072416Y-63848707D02*
X133034879Y-63858538D01*
X133034879Y-63858538D02*
X132998414Y-63864896D01*
X132998414Y-63864896D02*
X132963715Y-63867410D01*
X132963715Y-63867410D02*
X132947246Y-63867081D01*
X132947246Y-63867081D02*
X132931478Y-63865679D01*
X132931478Y-63865679D02*
X132916499Y-63863132D01*
X132916499Y-63863132D02*
X132902395Y-63859393D01*
X132902395Y-63859393D02*
X132861868Y-63844673D01*
X132861868Y-63844673D02*
X132843338Y-63836408D01*
X132843338Y-63836408D02*
X132825943Y-63827430D01*
X132825943Y-63827430D02*
X132809670Y-63817658D01*
X132809670Y-63817658D02*
X132794503Y-63807011D01*
X132794503Y-63807011D02*
X132780428Y-63795405D01*
X132780428Y-63795405D02*
X132767430Y-63782760D01*
X132767430Y-63782760D02*
X132755495Y-63768993D01*
X132755495Y-63768993D02*
X132744608Y-63754023D01*
X132744608Y-63754023D02*
X132734754Y-63737768D01*
X132734754Y-63737768D02*
X132725919Y-63720145D01*
X132725919Y-63720145D02*
X132718088Y-63701075D01*
X132718088Y-63701075D02*
X132711247Y-63680474D01*
X132711247Y-63680474D02*
X132705380Y-63658260D01*
X132705380Y-63658260D02*
X132700474Y-63634353D01*
X132700474Y-63634353D02*
X132696513Y-63608669D01*
X132696513Y-63608669D02*
X132693483Y-63581128D01*
X132693483Y-63581128D02*
X132691369Y-63551647D01*
X132691369Y-63551647D02*
X132690158Y-63520145D01*
X132690158Y-63520145D02*
X132690380Y-63450750D01*
X132690380Y-63450750D02*
X132694035Y-63372287D01*
X132694035Y-63372287D02*
X132701005Y-63284104D01*
X132701005Y-63284104D02*
X132711172Y-63185543D01*
X132711172Y-63185543D02*
X132724419Y-63075953D01*
X132724419Y-63075953D02*
X132740630Y-62954678D01*
X132740630Y-62954678D02*
X132763102Y-62797660D01*
X132763102Y-62797660D02*
X132786939Y-62640940D01*
X132786939Y-62640940D02*
X132812139Y-62484520D01*
X132812139Y-62484520D02*
X132838698Y-62328405D01*
X132838698Y-62328405D02*
X132866614Y-62172598D01*
X132866614Y-62172598D02*
X132895882Y-62017104D01*
X132895882Y-62017104D02*
X132926501Y-61861926D01*
X132926501Y-61861926D02*
X132958467Y-61707069D01*
X132958467Y-61707069D02*
X132991776Y-61552536D01*
X132991776Y-61552536D02*
X133026427Y-61398331D01*
X133026427Y-61398331D02*
X133062415Y-61244459D01*
X133062415Y-61244459D02*
X133099738Y-61090922D01*
X133099738Y-61090922D02*
X133138392Y-60937725D01*
X133138392Y-60937725D02*
X133178375Y-60784872D01*
X133178375Y-60784872D02*
X133219683Y-60632367D01*
X133219683Y-60632367D02*
X133262313Y-60480213D01*
X133262313Y-60480213D02*
X133306262Y-60328415D01*
X133306262Y-60328415D02*
X133351527Y-60176977D01*
X133351527Y-60176977D02*
X133398106Y-60025902D01*
X133398106Y-60025902D02*
X133445994Y-59875194D01*
X133445994Y-59875194D02*
X133495189Y-59724858D01*
X133495189Y-59724858D02*
X133545687Y-59574896D01*
X133545687Y-59574896D02*
X133597486Y-59425314D01*
X133597486Y-59425314D02*
X133650583Y-59276116D01*
X133650583Y-59276116D02*
X133704973Y-59127303D01*
X133704973Y-59127303D02*
X133760655Y-58978882D01*
X133760655Y-58978882D02*
X133817626Y-58830856D01*
X133817626Y-58830856D02*
X133875881Y-58683229D01*
X133875881Y-58683229D02*
X133935418Y-58536003D01*
X133935418Y-58536003D02*
X133996234Y-58389185D01*
X133996234Y-58389185D02*
X134058326Y-58242777D01*
X134058326Y-58242777D02*
X134121690Y-58096783D01*
X134121690Y-58096783D02*
X134186325Y-57951208D01*
X134186325Y-57951208D02*
X134252225Y-57806055D01*
X134252225Y-57806055D02*
X134319389Y-57661328D01*
X134319389Y-57661328D02*
X134387813Y-57517031D01*
X134387813Y-57517031D02*
X134457495Y-57373168D01*
X134457495Y-57373168D02*
X134528430Y-57229744D01*
X134528430Y-57229744D02*
X134600616Y-57086761D01*
X134600616Y-57086761D02*
X134674051Y-56944223D01*
X134674051Y-56944223D02*
X134748730Y-56802135D01*
X134748730Y-56802135D02*
X134824651Y-56660501D01*
X134824651Y-56660501D02*
X134901810Y-56519324D01*
X134901810Y-56519324D02*
X134980205Y-56378609D01*
X134980205Y-56378609D02*
X135059832Y-56238359D01*
X135059832Y-56238359D02*
X135140689Y-56098579D01*
X135140689Y-56098579D02*
X135222772Y-55959271D01*
X135222772Y-55959271D02*
X135306078Y-55820441D01*
X135306078Y-55820441D02*
X135390604Y-55682092D01*
X135390604Y-55682092D02*
X135476347Y-55544228D01*
X135476347Y-55544228D02*
X135563303Y-55406852D01*
X135563303Y-55406852D02*
X135651471Y-55269969D01*
X135651471Y-55269969D02*
X135740846Y-55133583D01*
X135740846Y-55133583D02*
X135831425Y-54997698D01*
X135831425Y-54997698D02*
X135923206Y-54862317D01*
X135923206Y-54862317D02*
X136016186Y-54727444D01*
X136016186Y-54727444D02*
X136110360Y-54593085D01*
X136110360Y-54593085D02*
X136205727Y-54459240D01*
X136205727Y-54459240D02*
X136302283Y-54325917D01*
X136302283Y-54325917D02*
X136400025Y-54193118D01*
X136400025Y-54193118D02*
X136498949Y-54060846D01*
X136498949Y-54060846D02*
X136599054Y-53929107D01*
X136599054Y-53929107D02*
X136700335Y-53797903D01*
X136700335Y-53797903D02*
X136802789Y-53667240D01*
X136802789Y-53667240D02*
X136906414Y-53537119D01*
X136906414Y-53537119D02*
X137011207Y-53407547D01*
X137011207Y-53407547D02*
X137117163Y-53278526D01*
X137117163Y-53278526D02*
X137224281Y-53150060D01*
X137224281Y-53150060D02*
X137332557Y-53022155D01*
X137332557Y-53022155D02*
X137441988Y-52894812D01*
X137441988Y-52894812D02*
X137552571Y-52768037D01*
X137552571Y-52768037D02*
X137664302Y-52641832D01*
X137664302Y-52641832D02*
X137777180Y-52516204D01*
X137777180Y-52516204D02*
X137891200Y-52391153D01*
X137891200Y-52391153D02*
X138006359Y-52266686D01*
X138006359Y-52266686D02*
X138122655Y-52142806D01*
X138122655Y-52142806D02*
X138240084Y-52019516D01*
X138240084Y-52019516D02*
X138358643Y-51896820D01*
X138358643Y-51896820D02*
X138478329Y-51774725D01*
X138478329Y-51774725D02*
X138599139Y-51653230D01*
X138599139Y-51653230D02*
X138721071Y-51532343D01*
X138721071Y-51532343D02*
X138844120Y-51412066D01*
X138844120Y-51412066D02*
X138968284Y-51292403D01*
X138968284Y-51292403D02*
X139093559Y-51173358D01*
X139093559Y-51173358D02*
X139219943Y-51054936D01*
X139219943Y-51054936D02*
X139347433Y-50937139D01*
X139347433Y-50937139D02*
X139476025Y-50819973D01*
X139476025Y-50819973D02*
X139605715Y-50703440D01*
X139605715Y-50703440D02*
X139736503Y-50587545D01*
X139736503Y-50587545D02*
X139868382Y-50472292D01*
X139868382Y-50472292D02*
X140001353Y-50357684D01*
X140001353Y-50357684D02*
X140135409Y-50243725D01*
X140135409Y-50243725D02*
X140270550Y-50130421D01*
X140270550Y-50130421D02*
X140406772Y-50017774D01*
X140406772Y-50017774D02*
X140544070Y-49905788D01*
X140544070Y-49905788D02*
X140682444Y-49794467D01*
X140682444Y-49794467D02*
X140821889Y-49683815D01*
X140821889Y-49683815D02*
X140962401Y-49573837D01*
X140962401Y-49573837D02*
X141103980Y-49464535D01*
X141103980Y-49464535D02*
X141246620Y-49355915D01*
X141246620Y-49355915D02*
X141390319Y-49247979D01*
X141390319Y-49247979D02*
X141535074Y-49140731D01*
X141535074Y-49140731D02*
X141680882Y-49034177D01*
X141680882Y-49034177D02*
X141827740Y-48928319D01*
X141827740Y-48928319D02*
X141975644Y-48823161D01*
X141975644Y-48823161D02*
X142124591Y-48718708D01*
X142124591Y-48718708D02*
X142274579Y-48614964D01*
X142274579Y-48614964D02*
X142425604Y-48511931D01*
X142425604Y-48511931D02*
X142577664Y-48409615D01*
X142577664Y-48409615D02*
X142730755Y-48308019D01*
X142730755Y-48308019D02*
X142884873Y-48207146D01*
X142884873Y-48207146D02*
X143040017Y-48107002D01*
X143040017Y-48107002D02*
X143196182Y-48007590D01*
X143196182Y-48007590D02*
X143353366Y-47908913D01*
X143353366Y-47908913D02*
X143511565Y-47810976D01*
X143511565Y-47810976D02*
X143670777Y-47713782D01*
X143670777Y-47713782D02*
X143830999Y-47617336D01*
X143830999Y-47617336D02*
X143992227Y-47521642D01*
X143992227Y-47521642D02*
X144154458Y-47426703D01*
X144154458Y-47426703D02*
X144317690Y-47332523D01*
X144317690Y-47332523D02*
X144481918Y-47239106D01*
X144481918Y-47239106D02*
X144647140Y-47146457D01*
X144647140Y-47146457D02*
X144813353Y-47054578D01*
X144813353Y-47054578D02*
X144980554Y-46963475D01*
X144980554Y-46963475D02*
X145148739Y-46873150D01*
X145148739Y-46873150D02*
X145317906Y-46783608D01*
X145317906Y-46783608D02*
X145488052Y-46694853D01*
X145488052Y-46694853D02*
X145659173Y-46606888D01*
X145659173Y-46606888D02*
X145835706Y-46517475D01*
X145835706Y-46517475D02*
X146012916Y-46429052D01*
X146012916Y-46429052D02*
X146190793Y-46341619D01*
X146190793Y-46341619D02*
X146369329Y-46255179D01*
X146369329Y-46255179D02*
X146548516Y-46169731D01*
X146548516Y-46169731D02*
X146728345Y-46085278D01*
X146728345Y-46085278D02*
X146908808Y-46001819D01*
X146908808Y-46001819D02*
X147089896Y-45919357D01*
X147089896Y-45919357D02*
X147271600Y-45837891D01*
X147271600Y-45837891D02*
X147453913Y-45757424D01*
X147453913Y-45757424D02*
X147636825Y-45677956D01*
X147636825Y-45677956D02*
X147820329Y-45599488D01*
X147820329Y-45599488D02*
X148004415Y-45522021D01*
X148004415Y-45522021D02*
X148189075Y-45445556D01*
X148189075Y-45445556D02*
X148374301Y-45370095D01*
X148374301Y-45370095D02*
X148560083Y-45295638D01*
X148560083Y-45295638D02*
X148746414Y-45222186D01*
X148746414Y-45222186D02*
X148933286Y-45149740D01*
X148933286Y-45149740D02*
X149120689Y-45078302D01*
X149120689Y-45078302D02*
X149308615Y-45007873D01*
X149308615Y-45007873D02*
X149497056Y-44938452D01*
X149497056Y-44938452D02*
X149686003Y-44870042D01*
X149686003Y-44870042D02*
X149875447Y-44802644D01*
X149875447Y-44802644D02*
X150065380Y-44736258D01*
X150065380Y-44736258D02*
X150255795Y-44670885D01*
X150255795Y-44670885D02*
X150446680Y-44606528D01*
X150446680Y-44606528D02*
X150638030Y-44543185D01*
X150638030Y-44543185D02*
X150829835Y-44480860D01*
X150829835Y-44480860D02*
X151022086Y-44419552D01*
X151022086Y-44419552D02*
X151214776Y-44359262D01*
X151214776Y-44359262D02*
X151407895Y-44299993D01*
X151407895Y-44299993D02*
X151601434Y-44241744D01*
X151601434Y-44241744D02*
X151795387Y-44184517D01*
X151795387Y-44184517D02*
X151989744Y-44128312D01*
X151989744Y-44128312D02*
X152184496Y-44073132D01*
X152184496Y-44073132D02*
X152379635Y-44018976D01*
X152379635Y-44018976D02*
X152575153Y-43965846D01*
X152575153Y-43965846D02*
X152771040Y-43913743D01*
X152771040Y-43913743D02*
X152967290Y-43862668D01*
X152967290Y-43862668D02*
X153163892Y-43812622D01*
X153163892Y-43812622D02*
X153360839Y-43763606D01*
X153360839Y-43763606D02*
X153558123Y-43715621D01*
X153558123Y-43715621D02*
X153755733Y-43668668D01*
X153755733Y-43668668D02*
X153953662Y-43622749D01*
X153953662Y-43622749D02*
X154151902Y-43577863D01*
X154151902Y-43577863D02*
X154350444Y-43534012D01*
X154350444Y-43534012D02*
X154549279Y-43491198D01*
X154549279Y-43491198D02*
X154748400Y-43449420D01*
X154748400Y-43449420D02*
X154947797Y-43408681D01*
X154947797Y-43408681D02*
X155147462Y-43368982D01*
X155147462Y-43368982D02*
X155347386Y-43330322D01*
X155347386Y-43330322D02*
X155547561Y-43292704D01*
X155547561Y-43292704D02*
X155747979Y-43256128D01*
X155747979Y-43256128D02*
X155948631Y-43220596D01*
X155948631Y-43220596D02*
X156149508Y-43186107D01*
X156149508Y-43186107D02*
X156350602Y-43152665D01*
X156350602Y-43152665D02*
X156551906Y-43120269D01*
X156551906Y-43120269D02*
X156753409Y-43088920D01*
X156753409Y-43088920D02*
X156955103Y-43058620D01*
X156955103Y-43058620D02*
X157156980Y-43029369D01*
X157156980Y-43029369D02*
X157359031Y-43001169D01*
X157359031Y-43001169D02*
X157561249Y-42974020D01*
X157561249Y-42974020D02*
X157763624Y-42947924D01*
X157763624Y-42947924D02*
X157966148Y-42922882D01*
X157966148Y-42922882D02*
X158168813Y-42898895D01*
X158168813Y-42898895D02*
X158371609Y-42875963D01*
X158371609Y-42875963D02*
X158574529Y-42854088D01*
X158574529Y-42854088D02*
X158777564Y-42833271D01*
X158777564Y-42833271D02*
X158980705Y-42813512D01*
X158980705Y-42813512D02*
X159183945Y-42794813D01*
X159183945Y-42794813D02*
X159387273Y-42777176D01*
X159387273Y-42777176D02*
X159590683Y-42760600D01*
X159590683Y-42760600D02*
X159794165Y-42745087D01*
X159794165Y-42745087D02*
X159997710Y-42730638D01*
X159997710Y-42730638D02*
X160201312Y-42717253D01*
X160201312Y-42717253D02*
X160404960Y-42704935D01*
X160404960Y-42704935D02*
X160608647Y-42693684D01*
X160608647Y-42693684D02*
X160812363Y-42683501D01*
X160812363Y-42683501D02*
X161016101Y-42674387D01*
X161016101Y-42674387D02*
X161219853Y-42666344D01*
X161219853Y-42666344D02*
X161423608Y-42659371D01*
X161423608Y-42659371D02*
X161627359Y-42653470D01*
X161627359Y-42653470D02*
X161831097Y-42648643D01*
X161831097Y-42648643D02*
X162034815Y-42644891D01*
X162034815Y-42644891D02*
X162238503Y-42642213D01*
X162238503Y-42642213D02*
X162442153Y-42640612D01*
X162442153Y-42640612D02*
X162645756Y-42640085D01*
X162645756Y-42640085D02*
X162849304Y-42640638D01*
X162849304Y-42640638D02*
X163052788Y-42642272D01*
X163052788Y-42642272D02*
X163256201Y-42644986D01*
X163256201Y-42644986D02*
X163459532Y-42648782D01*
X163459532Y-42648782D02*
X163662775Y-42653659D01*
X163662775Y-42653659D02*
X163865920Y-42659621D01*
X163865920Y-42659621D02*
X164068959Y-42666667D01*
X164068959Y-42666667D02*
X164271883Y-42674799D01*
X164271883Y-42674799D02*
X164474684Y-42684017D01*
X164474684Y-42684017D02*
X164677353Y-42694322D01*
X164677353Y-42694322D02*
X164879883Y-42705717D01*
X164879883Y-42705717D02*
X165082263Y-42718201D01*
X165082263Y-42718201D02*
X165284487Y-42731775D01*
X165284487Y-42731775D02*
X165486544Y-42746442D01*
X165486544Y-42746442D02*
X165688428Y-42762201D01*
X165688428Y-42762201D02*
X165890129Y-42779054D01*
X165890129Y-42779054D02*
X166091639Y-42797002D01*
X166091639Y-42797002D02*
X166292949Y-42816045D01*
X166292949Y-42816045D02*
X166494051Y-42836186D01*
X166494051Y-42836186D02*
X166694936Y-42857424D01*
X166694936Y-42857424D02*
X166895596Y-42879761D01*
X166895596Y-42879761D02*
X167096023Y-42903199D01*
X167096023Y-42903199D02*
X167296207Y-42927737D01*
X167296207Y-42927737D02*
X167496140Y-42953377D01*
X167496140Y-42953377D02*
X167695815Y-42980120D01*
X167695815Y-42980120D02*
X167895221Y-43007968D01*
X167895221Y-43007968D02*
X168094352Y-43036920D01*
X168094352Y-43036920D02*
X168293198Y-43066979D01*
X168293198Y-43066979D02*
X168491750Y-43098145D01*
X168491750Y-43098145D02*
X168690001Y-43130419D01*
X168690001Y-43130419D02*
X168887942Y-43163802D01*
X168887942Y-43163802D02*
X169085563Y-43198295D01*
X169085563Y-43198295D02*
X169282859Y-43233900D01*
X169282859Y-43233900D02*
X169479817Y-43270617D01*
X169479817Y-43270617D02*
X169676432Y-43308447D01*
X169676432Y-43308447D02*
X169872694Y-43347392D01*
X169872694Y-43347392D02*
X170068595Y-43387452D01*
X170068595Y-43387452D02*
X170264126Y-43428629D01*
X170264126Y-43428629D02*
X170459278Y-43470923D01*
X170459278Y-43470923D02*
X170654045Y-43514335D01*
X170654045Y-43514335D02*
X170848416Y-43558867D01*
X170848416Y-43558867D02*
X171105753Y-43619629D01*
X171105753Y-43619629D02*
X171362461Y-43682247D01*
X171362461Y-43682247D02*
X171618536Y-43746717D01*
X171618536Y-43746717D02*
X171873968Y-43813035D01*
X171873968Y-43813035D02*
X172128755Y-43881200D01*
X172128755Y-43881200D02*
X172382889Y-43951209D01*
X172382889Y-43951209D02*
X172636364Y-44023057D01*
X172636364Y-44023057D02*
X172889175Y-44096743D01*
X172889175Y-44096743D02*
X173141315Y-44172262D01*
X173141315Y-44172262D02*
X173392779Y-44249614D01*
X173392779Y-44249614D02*
X173643561Y-44328793D01*
X173643561Y-44328793D02*
X173893654Y-44409798D01*
X173893654Y-44409798D02*
X174143053Y-44492624D01*
X174143053Y-44492624D02*
X174391752Y-44577271D01*
X174391752Y-44577271D02*
X174639745Y-44663733D01*
X174639745Y-44663733D02*
X174887026Y-44752009D01*
X174887026Y-44752009D02*
X175133589Y-44842095D01*
X175133589Y-44842095D02*
X175379427Y-44933989D01*
X175379427Y-44933989D02*
X175624536Y-45027687D01*
X175624536Y-45027687D02*
X175868909Y-45123186D01*
X175868909Y-45123186D02*
X176112540Y-45220484D01*
X176112540Y-45220484D02*
X176355423Y-45319577D01*
X176355423Y-45319577D02*
X176597553Y-45420463D01*
X176597553Y-45420463D02*
X176838923Y-45523138D01*
X176838923Y-45523138D02*
X177079527Y-45627599D01*
X177079527Y-45627599D02*
X177319360Y-45733844D01*
X177319360Y-45733844D02*
X177558415Y-45841870D01*
X177558415Y-45841870D02*
X177796687Y-45951673D01*
X177796687Y-45951673D02*
X178034169Y-46063250D01*
X178034169Y-46063250D02*
X178270856Y-46176599D01*
X178270856Y-46176599D02*
X178506741Y-46291717D01*
X178506741Y-46291717D02*
X178741820Y-46408600D01*
X178741820Y-46408600D02*
X178976085Y-46527246D01*
X178976085Y-46527246D02*
X179209531Y-46647651D01*
X179209531Y-46647651D02*
X179442151Y-46769813D01*
X179442151Y-46769813D02*
X179673941Y-46893729D01*
X179673941Y-46893729D02*
X179904893Y-47019395D01*
X179904893Y-47019395D02*
X180135002Y-47146809D01*
X180135002Y-47146809D02*
X180364263Y-47275967D01*
X180364263Y-47275967D02*
X180592669Y-47406867D01*
X180592669Y-47406867D02*
X180820214Y-47539506D01*
X180820214Y-47539506D02*
X181046892Y-47673881D01*
X181046892Y-47673881D02*
X181272697Y-47809988D01*
X181272697Y-47809988D02*
X181497623Y-47947825D01*
X181497623Y-47947825D02*
X181721666Y-48087389D01*
X181721666Y-48087389D02*
X181944817Y-48228676D01*
X181944817Y-48228676D02*
X182167072Y-48371684D01*
X182167072Y-48371684D02*
X182388425Y-48516411D01*
X182388425Y-48516411D02*
X182608869Y-48662851D01*
X182608869Y-48662851D02*
X182828398Y-48811004D01*
X182828398Y-48811004D02*
X183047008Y-48960866D01*
X183047008Y-48960866D02*
X183264691Y-49112433D01*
X183264691Y-49112433D02*
X183481442Y-49265703D01*
X183481442Y-49265703D02*
X183697254Y-49420674D01*
X183697254Y-49420674D02*
X183912123Y-49577340D01*
X183912123Y-49577340D02*
X184126041Y-49735702D01*
X184126041Y-49735702D02*
X184339004Y-49895753D01*
X184339004Y-49895753D02*
X184551004Y-50057493D01*
X184551004Y-50057493D02*
X184762037Y-50220917D01*
X184762037Y-50220917D02*
X184972096Y-50386024D01*
X184972096Y-50386024D02*
X185181175Y-50552810D01*
X185181175Y-50552810D02*
X185389268Y-50721272D01*
X185389268Y-50721272D02*
X185596369Y-50891406D01*
X185596369Y-50891406D02*
X185802472Y-51063211D01*
X185802472Y-51063211D02*
X185958318Y-51195500D01*
X185958318Y-51195500D02*
X186119284Y-51334867D01*
X186119284Y-51334867D02*
X186284709Y-51480632D01*
X186284709Y-51480632D02*
X186453934Y-51632115D01*
X186453934Y-51632115D02*
X186626299Y-51788637D01*
X186626299Y-51788637D02*
X186801142Y-51949520D01*
X186801142Y-51949520D02*
X186977805Y-52114083D01*
X186977805Y-52114083D02*
X187155627Y-52281647D01*
X187155627Y-52281647D02*
X187333947Y-52451534D01*
X187333947Y-52451534D02*
X187512105Y-52623063D01*
X187512105Y-52623063D02*
X187689441Y-52795557D01*
X187689441Y-52795557D02*
X187865295Y-52968336D01*
X187865295Y-52968336D02*
X188039007Y-53140719D01*
X188039007Y-53140719D02*
X188209916Y-53312029D01*
X188209916Y-53312029D02*
X188377362Y-53481585D01*
X188377362Y-53481585D02*
X188540685Y-53648709D01*
X188540685Y-53648709D02*
X188699225Y-53812722D01*
X188699225Y-53812722D02*
X188852322Y-53972943D01*
X188852322Y-53972943D02*
X188999314Y-54128694D01*
X188999314Y-54128694D02*
X189139543Y-54279295D01*
X189139543Y-54279295D02*
X189272347Y-54424068D01*
X189272347Y-54424068D02*
X189397067Y-54562334D01*
X189397067Y-54562334D02*
X189513042Y-54693412D01*
X189513042Y-54693412D02*
X189619613Y-54816624D01*
X189619613Y-54816624D02*
X189716118Y-54931289D01*
X189716118Y-54931289D02*
X189801898Y-55036730D01*
X189801898Y-55036730D02*
X189876293Y-55132267D01*
X189876293Y-55132267D02*
X189938642Y-55217221D01*
X189938642Y-55217221D02*
X189965093Y-55255517D01*
X189965093Y-55255517D02*
X189988285Y-55290912D01*
X189988285Y-55290912D02*
X190008134Y-55323321D01*
X190008134Y-55323321D02*
X190024561Y-55352661D01*
X190024561Y-55352661D02*
X190037481Y-55378845D01*
X190037481Y-55378845D02*
X190046811Y-55401788D01*
X190046811Y-55401788D02*
X190052467Y-55421407D01*
X190052467Y-55421407D02*
X190054373Y-55437616D01*
X190054373Y-55437616D02*
X190052382Y-55457172D01*
X190052382Y-55457172D02*
X190046536Y-55483407D01*
X190046536Y-55483407D02*
X190037036Y-55515877D01*
X190037036Y-55515877D02*
X190024077Y-55554139D01*
X190024077Y-55554139D02*
X190007857Y-55597748D01*
X190007857Y-55597748D02*
X189988571Y-55646261D01*
X189988571Y-55646261D02*
X189941592Y-55756220D01*
X189941592Y-55756220D02*
X189884714Y-55880469D01*
X189884714Y-55880469D02*
X189819513Y-56015453D01*
X189819513Y-56015453D02*
X189747562Y-56157621D01*
X189747562Y-56157621D02*
X189670437Y-56303425D01*
X189670437Y-56303425D02*
X189498778Y-56622635D01*
X189498778Y-56622635D02*
X189307457Y-56981609D01*
X189307457Y-56981609D02*
X189098802Y-57375842D01*
X189098802Y-57375842D02*
X188875139Y-57800833D01*
X188875139Y-57800833D02*
X188392101Y-58725079D01*
X188392101Y-58725079D02*
X187876959Y-59718326D01*
X187876959Y-59718326D02*
X187348330Y-60744555D01*
X187348330Y-60744555D02*
X186824831Y-61767747D01*
X186824831Y-61767747D02*
X186325080Y-62751881D01*
X186325080Y-62751881D02*
X186089926Y-63218046D01*
X186089926Y-63218046D02*
X185867691Y-63660939D01*
X185867691Y-63660939D02*
X185601946Y-64193373D01*
X185601946Y-64193373D02*
X185351777Y-64697243D01*
X185351777Y-64697243D02*
X185116350Y-65174330D01*
X185116350Y-65174330D02*
X184894832Y-65626414D01*
X184894832Y-65626414D02*
X184686390Y-66055275D01*
X184686390Y-66055275D02*
X184490191Y-66462692D01*
X184490191Y-66462692D02*
X184305402Y-66850445D01*
X184305402Y-66850445D02*
X184131191Y-67220315D01*
X184131191Y-67220315D02*
X183966723Y-67574079D01*
X183966723Y-67574079D02*
X183811166Y-67913520D01*
X183811166Y-67913520D02*
X183663689Y-68240416D01*
X183663689Y-68240416D02*
X183523456Y-68556546D01*
X183523456Y-68556546D02*
X183389635Y-68863692D01*
X183389635Y-68863692D02*
X183261392Y-69163632D01*
X183261392Y-69163632D02*
X183137897Y-69458147D01*
X183137897Y-69458147D02*
X183018315Y-69749015D01*
X183018315Y-69749015D02*
X181250297Y-74092940D01*
X181250297Y-74092940D02*
X178727229Y-80288592D01*
X178727229Y-80288592D02*
X177824820Y-82502314D01*
X177824820Y-82502314D02*
X177929035Y-82878726D01*
X177929035Y-82878726D02*
X177944930Y-82934204D01*
X177944930Y-82934204D02*
X177960878Y-82985641D01*
X177960878Y-82985641D02*
X177977152Y-83033459D01*
X177977152Y-83033459D02*
X177994024Y-83078076D01*
X177994024Y-83078076D02*
X178011766Y-83119915D01*
X178011766Y-83119915D02*
X178030652Y-83159396D01*
X178030652Y-83159396D02*
X178050953Y-83196940D01*
X178050953Y-83196940D02*
X178072941Y-83232969D01*
X178072941Y-83232969D02*
X178096891Y-83267902D01*
X178096891Y-83267902D02*
X178123073Y-83302161D01*
X178123073Y-83302161D02*
X178151761Y-83336167D01*
X178151761Y-83336167D02*
X178183227Y-83370340D01*
X178183227Y-83370340D02*
X178217743Y-83405102D01*
X178217743Y-83405102D02*
X178255582Y-83440874D01*
X178255582Y-83440874D02*
X178297017Y-83478075D01*
X178297017Y-83478075D02*
X178342319Y-83517127D01*
X178342319Y-83517127D02*
X178400635Y-83567941D01*
X178400635Y-83567941D02*
X178457909Y-83620621D01*
X178457909Y-83620621D02*
X178514127Y-83675138D01*
X178514127Y-83675138D02*
X178569273Y-83731466D01*
X178569273Y-83731466D02*
X178623332Y-83789576D01*
X178623332Y-83789576D02*
X178676290Y-83849440D01*
X178676290Y-83849440D02*
X178728132Y-83911029D01*
X178728132Y-83911029D02*
X178778843Y-83974316D01*
X178778843Y-83974316D02*
X178828407Y-84039273D01*
X178828407Y-84039273D02*
X178876811Y-84105871D01*
X178876811Y-84105871D02*
X178924040Y-84174081D01*
X178924040Y-84174081D02*
X178970078Y-84243878D01*
X178970078Y-84243878D02*
X179014909Y-84315231D01*
X179014909Y-84315231D02*
X179058521Y-84388112D01*
X179058521Y-84388112D02*
X179100898Y-84462494D01*
X179100898Y-84462494D02*
X179142025Y-84538350D01*
X179142025Y-84538350D02*
X179181886Y-84615649D01*
X179181886Y-84615649D02*
X179220468Y-84694364D01*
X179220468Y-84694364D02*
X179257755Y-84774468D01*
X179257755Y-84774468D02*
X179293732Y-84855932D01*
X179293732Y-84855932D02*
X179328385Y-84938728D01*
X179328385Y-84938728D02*
X179361699Y-85022828D01*
X179361699Y-85022828D02*
X179393658Y-85108203D01*
X179393658Y-85108203D02*
X179424249Y-85194825D01*
X179424249Y-85194825D02*
X179453455Y-85282667D01*
X179453455Y-85282667D02*
X179481263Y-85371701D01*
X179481263Y-85371701D02*
X179507656Y-85461898D01*
X179507656Y-85461898D02*
X179532622Y-85553229D01*
X179532622Y-85553229D02*
X179556143Y-85645667D01*
X179556143Y-85645667D02*
X179578207Y-85739185D01*
X179578207Y-85739185D02*
X179598798Y-85833753D01*
X179598798Y-85833753D02*
X179617900Y-85929343D01*
X179617900Y-85929343D02*
X179634158Y-86021202D01*
X179634158Y-86021202D02*
X179648845Y-86118113D01*
X179648845Y-86118113D02*
X179661971Y-86219849D01*
X179661971Y-86219849D02*
X179673546Y-86326187D01*
X179673546Y-86326187D02*
X179683582Y-86436902D01*
X179683582Y-86436902D02*
X179692088Y-86551769D01*
X179692088Y-86551769D02*
X179699076Y-86670563D01*
X179699076Y-86670563D02*
X179704555Y-86793060D01*
X179704555Y-86793060D02*
X179708536Y-86919034D01*
X179708536Y-86919034D02*
X179711030Y-87048261D01*
X179711030Y-87048261D02*
X179712052Y-87180516D01*
X179712052Y-87180516D02*
X179711593Y-87315575D01*
X179711593Y-87315575D02*
X179709695Y-87453212D01*
X179709695Y-87453212D02*
X179706356Y-87593203D01*
X179706356Y-87593203D02*
X179701583Y-87735322D01*
X179701583Y-87735322D02*
X179695390Y-87879346D01*
X179695390Y-87879346D02*
X179687783Y-88025050D01*
X179687783Y-88025050D02*
X179678775Y-88172207D01*
X179678775Y-88172207D02*
X179668378Y-88320595D01*
X179668378Y-88320595D02*
X179656601Y-88469988D01*
X179656601Y-88469988D02*
X179643456Y-88620161D01*
X179643456Y-88620161D02*
X179628952Y-88770890D01*
X179628952Y-88770890D02*
X179613103Y-88921949D01*
X179613103Y-88921949D02*
X179595916Y-89073114D01*
X179595916Y-89073114D02*
X179577404Y-89224161D01*
X179577404Y-89224161D02*
X179557577Y-89374864D01*
X179557577Y-89374864D02*
X179536446Y-89524998D01*
X179536446Y-89524998D02*
X179514021Y-89674339D01*
X179514021Y-89674339D02*
X179490313Y-89822662D01*
X179490313Y-89822662D02*
X179465334Y-89969743D01*
X179465334Y-89969743D02*
X179439093Y-90115356D01*
X179439093Y-90115356D02*
X179411601Y-90259277D01*
X179411601Y-90259277D02*
X179377293Y-90436665D01*
X179377293Y-90436665D02*
X179364079Y-90510601D01*
X179364079Y-90510601D02*
X179353625Y-90576808D01*
X179353625Y-90576808D02*
X179346027Y-90636865D01*
X179346027Y-90636865D02*
X179341385Y-90692355D01*
X179341385Y-90692355D02*
X179339801Y-90744858D01*
X179339801Y-90744858D02*
X179341366Y-90795957D01*
X179341366Y-90795957D02*
X179346184Y-90847232D01*
X179346184Y-90847232D02*
X179354353Y-90900265D01*
X179354353Y-90900265D02*
X179365971Y-90956636D01*
X179365971Y-90956636D02*
X179381135Y-91017928D01*
X179381135Y-91017928D02*
X179399947Y-91085721D01*
X179399947Y-91085721D02*
X179422504Y-91161597D01*
X179422504Y-91161597D02*
X179479246Y-91343922D01*
X179479246Y-91343922D02*
X179506344Y-91431789D01*
X179506344Y-91431789D02*
X179532566Y-91520143D01*
X179532566Y-91520143D02*
X179557918Y-91609046D01*
X179557918Y-91609046D02*
X179582411Y-91698558D01*
X179582411Y-91698558D02*
X179606052Y-91788743D01*
X179606052Y-91788743D02*
X179628850Y-91879660D01*
X179628850Y-91879660D02*
X179650815Y-91971371D01*
X179650815Y-91971371D02*
X179671954Y-92063937D01*
X179671954Y-92063937D02*
X179692277Y-92157419D01*
X179692277Y-92157419D02*
X179711791Y-92251880D01*
X179711791Y-92251880D02*
X179730506Y-92347380D01*
X179730506Y-92347380D02*
X179748430Y-92443979D01*
X179748430Y-92443979D02*
X179781941Y-92640727D01*
X179781941Y-92640727D02*
X179812395Y-92842611D01*
X179812395Y-92842611D02*
X179839858Y-93050124D01*
X179839858Y-93050124D02*
X179864402Y-93263755D01*
X179864402Y-93263755D02*
X179886096Y-93483996D01*
X179886096Y-93483996D02*
X179905008Y-93711337D01*
X179905008Y-93711337D02*
X179921209Y-93946268D01*
X179921209Y-93946268D02*
X179934768Y-94189279D01*
X179934768Y-94189279D02*
X179945753Y-94440862D01*
X179945753Y-94440862D02*
X179954236Y-94701506D01*
X179954236Y-94701506D02*
X179959434Y-94929543D01*
X179959434Y-94929543D02*
X179962400Y-95153180D01*
X179962400Y-95153180D02*
X179963081Y-95372709D01*
X179963081Y-95372709D02*
X179961424Y-95588419D01*
X179961424Y-95588419D02*
X179957378Y-95800602D01*
X179957378Y-95800602D02*
X179950884Y-96009550D01*
X179950884Y-96009550D02*
X179941893Y-96215553D01*
X179941893Y-96215553D02*
X179930350Y-96418903D01*
X179930350Y-96418903D02*
X179916200Y-96619890D01*
X179916200Y-96619890D02*
X179899392Y-96818806D01*
X179899392Y-96818806D02*
X179879871Y-97015942D01*
X179879871Y-97015942D02*
X179857584Y-97211589D01*
X179857584Y-97211589D02*
X179832477Y-97406039D01*
X179832477Y-97406039D02*
X179804496Y-97599582D01*
X179804496Y-97599582D02*
X179773589Y-97792509D01*
X179773589Y-97792509D02*
X179739701Y-97985112D01*
X179739701Y-97985112D02*
X179702779Y-98177682D01*
X179702779Y-98177682D02*
X179662770Y-98370509D01*
X179662770Y-98370509D02*
X179619620Y-98563886D01*
X179619620Y-98563886D02*
X179573275Y-98758103D01*
X179573275Y-98758103D02*
X179523682Y-98953451D01*
X179523682Y-98953451D02*
X179470788Y-99150222D01*
X179470788Y-99150222D02*
X179414539Y-99348706D01*
X179414539Y-99348706D02*
X179354881Y-99549195D01*
X179354881Y-99549195D02*
X179291761Y-99751980D01*
X179291761Y-99751980D02*
X179225125Y-99957352D01*
X179225125Y-99957352D02*
X179154920Y-100165601D01*
X179154920Y-100165601D02*
X179081093Y-100377021D01*
X179081093Y-100377021D02*
X179003590Y-100591900D01*
X179003590Y-100591900D02*
X178922356Y-100810531D01*
X178922356Y-100810531D02*
X178837340Y-101033206D01*
X178837340Y-101033206D02*
X178748486Y-101260213D01*
X178748486Y-101260213D02*
X178324451Y-102331024D01*
X178324451Y-102331024D02*
X178490568Y-103037273D01*
X178490568Y-103037273D02*
X178524101Y-103187203D01*
X178524101Y-103187203D02*
X178555702Y-103342654D01*
X178555702Y-103342654D02*
X178584657Y-103499112D01*
X178584657Y-103499112D02*
X178610251Y-103652060D01*
X178610251Y-103652060D02*
X178631771Y-103796980D01*
X178631771Y-103796980D02*
X178648501Y-103929358D01*
X178648501Y-103929358D02*
X178654845Y-103989432D01*
X178654845Y-103989432D02*
X178659723Y-104044677D01*
X178659723Y-104044677D02*
X178663048Y-104094527D01*
X178663048Y-104094527D02*
X178664731Y-104138419D01*
X178664731Y-104138419D02*
X178665392Y-104286746D01*
X178665392Y-104286746D02*
X178662891Y-104493711D01*
X178662891Y-104493711D02*
X178657575Y-104750217D01*
X178657575Y-104750217D02*
X178649810Y-105047166D01*
X178649810Y-105047166D02*
X178639949Y-105375461D01*
X178639949Y-105375461D02*
X178628350Y-105726003D01*
X178628350Y-105726003D02*
X178601366Y-106457442D01*
X178601366Y-106457442D02*
X178571715Y-107168702D01*
X178571715Y-107168702D02*
X178556783Y-107494020D01*
X178556783Y-107494020D02*
X178542254Y-107787004D01*
X178542254Y-107787004D02*
X178528488Y-108038550D01*
X178528488Y-108038550D02*
X178515841Y-108239562D01*
X178515841Y-108239562D02*
X178504671Y-108380944D01*
X178504671Y-108380944D02*
X178499747Y-108426430D01*
X178499747Y-108426430D02*
X178495328Y-108453599D01*
X178495328Y-108453599D02*
X178489946Y-108479439D01*
X178489946Y-108479439D02*
X178486503Y-108503791D01*
X178486503Y-108503791D02*
X178485200Y-108526972D01*
X178485200Y-108526972D02*
X178486241Y-108549310D01*
X178486241Y-108549310D02*
X178489835Y-108571122D01*
X178489835Y-108571122D02*
X178496179Y-108592743D01*
X178496179Y-108592743D02*
X178505476Y-108614482D01*
X178505476Y-108614482D02*
X178517929Y-108636682D01*
X178517929Y-108636682D02*
X178533741Y-108659652D01*
X178533741Y-108659652D02*
X178553115Y-108683722D01*
X178553115Y-108683722D02*
X178576253Y-108709213D01*
X178576253Y-108709213D02*
X178603359Y-108736454D01*
X178603359Y-108736454D02*
X178634635Y-108765763D01*
X178634635Y-108765763D02*
X178670284Y-108797467D01*
X178670284Y-108797467D02*
X178755509Y-108869359D01*
X178755509Y-108869359D02*
X178796321Y-108904183D01*
X178796321Y-108904183D02*
X178834013Y-108938815D01*
X178834013Y-108938815D02*
X178868594Y-108973211D01*
X178868594Y-108973211D02*
X178900075Y-109007331D01*
X178900075Y-109007331D02*
X178928464Y-109041135D01*
X178928464Y-109041135D02*
X178953774Y-109074576D01*
X178953774Y-109074576D02*
X178976013Y-109107616D01*
X178976013Y-109107616D02*
X178995191Y-109140209D01*
X178995191Y-109140209D02*
X179011319Y-109172315D01*
X179011319Y-109172315D02*
X179024406Y-109203894D01*
X179024406Y-109203894D02*
X179034462Y-109234907D01*
X179034462Y-109234907D02*
X179041497Y-109265301D01*
X179041497Y-109265301D02*
X179045524Y-109295044D01*
X179045524Y-109295044D02*
X179046545Y-109324089D01*
X179046545Y-109324089D02*
X179044581Y-109352397D01*
X179044581Y-109352397D02*
X179039631Y-109379921D01*
X179039631Y-109379921D02*
X179031712Y-109406623D01*
X179031712Y-109406623D02*
X179020832Y-109432470D01*
X179020832Y-109432470D02*
X179007000Y-109457401D01*
X179007000Y-109457401D02*
X178990227Y-109481385D01*
X178990227Y-109481385D02*
X178970523Y-109504381D01*
X178970523Y-109504381D02*
X178947897Y-109526344D01*
X178947897Y-109526344D02*
X178922361Y-109547235D01*
X178922361Y-109547235D02*
X178893922Y-109567013D01*
X178893922Y-109567013D02*
X178862593Y-109585626D01*
X178862593Y-109585626D02*
X178828381Y-109603048D01*
X178828381Y-109603048D02*
X178791299Y-109619219D01*
X178791299Y-109619219D02*
X178751355Y-109634113D01*
X178751355Y-109634113D02*
X178708558Y-109647678D01*
X178708558Y-109647678D02*
X178662921Y-109659874D01*
X178662921Y-109659874D02*
X178614452Y-109670661D01*
X178614452Y-109670661D02*
X178563161Y-109680001D01*
X178563161Y-109680001D02*
X178316543Y-109720235D01*
X178316543Y-109720235D02*
X178356964Y-110549260D01*
X178356964Y-110549260D02*
X178368458Y-110750048D01*
X178368458Y-110750048D02*
X178385706Y-111003588D01*
X178385706Y-111003588D02*
X178407865Y-111299594D01*
X178407865Y-111299594D02*
X178434089Y-111627777D01*
X178434089Y-111627777D02*
X178463535Y-111977851D01*
X178463535Y-111977851D02*
X178495359Y-112339542D01*
X178495359Y-112339542D02*
X178528716Y-112702563D01*
X178528716Y-112702563D02*
X178562762Y-113056626D01*
X178562762Y-113056626D02*
X178597588Y-113421634D01*
X178597588Y-113421634D02*
X178633175Y-113816016D01*
X178633175Y-113816016D02*
X178668524Y-114227287D01*
X178668524Y-114227287D02*
X178702634Y-114642974D01*
X178702634Y-114642974D02*
X178734505Y-115050586D01*
X178734505Y-115050586D02*
X178763135Y-115437643D01*
X178763135Y-115437643D02*
X178787526Y-115791659D01*
X178787526Y-115791659D02*
X178806676Y-116100150D01*
X178806676Y-116100150D02*
X178885207Y-117465341D01*
X178885207Y-117465341D02*
X179117625Y-117504561D01*
X179117625Y-117504561D02*
X179225416Y-117523529D01*
X179225416Y-117523529D02*
X179331843Y-117543827D01*
X179331843Y-117543827D02*
X179436906Y-117565461D01*
X179436906Y-117565461D02*
X179540600Y-117588418D01*
X179540600Y-117588418D02*
X179642925Y-117612712D01*
X179642925Y-117612712D02*
X179743876Y-117638328D01*
X179743876Y-117638328D02*
X179843452Y-117665266D01*
X179843452Y-117665266D02*
X179941650Y-117693535D01*
X179941650Y-117693535D02*
X180038467Y-117723126D01*
X180038467Y-117723126D02*
X180133901Y-117754034D01*
X180133901Y-117754034D02*
X180227950Y-117786271D01*
X180227950Y-117786271D02*
X180320611Y-117819825D01*
X180320611Y-117819825D02*
X180411882Y-117854694D01*
X180411882Y-117854694D02*
X180501759Y-117890887D01*
X180501759Y-117890887D02*
X180590240Y-117928396D01*
X180590240Y-117928396D02*
X180677324Y-117967222D01*
X180677324Y-117967222D02*
X180763007Y-118007357D01*
X180763007Y-118007357D02*
X180847288Y-118048809D01*
X180847288Y-118048809D02*
X180930162Y-118091570D01*
X180930162Y-118091570D02*
X181011629Y-118135648D01*
X181011629Y-118135648D02*
X181091685Y-118181035D01*
X181091685Y-118181035D02*
X181170327Y-118227726D01*
X181170327Y-118227726D02*
X181247554Y-118275726D01*
X181247554Y-118275726D02*
X181323363Y-118325036D01*
X181323363Y-118325036D02*
X181397751Y-118375643D01*
X181397751Y-118375643D02*
X181470716Y-118427559D01*
X181470716Y-118427559D02*
X181542256Y-118480779D01*
X181542256Y-118480779D02*
X181612366Y-118535302D01*
X181612366Y-118535302D02*
X181681047Y-118591128D01*
X181681047Y-118591128D02*
X181748294Y-118648251D01*
X181748294Y-118648251D02*
X181814106Y-118706670D01*
X181814106Y-118706670D02*
X181878479Y-118766386D01*
X181878479Y-118766386D02*
X181974619Y-118859227D01*
X181974619Y-118859227D02*
X182068109Y-118952983D01*
X182068109Y-118952983D02*
X182159075Y-119047892D01*
X182159075Y-119047892D02*
X182247639Y-119144195D01*
X182247639Y-119144195D02*
X182333929Y-119242137D01*
X182333929Y-119242137D02*
X182418067Y-119341956D01*
X182418067Y-119341956D02*
X182500179Y-119443893D01*
X182500179Y-119443893D02*
X182580390Y-119548193D01*
X182580390Y-119548193D02*
X182658824Y-119655106D01*
X182658824Y-119655106D02*
X182735605Y-119764856D01*
X182735605Y-119764856D02*
X182810858Y-119877706D01*
X182810858Y-119877706D02*
X182884709Y-119993880D01*
X182884709Y-119993880D02*
X182957281Y-120113634D01*
X182957281Y-120113634D02*
X183028699Y-120237199D01*
X183028699Y-120237199D02*
X183099088Y-120364825D01*
X183099088Y-120364825D02*
X183168573Y-120496748D01*
X183168573Y-120496748D02*
X183237279Y-120633213D01*
X183237279Y-120633213D02*
X183305329Y-120774463D01*
X183305329Y-120774463D02*
X183372848Y-120920742D01*
X183372848Y-120920742D02*
X183439962Y-121072286D01*
X183439962Y-121072286D02*
X183506795Y-121229345D01*
X183506795Y-121229345D02*
X183573471Y-121392150D01*
X183573471Y-121392150D02*
X183640115Y-121560951D01*
X183640115Y-121560951D02*
X183706853Y-121735998D01*
X183706853Y-121735998D02*
X183773807Y-121917515D01*
X183773807Y-121917515D02*
X183841104Y-122105758D01*
X183841104Y-122105758D02*
X183908868Y-122300958D01*
X183908868Y-122300958D02*
X183977223Y-122503365D01*
X183977223Y-122503365D02*
X184046295Y-122713223D01*
X184046295Y-122713223D02*
X184116207Y-122930774D01*
X184116207Y-122930774D02*
X184187084Y-123156250D01*
X184187084Y-123156250D02*
X184259052Y-123389901D01*
X184259052Y-123389901D02*
X184327747Y-123612323D01*
X184327747Y-123612323D02*
X184394987Y-123824234D01*
X184394987Y-123824234D02*
X184460945Y-124025878D01*
X184460945Y-124025878D02*
X184525797Y-124217465D01*
X184525797Y-124217465D02*
X184589718Y-124399225D01*
X184589718Y-124399225D02*
X184652882Y-124571389D01*
X184652882Y-124571389D02*
X184715463Y-124734174D01*
X184715463Y-124734174D02*
X184777637Y-124887818D01*
X184777637Y-124887818D02*
X184839578Y-125032536D01*
X184839578Y-125032536D02*
X184901460Y-125168554D01*
X184901460Y-125168554D02*
X184963459Y-125296101D01*
X184963459Y-125296101D02*
X184994556Y-125356771D01*
X184994556Y-125356771D02*
X185025748Y-125415407D01*
X185025748Y-125415407D02*
X185057056Y-125472036D01*
X185057056Y-125472036D02*
X185088503Y-125526691D01*
X185088503Y-125526691D02*
X185120110Y-125579390D01*
X185120110Y-125579390D02*
X185151898Y-125630175D01*
X185151898Y-125630175D02*
X185183890Y-125679070D01*
X185183890Y-125679070D02*
X185216107Y-125726097D01*
X185216107Y-125726097D02*
X185248572Y-125771293D01*
X185248572Y-125771293D02*
X185281307Y-125814673D01*
X185281307Y-125814673D02*
X185314332Y-125856283D01*
X185314332Y-125856283D02*
X185347670Y-125896135D01*
X185347670Y-125896135D02*
X185381343Y-125934269D01*
X185381343Y-125934269D02*
X185415372Y-125970706D01*
X185415372Y-125970706D02*
X185449779Y-126005477D01*
X185449779Y-126005477D02*
X185484586Y-126038609D01*
X185484586Y-126038609D02*
X185519816Y-126070129D01*
X185519816Y-126070129D02*
X185555490Y-126100076D01*
X185555490Y-126100076D02*
X185591629Y-126128462D01*
X185591629Y-126128462D02*
X185628255Y-126155322D01*
X185628255Y-126155322D02*
X185665391Y-126180688D01*
X185665391Y-126180688D02*
X185703058Y-126204586D01*
X185703058Y-126204586D02*
X185741278Y-126227037D01*
X185741278Y-126227037D02*
X185780073Y-126248085D01*
X185780073Y-126248085D02*
X185819464Y-126267738D01*
X185819464Y-126267738D02*
X185859474Y-126286042D01*
X185859474Y-126286042D02*
X185900124Y-126303016D01*
X185900124Y-126303016D02*
X185941437Y-126318693D01*
X185941437Y-126318693D02*
X185983433Y-126333094D01*
X185983433Y-126333094D02*
X186026135Y-126346258D01*
X186026135Y-126346258D02*
X186069564Y-126358203D01*
X186069564Y-126358203D02*
X186113743Y-126368964D01*
X186113743Y-126368964D02*
X186158693Y-126378561D01*
X186158693Y-126378561D02*
X186204437Y-126387031D01*
X186204437Y-126387031D02*
X186250995Y-126394403D01*
X186250995Y-126394403D02*
X186298390Y-126400721D01*
X186298390Y-126400721D02*
X186346644Y-126405987D01*
X186346644Y-126405987D02*
X186395778Y-126410199D01*
X186395778Y-126410199D02*
X186445814Y-126413424D01*
X186445814Y-126413424D02*
X186496775Y-126415727D01*
X186496775Y-126415727D02*
X186601555Y-126417505D01*
X186601555Y-126417505D02*
X186692398Y-126415793D01*
X186692398Y-126415793D02*
X186780985Y-126410660D01*
X186780985Y-126410660D02*
X186867311Y-126402103D01*
X186867311Y-126402103D02*
X186951371Y-126390138D01*
X186951371Y-126390138D02*
X187033157Y-126374763D01*
X187033157Y-126374763D02*
X187112664Y-126355985D01*
X187112664Y-126355985D02*
X187189887Y-126333812D01*
X187189887Y-126333812D02*
X187264819Y-126308255D01*
X187264819Y-126308255D02*
X187301424Y-126294203D01*
X187301424Y-126294203D02*
X187337455Y-126279308D01*
X187337455Y-126279308D02*
X187372910Y-126263572D01*
X187372910Y-126263572D02*
X187407788Y-126246986D01*
X187407788Y-126246986D02*
X187442089Y-126229564D01*
X187442089Y-126229564D02*
X187475813Y-126211293D01*
X187475813Y-126211293D02*
X187508958Y-126192186D01*
X187508958Y-126192186D02*
X187541524Y-126172237D01*
X187541524Y-126172237D02*
X187573510Y-126151446D01*
X187573510Y-126151446D02*
X187604915Y-126129812D01*
X187604915Y-126129812D02*
X187635739Y-126107348D01*
X187635739Y-126107348D02*
X187665980Y-126084036D01*
X187665980Y-126084036D02*
X187695639Y-126059894D01*
X187695639Y-126059894D02*
X187724714Y-126034917D01*
X187724714Y-126034917D02*
X187753204Y-126009097D01*
X187753204Y-126009097D02*
X187781110Y-125982447D01*
X187781110Y-125982447D02*
X187808429Y-125954962D01*
X187808429Y-125954962D02*
X187835162Y-125926641D01*
X187835162Y-125926641D02*
X187861308Y-125897491D01*
X187861308Y-125897491D02*
X187886866Y-125867504D01*
X187886866Y-125867504D02*
X187936214Y-125805037D01*
X187936214Y-125805037D02*
X187983201Y-125739260D01*
X187983201Y-125739260D02*
X188027821Y-125670159D01*
X188027821Y-125670159D02*
X188070068Y-125597753D01*
X188070068Y-125597753D02*
X188109937Y-125522044D01*
X188109937Y-125522044D02*
X188147421Y-125443037D01*
X188147421Y-125443037D02*
X188182515Y-125360740D01*
X188182515Y-125360740D02*
X188215212Y-125275151D01*
X188215212Y-125275151D02*
X188245508Y-125186285D01*
X188245508Y-125186285D02*
X188273395Y-125094148D01*
X188273395Y-125094148D02*
X188298868Y-124998739D01*
X188298868Y-124998739D02*
X188321922Y-124900073D01*
X188321922Y-124900073D02*
X188342551Y-124798142D01*
X188342551Y-124798142D02*
X188360747Y-124692966D01*
X188360747Y-124692966D02*
X188377035Y-124593517D01*
X188377035Y-124593517D02*
X188392769Y-124504611D01*
X188392769Y-124504611D02*
X188408289Y-124425677D01*
X188408289Y-124425677D02*
X188423933Y-124356154D01*
X188423933Y-124356154D02*
X188440042Y-124295464D01*
X188440042Y-124295464D02*
X188456955Y-124243041D01*
X188456955Y-124243041D02*
X188465819Y-124219748D01*
X188465819Y-124219748D02*
X188475011Y-124198312D01*
X188475011Y-124198312D02*
X188484573Y-124178652D01*
X188484573Y-124178652D02*
X188494549Y-124160711D01*
X188494549Y-124160711D02*
X188504980Y-124144401D01*
X188504980Y-124144401D02*
X188515910Y-124129665D01*
X188515910Y-124129665D02*
X188527379Y-124116422D01*
X188527379Y-124116422D02*
X188539431Y-124104608D01*
X188539431Y-124104608D02*
X188552109Y-124094143D01*
X188552109Y-124094143D02*
X188565454Y-124084968D01*
X188565454Y-124084968D02*
X188579508Y-124076998D01*
X188579508Y-124076998D02*
X188594315Y-124070173D01*
X188594315Y-124070173D02*
X188609917Y-124064447D01*
X188609917Y-124064447D02*
X188626357Y-124059708D01*
X188626357Y-124059708D02*
X188643676Y-124055890D01*
X188643676Y-124055890D02*
X188661917Y-124052929D01*
X188661917Y-124052929D02*
X188701335Y-124049243D01*
X188701335Y-124049243D02*
X188744950Y-124048124D01*
X188744950Y-124048124D02*
X188782539Y-124049769D01*
X188782539Y-124049769D02*
X188820225Y-124054574D01*
X188820225Y-124054574D02*
X188856997Y-124062183D01*
X188856997Y-124062183D02*
X188891842Y-124072253D01*
X188891842Y-124072253D02*
X188923749Y-124084442D01*
X188923749Y-124084442D02*
X188951706Y-124098408D01*
X188951706Y-124098408D02*
X188963886Y-124105957D01*
X188963886Y-124105957D02*
X188974699Y-124113829D01*
X188974699Y-124113829D02*
X188984020Y-124121977D01*
X188984020Y-124121977D02*
X188991719Y-124130356D01*
X188991719Y-124130356D02*
X189005666Y-124149410D01*
X189005666Y-124149410D02*
X189019261Y-124171524D01*
X189019261Y-124171524D02*
X189032496Y-124196666D01*
X189032496Y-124196666D02*
X189045366Y-124224777D01*
X189045366Y-124224777D02*
X189057864Y-124255810D01*
X189057864Y-124255810D02*
X189069984Y-124289719D01*
X189069984Y-124289719D02*
X189081719Y-124326451D01*
X189081719Y-124326451D02*
X189093066Y-124365968D01*
X189093066Y-124365968D02*
X189104015Y-124408209D01*
X189104015Y-124408209D02*
X189114563Y-124453136D01*
X189114563Y-124453136D02*
X189134426Y-124550848D01*
X189134426Y-124550848D02*
X189152606Y-124658702D01*
X189152606Y-124658702D02*
X189169054Y-124776330D01*
X189169054Y-124776330D02*
X189183721Y-124903331D01*
X189183721Y-124903331D02*
X189196558Y-125039329D01*
X189196558Y-125039329D02*
X189207516Y-125183935D01*
X189207516Y-125183935D02*
X189216545Y-125336762D01*
X189216545Y-125336762D02*
X189223597Y-125497428D01*
X189223597Y-125497428D02*
X189228625Y-125665545D01*
X189228625Y-125665545D02*
X189231578Y-125840730D01*
X189231578Y-125840730D02*
X189232403Y-126022596D01*
X189232403Y-126022596D02*
X189230786Y-126220001D01*
X189230786Y-126220001D02*
X189226412Y-126407224D01*
X189226412Y-126407224D02*
X189219159Y-126584930D01*
X189219159Y-126584930D02*
X189208905Y-126753790D01*
X189208905Y-126753790D02*
X189195525Y-126914469D01*
X189195525Y-126914469D02*
X189187625Y-126991949D01*
X189187625Y-126991949D02*
X189178897Y-127067632D01*
X189178897Y-127067632D02*
X189169326Y-127141610D01*
X189169326Y-127141610D02*
X189158897Y-127213957D01*
X189158897Y-127213957D02*
X189147594Y-127284762D01*
X189147594Y-127284762D02*
X189135403Y-127354107D01*
X189135403Y-127354107D02*
X189122307Y-127422077D01*
X189122307Y-127422077D02*
X189108290Y-127488756D01*
X189108290Y-127488756D02*
X189093338Y-127554224D01*
X189093338Y-127554224D02*
X189077436Y-127618560D01*
X189077436Y-127618560D02*
X189060567Y-127681863D01*
X189060567Y-127681863D02*
X189042717Y-127744205D01*
X189042717Y-127744205D02*
X189023870Y-127805665D01*
X189023870Y-127805665D02*
X189004011Y-127866342D01*
X189004011Y-127866342D02*
X188983123Y-127926308D01*
X188983123Y-127926308D02*
X188961192Y-127985648D01*
X188961192Y-127985648D02*
X188938203Y-128044449D01*
X188938203Y-128044449D02*
X188914140Y-128102796D01*
X188914140Y-128102796D02*
X188888988Y-128160761D01*
X188888988Y-128160761D02*
X188862730Y-128218443D01*
X188862730Y-128218443D02*
X188835352Y-128275914D01*
X188835352Y-128275914D02*
X188806839Y-128333267D01*
X188806839Y-128333267D02*
X188782369Y-128383176D01*
X188782369Y-128383176D02*
X188761577Y-128429288D01*
X188761577Y-128429288D02*
X188744476Y-128471687D01*
X188744476Y-128471687D02*
X188731078Y-128510447D01*
X188731078Y-128510447D02*
X188721393Y-128545659D01*
X188721393Y-128545659D02*
X188715435Y-128577396D01*
X188715435Y-128577396D02*
X188713216Y-128605743D01*
X188713216Y-128605743D02*
X188713543Y-128618670D01*
X188713543Y-128618670D02*
X188714780Y-128630780D01*
X188714780Y-128630780D02*
X188716954Y-128642081D01*
X188716954Y-128642081D02*
X188720070Y-128652592D01*
X188720070Y-128652592D02*
X188724129Y-128662313D01*
X188724129Y-128662313D02*
X188729131Y-128671258D01*
X188729131Y-128671258D02*
X188735082Y-128679432D01*
X188735082Y-128679432D02*
X188741981Y-128686856D01*
X188741981Y-128686856D02*
X188749830Y-128693530D01*
X188749830Y-128693530D02*
X188758628Y-128699454D01*
X188758628Y-128699454D02*
X188768379Y-128704653D01*
X188768379Y-128704653D02*
X188779084Y-128709129D01*
X188779084Y-128709129D02*
X188803361Y-128716026D01*
X188803361Y-128716026D02*
X188831470Y-128720173D01*
X188831470Y-128720173D02*
X188863425Y-128721687D01*
X188863425Y-128721687D02*
X188885983Y-128722740D01*
X188885983Y-128722740D02*
X188910348Y-128725636D01*
X188910348Y-128725636D02*
X188936415Y-128730243D01*
X188936415Y-128730243D02*
X188964080Y-128736561D01*
X188964080Y-128736561D02*
X188993237Y-128744545D01*
X188993237Y-128744545D02*
X189023781Y-128754102D01*
X189023781Y-128754102D02*
X189088614Y-128777717D01*
X189088614Y-128777717D02*
X189157739Y-128806913D01*
X189157739Y-128806913D02*
X189230317Y-128841217D01*
X189230317Y-128841217D02*
X189305511Y-128880135D01*
X189305511Y-128880135D02*
X189382480Y-128923186D01*
X189382480Y-128923186D02*
X189460386Y-128969876D01*
X189460386Y-128969876D02*
X189538391Y-129019726D01*
X189538391Y-129019726D02*
X189615657Y-129072241D01*
X189615657Y-129072241D02*
X189691343Y-129126949D01*
X189691343Y-129126949D02*
X189764611Y-129183354D01*
X189764611Y-129183354D02*
X189834623Y-129240977D01*
X189834623Y-129240977D02*
X189900540Y-129299323D01*
X189900540Y-129299323D02*
X189961523Y-129357907D01*
X189961523Y-129357907D02*
X190014624Y-129412845D01*
X190014624Y-129412845D02*
X190066494Y-129469638D01*
X190066494Y-129469638D02*
X190117125Y-129528268D01*
X190117125Y-129528268D02*
X190166507Y-129588714D01*
X190166507Y-129588714D02*
X190214632Y-129650951D01*
X190214632Y-129650951D02*
X190261491Y-129714965D01*
X190261491Y-129714965D02*
X190307075Y-129780722D01*
X190307075Y-129780722D02*
X190351377Y-129848211D01*
X190351377Y-129848211D02*
X190394385Y-129917405D01*
X190394385Y-129917405D02*
X190436093Y-129988290D01*
X190436093Y-129988290D02*
X190476490Y-130060833D01*
X190476490Y-130060833D02*
X190515569Y-130135022D01*
X190515569Y-130135022D02*
X190553320Y-130210824D01*
X190553320Y-130210824D02*
X190589735Y-130288231D01*
X190589735Y-130288231D02*
X190624805Y-130367211D01*
X190624805Y-130367211D02*
X190658520Y-130447745D01*
X190658520Y-130447745D02*
X190690873Y-130529812D01*
X190690873Y-130529812D02*
X190721854Y-130613393D01*
X190721854Y-130613393D02*
X190751455Y-130698469D01*
X190751455Y-130698469D02*
X190779666Y-130785005D01*
X190779666Y-130785005D02*
X190806479Y-130872989D01*
X190806479Y-130872989D02*
X190831886Y-130962395D01*
X190831886Y-130962395D02*
X190855876Y-131053209D01*
X190855876Y-131053209D02*
X190878442Y-131145406D01*
X190878442Y-131145406D02*
X190899575Y-131238958D01*
X190899575Y-131238958D02*
X190919266Y-131333853D01*
X190919266Y-131333853D02*
X190937505Y-131430058D01*
X190937505Y-131430058D02*
X190954285Y-131527559D01*
X190954285Y-131527559D02*
X190969596Y-131626337D01*
X190969596Y-131626337D02*
X190983430Y-131726360D01*
X190983430Y-131726360D02*
X190995778Y-131827619D01*
X190995778Y-131827619D02*
X191006630Y-131930083D01*
X191006630Y-131930083D02*
X191019447Y-132070142D01*
X191019447Y-132070142D02*
X191023859Y-132129173D01*
X191023859Y-132129173D02*
X191026812Y-132181702D01*
X191026812Y-132181702D02*
X191028207Y-132228353D01*
X191028207Y-132228353D02*
X191027945Y-132269732D01*
X191027945Y-132269732D02*
X191025935Y-132306478D01*
X191025935Y-132306478D02*
X191022079Y-132339195D01*
X191022079Y-132339195D02*
X191016278Y-132368517D01*
X191016278Y-132368517D02*
X191008441Y-132395054D01*
X191008441Y-132395054D02*
X190998468Y-132419439D01*
X190998468Y-132419439D02*
X190986263Y-132442278D01*
X190986263Y-132442278D02*
X190971729Y-132464202D01*
X190971729Y-132464202D02*
X190954769Y-132485822D01*
X190954769Y-132485822D02*
X190935287Y-132507766D01*
X190935287Y-132507766D02*
X190913185Y-132530657D01*
X190913185Y-132530657D02*
X190878345Y-132564197D01*
X190878345Y-132564197D02*
X190845148Y-132592808D01*
X190845148Y-132592808D02*
X190813188Y-132616417D01*
X190813188Y-132616417D02*
X190797546Y-132626322D01*
X190797546Y-132626322D02*
X190782059Y-132634964D01*
X190782059Y-132634964D02*
X190766679Y-132642316D01*
X190766679Y-132642316D02*
X190751354Y-132648371D01*
X190751354Y-132648371D02*
X190736033Y-132653110D01*
X190736033Y-132653110D02*
X190720666Y-132656598D01*
X190720666Y-132656598D02*
X190705200Y-132658770D01*
X190705200Y-132658770D02*
X190689588Y-132659625D01*
X190689588Y-132659625D02*
X190673776Y-132658967D01*
X190673776Y-132658967D02*
X190657713Y-132657124D01*
X190657713Y-132657124D02*
X190641350Y-132653965D01*
X190641350Y-132653965D02*
X190624637Y-132649424D01*
X190624637Y-132649424D02*
X190607519Y-132643566D01*
X190607519Y-132643566D02*
X190589949Y-132636313D01*
X190589949Y-132636313D02*
X190571876Y-132627691D01*
X190571876Y-132627691D02*
X190553246Y-132617687D01*
X190553246Y-132617687D02*
X190514121Y-132593493D01*
X190514121Y-132593493D02*
X190472165Y-132563677D01*
X190472165Y-132563677D02*
X190426973Y-132528176D01*
X190426973Y-132528176D02*
X190378138Y-132486922D01*
X190378138Y-132486922D02*
X190325254Y-132439856D01*
X190325254Y-132439856D02*
X190266578Y-132388657D01*
X190266578Y-132388657D02*
X190206454Y-132340360D01*
X190206454Y-132340360D02*
X190144830Y-132294953D01*
X190144830Y-132294953D02*
X190081654Y-132252442D01*
X190081654Y-132252442D02*
X190016873Y-132212813D01*
X190016873Y-132212813D02*
X189950433Y-132176074D01*
X189950433Y-132176074D02*
X189882283Y-132142211D01*
X189882283Y-132142211D02*
X189812369Y-132111225D01*
X189812369Y-132111225D02*
X189740638Y-132083108D01*
X189740638Y-132083108D02*
X189667039Y-132057860D01*
X189667039Y-132057860D02*
X189591518Y-132035476D01*
X189591518Y-132035476D02*
X189514023Y-132015948D01*
X189514023Y-132015948D02*
X189434501Y-131999277D01*
X189434501Y-131999277D02*
X189352899Y-131985455D01*
X189352899Y-131985455D02*
X189269164Y-131974483D01*
X189269164Y-131974483D02*
X189183244Y-131966355D01*
X189183244Y-131966355D02*
X189095086Y-131961090D01*
X189095086Y-131961090D02*
X189004638Y-131958654D01*
X189004638Y-131958654D02*
X188911846Y-131959312D01*
X188911846Y-131959312D02*
X188816658Y-131962537D01*
X188816658Y-131962537D02*
X188719021Y-131968527D01*
X188719021Y-131968527D02*
X188618883Y-131977366D01*
X188618883Y-131977366D02*
X188516191Y-131989022D01*
X188516191Y-131989022D02*
X188410891Y-132003482D01*
X188410891Y-132003482D02*
X188302933Y-132020753D01*
X188302933Y-132020753D02*
X188192261Y-132040827D01*
X188192261Y-132040827D02*
X188078825Y-132063698D01*
X188078825Y-132063698D02*
X187962571Y-132089367D01*
X187962571Y-132089367D02*
X187843446Y-132117820D01*
X187843446Y-132117820D02*
X187721399Y-132149056D01*
X187721399Y-132149056D02*
X187596375Y-132183084D01*
X187596375Y-132183084D02*
X187468323Y-132219882D01*
X187468323Y-132219882D02*
X187288844Y-132273753D01*
X187288844Y-132273753D02*
X187138946Y-132320589D01*
X187138946Y-132320589D02*
X187034303Y-132355366D01*
X187034303Y-132355366D02*
X187003851Y-132366661D01*
X187003851Y-132366661D02*
X186990590Y-132373045D01*
X186990590Y-132373045D02*
X186989621Y-132376402D01*
X186989621Y-132376402D02*
X186990668Y-132382588D01*
X186990668Y-132382588D02*
X186998448Y-132402998D01*
X186998448Y-132402998D02*
X187013205Y-132432978D01*
X187013205Y-132432978D02*
X187034218Y-132471251D01*
X187034218Y-132471251D02*
X187060767Y-132516559D01*
X187060767Y-132516559D02*
X187092130Y-132567633D01*
X187092130Y-132567633D02*
X187127586Y-132623196D01*
X187127586Y-132623196D02*
X187166414Y-132681997D01*
X187166414Y-132681997D02*
X187221732Y-132767335D01*
X187221732Y-132767335D02*
X187273967Y-132853957D01*
X187273967Y-132853957D02*
X187323117Y-132941849D01*
X187323117Y-132941849D02*
X187369179Y-133031018D01*
X187369179Y-133031018D02*
X187412152Y-133121444D01*
X187412152Y-133121444D02*
X187452033Y-133213134D01*
X187452033Y-133213134D02*
X187488821Y-133306067D01*
X187488821Y-133306067D02*
X187522514Y-133400251D01*
X187522514Y-133400251D02*
X187553109Y-133495673D01*
X187553109Y-133495673D02*
X187580605Y-133592332D01*
X187580605Y-133592332D02*
X187604999Y-133690222D01*
X187604999Y-133690222D02*
X187626290Y-133789329D01*
X187626290Y-133789329D02*
X187644475Y-133889654D01*
X187644475Y-133889654D02*
X187659553Y-133991190D01*
X187659553Y-133991190D02*
X187671521Y-134093930D01*
X187671521Y-134093930D02*
X187680378Y-134197868D01*
X187680378Y-134197868D02*
X187685151Y-134278830D01*
X187685151Y-134278830D02*
X187687874Y-134355704D01*
X187687874Y-134355704D02*
X187688555Y-134428478D01*
X187688555Y-134428478D02*
X187687193Y-134497145D01*
X187687193Y-134497145D02*
X187683796Y-134561718D01*
X187683796Y-134561718D02*
X187678368Y-134622184D01*
X187678368Y-134622184D02*
X187670914Y-134678537D01*
X187670914Y-134678537D02*
X187661438Y-134730782D01*
X187661438Y-134730782D02*
X187649944Y-134778914D01*
X187649944Y-134778914D02*
X187636439Y-134822926D01*
X187636439Y-134822926D02*
X187620924Y-134862818D01*
X187620924Y-134862818D02*
X187603407Y-134898583D01*
X187603407Y-134898583D02*
X187583891Y-134930228D01*
X187583891Y-134930228D02*
X187573385Y-134944497D01*
X187573385Y-134944497D02*
X187562380Y-134957739D01*
X187562380Y-134957739D02*
X187550878Y-134969948D01*
X187550878Y-134969948D02*
X187538880Y-134981118D01*
X187538880Y-134981118D02*
X187526385Y-134991260D01*
X187526385Y-134991260D02*
X187513393Y-135000362D01*
X187513393Y-135000362D02*
X187499908Y-135008438D01*
X187499908Y-135008438D02*
X187485928Y-135015474D01*
X187485928Y-135015474D02*
X187471453Y-135021463D01*
X187471453Y-135021463D02*
X187456484Y-135026465D01*
X187456484Y-135026465D02*
X187441024Y-135030415D01*
X187441024Y-135030415D02*
X187425070Y-135033310D01*
X187425070Y-135033310D02*
X187408625Y-135035153D01*
X187408625Y-135035153D02*
X187391689Y-135035943D01*
X187391689Y-135035943D02*
X187374262Y-135035943D01*
X187374262Y-135035943D02*
X187356345Y-135034693D01*
X187356345Y-135034693D02*
X187319044Y-135029098D01*
X187319044Y-135029098D02*
X187279789Y-135019311D01*
X187279789Y-135019311D02*
X187238585Y-135005371D01*
X187238585Y-135005371D02*
X187195437Y-134987265D01*
X187195437Y-134987265D02*
X187150349Y-134964992D01*
X187150349Y-134964992D02*
X187103326Y-134938554D01*
X187103326Y-134938554D02*
X187054373Y-134907942D01*
X187054373Y-134907942D02*
X187003493Y-134873164D01*
X187003493Y-134873164D02*
X186950692Y-134834201D01*
X186950692Y-134834201D02*
X186895975Y-134791064D01*
X186895975Y-134791064D02*
X186839345Y-134743742D01*
X186839345Y-134743742D02*
X186789117Y-134701257D01*
X186789117Y-134701257D02*
X186739668Y-134660720D01*
X186739668Y-134660720D02*
X186690876Y-134622079D01*
X186690876Y-134622079D02*
X186642618Y-134585314D01*
X186642618Y-134585314D02*
X186594773Y-134550371D01*
X186594773Y-134550371D02*
X186547219Y-134517213D01*
X186547219Y-134517213D02*
X186499833Y-134485805D01*
X186499833Y-134485805D02*
X186452494Y-134456102D01*
X186452494Y-134456102D02*
X186405079Y-134428070D01*
X186405079Y-134428070D02*
X186357468Y-134401664D01*
X186357468Y-134401664D02*
X186309537Y-134376851D01*
X186309537Y-134376851D02*
X186261165Y-134353585D01*
X186261165Y-134353585D02*
X186212229Y-134331826D01*
X186212229Y-134331826D02*
X186162609Y-134311541D01*
X186162609Y-134311541D02*
X186112182Y-134292691D01*
X186112182Y-134292691D02*
X186060825Y-134275230D01*
X186060825Y-134275230D02*
X186008417Y-134259124D01*
X186008417Y-134259124D02*
X185954836Y-134244329D01*
X185954836Y-134244329D02*
X185899959Y-134230810D01*
X185899959Y-134230810D02*
X185843666Y-134218522D01*
X185843666Y-134218522D02*
X185785834Y-134207432D01*
X185785834Y-134207432D02*
X185726340Y-134197493D01*
X185726340Y-134197493D02*
X185665064Y-134188674D01*
X185665064Y-134188674D02*
X185601882Y-134180927D01*
X185601882Y-134180927D02*
X185536674Y-134174220D01*
X185536674Y-134174220D02*
X185469316Y-134168494D01*
X185469316Y-134168494D02*
X185399687Y-134163755D01*
X185399687Y-134163755D02*
X185327665Y-134159938D01*
X185327665Y-134159938D02*
X185175955Y-134154870D01*
X185175955Y-134154870D02*
X185013209Y-134153027D01*
X185013209Y-134153027D02*
X184786063Y-134153883D01*
X184786063Y-134153883D02*
X184687133Y-134155594D01*
X184687133Y-134155594D02*
X184596268Y-134158490D01*
X184596268Y-134158490D02*
X184512193Y-134162702D01*
X184512193Y-134162702D02*
X184433633Y-134168428D01*
X184433633Y-134168428D02*
X184359315Y-134175807D01*
X184359315Y-134175807D02*
X184287965Y-134185060D01*
X184287965Y-134185060D02*
X184218307Y-134196374D01*
X184218307Y-134196374D02*
X184149068Y-134209933D01*
X184149068Y-134209933D02*
X184078974Y-134225920D01*
X184078974Y-134225920D02*
X184006751Y-134244533D01*
X184006751Y-134244533D02*
X183931123Y-134265943D01*
X183931123Y-134265943D02*
X183850819Y-134290341D01*
X183850819Y-134290341D02*
X183764562Y-134317919D01*
X183764562Y-134317919D02*
X183671079Y-134348853D01*
X183671079Y-134348853D02*
X183578787Y-134379372D01*
X183578787Y-134379372D02*
X183493346Y-134406647D01*
X183493346Y-134406647D02*
X183413587Y-134430848D01*
X183413587Y-134430848D02*
X183338342Y-134452146D01*
X183338342Y-134452146D02*
X183266439Y-134470726D01*
X183266439Y-134470726D02*
X183196710Y-134486759D01*
X183196710Y-134486759D02*
X183127985Y-134500423D01*
X183127985Y-134500423D02*
X183059095Y-134511895D01*
X183059095Y-134511895D02*
X182988870Y-134521346D01*
X182988870Y-134521346D02*
X182916141Y-134528954D01*
X182916141Y-134528954D02*
X182839738Y-134534878D01*
X182839738Y-134534878D02*
X182758492Y-134539354D01*
X182758492Y-134539354D02*
X182671232Y-134542513D01*
X182671232Y-134542513D02*
X182576791Y-134544487D01*
X182576791Y-134544487D02*
X182361683Y-134545738D01*
X182361683Y-134545738D02*
X182218308Y-134544356D01*
X182218308Y-134544356D02*
X182084190Y-134540209D01*
X182084190Y-134540209D02*
X181958030Y-134532950D01*
X181958030Y-134532950D02*
X181897529Y-134528013D01*
X181897529Y-134528013D02*
X181838530Y-134522156D01*
X181838530Y-134522156D02*
X181780871Y-134515324D01*
X181780871Y-134515324D02*
X181724391Y-134507465D01*
X181724391Y-134507465D02*
X181668925Y-134498534D01*
X181668925Y-134498534D02*
X181614313Y-134488477D01*
X181614313Y-134488477D02*
X181560391Y-134477249D01*
X181560391Y-134477249D02*
X181506999Y-134464809D01*
X181506999Y-134464809D02*
X181453972Y-134451093D01*
X181453972Y-134451093D02*
X181401149Y-134436067D01*
X181401149Y-134436067D02*
X181348367Y-134419672D01*
X181348367Y-134419672D02*
X181295465Y-134401868D01*
X181295465Y-134401868D02*
X181242280Y-134382604D01*
X181242280Y-134382604D02*
X181188649Y-134361825D01*
X181188649Y-134361825D02*
X181134410Y-134339494D01*
X181134410Y-134339494D02*
X181079401Y-134315556D01*
X181079401Y-134315556D02*
X181023460Y-134289966D01*
X181023460Y-134289966D02*
X180966423Y-134262672D01*
X180966423Y-134262672D02*
X180848417Y-134202778D01*
X180848417Y-134202778D02*
X180724082Y-134135500D01*
X180724082Y-134135500D02*
X180592121Y-134060436D01*
X180592121Y-134060436D02*
X180451236Y-133977217D01*
X180451236Y-133977217D02*
X180371450Y-133927295D01*
X180371450Y-133927295D02*
X180290022Y-133872311D01*
X180290022Y-133872311D02*
X180207120Y-133812477D01*
X180207120Y-133812477D02*
X180122912Y-133747989D01*
X180122912Y-133747989D02*
X180037564Y-133679059D01*
X180037564Y-133679059D02*
X179951244Y-133605884D01*
X179951244Y-133605884D02*
X179864119Y-133528674D01*
X179864119Y-133528674D02*
X179776357Y-133447627D01*
X179776357Y-133447627D02*
X179688124Y-133362946D01*
X179688124Y-133362946D02*
X179599588Y-133274844D01*
X179599588Y-133274844D02*
X179510916Y-133183523D01*
X179510916Y-133183523D02*
X179422276Y-133089180D01*
X179422276Y-133089180D02*
X179333835Y-132992021D01*
X179333835Y-132992021D02*
X179245759Y-132892256D01*
X179245759Y-132892256D02*
X179158217Y-132790081D01*
X179158217Y-132790081D02*
X179071376Y-132685709D01*
X179071376Y-132685709D02*
X178985402Y-132579335D01*
X178985402Y-132579335D02*
X178900464Y-132471165D01*
X178900464Y-132471165D02*
X178816728Y-132361408D01*
X178816728Y-132361408D02*
X178734362Y-132250263D01*
X178734362Y-132250263D02*
X178653533Y-132137940D01*
X178653533Y-132137940D02*
X178574408Y-132024636D01*
X178574408Y-132024636D02*
X178497155Y-131910555D01*
X178497155Y-131910555D02*
X178421941Y-131795908D01*
X178421941Y-131795908D02*
X178348933Y-131680893D01*
X178348933Y-131680893D02*
X178278298Y-131565713D01*
X178278298Y-131565713D02*
X178210204Y-131450580D01*
X178210204Y-131450580D02*
X178144818Y-131335689D01*
X178144818Y-131335689D02*
X178082307Y-131221253D01*
X178082307Y-131221253D02*
X178022838Y-131107462D01*
X178022838Y-131107462D02*
X177966580Y-130994540D01*
X177966580Y-130994540D02*
X177913699Y-130882671D01*
X177913699Y-130882671D02*
X177873507Y-130793350D01*
X177873507Y-130793350D02*
X177834372Y-130702622D01*
X177834372Y-130702622D02*
X177796307Y-130610550D01*
X177796307Y-130610550D02*
X177759328Y-130517202D01*
X177759328Y-130517202D02*
X177723447Y-130422636D01*
X177723447Y-130422636D02*
X177688680Y-130326931D01*
X177688680Y-130326931D02*
X177655041Y-130230141D01*
X177655041Y-130230141D02*
X177622544Y-130132350D01*
X177622544Y-130132350D02*
X177591204Y-130033611D01*
X177591204Y-130033611D02*
X177561034Y-129933990D01*
X177561034Y-129933990D02*
X177532050Y-129833567D01*
X177532050Y-129833567D02*
X177504265Y-129732393D01*
X177504265Y-129732393D02*
X177477694Y-129630548D01*
X177477694Y-129630548D02*
X177452351Y-129528090D01*
X177452351Y-129528090D02*
X177428250Y-129425093D01*
X177428250Y-129425093D02*
X177405405Y-129321616D01*
X177405405Y-129321616D02*
X177383832Y-129217730D01*
X177383832Y-129217730D02*
X177363545Y-129113502D01*
X177363545Y-129113502D02*
X177344557Y-129008998D01*
X177344557Y-129008998D02*
X177326882Y-128904283D01*
X177326882Y-128904283D02*
X177310536Y-128799430D01*
X177310536Y-128799430D02*
X177295533Y-128694504D01*
X177295533Y-128694504D02*
X177281886Y-128589566D01*
X177281886Y-128589566D02*
X177269611Y-128484686D01*
X177269611Y-128484686D02*
X177258721Y-128379932D01*
X177258721Y-128379932D02*
X177249231Y-128275368D01*
X177249231Y-128275368D02*
X177241156Y-128171068D01*
X177241156Y-128171068D02*
X177234508Y-128067090D01*
X177234508Y-128067090D02*
X177229303Y-127963507D01*
X177229303Y-127963507D02*
X177225558Y-127860385D01*
X177225558Y-127860385D02*
X177223280Y-127757783D01*
X177223280Y-127757783D02*
X177222487Y-127655780D01*
X177222487Y-127655780D02*
X177221401Y-127566650D01*
X177221401Y-127566650D02*
X177218291Y-127482200D01*
X177218291Y-127482200D02*
X177213381Y-127404385D01*
X177213381Y-127404385D02*
X177206893Y-127335132D01*
X177206893Y-127335132D02*
X177199042Y-127276391D01*
X177199042Y-127276391D02*
X177190052Y-127230095D01*
X177190052Y-127230095D02*
X177185201Y-127212226D01*
X177185201Y-127212226D02*
X177180147Y-127198193D01*
X177180147Y-127198193D02*
X177174916Y-127188242D01*
X177174916Y-127188242D02*
X177169541Y-127182647D01*
X177169541Y-127182647D02*
X177168113Y-127182647D01*
X177168113Y-127182647D02*
X177166555Y-127183306D01*
X177166555Y-127183306D02*
X177163040Y-127187715D01*
X177163040Y-127187715D02*
X177159020Y-127196035D01*
X177159020Y-127196035D02*
X177154509Y-127208198D01*
X177154509Y-127208198D02*
X177144091Y-127243640D01*
X177144091Y-127243640D02*
X177131922Y-127293259D01*
X177131922Y-127293259D02*
X177118141Y-127356266D01*
X177118141Y-127356266D02*
X177102885Y-127431883D01*
X177102885Y-127431883D02*
X177068503Y-127617810D01*
X177068503Y-127617810D02*
X177029885Y-127844773D01*
X177029885Y-127844773D02*
X176988137Y-128106521D01*
X176988137Y-128106521D02*
X176944365Y-128396794D01*
X176944365Y-128396794D02*
X176899678Y-128709320D01*
X176899678Y-128709320D02*
X176827077Y-129224812D01*
X176827077Y-129224812D02*
X176755490Y-129720835D01*
X176755490Y-129720835D02*
X176684754Y-130198016D01*
X176684754Y-130198016D02*
X176614709Y-130656938D01*
X176614709Y-130656938D02*
X176545192Y-131098228D01*
X176545192Y-131098228D02*
X176476043Y-131522478D01*
X176476043Y-131522478D02*
X176407100Y-131930300D01*
X176407100Y-131930300D02*
X176338202Y-132322307D01*
X176338202Y-132322307D02*
X176269187Y-132699089D01*
X176269187Y-132699089D02*
X176199895Y-133061274D01*
X176199895Y-133061274D02*
X176130162Y-133409453D01*
X176130162Y-133409453D02*
X176059829Y-133744238D01*
X176059829Y-133744238D02*
X175988734Y-134066234D01*
X175988734Y-134066234D02*
X175916714Y-134376055D01*
X175916714Y-134376055D02*
X175843610Y-134674298D01*
X175843610Y-134674298D02*
X175806601Y-134819267D01*
X175806601Y-134819267D02*
X175769259Y-134961570D01*
X175769259Y-134961570D02*
X175731566Y-135101286D01*
X175731566Y-135101286D02*
X175693500Y-135238489D01*
X175693500Y-135238489D02*
X175655042Y-135373249D01*
X175655042Y-135373249D02*
X175616172Y-135505646D01*
X175616172Y-135505646D02*
X175576869Y-135635760D01*
X175576869Y-135635760D02*
X175537113Y-135763656D01*
X175537113Y-135763656D02*
X175496883Y-135889426D01*
X175496883Y-135889426D02*
X175456161Y-136013129D01*
X175456161Y-136013129D02*
X175414926Y-136134851D01*
X175414926Y-136134851D02*
X175373156Y-136254664D01*
X175373156Y-136254664D02*
X175330833Y-136372648D01*
X175330833Y-136372648D02*
X175287937Y-136488874D01*
X175287937Y-136488874D02*
X175244445Y-136603422D01*
X175244445Y-136603422D02*
X175200340Y-136716364D01*
X175200340Y-136716364D02*
X175155600Y-136827779D01*
X175155600Y-136827779D02*
X175110206Y-136937740D01*
X175110206Y-136937740D02*
X175064136Y-137046318D01*
X175064136Y-137046318D02*
X175017372Y-137153606D01*
X175017372Y-137153606D02*
X174969893Y-137259664D01*
X174969893Y-137259664D02*
X174921678Y-137364570D01*
X174921678Y-137364570D02*
X174872708Y-137468403D01*
X174872708Y-137468403D02*
X174822962Y-137571242D01*
X174822962Y-137571242D02*
X174772420Y-137673153D01*
X174772420Y-137673153D02*
X174721062Y-137774222D01*
X174721062Y-137774222D02*
X174668867Y-137874520D01*
X174668867Y-137874520D02*
X174615817Y-137974128D01*
X174615817Y-137974128D02*
X174561890Y-138073110D01*
X174561890Y-138073110D02*
X174507066Y-138171552D01*
X174507066Y-138171552D02*
X174451325Y-138269528D01*
X174451325Y-138269528D02*
X174394647Y-138367115D01*
X174394647Y-138367115D02*
X174278399Y-138561413D01*
X174278399Y-138561413D02*
X174175185Y-138727660D01*
X174175185Y-138727660D02*
X174071601Y-138888458D01*
X174071601Y-138888458D02*
X173967629Y-139043819D01*
X173967629Y-139043819D02*
X173863253Y-139193764D01*
X173863253Y-139193764D02*
X173758455Y-139338298D01*
X173758455Y-139338298D02*
X173653220Y-139477442D01*
X173653220Y-139477442D02*
X173547529Y-139611195D01*
X173547529Y-139611195D02*
X173441366Y-139739584D01*
X173441366Y-139739584D02*
X173334714Y-139862609D01*
X173334714Y-139862609D02*
X173281201Y-139922121D01*
X173281201Y-139922121D02*
X173227557Y-139980290D01*
X173227557Y-139980290D02*
X173173785Y-140037136D01*
X173173785Y-140037136D02*
X173119878Y-140092647D01*
X173119878Y-140092647D02*
X173065837Y-140146821D01*
X173065837Y-140146821D02*
X173011660Y-140199678D01*
X173011660Y-140199678D02*
X172957343Y-140251200D01*
X172957343Y-140251200D02*
X172902884Y-140301398D01*
X172902884Y-140301398D02*
X172848283Y-140350274D01*
X172848283Y-140350274D02*
X172793537Y-140397827D01*
X172793537Y-140397827D02*
X172738642Y-140444064D01*
X172738642Y-140444064D02*
X172683599Y-140488977D01*
X172683599Y-140488977D02*
X172628403Y-140532574D01*
X172628403Y-140532574D02*
X172573053Y-140574855D01*
X172573053Y-140574855D02*
X172517549Y-140615826D01*
X172517549Y-140615826D02*
X172461885Y-140655481D01*
X172461885Y-140655481D02*
X172406062Y-140693826D01*
X172406062Y-140693826D02*
X172350076Y-140730861D01*
X172350076Y-140730861D02*
X172293927Y-140766587D01*
X172293927Y-140766587D02*
X172237611Y-140801009D01*
X172237611Y-140801009D02*
X172181125Y-140834122D01*
X172181125Y-140834122D02*
X172124470Y-140865938D01*
X172124470Y-140865938D02*
X172067642Y-140896450D01*
X172067642Y-140896450D02*
X172010639Y-140925660D01*
X172010639Y-140925660D02*
X171953458Y-140953573D01*
X171953458Y-140953573D02*
X171896099Y-140980189D01*
X171896099Y-140980189D02*
X171838558Y-141005509D01*
X171838558Y-141005509D02*
X171780834Y-141029539D01*
X171780834Y-141029539D02*
X171722925Y-141052279D01*
X171722925Y-141052279D02*
X171664829Y-141073722D01*
X171664829Y-141073722D02*
X171606542Y-141093882D01*
X171606542Y-141093882D02*
X171548064Y-141112751D01*
X171548064Y-141112751D02*
X171489392Y-141130331D01*
X171489392Y-141130331D02*
X171430524Y-141146634D01*
X171430524Y-141146634D02*
X171371458Y-141161654D01*
X171371458Y-141161654D02*
X171312192Y-141175390D01*
X171312192Y-141175390D02*
X171252724Y-141187849D01*
X171252724Y-141187849D02*
X171193051Y-141199024D01*
X171193051Y-141199024D02*
X171133171Y-141208930D01*
X171133171Y-141208930D02*
X171073083Y-141217559D01*
X171073083Y-141217559D02*
X171012785Y-141224917D01*
X171012785Y-141224917D02*
X170952273Y-141230972D01*
X170952273Y-141230972D02*
X170891547Y-141235777D01*
X170891547Y-141235777D02*
X170830603Y-141239331D01*
X170830603Y-141239331D02*
X170769441Y-141241634D01*
X170769441Y-141241634D02*
X170708057Y-141242622D01*
X170708057Y-141242622D02*
X170635109Y-141242622D01*
X170635109Y-141242622D02*
X170564381Y-141241437D01*
X170564381Y-141241437D02*
X170495758Y-141239133D01*
X170495758Y-141239133D02*
X170429126Y-141235645D01*
X170429126Y-141235645D02*
X170364369Y-141230906D01*
X170364369Y-141230906D02*
X170301373Y-141224851D01*
X170301373Y-141224851D02*
X170240023Y-141217440D01*
X170240023Y-141217440D02*
X170180204Y-141208621D01*
X170180204Y-141208621D02*
X170121801Y-141198353D01*
X170121801Y-141198353D02*
X170064700Y-141186585D01*
X170064700Y-141186585D02*
X170008786Y-141173257D01*
X170008786Y-141173257D02*
X169953944Y-141158330D01*
X169953944Y-141158330D02*
X169900059Y-141141744D01*
X169900059Y-141141744D02*
X169847017Y-141123447D01*
X169847017Y-141123447D02*
X169794703Y-141103399D01*
X169794703Y-141103399D02*
X169743001Y-141081541D01*
X169743001Y-141081541D02*
X169691799Y-141057821D01*
X169691799Y-141057821D02*
X169640978Y-141032191D01*
X169640978Y-141032191D02*
X169590427Y-141004601D01*
X169590427Y-141004601D02*
X169540030Y-140974996D01*
X169540030Y-140974996D02*
X169489672Y-140943332D01*
X169489672Y-140943332D02*
X169439238Y-140909548D01*
X169439238Y-140909548D02*
X169388614Y-140873605D01*
X169388614Y-140873605D02*
X169337684Y-140835451D01*
X169337684Y-140835451D02*
X169286334Y-140795026D01*
X169286334Y-140795026D02*
X169234450Y-140752278D01*
X169234450Y-140752278D02*
X169181916Y-140707174D01*
X169181916Y-140707174D02*
X169128617Y-140659641D01*
X169128617Y-140659641D02*
X169074439Y-140609646D01*
X169074439Y-140609646D02*
X169019268Y-140557124D01*
X169019268Y-140557124D02*
X164808174Y-140496658D01*
X164808174Y-140496658D02*
X160574266Y-140552240D01*
X160574266Y-140552240D02*
X160494503Y-140610693D01*
X160494503Y-140610693D02*
X160414086Y-140666598D01*
X160414086Y-140666598D02*
X160333030Y-140719936D01*
X160333030Y-140719936D02*
X160251351Y-140770681D01*
X160251351Y-140770681D02*
X160169065Y-140818813D01*
X160169065Y-140818813D02*
X160086187Y-140864305D01*
X160086187Y-140864305D02*
X160002734Y-140907132D01*
X160002734Y-140907132D02*
X159918721Y-140947274D01*
X159918721Y-140947274D02*
X159834164Y-140984704D01*
X159834164Y-140984704D02*
X159749078Y-141019403D01*
X159749078Y-141019403D02*
X159663479Y-141051344D01*
X159663479Y-141051344D02*
X159577384Y-141080501D01*
X159577384Y-141080501D02*
X159490807Y-141106854D01*
X159490807Y-141106854D02*
X159403765Y-141130377D01*
X159403765Y-141130377D02*
X159316273Y-141151050D01*
X159316273Y-141151050D02*
X159220638Y-141171032D01*
X159220638Y-141171032D02*
X159125308Y-141188981D01*
X159125308Y-141188981D02*
X159030437Y-141204889D01*
X159030437Y-141204889D02*
X158936178Y-141218750D01*
X158936178Y-141218750D02*
X158842685Y-141230551D01*
X158842685Y-141230551D02*
X158750112Y-141240285D01*
X158750112Y-141240285D02*
X158658611Y-141247953D01*
X158658611Y-141247953D02*
X158568335Y-141253547D01*
X158568335Y-141253547D02*
X158479439Y-141257036D01*
X158479439Y-141257036D02*
X158392076Y-141258418D01*
X158392076Y-141258418D02*
X158306399Y-141257694D01*
X158306399Y-141257694D02*
X158222562Y-141254864D01*
X158222562Y-141254864D02*
X158140716Y-141249927D01*
X158140716Y-141249927D02*
X158061018Y-141242872D01*
X158061018Y-141242872D02*
X157983619Y-141233677D01*
X157983619Y-141233677D02*
X157908673Y-141222337D01*
X157908673Y-141222337D02*
X157908732Y-141222337D01*
X157908732Y-141222337D02*
X157908834Y-141221554D01*
M02*
